track pitch start end duration velocity
0 A#1 1.7391 2.1739 0.4348 127
0 A#1 2.1739 2.6087 0.4348 127
0 A#1 2.6087 3.0435 0.4348 127
0 A#1 3.0435 3.1522 0.1087 127
0 A#1 3.1522 3.2609 0.1087 127
0 A#1 3.2609 3.3696 0.1087 127
0 A#1 3.3696 3.4783 0.1087 127
0 A#1 3.4783 3.9130 0.4348 127
0 A#1 3.9130 4.3478 0.4348 127
0 A#1 4.3478 4.7826 0.4348 127
0 A#1 4.7826 5.0000 0.2174 127
0 A#1 5.0000 5.2174 0.2174 127
0 A#1 5.2174 5.6522 0.4348 127
0 A#1 5.6522 6.0869 0.4348 127
0 A#1 6.0869 6.5217 0.4348 127
0 A#1 6.5217 6.6304 0.1087 127
0 A#1 6.6304 6.7391 0.1087 127
0 A#1 6.7391 6.8478 0.1087 127
0 A#1 6.8478 6.9565 0.1087 127
0 A#1 6.9565 7.3913 0.4348 127
0 A#1 7.3913 7.8261 0.4348 127
0 A#1 7.8261 8.2609 0.4348 127
0 A#1 8.2609 8.4782 0.2174 127
0 A#1 8.4782 8.6956 0.2174 127
0 A#1 8.6956 9.1304 0.4348 127
0 A#1 9.1304 9.5652 0.4348 127
0 A#1 9.5652 10.0000 0.4348 127
0 A#1 10.0000 10.1087 0.1087 127
0 A#1 10.1087 10.2174 0.1087 127
0 A#1 10.2174 10.3261 0.1087 127
0 A#1 10.3261 10.4348 0.1087 127
0 A#1 10.4348 10.8696 0.4348 127
0 A#1 10.8696 11.3043 0.4348 127
0 A#1 11.3043 11.7391 0.4348 127
0 A#1 11.7391 11.9565 0.2174 127
0 A#1 11.9565 12.1739 0.2174 127
0 A#1 12.1739 12.6087 0.4348 127
0 A#1 12.6087 13.0435 0.4348 127
0 A#1 13.0435 13.4782 0.4348 127
0 A#1 13.4782 13.5869 0.1087 127
0 A#1 13.5869 13.6956 0.1087 127
0 A#1 13.6956 13.8043 0.1087 127
0 A#1 13.8043 13.9130 0.1087 127
0 A#1 13.9130 14.3478 0.4348 127
0 A#1 14.3478 14.7826 0.4348 127
0 A#1 14.7826 15.2174 0.4348 127
0 A#1 15.2174 15.4348 0.2174 127
0 A#1 15.6522 16.0869 0.4348 127
0 A#1 16.0869 16.5217 0.4348 127
0 A#1 16.5217 16.9565 0.4348 127
0 A#1 16.9565 17.3913 0.4348 127
0 A#1 17.3913 17.8261 0.4348 127
0 A#1 17.8261 18.2608 0.4348 127
0 A#1 18.2608 18.6956 0.4348 127
0 A#1 18.6956 18.9130 0.2174 127
0 A#1 18.9130 19.1304 0.2174 127
0 A#1 19.1304 19.5652 0.4348 127
0 A#1 19.5652 20.0000 0.4348 127
0 A#1 20.0000 20.4348 0.4348 127
0 A#1 20.4348 20.8695 0.4348 127
0 A#1 20.8695 21.3043 0.4348 127
0 A#1 21.3043 21.7391 0.4348 127
0 A#1 21.7391 22.1739 0.4348 127
0 A#1 22.1739 22.3913 0.2174 127
0 A#1 22.3913 22.6087 0.2174 127
0 A#1 22.6087 23.0434 0.4348 127
0 A#1 23.0434 23.4782 0.4348 127
0 A#1 23.4782 23.9130 0.4348 127
0 A#1 23.9130 24.3478 0.4348 127
0 A#1 24.3478 24.7826 0.4348 127
0 A#1 24.7826 25.2174 0.4348 127
0 A#1 25.2174 25.6521 0.4348 127
0 A#1 25.6521 25.8695 0.2174 127
0 A#1 25.8695 26.0869 0.2174 127
0 A#1 26.0869 26.5217 0.4348 127
0 A#1 26.5217 26.9565 0.4348 127
0 A#1 26.9565 27.3913 0.4348 127
0 A#1 27.3913 27.8260 0.4348 127
0 A#1 27.8260 28.2608 0.4348 127
0 A#1 28.2608 28.6956 0.4348 127
0 A#1 28.6956 28.8405 0.1449 127
0 A#1 28.8405 28.9855 0.1449 127
0 A#1 28.9855 29.1304 0.1449 127
0 A#1 29.1304 29.2753 0.1449 127
0 A#1 29.2753 29.4202 0.1449 127
0 A#1 29.4202 29.5652 0.1449 127
0 A#1 29.5652 30.0000 0.4348 127
0 A#1 30.0000 30.4347 0.4348 127
0 A#1 30.4347 30.8695 0.4348 127
0 A#1 30.8695 31.3043 0.4348 127
0 A#1 31.3043 31.7391 0.4348 127
0 A#1 31.7391 32.1739 0.4348 127
0 A#1 32.1739 32.6087 0.4348 127
0 A#1 32.6087 32.8260 0.2174 127
0 A#1 32.8260 33.0434 0.2174 127
0 A#1 33.0434 33.4782 0.4348 127
0 A#1 33.4782 33.9130 0.4348 127
0 A#1 33.9130 34.3478 0.4348 127
0 A#1 34.3478 34.7826 0.4348 127
0 A#1 34.7826 35.2173 0.4348 127
0 A#1 35.2173 35.6521 0.4348 127
0 A#1 35.6521 35.8695 0.2174 127
0 A#1 35.8695 36.0869 0.2174 127
0 A#1 36.0869 36.5217 0.4348 127
0 A#1 36.5217 36.9565 0.4348 127
0 A#1 36.9565 37.3913 0.4348 127
0 A#1 37.3913 37.8260 0.4348 127
0 A#1 37.8260 38.2608 0.4348 127
0 A#1 38.2608 38.6956 0.4348 127
0 A#1 38.6956 39.1304 0.4348 127
0 A#1 39.1304 39.5652 0.4348 127
0 A#1 39.5652 39.7826 0.2174 127
0 A#1 39.7826 39.9999 0.2174 127
0 A#1 39.9999 40.4347 0.4348 127
0 A#1 40.4347 40.8695 0.4348 127
0 A#1 40.8695 41.3043 0.4348 127
0 A#1 41.3043 41.7391 0.4348 127
0 A#1 41.7391 42.1739 0.4348 127
0 A#1 42.1739 42.6086 0.4348 127
0 A#1 42.6086 42.7536 0.1449 127
0 A#1 42.7536 42.8985 0.1449 127
0 A#1 42.8985 43.0434 0.1449 127
0 A#1 43.0434 43.1883 0.1449 127
0 A#1 43.1883 43.3333 0.1449 127
0 A#1 43.3333 43.4782 0.1449 127
0 A#1 43.4782 43.9130 0.4348 127
0 A#1 43.9130 44.3478 0.4348 127
0 A#1 44.3478 44.7825 0.4348 127
0 A#1 44.7825 45.2173 0.4348 127
0 A#1 45.2173 45.6521 0.4348 127
0 A#1 45.6521 46.0869 0.4348 127
0 A#1 46.0869 46.5217 0.4348 127
0 A#1 46.5217 46.7391 0.2174 127
0 A#1 46.7391 46.9565 0.2174 127
0 A#1 46.9565 47.3912 0.4348 127
0 A#1 47.3912 47.8260 0.4348 127
0 A#1 47.8260 48.2608 0.4348 127
0 A#1 48.2608 48.6956 0.4348 127
0 A#1 48.6956 49.1304 0.4348 127
0 A#1 49.1304 49.5651 0.4348 127
0 A#1 49.5651 49.7825 0.2174 127
0 A#1 49.7825 49.9999 0.2174 127
0 A#1 49.9999 50.4347 0.4348 127
0 A#1 50.4347 50.8695 0.4348 127
0 A#1 50.8695 51.3043 0.4348 127
0 A#1 51.3043 51.7391 0.4348 127
0 A#1 51.7391 52.1738 0.4348 127
0 A#1 52.1738 52.6086 0.4348 127
0 A#1 52.6086 53.0434 0.4348 127
0 A#1 53.0434 53.4782 0.4348 127
0 A#1 53.4782 53.6956 0.2174 127
0 A#1 53.6956 53.9130 0.2174 127
0 A#1 53.9130 54.3478 0.4348 127
0 A#1 54.3478 54.7825 0.4348 127
0 A#1 54.7825 55.2173 0.4348 127
0 A#1 55.2173 55.6521 0.4348 127
0 A#1 55.6521 56.0869 0.4348 127
0 A#1 56.0869 56.5217 0.4348 127
0 A#1 56.5217 56.9564 0.4348 127
0 A#1 56.9564 57.3912 0.4348 127
0 A#1 57.3912 57.8260 0.4348 127
0 A#1 57.8260 58.2608 0.4348 127
0 A#1 58.2608 58.6956 0.4348 127
0 A#1 58.6956 59.1304 0.4348 127
0 A#1 59.1304 59.5651 0.4348 127
0 A#1 59.5651 59.9999 0.4348 127
0 A#1 59.9999 60.4347 0.4348 127
0 A#1 60.4347 60.6521 0.2174 127
0 A#1 60.6521 60.8695 0.2174 127
0 A#1 60.8695 61.3043 0.4348 127
0 A#1 61.3043 61.7390 0.4348 127
0 A#1 61.7390 62.1738 0.4348 127
0 A#1 62.1738 62.6086 0.4348 127
0 A#1 62.6086 63.0434 0.4348 127
0 A#1 63.0434 63.4782 0.4348 127
0 A#1 63.4782 63.6956 0.2174 127
0 A#1 63.6956 63.9130 0.2174 127
0 A#1 63.9130 64.3477 0.4348 127
0 A#1 64.3477 64.7825 0.4348 127
0 A#1 64.7825 65.2173 0.4348 127
0 A#1 65.2173 65.6521 0.4348 127
0 A#1 65.6521 66.0869 0.4348 127
0 A#1 66.0869 66.5216 0.4348 127
0 A#1 66.5216 66.9564 0.4348 127
0 A#1 66.9564 67.3912 0.4348 127
0 A#1 67.3912 67.6086 0.2174 127
0 A#1 67.6086 67.8260 0.2174 127
0 A#1 67.8260 68.2608 0.4348 127
0 A#1 68.2608 68.6956 0.4348 127
0 A#1 68.6956 69.1303 0.4348 127
0 A#1 69.1303 69.5651 0.4348 127
0 A#1 69.5651 69.9999 0.4348 127
0 A#1 69.9999 70.4347 0.4348 127
0 A#1 70.4347 70.5796 0.1449 127
0 A#1 70.5796 70.7245 0.1449 127
0 A#1 70.7245 70.8695 0.1449 127
0 A#1 70.8695 71.0144 0.1449 127
0 A#1 71.0144 71.1593 0.1449 127
0 A#1 71.1593 71.3042 0.1449 127
0 A#1 71.3042 71.7390 0.4348 127
0 A#1 71.7390 72.1738 0.4348 127
0 A#1 72.1738 72.6086 0.4348 127
0 A#1 72.6086 73.0434 0.4348 127
0 A#1 73.0434 73.4782 0.4348 127
0 A#1 73.4782 73.9129 0.4348 127
0 A#1 73.9129 74.3477 0.4348 127
0 A#1 74.3477 74.5651 0.2174 127
0 A#1 74.5651 74.7825 0.2174 127
0 A#1 74.7825 75.2173 0.4348 127
0 A#1 75.2173 75.6521 0.4348 127
0 A#1 75.6521 76.0869 0.4348 127
0 A#1 76.0869 76.5216 0.4348 127
0 A#1 76.5216 76.9564 0.4348 127
0 A#1 76.9564 77.3912 0.4348 127
0 A#1 77.3912 77.6086 0.2174 127
0 A#1 77.6086 77.8260 0.2174 127
0 A#1 77.8260 78.2608 0.4348 127
0 A#1 78.2608 78.6955 0.4348 127
0 A#1 78.6955 79.1303 0.4348 127
0 A#1 79.1303 79.5651 0.4348 127
0 A#1 79.5651 79.9999 0.4348 127
0 A#1 79.9999 80.4347 0.4348 127
0 A#1 80.4347 80.8695 0.4348 127
0 A#1 80.8695 81.3042 0.4348 127
0 A#1 81.3042 81.5216 0.2174 127
0 A#1 81.5216 81.7390 0.2174 127
0 A#1 81.7390 82.1738 0.4348 127
0 A#1 82.1738 82.6086 0.4348 127
0 A#1 82.6086 83.0434 0.4348 127
0 A#1 83.0434 83.4781 0.4348 127
0 A#1 83.4781 83.9129 0.4348 127
0 A#1 83.9129 84.3477 0.4348 127
0 A#1 84.3477 84.4926 0.1449 127
0 A#1 84.4926 84.6376 0.1449 127
0 A#1 84.6376 84.7825 0.1449 127
0 A#1 84.7825 84.9274 0.1449 127
0 A#1 84.9274 85.0723 0.1449 127
0 A#1 85.0723 85.2173 0.1449 127
0 A#1 85.2173 112.1738 26.9565 127
0 A#1 112.1738 112.6085 0.4348 127
0 A#1 112.6085 113.0433 0.4348 127
0 A#1 113.0433 113.4781 0.4348 127
0 A#1 113.4781 113.9129 0.4348 127
0 A#1 113.9129 114.3477 0.4348 127
0 A#1 114.3477 114.7824 0.4348 127
0 A#1 114.7824 115.2172 0.4348 127
0 A#1 115.2172 115.6520 0.4348 127
0 A#1 115.6520 116.0868 0.4348 127
0 A#1 116.0868 116.3042 0.2174 127
0 A#1 116.3042 116.5216 0.2174 127
0 A#1 116.5216 116.9564 0.4348 127
0 A#1 116.9564 117.3911 0.4348 127
0 A#1 117.3911 117.8259 0.4348 127
0 A#1 117.8259 118.2607 0.4348 127
0 A#1 118.2607 118.6955 0.4348 127
0 A#1 118.6955 119.1303 0.4348 127
0 A#1 119.1303 119.5651 0.4348 127
0 A#1 119.5651 119.7824 0.2174 127
0 A#1 119.7824 119.9998 0.2174 127
0 A#1 119.9998 120.4346 0.4348 127
0 A#1 120.4346 120.8694 0.4348 127
0 A#1 120.8694 121.3042 0.4348 127
0 A#1 121.3042 121.7390 0.4348 127
0 A#1 121.7390 122.1737 0.4348 127
0 A#1 122.1737 122.6085 0.4348 127
0 A#1 122.6085 123.0433 0.4348 127
0 A#1 123.0433 123.2607 0.2174 127
0 A#1 123.2607 123.4781 0.2174 127
0 A#1 123.4781 123.9129 0.4348 127
0 A#1 123.9129 124.3477 0.4348 127
0 A#1 124.3477 124.7824 0.4348 127
0 A#1 124.7824 125.2172 0.4348 127
0 A#1 125.2172 125.6520 0.4348 127
0 A#1 125.6520 126.0868 0.4348 127
0 A#1 126.0868 126.2317 0.1449 127
0 A#1 126.2317 126.3766 0.1449 127
0 A#1 126.3766 126.5216 0.1449 127
0 A#1 126.5216 126.6665 0.1449 127
0 A#1 126.6665 126.8114 0.1449 127
0 A#1 126.8114 126.9563 0.1449 127
0 A#1 126.9563 127.3911 0.4348 127
0 A#1 127.3911 127.8259 0.4348 127
0 A#1 127.8259 128.2607 0.4348 127
0 A#1 128.2607 128.6955 0.4348 127
0 A#1 128.6955 129.1303 0.4348 127
0 A#1 129.1303 129.5650 0.4348 127
0 A#1 129.5650 129.9998 0.4348 127
0 A#1 129.9998 130.2172 0.2174 127
0 A#1 130.2172 130.4346 0.2174 127
0 A#1 130.4346 130.8694 0.4348 127
0 A#1 130.8694 131.3042 0.4348 127
0 A#1 131.3042 131.7389 0.4348 127
0 A#1 131.7389 132.1737 0.4348 127
0 A#1 132.1737 132.6085 0.4348 127
0 A#1 132.6085 133.0433 0.4348 127
0 A#1 133.0433 133.2607 0.2174 127
0 A#1 133.2607 133.4781 0.2174 127
0 A#1 133.4781 133.9129 0.4348 127
0 A#1 133.9129 134.3476 0.4348 127
0 A#1 134.3476 134.7824 0.4348 127
0 A#1 134.7824 135.2172 0.4348 127
0 A#1 135.2172 135.6520 0.4348 127
0 A#1 135.6520 136.0868 0.4348 127
0 A#1 136.0868 136.5215 0.4348 127
0 A#1 136.5215 136.9563 0.4348 127
0 A#1 136.9563 137.1737 0.2174 127
0 A#1 137.1737 137.3911 0.2174 127
0 A#1 137.3911 137.8259 0.4348 127
0 A#1 137.8259 138.2607 0.4348 127
0 A#1 138.2607 138.6955 0.4348 127
0 A#1 138.6955 139.1302 0.4348 127
0 A#1 139.1302 139.5650 0.4348 127
0 A#1 139.5650 139.9998 0.4348 127
0 A#1 139.9998 140.1447 0.1449 127
0 A#1 140.1447 140.2897 0.1449 127
0 A#1 140.2897 140.4346 0.1449 127
0 A#1 140.4346 140.5795 0.1449 127
0 A#1 140.5795 140.7244 0.1449 127
0 A#1 140.7244 140.8694 0.1449 127
0 A#1 140.8694 141.3042 0.4348 127
0 A#1 141.3042 141.7389 0.4348 127
0 A#1 141.7389 142.1737 0.4348 127
0 A#1 142.1737 142.6085 0.4348 127
0 A#1 142.6085 143.0433 0.4348 127
0 A#1 143.0433 143.4781 0.4348 127
0 A#1 143.4781 143.9128 0.4348 127
0 A#1 143.9128 144.1302 0.2174 127
0 A#1 144.1302 144.3476 0.2174 127
0 A#1 144.3476 144.7824 0.4348 127
0 A#1 144.7824 145.2172 0.4348 127
0 A#1 145.2172 145.6520 0.4348 127
0 A#1 145.6520 146.0868 0.4348 127
0 A#1 146.0868 146.5215 0.4348 127
0 A#1 146.5215 146.9563 0.4348 127
0 A#1 146.9563 147.1737 0.2174 127
0 A#1 147.1737 147.3911 0.2174 127
0 A#1 147.3911 147.8259 0.4348 127
0 A#1 147.8259 148.2607 0.4348 127
0 A#1 148.2607 148.6954 0.4348 127
0 A#1 148.6954 149.1302 0.4348 127
0 A#1 149.1302 149.5650 0.4348 127
0 A#1 149.5650 149.9998 0.4348 127
0 A#1 149.9998 150.4346 0.4348 127
0 A#1 150.4346 150.8694 0.4348 127
0 A#1 150.8694 151.0867 0.2174 127
0 A#1 151.0867 151.3041 0.2174 127
0 A#1 151.3041 151.7389 0.4348 127
0 A#1 151.7389 152.1737 0.4348 127
0 A#1 152.1737 152.6085 0.4348 127
0 A#1 152.6085 153.0433 0.4348 127
0 A#1 153.0433 153.4780 0.4348 127
0 A#1 153.4780 153.9128 0.4348 127
0 A#1 153.9128 154.3476 0.4348 127
0 A#1 154.3476 154.7824 0.4348 127
0 A#1 154.7824 155.2172 0.4348 127
0 A#1 155.2172 155.6520 0.4348 127
0 A#1 155.6520 156.0867 0.4348 127
0 A#1 156.0867 156.5215 0.4348 127
0 A#1 156.5215 156.9563 0.4348 127
0 A#1 156.9563 157.3911 0.4348 127
0 A#1 157.3911 157.8259 0.4348 127
0 A#1 157.8259 158.0433 0.2174 127
0 A#1 158.0433 158.2606 0.2174 127
0 A#1 158.2606 158.6954 0.4348 127
0 A#1 158.6954 159.1302 0.4348 127
0 A#1 159.1302 159.5650 0.4348 127
0 A#1 159.5650 159.9998 0.4348 127
0 A#1 159.9998 160.4346 0.4348 127
0 A#1 160.4346 160.8693 0.4348 127
0 A#1 160.8693 161.0867 0.2174 127
0 A#1 161.0867 161.3041 0.2174 127
0 A#1 161.3041 161.7389 0.4348 127
0 A#1 161.7389 162.1737 0.4348 127
0 A#1 162.1737 162.6085 0.4348 127
0 A#1 162.6085 163.0433 0.4348 127
0 A#1 163.0433 163.4780 0.4348 127
0 A#1 163.4780 163.9128 0.4348 127
0 A#1 163.9128 164.3476 0.4348 127
0 A#1 164.3476 164.7824 0.4348 127
0 A#1 164.7824 164.9998 0.2174 127
0 A#1 164.9998 165.2172 0.2174 127
0 A#1 165.2172 165.6519 0.4348 127
0 A#1 165.6519 166.0867 0.4348 127
0 A#1 166.0867 166.5215 0.4348 127
0 A#1 166.5215 166.9563 0.4348 127
0 A#1 166.9563 167.3911 0.4348 127
0 A#1 167.3911 167.8259 0.4348 127
0 A#1 167.8259 167.9708 0.1449 127
0 A#1 167.9708 168.1157 0.1449 127
0 A#1 168.1157 168.2606 0.1449 127
0 A#1 168.2606 168.4056 0.1449 127
0 A#1 168.4056 168.5505 0.1449 127
0 A#1 168.5505 168.6954 0.1449 127
0 A#1 168.6954 169.1302 0.4348 127
0 A#1 169.1302 169.5650 0.4348 127
0 A#1 169.5650 169.9998 0.4348 127
0 A#1 169.9998 170.4345 0.4348 127
0 A#1 170.4345 170.8693 0.4348 127
0 A#1 170.8693 171.3041 0.4348 127
0 A#1 171.3041 171.7389 0.4348 127
0 A#1 171.7389 171.9563 0.2174 127
0 A#1 171.9563 172.1737 0.2174 127
0 A#1 172.1737 172.6085 0.4348 127
0 A#1 172.6085 173.0432 0.4348 127
0 A#1 173.0432 173.4780 0.4348 127
0 A#1 173.4780 173.9128 0.4348 127
0 A#1 173.9128 174.3476 0.4348 127
0 A#1 174.3476 174.7824 0.4348 127
0 A#1 174.7824 174.9998 0.2174 127
0 A#1 174.9998 175.2171 0.2174 127
0 A#1 175.2171 175.6519 0.4348 127
0 A#1 175.6519 176.0867 0.4348 127
0 A#1 176.0867 176.5215 0.4348 127
0 A#1 176.5215 176.9563 0.4348 127
0 A#1 176.9563 177.3911 0.4348 127
0 A#1 177.3911 177.8258 0.4348 127
0 A#1 177.8258 178.2606 0.4348 127
0 A#1 178.2606 178.6954 0.4348 127
0 A#1 178.6954 178.9128 0.2174 127
0 A#1 178.9128 179.1302 0.2174 127
0 A#1 179.1302 179.5650 0.4348 127
0 A#1 179.5650 179.9997 0.4348 127
0 A#1 179.9997 180.4345 0.4348 127
0 A#1 180.4345 180.8693 0.4348 127
0 A#1 180.8693 181.3041 0.4348 127
0 A#1 181.3041 181.7389 0.4348 127
0 A#1 181.7389 182.1737 0.4348 127
0 A#1 182.1737 182.6084 0.4348 127
0 A#1 182.6084 196.5215 13.9130 127
0 A#1 196.5215 210.4345 13.9130 127
0 A#1 210.4345 217.8196 7.3851 127
1 C#2 2.1739 3.0435 0.8696 127
1 C#2 3.0435 3.1522 0.1087 127
1 C#2 3.1522 3.2609 0.1087 127
1 C#2 3.2609 3.3696 0.1087 127
1 C#2 3.3696 3.4783 0.1087 127
1 C#2 3.4783 3.9130 0.4348 127
1 C#2 3.9130 4.7826 0.8696 127
1 C#2 4.7826 5.0000 0.2174 127
1 C#2 5.0000 5.6522 0.6522 127
1 C#2 5.6522 6.5217 0.8696 127
1 C#2 6.5217 6.6304 0.1087 127
1 C#2 6.6304 6.7391 0.1087 127
1 C#2 6.7391 6.8478 0.1087 127
1 C#2 6.8478 6.9565 0.1087 127
1 C#2 6.9565 7.3913 0.4348 127
1 C#2 7.3913 8.2609 0.8696 127
1 C#2 8.2609 8.4782 0.2174 127
1 C#2 8.4782 9.1304 0.6522 127
1 C#2 9.1304 10.0000 0.8696 127
1 C#2 10.0000 10.1087 0.1087 127
1 C#2 10.1087 10.2174 0.1087 127
1 C#2 10.2174 10.3261 0.1087 127
1 C#2 10.3261 10.4348 0.1087 127
1 C#2 10.4348 10.8696 0.4348 127
1 C#2 10.8696 11.7391 0.8696 127
1 C#2 11.7391 11.9565 0.2174 127
1 C#2 11.9565 12.6087 0.6522 127
1 C#2 12.6087 13.4782 0.8696 127
1 C#2 13.4782 13.5869 0.1087 127
1 C#2 13.5869 13.6956 0.1087 127
1 C#2 13.6956 13.8043 0.1087 127
1 C#2 13.8043 13.9130 0.1087 127
1 C#2 13.9130 14.3478 0.4348 127
1 C#2 14.3478 16.0869 1.7391 127
1 C#2 16.0869 16.9565 0.8696 127
1 C#2 16.9565 17.8261 0.8696 127
1 C#2 17.8261 18.6956 0.8696 127
1 C#2 18.6956 19.5652 0.8696 127
1 C#2 19.5652 20.4348 0.8696 127
1 C#2 20.4348 21.3043 0.8696 127
1 C#2 21.3043 22.1739 0.8696 127
1 C#2 22.1739 23.0434 0.8696 127
1 C#2 23.0434 23.9130 0.8696 127
1 C#2 23.9130 24.7826 0.8696 127
1 C#2 24.7826 25.6521 0.8696 127
1 C#2 25.6521 26.5217 0.8696 127
1 C#2 26.5217 27.3913 0.8696 127
1 C#2 27.3913 28.2608 0.8696 127
1 C#2 28.2608 30.0000 1.7391 127
1 C#2 30.0000 30.8695 0.8696 127
1 C#2 30.8695 31.7391 0.8696 127
1 C#2 31.7391 32.6087 0.8696 127
1 C#2 32.6087 33.4782 0.8696 127
1 C#2 33.4782 34.3478 0.8696 127
1 C#2 34.3478 35.2173 0.8696 127
1 C#2 35.2173 36.0869 0.8696 127
1 C#2 36.0869 36.9565 0.8696 127
1 C#2 36.9565 37.8260 0.8696 127
1 C#2 37.8260 38.6956 0.8696 127
1 C#2 38.6956 39.5652 0.8696 127
1 C#2 39.5652 40.4347 0.8696 127
1 C#2 40.4347 41.3043 0.8696 127
1 C#2 41.3043 42.1739 0.8696 127
1 C#2 42.1739 42.6086 0.4348 127
1 C#2 42.6086 42.7536 0.1449 127
1 C#2 42.7536 42.8985 0.1449 127
1 C#2 42.8985 43.0434 0.1449 127
1 C#2 43.0434 43.1883 0.1449 127
1 C#2 43.1883 43.3333 0.1449 127
1 C#2 43.3333 43.4782 0.1449 127
1 C#2 43.4782 43.9130 0.4348 40
1 C#2 43.9130 44.3478 0.4348 127
1 C#2 44.3478 44.7825 0.4348 40
1 C#2 44.7825 45.2173 0.4348 127
1 C#2 45.2173 45.6521 0.4348 40
1 C#2 45.6521 46.0869 0.4348 127
1 C#2 46.0869 46.5217 0.4348 40
1 C#2 46.5217 46.9565 0.4348 127
1 C#2 46.9565 47.3912 0.4348 40
1 C#2 47.3912 47.8260 0.4348 127
1 C#2 47.8260 48.2608 0.4348 40
1 C#2 48.2608 48.6956 0.4348 127
1 C#2 48.6956 49.1304 0.4348 40
1 C#2 49.1304 49.5651 0.4348 127
1 C#2 49.5651 49.9999 0.4348 40
1 C#2 49.9999 50.4347 0.4348 127
1 C#2 50.4347 50.8695 0.4348 40
1 C#2 50.8695 51.3043 0.4348 127
1 C#2 51.3043 51.7391 0.4348 40
1 C#2 51.7391 52.1738 0.4348 127
1 C#2 52.1738 52.6086 0.4348 40
1 C#2 52.6086 53.0434 0.4348 127
1 C#2 53.0434 53.4782 0.4348 40
1 C#2 53.4782 53.9130 0.4348 127
1 C#2 53.9130 54.3478 0.4348 40
1 C#2 54.3478 54.7825 0.4348 127
1 C#2 54.7825 55.2173 0.4348 40
1 C#2 55.2173 55.6521 0.4348 127
1 C#2 55.6521 56.0869 0.4348 40
1 C#2 56.0869 56.5217 0.4348 40
1 C#2 56.5217 56.9564 0.4348 40
1 C#2 56.9564 57.3912 0.4348 40
1 C#2 57.3912 57.8260 0.4348 40
1 C#2 57.8260 58.2608 0.4348 127
1 C#2 58.2608 58.6956 0.4348 40
1 C#2 58.6956 59.1304 0.4348 127
1 C#2 59.1304 59.5651 0.4348 40
1 C#2 59.5651 59.9999 0.4348 127
1 C#2 59.9999 60.4347 0.4348 40
1 C#2 60.4347 60.8695 0.4348 127
1 C#2 60.8695 61.3043 0.4348 40
1 C#2 61.3043 61.7390 0.4348 127
1 C#2 61.7390 62.1738 0.4348 40
1 C#2 62.1738 62.6086 0.4348 127
1 C#2 62.6086 63.0434 0.4348 40
1 C#2 63.0434 63.4782 0.4348 127
1 C#2 63.4782 63.9130 0.4348 40
1 C#2 63.9130 64.3477 0.4348 127
1 C#2 64.3477 64.7825 0.4348 40
1 C#2 64.7825 65.2173 0.4348 127
1 C#2 65.2173 65.6521 0.4348 40
1 C#2 65.6521 66.0869 0.4348 127
1 C#2 66.0869 66.5216 0.4348 40
1 C#2 66.5216 66.9564 0.4348 127
1 C#2 66.9564 67.3912 0.4348 40
1 C#2 67.3912 67.8260 0.4348 127
1 C#2 67.8260 68.2608 0.4348 40
1 C#2 68.2608 68.6956 0.4348 127
1 C#2 68.6956 69.1303 0.4348 40
1 C#2 69.1303 69.5651 0.4348 127
1 C#2 69.5651 69.9999 0.4348 40
1 C#2 69.9999 70.4347 0.4348 127
1 C#2 70.4347 70.5796 0.1449 127
1 C#2 70.5796 70.7245 0.1449 127
1 C#2 70.7245 70.8695 0.1449 127
1 C#2 70.8695 71.0144 0.1449 127
1 C#2 71.0144 71.1593 0.1449 127
1 C#2 71.1593 71.3042 0.1449 127
1 C#2 71.3042 71.7390 0.4348 40
1 C#2 71.7390 72.1738 0.4348 127
1 C#2 72.1738 72.6086 0.4348 40
1 C#2 72.6086 73.0434 0.4348 127
1 C#2 73.0434 73.4782 0.4348 40
1 C#2 73.4782 73.9129 0.4348 127
1 C#2 73.9129 74.3477 0.4348 40
1 C#2 74.3477 74.7825 0.4348 127
1 C#2 74.7825 75.2173 0.4348 40
1 C#2 75.2173 75.6521 0.4348 127
1 C#2 75.6521 76.0869 0.4348 40
1 C#2 76.0869 76.5216 0.4348 127
1 C#2 76.5216 76.9564 0.4348 40
1 C#2 76.9564 77.3912 0.4348 127
1 C#2 77.3912 77.8260 0.4348 40
1 C#2 77.8260 78.2608 0.4348 127
1 C#2 78.2608 78.6955 0.4348 40
1 C#2 78.6955 79.1303 0.4348 127
1 C#2 79.1303 79.5651 0.4348 40
1 C#2 79.5651 79.9999 0.4348 127
1 C#2 79.9999 80.4347 0.4348 40
1 C#2 80.4347 80.8695 0.4348 127
1 C#2 80.8695 81.3042 0.4348 40
1 C#2 81.3042 81.7390 0.4348 127
1 C#2 81.7390 82.1738 0.4348 40
1 C#2 82.1738 82.6086 0.4348 127
1 C#2 82.6086 83.0434 0.4348 40
1 C#2 83.0434 83.4781 0.4348 127
1 C#2 83.4781 83.9129 0.4348 40
1 C#2 83.9129 84.3477 0.4348 127
1 C#2 84.3477 84.4926 0.1449 127
1 C#2 84.4926 84.6376 0.1449 127
1 C#2 84.6376 84.7825 0.1449 127
1 C#2 84.7825 84.9274 0.1449 127
1 C#2 84.9274 85.0723 0.1449 127
1 C#2 85.0723 85.2173 0.1449 127
1 C#2 85.2173 99.1303 13.9130 127
1 C#2 113.0433 113.4781 0.4348 40
1 C#2 113.4781 113.9129 0.4348 127
1 C#2 113.9129 114.3477 0.4348 40
1 C#2 114.3477 114.7824 0.4348 127
1 C#2 114.7824 115.2172 0.4348 40
1 C#2 115.2172 115.6520 0.4348 127
1 C#2 115.6520 116.0868 0.4348 40
1 C#2 116.0868 116.5216 0.4348 127
1 C#2 116.5216 116.9564 0.4348 40
1 C#2 116.9564 117.3911 0.4348 127
1 C#2 117.3911 117.8259 0.4348 40
1 C#2 117.8259 118.2607 0.4348 127
1 C#2 118.2607 118.6955 0.4348 40
1 C#2 118.6955 119.1303 0.4348 127
1 C#2 119.1303 119.5651 0.4348 40
1 C#2 119.5651 119.9998 0.4348 127
1 C#2 119.9998 120.4346 0.4348 40
1 C#2 120.4346 120.8694 0.4348 127
1 C#2 120.8694 121.3042 0.4348 40
1 C#2 121.3042 121.7390 0.4348 127
1 C#2 121.7390 122.1737 0.4348 40
1 C#2 122.1737 122.6085 0.4348 127
1 C#2 122.6085 123.0433 0.4348 40
1 C#2 123.0433 123.4781 0.4348 127
1 C#2 123.4781 123.9129 0.4348 40
1 C#2 123.9129 124.3477 0.4348 127
1 C#2 124.3477 124.7824 0.4348 40
1 C#2 124.7824 125.2172 0.4348 127
1 C#2 125.2172 125.6520 0.4348 40
1 C#2 125.6520 126.0868 0.4348 127
1 C#2 126.0868 126.2317 0.1449 127
1 C#2 126.2317 126.3766 0.1449 127
1 C#2 126.3766 126.5216 0.1449 127
1 C#2 126.5216 126.6665 0.1449 127
1 C#2 126.6665 126.8114 0.1449 127
1 C#2 126.8114 126.9563 0.1449 127
1 C#2 126.9563 127.3911 0.4348 40
1 C#2 127.3911 127.8259 0.4348 127
1 C#2 127.8259 128.2607 0.4348 40
1 C#2 128.2607 128.6955 0.4348 127
1 C#2 128.6955 129.1303 0.4348 40
1 C#2 129.1303 129.5650 0.4348 127
1 C#2 129.5650 129.9998 0.4348 40
1 C#2 129.9998 130.4346 0.4348 127
1 C#2 130.4346 130.8694 0.4348 40
1 C#2 130.8694 131.3042 0.4348 127
1 C#2 131.3042 131.7389 0.4348 40
1 C#2 131.7389 132.1737 0.4348 127
1 C#2 132.1737 132.6085 0.4348 40
1 C#2 132.6085 133.0433 0.4348 127
1 C#2 133.0433 133.4781 0.4348 40
1 C#2 133.4781 133.9129 0.4348 127
1 C#2 133.9129 134.3476 0.4348 40
1 C#2 134.3476 134.7824 0.4348 127
1 C#2 134.7824 135.2172 0.4348 40
1 C#2 135.2172 135.6520 0.4348 127
1 C#2 135.6520 136.0868 0.4348 40
1 C#2 136.0868 136.5215 0.4348 127
1 C#2 136.5215 136.9563 0.4348 40
1 C#2 136.9563 137.3911 0.4348 127
1 C#2 137.3911 137.8259 0.4348 40
1 C#2 137.8259 138.2607 0.4348 127
1 C#2 138.2607 138.6955 0.4348 40
1 C#2 138.6955 139.1302 0.4348 127
1 C#2 139.1302 139.5650 0.4348 40
1 C#2 139.5650 139.9998 0.4348 40
1 C#2 139.9998 140.1447 0.1449 127
1 C#2 140.1447 140.2897 0.1449 127
1 C#2 140.2897 140.4346 0.1449 127
1 C#2 140.4346 140.5795 0.1449 127
1 C#2 140.5795 140.7244 0.1449 127
1 C#2 140.7244 140.8694 0.1449 127
1 C#2 140.8694 141.3042 0.4348 40
1 C#2 141.3042 141.7389 0.4348 127
1 C#2 141.7389 142.1737 0.4348 40
1 C#2 142.1737 142.6085 0.4348 127
1 C#2 142.6085 143.0433 0.4348 40
1 C#2 143.0433 143.4781 0.4348 127
1 C#2 143.4781 143.9128 0.4348 40
1 C#2 143.9128 144.3476 0.4348 127
1 C#2 144.3476 144.7824 0.4348 40
1 C#2 144.7824 145.2172 0.4348 127
1 C#2 145.2172 145.6520 0.4348 40
1 C#2 145.6520 146.0868 0.4348 127
1 C#2 146.0868 146.5215 0.4348 40
1 C#2 146.5215 146.9563 0.4348 127
1 C#2 146.9563 147.3911 0.4348 40
1 C#2 147.3911 147.8259 0.4348 127
1 C#2 147.8259 148.2607 0.4348 40
1 C#2 148.2607 148.6954 0.4348 127
1 C#2 148.6954 149.1302 0.4348 40
1 C#2 149.1302 149.5650 0.4348 127
1 C#2 149.5650 149.9998 0.4348 40
1 C#2 149.9998 150.4346 0.4348 127
1 C#2 150.4346 150.8694 0.4348 40
1 C#2 150.8694 151.3041 0.4348 127
1 C#2 151.3041 151.7389 0.4348 40
1 C#2 151.7389 152.1737 0.4348 127
1 C#2 152.1737 152.6085 0.4348 40
1 C#2 152.6085 153.0433 0.4348 127
1 C#2 153.0433 153.4780 0.4348 40
1 C#2 153.4780 153.9128 0.4348 40
1 C#2 153.9128 154.3476 0.4348 40
1 C#2 154.3476 154.7824 0.4348 40
1 C#2 154.7824 155.2172 0.4348 40
1 C#2 155.2172 155.6520 0.4348 127
1 C#2 155.6520 156.0867 0.4348 40
1 C#2 156.0867 156.5215 0.4348 127
1 C#2 156.5215 156.9563 0.4348 40
1 C#2 156.9563 157.3911 0.4348 127
1 C#2 157.3911 157.8259 0.4348 40
1 C#2 157.8259 158.2606 0.4348 127
1 C#2 158.2606 158.6954 0.4348 40
1 C#2 158.6954 159.1302 0.4348 127
1 C#2 159.1302 159.5650 0.4348 40
1 C#2 159.5650 159.9998 0.4348 127
1 C#2 159.9998 160.4346 0.4348 40
1 C#2 160.4346 160.8693 0.4348 127
1 C#2 160.8693 161.3041 0.4348 40
1 C#2 161.3041 161.7389 0.4348 127
1 C#2 161.7389 162.1737 0.4348 40
1 C#2 162.1737 162.6085 0.4348 127
1 C#2 162.6085 163.0433 0.4348 40
1 C#2 163.0433 163.4780 0.4348 127
1 C#2 163.4780 163.9128 0.4348 40
1 C#2 163.9128 164.3476 0.4348 127
1 C#2 164.3476 164.7824 0.4348 40
1 C#2 164.7824 165.2172 0.4348 127
1 C#2 165.2172 165.6519 0.4348 40
1 C#2 165.6519 166.0867 0.4348 127
1 C#2 166.0867 166.5215 0.4348 40
1 C#2 166.5215 166.9563 0.4348 127
1 C#2 166.9563 167.3911 0.4348 40
1 C#2 167.3911 167.8259 0.4348 127
1 C#2 167.8259 167.9708 0.1449 127
1 C#2 167.9708 168.1157 0.1449 127
1 C#2 168.1157 168.2606 0.1449 127
1 C#2 168.2606 168.4056 0.1449 127
1 C#2 168.4056 168.5505 0.1449 127
1 C#2 168.5505 168.6954 0.1449 127
1 C#2 168.6954 169.1302 0.4348 40
1 C#2 169.1302 169.5650 0.4348 127
1 C#2 169.5650 169.9998 0.4348 40
1 C#2 169.9998 170.4345 0.4348 127
1 C#2 170.4345 170.8693 0.4348 40
1 C#2 170.8693 171.3041 0.4348 127
1 C#2 171.3041 171.7389 0.4348 40
1 C#2 171.7389 172.1737 0.4348 127
1 C#2 172.1737 172.6085 0.4348 40
1 C#2 172.6085 173.0432 0.4348 127
1 C#2 173.0432 173.4780 0.4348 40
1 C#2 173.4780 173.9128 0.4348 127
1 C#2 173.9128 174.3476 0.4348 40
1 C#2 174.3476 174.7824 0.4348 127
1 C#2 174.7824 175.2171 0.4348 40
1 C#2 175.2171 175.6519 0.4348 127
1 C#2 175.6519 176.0867 0.4348 40
1 C#2 176.0867 176.5215 0.4348 127
1 C#2 176.5215 176.9563 0.4348 40
1 C#2 176.9563 177.3911 0.4348 127
1 C#2 177.3911 177.8258 0.4348 40
1 C#2 177.8258 178.2606 0.4348 127
1 C#2 178.2606 178.6954 0.4348 40
1 C#2 178.6954 179.1302 0.4348 127
1 C#2 179.1302 179.5650 0.4348 40
1 C#2 179.5650 179.9997 0.4348 127
1 C#2 179.9997 180.4345 0.4348 40
1 C#2 180.4345 180.8693 0.4348 127
1 C#2 180.8693 181.3041 0.4348 40
1 C#2 181.3041 181.7389 0.4348 127
1 C#2 181.7389 182.1737 0.4348 127
1 C#2 182.1737 182.6084 0.4348 127
1 C#2 210.4345 217.8196 7.3851 127
2 F2 1.9565 2.3913 0.4348 127
2 F2 2.3913 2.8261 0.4348 127
2 F2 2.8261 3.6956 0.8696 127
2 F2 3.6956 4.1304 0.4348 127
2 F2 4.1304 4.5652 0.4348 127
2 F2 4.5652 5.4348 0.8696 127
2 F2 5.4348 5.8696 0.4348 127
2 F2 5.8696 6.3043 0.4348 127
2 F2 6.3043 7.1739 0.8696 127
2 F2 7.1739 7.6087 0.4348 127
2 F2 7.6087 8.0435 0.4348 127
2 F2 8.0435 8.9130 0.8696 127
2 F2 8.9130 9.3478 0.4348 127
2 F2 9.3478 9.7826 0.4348 127
2 F2 9.7826 10.6522 0.8696 127
2 F2 10.6522 11.0869 0.4348 127
2 F2 11.0869 11.5217 0.4348 127
2 F2 11.5217 12.3913 0.8696 127
2 F2 12.3913 12.8261 0.4348 127
2 F2 12.8261 13.2609 0.4348 127
2 F2 13.2609 14.1304 0.8696 127
2 F2 14.1304 14.5652 0.4348 127
2 F2 14.5652 15.0000 0.4348 127
2 F2 15.0000 15.8695 0.8696 127
2 F2 15.8695 16.3043 0.4348 127
2 F2 16.3043 16.7391 0.4348 127
2 F2 16.7391 17.1739 0.4348 127
2 F2 17.1739 17.6087 0.4348 127
2 F2 17.6087 18.0435 0.4348 127
2 F2 18.0435 18.4782 0.4348 127
2 F2 18.4782 18.9130 0.4348 127
2 F2 18.9130 19.3478 0.4348 127
2 F2 19.3478 19.7826 0.4348 127
2 F2 19.7826 20.2174 0.4348 127
2 F2 20.2174 20.6521 0.4348 127
2 F2 20.6521 21.0869 0.4348 127
2 F2 21.0869 21.5217 0.4348 127
2 F2 21.5217 21.9565 0.4348 127
2 F2 21.9565 22.3913 0.4348 127
2 F2 22.3913 22.8261 0.4348 127
2 F2 22.8261 23.2608 0.4348 127
2 F2 23.2608 23.6956 0.4348 127
2 F2 23.6956 24.1304 0.4348 127
2 F2 24.1304 24.5652 0.4348 127
2 F2 24.5652 25.0000 0.4348 127
2 F2 25.0000 25.4347 0.4348 127
2 F2 25.4347 25.8695 0.4348 127
2 F2 25.8695 26.3043 0.4348 127
2 F2 26.3043 26.7391 0.4348 127
2 F2 26.7391 27.1739 0.4348 127
2 F2 27.1739 27.6087 0.4348 127
2 F2 27.6087 28.0434 0.4348 127
2 F2 28.0434 28.4782 0.4348 127
2 F2 28.4782 29.7826 1.3043 127
2 F2 29.7826 30.2173 0.4348 127
2 F2 30.2173 30.6521 0.4348 127
2 F2 30.6521 31.0869 0.4348 127
2 F2 31.0869 31.5217 0.4348 127
2 F2 31.5217 31.9565 0.4348 127
2 F2 31.9565 32.3913 0.4348 127
2 F2 32.3913 32.8260 0.4348 127
2 F2 32.8260 33.2608 0.4348 127
2 F2 33.2608 33.6956 0.4348 127
2 F2 33.6956 34.1304 0.4348 127
2 F2 34.1304 34.5652 0.4348 127
2 F2 34.5652 35.0000 0.4348 127
2 F2 35.0000 35.4347 0.4348 127
2 F2 35.4347 35.8695 0.4348 127
2 F2 35.8695 36.3043 0.4348 127
2 F2 36.3043 36.7391 0.4348 127
2 F2 36.7391 37.1739 0.4348 127
2 F2 37.1739 37.6086 0.4348 127
2 F2 37.6086 38.0434 0.4348 127
2 F2 38.0434 38.4782 0.4348 127
2 F2 38.4782 38.9130 0.4348 127
2 F2 38.9130 39.3478 0.4348 127
2 F2 39.3478 39.7826 0.4348 127
2 F2 39.7826 40.2173 0.4348 127
2 F2 40.2173 40.6521 0.4348 127
2 F2 40.6521 41.0869 0.4348 127
2 F2 41.0869 41.5217 0.4348 127
2 F2 41.5217 41.9565 0.4348 127
2 F2 41.9565 42.3912 0.4348 127
2 F2 42.3912 43.4782 1.0870 127
2 F2 43.4782 43.6956 0.2174 44
2 F2 43.6956 43.9130 0.2174 127
2 F2 43.9130 44.1304 0.2174 44
2 F2 44.1304 44.3478 0.2174 127
2 F2 44.3478 44.5652 0.2174 44
2 F2 44.5652 44.7825 0.2174 127
2 F2 44.7825 44.9999 0.2174 44
2 F2 44.9999 45.2173 0.2174 127
2 F2 45.2173 45.4347 0.2174 44
2 F2 45.4347 45.6521 0.2174 127
2 F2 45.6521 45.8695 0.2174 44
2 F2 45.8695 46.0869 0.2174 127
2 F2 46.0869 46.3043 0.2174 44
2 F2 46.3043 46.5217 0.2174 127
2 F2 46.5217 46.7391 0.2174 44
2 F2 46.7391 46.9565 0.2174 127
2 F2 46.9565 47.1738 0.2174 44
2 F2 47.1738 47.3912 0.2174 127
2 F2 47.3912 47.6086 0.2174 44
2 F2 47.6086 47.8260 0.2174 127
2 F2 47.8260 48.0434 0.2174 44
2 F2 48.0434 48.2608 0.2174 127
2 F2 48.2608 48.4782 0.2174 44
2 F2 48.4782 48.6956 0.2174 127
2 F2 48.6956 48.9130 0.2174 44
2 F2 48.9130 49.1304 0.2174 127
2 F2 49.1304 49.3478 0.2174 44
2 F2 49.3478 49.5651 0.2174 127
2 F2 49.5651 49.7825 0.2174 44
2 F2 49.7825 49.9999 0.2174 127
2 F2 49.9999 50.2173 0.2174 44
2 F2 50.2173 50.4347 0.2174 127
2 F2 50.4347 50.6521 0.2174 44
2 F2 50.6521 50.8695 0.2174 127
2 F2 50.8695 51.0869 0.2174 44
2 F2 51.0869 51.3043 0.2174 127
2 F2 51.3043 51.5217 0.2174 44
2 F2 51.5217 51.7391 0.2174 127
2 F2 51.7391 51.9564 0.2174 44
2 F2 51.9564 52.1738 0.2174 127
2 F2 52.1738 52.3912 0.2174 44
2 F2 52.3912 52.6086 0.2174 127
2 F2 52.6086 52.8260 0.2174 44
2 F2 52.8260 53.0434 0.2174 127
2 F2 53.0434 53.2608 0.2174 44
2 F2 53.2608 53.4782 0.2174 127
2 F2 53.4782 53.6956 0.2174 44
2 F2 53.6956 53.9130 0.2174 127
2 F2 53.9130 54.1304 0.2174 44
2 F2 54.1304 54.3478 0.2174 127
2 F2 54.3478 54.5651 0.2174 44
2 F2 54.5651 54.7825 0.2174 127
2 F2 54.7825 54.9999 0.2174 44
2 F2 54.9999 55.2173 0.2174 127
2 F2 55.2173 55.4347 0.2174 44
2 F2 55.4347 57.3912 1.9565 127
2 F2 57.3912 57.6086 0.2174 44
2 F2 57.6086 57.8260 0.2174 127
2 F2 57.8260 58.0434 0.2174 44
2 F2 58.0434 58.2608 0.2174 127
2 F2 58.2608 58.4782 0.2174 44
2 F2 58.4782 58.6956 0.2174 127
2 F2 58.6956 58.9130 0.2174 44
2 F2 58.9130 59.1304 0.2174 127
2 F2 59.1304 59.3477 0.2174 44
2 F2 59.3477 59.5651 0.2174 127
2 F2 59.5651 59.7825 0.2174 44
2 F2 59.7825 59.9999 0.2174 127
2 F2 59.9999 60.2173 0.2174 44
2 F2 60.2173 60.4347 0.2174 127
2 F2 60.4347 60.6521 0.2174 44
2 F2 60.6521 60.8695 0.2174 127
2 F2 60.8695 61.0869 0.2174 44
2 F2 61.0869 61.3043 0.2174 127
2 F2 61.3043 61.5217 0.2174 44
2 F2 61.5217 61.7390 0.2174 127
2 F2 61.7390 61.9564 0.2174 44
2 F2 61.9564 62.1738 0.2174 127
2 F2 62.1738 62.3912 0.2174 44
2 F2 62.3912 62.6086 0.2174 127
2 F2 62.6086 62.8260 0.2174 44
2 F2 62.8260 63.0434 0.2174 127
2 F2 63.0434 63.2608 0.2174 44
2 F2 63.2608 63.4782 0.2174 127
2 F2 63.4782 63.6956 0.2174 44
2 F2 63.6956 63.9130 0.2174 127
2 F2 63.9130 64.1303 0.2174 44
2 F2 64.1303 64.3477 0.2174 127
2 F2 64.3477 64.5651 0.2174 44
2 F2 64.5651 64.7825 0.2174 127
2 F2 64.7825 64.9999 0.2174 44
2 F2 64.9999 65.2173 0.2174 127
2 F2 65.2173 65.4347 0.2174 44
2 F2 65.4347 65.6521 0.2174 127
2 F2 65.6521 65.8695 0.2174 44
2 F2 65.8695 66.0869 0.2174 127
2 F2 66.0869 66.3043 0.2174 44
2 F2 66.3043 66.5216 0.2174 127
2 F2 66.5216 66.7390 0.2174 44
2 F2 66.7390 66.9564 0.2174 127
2 F2 66.9564 67.1738 0.2174 44
2 F2 67.1738 67.3912 0.2174 127
2 F2 67.3912 67.6086 0.2174 44
2 F2 67.6086 67.8260 0.2174 127
2 F2 67.8260 68.0434 0.2174 44
2 F2 68.0434 68.2608 0.2174 127
2 F2 68.2608 68.4782 0.2174 44
2 F2 68.4782 68.6956 0.2174 127
2 F2 68.6956 68.9129 0.2174 44
2 F2 68.9129 69.1303 0.2174 127
2 F2 69.1303 69.3477 0.2174 44
2 F2 69.3477 69.5651 0.2174 127
2 F2 69.5651 69.7825 0.2174 44
2 F2 69.7825 69.9999 0.2174 127
2 F2 69.9999 70.2173 0.2174 44
2 F2 70.2173 71.3042 1.0870 127
2 F2 71.3042 71.5216 0.2174 44
2 F2 71.5216 71.7390 0.2174 127
2 F2 71.7390 71.9564 0.2174 44
2 F2 71.9564 72.1738 0.2174 127
2 F2 72.1738 72.3912 0.2174 44
2 F2 72.3912 72.6086 0.2174 127
2 F2 72.6086 72.8260 0.2174 44
2 F2 72.8260 73.0434 0.2174 127
2 F2 73.0434 73.2608 0.2174 44
2 F2 73.2608 73.4782 0.2174 127
2 F2 73.4782 73.6955 0.2174 44
2 F2 73.6955 73.9129 0.2174 127
2 F2 73.9129 74.1303 0.2174 44
2 F2 74.1303 74.3477 0.2174 127
2 F2 74.3477 74.5651 0.2174 44
2 F2 74.5651 74.7825 0.2174 127
2 F2 74.7825 74.9999 0.2174 44
2 F2 74.9999 75.2173 0.2174 127
2 F2 75.2173 75.4347 0.2174 44
2 F2 75.4347 75.6521 0.2174 127
2 F2 75.6521 75.8695 0.2174 44
2 F2 75.8695 76.0869 0.2174 127
2 F2 76.0869 76.3042 0.2174 44
2 F2 76.3042 76.5216 0.2174 127
2 F2 76.5216 76.7390 0.2174 44
2 F2 76.7390 76.9564 0.2174 127
2 F2 76.9564 77.1738 0.2174 44
2 F2 77.1738 77.3912 0.2174 127
2 F2 77.3912 77.6086 0.2174 44
2 F2 77.6086 77.8260 0.2174 127
2 F2 77.8260 78.0434 0.2174 44
2 F2 78.0434 78.2608 0.2174 127
2 F2 78.2608 78.4782 0.2174 44
2 F2 78.4782 78.6955 0.2174 127
2 F2 78.6955 78.9129 0.2174 44
2 F2 78.9129 79.1303 0.2174 127
2 F2 79.1303 79.3477 0.2174 44
2 F2 79.3477 79.5651 0.2174 127
2 F2 79.5651 79.7825 0.2174 44
2 F2 79.7825 79.9999 0.2174 127
2 F2 79.9999 80.2173 0.2174 44
2 F2 80.2173 80.4347 0.2174 127
2 F2 80.4347 80.6521 0.2174 44
2 F2 80.6521 80.8695 0.2174 127
2 F2 80.8695 81.0868 0.2174 44
2 F2 81.0868 81.3042 0.2174 127
2 F2 81.3042 81.5216 0.2174 44
2 F2 81.5216 81.7390 0.2174 127
2 F2 81.7390 81.9564 0.2174 44
2 F2 81.9564 82.1738 0.2174 127
2 F2 82.1738 82.3912 0.2174 44
2 F2 82.3912 82.6086 0.2174 127
2 F2 82.6086 82.8260 0.2174 44
2 F2 82.8260 83.0434 0.2174 127
2 F2 83.0434 83.2608 0.2174 44
2 F2 83.2608 83.4781 0.2174 127
2 F2 83.4781 83.6955 0.2174 44
2 F2 83.6955 83.9129 0.2174 127
2 F2 83.9129 84.1303 0.2174 44
2 F2 84.1303 86.0868 1.9565 127
2 F2 113.0433 113.2607 0.2174 44
2 F2 113.2607 113.4781 0.2174 127
2 F2 113.4781 113.6955 0.2174 44
2 F2 113.6955 113.9129 0.2174 127
2 F2 113.9129 114.1303 0.2174 44
2 F2 114.1303 114.3477 0.2174 127
2 F2 114.3477 114.5651 0.2174 44
2 F2 114.5651 114.7824 0.2174 127
2 F2 114.7824 114.9998 0.2174 44
2 F2 114.9998 115.2172 0.2174 127
2 F2 115.2172 115.4346 0.2174 44
2 F2 115.4346 115.6520 0.2174 127
2 F2 115.6520 115.8694 0.2174 44
2 F2 115.8694 116.0868 0.2174 127
2 F2 116.0868 116.3042 0.2174 44
2 F2 116.3042 116.5216 0.2174 127
2 F2 116.5216 116.7390 0.2174 44
2 F2 116.7390 116.9564 0.2174 127
2 F2 116.9564 117.1737 0.2174 44
2 F2 117.1737 117.3911 0.2174 127
2 F2 117.3911 117.6085 0.2174 44
2 F2 117.6085 117.8259 0.2174 127
2 F2 117.8259 118.0433 0.2174 44
2 F2 118.0433 118.2607 0.2174 127
2 F2 118.2607 118.4781 0.2174 44
2 F2 118.4781 118.6955 0.2174 127
2 F2 118.6955 118.9129 0.2174 44
2 F2 118.9129 119.1303 0.2174 127
2 F2 119.1303 119.3477 0.2174 44
2 F2 119.3477 119.5651 0.2174 127
2 F2 119.5651 119.7824 0.2174 44
2 F2 119.7824 119.9998 0.2174 127
2 F2 119.9998 120.2172 0.2174 44
2 F2 120.2172 120.4346 0.2174 127
2 F2 120.4346 120.6520 0.2174 44
2 F2 120.6520 120.8694 0.2174 127
2 F2 120.8694 121.0868 0.2174 44
2 F2 121.0868 121.3042 0.2174 127
2 F2 121.3042 121.5216 0.2174 44
2 F2 121.5216 121.7390 0.2174 127
2 F2 121.7390 121.9564 0.2174 44
2 F2 121.9564 122.1737 0.2174 127
2 F2 122.1737 122.3911 0.2174 44
2 F2 122.3911 122.6085 0.2174 127
2 F2 122.6085 122.8259 0.2174 44
2 F2 122.8259 123.0433 0.2174 127
2 F2 123.0433 123.2607 0.2174 44
2 F2 123.2607 123.4781 0.2174 127
2 F2 123.4781 123.6955 0.2174 44
2 F2 123.6955 123.9129 0.2174 127
2 F2 123.9129 124.1303 0.2174 44
2 F2 124.1303 124.3477 0.2174 127
2 F2 124.3477 124.5650 0.2174 44
2 F2 124.5650 124.7824 0.2174 127
2 F2 124.7824 124.9998 0.2174 44
2 F2 124.9998 125.2172 0.2174 127
2 F2 125.2172 125.4346 0.2174 44
2 F2 125.4346 125.6520 0.2174 127
2 F2 125.6520 125.8694 0.2174 44
2 F2 125.8694 126.9563 1.0870 127
2 F2 126.9563 127.1737 0.2174 44
2 F2 127.1737 127.3911 0.2174 127
2 F2 127.3911 127.6085 0.2174 44
2 F2 127.6085 127.8259 0.2174 127
2 F2 127.8259 128.0433 0.2174 44
2 F2 128.0433 128.2607 0.2174 127
2 F2 128.2607 128.4781 0.2174 44
2 F2 128.4781 128.6955 0.2174 127
2 F2 128.6955 128.9129 0.2174 44
2 F2 128.9129 129.1303 0.2174 127
2 F2 129.1303 129.3476 0.2174 44
2 F2 129.3476 129.5650 0.2174 127
2 F2 129.5650 129.7824 0.2174 44
2 F2 129.7824 129.9998 0.2174 127
2 F2 129.9998 130.2172 0.2174 44
2 F2 130.2172 130.4346 0.2174 127
2 F2 130.4346 130.6520 0.2174 44
2 F2 130.6520 130.8694 0.2174 127
2 F2 130.8694 131.0868 0.2174 44
2 F2 131.0868 131.3042 0.2174 127
2 F2 131.3042 131.5216 0.2174 44
2 F2 131.5216 131.7389 0.2174 127
2 F2 131.7389 131.9563 0.2174 44
2 F2 131.9563 132.1737 0.2174 127
2 F2 132.1737 132.3911 0.2174 44
2 F2 132.3911 132.6085 0.2174 127
2 F2 132.6085 132.8259 0.2174 44
2 F2 132.8259 133.0433 0.2174 127
2 F2 133.0433 133.2607 0.2174 44
2 F2 133.2607 133.4781 0.2174 127
2 F2 133.4781 133.6955 0.2174 44
2 F2 133.6955 133.9129 0.2174 127
2 F2 133.9129 134.1302 0.2174 44
2 F2 134.1302 134.3476 0.2174 127
2 F2 134.3476 134.5650 0.2174 44
2 F2 134.5650 134.7824 0.2174 127
2 F2 134.7824 134.9998 0.2174 44
2 F2 134.9998 135.2172 0.2174 127
2 F2 135.2172 135.4346 0.2174 44
2 F2 135.4346 135.6520 0.2174 127
2 F2 135.6520 135.8694 0.2174 44
2 F2 135.8694 136.0868 0.2174 127
2 F2 136.0868 136.3042 0.2174 44
2 F2 136.3042 136.5215 0.2174 127
2 F2 136.5215 136.7389 0.2174 44
2 F2 136.7389 136.9563 0.2174 127
2 F2 136.9563 137.1737 0.2174 44
2 F2 137.1737 137.3911 0.2174 127
2 F2 137.3911 137.6085 0.2174 44
2 F2 137.6085 137.8259 0.2174 127
2 F2 137.8259 138.0433 0.2174 44
2 F2 138.0433 138.2607 0.2174 127
2 F2 138.2607 138.4781 0.2174 44
2 F2 138.4781 138.6955 0.2174 127
2 F2 138.6955 138.9128 0.2174 44
2 F2 138.9128 139.1302 0.2174 127
2 F2 139.1302 139.3476 0.2174 44
2 F2 139.3476 139.5650 0.2174 127
2 F2 139.5650 139.7824 0.2174 44
2 F2 139.7824 140.8694 1.0870 127
2 F2 140.8694 141.0868 0.2174 44
2 F2 141.0868 141.3042 0.2174 127
2 F2 141.3042 141.5215 0.2174 44
2 F2 141.5215 141.7389 0.2174 127
2 F2 141.7389 141.9563 0.2174 44
2 F2 141.9563 142.1737 0.2174 127
2 F2 142.1737 142.3911 0.2174 44
2 F2 142.3911 142.6085 0.2174 127
2 F2 142.6085 142.8259 0.2174 44
2 F2 142.8259 143.0433 0.2174 127
2 F2 143.0433 143.2607 0.2174 44
2 F2 143.2607 143.4781 0.2174 127
2 F2 143.4781 143.6955 0.2174 44
2 F2 143.6955 143.9128 0.2174 127
2 F2 143.9128 144.1302 0.2174 44
2 F2 144.1302 144.3476 0.2174 127
2 F2 144.3476 144.5650 0.2174 44
2 F2 144.5650 144.7824 0.2174 127
2 F2 144.7824 144.9998 0.2174 44
2 F2 144.9998 145.2172 0.2174 127
2 F2 145.2172 145.4346 0.2174 44
2 F2 145.4346 145.6520 0.2174 127
2 F2 145.6520 145.8694 0.2174 44
2 F2 145.8694 146.0868 0.2174 127
2 F2 146.0868 146.3041 0.2174 44
2 F2 146.3041 146.5215 0.2174 127
2 F2 146.5215 146.7389 0.2174 44
2 F2 146.7389 146.9563 0.2174 127
2 F2 146.9563 147.1737 0.2174 44
2 F2 147.1737 147.3911 0.2174 127
2 F2 147.3911 147.6085 0.2174 44
2 F2 147.6085 147.8259 0.2174 127
2 F2 147.8259 148.0433 0.2174 44
2 F2 148.0433 148.2607 0.2174 127
2 F2 148.2607 148.4781 0.2174 44
2 F2 148.4781 148.6954 0.2174 127
2 F2 148.6954 148.9128 0.2174 44
2 F2 148.9128 149.1302 0.2174 127
2 F2 149.1302 149.3476 0.2174 44
2 F2 149.3476 149.5650 0.2174 127
2 F2 149.5650 149.7824 0.2174 44
2 F2 149.7824 149.9998 0.2174 127
2 F2 149.9998 150.2172 0.2174 44
2 F2 150.2172 150.4346 0.2174 127
2 F2 150.4346 150.6520 0.2174 44
2 F2 150.6520 150.8694 0.2174 127
2 F2 150.8694 151.0867 0.2174 44
2 F2 151.0867 151.3041 0.2174 127
2 F2 151.3041 151.5215 0.2174 44
2 F2 151.5215 151.7389 0.2174 127
2 F2 151.7389 151.9563 0.2174 44
2 F2 151.9563 152.1737 0.2174 127
2 F2 152.1737 152.3911 0.2174 44
2 F2 152.3911 152.6085 0.2174 127
2 F2 152.6085 152.8259 0.2174 44
2 F2 152.8259 154.7824 1.9565 127
2 F2 154.7824 154.9998 0.2174 44
2 F2 154.9998 155.2172 0.2174 127
2 F2 155.2172 155.4346 0.2174 44
2 F2 155.4346 155.6520 0.2174 127
2 F2 155.6520 155.8693 0.2174 44
2 F2 155.8693 156.0867 0.2174 127
2 F2 156.0867 156.3041 0.2174 44
2 F2 156.3041 156.5215 0.2174 127
2 F2 156.5215 156.7389 0.2174 44
2 F2 156.7389 156.9563 0.2174 127
2 F2 156.9563 157.1737 0.2174 44
2 F2 157.1737 157.3911 0.2174 127
2 F2 157.3911 157.6085 0.2174 44
2 F2 157.6085 157.8259 0.2174 127
2 F2 157.8259 158.0433 0.2174 44
2 F2 158.0433 158.2606 0.2174 127
2 F2 158.2606 158.4780 0.2174 44
2 F2 158.4780 158.6954 0.2174 127
2 F2 158.6954 158.9128 0.2174 44
2 F2 158.9128 159.1302 0.2174 127
2 F2 159.1302 159.3476 0.2174 44
2 F2 159.3476 159.5650 0.2174 127
2 F2 159.5650 159.7824 0.2174 44
2 F2 159.7824 159.9998 0.2174 127
2 F2 159.9998 160.2172 0.2174 44
2 F2 160.2172 160.4346 0.2174 127
2 F2 160.4346 160.6519 0.2174 44
2 F2 160.6519 160.8693 0.2174 127
2 F2 160.8693 161.0867 0.2174 44
2 F2 161.0867 161.3041 0.2174 127
2 F2 161.3041 161.5215 0.2174 44
2 F2 161.5215 161.7389 0.2174 127
2 F2 161.7389 161.9563 0.2174 44
2 F2 161.9563 162.1737 0.2174 127
2 F2 162.1737 162.3911 0.2174 44
2 F2 162.3911 162.6085 0.2174 127
2 F2 162.6085 162.8259 0.2174 44
2 F2 162.8259 163.0433 0.2174 127
2 F2 163.0433 163.2606 0.2174 44
2 F2 163.2606 163.4780 0.2174 127
2 F2 163.4780 163.6954 0.2174 44
2 F2 163.6954 163.9128 0.2174 127
2 F2 163.9128 164.1302 0.2174 44
2 F2 164.1302 164.3476 0.2174 127
2 F2 164.3476 164.5650 0.2174 44
2 F2 164.5650 164.7824 0.2174 127
2 F2 164.7824 164.9998 0.2174 44
2 F2 164.9998 165.2172 0.2174 127
2 F2 165.2172 165.4346 0.2174 44
2 F2 165.4346 165.6519 0.2174 127
2 F2 165.6519 165.8693 0.2174 44
2 F2 165.8693 166.0867 0.2174 127
2 F2 166.0867 166.3041 0.2174 44
2 F2 166.3041 166.5215 0.2174 127
2 F2 166.5215 166.7389 0.2174 44
2 F2 166.7389 166.9563 0.2174 127
2 F2 166.9563 167.1737 0.2174 44
2 F2 167.1737 167.3911 0.2174 127
2 F2 167.3911 167.6085 0.2174 44
2 F2 167.6085 168.6954 1.0870 127
2 F2 168.6954 168.9128 0.2174 44
2 F2 168.9128 169.1302 0.2174 127
2 F2 169.1302 169.3476 0.2174 44
2 F2 169.3476 169.5650 0.2174 127
2 F2 169.5650 169.7824 0.2174 44
2 F2 169.7824 169.9998 0.2174 127
2 F2 169.9998 170.2172 0.2174 44
2 F2 170.2172 170.4345 0.2174 127
2 F2 170.4345 170.6519 0.2174 44
2 F2 170.6519 170.8693 0.2174 127
2 F2 170.8693 171.0867 0.2174 44
2 F2 171.0867 171.3041 0.2174 127
2 F2 171.3041 171.5215 0.2174 44
2 F2 171.5215 171.7389 0.2174 127
2 F2 171.7389 171.9563 0.2174 44
2 F2 171.9563 172.1737 0.2174 127
2 F2 172.1737 172.3911 0.2174 44
2 F2 172.3911 172.6085 0.2174 127
2 F2 172.6085 172.8258 0.2174 44
2 F2 172.8258 173.0432 0.2174 127
2 F2 173.0432 173.2606 0.2174 44
2 F2 173.2606 173.4780 0.2174 127
2 F2 173.4780 173.6954 0.2174 44
2 F2 173.6954 173.9128 0.2174 127
2 F2 173.9128 174.1302 0.2174 44
2 F2 174.1302 174.3476 0.2174 127
2 F2 174.3476 174.5650 0.2174 44
2 F2 174.5650 174.7824 0.2174 127
2 F2 174.7824 174.9998 0.2174 44
2 F2 174.9998 175.2171 0.2174 127
2 F2 175.2171 175.4345 0.2174 44
2 F2 175.4345 175.6519 0.2174 127
2 F2 175.6519 175.8693 0.2174 44
2 F2 175.8693 176.0867 0.2174 127
2 F2 176.0867 176.3041 0.2174 44
2 F2 176.3041 176.5215 0.2174 127
2 F2 176.5215 176.7389 0.2174 44
2 F2 176.7389 176.9563 0.2174 127
2 F2 176.9563 177.1737 0.2174 44
2 F2 177.1737 177.3911 0.2174 127
2 F2 177.3911 177.6084 0.2174 44
2 F2 177.6084 177.8258 0.2174 127
2 F2 177.8258 178.0432 0.2174 44
2 F2 178.0432 178.2606 0.2174 127
2 F2 178.2606 178.4780 0.2174 44
2 F2 178.4780 178.6954 0.2174 127
2 F2 178.6954 178.9128 0.2174 44
2 F2 178.9128 179.1302 0.2174 127
2 F2 179.1302 179.3476 0.2174 44
2 F2 179.3476 179.5650 0.2174 127
2 F2 179.5650 179.7824 0.2174 44
2 F2 179.7824 179.9997 0.2174 127
2 F2 179.9997 180.2171 0.2174 44
2 F2 180.2171 180.4345 0.2174 127
2 F2 180.4345 180.6519 0.2174 44
2 F2 180.6519 180.8693 0.2174 127
2 F2 180.8693 181.0867 0.2174 44
2 F2 181.0867 181.3041 0.2174 127
2 F2 181.3041 181.5215 0.2174 44
2 F2 181.5215 183.4780 1.9565 127
3 C#3 1.7364 13.4755 11.7391 127
3 C#3 15.2147 15.4311 0.2165 127
3 C#3 15.6467 28.6893 13.0426 127
3 C#3 28.6947 28.8396 0.1449 127
3 C#3 28.8396 28.9846 0.1449 127
3 C#3 28.9846 29.1295 0.1449 127
3 C#3 29.1295 29.2744 0.1449 127
3 C#3 29.2744 29.4193 0.1449 127
3 C#3 29.4193 29.5643 0.1449 127
3 C#3 29.5643 36.5208 6.9565 127
3 C#3 36.5208 40.8686 4.3478 127
3 C#3 42.6077 42.7527 0.1449 127
3 C#3 42.7527 42.8976 0.1449 127
3 C#3 42.8976 43.0425 0.1449 127
3 C#3 43.0425 43.1874 0.1449 127
3 C#3 43.1874 43.3324 0.1449 127
3 C#3 43.3324 43.4773 0.1449 127
3 C#3 43.4773 50.4338 6.9565 127
3 C#3 50.4338 53.9121 3.4783 127
3 C#3 55.6512 56.0851 0.4339 127
3 C#3 56.0851 56.5208 0.4357 127
3 C#3 56.5208 56.9555 0.4348 127
3 C#3 56.9555 57.3903 0.4348 127
3 C#3 57.3903 64.3468 6.9565 127
3 C#3 64.3468 69.5642 5.2174 127
3 C#3 71.3033 71.7381 0.4348 127
3 C#3 71.7381 72.1720 0.4339 127
3 C#3 72.1720 72.6077 0.4357 127
3 C#3 72.6077 73.0425 0.4348 127
3 C#3 73.0425 73.4773 0.4348 127
3 C#3 73.4773 73.9120 0.4348 127
3 C#3 73.9120 74.3468 0.4348 127
3 C#3 74.3468 74.7816 0.4348 127
3 C#3 74.7816 75.2164 0.4348 127
3 C#3 75.2164 75.6512 0.4348 127
3 C#3 75.6512 76.0850 0.4339 127
3 C#3 76.0850 76.5207 0.4357 127
3 C#3 76.5207 76.9555 0.4348 127
3 C#3 76.9555 77.3903 0.4348 127
3 C#3 77.3903 77.8251 0.4348 127
3 C#3 77.8251 78.2599 0.4348 127
3 C#3 78.2599 78.6946 0.4348 127
3 C#3 78.6946 79.1294 0.4348 127
3 C#3 79.1294 79.5642 0.4348 127
3 C#3 79.5642 79.9999 0.4357 127
3 C#3 79.9999 80.4338 0.4339 127
3 C#3 80.4338 80.8685 0.4348 127
3 C#3 80.8685 81.3033 0.4348 127
3 C#3 81.3033 81.7381 0.4348 127
3 C#3 81.7381 82.1720 0.4339 127
3 C#3 82.1720 82.6077 0.4357 127
3 C#3 82.6077 83.0425 0.4348 127
3 C#3 83.0425 83.4772 0.4348 127
3 C#3 83.4772 83.9120 0.4348 127
3 C#3 83.9120 84.3468 0.4348 127
3 C#3 84.3468 84.4917 0.1449 127
3 C#3 84.4917 84.6367 0.1449 127
3 C#3 84.6367 84.7816 0.1449 127
3 C#3 84.7816 84.9265 0.1449 127
3 C#3 84.9265 85.0714 0.1449 127
3 C#3 85.0714 85.2164 0.1449 127
3 C#3 85.2164 99.1294 13.9130 127
3 C#3 99.1294 106.0850 6.9556 127
3 C#3 106.0850 109.5642 3.4792 127
3 C#3 112.1719 112.6076 0.4357 127
3 C#3 112.6076 113.0424 0.4348 127
3 C#3 113.0424 119.9998 6.9574 127
3 C#3 119.9998 126.0850 6.0851 127
3 C#3 126.0850 126.2308 0.1458 127
3 C#3 126.2308 126.3757 0.1449 127
3 C#3 126.3757 126.5207 0.1449 127
3 C#3 126.5207 126.6656 0.1449 127
3 C#3 126.6656 126.8105 0.1449 127
3 C#3 126.8105 126.9554 0.1449 127
3 C#3 126.9554 133.9120 6.9565 127
3 C#3 133.9120 138.2598 4.3478 127
3 C#3 139.9998 140.1429 0.1431 127
3 C#3 140.1429 140.2888 0.1458 127
3 C#3 140.2888 140.4337 0.1449 127
3 C#3 140.4337 140.5786 0.1449 127
3 C#3 140.5786 140.7235 0.1449 127
3 C#3 140.7235 140.8685 0.1449 127
3 C#3 140.8685 147.8250 6.9565 127
3 C#3 147.8250 153.0424 5.2174 127
3 C#3 153.0424 153.2597 0.2174 127
3 C#3 153.4771 153.6945 0.2174 127
3 C#3 153.9119 154.1293 0.2174 127
3 C#3 154.3467 154.5641 0.2174 127
3 C#3 154.7815 161.7380 6.9565 127
3 C#3 161.7380 166.9554 5.2174 127
3 C#3 168.6945 169.1293 0.4348 127
3 C#3 169.1293 169.5641 0.4348 127
3 C#3 169.5641 169.9998 0.4357 127
3 C#3 169.9998 170.4336 0.4339 127
3 C#3 170.4336 170.8684 0.4348 127
3 C#3 170.8684 171.3032 0.4348 127
3 C#3 171.3032 171.7380 0.4348 127
3 C#3 171.7380 172.1719 0.4339 127
3 C#3 172.1719 172.6075 0.4357 127
3 C#3 172.6075 173.0423 0.4348 127
3 C#3 173.0423 173.4771 0.4348 127
3 C#3 173.4771 173.9119 0.4348 127
3 C#3 173.9119 174.3467 0.4348 127
3 C#3 174.3467 174.7815 0.4348 127
3 C#3 174.7815 175.2162 0.4348 127
3 C#3 175.2162 175.6510 0.4348 127
3 C#3 175.6510 176.0849 0.4339 127
3 C#3 176.0849 176.5206 0.4357 127
3 C#3 176.5206 176.9554 0.4348 127
3 C#3 176.9554 177.3902 0.4348 127
3 C#3 177.3902 177.8249 0.4348 127
3 C#3 177.8249 178.2597 0.4348 127
3 C#3 178.2597 178.6945 0.4348 127
3 C#3 178.6945 179.1293 0.4348 127
3 C#3 179.1293 179.5641 0.4348 127
3 C#3 179.5641 179.9988 0.4348 127
3 C#3 179.9988 180.4336 0.4348 127
3 C#3 180.4336 180.8684 0.4348 127
3 C#3 180.8684 181.3032 0.4348 127
3 C#3 181.3032 181.7380 0.4348 127
3 C#3 181.7380 182.1718 0.4339 127
3 C#3 182.1718 182.6075 0.4357 127
3 C#3 182.6075 194.7814 12.1739 127
3 C#3 196.5206 208.6945 12.1739 127
3 C#3 210.4336 217.8160 7.3824 127
4 D#2 13.4782 15.2174 1.7391 127
4 D#2 40.8695 42.6086 1.7391 127
4 D#2 53.9130 55.6521 1.7391 127
4 D#2 69.5651 71.3042 1.7391 127
4 D#2 109.5651 111.3042 1.7391 127
4 D#2 138.2607 139.9998 1.7391 127
4 D#2 166.9563 168.6954 1.7391 127
4 D#2 194.7823 196.5215 1.7391 127
4 D#2 208.6954 210.4345 1.7391 127
5 D#2 15.6512 15.8686 0.2174 127
5 A#2 15.8686 15.9773 0.1087 60
5 D#3 15.9773 16.0851 0.1078 127
5 D#3 16.1947 16.3034 0.1087 127
5 C#3 16.3034 16.4121 0.1087 127
5 D#3 16.4121 16.5208 0.1087 127
5 D#2 16.5208 16.7382 0.2174 127
5 A#2 16.7382 16.8469 0.1087 60
5 D#3 16.8469 16.9556 0.1087 127
5 D#3 17.0643 17.1721 0.1078 127
5 C#3 17.1721 17.2817 0.1096 127
5 D#3 17.2817 17.3904 0.1087 127
5 D#2 17.3904 17.6078 0.2174 127
5 A#2 17.6078 17.7165 0.1087 60
5 D#3 17.7165 17.8252 0.1087 127
5 D#3 17.9339 18.0425 0.1087 127
5 C#3 18.0425 18.1512 0.1087 127
5 D#3 18.1512 18.2599 0.1087 127
5 D#2 18.2599 18.4773 0.2174 127
5 D#3 18.4773 18.5851 0.1078 127
5 F#3 18.5851 18.6947 0.1096 127
5 G#3 18.6947 18.9121 0.2174 127
5 F#3 18.9121 19.0208 0.1087 127
5 G#3 19.0208 19.1295 0.1087 127
5 D#2 19.1295 19.3469 0.2174 127
5 A#2 19.3469 19.4556 0.1087 60
5 D#3 19.4556 19.5643 0.1087 127
5 D#3 19.6721 19.7817 0.1096 127
5 C#3 19.7817 19.8904 0.1087 127
5 D#3 19.8904 20.0000 0.1096 127
5 D#2 20.0000 20.2165 0.2165 127
5 A#2 20.2165 20.3252 0.1087 60
5 D#3 20.3252 20.4338 0.1087 127
5 D#3 20.5425 20.6512 0.1087 127
5 C#3 20.6512 20.7599 0.1087 127
5 D#3 20.7599 20.8686 0.1087 127
5 D#2 20.8686 21.0851 0.2165 127
5 A#2 21.0851 21.1947 0.1096 60
5 D#3 21.1947 21.3034 0.1087 127
5 D#3 21.4121 21.5208 0.1087 127
5 C#3 21.5208 21.6295 0.1087 127
5 D#3 21.6295 21.7382 0.1087 127
5 G#3 21.7382 21.9556 0.2174 127
5 F#3 21.9556 22.0643 0.1087 127
5 G#3 22.0643 22.1721 0.1078 127
5 F#3 22.1721 22.3904 0.2183 127
5 D#3 22.3904 22.4991 0.1087 127
5 F#3 22.4991 22.6078 0.1087 127
5 D#2 22.6078 22.8251 0.2174 127
5 A#2 22.8251 22.9338 0.1087 60
5 D#3 22.9338 23.0425 0.1087 127
5 D#3 23.1512 23.2599 0.1087 127
5 C#3 23.2599 23.3686 0.1087 127
5 D#3 23.3686 23.4773 0.1087 127
5 D#2 23.4773 23.6947 0.2174 127
5 A#2 23.6947 23.8034 0.1087 60
5 D#3 23.8034 23.9121 0.1087 127
5 D#3 24.0208 24.1295 0.1087 127
5 C#3 24.1295 24.2382 0.1087 127
5 D#3 24.2382 24.3469 0.1087 127
5 D#2 24.3469 24.5643 0.2174 127
5 A#2 24.5643 24.6721 0.1078 60
5 D#3 24.6721 24.7817 0.1096 127
5 D#3 24.8904 24.9991 0.1087 127
5 C#3 24.9991 25.1078 0.1087 127
5 D#3 25.1078 25.2165 0.1087 127
5 D#2 25.2165 25.4338 0.2174 127
5 D#3 25.4338 25.5425 0.1087 127
5 F#3 25.5425 25.6512 0.1087 127
5 G#3 25.6512 25.8686 0.2174 127
5 F#3 25.8686 25.9773 0.1087 127
5 G#3 25.9773 26.0851 0.1078 127
5 D#2 26.0851 26.3034 0.2183 127
5 A#2 26.3034 26.4121 0.1087 60
5 D#3 26.4121 26.5208 0.1087 127
5 D#3 26.6295 26.7382 0.1087 127
5 C#3 26.7382 26.8469 0.1087 127
5 D#3 26.8469 26.9556 0.1087 127
5 D#2 26.9556 27.1721 0.2165 127
5 A#2 27.1721 27.2817 0.1096 60
5 D#3 27.2817 27.3904 0.1087 127
5 D#3 27.4991 27.6078 0.1087 127
5 C#3 27.6078 27.7164 0.1087 127
5 D#3 27.7164 27.8251 0.1087 127
5 D#2 27.8251 28.0425 0.2174 127
5 A#2 28.0425 28.1512 0.1087 60
5 D#3 28.1512 28.2599 0.1087 127
5 D#3 28.3686 28.4773 0.1087 127
5 C#3 28.4773 28.5851 0.1078 127
5 D#3 28.5851 28.6947 0.1096 127
5 G#3 28.6947 28.8396 0.1449 127
5 F#3 28.8396 28.9846 0.1449 127
5 G#3 28.9846 29.1295 0.1449 127
5 F#3 29.1295 29.2744 0.1449 127
5 D#3 29.2744 29.4193 0.1449 127
5 F#3 29.4193 29.5643 0.1449 127
5 D#2 29.5643 29.7817 0.2174 127
5 A#2 29.7817 29.8904 0.1087 60
5 D#3 29.8904 30.0000 0.1096 127
5 D#3 30.1077 30.2164 0.1087 127
5 C#3 30.2164 30.3251 0.1087 127
5 D#3 30.3251 30.4338 0.1087 127
5 D#2 30.4338 30.6512 0.2174 127
5 A#2 30.6512 30.7599 0.1087 60
5 D#3 30.7599 30.8686 0.1087 127
5 D#3 30.9773 31.0851 0.1078 127
5 C#3 31.0851 31.1947 0.1096 127
5 D#3 31.1947 31.3034 0.1087 127
5 D#2 31.3034 31.5208 0.2174 127
5 A#2 31.5208 31.6295 0.1087 60
5 D#3 31.6295 31.7382 0.1087 127
5 D#3 31.8469 31.9556 0.1087 127
5 C#3 31.9556 32.0643 0.1087 127
5 D#3 32.0643 32.1721 0.1078 127
5 D#2 32.1721 32.3904 0.2183 127
5 D#3 32.3904 32.5000 0.1096 127
5 F#3 32.5000 32.6077 0.1078 127
5 G#3 32.6077 32.8251 0.2174 127
5 F#3 32.8251 32.9338 0.1087 127
5 G#3 32.9338 33.0425 0.1087 127
5 B1 33.0425 33.2599 0.2174 127
5 F#2 33.2599 33.3686 0.1087 60
5 B2 33.3686 33.4773 0.1087 127
5 B2 33.5851 33.6947 0.1096 127
5 A#2 33.6947 33.8034 0.1087 127
5 B2 33.8034 33.9121 0.1087 127
5 B1 33.9121 34.1295 0.2174 127
5 F#2 34.1295 34.2382 0.1087 60
5 B2 34.2382 34.3469 0.1087 127
5 B2 34.4556 34.5643 0.1087 127
5 A#2 34.5643 34.6721 0.1078 127
5 B2 34.6721 34.7817 0.1096 127
5 C#2 34.7817 35.0000 0.2183 127
5 G#2 35.0000 35.1077 0.1078 60
5 C#3 35.1077 35.2164 0.1087 127
5 C#3 35.3251 35.4338 0.1087 127
5 B2 35.4338 35.5425 0.1087 127
5 C#3 35.5425 35.6512 0.1087 127
5 D2 35.6512 35.8686 0.2174 127
5 G#2 35.8686 35.9773 0.1087 60
5 D3 35.9773 36.0851 0.1078 127
5 D3 36.1947 36.3034 0.1087 127
5 C#3 36.3034 36.4121 0.1087 127
5 D3 36.4121 36.5208 0.1087 127
5 D#2 36.5208 36.7382 0.2174 127
5 A#2 36.7382 36.8469 0.1087 60
5 D#3 36.8469 36.9556 0.1087 127
5 D#3 37.0643 37.1720 0.1078 127
5 C#3 37.1720 37.2817 0.1096 127
5 D#3 37.2817 37.3903 0.1087 127
5 D#2 37.3903 37.6077 0.2174 127
5 A#2 37.6077 37.7164 0.1087 60
5 D#3 37.7164 37.8251 0.1087 127
5 D#3 37.9338 38.0425 0.1087 127
5 C#3 38.0425 38.1512 0.1087 127
5 D#3 38.1512 38.2599 0.1087 127
5 D#2 38.2599 38.4773 0.2174 127
5 A#2 38.4773 38.5851 0.1078 60
5 D#3 38.5851 38.6947 0.1096 127
5 D#3 38.8034 38.9121 0.1087 127
5 C#3 38.9121 39.0208 0.1087 127
5 D#3 39.0208 39.1295 0.1087 127
5 D#2 39.1295 39.3469 0.2174 127
5 D#3 39.3469 39.4556 0.1087 127
5 F#3 39.4556 39.5643 0.1087 127
5 G#3 39.5643 39.7816 0.2174 127
5 F#3 39.7816 39.8903 0.1087 127
5 G#3 39.8903 39.9999 0.1096 127
5 B1 39.9999 40.2164 0.2165 127
5 F#2 40.2164 40.3251 0.1087 60
5 B2 40.3251 40.4338 0.1087 127
5 B2 40.5425 40.6512 0.1087 127
5 A#2 40.6512 40.7599 0.1087 127
5 B2 40.7599 40.8686 0.1087 127
5 B1 40.8686 41.0851 0.2165 127
5 F#2 41.0851 41.1947 0.1096 60
5 B2 41.1947 41.3034 0.1087 127
5 B2 41.4121 41.5208 0.1087 127
5 A#2 41.5208 41.6295 0.1087 127
5 B2 41.6295 41.7382 0.1087 127
5 C#2 41.7382 41.9556 0.2174 127
5 G#2 41.9556 42.0643 0.1087 60
5 C#3 42.0643 42.1720 0.1078 127
5 C#3 42.2816 42.3903 0.1087 127
5 B2 42.3903 42.4999 0.1096 127
5 C#3 42.4999 42.6077 0.1078 127
5 D2 42.6077 42.8251 0.2174 127
5 G#2 42.8251 42.9338 0.1087 60
5 D3 42.9338 43.0425 0.1087 127
5 D3 43.1512 43.2599 0.1087 127
5 C#3 43.2599 43.3686 0.1087 127
5 D3 43.3686 43.4773 0.1087 127
5 D#2 43.4773 43.6947 0.2174 127
5 A#2 43.6947 43.8034 0.1087 60
5 D#3 43.8034 43.9121 0.1087 127
5 D#3 44.0208 44.1295 0.1087 127
5 C#3 44.1295 44.2382 0.1087 127
5 D#3 44.2382 44.3469 0.1087 127
5 D#2 44.3469 44.5642 0.2174 127
5 A#2 44.5642 44.6720 0.1078 60
5 D#3 44.6720 44.7816 0.1096 127
5 D#3 44.8903 44.9990 0.1087 127
5 C#3 44.9990 45.1077 0.1087 127
5 D#3 45.1077 45.2164 0.1087 127
5 D#2 45.2164 45.4338 0.2174 127
5 A#2 45.4338 45.5425 0.1087 60
5 D#3 45.5425 45.6512 0.1087 127
5 D#3 45.7599 45.8686 0.1087 127
5 C#3 45.8686 45.9773 0.1087 127
5 D#3 45.9773 46.0851 0.1078 127
5 D#2 46.0851 46.3034 0.2183 127
5 D#3 46.3034 46.4121 0.1087 127
5 F#3 46.4121 46.5208 0.1087 127
5 G#3 46.5208 46.7382 0.2174 127
5 F#3 46.7382 46.8469 0.1087 127
5 G#3 46.8469 46.9556 0.1087 127
5 B1 46.9556 47.1720 0.2165 127
5 F#2 47.1720 47.2816 0.1096 60
5 B2 47.2816 47.3903 0.1087 127
5 B2 47.4990 47.6077 0.1087 127
5 A#2 47.6077 47.7164 0.1087 127
5 B2 47.7164 47.8251 0.1087 127
5 B1 47.8251 48.0425 0.2174 127
5 F#2 48.0425 48.1512 0.1087 60
5 B2 48.1512 48.2599 0.1087 127
5 B2 48.3686 48.4773 0.1087 127
5 A#2 48.4773 48.5851 0.1078 127
5 B2 48.5851 48.6947 0.1096 127
5 C#2 48.6947 48.9121 0.2174 127
5 G#2 48.9121 49.0208 0.1087 60
5 C#3 49.0208 49.1295 0.1087 127
5 C#3 49.2382 49.3469 0.1087 127
5 B2 49.3469 49.4555 0.1087 127
5 C#3 49.4555 49.5642 0.1087 127
5 D2 49.5642 49.7816 0.2174 127
5 G#2 49.7816 49.8903 0.1087 60
5 D3 49.8903 49.9990 0.1087 127
5 D3 50.1077 50.2164 0.1087 127
5 C#3 50.2164 50.3251 0.1087 127
5 D3 50.3251 50.4338 0.1087 127
5 D#2 50.4338 50.6512 0.2174 127
5 A#2 50.6512 50.7599 0.1087 60
5 D#3 50.7599 50.8686 0.1087 127
5 D#3 50.9773 51.0851 0.1078 127
5 C#3 51.0851 51.1947 0.1096 127
5 D#3 51.1947 51.3034 0.1087 127
5 D#2 51.3034 51.5208 0.2174 127
5 A#2 51.5208 51.6295 0.1087 60
5 D#3 51.6295 51.7382 0.1087 127
5 D#3 51.8468 51.9555 0.1087 127
5 C#3 51.9555 52.0642 0.1087 127
5 D#3 52.0642 52.1720 0.1078 127
5 D#2 52.1720 52.3903 0.2183 127
5 A#2 52.3903 52.4990 0.1087 60
5 D#3 52.4990 52.6077 0.1087 127
5 D#3 52.7164 52.8251 0.1087 127
5 C#3 52.8251 52.9338 0.1087 127
5 D#3 52.9338 53.0425 0.1087 127
5 D#2 53.0425 53.2599 0.2174 127
5 D#3 53.2599 53.3686 0.1087 127
5 F#3 53.3686 53.4773 0.1087 127
5 G#3 53.4773 53.6947 0.2174 127
5 F#3 53.6947 53.8034 0.1087 127
5 G#3 53.8034 53.9121 0.1087 127
5 B1 53.9121 54.1295 0.2174 127
5 F#2 54.1295 54.2381 0.1087 60
5 B2 54.2381 54.3468 0.1087 127
5 B2 54.4555 54.5642 0.1087 127
5 A#2 54.5642 54.6720 0.1078 127
5 B2 54.6720 54.7816 0.1096 127
5 B1 54.7816 54.9990 0.2174 127
5 F#2 54.9990 55.1077 0.1087 60
5 B2 55.1077 55.2164 0.1087 127
5 B2 55.3251 55.4338 0.1087 127
5 A#2 55.4338 55.5425 0.1087 127
5 B2 55.5425 55.6512 0.1087 127
5 C#2 55.6512 55.8686 0.2174 127
5 G#2 55.8686 55.9773 0.1087 60
5 C#3 55.9773 56.0851 0.1078 127
5 C#3 56.1947 56.3034 0.1087 127
5 B2 56.3034 56.4121 0.1087 127
5 C#3 56.4121 56.5208 0.1087 127
5 D2 56.5208 56.7381 0.2174 127
5 G#2 56.7381 56.8468 0.1087 60
5 D3 56.8468 56.9555 0.1087 127
5 D3 57.0642 57.1720 0.1078 127
5 C#3 57.1720 57.2816 0.1096 127
5 D3 57.2816 57.3903 0.1087 127
5 B1 57.3903 57.6077 0.2174 127
5 F#2 57.6077 57.7164 0.1087 60
5 B2 57.7164 57.8251 0.1087 127
5 B2 57.9338 58.0425 0.1087 127
5 A#2 58.0425 58.1512 0.1087 127
5 B2 58.1512 58.2599 0.1087 127
5 B1 58.2599 58.4773 0.2174 127
5 F#2 58.4773 58.5851 0.1078 60
5 B2 58.5851 58.6947 0.1096 127
5 B2 58.8034 58.9121 0.1087 127
5 A#2 58.9121 59.0208 0.1087 127
5 B2 59.0208 59.1294 0.1087 127
5 C#2 59.1294 59.3468 0.2174 127
5 G#2 59.3468 59.4555 0.1087 60
5 C#3 59.4555 59.5642 0.1087 127
5 C#3 59.6720 59.7816 0.1096 127
5 B2 59.7816 59.8903 0.1087 127
5 C#3 59.8903 59.9999 0.1096 127
5 C#2 59.9999 60.2164 0.2165 127
5 G#2 60.2164 60.3251 0.1087 60
5 C#3 60.3251 60.4338 0.1087 127
5 C#3 60.5425 60.6512 0.1087 127
5 B2 60.6512 60.7599 0.1087 127
5 C#3 60.7599 60.8686 0.1087 127
5 D#2 60.8686 61.0851 0.2165 127
5 A#2 61.0851 61.1947 0.1096 60
5 D#3 61.1947 61.3034 0.1087 127
5 D#3 61.4121 61.5207 0.1087 127
5 C#3 61.5207 61.6294 0.1087 127
5 D#3 61.6294 61.7381 0.1087 127
5 D#2 61.7381 61.9555 0.2174 127
5 A#2 61.9555 62.0642 0.1087 60
5 D#3 62.0642 62.1720 0.1078 127
5 D#3 62.2816 62.3903 0.1087 127
5 C#3 62.3903 62.4999 0.1096 127
5 D#3 62.4999 62.6077 0.1078 127
5 D#2 62.6077 62.8251 0.2174 127
5 A#2 62.8251 62.9338 0.1087 60
5 D#3 62.9338 63.0425 0.1087 127
5 D#3 63.1512 63.2599 0.1087 127
5 C#3 63.2599 63.3686 0.1087 127
5 D#3 63.3686 63.4773 0.1087 127
5 D#2 63.4773 63.6947 0.2174 127
5 D#3 63.6947 63.8034 0.1087 127
5 F#3 63.8034 63.9120 0.1087 127
5 G#3 63.9120 64.1294 0.2174 127
5 F#3 64.1294 64.2381 0.1087 127
5 G#3 64.2381 64.3468 0.1087 127
5 B1 64.3468 64.5642 0.2174 127
5 F#2 64.5642 64.6720 0.1078 60
5 B2 64.6720 64.7816 0.1096 127
5 B2 64.8903 64.9999 0.1096 127
5 A#2 64.9999 65.1077 0.1078 127
5 B2 65.1077 65.2164 0.1087 127
5 B1 65.2164 65.4338 0.2174 127
5 F#2 65.4338 65.5425 0.1087 60
5 B2 65.5425 65.6512 0.1087 127
5 B2 65.7599 65.8686 0.1087 127
5 A#2 65.8686 65.9773 0.1087 127
5 B2 65.9773 66.0851 0.1078 127
5 C#2 66.0851 66.3033 0.2183 127
5 G#2 66.3033 66.4120 0.1087 60
5 C#3 66.4120 66.5207 0.1087 127
5 C#3 66.6294 66.7381 0.1087 127
5 B2 66.7381 66.8468 0.1087 127
5 C#3 66.8468 66.9555 0.1087 127
5 C#2 66.9555 67.1720 0.2165 127
5 G#2 67.1720 67.2816 0.1096 60
5 C#3 67.2816 67.3903 0.1087 127
5 C#3 67.4999 67.6077 0.1078 127
5 B2 67.6077 67.7164 0.1087 127
5 C#3 67.7164 67.8251 0.1087 127
5 D#2 67.8251 68.0425 0.2174 127
5 A#2 68.0425 68.1512 0.1087 60
5 D#3 68.1512 68.2599 0.1087 127
5 D#3 68.3686 68.4773 0.1087 127
5 C#3 68.4773 68.5850 0.1078 127
5 D#3 68.5850 68.6947 0.1096 127
5 D#2 68.6947 68.9120 0.2174 127
5 A#2 68.9120 69.0207 0.1087 60
5 D#3 69.0207 69.1294 0.1087 127
5 D#3 69.2381 69.3468 0.1087 127
5 C#3 69.3468 69.4555 0.1087 127
5 D#3 69.4555 69.5642 0.1087 127
5 D#2 69.5642 69.7816 0.2174 127
5 A#2 69.7816 69.8903 0.1087 60
5 D#3 69.8903 69.9999 0.1096 127
5 D#3 70.1077 70.2164 0.1087 127
5 C#3 70.2164 70.3251 0.1087 127
5 D#3 70.3251 70.4338 0.1087 127
5 D#2 70.4338 70.6512 0.2174 127
5 D#3 70.6512 70.7599 0.1087 127
5 F#3 70.7599 70.8686 0.1087 127
5 G#3 70.8686 71.0850 0.2165 127
5 F#3 71.0850 71.1946 0.1096 127
5 G#3 71.1946 71.3033 0.1087 127
5 B1 71.3033 71.5207 0.2174 127
5 F#2 71.5207 71.6294 0.1087 60
5 B2 71.6294 71.7381 0.1087 127
5 B2 71.8468 71.9555 0.1087 127
5 A#2 71.9555 72.0642 0.1087 127
5 B2 72.0642 72.1720 0.1078 127
5 B1 72.1720 72.3903 0.2183 127
5 F#2 72.3903 72.4999 0.1096 60
5 B2 72.4999 72.6077 0.1078 127
5 B2 72.7164 72.8251 0.1087 127
5 A#2 72.8251 72.9338 0.1087 127
5 B2 72.9338 73.0425 0.1087 127
5 C#2 73.0425 73.2599 0.2174 127
5 G#2 73.2599 73.3686 0.1087 60
5 C#3 73.3686 73.4773 0.1087 127
5 C#3 73.5850 73.6946 0.1096 127
5 B2 73.6946 73.8033 0.1087 127
5 C#3 73.8033 73.9120 0.1087 127
5 C#2 73.9120 74.1294 0.2174 127
5 G#2 74.1294 74.2381 0.1087 60
5 C#3 74.2381 74.3468 0.1087 127
5 C#3 74.4555 74.5642 0.1087 127
5 B2 74.5642 74.6720 0.1078 127
5 C#3 74.6720 74.7816 0.1096 127
5 D#2 74.7816 74.9999 0.2183 127
5 A#2 74.9999 75.1077 0.1078 60
5 D#3 75.1077 75.2164 0.1087 127
5 D#3 75.3251 75.4338 0.1087 127
5 C#3 75.4338 75.5425 0.1087 127
5 D#3 75.5425 75.6512 0.1087 127
5 D#2 75.6512 75.8686 0.2174 127
5 A#2 75.8686 75.9772 0.1087 60
5 D#3 75.9772 76.0850 0.1078 127
5 D#3 76.1946 76.3033 0.1087 127
5 C#3 76.3033 76.4120 0.1087 127
5 D#3 76.4120 76.5207 0.1087 127
5 D#2 76.5207 76.7381 0.2174 127
5 A#2 76.7381 76.8468 0.1087 60
5 D#3 76.8468 76.9555 0.1087 127
5 D#3 77.0642 77.1720 0.1078 127
5 C#3 77.1720 77.2816 0.1096 127
5 D#3 77.2816 77.3903 0.1087 127
5 D#2 77.3903 77.6077 0.2174 127
5 D#3 77.6077 77.7164 0.1087 127
5 F#3 77.7164 77.8251 0.1087 127
5 G#3 77.8251 78.0425 0.2174 127
5 F#3 78.0425 78.1512 0.1087 127
5 G#3 78.1512 78.2599 0.1087 127
5 B1 78.2599 78.4772 0.2174 127
5 F#2 78.4772 78.5850 0.1078 60
5 B2 78.5850 78.6946 0.1096 127
5 B2 78.8033 78.9120 0.1087 127
5 A#2 78.9120 79.0207 0.1087 127
5 B2 79.0207 79.1294 0.1087 127
5 B1 79.1294 79.3468 0.2174 127
5 F#2 79.3468 79.4555 0.1087 60
5 B2 79.4555 79.5642 0.1087 127
5 B2 79.6720 79.7816 0.1096 127
5 A#2 79.7816 79.8903 0.1087 127
5 B2 79.8903 79.9999 0.1096 127
5 C#2 79.9999 80.2164 0.2165 127
5 G#2 80.2164 80.3251 0.1087 60
5 C#3 80.3251 80.4338 0.1087 127
5 C#3 80.5425 80.6512 0.1087 127
5 B2 80.6512 80.7599 0.1087 127
5 C#3 80.7599 80.8685 0.1087 127
5 C#2 80.8685 81.0850 0.2165 127
5 G#2 81.0850 81.1946 0.1096 60
5 C#3 81.1946 81.3033 0.1087 127
5 C#3 81.4120 81.5207 0.1087 127
5 B2 81.5207 81.6294 0.1087 127
5 C#3 81.6294 81.7381 0.1087 127
5 D#2 81.7381 81.9555 0.2174 127
5 A#2 81.9555 82.0642 0.1087 60
5 D#3 82.0642 82.1720 0.1078 127
5 D#3 82.2816 82.3903 0.1087 127
5 C#3 82.3903 82.4999 0.1096 127
5 D#3 82.4999 82.6077 0.1078 127
5 D#2 82.6077 82.8251 0.2174 127
5 A#2 82.8251 82.9338 0.1087 60
5 D#3 82.9338 83.0425 0.1087 127
5 D#3 83.1512 83.2598 0.1087 127
5 C#3 83.2598 83.3685 0.1087 127
5 D#3 83.3685 83.4772 0.1087 127
5 D#2 83.4772 83.6946 0.2174 127
5 A#2 83.6946 83.8033 0.1087 60
5 D#3 83.8033 83.9120 0.1087 127
5 D#3 84.0207 84.1294 0.1087 127
5 C#3 84.1294 84.2381 0.1087 127
5 D#3 84.2381 84.3468 0.1087 127
5 D#2 84.3468 84.5642 0.2174 127
5 D#3 84.5642 84.6720 0.1078 127
5 F#3 84.6720 84.7816 0.1096 127
5 G#3 84.7816 84.9999 0.2183 127
5 F#3 84.9999 85.1077 0.1078 127
5 G#3 85.1077 85.2164 0.1087 127
5 G#2 112.1719 112.6076 0.4357 127
5 F#2 112.6076 113.0424 0.4348 127
5 D#2 113.0424 113.2598 0.2174 127
5 A#2 113.2598 113.3685 0.1087 60
5 D#3 113.3685 113.4772 0.1087 127
5 D#3 113.5850 113.6946 0.1096 127
5 C#3 113.6946 113.8033 0.1087 127
5 D#3 113.8033 113.9120 0.1087 127
5 D#2 113.9120 114.1294 0.2174 127
5 A#2 114.1294 114.2381 0.1087 60
5 D#3 114.2381 114.3468 0.1087 127
5 D#3 114.4555 114.5642 0.1087 127
5 C#3 114.5642 114.6719 0.1078 127
5 D#3 114.6719 114.7815 0.1096 127
5 D#2 114.7815 114.9989 0.2174 127
5 A#2 114.9989 115.1076 0.1087 60
5 D#3 115.1076 115.2163 0.1087 127
5 D#3 115.3250 115.4337 0.1087 127
5 C#3 115.4337 115.5424 0.1087 127
5 D#3 115.5424 115.6511 0.1087 127
5 D#2 115.6511 115.8685 0.2174 127
5 D#3 115.8685 115.9772 0.1087 127
5 F#3 115.9772 116.0850 0.1078 127
5 G#3 116.0850 116.3033 0.2183 127
5 F#3 116.3033 116.4120 0.1087 127
5 G#3 116.4120 116.5207 0.1087 127
5 D#2 116.5207 116.7381 0.2174 127
5 A#2 116.7381 116.8468 0.1087 60
5 D#3 116.8468 116.9555 0.1087 127
5 D#3 117.0641 117.1719 0.1078 127
5 C#3 117.1719 117.2815 0.1096 127
5 D#3 117.2815 117.3902 0.1087 127
5 D#2 117.3902 117.6076 0.2174 127
5 A#2 117.6076 117.7163 0.1087 60
5 D#3 117.7163 117.8250 0.1087 127
5 D#3 117.9337 118.0424 0.1087 127
5 C#3 118.0424 118.1511 0.1087 127
5 D#3 118.1511 118.2598 0.1087 127
5 D#2 118.2598 118.4772 0.2174 127
5 A#2 118.4772 118.5850 0.1078 60
5 D#3 118.5850 118.6946 0.1096 127
5 D#3 118.8033 118.9120 0.1087 127
5 C#3 118.9120 119.0207 0.1087 127
5 D#3 119.0207 119.1294 0.1087 127
5 G#3 119.1294 119.3468 0.2174 127
5 F#3 119.3468 119.4554 0.1087 127
5 G#3 119.4554 119.5641 0.1087 127
5 F#3 119.5641 119.7815 0.2174 127
5 D#3 119.7815 119.8902 0.1087 127
5 F#3 119.8902 119.9998 0.1096 127
5 D#2 119.9998 120.2163 0.2165 127
5 A#2 120.2163 120.3250 0.1087 60
5 D#3 120.3250 120.4337 0.1087 127
5 D#3 120.5424 120.6511 0.1087 127
5 C#3 120.6511 120.7598 0.1087 127
5 D#3 120.7598 120.8685 0.1087 127
5 D#2 120.8685 121.0850 0.2165 127
5 A#2 121.0850 121.1946 0.1096 60
5 D#3 121.1946 121.3033 0.1087 127
5 D#3 121.4120 121.5207 0.1087 127
5 C#3 121.5207 121.6294 0.1087 127
5 D#3 121.6294 121.7381 0.1087 127
5 D#2 121.7381 121.9554 0.2174 127
5 A#2 121.9554 122.0641 0.1087 60
5 D#3 122.0641 122.1719 0.1078 127
5 D#3 122.2815 122.3902 0.1087 127
5 C#3 122.3902 122.4998 0.1096 127
5 D#3 122.4998 122.6076 0.1078 127
5 D#2 122.6076 122.8250 0.2174 127
5 D#3 122.8250 122.9337 0.1087 127
5 F#3 122.9337 123.0424 0.1087 127
5 G#3 123.0424 123.2598 0.2174 127
5 F#3 123.2598 123.3685 0.1087 127
5 G#3 123.3685 123.4772 0.1087 127
5 D#2 123.4772 123.6946 0.2174 127
5 A#2 123.6946 123.8033 0.1087 60
5 D#3 123.8033 123.9120 0.1087 127
5 D#3 124.0207 124.1294 0.1087 127
5 C#3 124.1294 124.2381 0.1087 127
5 D#3 124.2381 124.3467 0.1087 127
5 D#2 124.3467 124.5641 0.2174 127
5 A#2 124.5641 124.6719 0.1078 60
5 D#3 124.6719 124.7815 0.1096 127
5 D#3 124.8902 124.9998 0.1096 127
5 C#3 124.9998 125.1076 0.1078 127
5 D#3 125.1076 125.2163 0.1087 127
5 D#2 125.2163 125.4337 0.2174 127
5 A#2 125.4337 125.5424 0.1087 60
5 D#3 125.5424 125.6511 0.1087 127
5 D#3 125.7598 125.8685 0.1087 127
5 C#3 125.8685 125.9772 0.1087 127
5 D#3 125.9772 126.0850 0.1078 127
5 G#3 126.0850 126.2308 0.1458 127
5 F#3 126.2308 126.3757 0.1449 127
5 G#3 126.3757 126.5207 0.1449 127
5 F#3 126.5207 126.6656 0.1449 127
5 D#3 126.6656 126.8105 0.1449 127
5 F#3 126.8105 126.9554 0.1449 127
5 D#2 126.9554 127.1719 0.2165 127
5 A#2 127.1719 127.2815 0.1096 60
5 D#3 127.2815 127.3902 0.1087 127
5 D#3 127.4998 127.6076 0.1078 127
5 C#3 127.6076 127.7163 0.1087 127
5 D#3 127.7163 127.8250 0.1087 127
5 D#2 127.8250 128.0424 0.2174 127
5 A#2 128.0424 128.1511 0.1087 60
5 D#3 128.1511 128.2598 0.1087 127
5 D#3 128.3685 128.4772 0.1087 127
5 C#3 128.4772 128.5850 0.1078 127
5 D#3 128.5850 128.6946 0.1096 127
5 D#2 128.6946 128.9120 0.2174 127
5 A#2 128.9120 129.0207 0.1087 60
5 D#3 129.0207 129.1293 0.1087 127
5 D#3 129.2380 129.3467 0.1087 127
5 C#3 129.3467 129.4554 0.1087 127
5 D#3 129.4554 129.5641 0.1087 127
5 D#2 129.5641 129.7815 0.2174 127
5 D#3 129.7815 129.8902 0.1087 127
5 F#3 129.8902 129.9998 0.1096 127
5 G#3 129.9998 130.2163 0.2165 127
5 F#3 130.2163 130.3250 0.1087 127
5 G#3 130.3250 130.4337 0.1087 127
5 B1 130.4337 130.6511 0.2174 127
5 F#2 130.6511 130.7598 0.1087 60
5 B2 130.7598 130.8685 0.1087 127
5 B2 130.9772 131.0850 0.1078 127
5 A#2 131.0850 131.1946 0.1096 127
5 B2 131.1946 131.3033 0.1087 127
5 B1 131.3033 131.5206 0.2174 127
5 F#2 131.5206 131.6293 0.1087 60
5 B2 131.6293 131.7380 0.1087 127
5 B2 131.8467 131.9554 0.1087 127
5 A#2 131.9554 132.0641 0.1087 127
5 B2 132.0641 132.1719 0.1078 127
5 C#2 132.1719 132.3902 0.2183 127
5 G#2 132.3902 132.4998 0.1096 60
5 C#3 132.4998 132.6076 0.1078 127
5 C#3 132.7163 132.8250 0.1087 127
5 B2 132.8250 132.9337 0.1087 127
5 C#3 132.9337 133.0424 0.1087 127
5 D2 133.0424 133.2598 0.2174 127
5 G#2 133.2598 133.3685 0.1087 60
5 D3 133.3685 133.4772 0.1087 127
5 D3 133.5850 133.6946 0.1096 127
5 C#3 133.6946 133.8033 0.1087 127
5 D3 133.8033 133.9120 0.1087 127
5 D#2 133.9120 134.1293 0.2174 127
5 A#2 134.1293 134.2380 0.1087 60
5 D#3 134.2380 134.3467 0.1087 127
5 D#3 134.4554 134.5641 0.1087 127
5 C#3 134.5641 134.6719 0.1078 127
5 D#3 134.6719 134.7815 0.1096 127
5 D#2 134.7815 134.9998 0.2183 127
5 A#2 134.9998 135.1076 0.1078 60
5 D#3 135.1076 135.2163 0.1087 127
5 D#3 135.3250 135.4337 0.1087 127
5 C#3 135.4337 135.5424 0.1087 127
5 D#3 135.5424 135.6511 0.1087 127
5 D#2 135.6511 135.8685 0.2174 127
5 A#2 135.8685 135.9772 0.1087 60
5 D#3 135.9772 136.0850 0.1078 127
5 D#3 136.1946 136.3033 0.1087 127
5 C#3 136.3033 136.4119 0.1087 127
5 D#3 136.4119 136.5206 0.1087 127
5 D#2 136.5206 136.7380 0.2174 127
5 D#3 136.7380 136.8467 0.1087 127
5 F#3 136.8467 136.9554 0.1087 127
5 G#3 136.9554 137.1719 0.2165 127
5 F#3 137.1719 137.2815 0.1096 127
5 G#3 137.2815 137.3902 0.1087 127
5 B1 137.3902 137.6076 0.2174 127
5 F#2 137.6076 137.7163 0.1087 60
5 B2 137.7163 137.8250 0.1087 127
5 B2 137.9337 138.0424 0.1087 127
5 A#2 138.0424 138.1511 0.1087 127
5 B2 138.1511 138.2598 0.1087 127
5 B1 138.2598 138.4772 0.2174 127
5 F#2 138.4772 138.5850 0.1078 60
5 B2 138.5850 138.6946 0.1096 127
5 B2 138.8032 138.9119 0.1087 127
5 A#2 138.9119 139.0206 0.1087 127
5 B2 139.0206 139.1293 0.1087 127
5 C#2 139.1293 139.3467 0.2174 127
5 G#2 139.3467 139.4554 0.1087 60
5 C#3 139.4554 139.5641 0.1087 127
5 C#3 139.6719 139.7815 0.1096 127
5 B2 139.7815 139.8902 0.1087 127
5 C#3 139.8902 139.9998 0.1096 127
5 D2 139.9998 140.2163 0.2165 127
5 G#2 140.2163 140.3250 0.1087 60
5 D3 140.3250 140.4337 0.1087 127
5 D3 140.5424 140.6511 0.1087 127
5 C#3 140.6511 140.7598 0.1087 127
5 D3 140.7598 140.8685 0.1087 127
5 D#2 140.8685 141.0849 0.2165 127
5 A#2 141.0849 141.1945 0.1096 60
5 D#3 141.1945 141.3032 0.1087 127
5 D#3 141.4119 141.5206 0.1087 127
5 C#3 141.5206 141.6293 0.1087 127
5 D#3 141.6293 141.7380 0.1087 127
5 D#2 141.7380 141.9554 0.2174 127
5 A#2 141.9554 142.0641 0.1087 60
5 D#3 142.0641 142.1719 0.1078 127
5 D#3 142.2815 142.3902 0.1087 127
5 C#3 142.3902 142.4998 0.1096 127
5 D#3 142.4998 142.6076 0.1078 127
5 D#2 142.6076 142.8250 0.2174 127
5 A#2 142.8250 142.9337 0.1087 60
5 D#3 142.9337 143.0424 0.1087 127
5 D#3 143.1511 143.2598 0.1087 127
5 C#3 143.2598 143.3685 0.1087 127
5 D#3 143.3685 143.4772 0.1087 127
5 D#2 143.4772 143.6945 0.2174 127
5 D#3 143.6945 143.8032 0.1087 127
5 F#3 143.8032 143.9119 0.1087 127
5 G#3 143.9119 144.1293 0.2174 127
5 F#3 144.1293 144.2380 0.1087 127
5 G#3 144.2380 144.3467 0.1087 127
5 B1 144.3467 144.5641 0.2174 127
5 F#2 144.5641 144.6719 0.1078 60
5 B2 144.6719 144.7815 0.1096 127
5 B2 144.8902 144.9998 0.1096 127
5 A#2 144.9998 145.1076 0.1078 127
5 B2 145.1076 145.2163 0.1087 127
5 B1 145.2163 145.4337 0.2174 127
5 F#2 145.4337 145.5424 0.1087 60
5 B2 145.5424 145.6511 0.1087 127
5 B2 145.7598 145.8685 0.1087 127
5 A#2 145.8685 145.9772 0.1087 127
5 B2 145.9772 146.0849 0.1078 127
5 C#2 146.0849 146.3032 0.2183 127
5 G#2 146.3032 146.4119 0.1087 60
5 C#3 146.4119 146.5206 0.1087 127
5 C#3 146.6293 146.7380 0.1087 127
5 B2 146.7380 146.8467 0.1087 127
5 C#3 146.8467 146.9554 0.1087 127
5 D2 146.9554 147.1719 0.2165 127
5 G#2 147.1719 147.2815 0.1096 60
5 D3 147.2815 147.3902 0.1087 127
5 D3 147.4998 147.6076 0.1078 127
5 C#3 147.6076 147.7163 0.1087 127
5 D3 147.7163 147.8250 0.1087 127
5 D#2 147.8250 148.0424 0.2174 127
5 A#2 148.0424 148.1511 0.1087 60
5 D#3 148.1511 148.2598 0.1087 127
5 D#3 148.3685 148.4771 0.1087 127
5 C#3 148.4771 148.5849 0.1078 127
5 D#3 148.5849 148.6945 0.1096 127
5 D#2 148.6945 148.9119 0.2174 127
5 A#2 148.9119 149.0206 0.1087 60
5 D#3 149.0206 149.1293 0.1087 127
5 D#3 149.2380 149.3467 0.1087 127
5 C#3 149.3467 149.4554 0.1087 127
5 D#3 149.4554 149.5641 0.1087 127
5 D#2 149.5641 149.7815 0.2174 127
5 A#2 149.7815 149.8902 0.1087 60
5 D#3 149.8902 149.9998 0.1096 127
5 D#3 150.1076 150.2163 0.1087 127
5 C#3 150.2163 150.3250 0.1087 127
5 D#3 150.3250 150.4337 0.1087 127
5 D#2 150.4337 150.6511 0.2174 127
5 D#3 150.6511 150.7598 0.1087 127
5 F#3 150.7598 150.8684 0.1087 127
5 G#3 150.8684 151.0849 0.2165 127
5 F#3 151.0849 151.1945 0.1096 127
5 G#3 151.1945 151.3032 0.1087 127
5 B1 151.3032 151.5206 0.2174 127
5 F#2 151.5206 151.6293 0.1087 60
5 B2 151.6293 151.7380 0.1087 127
5 B2 151.8467 151.9554 0.1087 127
5 A#2 151.9554 152.0641 0.1087 127
5 B2 152.0641 152.1719 0.1078 127
5 B1 152.1719 152.3902 0.2183 127
5 F#2 152.3902 152.4998 0.1096 60
5 B2 152.4998 152.6076 0.1078 127
5 B2 152.7163 152.8250 0.1087 127
5 A#2 152.8250 152.9337 0.1087 127
5 B2 152.9337 153.0424 0.1087 127
5 C#2 153.0424 153.2597 0.2174 127
5 G#2 153.2597 153.3684 0.1087 60
5 C#3 153.3684 153.4771 0.1087 127
5 C#3 153.5849 153.6945 0.1096 127
5 B2 153.6945 153.8032 0.1087 127
5 C#3 153.8032 153.9119 0.1087 127
5 D2 153.9119 154.1293 0.2174 127
5 G#2 154.1293 154.2380 0.1087 60
5 D3 154.2380 154.3467 0.1087 127
5 D3 154.4554 154.5641 0.1087 127
5 C#3 154.5641 154.6719 0.1078 127
5 D3 154.6719 154.7815 0.1096 127
5 B1 154.7815 154.9998 0.2183 127
5 F#2 154.9998 155.1076 0.1078 60
5 B2 155.1076 155.2163 0.1087 127
5 B2 155.3250 155.4337 0.1087 127
5 A#2 155.4337 155.5424 0.1087 127
5 B2 155.5424 155.6511 0.1087 127
5 B1 155.6511 155.8684 0.2174 127
5 F#2 155.8684 155.9771 0.1087 60
5 B2 155.9771 156.0849 0.1078 127
5 B2 156.1945 156.3032 0.1087 127
5 A#2 156.3032 156.4119 0.1087 127
5 B2 156.4119 156.5206 0.1087 127
5 C#2 156.5206 156.7380 0.2174 127
5 G#2 156.7380 156.8467 0.1087 60
5 C#3 156.8467 156.9554 0.1087 127
5 C#3 157.0641 157.1719 0.1078 127
5 B2 157.1719 157.2815 0.1096 127
5 C#3 157.2815 157.3902 0.1087 127
5 C#2 157.3902 157.6076 0.2174 127
5 G#2 157.6076 157.7163 0.1087 60
5 C#3 157.7163 157.8250 0.1087 127
5 C#3 157.9337 158.0424 0.1087 127
5 B2 158.0424 158.1510 0.1087 127
5 C#3 158.1510 158.2597 0.1087 127
5 D#2 158.2597 158.4771 0.2174 127
5 A#2 158.4771 158.5849 0.1078 60
5 D#3 158.5849 158.6945 0.1096 127
5 D#3 158.8032 158.9119 0.1087 127
5 C#3 158.9119 159.0206 0.1087 127
5 D#3 159.0206 159.1293 0.1087 127
5 D#2 159.1293 159.3467 0.2174 127
5 A#2 159.3467 159.4554 0.1087 60
5 D#3 159.4554 159.5641 0.1087 127
5 D#3 159.6719 159.7815 0.1096 127
5 C#3 159.7815 159.8902 0.1087 127
5 D#3 159.8902 159.9998 0.1096 127
5 D#2 159.9998 160.2163 0.2165 127
5 A#2 160.2163 160.3250 0.1087 60
5 D#3 160.3250 160.4337 0.1087 127
5 D#3 160.5423 160.6510 0.1087 127
5 C#3 160.6510 160.7597 0.1087 127
5 D#3 160.7597 160.8684 0.1087 127
5 D#2 160.8684 161.0849 0.2165 127
5 D#3 161.0849 161.1945 0.1096 127
5 F#3 161.1945 161.3032 0.1087 127
5 G#3 161.3032 161.5206 0.2174 127
5 F#3 161.5206 161.6293 0.1087 127
5 G#3 161.6293 161.7380 0.1087 127
5 B1 161.7380 161.9554 0.2174 127
5 F#2 161.9554 162.0641 0.1087 60
5 B2 162.0641 162.1719 0.1078 127
5 B2 162.2815 162.3902 0.1087 127
5 A#2 162.3902 162.4998 0.1096 127
5 B2 162.4998 162.6076 0.1078 127
5 B1 162.6076 162.8250 0.2174 127
5 F#2 162.8250 162.9336 0.1087 60
5 B2 162.9336 163.0423 0.1087 127
5 B2 163.1510 163.2597 0.1087 127
5 A#2 163.2597 163.3684 0.1087 127
5 B2 163.3684 163.4771 0.1087 127
5 C#2 163.4771 163.6945 0.2174 127
5 G#2 163.6945 163.8032 0.1087 60
5 C#3 163.8032 163.9119 0.1087 127
5 C#3 164.0206 164.1293 0.1087 127
5 B2 164.1293 164.2380 0.1087 127
5 C#3 164.2380 164.3467 0.1087 127
5 C#2 164.3467 164.5641 0.2174 127
5 G#2 164.5641 164.6719 0.1078 60
5 C#3 164.6719 164.7815 0.1096 127
5 C#3 164.8902 164.9998 0.1096 127
5 B2 164.9998 165.1076 0.1078 127
5 C#3 165.1076 165.2163 0.1087 127
5 D#2 165.2163 165.4336 0.2174 127
5 A#2 165.4336 165.5423 0.1087 60
5 D#3 165.5423 165.6510 0.1087 127
5 D#3 165.7597 165.8684 0.1087 127
5 C#3 165.8684 165.9771 0.1087 127
5 D#3 165.9771 166.0849 0.1078 127
5 D#2 166.0849 166.3032 0.2183 127
5 A#2 166.3032 166.4119 0.1087 60
5 D#3 166.4119 166.5206 0.1087 127
5 D#3 166.6293 166.7380 0.1087 127
5 C#3 166.7380 166.8467 0.1087 127
5 D#3 166.8467 166.9554 0.1087 127
5 D#2 166.9554 167.1719 0.2165 127
5 A#2 167.1719 167.2815 0.1096 60
5 D#3 167.2815 167.3902 0.1087 127
5 D#3 167.4998 167.6076 0.1078 127
5 C#3 167.6076 167.7163 0.1087 127
5 D#3 167.7163 167.8249 0.1087 127
5 D#2 167.8249 168.0423 0.2174 127
5 D#3 168.0423 168.1510 0.1087 127
5 F#3 168.1510 168.2597 0.1087 127
5 G#3 168.2597 168.4771 0.2174 127
5 F#3 168.4771 168.5849 0.1078 127
5 G#3 168.5849 168.6945 0.1096 127
5 B1 168.6945 168.9119 0.2174 127
5 F#2 168.9119 169.0206 0.1087 60
5 B2 169.0206 169.1293 0.1087 127
5 B2 169.2380 169.3467 0.1087 127
5 A#2 169.3467 169.4554 0.1087 127
5 B2 169.4554 169.5641 0.1087 127
5 B1 169.5641 169.7815 0.2174 127
5 F#2 169.7815 169.8902 0.1087 60
5 B2 169.8902 169.9998 0.1096 127
5 B2 170.1076 170.2162 0.1087 127
5 A#2 170.2162 170.3249 0.1087 127
5 B2 170.3249 170.4336 0.1087 127
5 C#2 170.4336 170.6510 0.2174 127
5 G#2 170.6510 170.7597 0.1087 60
5 C#3 170.7597 170.8684 0.1087 127
5 C#3 170.9771 171.0849 0.1078 127
5 B2 171.0849 171.1945 0.1096 127
5 C#3 171.1945 171.3032 0.1087 127
5 C#2 171.3032 171.5206 0.2174 127
5 G#2 171.5206 171.6293 0.1087 60
5 C#3 171.6293 171.7380 0.1087 127
5 C#3 171.8467 171.9554 0.1087 127
5 B2 171.9554 172.0641 0.1087 127
5 C#3 172.0641 172.1719 0.1078 127
5 D#2 172.1719 172.3902 0.2183 127
5 A#2 172.3902 172.4989 0.1087 60
5 D#3 172.4989 172.6075 0.1087 127
5 D#3 172.7162 172.8249 0.1087 127
5 C#3 172.8249 172.9336 0.1087 127
5 D#3 172.9336 173.0423 0.1087 127
5 D#2 173.0423 173.2597 0.2174 127
5 A#2 173.2597 173.3684 0.1087 60
5 D#3 173.3684 173.4771 0.1087 127
5 D#3 173.5849 173.6945 0.1096 127
5 C#3 173.6945 173.8032 0.1087 127
5 D#3 173.8032 173.9119 0.1087 127
5 D#2 173.9119 174.1293 0.2174 127
5 A#2 174.1293 174.2380 0.1087 60
5 D#3 174.2380 174.3467 0.1087 127
5 D#3 174.4554 174.5641 0.1087 127
5 C#3 174.5641 174.6719 0.1078 127
5 D#3 174.6719 174.7815 0.1096 127
5 D#2 174.7815 174.9988 0.2174 127
5 D#3 174.9988 175.1075 0.1087 127
5 F#3 175.1075 175.2162 0.1087 127
5 G#3 175.2162 175.4336 0.2174 127
5 F#3 175.4336 175.5423 0.1087 127
5 G#3 175.5423 175.6510 0.1087 127
5 B1 175.6510 175.8684 0.2174 127
5 F#2 175.8684 175.9771 0.1087 60
5 B2 175.9771 176.0849 0.1078 127
5 B2 176.1945 176.3032 0.1087 127
5 A#2 176.3032 176.4119 0.1087 127
5 B2 176.4119 176.5206 0.1087 127
5 B1 176.5206 176.7380 0.2174 127
5 F#2 176.7380 176.8467 0.1087 60
5 B2 176.8467 176.9554 0.1087 127
5 B2 177.0641 177.1719 0.1078 127
5 A#2 177.1719 177.2815 0.1096 127
5 B2 177.2815 177.3902 0.1087 127
5 C#2 177.3902 177.6075 0.2174 127
5 G#2 177.6075 177.7162 0.1087 60
5 C#3 177.7162 177.8249 0.1087 127
5 C#3 177.9336 178.0423 0.1087 127
5 B2 178.0423 178.1510 0.1087 127
5 C#3 178.1510 178.2597 0.1087 127
5 C#2 178.2597 178.4771 0.2174 127
5 G#2 178.4771 178.5849 0.1078 60
5 C#3 178.5849 178.6945 0.1096 127
5 C#3 178.8032 178.9119 0.1087 127
5 B2 178.9119 179.0206 0.1087 127
5 C#3 179.0206 179.1293 0.1087 127
5 D#2 179.1293 179.3467 0.2174 127
5 A#2 179.3467 179.4554 0.1087 60
5 D#3 179.4554 179.5641 0.1087 127
5 D#3 179.6718 179.7815 0.1096 127
5 C#3 179.7815 179.8901 0.1087 127
5 D#3 179.8901 179.9988 0.1087 127
5 D#2 179.9988 180.2162 0.2174 127
5 A#2 180.2162 180.3249 0.1087 60
5 D#3 180.3249 180.4336 0.1087 127
5 D#3 180.5423 180.6510 0.1087 127
5 C#3 180.6510 180.7597 0.1087 127
5 D#3 180.7597 180.8684 0.1087 127
5 D#2 180.8684 181.0849 0.2165 127
5 A#2 181.0849 181.1945 0.1096 60
5 D#3 181.1945 181.3032 0.1087 127
5 D#3 181.4119 181.5206 0.1087 127
5 C#3 181.5206 181.6293 0.1087 127
5 D#3 181.6293 181.7380 0.1087 127
5 G#2 181.7380 182.1718 0.4339 127
5 G2 182.1718 182.6075 0.4357 127
6 D#3 29.5652 29.7826 0.2174 127
6 A#3 29.7826 29.8913 0.1087 10
6 D#4 29.8913 30.0000 0.1087 127
6 D#4 30.1087 30.2173 0.1087 127
6 C#4 30.2173 30.3260 0.1087 127
6 D#4 30.3260 30.4347 0.1087 127
6 D#3 30.4347 30.6521 0.2174 127
6 A#3 30.6521 30.7608 0.1087 10
6 D#4 30.7608 30.8695 0.1087 127
6 D#4 30.9782 31.0869 0.1087 127
6 C#4 31.0869 31.1956 0.1087 127
6 D#4 31.1956 31.3043 0.1087 127
6 D#3 31.3043 31.5217 0.2174 127
6 A#3 31.5217 31.6304 0.1087 10
6 D#4 31.6304 31.7391 0.1087 127
6 D#4 31.8478 31.9565 0.1087 127
6 C#4 31.9565 32.0652 0.1087 127
6 D#4 32.0652 32.1739 0.1087 127
6 D#3 32.1739 32.3913 0.2174 127
6 D#4 32.3913 32.5000 0.1087 127
6 F#4 32.5000 32.6087 0.1087 127
6 G#4 32.6087 32.8260 0.2174 127
6 F#4 32.8260 32.9347 0.1087 127
6 G#4 32.9347 33.0434 0.1087 127
6 D#3 33.0434 33.2608 0.2174 127
6 A#3 33.2608 33.3695 0.1087 10
6 D#4 33.3695 33.4782 0.1087 127
6 D#4 33.5869 33.6956 0.1087 127
6 C#4 33.6956 33.8043 0.1087 127
6 D#4 33.8043 33.9130 0.1087 127
6 D#3 33.9130 34.1304 0.2174 127
6 A#3 34.1304 34.2391 0.1087 10
6 D#4 34.2391 34.3478 0.1087 127
6 D#4 34.4565 34.5652 0.1087 127
6 C#4 34.5652 34.6739 0.1087 127
6 D#4 34.6739 34.7826 0.1087 127
6 D#3 34.7826 35.0000 0.2174 127
6 A#3 35.0000 35.1086 0.1087 10
6 D#4 35.1086 35.2173 0.1087 127
6 D#4 35.3260 35.4347 0.1087 127
6 C#4 35.4347 35.5434 0.1087 127
6 D#4 35.5434 35.6521 0.1087 127
6 D#3 35.6521 35.8695 0.2174 127
6 D#4 35.8695 35.9782 0.1087 127
6 F#4 35.9782 36.0869 0.1087 127
6 G#4 36.0869 36.3043 0.2174 127
6 F#4 36.3043 36.4130 0.1087 127
6 G#4 36.4130 36.5217 0.1087 127
6 D#3 36.5217 36.7391 0.2174 127
6 A#3 36.7391 36.8478 0.1087 10
6 D#4 36.8478 36.9565 0.1087 127
6 D#4 37.0652 37.1739 0.1087 127
6 C#4 37.1739 37.2826 0.1087 127
6 D#4 37.2826 37.3913 0.1087 127
6 D#3 37.3913 37.6086 0.2174 127
6 A#3 37.6086 37.7173 0.1087 10
6 D#4 37.7173 37.8260 0.1087 127
6 D#4 37.9347 38.0434 0.1087 127
6 C#4 38.0434 38.1521 0.1087 127
6 D#4 38.1521 38.2608 0.1087 127
6 D#3 38.2608 38.4782 0.2174 127
6 A#3 38.4782 38.5869 0.1087 10
6 D#4 38.5869 38.6956 0.1087 127
6 D#4 38.8043 38.9130 0.1087 127
6 C#4 38.9130 39.0217 0.1087 127
6 D#4 39.0217 39.1304 0.1087 127
6 D#3 39.1304 39.3478 0.2174 127
6 D#4 39.3478 39.4565 0.1087 127
6 F#4 39.4565 39.5652 0.1087 127
6 G#4 39.5652 39.7826 0.2174 127
6 F#4 39.7826 39.8912 0.1087 127
6 G#4 39.8912 39.9999 0.1087 127
6 D#3 39.9999 40.2173 0.2174 127
6 A#3 40.2173 40.3260 0.1087 10
6 D#4 40.3260 40.4347 0.1087 127
6 D#4 40.5434 40.6521 0.1087 127
6 C#4 40.6521 40.7608 0.1087 127
6 D#4 40.7608 40.8695 0.1087 127
6 D#3 40.8695 41.0869 0.2174 127
6 A#3 41.0869 41.1956 0.1087 10
6 D#4 41.1956 41.3043 0.1087 127
6 D#4 41.4130 41.5217 0.1087 127
6 C#4 41.5217 41.6304 0.1087 127
6 D#4 41.6304 41.7391 0.1087 127
6 D#3 41.7391 41.9565 0.2174 127
6 A#3 41.9565 42.0652 0.1087 10
6 D#4 42.0652 42.1739 0.1087 127
6 D#4 42.2825 42.3912 0.1087 127
6 C#4 42.3912 42.4999 0.1087 127
6 D#4 42.4999 42.6086 0.1087 127
6 D#3 42.6086 42.8260 0.2174 127
6 D#4 42.8260 42.9347 0.1087 127
6 F#4 42.9347 43.0434 0.1087 127
6 G#4 43.0434 43.2608 0.2174 127
6 F#4 43.2608 43.3695 0.1087 127
6 G#4 43.3695 43.4782 0.1087 127
6 D#3 43.4782 43.6956 0.2174 127
6 A#3 43.6956 43.8043 0.1087 10
6 D#4 43.8043 43.9130 0.1087 127
6 D#4 44.0217 44.1304 0.1087 127
6 C#4 44.1304 44.2391 0.1087 127
6 D#4 44.2391 44.3478 0.1087 127
6 D#3 44.3478 44.5652 0.2174 127
6 A#3 44.5652 44.6739 0.1087 10
6 D#4 44.6739 44.7825 0.1087 127
6 D#4 44.8912 44.9999 0.1087 127
6 C#4 44.9999 45.1086 0.1087 127
6 D#4 45.1086 45.2173 0.1087 127
6 D#3 45.2173 45.4347 0.2174 127
6 A#3 45.4347 45.5434 0.1087 10
6 D#4 45.5434 45.6521 0.1087 127
6 D#4 45.7608 45.8695 0.1087 127
6 C#4 45.8695 45.9782 0.1087 127
6 D#4 45.9782 46.0869 0.1087 127
6 D#3 46.0869 46.3043 0.2174 127
6 D#4 46.3043 46.4130 0.1087 127
6 F#4 46.4130 46.5217 0.1087 127
6 G#4 46.5217 46.7391 0.2174 127
6 F#4 46.7391 46.8478 0.1087 127
6 G#4 46.8478 46.9565 0.1087 127
6 D#3 46.9565 47.1738 0.2174 127
6 A#3 47.1738 47.2825 0.1087 10
6 D#4 47.2825 47.3912 0.1087 127
6 D#4 47.4999 47.6086 0.1087 127
6 C#4 47.6086 47.7173 0.1087 127
6 D#4 47.7173 47.8260 0.1087 127
6 D#3 47.8260 48.0434 0.2174 127
6 A#3 48.0434 48.1521 0.1087 10
6 D#4 48.1521 48.2608 0.1087 127
6 D#4 48.3695 48.4782 0.1087 127
6 C#4 48.4782 48.5869 0.1087 127
6 D#4 48.5869 48.6956 0.1087 127
6 D#3 48.6956 48.9130 0.2174 127
6 A#3 48.9130 49.0217 0.1087 10
6 D#4 49.0217 49.1304 0.1087 127
6 D#4 49.2391 49.3478 0.1087 127
6 C#4 49.3478 49.4565 0.1087 127
6 D#4 49.4565 49.5651 0.1087 127
6 D#3 49.5651 49.7825 0.2174 127
6 D#4 49.7825 49.8912 0.1087 127
6 F#4 49.8912 49.9999 0.1087 127
6 G#4 49.9999 50.2173 0.2174 127
6 F#4 50.2173 50.3260 0.1087 127
6 G#4 50.3260 50.4347 0.1087 127
6 D#3 50.4347 50.6521 0.2174 127
6 A#3 50.6521 50.7608 0.1087 10
6 D#4 50.7608 50.8695 0.1087 127
6 D#4 50.9782 51.0869 0.1087 127
6 C#4 51.0869 51.1956 0.1087 127
6 D#4 51.1956 51.3043 0.1087 127
6 D#3 51.3043 51.5217 0.2174 127
6 A#3 51.5217 51.6304 0.1087 10
6 D#4 51.6304 51.7391 0.1087 127
6 D#4 51.8478 51.9564 0.1087 127
6 C#4 51.9564 52.0651 0.1087 127
6 D#4 52.0651 52.1738 0.1087 127
6 D#3 52.1738 52.3912 0.2174 127
6 A#3 52.3912 52.4999 0.1087 10
6 D#4 52.4999 52.6086 0.1087 127
6 D#4 52.7173 52.8260 0.1087 127
6 C#4 52.8260 52.9347 0.1087 127
6 D#4 52.9347 53.0434 0.1087 127
6 D#3 53.0434 53.2608 0.2174 127
6 D#4 53.2608 53.3695 0.1087 127
6 F#4 53.3695 53.4782 0.1087 127
6 G#4 53.4782 53.6956 0.2174 127
6 F#4 53.6956 53.8043 0.1087 127
6 G#4 53.8043 53.9130 0.1087 127
6 D#3 53.9130 54.1304 0.2174 127
6 A#3 54.1304 54.2391 0.1087 10
6 D#4 54.2391 54.3478 0.1087 127
6 D#4 54.4564 54.5651 0.1087 127
6 C#4 54.5651 54.6738 0.1087 127
6 D#4 54.6738 54.7825 0.1087 127
6 D#3 54.7825 54.9999 0.2174 127
6 A#3 54.9999 55.1086 0.1087 10
6 D#4 55.1086 55.2173 0.1087 127
6 D#4 55.3260 55.4347 0.1087 127
6 C#4 55.4347 55.5434 0.1087 127
6 D#4 55.5434 55.6521 0.1087 127
6 D#3 55.6521 55.8695 0.2174 127
6 A#3 55.8695 55.9782 0.1087 10
6 D#4 55.9782 56.0869 0.1087 127
6 D#4 56.1956 56.3043 0.1087 127
6 C#4 56.3043 56.4130 0.1087 127
6 D#4 56.4130 56.5217 0.1087 127
6 D#3 56.5217 56.7391 0.2174 127
6 D#4 56.7391 56.8477 0.1087 127
6 F#4 56.8477 56.9564 0.1087 127
6 G#4 56.9564 57.1738 0.2174 127
6 F#4 57.1738 57.2825 0.1087 127
6 G#4 57.2825 57.3912 0.1087 127
6 D#3 57.3912 57.6086 0.2174 127
6 A#3 57.6086 57.7173 0.1087 10
6 D#4 57.7173 57.8260 0.1087 127
6 D#4 57.9347 58.0434 0.1087 127
6 C#4 58.0434 58.1521 0.1087 127
6 D#4 58.1521 58.2608 0.1087 127
6 D#3 58.2608 58.4782 0.2174 127
6 A#3 58.4782 58.5869 0.1087 10
6 D#4 58.5869 58.6956 0.1087 127
6 D#4 58.8043 58.9130 0.1087 127
6 C#4 58.9130 59.0217 0.1087 127
6 D#4 59.0217 59.1304 0.1087 127
6 D#3 59.1304 59.3477 0.2174 127
6 A#3 59.3477 59.4564 0.1087 10
6 D#4 59.4564 59.5651 0.1087 127
6 D#4 59.6738 59.7825 0.1087 127
6 C#4 59.7825 59.8912 0.1087 127
6 D#4 59.8912 59.9999 0.1087 127
6 D#3 59.9999 60.2173 0.2174 127
6 A#3 60.2173 60.3260 0.1087 10
6 D#4 60.3260 60.4347 0.1087 127
6 D#4 60.5434 60.6521 0.1087 127
6 C#4 60.6521 60.7608 0.1087 127
6 D#4 60.7608 60.8695 0.1087 127
6 D#3 60.8695 61.0869 0.2174 127
6 A#3 61.0869 61.1956 0.1087 10
6 D#4 61.1956 61.3043 0.1087 127
6 D#4 61.4130 61.5217 0.1087 127
6 C#4 61.5217 61.6303 0.1087 127
6 D#4 61.6303 61.7390 0.1087 127
6 D#3 61.7390 61.9564 0.2174 127
6 A#3 61.9564 62.0651 0.1087 10
6 D#4 62.0651 62.1738 0.1087 127
6 D#4 62.2825 62.3912 0.1087 127
6 C#4 62.3912 62.4999 0.1087 127
6 D#4 62.4999 62.6086 0.1087 127
6 D#3 62.6086 62.8260 0.2174 127
6 A#3 62.8260 62.9347 0.1087 10
6 D#4 62.9347 63.0434 0.1087 127
6 D#4 63.1521 63.2608 0.1087 127
6 C#4 63.2608 63.3695 0.1087 127
6 D#4 63.3695 63.4782 0.1087 127
6 D#3 63.4782 63.6956 0.2174 127
6 D#4 63.6956 63.8043 0.1087 127
6 F#4 63.8043 63.9130 0.1087 127
6 G#4 63.9130 64.1303 0.2174 127
6 F#4 64.1303 64.2390 0.1087 127
6 G#4 64.2390 64.3477 0.1087 127
6 D#3 64.3477 64.5651 0.2174 127
6 A#3 64.5651 64.6738 0.1087 10
6 D#4 64.6738 64.7825 0.1087 127
6 D#4 64.8912 64.9999 0.1087 127
6 C#4 64.9999 65.1086 0.1087 127
6 D#4 65.1086 65.2173 0.1087 127
6 D#3 65.2173 65.4347 0.2174 127
6 A#3 65.4347 65.5434 0.1087 10
6 D#4 65.5434 65.6521 0.1087 127
6 D#4 65.7608 65.8695 0.1087 127
6 C#4 65.8695 65.9782 0.1087 127
6 D#4 65.9782 66.0869 0.1087 127
6 D#3 66.0869 66.3043 0.2174 127
6 A#3 66.3043 66.4130 0.1087 10
6 D#4 66.4130 66.5216 0.1087 127
6 D#4 66.6303 66.7390 0.1087 127
6 C#4 66.7390 66.8477 0.1087 127
6 D#4 66.8477 66.9564 0.1087 127
6 D#3 66.9564 67.1738 0.2174 127
6 A#3 67.1738 67.2825 0.1087 10
6 D#4 67.2825 67.3912 0.1087 127
6 D#4 67.4999 67.6086 0.1087 127
6 C#4 67.6086 67.7173 0.1087 127
6 D#4 67.7173 67.8260 0.1087 127
6 D#3 67.8260 68.0434 0.2174 127
6 A#3 68.0434 68.1521 0.1087 10
6 D#4 68.1521 68.2608 0.1087 127
6 D#4 68.3695 68.4782 0.1087 127
6 C#4 68.4782 68.5869 0.1087 127
6 D#4 68.5869 68.6956 0.1087 127
6 D#3 68.6956 68.9129 0.2174 127
6 A#3 68.9129 69.0216 0.1087 10
6 D#4 69.0216 69.1303 0.1087 127
6 D#4 69.2390 69.3477 0.1087 127
6 C#4 69.3477 69.4564 0.1087 127
6 D#4 69.4564 69.5651 0.1087 127
6 D#3 69.5651 69.7825 0.2174 127
6 A#3 69.7825 69.8912 0.1087 10
6 D#4 69.8912 69.9999 0.1087 127
6 D#4 70.1086 70.2173 0.1087 127
6 C#4 70.2173 70.3260 0.1087 127
6 D#4 70.3260 70.4347 0.1087 127
6 D#3 70.4347 70.6521 0.2174 127
6 D#4 70.6521 70.7608 0.1087 127
6 F#4 70.7608 70.8695 0.1087 127
6 G#4 70.8695 71.0869 0.2174 127
6 F#4 71.0869 71.1956 0.1087 127
6 G#4 71.1956 71.3042 0.1087 127
6 D#3 71.3042 71.5216 0.2174 127
6 A#3 71.5216 71.6303 0.1087 10
6 D#4 71.6303 71.7390 0.1087 127
6 D#4 71.8477 71.9564 0.1087 127
6 C#4 71.9564 72.0651 0.1087 127
6 D#4 72.0651 72.1738 0.1087 127
6 D#3 72.1738 72.3912 0.2174 127
6 A#3 72.3912 72.4999 0.1087 10
6 D#4 72.4999 72.6086 0.1087 127
6 D#4 72.7173 72.8260 0.1087 127
6 C#4 72.8260 72.9347 0.1087 127
6 D#4 72.9347 73.0434 0.1087 127
6 D#3 73.0434 73.2608 0.2174 127
6 A#3 73.2608 73.3695 0.1087 10
6 D#4 73.3695 73.4782 0.1087 127
6 D#4 73.5869 73.6955 0.1087 127
6 C#4 73.6955 73.8042 0.1087 127
6 D#4 73.8042 73.9129 0.1087 127
6 D#3 73.9129 74.1303 0.2174 127
6 A#3 74.1303 74.2390 0.1087 10
6 D#4 74.2390 74.3477 0.1087 127
6 D#4 74.4564 74.5651 0.1087 127
6 C#4 74.5651 74.6738 0.1087 127
6 D#4 74.6738 74.7825 0.1087 127
6 D#3 74.7825 74.9999 0.2174 127
6 A#3 74.9999 75.1086 0.1087 10
6 D#4 75.1086 75.2173 0.1087 127
6 D#4 75.3260 75.4347 0.1087 127
6 C#4 75.4347 75.5434 0.1087 127
6 D#4 75.5434 75.6521 0.1087 127
6 D#3 75.6521 75.8695 0.2174 127
6 A#3 75.8695 75.9782 0.1087 10
6 D#4 75.9782 76.0869 0.1087 127
6 D#4 76.1955 76.3042 0.1087 127
6 C#4 76.3042 76.4129 0.1087 127
6 D#4 76.4129 76.5216 0.1087 127
6 D#3 76.5216 76.7390 0.2174 127
6 A#3 76.7390 76.8477 0.1087 10
6 D#4 76.8477 76.9564 0.1087 127
6 D#4 77.0651 77.1738 0.1087 127
6 C#4 77.1738 77.2825 0.1087 127
6 D#4 77.2825 77.3912 0.1087 127
6 D#3 77.3912 77.6086 0.2174 127
6 D#4 77.6086 77.7173 0.1087 127
6 F#4 77.7173 77.8260 0.1087 127
6 G#4 77.8260 78.0434 0.2174 127
6 F#4 78.0434 78.1521 0.1087 127
6 G#4 78.1521 78.2608 0.1087 127
6 D#3 78.2608 78.4782 0.2174 127
6 A#3 78.4782 78.5868 0.1087 10
6 D#4 78.5868 78.6955 0.1087 127
6 D#4 78.8042 78.9129 0.1087 127
6 C#4 78.9129 79.0216 0.1087 127
6 D#4 79.0216 79.1303 0.1087 127
6 D#3 79.1303 79.3477 0.2174 127
6 A#3 79.3477 79.4564 0.1087 10
6 D#4 79.4564 79.5651 0.1087 127
6 D#4 79.6738 79.7825 0.1087 127
6 C#4 79.7825 79.8912 0.1087 127
6 D#4 79.8912 79.9999 0.1087 127
6 D#3 79.9999 80.2173 0.2174 127
6 A#3 80.2173 80.3260 0.1087 10
6 D#4 80.3260 80.4347 0.1087 127
6 D#4 80.5434 80.6521 0.1087 127
6 C#4 80.6521 80.7608 0.1087 127
6 D#4 80.7608 80.8695 0.1087 127
6 D#3 80.8695 81.0868 0.2174 127
6 A#3 81.0868 81.1955 0.1087 10
6 D#4 81.1955 81.3042 0.1087 127
6 D#4 81.4129 81.5216 0.1087 127
6 C#4 81.5216 81.6303 0.1087 127
6 D#4 81.6303 81.7390 0.1087 127
6 D#3 81.7390 81.9564 0.2174 127
6 A#3 81.9564 82.0651 0.1087 10
6 D#4 82.0651 82.1738 0.1087 127
6 D#4 82.2825 82.3912 0.1087 127
6 C#4 82.3912 82.4999 0.1087 127
6 D#4 82.4999 82.6086 0.1087 127
6 D#3 82.6086 82.8260 0.2174 127
6 A#3 82.8260 82.9347 0.1087 10
6 D#4 82.9347 83.0434 0.1087 127
6 D#4 83.1521 83.2608 0.1087 127
6 C#4 83.2608 83.3694 0.1087 127
6 D#4 83.3694 83.4781 0.1087 127
6 D#3 83.4781 83.6955 0.2174 127
6 A#3 83.6955 83.8042 0.1087 10
6 D#4 83.8042 83.9129 0.1087 127
6 D#4 84.0216 84.1303 0.1087 127
6 C#4 84.1303 84.2390 0.1087 127
6 D#4 84.2390 84.3477 0.1087 127
6 D#3 84.3477 84.5651 0.2174 127
6 D#4 84.5651 84.6738 0.1087 127
6 F#4 84.6738 84.7825 0.1087 127
6 G#4 84.7825 84.9999 0.2174 127
6 F#4 84.9999 85.1086 0.1087 127
6 G#4 85.1086 85.2173 0.1087 127
6 D#3 85.2173 85.4347 0.2174 127
6 A#3 85.4347 85.5434 0.1087 10
6 D#4 85.5434 85.6521 0.1087 127
6 D#4 85.7607 85.8694 0.1087 127
6 C#4 85.8694 85.9781 0.1087 127
6 D#4 85.9781 86.0868 0.1087 127
6 D#3 86.0868 86.3042 0.2174 127
6 A#3 86.3042 86.4129 0.1087 10
6 D#4 86.4129 86.5216 0.1087 127
6 D#4 86.6303 86.7390 0.1087 127
6 C#4 86.7390 86.8477 0.1087 127
6 D#4 86.8477 86.9564 0.1087 127
6 D#3 86.9564 87.1738 0.2174 127
6 A#3 87.1738 87.2825 0.1087 10
6 D#4 87.2825 87.3912 0.1087 127
6 D#4 87.4999 87.6086 0.1087 127
6 C#4 87.6086 87.7173 0.1087 127
6 D#4 87.7173 87.8260 0.1087 127
6 D#3 87.8260 88.0434 0.2174 127
6 A#3 88.0434 88.1521 0.1087 10
6 D#4 88.1521 88.2607 0.1087 127
6 D#4 88.3694 88.4781 0.1087 127
6 C#4 88.4781 88.5868 0.1087 127
6 D#4 88.5868 88.6955 0.1087 127
6 D#3 88.6955 88.9129 0.2174 127
6 A#3 88.9129 89.0216 0.1087 10
6 D#4 89.0216 89.1303 0.1087 127
6 D#4 89.2390 89.3477 0.1087 127
6 C#4 89.3477 89.4564 0.1087 127
6 D#4 89.4564 89.5651 0.1087 127
6 D#3 89.5651 89.7825 0.2174 127
6 A#3 89.7825 89.8912 0.1087 10
6 D#4 89.8912 89.9999 0.1087 127
6 D#4 90.1086 90.2173 0.1087 127
6 C#4 90.2173 90.3260 0.1087 127
6 D#4 90.3260 90.4347 0.1087 127
6 D#3 90.4347 90.6520 0.2174 127
6 A#3 90.6520 90.7607 0.1087 10
6 D#4 90.7607 90.8694 0.1087 127
6 D#4 90.9781 91.0868 0.1087 127
6 C#4 91.0868 91.1955 0.1087 127
6 D#4 91.1955 91.3042 0.1087 127
6 D#3 91.3042 91.5216 0.2174 127
6 D#4 91.5216 91.6303 0.1087 127
6 F#4 91.6303 91.7390 0.1087 127
6 G#4 91.7390 91.9564 0.2174 127
6 F#4 91.9564 92.0651 0.1087 127
6 G#4 92.0651 92.1738 0.1087 127
6 D#3 92.1738 92.3912 0.2174 127
6 A#3 92.3912 92.4999 0.1087 10
6 D#4 92.4999 92.6086 0.1087 127
6 D#4 92.7173 92.8260 0.1087 127
6 C#4 92.8260 92.9347 0.1087 127
6 D#4 92.9347 93.0433 0.1087 127
6 D#3 93.0433 93.2607 0.2174 127
6 A#3 93.2607 93.3694 0.1087 10
6 D#4 93.3694 93.4781 0.1087 127
6 D#4 93.5868 93.6955 0.1087 127
6 C#4 93.6955 93.8042 0.1087 127
6 D#4 93.8042 93.9129 0.1087 127
6 D#3 93.9129 94.1303 0.2174 127
6 A#3 94.1303 94.2390 0.1087 10
6 D#4 94.2390 94.3477 0.1087 127
6 D#4 94.4564 94.5651 0.1087 127
6 C#4 94.5651 94.6738 0.1087 127
6 D#4 94.6738 94.7825 0.1087 127
6 D#3 94.7825 94.9999 0.2174 127
6 A#3 94.9999 95.1086 0.1087 10
6 D#4 95.1086 95.2173 0.1087 127
6 D#4 95.3260 95.4346 0.1087 127
6 C#4 95.4346 95.5433 0.1087 127
6 D#4 95.5433 95.6520 0.1087 127
6 D#3 95.6520 95.8694 0.2174 127
6 A#3 95.8694 95.9781 0.1087 10
6 D#4 95.9781 96.0868 0.1087 127
6 D#4 96.1955 96.3042 0.1087 127
6 C#4 96.3042 96.4129 0.1087 127
6 D#4 96.4129 96.5216 0.1087 127
6 D#3 96.5216 96.7390 0.2174 127
6 A#3 96.7390 96.8477 0.1087 10
6 D#4 96.8477 96.9564 0.1087 127
6 D#4 97.0651 97.1738 0.1087 127
6 C#4 97.1738 97.2825 0.1087 127
6 D#4 97.2825 97.3912 0.1087 127
6 D#3 97.3912 97.6086 0.2174 127
6 A#3 97.6086 97.7173 0.1087 10
6 D#4 97.7173 97.8260 0.1087 127
6 D#4 97.9346 98.0433 0.1087 127
6 C#4 98.0433 98.1520 0.1087 127
6 D#4 98.1520 98.2607 0.1087 127
6 D#3 98.2607 98.4781 0.2174 127
6 D#4 98.4781 98.5868 0.1087 127
6 F#4 98.5868 98.6955 0.1087 127
6 G#4 98.6955 98.9129 0.2174 127
6 F#4 98.9129 99.0216 0.1087 127
6 G#4 99.0216 99.1303 0.1087 127
6 D#3 99.1303 99.3477 0.2174 127
6 A#3 99.3477 99.4564 0.1087 10
6 D#4 99.4564 99.5651 0.1087 127
6 D#4 99.6738 99.7825 0.1087 127
6 C#4 99.7825 99.8912 0.1087 127
6 D#4 99.8912 99.9999 0.1087 127
6 D#3 99.9999 100.2173 0.2174 127
6 A#3 100.2173 100.3259 0.1087 10
6 D#4 100.3259 100.4346 0.1087 127
6 D#4 100.5433 100.6520 0.1087 127
6 C#4 100.6520 100.7607 0.1087 127
6 D#4 100.7607 100.8694 0.1087 127
6 D#3 100.8694 101.0868 0.2174 127
6 A#3 101.0868 101.1955 0.1087 10
6 D#4 101.1955 101.3042 0.1087 127
6 D#4 101.4129 101.5216 0.1087 127
6 C#4 101.5216 101.6303 0.1087 127
6 D#4 101.6303 101.7390 0.1087 127
6 D#3 101.7390 101.9564 0.2174 127
6 A#3 101.9564 102.0651 0.1087 10
6 D#4 102.0651 102.1738 0.1087 127
6 D#4 102.2825 102.3912 0.1087 127
6 C#4 102.3912 102.4999 0.1087 127
6 D#4 102.4999 102.6086 0.1087 127
6 D#3 102.6086 102.8259 0.2174 127
6 A#3 102.8259 102.9346 0.1087 10
6 D#4 102.9346 103.0433 0.1087 127
6 D#4 103.1520 103.2607 0.1087 127
6 C#4 103.2607 103.3694 0.1087 127
6 D#4 103.3694 103.4781 0.1087 127
6 D#3 103.4781 103.6955 0.2174 127
6 A#3 103.6955 103.8042 0.1087 10
6 D#4 103.8042 103.9129 0.1087 127
6 D#4 104.0216 104.1303 0.1087 127
6 C#4 104.1303 104.2390 0.1087 127
6 D#4 104.2390 104.3477 0.1087 127
6 D#3 104.3477 104.5651 0.2174 127
6 A#3 104.5651 104.6738 0.1087 10
6 D#4 104.6738 104.7825 0.1087 127
6 D#4 104.8912 104.9999 0.1087 127
6 C#4 104.9999 105.1085 0.1087 127
6 D#4 105.1085 105.2172 0.1087 127
6 D#3 105.2172 105.4346 0.2174 127
6 D#4 105.4346 105.5433 0.1087 127
6 F#4 105.5433 105.6520 0.1087 127
6 G#4 105.6520 105.8694 0.2174 127
6 F#4 105.8694 105.9781 0.1087 127
6 G#4 105.9781 106.0868 0.1087 127
6 D#3 106.0868 106.3042 0.2174 127
6 A#3 106.3042 106.4129 0.1087 10
6 D#4 106.4129 106.5216 0.1087 127
6 D#4 106.6303 106.7390 0.1087 127
6 C#4 106.7390 106.8477 0.1087 127
6 D#4 106.8477 106.9564 0.1087 127
6 D#3 106.9564 107.1738 0.2174 127
6 A#3 107.1738 107.2825 0.1087 10
6 D#4 107.2825 107.3912 0.1087 127
6 D#4 107.4998 107.6085 0.1087 127
6 C#4 107.6085 107.7172 0.1087 127
6 D#4 107.7172 107.8259 0.1087 127
6 D#3 107.8259 108.0433 0.2174 127
6 A#3 108.0433 108.1520 0.1087 10
6 D#4 108.1520 108.2607 0.1087 127
6 D#4 108.3694 108.4781 0.1087 127
6 C#4 108.4781 108.5868 0.1087 127
6 D#4 108.5868 108.6955 0.1087 127
6 D#3 108.6955 108.9129 0.2174 127
6 A#3 108.9129 109.0216 0.1087 10
6 D#4 109.0216 109.1303 0.1087 127
6 D#4 109.2390 109.3477 0.1087 127
6 C#4 109.3477 109.4564 0.1087 127
6 D#4 109.4564 109.5651 0.1087 127
6 D#3 109.5651 109.7825 0.2174 127
6 A#3 109.7825 109.8912 0.1087 10
6 D#4 109.8912 109.9998 0.1087 127
6 D#4 110.1085 110.2172 0.1087 127
6 C#4 110.2172 110.3259 0.1087 127
6 D#4 110.3259 110.4346 0.1087 127
6 D#3 110.4346 110.6520 0.2174 127
6 A#3 110.6520 110.7607 0.1087 10
6 D#4 110.7607 110.8694 0.1087 127
6 D#4 110.9781 111.0868 0.1087 127
6 C#4 111.0868 111.1955 0.1087 127
6 D#4 111.1955 111.3042 0.1087 127
6 D#3 111.3042 111.5216 0.2174 127
6 A#3 111.5216 111.6303 0.1087 10
6 D#4 111.6303 111.7390 0.1087 127
6 D#4 111.8477 111.9564 0.1087 127
6 C#4 111.9564 112.0651 0.1087 127
6 D#4 112.0651 112.1738 0.1087 127
6 D#3 112.1738 112.3911 0.2174 127
6 D#4 112.3911 112.4998 0.1087 127
6 F#4 112.4998 112.6085 0.1087 127
6 G#4 112.6085 112.8259 0.2174 127
6 F#4 112.8259 112.9346 0.1087 127
6 G#4 112.9346 113.0433 0.1087 127
6 D#3 113.0433 113.2607 0.2174 127
6 A#3 113.2607 113.3694 0.1087 10
6 D#4 113.3694 113.4781 0.1087 127
6 D#4 113.5868 113.6955 0.1087 127
6 C#4 113.6955 113.8042 0.1087 127
6 D#4 113.8042 113.9129 0.1087 127
6 D#3 113.9129 114.1303 0.2174 127
6 A#3 114.1303 114.2390 0.1087 10
6 D#4 114.2390 114.3477 0.1087 127
6 D#4 114.4564 114.5651 0.1087 127
6 C#4 114.5651 114.6738 0.1087 127
6 D#4 114.6738 114.7824 0.1087 127
6 D#3 114.7824 114.9998 0.2174 127
6 A#3 114.9998 115.1085 0.1087 10
6 D#4 115.1085 115.2172 0.1087 127
6 D#4 115.3259 115.4346 0.1087 127
6 C#4 115.4346 115.5433 0.1087 127
6 D#4 115.5433 115.6520 0.1087 127
6 D#3 115.6520 115.8694 0.2174 127
6 D#4 115.8694 115.9781 0.1087 127
6 F#4 115.9781 116.0868 0.1087 127
6 G#4 116.0868 116.3042 0.2174 127
6 F#4 116.3042 116.4129 0.1087 127
6 G#4 116.4129 116.5216 0.1087 127
6 D#3 116.5216 116.7390 0.2174 127
6 A#3 116.7390 116.8477 0.1087 10
6 D#4 116.8477 116.9564 0.1087 127
6 D#4 117.0651 117.1737 0.1087 127
6 C#4 117.1737 117.2824 0.1087 127
6 D#4 117.2824 117.3911 0.1087 127
6 D#3 117.3911 117.6085 0.2174 127
6 A#3 117.6085 117.7172 0.1087 10
6 D#4 117.7172 117.8259 0.1087 127
6 D#4 117.9346 118.0433 0.1087 127
6 C#4 118.0433 118.1520 0.1087 127
6 D#4 118.1520 118.2607 0.1087 127
6 D#3 118.2607 118.4781 0.2174 127
6 A#3 118.4781 118.5868 0.1087 10
6 D#4 118.5868 118.6955 0.1087 127
6 D#4 118.8042 118.9129 0.1087 127
6 C#4 118.9129 119.0216 0.1087 127
6 D#4 119.0216 119.1303 0.1087 127
6 G#4 119.1303 119.3477 0.2174 127
6 F#4 119.3477 119.4564 0.1087 127
6 G#4 119.4564 119.5651 0.1087 127
6 F#4 119.5651 119.7824 0.2174 127
6 D#4 119.7824 119.8911 0.1087 127
6 F#4 119.8911 119.9998 0.1087 127
6 D#3 119.9998 120.2172 0.2174 127
6 A#3 120.2172 120.3259 0.1087 10
6 D#4 120.3259 120.4346 0.1087 127
6 D#4 120.5433 120.6520 0.1087 127
6 C#4 120.6520 120.7607 0.1087 127
6 D#4 120.7607 120.8694 0.1087 127
6 D#3 120.8694 121.0868 0.2174 127
6 A#3 121.0868 121.1955 0.1087 10
6 D#4 121.1955 121.3042 0.1087 127
6 D#4 121.4129 121.5216 0.1087 127
6 C#4 121.5216 121.6303 0.1087 127
6 D#4 121.6303 121.7390 0.1087 127
6 D#3 121.7390 121.9564 0.2174 127
6 A#3 121.9564 122.0650 0.1087 10
6 D#4 122.0650 122.1737 0.1087 127
6 D#4 122.2824 122.3911 0.1087 127
6 C#4 122.3911 122.4998 0.1087 127
6 D#4 122.4998 122.6085 0.1087 127
6 D#3 122.6085 122.8259 0.2174 127
6 D#4 122.8259 122.9346 0.1087 127
6 F#4 122.9346 123.0433 0.1087 127
6 G#4 123.0433 123.2607 0.2174 127
6 F#4 123.2607 123.3694 0.1087 127
6 G#4 123.3694 123.4781 0.1087 127
6 D#3 123.4781 123.6955 0.2174 127
6 A#3 123.6955 123.8042 0.1087 10
6 D#4 123.8042 123.9129 0.1087 127
6 D#4 124.0216 124.1303 0.1087 127
6 C#4 124.1303 124.2390 0.1087 127
6 D#4 124.2390 124.3477 0.1087 127
6 D#3 124.3477 124.5650 0.2174 127
6 A#3 124.5650 124.6737 0.1087 10
6 D#4 124.6737 124.7824 0.1087 127
6 D#4 124.8911 124.9998 0.1087 127
6 C#4 124.9998 125.1085 0.1087 127
6 D#4 125.1085 125.2172 0.1087 127
6 D#3 125.2172 125.4346 0.2174 127
6 A#3 125.4346 125.5433 0.1087 10
6 D#4 125.5433 125.6520 0.1087 127
6 D#4 125.7607 125.8694 0.1087 127
6 C#4 125.8694 125.9781 0.1087 127
6 D#4 125.9781 126.0868 0.1087 127
6 G#4 126.0868 126.2317 0.1449 127
6 F#4 126.2317 126.3766 0.1449 127
6 G#4 126.3766 126.5216 0.1449 127
6 F#4 126.5216 126.6665 0.1449 127
6 D#4 126.6665 126.8114 0.1449 127
6 F#4 126.8114 126.9563 0.1449 127
6 D#3 126.9563 127.1737 0.2174 127
6 A#3 127.1737 127.2824 0.1087 10
6 D#4 127.2824 127.3911 0.1087 127
6 D#4 127.4998 127.6085 0.1087 127
6 C#4 127.6085 127.7172 0.1087 127
6 D#4 127.7172 127.8259 0.1087 127
6 D#3 127.8259 128.0433 0.2174 127
6 A#3 128.0433 128.1520 0.1087 10
6 D#4 128.1520 128.2607 0.1087 127
6 D#4 128.3694 128.4781 0.1087 127
6 C#4 128.4781 128.5868 0.1087 127
6 D#4 128.5868 128.6955 0.1087 127
6 D#3 128.6955 128.9129 0.2174 127
6 A#3 128.9129 129.0216 0.1087 10
6 D#4 129.0216 129.1303 0.1087 127
6 D#4 129.2389 129.3476 0.1087 127
6 C#4 129.3476 129.4563 0.1087 127
6 D#4 129.4563 129.5650 0.1087 127
6 D#3 129.5650 129.7824 0.2174 127
6 D#4 129.7824 129.8911 0.1087 127
6 F#4 129.8911 129.9998 0.1087 127
6 G#4 129.9998 130.2172 0.2174 127
6 F#4 130.2172 130.3259 0.1087 127
6 G#4 130.3259 130.4346 0.1087 127
6 D#3 130.4346 130.6520 0.2174 127
6 A#3 130.6520 130.7607 0.1087 10
6 D#4 130.7607 130.8694 0.1087 127
6 D#4 130.9781 131.0868 0.1087 127
6 C#4 131.0868 131.1955 0.1087 127
6 D#4 131.1955 131.3042 0.1087 127
6 D#3 131.3042 131.5216 0.2174 127
6 A#3 131.5216 131.6303 0.1087 10
6 D#4 131.6303 131.7389 0.1087 127
6 D#4 131.8476 131.9563 0.1087 127
6 C#4 131.9563 132.0650 0.1087 127
6 D#4 132.0650 132.1737 0.1087 127
6 D#3 132.1737 132.3911 0.2174 127
6 A#3 132.3911 132.4998 0.1087 10
6 D#4 132.4998 132.6085 0.1087 127
6 D#4 132.7172 132.8259 0.1087 127
6 C#4 132.8259 132.9346 0.1087 127
6 D#4 132.9346 133.0433 0.1087 127
6 D#3 133.0433 133.2607 0.2174 127
6 D#4 133.2607 133.3694 0.1087 127
6 F#4 133.3694 133.4781 0.1087 127
6 G#4 133.4781 133.6955 0.2174 127
6 F#4 133.6955 133.8042 0.1087 127
6 G#4 133.8042 133.9129 0.1087 127
6 D#3 133.9129 134.1302 0.2174 127
6 A#3 134.1302 134.2389 0.1087 10
6 D#4 134.2389 134.3476 0.1087 127
6 D#4 134.4563 134.5650 0.1087 127
6 C#4 134.5650 134.6737 0.1087 127
6 D#4 134.6737 134.7824 0.1087 127
6 D#3 134.7824 134.9998 0.2174 127
6 A#3 134.9998 135.1085 0.1087 10
6 D#4 135.1085 135.2172 0.1087 127
6 D#4 135.3259 135.4346 0.1087 127
6 C#4 135.4346 135.5433 0.1087 127
6 D#4 135.5433 135.6520 0.1087 127
6 D#3 135.6520 135.8694 0.2174 127
6 A#3 135.8694 135.9781 0.1087 10
6 D#4 135.9781 136.0868 0.1087 127
6 D#4 136.1955 136.3042 0.1087 127
6 C#4 136.3042 136.4129 0.1087 127
6 D#4 136.4129 136.5215 0.1087 127
6 D#3 136.5215 136.7389 0.2174 127
6 D#4 136.7389 136.8476 0.1087 127
6 F#4 136.8476 136.9563 0.1087 127
6 G#4 136.9563 137.1737 0.2174 127
6 F#4 137.1737 137.2824 0.1087 127
6 G#4 137.2824 137.3911 0.1087 127
6 D#3 137.3911 137.6085 0.2174 127
6 A#3 137.6085 137.7172 0.1087 10
6 D#4 137.7172 137.8259 0.1087 127
6 D#4 137.9346 138.0433 0.1087 127
6 C#4 138.0433 138.1520 0.1087 127
6 D#4 138.1520 138.2607 0.1087 127
6 D#3 138.2607 138.4781 0.2174 127
6 A#3 138.4781 138.5868 0.1087 10
6 D#4 138.5868 138.6955 0.1087 127
6 D#4 138.8042 138.9128 0.1087 127
6 C#4 138.9128 139.0215 0.1087 127
6 D#4 139.0215 139.1302 0.1087 127
6 D#3 139.1302 139.3476 0.2174 127
6 A#3 139.3476 139.4563 0.1087 10
6 D#4 139.4563 139.5650 0.1087 127
6 D#4 139.6737 139.7824 0.1087 127
6 C#4 139.7824 139.8911 0.1087 127
6 D#4 139.8911 139.9998 0.1087 127
6 D#3 139.9998 140.2172 0.2174 127
6 D#4 140.2172 140.3259 0.1087 127
6 F#4 140.3259 140.4346 0.1087 127
6 G#4 140.4346 140.6520 0.2174 127
6 F#4 140.6520 140.7607 0.1087 127
6 G#4 140.7607 140.8694 0.1087 127
6 D#3 140.8694 141.0868 0.2174 127
6 A#3 141.0868 141.1955 0.1087 10
6 D#4 141.1955 141.3042 0.1087 127
6 D#4 141.4128 141.5215 0.1087 127
6 C#4 141.5215 141.6302 0.1087 127
6 D#4 141.6302 141.7389 0.1087 127
6 D#3 141.7389 141.9563 0.2174 127
6 A#3 141.9563 142.0650 0.1087 10
6 D#4 142.0650 142.1737 0.1087 127
6 D#4 142.2824 142.3911 0.1087 127
6 C#4 142.3911 142.4998 0.1087 127
6 D#4 142.4998 142.6085 0.1087 127
6 D#3 142.6085 142.8259 0.2174 127
6 A#3 142.8259 142.9346 0.1087 10
6 D#4 142.9346 143.0433 0.1087 127
6 D#4 143.1520 143.2607 0.1087 127
6 C#4 143.2607 143.3694 0.1087 127
6 D#4 143.3694 143.4781 0.1087 127
6 D#3 143.4781 143.6955 0.2174 127
6 D#4 143.6955 143.8041 0.1087 127
6 F#4 143.8041 143.9128 0.1087 127
6 G#4 143.9128 144.1302 0.2174 127
6 F#4 144.1302 144.2389 0.1087 127
6 G#4 144.2389 144.3476 0.1087 127
6 D#3 144.3476 144.5650 0.2174 127
6 A#3 144.5650 144.6737 0.1087 10
6 D#4 144.6737 144.7824 0.1087 127
6 D#4 144.8911 144.9998 0.1087 127
6 C#4 144.9998 145.1085 0.1087 127
6 D#4 145.1085 145.2172 0.1087 127
6 D#3 145.2172 145.4346 0.2174 127
6 A#3 145.4346 145.5433 0.1087 10
6 D#4 145.5433 145.6520 0.1087 127
6 D#4 145.7607 145.8694 0.1087 127
6 C#4 145.8694 145.9781 0.1087 127
6 D#4 145.9781 146.0868 0.1087 127
6 D#3 146.0868 146.3041 0.2174 127
6 A#3 146.3041 146.4128 0.1087 10
6 D#4 146.4128 146.5215 0.1087 127
6 D#4 146.6302 146.7389 0.1087 127
6 C#4 146.7389 146.8476 0.1087 127
6 D#4 146.8476 146.9563 0.1087 127
6 D#3 146.9563 147.1737 0.2174 127
6 D#4 147.1737 147.2824 0.1087 127
6 F#4 147.2824 147.3911 0.1087 127
6 G#4 147.3911 147.6085 0.2174 127
6 F#4 147.6085 147.7172 0.1087 127
6 G#4 147.7172 147.8259 0.1087 127
6 D#3 147.8259 148.0433 0.2174 127
6 A#3 148.0433 148.1520 0.1087 10
6 D#4 148.1520 148.2607 0.1087 127
6 D#4 148.3694 148.4781 0.1087 127
6 C#4 148.4781 148.5867 0.1087 127
6 D#4 148.5867 148.6954 0.1087 127
6 D#3 148.6954 148.9128 0.2174 127
6 A#3 148.9128 149.0215 0.1087 10
6 D#4 149.0215 149.1302 0.1087 127
6 D#4 149.2389 149.3476 0.1087 127
6 C#4 149.3476 149.4563 0.1087 127
6 D#4 149.4563 149.5650 0.1087 127
6 D#3 149.5650 149.7824 0.2174 127
6 A#3 149.7824 149.8911 0.1087 10
6 D#4 149.8911 149.9998 0.1087 127
6 D#4 150.1085 150.2172 0.1087 127
6 C#4 150.2172 150.3259 0.1087 127
6 D#4 150.3259 150.4346 0.1087 127
6 D#3 150.4346 150.6520 0.2174 127
6 D#4 150.6520 150.7607 0.1087 127
6 F#4 150.7607 150.8694 0.1087 127
6 G#4 150.8694 151.0867 0.2174 127
6 F#4 151.0867 151.1954 0.1087 127
6 G#4 151.1954 151.3041 0.1087 127
6 D#3 151.3041 151.5215 0.2174 127
6 A#3 151.5215 151.6302 0.1087 10
6 D#4 151.6302 151.7389 0.1087 127
6 D#4 151.8476 151.9563 0.1087 127
6 C#4 151.9563 152.0650 0.1087 127
6 D#4 152.0650 152.1737 0.1087 127
6 D#3 152.1737 152.3911 0.2174 127
6 A#3 152.3911 152.4998 0.1087 10
6 D#4 152.4998 152.6085 0.1087 127
6 D#4 152.7172 152.8259 0.1087 127
6 C#4 152.8259 152.9346 0.1087 127
6 D#4 152.9346 153.0433 0.1087 127
6 D#3 153.0433 153.2607 0.2174 127
6 A#3 153.2607 153.3694 0.1087 10
6 D#4 153.3694 153.4780 0.1087 127
6 D#4 153.5867 153.6954 0.1087 127
6 C#4 153.6954 153.8041 0.1087 127
6 D#4 153.8041 153.9128 0.1087 127
6 D#3 153.9128 154.1302 0.2174 127
6 D#4 154.1302 154.2389 0.1087 127
6 F#4 154.2389 154.3476 0.1087 127
6 G#4 154.3476 154.5650 0.2174 127
6 F#4 154.5650 154.6737 0.1087 127
6 G#4 154.6737 154.7824 0.1087 127
6 D#3 154.7824 154.9998 0.2174 127
6 A#3 154.9998 155.1085 0.1087 10
6 D#4 155.1085 155.2172 0.1087 127
6 D#4 155.3259 155.4346 0.1087 127
6 C#4 155.4346 155.5433 0.1087 127
6 D#4 155.5433 155.6520 0.1087 127
6 D#3 155.6520 155.8693 0.2174 127
6 A#3 155.8693 155.9780 0.1087 10
6 D#4 155.9780 156.0867 0.1087 127
6 D#4 156.1954 156.3041 0.1087 127
6 C#4 156.3041 156.4128 0.1087 127
6 D#4 156.4128 156.5215 0.1087 127
6 D#3 156.5215 156.7389 0.2174 127
6 A#3 156.7389 156.8476 0.1087 10
6 D#4 156.8476 156.9563 0.1087 127
6 D#4 157.0650 157.1737 0.1087 127
6 C#4 157.1737 157.2824 0.1087 127
6 D#4 157.2824 157.3911 0.1087 127
6 D#3 157.3911 157.6085 0.2174 127
6 A#3 157.6085 157.7172 0.1087 10
6 D#4 157.7172 157.8259 0.1087 127
6 D#4 157.9346 158.0433 0.1087 127
6 C#4 158.0433 158.1520 0.1087 127
6 D#4 158.1520 158.2606 0.1087 127
6 D#3 158.2606 158.4780 0.2174 127
6 A#3 158.4780 158.5867 0.1087 10
6 D#4 158.5867 158.6954 0.1087 127
6 D#4 158.8041 158.9128 0.1087 127
6 C#4 158.9128 159.0215 0.1087 127
6 D#4 159.0215 159.1302 0.1087 127
6 D#3 159.1302 159.3476 0.2174 127
6 A#3 159.3476 159.4563 0.1087 10
6 D#4 159.4563 159.5650 0.1087 127
6 D#4 159.6737 159.7824 0.1087 127
6 C#4 159.7824 159.8911 0.1087 127
6 D#4 159.8911 159.9998 0.1087 127
6 D#3 159.9998 160.2172 0.2174 127
6 A#3 160.2172 160.3259 0.1087 10
6 D#4 160.3259 160.4346 0.1087 127
6 D#4 160.5433 160.6519 0.1087 127
6 C#4 160.6519 160.7606 0.1087 127
6 D#4 160.7606 160.8693 0.1087 127
6 D#3 160.8693 161.0867 0.2174 127
6 D#4 161.0867 161.1954 0.1087 127
6 F#4 161.1954 161.3041 0.1087 127
6 G#4 161.3041 161.5215 0.2174 127
6 F#4 161.5215 161.6302 0.1087 127
6 G#4 161.6302 161.7389 0.1087 127
6 D#3 161.7389 161.9563 0.2174 127
6 A#3 161.9563 162.0650 0.1087 10
6 D#4 162.0650 162.1737 0.1087 127
6 D#4 162.2824 162.3911 0.1087 127
6 C#4 162.3911 162.4998 0.1087 127
6 D#4 162.4998 162.6085 0.1087 127
6 D#3 162.6085 162.8259 0.2174 127
6 A#3 162.8259 162.9346 0.1087 10
6 D#4 162.9346 163.0433 0.1087 127
6 D#4 163.1519 163.2606 0.1087 127
6 C#4 163.2606 163.3693 0.1087 127
6 D#4 163.3693 163.4780 0.1087 127
6 D#3 163.4780 163.6954 0.2174 127
6 A#3 163.6954 163.8041 0.1087 10
6 D#4 163.8041 163.9128 0.1087 127
6 D#4 164.0215 164.1302 0.1087 127
6 C#4 164.1302 164.2389 0.1087 127
6 D#4 164.2389 164.3476 0.1087 127
6 D#3 164.3476 164.5650 0.2174 127
6 A#3 164.5650 164.6737 0.1087 10
6 D#4 164.6737 164.7824 0.1087 127
6 D#4 164.8911 164.9998 0.1087 127
6 C#4 164.9998 165.1085 0.1087 127
6 D#4 165.1085 165.2172 0.1087 127
6 D#3 165.2172 165.4346 0.2174 127
6 A#3 165.4346 165.5432 0.1087 10
6 D#4 165.5432 165.6519 0.1087 127
6 D#4 165.7606 165.8693 0.1087 127
6 C#4 165.8693 165.9780 0.1087 127
6 D#4 165.9780 166.0867 0.1087 127
6 D#3 166.0867 166.3041 0.2174 127
6 A#3 166.3041 166.4128 0.1087 10
6 D#4 166.4128 166.5215 0.1087 127
6 D#4 166.6302 166.7389 0.1087 127
6 C#4 166.7389 166.8476 0.1087 127
6 D#4 166.8476 166.9563 0.1087 127
6 D#3 166.9563 167.1737 0.2174 127
6 A#3 167.1737 167.2824 0.1087 10
6 D#4 167.2824 167.3911 0.1087 127
6 D#4 167.4998 167.6085 0.1087 127
6 C#4 167.6085 167.7172 0.1087 127
6 D#4 167.7172 167.8259 0.1087 127
6 D#3 167.8259 168.0432 0.2174 127
6 D#4 168.0432 168.1519 0.1087 127
6 F#4 168.1519 168.2606 0.1087 127
6 G#4 168.2606 168.4780 0.2174 127
6 F#4 168.4780 168.5867 0.1087 127
6 G#4 168.5867 168.6954 0.1087 127
6 D#3 168.6954 168.9128 0.2174 127
6 A#3 168.9128 169.0215 0.1087 10
6 D#4 169.0215 169.1302 0.1087 127
6 D#4 169.2389 169.3476 0.1087 127
6 C#4 169.3476 169.4563 0.1087 127
6 D#4 169.4563 169.5650 0.1087 127
6 D#3 169.5650 169.7824 0.2174 127
6 A#3 169.7824 169.8911 0.1087 10
6 D#4 169.8911 169.9998 0.1087 127
6 D#4 170.1085 170.2172 0.1087 127
6 C#4 170.2172 170.3258 0.1087 127
6 D#4 170.3258 170.4345 0.1087 127
6 D#3 170.4345 170.6519 0.2174 127
6 A#3 170.6519 170.7606 0.1087 10
6 D#4 170.7606 170.8693 0.1087 127
6 D#4 170.9780 171.0867 0.1087 127
6 C#4 171.0867 171.1954 0.1087 127
6 D#4 171.1954 171.3041 0.1087 127
6 D#3 171.3041 171.5215 0.2174 127
6 A#3 171.5215 171.6302 0.1087 10
6 D#4 171.6302 171.7389 0.1087 127
6 D#4 171.8476 171.9563 0.1087 127
6 C#4 171.9563 172.0650 0.1087 127
6 D#4 172.0650 172.1737 0.1087 127
6 D#3 172.1737 172.3911 0.2174 127
6 A#3 172.3911 172.4998 0.1087 10
6 D#4 172.4998 172.6085 0.1087 127
6 D#4 172.7171 172.8258 0.1087 127
6 C#4 172.8258 172.9345 0.1087 127
6 D#4 172.9345 173.0432 0.1087 127
6 D#3 173.0432 173.2606 0.2174 127
6 A#3 173.2606 173.3693 0.1087 10
6 D#4 173.3693 173.4780 0.1087 127
6 D#4 173.5867 173.6954 0.1087 127
6 C#4 173.6954 173.8041 0.1087 127
6 D#4 173.8041 173.9128 0.1087 127
6 D#3 173.9128 174.1302 0.2174 127
6 A#3 174.1302 174.2389 0.1087 10
6 D#4 174.2389 174.3476 0.1087 127
6 D#4 174.4563 174.5650 0.1087 127
6 C#4 174.5650 174.6737 0.1087 127
6 D#4 174.6737 174.7824 0.1087 127
6 D#3 174.7824 174.9998 0.2174 127
6 D#4 174.9998 175.1085 0.1087 127
6 F#4 175.1085 175.2171 0.1087 127
6 G#4 175.2171 175.4345 0.2174 127
6 F#4 175.4345 175.5432 0.1087 127
6 G#4 175.5432 175.6519 0.1087 127
6 D#3 175.6519 175.8693 0.2174 127
6 A#3 175.8693 175.9780 0.1087 10
6 D#4 175.9780 176.0867 0.1087 127
6 D#4 176.1954 176.3041 0.1087 127
6 C#4 176.3041 176.4128 0.1087 127
6 D#4 176.4128 176.5215 0.1087 127
6 D#3 176.5215 176.7389 0.2174 127
6 A#3 176.7389 176.8476 0.1087 10
6 D#4 176.8476 176.9563 0.1087 127
6 D#4 177.0650 177.1737 0.1087 127
6 C#4 177.1737 177.2824 0.1087 127
6 D#4 177.2824 177.3911 0.1087 127
6 D#3 177.3911 177.6084 0.2174 127
6 A#3 177.6084 177.7171 0.1087 10
6 D#4 177.7171 177.8258 0.1087 127
6 D#4 177.9345 178.0432 0.1087 127
6 C#4 178.0432 178.1519 0.1087 127
6 D#4 178.1519 178.2606 0.1087 127
6 D#3 178.2606 178.4780 0.2174 127
6 A#3 178.4780 178.5867 0.1087 10
6 D#4 178.5867 178.6954 0.1087 127
6 D#4 178.8041 178.9128 0.1087 127
6 C#4 178.9128 179.0215 0.1087 127
6 D#4 179.0215 179.1302 0.1087 127
6 D#3 179.1302 179.3476 0.2174 127
6 A#3 179.3476 179.4563 0.1087 10
6 D#4 179.4563 179.5650 0.1087 127
6 D#4 179.6737 179.7824 0.1087 127
6 C#4 179.7824 179.8911 0.1087 127
6 D#4 179.8911 179.9997 0.1087 127
6 D#3 179.9997 180.2171 0.2174 127
6 A#3 180.2171 180.3258 0.1087 10
6 D#4 180.3258 180.4345 0.1087 127
6 D#4 180.5432 180.6519 0.1087 127
6 C#4 180.6519 180.7606 0.1087 127
6 D#4 180.7606 180.8693 0.1087 127
6 D#3 180.8693 181.0867 0.2174 127
6 A#3 181.0867 181.1954 0.1087 10
6 D#4 181.1954 181.3041 0.1087 127
6 D#4 181.4128 181.5215 0.1087 127
6 C#4 181.5215 181.6302 0.1087 127
6 D#4 181.6302 181.7389 0.1087 127
6 E3 182.6084 182.8258 0.2174 127
6 B3 182.8258 182.9345 0.1087 10
6 E4 182.9345 183.0432 0.1087 127
6 E4 183.1519 183.2606 0.1087 127
6 D4 183.2606 183.3693 0.1087 127
6 E4 183.3693 183.4780 0.1087 127
6 E3 183.4780 183.6954 0.2174 127
6 B3 183.6954 183.8041 0.1087 10
6 E4 183.8041 183.9128 0.1087 127
6 E4 184.0215 184.1302 0.1087 127
6 D4 184.1302 184.2389 0.1087 127
6 E4 184.2389 184.3476 0.1087 127
6 E3 184.3476 184.5650 0.2174 127
6 B3 184.5650 184.6737 0.1087 10
6 E4 184.6737 184.7824 0.1087 127
6 E4 184.8910 184.9997 0.1087 127
6 D4 184.9997 185.1084 0.1087 127
6 E4 185.1084 185.2171 0.1087 127
6 E3 185.2171 185.4345 0.2174 127
6 B3 185.4345 185.5432 0.1087 10
6 E4 185.5432 185.6519 0.1087 127
6 E4 185.7606 185.8693 0.1087 127
6 D4 185.8693 185.9780 0.1087 127
6 E4 185.9780 186.0867 0.1087 127
6 E3 186.0867 186.3041 0.2174 127
6 B3 186.3041 186.4128 0.1087 10
6 E4 186.4128 186.5215 0.1087 127
6 E4 186.6302 186.7389 0.1087 127
6 D4 186.7389 186.8476 0.1087 127
6 E4 186.8476 186.9563 0.1087 127
6 E3 186.9563 187.1737 0.2174 127
6 B3 187.1737 187.2823 0.1087 10
6 E4 187.2823 187.3910 0.1087 127
6 E4 187.4997 187.6084 0.1087 127
6 D4 187.6084 187.7171 0.1087 127
6 E4 187.7171 187.8258 0.1087 127
6 E3 187.8258 188.0432 0.2174 127
6 B3 188.0432 188.1519 0.1087 10
6 E4 188.1519 188.2606 0.1087 127
6 E4 188.3693 188.4780 0.1087 127
6 D4 188.4780 188.5867 0.1087 127
6 E4 188.5867 188.6954 0.1087 127
6 E3 188.6954 188.9128 0.2174 127
6 E4 188.9128 189.0215 0.1087 127
6 G4 189.0215 189.1302 0.1087 127
6 A4 189.1302 189.3476 0.2174 127
6 G4 189.3476 189.4563 0.1087 127
6 A4 189.4563 189.5650 0.1087 127
6 E3 189.5650 189.7823 0.2174 127
6 B3 189.7823 189.8910 0.1087 10
6 E4 189.8910 189.9997 0.1087 127
6 E4 190.1084 190.2171 0.1087 127
6 D4 190.2171 190.3258 0.1087 127
6 E4 190.3258 190.4345 0.1087 127
6 E3 190.4345 190.6519 0.2174 127
6 B3 190.6519 190.7606 0.1087 10
6 E4 190.7606 190.8693 0.1087 127
6 E4 190.9780 191.0867 0.1087 127
6 D4 191.0867 191.1954 0.1087 127
6 E4 191.1954 191.3041 0.1087 127
6 E3 191.3041 191.5215 0.2174 127
6 B3 191.5215 191.6302 0.1087 10
6 E4 191.6302 191.7389 0.1087 127
6 E4 191.8476 191.9563 0.1087 127
6 D4 191.9563 192.0649 0.1087 127
6 E4 192.0649 192.1736 0.1087 127
6 E3 192.1736 192.3910 0.2174 127
6 B3 192.3910 192.4997 0.1087 10
6 E4 192.4997 192.6084 0.1087 127
6 E4 192.7171 192.8258 0.1087 127
6 D4 192.8258 192.9345 0.1087 127
6 E4 192.9345 193.0432 0.1087 127
6 E3 193.0432 193.2606 0.2174 127
6 B3 193.2606 193.3693 0.1087 10
6 E4 193.3693 193.4780 0.1087 127
6 E4 193.5867 193.6954 0.1087 127
6 D4 193.6954 193.8041 0.1087 127
6 E4 193.8041 193.9128 0.1087 127
6 E3 193.9128 194.1302 0.2174 127
6 B3 194.1302 194.2389 0.1087 10
6 E4 194.2389 194.3476 0.1087 127
6 E4 194.4562 194.5649 0.1087 127
6 D4 194.5649 194.6736 0.1087 127
6 E4 194.6736 194.7823 0.1087 127
6 E3 194.7823 194.9997 0.2174 127
6 B3 194.9997 195.1084 0.1087 10
6 E4 195.1084 195.2171 0.1087 127
6 E4 195.3258 195.4345 0.1087 127
6 D4 195.4345 195.5432 0.1087 127
6 E4 195.5432 195.6519 0.1087 127
6 E3 195.6519 195.8693 0.2174 127
6 E4 195.8693 195.9780 0.1087 127
6 G4 195.9780 196.0867 0.1087 127
6 A4 196.0867 196.3041 0.2174 127
6 G4 196.3041 196.4128 0.1087 127
6 A4 196.4128 196.5215 0.1087 127
6 E3 196.5215 196.7389 0.2174 127
6 B3 196.7389 196.8476 0.1087 10
6 E4 196.8476 196.9562 0.1087 127
6 E4 197.0649 197.1736 0.1087 127
6 D4 197.1736 197.2823 0.1087 127
6 E4 197.2823 197.3910 0.1087 127
6 E3 197.3910 197.6084 0.2174 127
6 B3 197.6084 197.7171 0.1087 10
6 E4 197.7171 197.8258 0.1087 127
6 E4 197.9345 198.0432 0.1087 127
6 D4 198.0432 198.1519 0.1087 127
6 E4 198.1519 198.2606 0.1087 127
6 E3 198.2606 198.4780 0.2174 127
6 B3 198.4780 198.5867 0.1087 10
6 E4 198.5867 198.6954 0.1087 127
6 E4 198.8041 198.9128 0.1087 127
6 D4 198.9128 199.0215 0.1087 127
6 E4 199.0215 199.1302 0.1087 127
6 E3 199.1302 199.3475 0.2174 127
6 B3 199.3475 199.4562 0.1087 10
6 E4 199.4562 199.5649 0.1087 127
6 E4 199.6736 199.7823 0.1087 127
6 D4 199.7823 199.8910 0.1087 127
6 E4 199.8910 199.9997 0.1087 127
6 E3 199.9997 200.2171 0.2174 127
6 B3 200.2171 200.3258 0.1087 10
6 E4 200.3258 200.4345 0.1087 127
6 E4 200.5432 200.6519 0.1087 127
6 D4 200.6519 200.7606 0.1087 127
6 E4 200.7606 200.8693 0.1087 127
6 E3 200.8693 201.0867 0.2174 127
6 B3 201.0867 201.1954 0.1087 10
6 E4 201.1954 201.3041 0.1087 127
6 E4 201.4128 201.5215 0.1087 127
6 D4 201.5215 201.6302 0.1087 127
6 E4 201.6302 201.7388 0.1087 127
6 E3 201.7388 201.9562 0.2174 127
6 B3 201.9562 202.0649 0.1087 10
6 E4 202.0649 202.1736 0.1087 127
6 E4 202.2823 202.3910 0.1087 127
6 D4 202.3910 202.4997 0.1087 127
6 E4 202.4997 202.6084 0.1087 127
6 E3 202.6084 202.8258 0.2174 127
6 E4 202.8258 202.9345 0.1087 127
6 G4 202.9345 203.0432 0.1087 127
6 A4 203.0432 203.2606 0.2174 127
6 G4 203.2606 203.3693 0.1087 127
6 A4 203.3693 203.4780 0.1087 127
6 E3 203.4780 203.6954 0.2174 127
6 B3 203.6954 203.8041 0.1087 10
6 E4 203.8041 203.9128 0.1087 127
6 E4 204.0215 204.1301 0.1087 127
6 D4 204.1301 204.2388 0.1087 127
6 E4 204.2388 204.3475 0.1087 127
6 E3 204.3475 204.5649 0.2174 127
6 B3 204.5649 204.6736 0.1087 10
6 E4 204.6736 204.7823 0.1087 127
6 E4 204.8910 204.9997 0.1087 127
6 D4 204.9997 205.1084 0.1087 127
6 E4 205.1084 205.2171 0.1087 127
6 E3 205.2171 205.4345 0.2174 127
6 B3 205.4345 205.5432 0.1087 10
6 E4 205.5432 205.6519 0.1087 127
6 E4 205.7606 205.8693 0.1087 127
6 D4 205.8693 205.9780 0.1087 127
6 E4 205.9780 206.0867 0.1087 127
6 E3 206.0867 206.3041 0.2174 127
6 B3 206.3041 206.4128 0.1087 10
6 E4 206.4128 206.5215 0.1087 127
6 E4 206.6301 206.7388 0.1087 127
6 D4 206.7388 206.8475 0.1087 127
6 E4 206.8475 206.9562 0.1087 127
6 E3 206.9562 207.1736 0.2174 127
6 B3 207.1736 207.2823 0.1087 10
6 E4 207.2823 207.3910 0.1087 127
6 E4 207.4997 207.6084 0.1087 127
6 D4 207.6084 207.7171 0.1087 127
6 E4 207.7171 207.8258 0.1087 127
6 E3 207.8258 208.0432 0.2174 127
6 B3 208.0432 208.1519 0.1087 10
6 E4 208.1519 208.2606 0.1087 127
6 E4 208.3693 208.4780 0.1087 127
6 D4 208.4780 208.5867 0.1087 127
6 E4 208.5867 208.6954 0.1087 127
6 E3 208.6954 208.9128 0.2174 127
6 B3 208.9128 209.0214 0.1087 10
6 E4 209.0214 209.1301 0.1087 127
6 E4 209.2388 209.3475 0.1087 127
6 D4 209.3475 209.4562 0.1087 127
6 E4 209.4562 209.5649 0.1087 127
6 E3 209.5649 209.7823 0.2174 127
6 B3 209.7823 209.8910 0.1087 10
6 E4 209.8910 209.9997 0.1087 127
6 E4 210.1084 210.2171 0.1087 127
6 D4 210.2171 210.3258 0.1087 127
6 E4 210.3258 210.4345 0.1087 127
7 D#4 29.5652 29.7826 0.2174 127
7 F4 29.7826 30.0000 0.2174 127
7 F#4 30.0000 30.2173 0.2174 127
7 G#4 30.2173 30.4347 0.2174 127
7 A#4 30.4347 30.8695 0.4348 127
7 D5 30.8695 31.0869 0.2174 127
7 C#5 31.0869 31.3043 0.2174 127
7 A#4 31.3043 31.7391 0.4348 127
7 D#4 31.7391 32.1739 0.4348 127
7 A4 32.1739 32.3913 0.2174 127
7 G#4 32.3913 32.6087 0.2174 127
7 F#4 32.6087 32.8260 0.2174 127
7 F4 32.8260 33.0434 0.2174 127
7 D#4 33.0434 33.2608 0.2174 127
7 F4 33.2608 33.4782 0.2174 127
7 F#4 33.4782 33.6956 0.2174 127
7 G#4 33.6956 33.9130 0.2174 127
7 A#4 33.9130 34.3478 0.4348 127
7 G4 34.3478 34.5652 0.2174 127
7 F#4 34.5652 34.7826 0.2174 127
7 F4 34.7826 35.0000 0.2174 127
7 D#4 35.0000 35.2173 0.2174 127
7 F4 35.2173 35.4347 0.2174 127
7 F#4 35.4347 35.6521 0.2174 127
7 F#4 35.6521 35.8695 0.2174 127
7 D#4 35.8695 36.0869 0.2174 127
7 D4 36.0869 36.3043 0.2174 127
7 F4 36.3043 36.5217 0.2174 127
7 D#4 36.5217 36.7391 0.2174 127
7 F4 36.7391 36.9565 0.2174 127
7 F#4 36.9565 37.1739 0.2174 127
7 G#4 37.1739 37.3913 0.2174 127
7 A#4 37.3913 37.8260 0.4348 127
7 D5 37.8260 38.0434 0.2174 127
7 C#5 38.0434 38.2608 0.2174 127
7 A#4 38.2608 38.6956 0.4348 127
7 D#4 38.6956 39.1304 0.4348 127
7 A4 39.1304 39.3478 0.2174 127
7 G#4 39.3478 39.5652 0.2174 127
7 F#4 39.5652 39.7826 0.2174 127
7 F4 39.7826 39.9999 0.2174 127
7 D#4 39.9999 40.2173 0.2174 127
7 F4 40.2173 40.4347 0.2174 127
7 F#4 40.4347 40.6521 0.2174 127
7 G#4 40.6521 40.8695 0.2174 127
7 A#4 40.8695 41.3043 0.4348 127
7 G4 41.3043 41.5217 0.2174 127
7 F#4 41.5217 41.7391 0.2174 127
7 F4 41.7391 42.1739 0.4348 127
7 F#4 42.1739 42.6086 0.4348 127
7 G#4 42.6086 43.0434 0.4348 127
7 A#4 43.0434 43.4782 0.4348 127
7 D#4 43.4782 43.6956 0.2174 127
7 F4 43.6956 43.9130 0.2174 127
7 F#4 43.9130 44.1304 0.2174 127
7 G#4 44.1304 44.3478 0.2174 127
7 A#4 44.3478 44.7825 0.4348 127
7 D5 44.7825 44.9999 0.2174 127
7 C#5 44.9999 45.2173 0.2174 127
7 A#4 45.2173 45.6521 0.4348 127
7 D#4 45.6521 46.0869 0.4348 127
7 A4 46.0869 46.3043 0.2174 127
7 G#4 46.3043 46.5217 0.2174 127
7 F#4 46.5217 46.7391 0.2174 127
7 F4 46.7391 46.9565 0.2174 127
7 D#4 46.9565 47.1738 0.2174 127
7 F4 47.1738 47.3912 0.2174 127
7 F#4 47.3912 47.6086 0.2174 127
7 G#4 47.6086 47.8260 0.2174 127
7 A#4 47.8260 48.2608 0.4348 127
7 G4 48.2608 48.4782 0.2174 127
7 F#4 48.4782 48.6956 0.2174 127
7 F4 48.6956 48.9130 0.2174 127
7 D#4 48.9130 49.1304 0.2174 127
7 F4 49.1304 49.3478 0.2174 127
7 F#4 49.3478 49.5651 0.2174 127
7 F#4 49.5651 49.7825 0.2174 127
7 D#4 49.7825 49.9999 0.2174 127
7 D4 49.9999 50.2173 0.2174 127
7 F4 50.2173 50.4347 0.2174 127
7 D#4 50.4347 50.6521 0.2174 127
7 F4 50.6521 50.8695 0.2174 127
7 F#4 50.8695 51.0869 0.2174 127
7 G#4 51.0869 51.3043 0.2174 127
7 A#4 51.3043 51.7391 0.4348 127
7 D5 51.7391 51.9564 0.2174 127
7 C#5 51.9564 52.1738 0.2174 127
7 A#4 52.1738 52.6086 0.4348 127
7 D#4 52.6086 53.0434 0.4348 127
7 A4 53.0434 53.2608 0.2174 127
7 G#4 53.2608 53.4782 0.2174 127
7 F#4 53.4782 53.6956 0.2174 127
7 F4 53.6956 53.9130 0.2174 127
7 D#4 53.9130 54.1304 0.2174 127
7 F4 54.1304 54.3478 0.2174 127
7 F#4 54.3478 54.5651 0.2174 127
7 G#4 54.5651 54.7825 0.2174 127
7 A#4 54.7825 55.2173 0.4348 127
7 G4 55.2173 55.4347 0.2174 127
7 F#4 55.4347 55.6521 0.2174 127
7 F4 55.6521 56.0869 0.4348 127
7 F#4 56.0869 56.5217 0.4348 127
7 G#4 56.5217 56.9564 0.4348 127
7 A#4 56.9564 57.3912 0.4348 127
7 C#5 57.3912 57.6086 0.2174 127
7 D5 57.6086 57.8260 0.2174 127
7 A#4 57.8260 58.0434 0.2174 127
7 G#4 58.0434 58.2608 0.2174 127
7 A#4 58.2608 58.6956 0.4348 127
7 G#4 58.6956 58.9130 0.2174 127
7 A#4 58.9130 59.1304 0.2174 127
7 C#5 59.1304 59.3477 0.2174 127
7 D5 59.3477 59.5651 0.2174 127
7 A#4 59.5651 59.7825 0.2174 127
7 G#4 59.7825 59.9999 0.2174 127
7 A#4 59.9999 60.4347 0.4348 127
7 G#4 60.4347 60.6521 0.2174 127
7 A#4 60.6521 60.8695 0.2174 127
7 A4 60.8695 61.0869 0.2174 127
7 F#4 61.0869 61.3043 0.2174 127
7 F4 61.3043 61.5217 0.2174 127
7 C#4 61.5217 61.7390 0.2174 127
7 D#4 61.7390 62.1738 0.4348 127
7 C#4 62.1738 62.3912 0.2174 127
7 D#4 62.3912 62.6086 0.2174 127
7 F4 62.6086 62.8260 0.2174 127
7 F#4 62.8260 63.0434 0.2174 127
7 G#4 63.0434 63.2608 0.2174 127
7 A4 63.2608 63.4782 0.2174 127
7 D#4 63.4782 63.9130 0.4348 127
7 A#4 63.9130 64.1303 0.2174 127
7 C#5 64.1303 64.3477 0.2174 127
7 C#5 64.3477 64.5651 0.2174 127
7 D5 64.5651 64.7825 0.2174 127
7 A#4 64.7825 64.9999 0.2174 127
7 G#4 64.9999 65.2173 0.2174 127
7 A#4 65.2173 65.6521 0.4348 127
7 G#4 65.6521 65.8695 0.2174 127
7 A#4 65.8695 66.0869 0.2174 127
7 C#5 66.0869 66.3043 0.2174 127
7 D5 66.3043 66.5216 0.2174 127
7 A#4 66.5216 66.7390 0.2174 127
7 G#4 66.7390 66.9564 0.2174 127
7 A#4 66.9564 67.3912 0.4348 127
7 G#4 67.3912 67.6086 0.2174 127
7 A#4 67.6086 67.8260 0.2174 127
7 A4 67.8260 68.0434 0.2174 127
7 F#4 68.0434 68.2608 0.2174 127
7 F4 68.2608 68.4782 0.2174 127
7 C#4 68.4782 68.6956 0.2174 127
7 D#4 68.6956 69.1303 0.4348 127
7 C#4 69.1303 69.3477 0.2174 127
7 D#4 69.3477 69.5651 0.2174 127
7 F4 69.5651 69.7825 0.2174 127
7 F#4 69.7825 69.9999 0.2174 127
7 G#4 69.9999 70.2173 0.2174 127
7 A4 70.2173 70.4347 0.2174 127
7 D#4 70.4347 70.8695 0.4348 127
7 A#4 70.8695 71.0869 0.2174 127
7 C#5 71.0869 71.3042 0.2174 127
7 C#5 71.3042 71.5216 0.2174 127
7 D5 71.5216 71.7390 0.2174 127
7 A#4 71.7390 71.9564 0.2174 127
7 G#4 71.9564 72.1738 0.2174 127
7 A#4 72.1738 72.6086 0.4348 127
7 G#4 72.6086 72.8260 0.2174 127
7 A#4 72.8260 73.0434 0.2174 127
7 C#5 73.0434 73.2608 0.2174 127
7 D5 73.2608 73.4782 0.2174 127
7 A#4 73.4782 73.6955 0.2174 127
7 G#4 73.6955 73.9129 0.2174 127
7 A#4 73.9129 74.3477 0.4348 127
7 G#4 74.3477 74.5651 0.2174 127
7 A#4 74.5651 74.7825 0.2174 127
7 A4 74.7825 74.9999 0.2174 127
7 F#4 74.9999 75.2173 0.2174 127
7 F4 75.2173 75.4347 0.2174 127
7 C#4 75.4347 75.6521 0.2174 127
7 D#4 75.6521 76.0869 0.4348 127
7 C#4 76.0869 76.3042 0.2174 127
7 D#4 76.3042 76.5216 0.2174 127
7 F4 76.5216 76.7390 0.2174 127
7 F#4 76.7390 76.9564 0.2174 127
7 G#4 76.9564 77.1738 0.2174 127
7 A4 77.1738 77.3912 0.2174 127
7 D#4 77.3912 77.8260 0.4348 127
7 A#4 77.8260 78.0434 0.2174 127
7 C#5 78.0434 78.2608 0.2174 127
7 C#5 78.2608 78.4782 0.2174 127
7 D5 78.4782 78.6955 0.2174 127
7 A#4 78.6955 78.9129 0.2174 127
7 G#4 78.9129 79.1303 0.2174 127
7 A#4 79.1303 79.5651 0.4348 127
7 G#4 79.5651 79.7825 0.2174 127
7 A#4 79.7825 79.9999 0.2174 127
7 C#5 79.9999 80.2173 0.2174 127
7 D5 80.2173 80.4347 0.2174 127
7 A#4 80.4347 80.6521 0.2174 127
7 G#4 80.6521 80.8695 0.2174 127
7 A#4 80.8695 81.3042 0.4348 127
7 D#5 81.3042 81.5216 0.2174 127
7 F5 81.5216 81.7390 0.2174 127
7 F5 81.7390 81.9564 0.2174 127
7 F5 81.9564 82.1738 0.2174 127
7 D#5 82.1738 82.3912 0.2174 127
7 C#5 82.3912 82.6086 0.2174 127
7 A#4 82.6086 83.0434 0.4348 127
7 G#4 83.0434 83.2608 0.2174 127
7 A#4 83.2608 83.4781 0.2174 127
7 G#4 83.4781 83.6955 0.2174 127
7 F#4 83.6955 83.9129 0.2174 127
7 F4 83.9129 84.1303 0.2174 127
7 C#4 84.1303 84.3477 0.2174 127
7 D#4 84.3477 84.7825 0.4348 127
7 A#4 84.7825 84.9999 0.2174 127
7 C#5 84.9999 85.2173 0.2174 127
7 C#5 85.2173 85.4347 0.2174 127
7 D5 85.4347 85.6521 0.2174 127
7 A#4 85.6521 85.8694 0.2174 127
7 G#4 85.8694 86.0868 0.2174 127
7 A#4 86.0868 86.5216 0.4348 127
7 G#4 86.5216 86.7390 0.2174 127
7 A#4 86.7390 86.9564 0.2174 127
7 C#5 86.9564 87.1738 0.2174 127
7 D5 87.1738 87.3912 0.2174 127
7 A#4 87.3912 87.6086 0.2174 127
7 G#4 87.6086 87.8260 0.2174 127
7 A#4 87.8260 88.2607 0.4348 127
7 G#4 88.2607 88.4781 0.2174 127
7 A#4 88.4781 88.6955 0.2174 127
7 A4 88.6955 88.9129 0.2174 127
7 F#4 88.9129 89.1303 0.2174 127
7 F4 89.1303 89.3477 0.2174 127
7 C#4 89.3477 89.5651 0.2174 127
7 D#4 89.5651 89.9999 0.4348 127
7 C#4 89.9999 90.2173 0.2174 127
7 D#4 90.2173 90.4347 0.2174 127
7 F4 90.4347 90.6520 0.2174 127
7 F#4 90.6520 90.8694 0.2174 127
7 G#4 90.8694 91.0868 0.2174 127
7 A4 91.0868 91.3042 0.2174 127
7 D#4 91.3042 91.7390 0.4348 127
7 A#4 91.7390 91.9564 0.2174 127
7 C#5 91.9564 92.1738 0.2174 127
7 C#5 92.1738 92.3912 0.2174 127
7 D5 92.3912 92.6086 0.2174 127
7 A#4 92.6086 92.8260 0.2174 127
7 G#4 92.8260 93.0433 0.2174 127
7 A#4 93.0433 93.4781 0.4348 127
7 G#4 93.4781 93.6955 0.2174 127
7 A#4 93.6955 93.9129 0.2174 127
7 C#5 93.9129 94.1303 0.2174 127
7 D5 94.1303 94.3477 0.2174 127
7 A#4 94.3477 94.5651 0.2174 127
7 G#4 94.5651 94.7825 0.2174 127
7 A#4 94.7825 95.2173 0.4348 127
7 G#4 95.2173 95.4346 0.2174 127
7 A#4 95.4346 95.6520 0.2174 127
7 A4 95.6520 95.8694 0.2174 127
7 F#4 95.8694 96.0868 0.2174 127
7 F4 96.0868 96.3042 0.2174 127
7 C#4 96.3042 96.5216 0.2174 127
7 D#4 96.5216 96.9564 0.4348 127
7 C#4 96.9564 97.1738 0.2174 127
7 D#4 97.1738 97.3912 0.2174 127
7 F4 97.3912 97.6086 0.2174 127
7 F#4 97.6086 97.8260 0.2174 127
7 G#4 97.8260 98.0433 0.2174 127
7 A4 98.0433 98.2607 0.2174 127
7 D#4 98.2607 98.6955 0.4348 127
7 A#4 98.6955 98.9129 0.2174 127
7 C#5 98.9129 99.1303 0.2174 127
7 C#5 99.1303 99.3477 0.2174 127
7 D5 99.3477 99.5651 0.2174 127
7 A#4 99.5651 99.7825 0.2174 127
7 G#4 99.7825 99.9999 0.2174 127
7 A#4 99.9999 100.4346 0.4348 127
7 G#4 100.4346 100.6520 0.2174 127
7 A#4 100.6520 100.8694 0.2174 127
7 C#5 100.8694 101.0868 0.2174 127
7 D5 101.0868 101.3042 0.2174 127
7 A#4 101.3042 101.5216 0.2174 127
7 G#4 101.5216 101.7390 0.2174 127
7 A#4 101.7390 102.1738 0.4348 127
7 G#4 102.1738 102.3912 0.2174 127
7 A#4 102.3912 102.6086 0.2174 127
7 A4 102.6086 102.8259 0.2174 127
7 F#4 102.8259 103.0433 0.2174 127
7 F4 103.0433 103.2607 0.2174 127
7 C#4 103.2607 103.4781 0.2174 127
7 D#4 103.4781 103.9129 0.4348 127
7 C#4 103.9129 104.1303 0.2174 127
7 D#4 104.1303 104.3477 0.2174 127
7 F4 104.3477 104.5651 0.2174 127
7 F#4 104.5651 104.7825 0.2174 127
7 G#4 104.7825 104.9999 0.2174 127
7 A4 104.9999 105.2172 0.2174 127
7 D#4 105.2172 105.6520 0.4348 127
7 A#4 105.6520 105.8694 0.2174 127
7 C#5 105.8694 106.0868 0.2174 127
7 C#5 106.0868 106.3042 0.2174 127
7 D5 106.3042 106.5216 0.2174 127
7 A#4 106.5216 106.7390 0.2174 127
7 G#4 106.7390 106.9564 0.2174 127
7 A#4 106.9564 107.3912 0.4348 127
7 G#4 107.3912 107.6085 0.2174 127
7 A#4 107.6085 107.8259 0.2174 127
7 C#5 107.8259 108.0433 0.2174 127
7 D5 108.0433 108.2607 0.2174 127
7 A#4 108.2607 108.4781 0.2174 127
7 G#4 108.4781 108.6955 0.2174 127
7 A#4 108.6955 109.1303 0.4348 127
7 D#5 109.1303 109.3477 0.2174 127
7 F5 109.3477 109.5651 0.2174 127
7 F5 109.5651 109.7825 0.2174 127
7 F5 109.7825 109.9998 0.2174 127
7 D#5 109.9998 110.2172 0.2174 127
7 C#5 110.2172 110.4346 0.2174 127
7 A#4 110.4346 110.8694 0.4348 127
7 G#4 110.8694 111.0868 0.2174 127
7 A#4 111.0868 111.3042 0.2174 127
7 G#4 111.3042 111.5216 0.2174 127
7 F#4 111.5216 111.7390 0.2174 127
7 F4 111.7390 111.9564 0.2174 127
7 C#4 111.9564 112.1738 0.2174 127
7 D#4 112.1738 113.0433 0.8696 127
7 D#4 126.9563 127.1737 0.2174 127
7 F4 127.1737 127.3911 0.2174 127
7 F#4 127.3911 127.6085 0.2174 127
7 G#4 127.6085 127.8259 0.2174 127
7 A#4 127.8259 128.2607 0.4348 127
7 D5 128.2607 128.4781 0.2174 127
7 C#5 128.4781 128.6955 0.2174 127
7 A#4 128.6955 129.1303 0.4348 127
7 D#4 129.1303 129.5650 0.4348 127
7 A4 129.5650 129.7824 0.2174 127
7 G#4 129.7824 129.9998 0.2174 127
7 F#4 129.9998 130.2172 0.2174 127
7 F4 130.2172 130.4346 0.2174 127
7 D#4 130.4346 130.6520 0.2174 127
7 F4 130.6520 130.8694 0.2174 127
7 F#4 130.8694 131.0868 0.2174 127
7 G#4 131.0868 131.3042 0.2174 127
7 A#4 131.3042 131.7389 0.4348 127
7 G4 131.7389 131.9563 0.2174 127
7 F#4 131.9563 132.1737 0.2174 127
7 F4 132.1737 132.3911 0.2174 127
7 D#4 132.3911 132.6085 0.2174 127
7 F4 132.6085 132.8259 0.2174 127
7 F#4 132.8259 133.0433 0.2174 127
7 F#4 133.0433 133.2607 0.2174 127
7 D#4 133.2607 133.4781 0.2174 127
7 D4 133.4781 133.6955 0.2174 127
7 F4 133.6955 133.9129 0.2174 127
7 D#4 133.9129 134.1302 0.2174 127
7 F4 134.1302 134.3476 0.2174 127
7 F#4 134.3476 134.5650 0.2174 127
7 G#4 134.5650 134.7824 0.2174 127
7 A#4 134.7824 135.2172 0.4348 127
7 D5 135.2172 135.4346 0.2174 127
7 C#5 135.4346 135.6520 0.2174 127
7 A#4 135.6520 136.0868 0.4348 127
7 D#4 136.0868 136.5215 0.4348 127
7 A4 136.5215 136.7389 0.2174 127
7 G#4 136.7389 136.9563 0.2174 127
7 F#4 136.9563 137.1737 0.2174 127
7 F4 137.1737 137.3911 0.2174 127
7 D#4 137.3911 137.6085 0.2174 127
7 F4 137.6085 137.8259 0.2174 127
7 F#4 137.8259 138.0433 0.2174 127
7 G#4 138.0433 138.2607 0.2174 127
7 A#4 138.2607 138.6955 0.4348 127
7 G4 138.6955 138.9128 0.2174 127
7 F#4 138.9128 139.1302 0.2174 127
7 F4 139.1302 139.5650 0.4348 127
7 F#4 139.5650 139.9998 0.4348 127
7 G#4 139.9998 140.4346 0.4348 127
7 A#4 140.4346 140.8694 0.4348 127
7 D#4 140.8694 141.0868 0.2174 127
7 F4 141.0868 141.3042 0.2174 127
7 F#4 141.3042 141.5215 0.2174 127
7 G#4 141.5215 141.7389 0.2174 127
7 A#4 141.7389 142.1737 0.4348 127
7 D5 142.1737 142.3911 0.2174 127
7 C#5 142.3911 142.6085 0.2174 127
7 A#4 142.6085 143.0433 0.4348 127
7 D#4 143.0433 143.4781 0.4348 127
7 A4 143.4781 143.6955 0.2174 127
7 G#4 143.6955 143.9128 0.2174 127
7 F#4 143.9128 144.1302 0.2174 127
7 F4 144.1302 144.3476 0.2174 127
7 D#4 144.3476 144.5650 0.2174 127
7 F4 144.5650 144.7824 0.2174 127
7 F#4 144.7824 144.9998 0.2174 127
7 G#4 144.9998 145.2172 0.2174 127
7 A#4 145.2172 145.6520 0.4348 127
7 G4 145.6520 145.8694 0.2174 127
7 F#4 145.8694 146.0868 0.2174 127
7 F4 146.0868 146.3041 0.2174 127
7 D#4 146.3041 146.5215 0.2174 127
7 F4 146.5215 146.7389 0.2174 127
7 F#4 146.7389 146.9563 0.2174 127
7 F#4 146.9563 147.1737 0.2174 127
7 D#4 147.1737 147.3911 0.2174 127
7 D4 147.3911 147.6085 0.2174 127
7 F4 147.6085 147.8259 0.2174 127
7 D#4 147.8259 148.0433 0.2174 127
7 F4 148.0433 148.2607 0.2174 127
7 F#4 148.2607 148.4781 0.2174 127
7 G#4 148.4781 148.6954 0.2174 127
7 A#4 148.6954 149.1302 0.4348 127
7 D5 149.1302 149.3476 0.2174 127
7 C#5 149.3476 149.5650 0.2174 127
7 A#4 149.5650 149.9998 0.4348 127
7 D#4 149.9998 150.4346 0.4348 127
7 A4 150.4346 150.6520 0.2174 127
7 G#4 150.6520 150.8694 0.2174 127
7 F#4 150.8694 151.0867 0.2174 127
7 F4 151.0867 151.3041 0.2174 127
7 D#4 151.3041 151.5215 0.2174 127
7 F4 151.5215 151.7389 0.2174 127
7 F#4 151.7389 151.9563 0.2174 127
7 G#4 151.9563 152.1737 0.2174 127
7 A#4 152.1737 152.6085 0.4348 127
7 G4 152.6085 152.8259 0.2174 127
7 F#4 152.8259 153.0433 0.2174 127
7 F4 153.0433 153.4780 0.4348 127
7 F#4 153.4780 153.9128 0.4348 127
7 G#4 153.9128 154.3476 0.4348 127
7 A#4 154.3476 154.7824 0.4348 127
7 C#5 154.7824 154.9998 0.2174 127
7 D5 154.9998 155.2172 0.2174 127
7 A#4 155.2172 155.4346 0.2174 127
7 G#4 155.4346 155.6520 0.2174 127
7 A#4 155.6520 156.0867 0.4348 127
7 G#4 156.0867 156.3041 0.2174 127
7 A#4 156.3041 156.5215 0.2174 127
7 C#5 156.5215 156.7389 0.2174 127
7 D5 156.7389 156.9563 0.2174 127
7 A#4 156.9563 157.1737 0.2174 127
7 G#4 157.1737 157.3911 0.2174 127
7 A#4 157.3911 157.8259 0.4348 127
7 G#4 157.8259 158.0433 0.2174 127
7 A#4 158.0433 158.2606 0.2174 127
7 A4 158.2606 158.4780 0.2174 127
7 F#4 158.4780 158.6954 0.2174 127
7 F4 158.6954 158.9128 0.2174 127
7 C#4 158.9128 159.1302 0.2174 127
7 D#4 159.1302 159.5650 0.4348 127
7 C#4 159.5650 159.7824 0.2174 127
7 D#4 159.7824 159.9998 0.2174 127
7 F4 159.9998 160.2172 0.2174 127
7 F#4 160.2172 160.4346 0.2174 127
7 G#4 160.4346 160.6519 0.2174 127
7 A4 160.6519 160.8693 0.2174 127
7 D#4 160.8693 161.3041 0.4348 127
7 A#4 161.3041 161.5215 0.2174 127
7 C#5 161.5215 161.7389 0.2174 127
7 C#5 161.7389 161.9563 0.2174 127
7 D5 161.9563 162.1737 0.2174 127
7 A#4 162.1737 162.3911 0.2174 127
7 G#4 162.3911 162.6085 0.2174 127
7 A#4 162.6085 163.0433 0.4348 127
7 G#4 163.0433 163.2606 0.2174 127
7 A#4 163.2606 163.4780 0.2174 127
7 C#5 163.4780 163.6954 0.2174 127
7 D5 163.6954 163.9128 0.2174 127
7 A#4 163.9128 164.1302 0.2174 127
7 G#4 164.1302 164.3476 0.2174 127
7 A#4 164.3476 164.7824 0.4348 127
7 G#4 164.7824 164.9998 0.2174 127
7 A#4 164.9998 165.2172 0.2174 127
7 A4 165.2172 165.4346 0.2174 127
7 F#4 165.4346 165.6519 0.2174 127
7 F4 165.6519 165.8693 0.2174 127
7 C#4 165.8693 166.0867 0.2174 127
7 D#4 166.0867 166.5215 0.4348 127
7 C#4 166.5215 166.7389 0.2174 127
7 D#4 166.7389 166.9563 0.2174 127
7 F4 166.9563 167.1737 0.2174 127
7 F#4 167.1737 167.3911 0.2174 127
7 G#4 167.3911 167.6085 0.2174 127
7 A4 167.6085 167.8259 0.2174 127
7 D#4 167.8259 168.2606 0.4348 127
7 A#4 168.2606 168.4780 0.2174 127
7 C#5 168.4780 168.6954 0.2174 127
7 C#5 168.6954 168.9128 0.2174 127
7 D5 168.9128 169.1302 0.2174 127
7 A#4 169.1302 169.3476 0.2174 127
7 G#4 169.3476 169.5650 0.2174 127
7 A#4 169.5650 169.9998 0.4348 127
7 G#4 169.9998 170.2172 0.2174 127
7 A#4 170.2172 170.4345 0.2174 127
7 C#5 170.4345 170.6519 0.2174 127
7 D5 170.6519 170.8693 0.2174 127
7 A#4 170.8693 171.0867 0.2174 127
7 G#4 171.0867 171.3041 0.2174 127
7 A#4 171.3041 171.7389 0.4348 127
7 G#4 171.7389 171.9563 0.2174 127
7 A#4 171.9563 172.1737 0.2174 127
7 A4 172.1737 172.3911 0.2174 127
7 F#4 172.3911 172.6085 0.2174 127
7 F4 172.6085 172.8258 0.2174 127
7 C#4 172.8258 173.0432 0.2174 127
7 D#4 173.0432 173.4780 0.4348 127
7 C#4 173.4780 173.6954 0.2174 127
7 D#4 173.6954 173.9128 0.2174 127
7 F4 173.9128 174.1302 0.2174 127
7 F#4 174.1302 174.3476 0.2174 127
7 G#4 174.3476 174.5650 0.2174 127
7 A4 174.5650 174.7824 0.2174 127
7 D#4 174.7824 175.2171 0.4348 127
7 A#4 175.2171 175.4345 0.2174 127
7 C#5 175.4345 175.6519 0.2174 127
7 C#5 175.6519 175.8693 0.2174 127
7 D5 175.8693 176.0867 0.2174 127
7 A#4 176.0867 176.3041 0.2174 127
7 G#4 176.3041 176.5215 0.2174 127
7 A#4 176.5215 176.9563 0.4348 127
7 G#4 176.9563 177.1737 0.2174 127
7 A#4 177.1737 177.3911 0.2174 127
7 C#5 177.3911 177.6084 0.2174 127
7 D5 177.6084 177.8258 0.2174 127
7 A#4 177.8258 178.0432 0.2174 127
7 G#4 178.0432 178.2606 0.2174 127
7 A#4 178.2606 178.6954 0.4348 127
7 D#5 178.6954 178.9128 0.2174 127
7 F5 178.9128 179.1302 0.2174 127
7 F5 179.1302 179.3476 0.2174 127
7 F5 179.3476 179.5650 0.2174 127
7 D#5 179.5650 179.7824 0.2174 127
7 C#5 179.7824 179.9997 0.2174 127
7 A#4 179.9997 180.4345 0.4348 127
7 G#4 180.4345 180.6519 0.2174 127
7 A#4 180.6519 180.8693 0.2174 127
7 G#4 180.8693 181.0867 0.2174 127
7 F#4 181.0867 181.3041 0.2174 127
7 F4 181.3041 181.5215 0.2174 127
7 C#4 181.5215 181.7389 0.2174 127
7 D#4 181.7389 182.1737 0.4348 127
7 B4 182.1737 182.3910 0.2174 127
7 D5 182.3910 182.6084 0.2174 127
7 D5 182.6084 182.8258 0.2174 127
7 D#5 182.8258 183.0432 0.2174 127
7 B4 183.0432 183.2606 0.2174 127
7 A4 183.2606 183.4780 0.2174 127
7 B4 183.4780 183.9128 0.4348 127
7 A4 183.9128 184.1302 0.2174 127
7 B4 184.1302 184.3476 0.2174 127
7 D5 184.3476 184.5650 0.2174 127
7 D#5 184.5650 184.7824 0.2174 127
7 B4 184.7824 184.9997 0.2174 127
7 A4 184.9997 185.2171 0.2174 127
7 B4 185.2171 185.6519 0.4348 127
7 A4 185.6519 185.8693 0.2174 127
7 B4 185.8693 186.0867 0.2174 127
7 A#4 186.0867 186.3041 0.2174 127
7 G4 186.3041 186.5215 0.2174 127
7 F#4 186.5215 186.7389 0.2174 127
7 D4 186.7389 186.9563 0.2174 127
7 E4 186.9563 187.3910 0.4348 127
7 D4 187.3910 187.6084 0.2174 127
7 E4 187.6084 187.8258 0.2174 127
7 F#4 187.8258 188.0432 0.2174 127
7 G4 188.0432 188.2606 0.2174 127
7 A4 188.2606 188.4780 0.2174 127
7 A#4 188.4780 188.6954 0.2174 127
7 E4 188.6954 189.1302 0.4348 127
7 B4 189.1302 189.3476 0.2174 127
7 D5 189.3476 189.5650 0.2174 127
7 D5 189.5650 189.7823 0.2174 127
7 D#5 189.7823 189.9997 0.2174 127
7 B4 189.9997 190.2171 0.2174 127
7 A4 190.2171 190.4345 0.2174 127
7 B4 190.4345 190.8693 0.4348 127
7 A4 190.8693 191.0867 0.2174 127
7 B4 191.0867 191.3041 0.2174 127
7 D5 191.3041 191.5215 0.2174 127
7 D#5 191.5215 191.7389 0.2174 127
7 B4 191.7389 191.9563 0.2174 127
7 A4 191.9563 192.1736 0.2174 127
7 B4 192.1736 192.6084 0.4348 127
7 A4 192.6084 192.8258 0.2174 127
7 B4 192.8258 193.0432 0.2174 127
7 A#4 193.0432 193.2606 0.2174 127
7 G4 193.2606 193.4780 0.2174 127
7 F#4 193.4780 193.6954 0.2174 127
7 D4 193.6954 193.9128 0.2174 127
7 E4 193.9128 194.3476 0.4348 127
7 D4 194.3476 194.5649 0.2174 127
7 E4 194.5649 194.7823 0.2174 127
7 F#4 194.7823 194.9997 0.2174 127
7 G4 194.9997 195.2171 0.2174 127
7 A4 195.2171 195.4345 0.2174 127
7 A#4 195.4345 195.6519 0.2174 127
7 E4 195.6519 196.0867 0.4348 127
7 B4 196.0867 196.3041 0.2174 127
7 D5 196.3041 196.5215 0.2174 127
7 D5 196.5215 196.7389 0.2174 127
7 D#5 196.7389 196.9562 0.2174 127
7 B4 196.9562 197.1736 0.2174 127
7 A4 197.1736 197.3910 0.2174 127
7 B4 197.3910 197.8258 0.4348 127
7 A4 197.8258 198.0432 0.2174 127
7 B4 198.0432 198.2606 0.2174 127
7 D5 198.2606 198.4780 0.2174 127
7 D#5 198.4780 198.6954 0.2174 127
7 B4 198.6954 198.9128 0.2174 127
7 A4 198.9128 199.1302 0.2174 127
7 B4 199.1302 199.5649 0.4348 127
7 A4 199.5649 199.7823 0.2174 127
7 B4 199.7823 199.9997 0.2174 127
7 A#4 199.9997 200.2171 0.2174 127
7 G4 200.2171 200.4345 0.2174 127
7 F#4 200.4345 200.6519 0.2174 127
7 D4 200.6519 200.8693 0.2174 127
7 E4 200.8693 201.3041 0.4348 127
7 D4 201.3041 201.5215 0.2174 127
7 E4 201.5215 201.7388 0.2174 127
7 F#4 201.7388 201.9562 0.2174 127
7 G4 201.9562 202.1736 0.2174 127
7 A4 202.1736 202.3910 0.2174 127
7 A#4 202.3910 202.6084 0.2174 127
7 E4 202.6084 203.0432 0.4348 127
7 B4 203.0432 203.2606 0.2174 127
7 D5 203.2606 203.4780 0.2174 127
7 D5 203.4780 203.6954 0.2174 127
7 D#5 203.6954 203.9128 0.2174 127
7 B4 203.9128 204.1301 0.2174 127
7 A4 204.1301 204.3475 0.2174 127
7 B4 204.3475 204.7823 0.4348 127
7 A4 204.7823 204.9997 0.2174 127
7 B4 204.9997 205.2171 0.2174 127
7 D5 205.2171 205.4345 0.2174 127
7 D#5 205.4345 205.6519 0.2174 127
7 B4 205.6519 205.8693 0.2174 127
7 A4 205.8693 206.0867 0.2174 127
7 B4 206.0867 206.5215 0.4348 127
7 E5 206.5215 206.7388 0.2174 127
7 F#5 206.7388 206.9562 0.2174 127
7 F#5 206.9562 207.1736 0.2174 127
7 F#5 207.1736 207.3910 0.2174 127
7 E5 207.3910 207.6084 0.2174 127
7 D5 207.6084 207.8258 0.2174 127
7 B4 207.8258 208.2606 0.4348 127
7 A4 208.2606 208.4780 0.2174 127
7 B4 208.4780 208.6954 0.2174 127
7 A4 208.6954 208.9128 0.2174 127
7 G4 208.9128 209.1301 0.2174 127
7 F#4 209.1301 209.3475 0.2174 127
7 D4 209.3475 209.5649 0.2174 127
7 E4 209.5649 210.4345 0.8696 127
8 A#3 43.4782 43.6956 0.2174 127
8 C#4 43.6956 43.9130 0.2174 127
8 D#4 43.9130 44.1304 0.2174 127
8 F4 44.1304 44.3478 0.2174 127
8 F#4 44.3478 44.7825 0.4348 127
8 A4 44.7825 44.9999 0.2174 127
8 G#4 44.9999 45.2173 0.2174 127
8 F#4 45.2173 45.6521 0.4348 127
8 A#3 45.6521 46.0869 0.4348 127
8 F4 46.0869 46.3043 0.2174 127
8 F4 46.3043 46.5217 0.2174 127
8 D#4 46.5217 46.7391 0.2174 127
8 C#4 46.7391 46.9565 0.2174 127
8 A#3 46.9565 47.1738 0.2174 127
8 C#4 47.1738 47.3912 0.2174 127
8 D#4 47.3912 47.6086 0.2174 127
8 F4 47.6086 47.8260 0.2174 127
8 F#4 47.8260 48.2608 0.4348 127
8 E4 48.2608 48.4782 0.2174 127
8 D#4 48.4782 48.6956 0.2174 127
8 C#4 48.6956 48.9130 0.2174 127
8 A#3 48.9130 49.1304 0.2174 127
8 C#4 49.1304 49.3478 0.2174 127
8 D#4 49.3478 49.5651 0.2174 127
8 D4 49.5651 49.7825 0.2174 127
8 A#3 49.7825 49.9999 0.2174 127
8 A3 49.9999 50.2173 0.2174 127
8 C#4 50.2173 50.4347 0.2174 127
8 A#3 50.4347 50.6521 0.2174 127
8 C#4 50.6521 50.8695 0.2174 127
8 D#4 50.8695 51.0869 0.2174 127
8 F4 51.0869 51.3043 0.2174 127
8 F#4 51.3043 51.7391 0.4348 127
8 A4 51.7391 51.9564 0.2174 127
8 G#4 51.9564 52.1738 0.2174 127
8 F#4 52.1738 52.6086 0.4348 127
8 A#3 52.6086 53.0434 0.4348 127
8 F4 53.0434 53.2608 0.2174 127
8 F4 53.2608 53.4782 0.2174 127
8 D#4 53.4782 53.6956 0.2174 127
8 C#4 53.6956 53.9130 0.2174 127
8 A#3 53.9130 54.1304 0.2174 127
8 C#4 54.1304 54.3478 0.2174 127
8 D#4 54.3478 54.5651 0.2174 127
8 F4 54.5651 54.7825 0.2174 127
8 F#4 54.7825 55.2173 0.4348 127
8 E4 55.2173 55.4347 0.2174 127
8 D#4 55.4347 55.6521 0.2174 127
8 C#4 55.6521 56.0869 0.4348 127
8 D#4 56.0869 56.5217 0.4348 127
8 F4 56.5217 56.9564 0.4348 127
8 F#4 56.9564 57.3912 0.4348 127
8 F4 57.3912 57.6086 0.2174 127
8 F4 57.6086 57.8260 0.2174 127
8 F4 57.8260 58.0434 0.2174 127
8 C#4 58.0434 58.2608 0.2174 127
8 D#4 58.2608 58.6956 0.4348 127
8 C#4 58.6956 58.9130 0.2174 127
8 D#4 58.9130 59.1304 0.2174 127
8 F4 59.1304 59.3477 0.2174 127
8 F4 59.3477 59.5651 0.2174 127
8 F4 59.5651 59.7825 0.2174 127
8 C#4 59.7825 59.9999 0.2174 127
8 D#4 59.9999 60.4347 0.4348 127
8 C#4 60.4347 60.6521 0.2174 127
8 D#4 60.6521 60.8695 0.2174 127
8 D4 60.8695 61.0869 0.2174 127
8 A#3 61.0869 61.3043 0.2174 127
8 G#3 61.3043 61.5217 0.2174 127
8 F#3 61.5217 61.7390 0.2174 127
8 D#3 61.7390 62.1738 0.4348 127
8 G#3 62.1738 62.3912 0.2174 127
8 A#3 62.3912 62.6086 0.2174 127
8 C#4 62.6086 62.8260 0.2174 127
8 D#4 62.8260 63.0434 0.2174 127
8 F4 63.0434 63.2608 0.2174 127
8 F4 63.2608 63.4782 0.2174 127
8 A#3 63.4782 63.9130 0.4348 127
8 D#4 63.9130 64.1303 0.2174 127
8 F4 64.1303 64.3477 0.2174 127
8 F4 64.3477 64.5651 0.2174 127
8 F4 64.5651 64.7825 0.2174 127
8 F4 64.7825 64.9999 0.2174 127
8 C#4 64.9999 65.2173 0.2174 127
8 D#4 65.2173 65.6521 0.4348 127
8 C#4 65.6521 65.8695 0.2174 127
8 D#4 65.8695 66.0869 0.2174 127
8 F4 66.0869 66.3043 0.2174 127
8 F4 66.3043 66.5216 0.2174 127
8 F4 66.5216 66.7390 0.2174 127
8 C#4 66.7390 66.9564 0.2174 127
8 D#4 66.9564 67.3912 0.4348 127
8 C#4 67.3912 67.6086 0.2174 127
8 D#4 67.6086 67.8260 0.2174 127
8 D4 67.8260 68.0434 0.2174 127
8 A#3 68.0434 68.2608 0.2174 127
8 G#3 68.2608 68.4782 0.2174 127
8 F#3 68.4782 68.6956 0.2174 127
8 D#3 68.6956 69.1303 0.4348 127
8 G#3 69.1303 69.3477 0.2174 127
8 A#3 69.3477 69.5651 0.2174 127
8 C#4 69.5651 69.7825 0.2174 127
8 D#4 69.7825 69.9999 0.2174 127
8 F4 69.9999 70.2173 0.2174 127
8 F4 70.2173 70.4347 0.2174 127
8 A#3 70.4347 70.8695 0.4348 127
8 D#4 70.8695 71.0869 0.2174 127
8 F4 71.0869 71.3042 0.2174 127
8 F4 71.3042 71.5216 0.2174 127
8 F4 71.5216 71.7390 0.2174 127
8 F4 71.7390 71.9564 0.2174 127
8 C#4 71.9564 72.1738 0.2174 127
8 D#4 72.1738 72.6086 0.4348 127
8 C#4 72.6086 72.8260 0.2174 127
8 D#4 72.8260 73.0434 0.2174 127
8 F4 73.0434 73.2608 0.2174 127
8 F4 73.2608 73.4782 0.2174 127
8 F4 73.4782 73.6955 0.2174 127
8 C#4 73.6955 73.9129 0.2174 127
8 D#4 73.9129 74.3477 0.4348 127
8 C#4 74.3477 74.5651 0.2174 127
8 D#4 74.5651 74.7825 0.2174 127
8 D4 74.7825 74.9999 0.2174 127
8 A#3 74.9999 75.2173 0.2174 127
8 G#3 75.2173 75.4347 0.2174 127
8 F#3 75.4347 75.6521 0.2174 127
8 D#3 75.6521 76.0869 0.4348 127
8 G#3 76.0869 76.3042 0.2174 127
8 A#3 76.3042 76.5216 0.2174 127
8 C#4 76.5216 76.7390 0.2174 127
8 D#4 76.7390 76.9564 0.2174 127
8 F4 76.9564 77.1738 0.2174 127
8 F4 77.1738 77.3912 0.2174 127
8 A#3 77.3912 77.8260 0.4348 127
8 D#4 77.8260 78.0434 0.2174 127
8 F4 78.0434 78.2608 0.2174 127
8 F4 78.2608 78.4782 0.2174 127
8 F4 78.4782 78.6955 0.2174 127
8 F4 78.6955 78.9129 0.2174 127
8 C#4 78.9129 79.1303 0.2174 127
8 D#4 79.1303 79.5651 0.4348 127
8 C#4 79.5651 79.7825 0.2174 127
8 D#4 79.7825 79.9999 0.2174 127
8 F4 79.9999 80.2173 0.2174 127
8 F4 80.2173 80.4347 0.2174 127
8 F4 80.4347 80.6521 0.2174 127
8 C#4 80.6521 80.8695 0.2174 127
8 D#4 80.8695 81.3042 0.4348 127
8 F#4 81.3042 81.5216 0.2174 127
8 G#4 81.5216 81.7390 0.2174 127
8 A4 81.7390 81.9564 0.2174 127
8 G#4 81.9564 82.1738 0.2174 127
8 F#4 82.1738 82.3912 0.2174 127
8 F4 82.3912 82.6086 0.2174 127
8 D#4 82.6086 83.0434 0.4348 127
8 C#4 83.0434 83.2608 0.2174 127
8 D#4 83.2608 83.4781 0.2174 127
8 C#4 83.4781 83.6955 0.2174 127
8 A#3 83.6955 83.9129 0.2174 127
8 G#3 83.9129 84.1303 0.2174 127
8 F#3 84.1303 84.3477 0.2174 127
8 D#3 84.3477 84.7825 0.4348 127
8 D#4 84.7825 84.9999 0.2174 127
8 F4 84.9999 85.2173 0.2174 127
8 F4 85.2173 85.4347 0.2174 127
8 F4 85.4347 85.6521 0.2174 127
8 F4 85.6521 85.8694 0.2174 127
8 C#4 85.8694 86.0868 0.2174 127
8 D#4 86.0868 86.5216 0.4348 127
8 C#4 86.5216 86.7390 0.2174 127
8 D#4 86.7390 86.9564 0.2174 127
8 F4 86.9564 87.1738 0.2174 127
8 F4 87.1738 87.3912 0.2174 127
8 F4 87.3912 87.6086 0.2174 127
8 C#4 87.6086 87.8260 0.2174 127
8 D#4 87.8260 88.2607 0.4348 127
8 C#4 88.2607 88.4781 0.2174 127
8 D#4 88.4781 88.6955 0.2174 127
8 D4 88.6955 88.9129 0.2174 127
8 A#3 88.9129 89.1303 0.2174 127
8 G#3 89.1303 89.3477 0.2174 127
8 F#3 89.3477 89.5651 0.2174 127
8 D#3 89.5651 89.9999 0.4348 127
8 G#3 89.9999 90.2173 0.2174 127
8 A#3 90.2173 90.4347 0.2174 127
8 C#4 90.4347 90.6520 0.2174 127
8 D#4 90.6520 90.8694 0.2174 127
8 F4 90.8694 91.0868 0.2174 127
8 F4 91.0868 91.3042 0.2174 127
8 A#3 91.3042 91.7390 0.4348 127
8 D#4 91.7390 91.9564 0.2174 127
8 F4 91.9564 92.1738 0.2174 127
8 F4 92.1738 92.3912 0.2174 127
8 F4 92.3912 92.6086 0.2174 127
8 F4 92.6086 92.8260 0.2174 127
8 C#4 92.8260 93.0433 0.2174 127
8 D#4 93.0433 93.4781 0.4348 127
8 C#4 93.4781 93.6955 0.2174 127
8 D#4 93.6955 93.9129 0.2174 127
8 F4 93.9129 94.1303 0.2174 127
8 F4 94.1303 94.3477 0.2174 127
8 F4 94.3477 94.5651 0.2174 127
8 C#4 94.5651 94.7825 0.2174 127
8 D#4 94.7825 95.2173 0.4348 127
8 C#4 95.2173 95.4346 0.2174 127
8 D#4 95.4346 95.6520 0.2174 127
8 D4 95.6520 95.8694 0.2174 127
8 A#3 95.8694 96.0868 0.2174 127
8 G#3 96.0868 96.3042 0.2174 127
8 F#3 96.3042 96.5216 0.2174 127
8 D#3 96.5216 96.9564 0.4348 127
8 G#3 96.9564 97.1738 0.2174 127
8 A#3 97.1738 97.3912 0.2174 127
8 C#4 97.3912 97.6086 0.2174 127
8 D#4 97.6086 97.8260 0.2174 127
8 F4 97.8260 98.0433 0.2174 127
8 F4 98.0433 98.2607 0.2174 127
8 A#3 98.2607 98.6955 0.4348 127
8 D#4 98.6955 98.9129 0.2174 127
8 F4 98.9129 99.1303 0.2174 127
8 F4 99.1303 99.3477 0.2174 127
8 F4 99.3477 99.5651 0.2174 127
8 F4 99.5651 99.7825 0.2174 127
8 C#4 99.7825 99.9999 0.2174 127
8 D#4 99.9999 100.4346 0.4348 127
8 C#4 100.4346 100.6520 0.2174 127
8 D#4 100.6520 100.8694 0.2174 127
8 F4 100.8694 101.0868 0.2174 127
8 F4 101.0868 101.3042 0.2174 127
8 F4 101.3042 101.5216 0.2174 127
8 C#4 101.5216 101.7390 0.2174 127
8 D#4 101.7390 102.1738 0.4348 127
8 C#4 102.1738 102.3912 0.2174 127
8 D#4 102.3912 102.6086 0.2174 127
8 D4 102.6086 102.8259 0.2174 127
8 A#3 102.8259 103.0433 0.2174 127
8 G#3 103.0433 103.2607 0.2174 127
8 F#3 103.2607 103.4781 0.2174 127
8 D#3 103.4781 103.9129 0.4348 127
8 G#3 103.9129 104.1303 0.2174 127
8 A#3 104.1303 104.3477 0.2174 127
8 C#4 104.3477 104.5651 0.2174 127
8 D#4 104.5651 104.7825 0.2174 127
8 F4 104.7825 104.9999 0.2174 127
8 F4 104.9999 105.2172 0.2174 127
8 A#3 105.2172 105.6520 0.4348 127
8 D#4 105.6520 105.8694 0.2174 127
8 F4 105.8694 106.0868 0.2174 127
8 F4 106.0868 106.3042 0.2174 127
8 F4 106.3042 106.5216 0.2174 127
8 F4 106.5216 106.7390 0.2174 127
8 C#4 106.7390 106.9564 0.2174 127
8 D#4 106.9564 107.3912 0.4348 127
8 C#4 107.3912 107.6085 0.2174 127
8 D#4 107.6085 107.8259 0.2174 127
8 F4 107.8259 108.0433 0.2174 127
8 F4 108.0433 108.2607 0.2174 127
8 F4 108.2607 108.4781 0.2174 127
8 C#4 108.4781 108.6955 0.2174 127
8 D#4 108.6955 109.1303 0.4348 127
8 F#4 109.1303 109.3477 0.2174 127
8 G#4 109.3477 109.5651 0.2174 127
8 A4 109.5651 109.7825 0.2174 127
8 G#4 109.7825 109.9998 0.2174 127
8 F#4 109.9998 110.2172 0.2174 127
8 F4 110.2172 110.4346 0.2174 127
8 D#4 110.4346 110.8694 0.4348 127
8 C#4 110.8694 111.0868 0.2174 127
8 D#4 111.0868 111.3042 0.2174 127
8 C#4 111.3042 111.5216 0.2174 127
8 A#3 111.5216 111.7390 0.2174 127
8 G#3 111.7390 111.9564 0.2174 127
8 F#3 111.9564 112.1738 0.2174 127
8 D#3 112.1738 113.0433 0.8696 127
8 A#3 126.9563 127.1737 0.2174 127
8 C#4 127.1737 127.3911 0.2174 127
8 D#4 127.3911 127.6085 0.2174 127
8 F4 127.6085 127.8259 0.2174 127
8 F#4 127.8259 128.2607 0.4348 127
8 A4 128.2607 128.4781 0.2174 127
8 G#4 128.4781 128.6955 0.2174 127
8 F#4 128.6955 129.1303 0.4348 127
8 A#3 129.1303 129.5650 0.4348 127
8 F4 129.5650 129.7824 0.2174 127
8 F4 129.7824 129.9998 0.2174 127
8 D#4 129.9998 130.2172 0.2174 127
8 C#4 130.2172 130.4346 0.2174 127
8 A#3 130.4346 130.6520 0.2174 127
8 C#4 130.6520 130.8694 0.2174 127
8 D#4 130.8694 131.0868 0.2174 127
8 F4 131.0868 131.3042 0.2174 127
8 F#4 131.3042 131.7389 0.4348 127
8 E4 131.7389 131.9563 0.2174 127
8 D#4 131.9563 132.1737 0.2174 127
8 C#4 132.1737 132.3911 0.2174 127
8 A#3 132.3911 132.6085 0.2174 127
8 C#4 132.6085 132.8259 0.2174 127
8 D#4 132.8259 133.0433 0.2174 127
8 D4 133.0433 133.2607 0.2174 127
8 A#3 133.2607 133.4781 0.2174 127
8 A3 133.4781 133.6955 0.2174 127
8 C#4 133.6955 133.9129 0.2174 127
8 A#3 133.9129 134.1302 0.2174 127
8 C#4 134.1302 134.3476 0.2174 127
8 D#4 134.3476 134.5650 0.2174 127
8 F4 134.5650 134.7824 0.2174 127
8 F#4 134.7824 135.2172 0.4348 127
8 A4 135.2172 135.4346 0.2174 127
8 G#4 135.4346 135.6520 0.2174 127
8 F#4 135.6520 136.0868 0.4348 127
8 A#3 136.0868 136.5215 0.4348 127
8 F4 136.5215 136.7389 0.2174 127
8 F4 136.7389 136.9563 0.2174 127
8 D#4 136.9563 137.1737 0.2174 127
8 C#4 137.1737 137.3911 0.2174 127
8 A#3 137.3911 137.6085 0.2174 127
8 C#4 137.6085 137.8259 0.2174 127
8 D#4 137.8259 138.0433 0.2174 127
8 F4 138.0433 138.2607 0.2174 127
8 F#4 138.2607 138.6955 0.4348 127
8 E4 138.6955 138.9128 0.2174 127
8 D#4 138.9128 139.1302 0.2174 127
8 C#4 139.1302 139.5650 0.4348 127
8 D#4 139.5650 139.9998 0.4348 127
8 F4 139.9998 140.4346 0.4348 127
8 F#4 140.4346 140.8694 0.4348 127
8 A#3 140.8694 141.0868 0.2174 127
8 C#4 141.0868 141.3042 0.2174 127
8 D#4 141.3042 141.5215 0.2174 127
8 F4 141.5215 141.7389 0.2174 127
8 F#4 141.7389 142.1737 0.4348 127
8 A4 142.1737 142.3911 0.2174 127
8 G#4 142.3911 142.6085 0.2174 127
8 F#4 142.6085 143.0433 0.4348 127
8 A#3 143.0433 143.4781 0.4348 127
8 F4 143.4781 143.6955 0.2174 127
8 F4 143.6955 143.9128 0.2174 127
8 D#4 143.9128 144.1302 0.2174 127
8 C#4 144.1302 144.3476 0.2174 127
8 A#3 144.3476 144.5650 0.2174 127
8 C#4 144.5650 144.7824 0.2174 127
8 D#4 144.7824 144.9998 0.2174 127
8 F4 144.9998 145.2172 0.2174 127
8 F#4 145.2172 145.6520 0.4348 127
8 E4 145.6520 145.8694 0.2174 127
8 D#4 145.8694 146.0868 0.2174 127
8 C#4 146.0868 146.3041 0.2174 127
8 A#3 146.3041 146.5215 0.2174 127
8 C#4 146.5215 146.7389 0.2174 127
8 D#4 146.7389 146.9563 0.2174 127
8 D4 146.9563 147.1737 0.2174 127
8 A#3 147.1737 147.3911 0.2174 127
8 A3 147.3911 147.6085 0.2174 127
8 C#4 147.6085 147.8259 0.2174 127
8 A#3 147.8259 148.0433 0.2174 127
8 C#4 148.0433 148.2607 0.2174 127
8 D#4 148.2607 148.4781 0.2174 127
8 F4 148.4781 148.6954 0.2174 127
8 F#4 148.6954 149.1302 0.4348 127
8 A4 149.1302 149.3476 0.2174 127
8 G#4 149.3476 149.5650 0.2174 127
8 F#4 149.5650 149.9998 0.4348 127
8 A#3 149.9998 150.4346 0.4348 127
8 F4 150.4346 150.6520 0.2174 127
8 F4 150.6520 150.8694 0.2174 127
8 D#4 150.8694 151.0867 0.2174 127
8 C#4 151.0867 151.3041 0.2174 127
8 A#3 151.3041 151.5215 0.2174 127
8 C#4 151.5215 151.7389 0.2174 127
8 D#4 151.7389 151.9563 0.2174 127
8 F4 151.9563 152.1737 0.2174 127
8 F#4 152.1737 152.6085 0.4348 127
8 E4 152.6085 152.8259 0.2174 127
8 D#4 152.8259 153.0433 0.2174 127
8 C#4 153.0433 153.4780 0.4348 127
8 D#4 153.4780 153.9128 0.4348 127
8 F4 153.9128 154.3476 0.4348 127
8 F#4 154.3476 154.7824 0.4348 127
8 F4 154.7824 154.9998 0.2174 127
8 F4 154.9998 155.2172 0.2174 127
8 F4 155.2172 155.4346 0.2174 127
8 C#4 155.4346 155.6520 0.2174 127
8 D#4 155.6520 156.0867 0.4348 127
8 C#4 156.0867 156.3041 0.2174 127
8 D#4 156.3041 156.5215 0.2174 127
8 F4 156.5215 156.7389 0.2174 127
8 F4 156.7389 156.9563 0.2174 127
8 F4 156.9563 157.1737 0.2174 127
8 C#4 157.1737 157.3911 0.2174 127
8 D#4 157.3911 157.8259 0.4348 127
8 C#4 157.8259 158.0433 0.2174 127
8 D#4 158.0433 158.2606 0.2174 127
8 D4 158.2606 158.4780 0.2174 127
8 A#3 158.4780 158.6954 0.2174 127
8 G#3 158.6954 158.9128 0.2174 127
8 F#3 158.9128 159.1302 0.2174 127
8 D#3 159.1302 159.5650 0.4348 127
8 G#3 159.5650 159.7824 0.2174 127
8 A#3 159.7824 159.9998 0.2174 127
8 C#4 159.9998 160.2172 0.2174 127
8 D#4 160.2172 160.4346 0.2174 127
8 F4 160.4346 160.6519 0.2174 127
8 F4 160.6519 160.8693 0.2174 127
8 A#3 160.8693 161.3041 0.4348 127
8 D#4 161.3041 161.5215 0.2174 127
8 F4 161.5215 161.7389 0.2174 127
8 F4 161.7389 161.9563 0.2174 127
8 F4 161.9563 162.1737 0.2174 127
8 F4 162.1737 162.3911 0.2174 127
8 C#4 162.3911 162.6085 0.2174 127
8 D#4 162.6085 163.0433 0.4348 127
8 C#4 163.0433 163.2606 0.2174 127
8 D#4 163.2606 163.4780 0.2174 127
8 F4 163.4780 163.6954 0.2174 127
8 F4 163.6954 163.9128 0.2174 127
8 F4 163.9128 164.1302 0.2174 127
8 C#4 164.1302 164.3476 0.2174 127
8 D#4 164.3476 164.7824 0.4348 127
8 C#4 164.7824 164.9998 0.2174 127
8 D#4 164.9998 165.2172 0.2174 127
8 D4 165.2172 165.4346 0.2174 127
8 A#3 165.4346 165.6519 0.2174 127
8 G#3 165.6519 165.8693 0.2174 127
8 F#3 165.8693 166.0867 0.2174 127
8 D#3 166.0867 166.5215 0.4348 127
8 G#3 166.5215 166.7389 0.2174 127
8 A#3 166.7389 166.9563 0.2174 127
8 C#4 166.9563 167.1737 0.2174 127
8 D#4 167.1737 167.3911 0.2174 127
8 F4 167.3911 167.6085 0.2174 127
8 F4 167.6085 167.8259 0.2174 127
8 A#3 167.8259 168.2606 0.4348 127
8 D#4 168.2606 168.4780 0.2174 127
8 F4 168.4780 168.6954 0.2174 127
8 F4 168.6954 168.9128 0.2174 127
8 F4 168.9128 169.1302 0.2174 127
8 F4 169.1302 169.3476 0.2174 127
8 C#4 169.3476 169.5650 0.2174 127
8 D#4 169.5650 169.9998 0.4348 127
8 C#4 169.9998 170.2172 0.2174 127
8 D#4 170.2172 170.4345 0.2174 127
8 F4 170.4345 170.6519 0.2174 127
8 F4 170.6519 170.8693 0.2174 127
8 F4 170.8693 171.0867 0.2174 127
8 C#4 171.0867 171.3041 0.2174 127
8 D#4 171.3041 171.7389 0.4348 127
8 C#4 171.7389 171.9563 0.2174 127
8 D#4 171.9563 172.1737 0.2174 127
8 D4 172.1737 172.3911 0.2174 127
8 A#3 172.3911 172.6085 0.2174 127
8 G#3 172.6085 172.8258 0.2174 127
8 F#3 172.8258 173.0432 0.2174 127
8 D#3 173.0432 173.4780 0.4348 127
8 G#3 173.4780 173.6954 0.2174 127
8 A#3 173.6954 173.9128 0.2174 127
8 C#4 173.9128 174.1302 0.2174 127
8 D#4 174.1302 174.3476 0.2174 127
8 F4 174.3476 174.5650 0.2174 127
8 F4 174.5650 174.7824 0.2174 127
8 A#3 174.7824 175.2171 0.4348 127
8 D#4 175.2171 175.4345 0.2174 127
8 F4 175.4345 175.6519 0.2174 127
8 F4 175.6519 175.8693 0.2174 127
8 F4 175.8693 176.0867 0.2174 127
8 F4 176.0867 176.3041 0.2174 127
8 C#4 176.3041 176.5215 0.2174 127
8 D#4 176.5215 176.9563 0.4348 127
8 C#4 176.9563 177.1737 0.2174 127
8 D#4 177.1737 177.3911 0.2174 127
8 F4 177.3911 177.6084 0.2174 127
8 F4 177.6084 177.8258 0.2174 127
8 F4 177.8258 178.0432 0.2174 127
8 C#4 178.0432 178.2606 0.2174 127
8 D#4 178.2606 178.6954 0.4348 127
8 F#4 178.6954 178.9128 0.2174 127
8 G#4 178.9128 179.1302 0.2174 127
8 A4 179.1302 179.3476 0.2174 127
8 G#4 179.3476 179.5650 0.2174 127
8 F#4 179.5650 179.7824 0.2174 127
8 F4 179.7824 179.9997 0.2174 127
8 D#4 179.9997 180.4345 0.4348 127
8 C#4 180.4345 180.6519 0.2174 127
8 D#4 180.6519 180.8693 0.2174 127
8 C#4 180.8693 181.0867 0.2174 127
8 A#3 181.0867 181.3041 0.2174 127
8 G#3 181.3041 181.5215 0.2174 127
8 F#3 181.5215 181.7389 0.2174 127
8 D#3 181.7389 182.1737 0.4348 127
8 E4 182.1737 182.3910 0.2174 127
8 F#4 182.3910 182.6084 0.2174 127
8 F#4 182.6084 182.8258 0.2174 127
8 F#4 182.8258 183.0432 0.2174 127
8 F#4 183.0432 183.2606 0.2174 127
8 D4 183.2606 183.4780 0.2174 127
8 E4 183.4780 183.9128 0.4348 127
8 D4 183.9128 184.1302 0.2174 127
8 E4 184.1302 184.3476 0.2174 127
8 F#4 184.3476 184.5650 0.2174 127
8 F#4 184.5650 184.7824 0.2174 127
8 F#4 184.7824 184.9997 0.2174 127
8 D4 184.9997 185.2171 0.2174 127
8 E4 185.2171 185.6519 0.4348 127
8 D4 185.6519 185.8693 0.2174 127
8 E4 185.8693 186.0867 0.2174 127
8 D#4 186.0867 186.3041 0.2174 127
8 B3 186.3041 186.5215 0.2174 127
8 A3 186.5215 186.7389 0.2174 127
8 G3 186.7389 186.9563 0.2174 127
8 E3 186.9563 187.3910 0.4348 127
8 A3 187.3910 187.6084 0.2174 127
8 B3 187.6084 187.8258 0.2174 127
8 D4 187.8258 188.0432 0.2174 127
8 E4 188.0432 188.2606 0.2174 127
8 F#4 188.2606 188.4780 0.2174 127
8 F#4 188.4780 188.6954 0.2174 127
8 B3 188.6954 189.1302 0.4348 127
8 E4 189.1302 189.3476 0.2174 127
8 F#4 189.3476 189.5650 0.2174 127
8 F#4 189.5650 189.7823 0.2174 127
8 F#4 189.7823 189.9997 0.2174 127
8 F#4 189.9997 190.2171 0.2174 127
8 D4 190.2171 190.4345 0.2174 127
8 E4 190.4345 190.8693 0.4348 127
8 D4 190.8693 191.0867 0.2174 127
8 E4 191.0867 191.3041 0.2174 127
8 F#4 191.3041 191.5215 0.2174 127
8 F#4 191.5215 191.7389 0.2174 127
8 F#4 191.7389 191.9563 0.2174 127
8 D4 191.9563 192.1736 0.2174 127
8 E4 192.1736 192.6084 0.4348 127
8 D4 192.6084 192.8258 0.2174 127
8 E4 192.8258 193.0432 0.2174 127
8 D#4 193.0432 193.2606 0.2174 127
8 B3 193.2606 193.4780 0.2174 127
8 A3 193.4780 193.6954 0.2174 127
8 G3 193.6954 193.9128 0.2174 127
8 E3 193.9128 194.3476 0.4348 127
8 A3 194.3476 194.5649 0.2174 127
8 B3 194.5649 194.7823 0.2174 127
8 D4 194.7823 194.9997 0.2174 127
8 E4 194.9997 195.2171 0.2174 127
8 F#4 195.2171 195.4345 0.2174 127
8 F#4 195.4345 195.6519 0.2174 127
8 B3 195.6519 196.0867 0.4348 127
8 E4 196.0867 196.3041 0.2174 127
8 F#4 196.3041 196.5215 0.2174 127
8 F#4 196.5215 196.7389 0.2174 127
8 F#4 196.7389 196.9562 0.2174 127
8 F#4 196.9562 197.1736 0.2174 127
8 D4 197.1736 197.3910 0.2174 127
8 E4 197.3910 197.8258 0.4348 127
8 D4 197.8258 198.0432 0.2174 127
8 E4 198.0432 198.2606 0.2174 127
8 F#4 198.2606 198.4780 0.2174 127
8 F#4 198.4780 198.6954 0.2174 127
8 F#4 198.6954 198.9128 0.2174 127
8 D4 198.9128 199.1302 0.2174 127
8 E4 199.1302 199.5649 0.4348 127
8 D4 199.5649 199.7823 0.2174 127
8 E4 199.7823 199.9997 0.2174 127
8 D#4 199.9997 200.2171 0.2174 127
8 B3 200.2171 200.4345 0.2174 127
8 A3 200.4345 200.6519 0.2174 127
8 G3 200.6519 200.8693 0.2174 127
8 E3 200.8693 201.3041 0.4348 127
8 A3 201.3041 201.5215 0.2174 127
8 B3 201.5215 201.7388 0.2174 127
8 D4 201.7388 201.9562 0.2174 127
8 E4 201.9562 202.1736 0.2174 127
8 F#4 202.1736 202.3910 0.2174 127
8 F#4 202.3910 202.6084 0.2174 127
8 B3 202.6084 203.0432 0.4348 127
8 E4 203.0432 203.2606 0.2174 127
8 F#4 203.2606 203.4780 0.2174 127
8 F#4 203.4780 203.6954 0.2174 127
8 F#4 203.6954 203.9128 0.2174 127
8 F#4 203.9128 204.1301 0.2174 127
8 D4 204.1301 204.3475 0.2174 127
8 E4 204.3475 204.7823 0.4348 127
8 D4 204.7823 204.9997 0.2174 127
8 E4 204.9997 205.2171 0.2174 127
8 F#4 205.2171 205.4345 0.2174 127
8 F#4 205.4345 205.6519 0.2174 127
8 F#4 205.6519 205.8693 0.2174 127
8 D4 205.8693 206.0867 0.2174 127
8 E4 206.0867 206.5215 0.4348 127
8 G4 206.5215 206.7388 0.2174 127
8 A4 206.7388 206.9562 0.2174 127
8 A#4 206.9562 207.1736 0.2174 127
8 A4 207.1736 207.3910 0.2174 127
8 G4 207.3910 207.6084 0.2174 127
8 F#4 207.6084 207.8258 0.2174 127
8 E4 207.8258 208.2606 0.4348 127
8 D4 208.2606 208.4780 0.2174 127
8 E4 208.4780 208.6954 0.2174 127
8 D4 208.6954 208.9128 0.2174 127
8 B3 208.9128 209.1301 0.2174 127
8 A3 209.1301 209.3475 0.2174 127
8 G3 209.3475 209.5649 0.2174 127
8 E3 209.5649 210.4345 0.8696 127
9 D#3 43.4782 46.9565 3.4783 127
9 B2 46.9565 48.6956 1.7391 127
9 C#3 48.6956 49.5651 0.8696 127
9 D3 49.5651 50.4347 0.8696 127
9 D#3 50.4347 53.9130 3.4783 127
9 B2 53.9130 55.6521 1.7391 127
9 C#3 55.6521 56.5217 0.8696 127
9 D3 56.5217 57.3912 0.8696 127
9 B2 57.3912 59.1304 1.7391 127
9 C#3 59.1304 60.8695 1.7391 127
9 D#3 60.8695 64.3477 3.4783 127
9 B2 64.3477 66.0869 1.7391 127
9 C#3 66.0869 67.8260 1.7391 127
9 D#3 67.8260 71.3042 3.4783 127
9 B2 71.3042 73.0434 1.7391 127
9 C#3 73.0434 74.7825 1.7391 127
9 D#3 74.7825 78.2608 3.4783 127
9 B2 78.2608 79.9999 1.7391 127
9 C#3 79.9999 81.7390 1.7391 127
9 D#3 81.7390 85.2173 3.4783 127
9 B2 85.2173 86.9564 1.7391 127
9 C#3 86.9564 88.6955 1.7391 127
9 D#3 88.6955 92.1738 3.4783 127
9 B2 92.1738 93.9129 1.7391 127
9 C#3 93.9129 95.6520 1.7391 127
9 D#3 95.6520 99.1303 3.4783 127
9 B2 99.1303 100.8694 1.7391 127
9 C#3 100.8694 102.6086 1.7391 127
9 D#3 102.6086 106.0868 3.4783 127
9 B2 106.0868 107.8259 1.7391 127
9 C#3 107.8259 109.5651 1.7391 127
9 D#3 109.5651 111.3042 1.7391 127
9 G#2 112.1738 112.6085 0.4348 127
9 F#2 112.6085 113.0433 0.4348 127
9 D#2 113.0433 113.2607 0.2174 127
9 A#2 113.2607 113.3694 0.1087 60
9 D#3 113.3694 113.4781 0.1087 127
9 D#3 113.5868 113.6955 0.1087 127
9 C#3 113.6955 113.8042 0.1087 127
9 D#3 113.8042 113.9129 0.1087 127
9 D#2 113.9129 114.1303 0.2174 127
9 A#2 114.1303 114.2390 0.1087 60
9 D#3 114.2390 114.3477 0.1087 127
9 D#3 114.4564 114.5651 0.1087 127
9 C#3 114.5651 114.6738 0.1087 127
9 D#3 114.6738 114.7824 0.1087 127
9 D#2 114.7824 114.9998 0.2174 127
9 A#2 114.9998 115.1085 0.1087 60
9 D#3 115.1085 115.2172 0.1087 127
9 D#3 115.3259 115.4346 0.1087 127
9 C#3 115.4346 115.5433 0.1087 127
9 D#3 115.5433 115.6520 0.1087 127
9 D#2 115.6520 115.8694 0.2174 127
9 D#2 115.8694 115.9781 0.1087 127
9 F#2 115.9781 116.0868 0.1087 127
9 G#2 116.0868 116.3042 0.2174 127
9 F#2 116.3042 116.4129 0.1087 127
9 G#2 116.4129 116.5216 0.1087 127
9 D#2 116.5216 116.7390 0.2174 127
9 A#2 116.7390 116.8477 0.1087 60
9 D#3 116.8477 116.9564 0.1087 127
9 D#3 117.0651 117.1737 0.1087 127
9 C#3 117.1737 117.2824 0.1087 127
9 D#3 117.2824 117.3911 0.1087 127
9 D#2 117.3911 117.6085 0.2174 127
9 A#2 117.6085 117.7172 0.1087 60
9 D#3 117.7172 117.8259 0.1087 127
9 D#3 117.9346 118.0433 0.1087 127
9 C#3 118.0433 118.1520 0.1087 127
9 D#3 118.1520 118.2607 0.1087 127
9 D#2 118.2607 118.4781 0.2174 127
9 A#2 118.4781 118.5868 0.1087 60
9 D#3 118.5868 118.6955 0.1087 127
9 D#3 118.8042 118.9129 0.1087 127
9 C#3 118.9129 119.0216 0.1087 127
9 D#3 119.0216 119.1303 0.1087 127
9 G#2 119.1303 119.3477 0.2174 127
9 F#2 119.3477 119.4564 0.1087 127
9 G#2 119.4564 119.5651 0.1087 127
9 F#2 119.5651 119.7824 0.2174 127
9 D#2 119.7824 119.8911 0.1087 127
9 F#2 119.8911 119.9998 0.1087 127
9 D#2 119.9998 120.2172 0.2174 127
9 A#2 120.2172 120.3259 0.1087 60
9 D#3 120.3259 120.4346 0.1087 127
9 D#3 120.5433 120.6520 0.1087 127
9 C#3 120.6520 120.7607 0.1087 127
9 D#3 120.7607 120.8694 0.1087 127
9 D#2 120.8694 121.0868 0.2174 127
9 A#2 121.0868 121.1955 0.1087 60
9 D#3 121.1955 121.3042 0.1087 127
9 D#3 121.4129 121.5216 0.1087 127
9 C#3 121.5216 121.6303 0.1087 127
9 D#3 121.6303 121.7390 0.1087 127
9 D#2 121.7390 121.9564 0.2174 127
9 A#2 121.9564 122.0650 0.1087 60
9 D#3 122.0650 122.1737 0.1087 127
9 D#3 122.2824 122.3911 0.1087 127
9 C#3 122.3911 122.4998 0.1087 127
9 D#3 122.4998 122.6085 0.1087 127
9 D#2 122.6085 122.8259 0.2174 127
9 D#2 122.8259 122.9346 0.1087 127
9 F#2 122.9346 123.0433 0.1087 127
9 G#2 123.0433 123.2607 0.2174 127
9 F#2 123.2607 123.3694 0.1087 127
9 G#2 123.3694 123.4781 0.1087 127
9 D#2 123.4781 123.6955 0.2174 127
9 A#2 123.6955 123.8042 0.1087 60
9 D#3 123.8042 123.9129 0.1087 127
9 D#3 124.0216 124.1303 0.1087 127
9 C#3 124.1303 124.2390 0.1087 127
9 D#3 124.2390 124.3477 0.1087 127
9 D#2 124.3477 124.5650 0.2174 127
9 A#2 124.5650 124.6737 0.1087 60
9 D#3 124.6737 124.7824 0.1087 127
9 D#3 124.8911 124.9998 0.1087 127
9 C#3 124.9998 125.1085 0.1087 127
9 D#3 125.1085 125.2172 0.1087 127
9 D#2 125.2172 125.4346 0.2174 127
9 A#2 125.4346 125.5433 0.1087 60
9 D#3 125.5433 125.6520 0.1087 127
9 D#3 125.7607 125.8694 0.1087 127
9 C#3 125.8694 125.9781 0.1087 127
9 D#3 125.9781 126.0868 0.1087 127
9 G#2 126.0868 126.2317 0.1449 127
9 F#2 126.2317 126.3766 0.1449 127
9 G#2 126.3766 126.5216 0.1449 127
9 F#2 126.5216 126.6665 0.1449 127
9 D#2 126.6665 126.8114 0.1449 127
9 F#2 126.8114 126.9563 0.1449 127
9 D#3 126.9563 130.4346 3.4783 127
9 B2 130.4346 132.1737 1.7391 127
9 C#3 132.1737 133.0433 0.8696 127
9 D3 133.0433 133.9129 0.8696 127
9 D#3 133.9129 137.3911 3.4783 127
9 B2 137.3911 139.1302 1.7391 127
9 C#3 139.1302 139.9998 0.8696 127
9 D3 139.9998 140.8694 0.8696 127
9 D#3 140.8694 144.3476 3.4783 127
9 B2 144.3476 146.0868 1.7391 127
9 C#3 146.0868 146.9563 0.8696 127
9 D3 146.9563 147.8259 0.8696 127
9 D#3 147.8259 151.3041 3.4783 127
9 B2 151.3041 153.0433 1.7391 127
9 C#3 153.0433 153.9128 0.8696 127
9 D3 153.9128 154.7824 0.8696 127
9 B2 154.7824 156.5215 1.7391 127
9 C#3 156.5215 158.2606 1.7391 127
9 D#3 158.2606 161.7389 3.4783 127
9 B2 161.7389 163.4780 1.7391 127
9 C#3 163.4780 165.2172 1.7391 127
9 D#3 165.2172 168.6954 3.4783 127
9 B2 168.6954 170.4345 1.7391 127
9 C#3 170.4345 172.1737 1.7391 127
9 D#3 172.1737 175.6519 3.4783 127
9 B2 175.6519 177.3911 1.7391 127
9 C#3 177.3911 179.1302 1.7391 127
9 D#3 179.1302 181.7389 2.6087 127
9 G#2 181.7389 182.1737 0.4348 127
9 G2 182.1737 182.6084 0.4348 127
9 C3 182.6084 184.3476 1.7391 127
9 D3 184.3476 186.0867 1.7391 127
9 E3 186.0867 189.5650 3.4783 127
9 C3 189.5650 191.3041 1.7391 127
9 D3 191.3041 193.0432 1.7391 127
9 E3 193.0432 196.5215 3.4783 127
9 C3 196.5215 198.2606 1.7391 127
9 D3 198.2606 199.9997 1.7391 127
9 E3 199.9997 203.4780 3.4783 127
9 C3 203.4780 205.2171 1.7391 127
9 D3 205.2171 206.9562 1.7391 127
9 E3 206.9562 210.4345 3.4783 127
9 E3 210.4345 210.7606 0.3261 127
9 E3 210.7606 211.0867 0.3261 127
9 E3 211.0867 211.3041 0.2174 127
9 E3 211.3041 211.6301 0.3261 127
9 E3 211.6301 211.9562 0.3261 127
9 E3 211.9562 212.1736 0.2174 127
9 E3 212.1736 212.4997 0.3261 127
9 E3 212.4997 212.8258 0.3261 127
9 E3 212.8258 213.0432 0.2174 127
9 E3 213.0432 213.3693 0.3261 127
9 E3 213.3693 213.6954 0.3261 127
9 E3 213.6954 213.9127 0.2174 127
9 E3 213.9127 214.2388 0.3261 127
9 E3 214.2388 214.5649 0.3261 127
9 E3 214.5649 214.7823 0.2174 127
9 E3 214.7823 215.1084 0.3261 127
9 E3 215.1084 215.4345 0.3261 127
9 E3 215.4345 215.6519 0.2174 127
9 E3 215.6519 215.9780 0.3261 127
9 E3 215.9780 216.3040 0.3261 127
9 E3 216.3040 216.5214 0.2174 127
9 E3 216.5214 216.8475 0.3261 127
9 E3 216.8475 217.1736 0.3261 127
9 E3 217.1736 217.3910 0.2174 127
10 B3 85.2173 86.9564 1.7391 127
10 C#4 86.9564 88.6955 1.7391 127
10 D#4 88.6955 92.1738 3.4783 127
10 B3 92.1738 93.9129 1.7391 127
10 C#4 93.9129 95.6520 1.7391 127
10 D#4 95.6520 99.1303 3.4783 127
10 B3 99.1303 100.8694 1.7391 127
10 C#4 100.8694 102.6086 1.7391 127
10 D#4 102.6086 106.0868 3.4783 127
10 B3 106.0868 107.8259 1.7391 127
10 C#4 107.8259 109.5651 1.7391 127
10 D#4 109.5651 111.3042 1.7391 127
10 C4 182.6084 184.3476 1.7391 127
10 D4 184.3476 186.0867 1.7391 127
10 E4 186.0867 189.5650 3.4783 127
10 C4 189.5650 191.3041 1.7391 127
10 D4 191.3041 193.0432 1.7391 127
10 E4 193.0432 196.5215 3.4783 127
10 C4 196.5215 198.2606 1.7391 127
10 D4 198.2606 199.9997 1.7391 127
10 E4 199.9997 203.4780 3.4783 127
10 C4 203.4780 205.2171 1.7391 127
10 D4 205.2171 206.9562 1.7391 127
10 E4 206.9562 210.4345 3.4783 127
11 F2 86.0868 87.8260 1.7391 127
11 F2 87.8260 89.5651 1.7391 127
11 F2 89.5651 90.8694 1.3043 127
11 F2 90.8694 91.3042 0.4348 127
11 F2 91.3042 91.5216 0.2174 127
11 F2 91.5216 91.9564 0.4348 127
11 F2 93.0433 94.7825 1.7391 127
11 F2 94.7825 96.5216 1.7391 127
11 F2 96.5216 97.8260 1.3043 127
11 F2 97.8260 98.2607 0.4348 127
11 F2 98.2607 98.4781 0.2174 127
11 F2 98.4781 98.9129 0.4348 127
11 F2 99.9999 101.7390 1.7391 127
11 F2 101.7390 103.4781 1.7391 127
11 F2 103.4781 104.7825 1.3043 127
11 F2 104.7825 105.2172 0.4348 127
11 F2 105.2172 105.4346 0.2174 127
11 F2 105.4346 105.8694 0.4348 127
11 F2 106.9564 108.6955 1.7391 127
11 F2 108.6955 110.4346 1.7391 127
11 F2 110.4346 113.0433 2.6087 127
11 F2 183.4780 185.2171 1.7391 127
11 F2 185.2171 186.9563 1.7391 127
11 F2 186.9563 188.2606 1.3043 127
11 F2 188.2606 188.6954 0.4348 127
11 F2 188.6954 188.9128 0.2174 127
11 F2 188.9128 189.3476 0.4348 127
11 F2 190.4345 192.1736 1.7391 127
11 F2 192.1736 193.9128 1.7391 127
11 F2 193.9128 195.2171 1.3043 127
11 F2 195.2171 195.6519 0.4348 127
11 F2 195.6519 195.8693 0.2174 127
11 F2 195.8693 196.3041 0.4348 127
12 D#4 99.1303 99.5651 0.4348 127
12 D#4 99.5651 99.9999 0.4348 127
12 D#4 99.9999 100.2173 0.2174 127
12 D#4 100.2173 100.6520 0.4348 127
12 D#4 100.6520 100.8694 0.2174 127
12 D#4 100.8694 101.3042 0.4348 127
12 D#4 101.3042 101.5216 0.2174 127
12 D#4 101.5216 101.8477 0.3261 127
12 D#4 101.8477 101.9564 0.1087 127
12 D#4 101.9564 102.2825 0.3261 127
12 D#4 102.2825 102.6086 0.3261 127
12 D#4 102.6086 103.0433 0.4348 127
12 D#4 103.0433 103.4781 0.4348 127
12 D#4 103.4781 103.6955 0.2174 127
12 D#4 103.6955 104.1303 0.4348 127
12 D#4 104.1303 104.3477 0.2174 127
12 D#4 104.3477 104.7825 0.4348 127
12 D#4 104.7825 105.1085 0.3261 127
12 D#4 105.1085 105.2172 0.1087 127
12 D#4 105.2172 105.3259 0.1087 127
12 D#4 105.3259 105.4346 0.1087 127
12 D#4 105.4346 105.6520 0.2174 127
12 D#4 105.6520 105.7607 0.1087 127
12 D#4 105.7607 105.8694 0.1087 127
12 D#4 105.8694 105.9781 0.1087 127
12 D#4 105.9781 106.0868 0.1087 127
12 D#4 106.5216 106.9564 0.4348 127
12 D#4 106.9564 107.1738 0.2174 127
12 D#4 107.1738 107.6085 0.4348 127
12 D#4 107.6085 107.8259 0.2174 127
12 D#4 107.8259 108.2607 0.4348 127
12 D#4 108.2607 108.4781 0.2174 127
12 D#4 108.4781 108.8042 0.3261 127
12 D#4 108.8042 108.9129 0.1087 127
12 D#4 108.9129 109.2390 0.3261 127
12 D#4 109.2390 109.5651 0.3261 127
12 D#4 109.5651 109.9998 0.4348 127
12 D#4 109.9998 110.4346 0.4348 127
12 D#4 110.4346 110.6520 0.2174 127
12 D#4 110.6520 111.0868 0.4348 127
12 D#4 111.0868 111.3042 0.2174 127
12 D#4 112.1738 112.6085 0.4348 127
12 D#4 112.6085 113.0433 0.4348 127
12 D#4 182.6084 183.0432 0.4348 127
12 D#4 183.0432 183.4780 0.4348 127
12 D#4 183.4780 183.6954 0.2174 127
12 D#4 183.6954 184.1302 0.4348 127
12 D#4 184.1302 184.3476 0.2174 127
12 D#4 184.3476 184.7824 0.4348 127
12 D#4 184.7824 184.9997 0.2174 127
12 D#4 184.9997 185.3258 0.3261 127
12 D#4 185.3258 185.4345 0.1087 127
12 D#4 185.4345 185.7606 0.3261 127
12 D#4 185.7606 186.0867 0.3261 127
12 D#4 186.0867 186.5215 0.4348 127
12 D#4 186.5215 186.9563 0.4348 127
12 D#4 186.9563 187.1737 0.2174 127
12 D#4 187.1737 187.6084 0.4348 127
12 D#4 187.6084 187.8258 0.2174 127
12 D#4 187.8258 188.2606 0.4348 127
12 D#4 188.2606 188.5867 0.3261 127
12 D#4 188.5867 188.6954 0.1087 127
12 D#4 188.6954 188.8041 0.1087 127
12 D#4 188.8041 188.9128 0.1087 127
12 D#4 188.9128 189.1302 0.2174 127
12 D#4 189.1302 189.2389 0.1087 127
12 D#4 189.2389 189.3476 0.1087 127
12 D#4 189.3476 189.4563 0.1087 127
12 D#4 189.4563 189.5650 0.1087 127
12 D#4 189.9997 190.4345 0.4348 127
12 D#4 190.4345 190.6519 0.2174 127
12 D#4 190.6519 191.0867 0.4348 127
12 D#4 191.0867 191.3041 0.2174 127
12 D#4 191.3041 191.7389 0.4348 127
12 D#4 191.7389 191.9563 0.2174 127
12 D#4 191.9563 192.2823 0.3261 127
12 D#4 192.2823 192.3910 0.1087 127
12 D#4 192.3910 192.7171 0.3261 127
12 D#4 192.7171 193.0432 0.3261 127
12 D#4 193.0432 193.4780 0.4348 127
12 D#4 193.4780 193.9128 0.4348 127
12 D#4 193.9128 194.1302 0.2174 127
12 D#4 194.1302 194.5649 0.4348 127
12 D#4 194.5649 194.7823 0.2174 127
12 D#4 194.7823 195.2171 0.4348 127
12 D#4 195.2171 195.5432 0.3261 127
12 D#4 195.5432 195.6519 0.1087 127
12 D#4 195.6519 195.7968 0.1449 127
12 D#4 195.7968 195.9418 0.1449 127
12 D#4 195.9418 196.0867 0.1449 127
12 D#4 196.0867 196.2316 0.1449 127
12 D#4 196.2316 196.3765 0.1449 127
12 D#4 196.3765 196.5215 0.1449 127
