track pitch start end duration velocity
0 F#6 26.0052 26.0677 0.0625 15
0 D5 26.0052 26.0990 0.0938 44
0 A#5 26.0156 26.0521 0.0365 35
0 E6 26.0260 26.1406 0.1146 27
0 E5 26.0260 26.1406 0.1146 25
0 A5 26.0365 26.1146 0.0781 45
0 G6 26.0521 26.1146 0.0625 17
0 C6 26.0521 26.1667 0.1146 19
0 D#6 26.0677 26.1510 0.0833 39
0 C#6 26.0990 26.1875 0.0885 23
0 A#5 26.1146 26.1875 0.0729 45
0 G6 26.1250 26.1667 0.0417 23
0 A4 26.1250 26.1771 0.0521 19
0 D5 26.1406 26.1771 0.0365 33
0 F#6 26.1406 26.1771 0.0365 24
0 D6 26.1510 26.2656 0.1146 35
0 E6 26.1667 26.1979 0.0312 25
0 D#5 26.1667 26.2083 0.0417 31
0 A5 26.1771 26.2656 0.0885 46
0 D#6 26.1771 26.4531 0.2760 37
0 D5 26.1875 26.2500 0.0625 28
0 E5 26.2083 26.2500 0.0417 35
0 C#6 26.2083 26.2500 0.0417 36
0 F6 26.2083 26.2812 0.0729 27
0 C6 26.2396 26.3333 0.0938 39
0 C#5 26.2500 26.2917 0.0417 25
0 D#5 26.2500 26.3333 0.0833 40
0 G#5 26.2500 26.4427 0.1927 48
0 G#4 26.2656 26.3073 0.0417 16
0 C#6 26.2656 26.3542 0.0885 45
0 C#4 26.2812 26.3542 0.0729 19
0 F6 26.3073 26.4167 0.1094 15
0 C#5 26.3177 26.3542 0.0365 19
0 B5 26.3333 26.4688 0.1354 38
0 D6 26.3438 26.4010 0.0573 27
0 F#5 26.3542 26.4062 0.0521 16
0 D5 26.3646 26.4167 0.0521 21
0 A#5 26.3958 26.4323 0.0365 33
0 C#6 26.3958 26.4427 0.0469 33
0 F5 26.4062 26.4427 0.0365 28
0 C#5 26.4167 26.4531 0.0365 22
0 A5 26.4323 26.4531 0.0208 33
0 F#5 26.4427 26.4844 0.0417 25
0 F5 26.4531 26.4948 0.0417 17
0 A#5 26.4531 26.4948 0.0417 15
0 G#5 26.4688 26.5156 0.0469 15
0 C#6 26.5156 26.5938 0.0781 33
0 C#5 26.5312 26.5938 0.0625 44
0 G#5 26.5312 26.5938 0.0625 22
0 B6 26.5677 26.6146 0.0469 12
0 A4 26.5677 26.6667 0.0990 42
0 D5 26.5938 26.7031 0.1094 39
0 A3 26.6042 26.6771 0.0729 20
0 A#5 26.6146 26.7188 0.1042 38
0 D4 26.6562 26.7031 0.0469 40
0 A5 26.6927 26.7812 0.0885 32
0 A4 26.6927 26.8125 0.1198 29
0 D#4 26.7031 26.7292 0.0260 50
0 D5 26.7188 26.7917 0.0729 35
0 D4 26.7292 26.9062 0.1771 46
0 A3 26.7396 26.7812 0.0417 15
0 A#5 26.7812 26.8594 0.0781 20
0 A3 26.8125 26.8438 0.0312 18
0 A4 26.8333 26.8698 0.0365 26
0 D#5 26.8854 26.9219 0.0365 16
0 A3 26.8854 26.9531 0.0677 25
0 C#4 26.9323 26.9740 0.0417 17
0 D5 26.9323 26.9844 0.0521 19
0 G6 27.0208 27.0573 0.0365 30
0 A#6 27.0312 27.1198 0.0885 18
0 E5 27.0312 27.2240 0.1927 59
0 A6 27.0312 27.2448 0.2135 39
0 G#6 27.0417 27.1094 0.0677 31
0 A3 27.0417 27.1354 0.0938 22
0 B6 27.0573 27.2656 0.2083 26
0 C5 27.1094 27.1823 0.0729 24
0 D#7 27.1198 27.2448 0.1250 12
0 G6 27.1354 27.1719 0.0365 11
0 A4 27.1354 27.1823 0.0469 13
0 A#6 27.1510 27.4115 0.2604 29
0 C#7 27.1615 27.1979 0.0365 17
0 F4 27.1719 27.2031 0.0312 20
0 C5 27.1875 27.2344 0.0469 35
0 A4 27.1979 27.2344 0.0365 25
0 F7 27.1979 27.3021 0.1042 14
0 D#5 27.2031 27.2344 0.0312 44
0 A3 27.2240 27.2656 0.0417 21
0 E5 27.2344 27.3125 0.0781 40
0 G#6 27.2448 27.3125 0.0677 10
0 A6 27.2656 27.3490 0.0833 21
0 B6 27.2812 27.3229 0.0417 19
0 D5 27.2812 27.3594 0.0781 60
0 C7 27.3125 27.4115 0.0990 18
0 A4 27.3229 27.3698 0.0469 16
0 D#5 27.3490 27.3906 0.0417 43
0 D5 27.3698 27.4323 0.0625 41
0 C#7 27.3698 27.5521 0.1823 25
0 E7 27.3906 27.4219 0.0312 14
0 B6 27.4010 27.5104 0.1094 26
0 F#7 27.4115 27.4479 0.0365 16
0 D7 27.4219 27.5521 0.1302 18
0 C#5 27.4323 27.4583 0.0260 40
0 D#4 27.4323 27.4844 0.0521 20
0 C7 27.4323 27.5729 0.1406 18
0 G#4 27.4479 27.4740 0.0260 32
0 D#7 27.4479 27.4844 0.0365 17
0 D5 27.4583 27.5625 0.1042 44
0 A4 27.4740 27.5000 0.0260 32
0 E5 27.4844 27.5521 0.0677 28
0 A#4 27.5000 27.5833 0.0833 39
0 A#3 27.5208 27.5833 0.0625 15
0 D4 27.5312 27.6458 0.1146 30
0 D#5 27.5625 27.5833 0.0208 32
0 B6 27.5625 27.6094 0.0469 21
0 G7 27.5833 27.6198 0.0365 10
0 D#7 27.5833 27.6458 0.0625 19
0 F7 27.5833 27.6719 0.0885 20
0 A4 27.5990 27.6354 0.0365 28
0 D7 27.5990 27.6823 0.0833 11
0 C#5 27.6094 27.6823 0.0729 37
0 C#7 27.6094 27.7083 0.0990 25
0 E7 27.6458 27.6823 0.0365 15
0 A4 27.6458 27.6927 0.0469 44
0 D5 27.6719 27.7083 0.0365 15
0 C7 27.6823 27.7604 0.0781 18
0 A3 27.7083 27.7344 0.0260 37
0 A#4 27.7240 27.7604 0.0365 29
0 C#7 27.7240 27.7708 0.0469 28
0 D7 27.7448 27.8646 0.1198 22
0 A4 27.7604 27.7812 0.0208 33
0 G#3 27.7812 27.8333 0.0521 11
0 C#4 27.7917 27.8646 0.0729 31
0 G4 27.8177 27.8542 0.0365 11
0 A#4 27.8646 27.9062 0.0417 12
0 A4 27.8958 27.9323 0.0365 19
0 G4 29.9792 30.0052 0.0260 30
0 F#6 29.9896 30.1146 0.1250 51
0 G5 29.9896 30.1667 0.1771 48
0 F#4 30.0052 30.0260 0.0208 34
0 A#5 30.0052 30.0260 0.0208 55
0 D#6 30.0052 30.0365 0.0312 19
0 E5 30.0052 30.1875 0.1823 43
0 B5 30.0260 30.2500 0.2240 52
0 C6 30.0365 30.0781 0.0417 42
0 D6 30.0365 30.1146 0.0781 21
0 E4 30.0365 30.1510 0.1146 19
0 E6 30.0365 30.2292 0.1927 47
0 C#6 30.0781 30.1146 0.0365 18
0 F6 30.1146 30.1875 0.0729 21
0 D6 30.1406 30.2917 0.1510 36
0 G5 30.1771 30.2500 0.0729 40
0 D#5 30.1875 30.2760 0.0885 36
0 C#6 30.1979 30.2292 0.0312 31
0 D#6 30.2292 30.2760 0.0469 46
0 C6 30.2292 30.3958 0.1667 42
0 A#5 30.2396 30.3073 0.0677 39
0 E6 30.2396 30.3281 0.0885 29
0 F6 30.2500 30.3229 0.0729 30
0 F#5 30.2500 30.3698 0.1198 39
0 D#6 30.2865 30.3385 0.0521 37
0 A5 30.2865 30.3490 0.0625 39
0 C#6 30.2917 30.3281 0.0365 30
0 D5 30.2917 30.3490 0.0573 37
0 D4 30.3073 30.3385 0.0312 22
0 F6 30.3385 30.4062 0.0677 36
0 G#5 30.3490 30.3958 0.0469 42
0 B5 30.3490 30.3958 0.0469 33
0 C#6 30.3490 30.4167 0.0677 26
0 E6 30.3490 30.4792 0.1302 30
0 E5 30.3854 30.4271 0.0417 29
0 G5 30.3958 30.4375 0.0417 25
0 A#5 30.3958 30.4375 0.0417 19
0 C4 30.4062 30.4375 0.0312 17
0 C6 30.4062 30.4896 0.0833 25
0 D5 30.4167 30.4479 0.0312 22
0 D#6 30.4167 30.4479 0.0312 31
0 F6 30.4167 30.4479 0.0312 17
0 F#5 30.4167 30.4635 0.0469 20
0 A#4 30.4271 30.4635 0.0365 19
0 D4 30.4375 30.4792 0.0417 22
0 G5 30.5000 30.5521 0.0521 23
0 F5 30.5104 30.5521 0.0417 9
0 D6 30.5260 30.5625 0.0365 19
0 G#5 30.5260 30.5990 0.0729 36
0 C6 30.5260 30.6198 0.0938 53
0 G4 30.5365 30.5990 0.0625 23
0 E5 30.5365 30.7917 0.2552 47
0 F4 30.5625 30.5885 0.0260 33
0 E4 30.5885 30.7135 0.1250 41
0 G5 30.5990 30.7917 0.1927 48
0 G4 30.6094 30.6875 0.0781 41
0 B5 30.6510 30.7448 0.0938 17
0 D#4 30.7135 30.7448 0.0312 42
0 D#6 30.7292 30.7760 0.0469 18
0 G4 30.7292 30.9115 0.1823 44
0 E4 30.7448 30.9115 0.1667 51
0 G#5 30.7917 30.8385 0.0469 39
0 D#4 30.9115 30.9323 0.0208 33
0 B5 31.0208 31.0417 0.0208 51
0 C#5 31.0208 31.0521 0.0312 20
0 A#4 31.0208 31.0521 0.0312 28
0 E6 31.0312 31.0677 0.0365 14
0 G#5 31.0417 31.0781 0.0365 22
0 G6 31.0417 31.0885 0.0469 15
0 C6 31.0417 31.2292 0.1875 52
0 D#5 31.0521 31.0885 0.0365 16
0 B4 31.0521 31.0990 0.0469 27
0 F#6 31.0521 31.1146 0.0625 22
0 F#5 31.0677 31.0990 0.0312 37
0 F7 31.0677 31.1146 0.0469 10
0 D5 31.0677 31.1198 0.0521 41
0 A6 31.0677 31.1198 0.0521 36
0 F5 31.0885 31.1458 0.0573 21
0 C4 31.0990 31.2396 0.1406 24
0 A#6 31.1146 31.1562 0.0417 35
0 G7 31.1146 31.1823 0.0677 15
0 G5 31.1354 31.1562 0.0208 37
0 D#5 31.1458 31.1719 0.0260 45
0 A6 31.1562 31.2292 0.0729 55
0 F#5 31.1562 31.2500 0.0938 43
0 D5 31.1719 31.2031 0.0312 33
0 C5 31.1927 31.2396 0.0469 35
0 A#6 31.2188 31.3802 0.1615 35
0 D5 31.2292 31.2760 0.0469 35
0 E7 31.2656 31.3021 0.0365 19
0 F#5 31.2656 31.3281 0.0625 35
0 A6 31.2656 31.3281 0.0625 38
0 G#6 31.2656 31.3958 0.1302 35
0 C5 31.2760 31.3385 0.0625 23
0 C7 31.3021 31.3490 0.0469 21
0 G5 31.3021 31.3594 0.0573 47
0 F7 31.3021 31.3802 0.0781 30
0 E5 31.3021 31.4896 0.1875 44
0 A#5 31.3177 31.3802 0.0625 35
0 E7 31.3177 31.4062 0.0885 19
0 B5 31.3281 31.3958 0.0677 22
0 B6 31.3281 31.5833 0.2552 42
0 A6 31.3802 31.4375 0.0573 29
0 D#7 31.3802 31.4375 0.0573 26
0 C7 31.3802 31.4479 0.0677 14
0 D7 31.3802 31.5104 0.1302 22
0 G5 31.3958 31.4479 0.0521 31
0 C#7 31.3958 31.4583 0.0625 32
0 B5 31.4219 31.5000 0.0781 23
0 E7 31.4219 31.5000 0.0781 28
0 A#6 31.4375 31.4740 0.0365 31
0 G#6 31.4375 31.6927 0.2552 25
0 G#5 31.4479 31.4740 0.0260 30
0 D#5 31.4583 31.4896 0.0312 31
0 G5 31.4583 31.4896 0.0312 34
0 D6 31.4583 31.5104 0.0521 12
0 C7 31.4740 31.5208 0.0469 15
0 C#7 31.4740 31.5208 0.0469 17
0 F5 31.4896 31.5312 0.0417 37
0 G#5 31.4896 31.5625 0.0729 30
0 D#5 31.5000 31.5312 0.0312 14
0 A6 31.5000 31.5312 0.0312 17
0 A#6 31.5104 31.5729 0.0625 30
0 B5 31.5208 31.5833 0.0625 30
0 E4 31.5312 31.6719 0.1406 13
0 E5 31.5312 31.6823 0.1510 52
0 C#6 31.5469 31.6198 0.0729 29
0 G5 31.5625 31.5990 0.0365 18
0 D7 31.5833 31.7083 0.1250 22
0 B6 31.5990 31.7083 0.1094 44
0 A#6 31.6094 31.6510 0.0417 30
0 G5 31.6198 31.6510 0.0312 39
0 C7 31.6302 31.7240 0.0938 33
0 G#5 31.6510 31.7240 0.0729 44
0 B5 31.6510 31.7344 0.0833 23
0 F7 31.6510 31.7812 0.1302 26
0 F4 31.6719 31.7344 0.0625 14
0 F5 31.6823 31.7083 0.0260 30
0 G#4 31.6823 31.7344 0.0521 17
0 D#6 31.6823 31.7344 0.0521 14
0 G6 31.7083 31.7604 0.0521 10
0 G7 31.7083 31.8229 0.1146 14
0 E5 31.7083 31.9115 0.2031 54
0 D7 31.7240 31.7708 0.0469 21
0 G5 31.7240 31.8802 0.1562 26
0 B6 31.7240 31.8958 0.1719 39
0 G4 31.7344 31.7917 0.0573 23
0 B5 31.7448 31.7812 0.0365 19
0 C#7 31.7448 31.7917 0.0469 21
0 A#6 31.7708 31.8229 0.0521 30
0 D7 31.7917 31.8698 0.0781 21
0 E4 31.7917 31.8958 0.1042 33
0 B5 31.8125 31.8438 0.0312 11
0 G4 31.8229 31.9115 0.0885 25
0 C7 31.8594 31.9323 0.0729 30
0 D#7 31.8698 31.9115 0.0417 13
0 F7 31.8698 31.9740 0.1042 17
0 B5 31.8802 31.9740 0.0938 16
0 F4 31.8958 31.9531 0.0573 36
0 F5 31.8958 31.9531 0.0573 42
0 B6 31.9115 32.0052 0.0937 19
0 G5 31.9115 32.0260 0.1146 37
0 D7 31.9323 31.9844 0.0521 16
0 G4 31.9427 32.0521 0.1094 31
0 D#5 31.9531 32.0208 0.0677 30
0 C#7 31.9531 32.0208 0.0677 27
0 D#4 31.9740 32.0260 0.0521 33
0 D7 32.0052 32.1562 0.1510 22
0 E5 32.0208 32.0625 0.0417 19
0 E4 32.0260 32.2031 0.1771 31
0 G#4 32.0521 32.0990 0.0469 37
0 D#7 32.0781 32.1667 0.0885 11
0 G4 32.0990 32.1458 0.0469 33
0 G4 32.1667 32.2656 0.0990 25
0 D#4 32.2031 32.2292 0.0260 36
0 D7 32.2031 32.2448 0.0417 13
0 E4 32.2292 32.3073 0.0781 23
0 G#3 36.0260 36.0469 0.0208 50
0 A4 36.0365 36.1042 0.0677 48
0 E5 36.0365 36.3750 0.3385 50
0 A3 36.0469 36.4167 0.3698 61
0 C#6 36.0521 36.1823 0.1302 46
0 F7 36.0729 36.1042 0.0312 20
0 G#4 36.1042 36.1302 0.0260 36
0 G7 36.4167 36.4948 0.0781 24
0 F#7 36.4271 36.4792 0.0521 20
0 C#7 36.4271 36.5260 0.0990 24
0 E7 36.4531 36.5104 0.0573 13
0 D#7 36.4531 36.5104 0.0573 23
0 D7 36.4531 36.5104 0.0573 23
0 C7 36.4531 36.5104 0.0573 19
0 B6 36.4635 36.5104 0.0469 18
0 A6 36.4635 36.5573 0.0938 29
0 A#6 36.4792 36.5260 0.0469 22
0 G#6 36.4792 36.5260 0.0469 26
0 A#4 36.5573 36.5833 0.0260 47
0 A3 36.5573 36.8802 0.3229 63
0 B6 36.6094 36.8698 0.2604 25
0 D7 36.6198 36.7396 0.1198 20
0 C#7 36.6198 36.8698 0.2500 46
0 E7 36.6354 36.8385 0.2031 23
0 F7 36.6667 36.7969 0.1302 25
0 D7 36.8385 36.8698 0.0312 20
0 G#4 36.8698 36.8958 0.0260 49
0 G#3 36.8802 36.9062 0.0260 58
0 B5 36.8958 36.9427 0.0469 12
0 G4 36.8958 36.9531 0.0573 39
0 G3 36.9062 36.9427 0.0365 63
0 G#3 36.9427 36.9688 0.0260 62
0 A5 36.9531 36.9844 0.0312 32
0 B5 36.9844 37.1094 0.1250 55
0 D#6 36.9948 37.0469 0.0521 41
0 F#5 36.9948 37.1094 0.1146 57
0 B3 36.9948 37.1094 0.1146 58
0 D7 37.0156 37.0729 0.0573 25
0 C#6 37.0156 37.0990 0.0833 24
0 G6 37.0365 37.0885 0.0521 33
0 A6 37.0365 37.1094 0.0729 45
0 C#7 37.0573 37.1198 0.0625 25
0 E7 37.0990 37.1354 0.0365 16
0 C7 37.0990 37.1510 0.0521 21
0 F5 37.1094 37.1354 0.0260 53
0 A#3 37.1094 37.1510 0.0417 53
0 E5 37.1354 37.1719 0.0365 51
0 A3 37.1510 37.1719 0.0208 46
0 F7 37.1510 37.1875 0.0365 10
0 E7 37.1615 37.2135 0.0521 13
0 D#5 37.1719 37.2031 0.0312 50
0 G#3 37.1719 37.2135 0.0417 47
0 D5 37.2031 37.2240 0.0208 34
0 G4 37.2031 37.2240 0.0208 45
0 G#3 37.2240 37.2656 0.0417 54
0 D#5 37.2240 37.2656 0.0417 32
0 A4 37.2552 37.3073 0.0521 52
0 A3 37.2656 37.3073 0.0417 53
0 E5 37.2656 37.3073 0.0417 56
0 C#6 37.2760 37.3073 0.0312 12
0 A#5 37.2865 37.3594 0.0729 59
0 D6 37.3021 37.3490 0.0469 44
0 G6 37.3021 37.3490 0.0469 16
0 A#3 37.3073 37.3594 0.0521 50
0 F5 37.3073 37.3594 0.0521 49
0 C6 37.3333 37.3698 0.0365 20
0 C#6 37.3490 37.4115 0.0625 58
0 A3 37.3594 37.4115 0.0521 48
0 A5 37.3594 37.4115 0.0521 53
0 E5 37.3594 37.4219 0.0625 48
0 G#3 37.4115 37.4792 0.0677 50
0 G#5 37.4115 37.4792 0.0677 47
0 C6 37.4115 37.4792 0.0677 55
0 D#5 37.4219 37.4635 0.0417 52
0 F#6 37.4219 37.4635 0.0417 14
0 G4 37.4635 37.5260 0.0625 50
0 D5 37.4635 37.5260 0.0625 45
0 G3 37.4792 37.5729 0.0938 52
0 C#5 37.5260 37.5729 0.0469 29
0 F#4 37.5260 37.5833 0.0573 44
0 F#3 37.5729 37.6042 0.0312 35
0 F3 37.6042 37.6406 0.0365 16
0 A#3 37.9375 37.9688 0.0312 52
0 A#5 37.9479 37.9688 0.0208 50
0 F6 37.9479 37.9896 0.0417 28
0 E5 37.9583 38.0104 0.0521 51
0 A3 37.9688 38.0104 0.0417 46
0 C#6 37.9688 38.0104 0.0417 21
0 A5 37.9688 38.0104 0.0417 56
0 C6 38.0000 38.0469 0.0469 36
0 G#5 38.0104 38.0469 0.0365 56
0 G#4 38.0104 38.0625 0.0521 29
0 D#5 38.0104 38.0625 0.0521 50
0 G3 38.0365 38.1094 0.0729 43
0 B5 38.0469 38.0990 0.0521 37
0 G5 38.0469 38.1094 0.0625 56
0 D5 38.0625 38.1094 0.0469 62
0 A#5 38.0990 38.1302 0.0312 44
0 F#3 38.1094 38.1302 0.0208 46
0 F#5 38.1094 38.1302 0.0208 47
0 C#5 38.1094 38.1510 0.0417 59
0 F3 38.1302 38.1719 0.0417 42
0 F#3 38.2656 38.2865 0.0208 36
0 G#4 38.2760 38.3646 0.0885 49
0 D#5 38.2865 38.3177 0.0312 35
0 G#3 38.2865 38.3385 0.0521 47
0 A5 38.3021 38.3750 0.0729 31
0 E5 38.3177 38.3385 0.0208 43
0 G5 38.3385 38.3646 0.0260 33
0 D5 38.3385 38.3854 0.0469 46
0 F5 38.3542 38.3854 0.0312 25
0 C6 38.3542 38.3854 0.0312 18
0 E3 38.3750 38.4167 0.0417 38
0 G#5 38.3750 38.4167 0.0417 17
0 A3 38.4167 38.4844 0.0677 51
0 D#5 38.4271 38.4479 0.0208 38
0 G#4 38.4271 38.4583 0.0312 32
0 E6 38.4271 38.4844 0.0573 39
0 C6 38.4271 38.5104 0.0833 39
0 A5 38.4375 38.4844 0.0469 53
0 E5 38.4479 38.4844 0.0365 42
0 C#7 38.4479 38.4844 0.0365 16
0 G#3 38.4844 38.5104 0.0260 43
0 D#5 38.4844 38.5104 0.0260 33
0 G#5 38.4844 38.5104 0.0260 39
0 B5 38.4948 38.5208 0.0260 31
0 G4 38.4948 38.5312 0.0365 33
0 D6 38.4948 38.5312 0.0365 15
0 G3 38.5104 38.5312 0.0208 43
0 A#5 38.5208 38.5885 0.0677 34
0 C#5 38.5208 38.5885 0.0677 49
0 F#5 38.5208 38.5885 0.0677 38
0 E6 38.5208 38.5990 0.0781 32
0 G#6 38.5312 38.5781 0.0469 23
0 F#3 38.5312 38.5990 0.0677 52
0 A5 38.5781 38.6094 0.0312 9
0 D6 38.5781 38.6927 0.1146 26
0 A6 38.5781 38.6927 0.1146 38
0 G6 38.5781 38.7344 0.1562 39
0 G4 38.5885 38.7031 0.1146 42
0 B5 38.5885 38.7031 0.1146 34
0 D5 38.5885 38.7135 0.1250 59
0 F6 38.5990 38.7031 0.1042 47
0 G3 38.5990 38.7344 0.1354 52
0 E6 38.7031 38.7552 0.0521 15
0 A#6 38.7031 38.7552 0.0521 23
0 F#4 38.7031 38.7812 0.0781 56
0 G#6 38.7135 38.7812 0.0677 32
0 C#5 38.7135 38.7812 0.0677 53
0 F#3 38.7344 38.7812 0.0469 48
0 A6 38.7656 38.7917 0.0260 36
0 B6 38.7656 38.8594 0.0938 48
0 F3 38.7812 38.8021 0.0208 48
0 F4 38.7812 38.8021 0.0208 54
0 C5 38.7812 38.8021 0.0208 38
0 G6 38.7812 38.8021 0.0208 29
0 G#6 38.7917 38.8542 0.0625 46
0 A#6 38.7917 38.8594 0.0677 45
0 B4 38.8021 38.8542 0.0521 32
0 E3 38.8021 38.8594 0.0573 48
0 E4 38.8021 38.8594 0.0573 59
0 F#7 38.8594 38.9583 0.0990 30
0 G7 38.8854 38.9219 0.0365 25
0 C#4 39.0052 39.0260 0.0208 33
0 A4 39.0156 39.1302 0.1146 61
0 F#7 39.0260 39.0833 0.0573 14
0 D5 39.0260 39.5990 0.5729 62
0 D#4 39.0417 39.0677 0.0260 58
0 C7 39.0417 39.0990 0.0573 34
0 A#6 39.0417 39.1302 0.0885 39
0 D3 39.0417 39.1302 0.0885 26
0 A6 39.0573 39.1198 0.0625 34
0 D7 39.0677 39.1302 0.0625 29
0 B6 39.0677 39.1302 0.0625 34
0 D4 39.0677 39.5677 0.5000 53
0 D#7 39.0833 39.2083 0.1250 35
0 F7 39.0833 39.2865 0.2031 29
0 C#7 39.0990 39.1615 0.0625 15
0 F#5 39.0990 39.3802 0.2812 58
0 G6 39.1094 39.1823 0.0729 33
0 E7 39.1094 39.2188 0.1094 36
0 E6 39.1198 39.4531 0.3333 55
0 C6 39.1302 39.3542 0.2240 39
0 A5 39.1302 39.4688 0.3385 55
0 D3 39.1615 39.3281 0.1667 36
0 G6 39.1927 39.2448 0.0521 15
0 A4 39.3385 39.5677 0.2292 34
0 F#7 39.3802 39.5417 0.1615 29
0 F7 39.4219 39.4948 0.0729 13
0 D3 39.4688 39.5417 0.0729 38
0 F#5 39.4688 39.5521 0.0833 15
0 C#3 39.5417 39.5677 0.0260 39
0 C3 39.5677 39.6094 0.0417 38
0 D4 39.7708 39.9531 0.1823 15
0 F6 39.9271 39.9740 0.0469 14
0 G6 39.9635 40.0052 0.0417 14
0 A3 40.0052 40.0365 0.0312 55
0 E5 40.0052 40.0365 0.0312 41
0 B6 40.0156 40.0469 0.0312 26
0 C#7 40.0156 40.0885 0.0729 22
0 G#4 40.0260 40.0469 0.0208 52
0 D7 40.0260 40.1198 0.0938 19
0 D#5 40.0365 40.0625 0.0260 39
0 G4 40.0469 40.0781 0.0312 41
0 E4 40.0625 40.0885 0.0260 57
0 E3 40.0885 40.1302 0.0417 32
0 E4 40.0990 40.1302 0.0312 66
0 C#7 40.1198 40.1927 0.0729 17
0 F#3 40.1302 40.1562 0.0260 42
0 D7 40.1406 40.2031 0.0625 10
0 G3 40.1562 40.2031 0.0469 54
0 A4 40.2812 40.4688 0.1875 36
0 D3 40.2812 40.4896 0.2083 46
0 D#4 40.2917 40.3333 0.0417 51
0 D4 40.3333 40.4688 0.1354 63
0 C6 40.4167 40.4479 0.0312 20
0 G3 40.5208 40.5469 0.0260 48
0 F#4 40.5208 40.5938 0.0729 33
0 C#7 40.5365 40.5938 0.0573 17
0 D4 40.5469 40.5781 0.0312 23
0 G7 40.5469 40.5938 0.0469 20
0 F#3 40.5469 40.5938 0.0469 55
0 D7 40.5781 40.6198 0.0417 24
0 F3 40.5938 40.6510 0.0573 53
0 C#7 40.6198 40.6615 0.0417 20
0 G7 40.6198 40.6615 0.0417 16
0 D7 40.6302 40.7344 0.1042 27
0 E3 40.6510 40.7083 0.0573 50
0 E4 40.6615 40.7083 0.0469 58
0 F#7 40.6615 40.7188 0.0573 14
0 G7 40.6719 40.7188 0.0469 29
0 D#3 40.7083 40.7344 0.0260 42
0 D#4 40.7083 40.7604 0.0521 62
0 D3 40.9688 41.0208 0.0521 41
0 D4 40.9948 41.2552 0.2604 56
0 C#3 41.0208 41.0729 0.0521 34
0 C#7 41.0208 41.1615 0.1406 18
0 A4 41.0208 41.2656 0.2448 45
0 D#7 41.0312 41.1354 0.1042 20
0 B6 41.0417 41.0833 0.0417 11
0 D7 41.0417 41.1042 0.0625 15
0 G6 41.0417 41.1458 0.1042 34
0 F#5 41.0417 41.2031 0.1615 57
0 A5 41.0417 41.2656 0.2240 45
0 B5 41.0521 41.0938 0.0417 39
0 E6 41.0521 41.1979 0.1458 49
0 D3 41.0729 41.2656 0.1927 46
0 C6 41.0938 41.1875 0.0938 40
0 F#7 41.1979 41.2448 0.0469 14
0 F7 41.2135 41.2656 0.0521 9
0 C#4 41.2552 41.3021 0.0469 57
0 C#3 41.2656 41.3021 0.0365 47
0 D#4 41.3177 41.3594 0.0417 44
0 C#7 41.3281 41.4844 0.1562 31
0 G3 41.3542 41.4010 0.0469 58
0 E7 41.3698 41.5521 0.1823 25
0 F#3 41.4010 41.4219 0.0208 51
0 F4 41.4219 41.5365 0.1146 61
0 F3 41.4219 41.5521 0.1302 49
0 D#7 41.4375 41.4844 0.0469 13
0 D7 41.4844 41.5521 0.0677 29
0 E4 41.5365 41.5781 0.0417 67
0 D#3 41.5625 41.5885 0.0260 29
0 D#4 41.5781 41.6146 0.0365 62
0 A#4 41.5781 41.6146 0.0365 26
0 B6 41.5781 41.6250 0.0469 20
0 D3 41.5885 41.6354 0.0469 29
0 D4 41.6146 41.6354 0.0208 54
0 A4 41.6146 41.6510 0.0365 35
0 A4 41.7500 41.8958 0.1458 57
0 D5 41.7656 41.8594 0.0938 58
0 C#4 41.7760 41.7969 0.0208 34
0 G6 41.7760 41.8281 0.0521 35
0 D3 41.7760 41.8854 0.1094 39
0 D#7 41.7865 41.8490 0.0625 25
0 E6 41.7865 41.8490 0.0625 17
0 F#6 41.7969 41.8490 0.0521 32
0 D4 41.7969 41.8594 0.0625 39
0 G#6 41.8281 41.8594 0.0312 33
0 C#5 42.0156 42.0938 0.0781 57
0 C#4 42.0156 42.0938 0.0781 47
0 G#5 42.0312 42.0938 0.0625 38
0 B5 42.0417 42.0938 0.0521 32
0 F#5 42.0417 42.0938 0.0521 22
0 F6 42.0417 42.1042 0.0625 51
0 F#6 42.0417 42.1667 0.1250 48
0 A5 42.0521 42.1562 0.1042 44
0 D6 42.0677 42.1302 0.0625 38
0 D#5 42.0677 42.1354 0.0677 25
0 E6 42.0938 42.1146 0.0208 43
0 C4 42.0938 42.1302 0.0365 44
0 G5 42.0938 42.1302 0.0365 34
0 C6 42.0938 42.1302 0.0365 48
0 G6 42.0938 42.1302 0.0365 35
0 F6 42.1146 42.1562 0.0417 38
0 D#6 42.1146 42.1667 0.0521 51
0 C#6 42.1146 42.1771 0.0625 41
0 B3 42.1302 42.1667 0.0365 49
0 F#5 42.1302 42.1667 0.0365 37
0 B5 42.1302 42.1667 0.0365 51
0 G6 42.1354 42.1927 0.0573 21
0 E7 42.1354 42.1927 0.0573 16
0 G#6 42.1562 42.2031 0.0469 37
0 E6 42.1562 42.2031 0.0469 17
0 G#5 42.1562 42.2135 0.0573 23
0 F5 42.1667 42.2031 0.0365 49
0 A#3 42.1667 42.2135 0.0469 51
0 A#5 42.1667 42.2135 0.0469 43
0 D6 42.1667 42.2135 0.0469 52
0 F6 42.1667 42.2135 0.0469 52
0 C6 42.1771 42.2135 0.0365 27
0 G6 42.2031 42.2240 0.0208 29
0 E5 42.2031 42.2500 0.0469 50
0 A5 42.2135 42.2500 0.0365 29
0 A3 42.2135 42.2812 0.0677 58
0 G#4 42.2240 42.2604 0.0365 32
0 A#3 42.2812 42.3073 0.0260 62
0 B3 42.3073 42.3333 0.0260 56
0 C4 42.3333 42.4219 0.0885 65
0 E7 42.3438 42.3802 0.0365 11
0 A3 42.4323 42.4583 0.0260 48
0 G#3 42.4583 42.4740 0.0156 41
0 C#5 42.4740 42.5052 0.0312 42
0 G3 42.4740 42.5156 0.0417 36
0 G4 42.4740 42.5156 0.0417 63
0 D#5 42.5052 42.5365 0.0312 42
0 C6 42.5052 42.5365 0.0312 13
0 G#6 42.5052 42.5990 0.0938 30
0 F5 42.5052 42.6146 0.1094 39
0 G#3 42.5156 42.5469 0.0312 19
0 F4 42.5156 42.5469 0.0312 29
0 A4 42.5156 42.5469 0.0312 51
0 A#6 42.5156 42.6146 0.0990 20
0 A6 42.5365 42.6510 0.1146 32
0 D5 42.5469 42.5781 0.0312 56
0 F#4 42.5469 42.5885 0.0417 38
0 F#3 42.5677 42.5990 0.0312 23
0 F4 42.5885 42.6146 0.0260 37
0 C5 42.5885 42.6250 0.0365 58
0 F#4 42.6146 42.6354 0.0208 48
0 A#3 42.6250 42.6719 0.0469 36
0 A#3 42.6823 42.7135 0.0312 46
0 C4 42.7552 42.9115 0.1562 54
0 C5 42.7760 43.0208 0.2448 63
0 F7 42.7865 42.8594 0.0729 39
0 D7 42.7865 42.9010 0.1146 48
0 G5 42.8073 42.9115 0.1042 17
0 C7 42.8073 42.9219 0.1146 56
0 E7 42.8490 42.9323 0.0833 10
0 F#7 42.8594 42.9010 0.0417 25
0 A#6 42.8594 42.9219 0.0625 22
0 B3 42.9115 42.9323 0.0208 34
0 C4 42.9323 43.0365 0.1042 53
0 B4 43.0208 43.1302 0.1094 59
0 B3 43.0365 43.1302 0.0938 57
0 D#7 43.0469 43.1094 0.0625 22
0 C7 43.1094 43.1615 0.0521 22
0 D7 43.1094 43.1875 0.0781 19
0 F5 43.1198 43.1510 0.0312 33
0 A#3 43.1302 43.1615 0.0312 49
0 A#4 43.1302 43.1615 0.0312 55
0 A6 43.1510 43.1719 0.0208 35
0 A5 43.1510 43.1875 0.0365 34
0 E5 43.1510 43.1875 0.0365 58
0 E7 43.1510 43.2500 0.0990 21
0 D#7 43.1510 43.2500 0.0990 17
0 A3 43.1615 43.1875 0.0260 44
0 G#6 43.1719 43.2135 0.0417 33
0 G5 43.1719 43.2240 0.0521 45
0 F7 43.1719 43.2500 0.0781 19
0 F6 43.1875 43.2135 0.0260 50
0 D#5 43.1875 43.2240 0.0365 44
0 A#5 43.1875 43.2344 0.0469 50
0 F#7 43.1875 43.2656 0.0781 13
0 G3 43.2031 43.2240 0.0208 45
0 F#5 43.2031 43.2500 0.0469 50
0 D6 43.2031 43.2917 0.0885 60
0 C6 43.2135 43.2656 0.0521 41
0 D#6 43.2240 43.2500 0.0260 45
0 F3 43.2344 43.2656 0.0312 33
0 E6 43.2344 43.3438 0.1094 40
0 E5 43.2500 43.2812 0.0312 47
0 G#5 43.2500 43.3073 0.0573 53
0 E4 43.2656 43.2812 0.0156 32
0 B4 43.2656 43.2812 0.0156 29
0 B5 43.2656 43.2917 0.0260 41
0 F7 43.2656 43.2917 0.0260 11
0 E3 43.2656 43.3073 0.0417 27
0 F5 43.2812 43.3073 0.0260 47
0 C#5 43.2917 43.3229 0.0312 31
0 A5 43.2917 43.3333 0.0417 30
0 G4 43.3073 43.3333 0.0260 39
0 D6 43.3073 43.3333 0.0260 34
0 C6 43.3229 43.3698 0.0469 34
0 G#5 43.3229 43.3698 0.0469 43
0 G#3 43.3333 43.3594 0.0260 33
0 G#4 43.3333 43.3594 0.0260 43
0 D#5 43.3333 43.3698 0.0365 54
0 E6 43.3594 43.4323 0.0729 48
0 A3 43.3594 43.5833 0.2240 50
0 A4 43.3594 43.5938 0.2344 61
0 C#6 43.3698 43.4219 0.0521 28
0 E5 43.3698 43.5938 0.2240 52
0 F7 43.3802 43.4688 0.0885 25
0 F#7 43.4688 43.5208 0.0521 18
0 F7 43.5208 43.5833 0.0625 19
0 G3 43.5938 43.6146 0.0208 42
0 A4 43.7344 43.8333 0.0990 13
0 A#3 43.8698 43.8958 0.0260 50
0 B3 43.8958 43.9323 0.0365 68
0 A4 43.9115 43.9792 0.0677 17
0 A#3 43.9323 43.9427 0.0104 68
0 E5 43.9427 44.1979 0.2552 48
0 A5 43.9427 44.2448 0.3021 36
0 A3 43.9427 44.2708 0.3281 68
0 G6 44.0104 44.0833 0.0729 31
0 C#6 44.0208 44.0573 0.0365 10
0 A6 44.0208 44.1146 0.0938 41
0 B6 44.0417 44.1146 0.0729 43
0 C#7 44.0417 44.2552 0.2135 50
0 F7 44.0677 44.1458 0.0781 18
0 D7 44.0885 44.1667 0.0781 29
0 D#7 44.1667 44.2292 0.0625 23
0 A#3 44.2708 44.2812 0.0104 65
0 A4 44.2917 44.3385 0.0469 12
0 D4 44.3021 44.3958 0.0938 66
0 E7 44.3281 44.3750 0.0469 22
0 A5 44.3385 44.3854 0.0469 15
0 D7 44.3385 44.3854 0.0469 28
0 D#7 44.3750 44.4323 0.0573 41
0 C#7 44.3854 44.4323 0.0469 43
0 C#4 44.3958 44.4323 0.0365 55
0 C#5 44.3958 44.4427 0.0469 72
0 F#7 44.3958 44.4531 0.0573 31
0 A#6 44.4167 44.4531 0.0365 14
0 G5 44.4167 44.4740 0.0573 29
0 E7 44.4167 44.5104 0.0938 34
0 C4 44.4323 44.4635 0.0312 44
0 D7 44.4323 44.4635 0.0312 39
0 C7 44.4323 44.4740 0.0417 48
0 C5 44.4427 44.4635 0.0208 67
0 F7 44.4531 44.5104 0.0573 34
0 B4 44.4635 44.4948 0.0312 57
0 F#5 44.4635 44.4948 0.0312 37
0 B6 44.4635 44.4948 0.0312 45
0 B3 44.4635 44.5052 0.0417 45
0 D#7 44.4635 44.5052 0.0417 23
0 C#7 44.4635 44.5052 0.0417 36
0 D6 44.4740 44.5104 0.0365 15
0 G#6 44.4740 44.5104 0.0365 16
0 A#6 44.4948 44.5208 0.0260 31
0 A#4 44.4948 44.5208 0.0260 51
0 C7 44.4948 44.5208 0.0260 40
0 F5 44.4948 44.5208 0.0260 53
0 A#3 44.5052 44.5365 0.0312 45
0 F#5 44.5208 44.5469 0.0260 31
0 C5 44.5365 44.5573 0.0208 55
0 C#4 44.5365 44.5885 0.0521 59
0 A5 44.5573 44.6615 0.1042 16
0 D4 44.5885 44.6823 0.0938 67
0 C4 44.6979 44.7240 0.0260 44
0 C#4 44.7083 44.7344 0.0260 39
0 D4 44.7344 44.7656 0.0312 53
0 A6 44.7344 44.7656 0.0312 43
0 C#5 44.7552 44.8281 0.0729 72
0 F7 44.7656 44.8125 0.0469 17
0 C#4 44.7656 44.8281 0.0625 47
0 G#5 44.7656 44.8281 0.0625 31
0 G#6 44.7656 44.8281 0.0625 46
0 A#6 44.8021 44.8490 0.0469 36
0 E7 44.8125 44.8646 0.0521 27
0 C4 44.8281 44.8646 0.0365 49
0 C5 44.8281 44.8646 0.0365 70
0 G5 44.8281 44.8646 0.0365 35
0 G6 44.8281 44.8646 0.0365 36
0 A6 44.8490 44.8854 0.0365 38
0 A#4 44.8750 44.8906 0.0156 45
0 G3 44.8854 44.9115 0.0260 34
0 C#5 44.8906 44.9792 0.0885 24
0 D4 44.9688 45.2135 0.2448 67
0 D5 44.9688 45.2135 0.2448 69
0 F#7 44.9948 45.0312 0.0365 16
0 A5 45.0052 45.2135 0.2083 51
0 F#7 45.0521 45.2135 0.1615 34
0 E7 45.0990 45.2031 0.1042 20
0 D7 45.1302 45.1927 0.0625 11
0 C#4 45.2135 45.2500 0.0365 60
0 B3 45.2292 45.2604 0.0312 49
0 D5 45.2292 45.3125 0.0833 25
0 D4 45.2500 45.3021 0.0521 28
0 G7 45.2865 45.3333 0.0469 28
0 F7 45.2917 45.3333 0.0417 21
0 C#4 45.3333 45.3750 0.0417 61
0 D5 45.3542 45.5729 0.2188 74
0 D7 45.3646 45.5104 0.1458 37
0 D4 45.3750 45.5729 0.1979 66
0 F#7 45.4010 45.5104 0.1094 35
0 E7 45.4167 45.5208 0.1042 23
0 B6 45.4271 45.4635 0.0365 49
0 A5 45.4271 45.5208 0.0938 17
0 A6 45.4531 45.5208 0.0677 25
0 C7 45.4635 45.5104 0.0469 51
0 C#4 45.5729 45.5833 0.0104 65
0 D5 45.6094 45.6719 0.0625 23
0 B3 45.6615 45.6823 0.0208 50
0 A#3 45.6823 45.7135 0.0312 48
0 A#4 45.7448 45.7917 0.0469 51
0 C#6 45.7604 45.7917 0.0312 22
0 A#3 45.7604 45.7917 0.0312 67
0 A5 45.7604 45.8906 0.1302 31
0 E5 45.7708 45.9062 0.1354 54
0 A4 45.7812 45.9427 0.1615 58
0 A3 45.7917 45.9219 0.1302 61
0 G#3 45.9219 45.9427 0.0208 33
0 F#5 45.9948 46.0312 0.0365 49
0 B4 45.9948 46.0312 0.0365 36
0 B3 46.0052 46.0312 0.0260 48
0 G#6 46.0052 46.1510 0.1458 25
0 F7 46.0208 46.0781 0.0573 31
0 D6 46.0208 46.1615 0.1406 36
0 F5 46.0312 46.0625 0.0312 46
0 A#5 46.0312 46.0625 0.0312 46
0 A#3 46.0312 46.0781 0.0469 57
0 F#5 46.0625 46.0885 0.0260 40
0 B5 46.0625 46.0885 0.0260 53
0 G7 46.0625 46.1094 0.0469 18
0 F#7 46.0781 46.2396 0.1615 37
0 A#3 46.0885 46.1615 0.0729 57
0 F5 46.0885 46.1615 0.0729 40
0 A#5 46.0885 46.1615 0.0729 53
0 F7 46.0885 46.2240 0.1354 34
0 G6 46.1510 46.2240 0.0729 19
0 A3 46.1615 46.2240 0.0625 58
0 E5 46.1615 46.2240 0.0625 40
0 A5 46.1615 46.2240 0.0625 38
0 C#6 46.1615 46.2240 0.0625 39
0 G#3 46.2240 46.2552 0.0312 58
0 G#5 46.2240 46.2552 0.0312 32
0 D#5 46.2240 46.2656 0.0417 39
0 G7 46.2917 46.4271 0.1354 19
0 F#7 46.3021 46.4375 0.1354 37
0 F7 46.3281 46.4740 0.1458 30
0 A3 46.4375 46.4844 0.0469 66
0 B6 46.4375 46.5104 0.0729 28
0 D#7 46.4531 46.5000 0.0469 17
0 C7 46.4531 46.5000 0.0469 22
0 D7 46.4635 46.5000 0.0365 23
0 G#3 46.4844 46.5104 0.0260 41
0 F4 46.5104 46.5312 0.0208 50
0 A#6 46.5104 46.5469 0.0365 14
0 G3 46.5208 46.5573 0.0365 36
0 G#6 46.5312 46.5990 0.0677 26
0 G#4 46.5469 46.5781 0.0312 48
0 D#7 46.5573 46.6146 0.0573 21
0 G6 46.5573 46.6250 0.0677 26
0 A#4 46.5781 46.5990 0.0208 48
0 C5 46.5885 46.6146 0.0260 35
0 G4 46.5885 46.6250 0.0365 59
0 F3 46.6250 46.6458 0.0208 36
0 A4 46.7448 47.0417 0.2969 73
0 A3 46.7448 47.0417 0.2969 63
0 C#7 46.7865 47.0156 0.2292 35
0 D7 46.8281 46.9062 0.0781 23
0 G7 46.8698 46.9948 0.1250 12
0 D#7 46.9062 46.9635 0.0573 32
0 D7 46.9635 47.0625 0.0990 52
0 E5 47.0052 47.0521 0.0469 62
0 A#6 47.0156 47.0625 0.0469 23
0 C7 47.0156 47.0833 0.0677 22
0 C6 47.0312 47.0625 0.0312 41
0 G#5 47.0312 47.1042 0.0729 62
0 F#6 47.0417 47.0833 0.0417 54
0 G#3 47.0417 47.0938 0.0521 45
0 D#6 47.0417 47.1042 0.0625 60
0 E7 47.0521 47.0938 0.0417 25
0 D#5 47.0521 47.1042 0.0521 55
0 F6 47.0833 47.1146 0.0312 50
0 B5 47.0938 47.1146 0.0208 60
0 G3 47.0938 47.1250 0.0312 31
0 D5 47.1042 47.1250 0.0208 42
0 G5 47.1042 47.1250 0.0208 46
0 D6 47.1042 47.1250 0.0208 56
0 A#5 47.1146 47.1406 0.0260 54
0 E6 47.1146 47.1406 0.0260 45
0 F#6 47.1146 47.1562 0.0417 16
0 F#3 47.1250 47.1562 0.0312 31
0 C#5 47.1250 47.1562 0.0312 39
0 A4 47.1250 47.1927 0.0677 21
0 D#6 47.1406 47.1667 0.0260 52
0 F5 47.1406 47.1771 0.0365 46
0 A5 47.1406 47.1771 0.0365 49
0 C6 47.1406 47.1771 0.0365 54
0 C5 47.1562 47.1771 0.0208 36
0 F3 47.1562 47.1927 0.0365 30
0 B5 47.1667 47.2031 0.0365 46
0 D6 47.1667 47.2031 0.0365 56
0 B4 47.1771 47.2031 0.0260 33
0 E5 47.1771 47.2031 0.0260 52
0 G#5 47.1771 47.2031 0.0260 48
0 D#6 47.1927 47.2552 0.0625 35
0 C#6 47.2031 47.2240 0.0208 50
0 D#4 47.2031 47.2656 0.0625 29
0 D#5 47.2031 47.2656 0.0625 41
0 G5 47.2031 47.2656 0.0625 50
0 A#5 47.2031 47.2656 0.0625 43
0 F6 47.2135 47.2552 0.0417 16
0 D#3 47.2135 47.2656 0.0521 31
0 C6 47.2240 47.2552 0.0312 30
0 A#4 47.2240 47.2656 0.0417 31
0 E5 47.2656 47.3333 0.0677 14
0 C5 47.2812 47.3073 0.0260 31
0 F3 47.2812 47.3073 0.0260 41
0 F#4 47.2812 47.3333 0.0521 47
0 F#3 47.3073 47.3333 0.0260 42
0 G5 47.3177 47.5521 0.2344 27
0 G3 47.3333 47.5312 0.1979 45
0 G4 47.3333 47.5521 0.2188 58
0 D5 47.3333 47.5521 0.2188 27
0 F#7 47.4115 47.5312 0.1198 30
0 B5 47.4375 47.5312 0.0938 15
0 F7 47.4375 47.5312 0.0938 14
0 F#3 47.5677 47.6198 0.0521 29
0 G4 47.5938 47.6875 0.0938 28
0 B3 47.8750 47.9010 0.0260 45
0 A#4 47.8906 47.9271 0.0365 9
0 A#3 47.9010 47.9427 0.0417 53
0 B6 47.9427 47.9948 0.0521 24
0 B3 47.9427 48.0052 0.0625 56
0 A6 47.9740 48.0208 0.0469 32
0 C7 47.9740 48.0417 0.0677 30
0 C5 47.9948 48.2135 0.2188 70
0 C4 48.0052 48.2135 0.2083 57
0 G5 48.0208 48.2135 0.1927 37
0 E7 48.0312 48.0833 0.0521 23
0 F#7 48.0417 48.1250 0.0833 34
0 E6 48.0573 48.1979 0.1406 33
0 F7 48.1250 48.2292 0.1042 33
0 D#6 48.1979 48.2604 0.0625 24
0 B4 48.2135 48.2604 0.0469 65
0 B3 48.2135 48.2708 0.0573 48
0 F#6 48.2135 48.2708 0.0573 46
0 F#5 48.2135 48.2812 0.0677 43
0 B6 48.2188 48.2708 0.0521 30
0 E7 48.2292 48.2812 0.0521 35
0 G#6 48.2292 48.3281 0.0990 54
0 A#4 48.2604 48.3281 0.0677 63
0 A#3 48.2708 48.3281 0.0573 49
0 A#6 48.2708 48.3385 0.0677 37
0 C7 48.2708 48.3385 0.0677 15
0 A3 48.3281 48.3490 0.0208 43
0 A6 48.3385 48.3958 0.0573 32
0 A#3 48.3490 48.3750 0.0260 48
0 B3 48.3750 48.3958 0.0208 49
0 D7 48.3854 48.4427 0.0573 21
0 C7 48.3854 48.5052 0.1198 12
0 F#7 48.3958 48.4531 0.0573 43
0 G5 48.3958 48.4688 0.0729 13
0 A#6 48.3958 48.5417 0.1458 25
0 C4 48.3958 48.5625 0.1667 46
0 C5 48.3958 48.5625 0.1667 71
0 E7 48.4115 48.4688 0.0573 11
0 G6 48.4115 48.5521 0.1406 35
0 E6 48.4531 48.5521 0.0990 20
0 F7 48.4531 48.5938 0.1406 42
0 G5 48.5052 48.5625 0.0573 42
0 A6 48.5521 48.5938 0.0417 16
0 D#6 48.5521 48.6302 0.0781 20
0 F#6 48.5521 48.6667 0.1146 48
0 B4 48.5625 48.6562 0.0938 63
0 F#5 48.5625 48.6667 0.1042 52
0 B3 48.5625 48.6927 0.1302 50
0 E7 48.5938 48.6667 0.0729 33
0 G#6 48.5938 48.6823 0.0885 44
0 A#4 48.6562 48.6823 0.0260 49
0 A3 48.7031 48.7240 0.0208 38
0 A#4 48.7031 48.7604 0.0573 66
0 F5 48.7135 48.7500 0.0365 40
0 E7 48.7135 48.7969 0.0833 21
0 G6 48.7135 48.8385 0.1250 54
0 E6 48.7240 48.8229 0.0990 31
0 A6 48.7240 48.8229 0.0990 14
0 A3 48.7500 48.8229 0.0729 42
0 E5 48.7500 48.8542 0.1042 64
0 D#7 48.7604 48.7812 0.0208 34
0 C#6 48.7604 48.8073 0.0469 22
0 A4 48.7604 48.8385 0.0781 54
0 D7 48.7812 48.8385 0.0573 37
0 B4 48.8646 48.9010 0.0365 9
0 G#6 48.9062 48.9583 0.0521 25
0 B4 48.9062 48.9583 0.0521 21
0 G6 48.9062 48.9792 0.0729 27
0 F6 48.9323 48.9688 0.0365 10
0 E6 48.9427 48.9792 0.0365 10
0 E7 48.9427 49.0365 0.0938 17
0 D#6 48.9583 48.9896 0.0312 9
0 F#7 48.9583 49.0052 0.0469 23
0 G6 49.0156 49.1354 0.1198 38
0 C#4 49.0365 49.0625 0.0260 35
0 E6 49.0365 49.1250 0.0885 58
0 C6 49.0365 49.1250 0.0885 61
0 G5 49.0365 49.1250 0.0885 46
0 C#6 49.0521 49.0885 0.0365 32
0 D7 49.0521 49.0990 0.0469 15
0 C5 49.0521 49.1146 0.0625 37
0 C4 49.0625 49.1250 0.0625 51
0 F6 49.0625 49.1354 0.0729 43
0 D6 49.0781 49.1354 0.0573 50
0 B4 49.1146 49.1667 0.0521 40
0 F#5 49.1250 49.1667 0.0417 34
0 B3 49.1250 49.1771 0.0521 65
0 A#4 49.1667 49.2240 0.0573 44
0 F5 49.1667 49.2240 0.0573 34
0 A#3 49.1771 49.2135 0.0365 66
0 F#4 49.1771 49.2240 0.0469 21
0 F#7 49.2812 49.3229 0.0417 17
0 A#5 49.2812 49.3229 0.0417 16
0 G#6 49.2812 49.3385 0.0573 23
0 G7 49.2917 49.3490 0.0573 18
0 A3 49.3229 49.3490 0.0260 50
0 A#3 49.3490 49.3750 0.0260 54
0 F5 49.3490 49.4271 0.0781 66
0 C#7 49.3594 49.4115 0.0521 23
0 D6 49.3594 49.4271 0.0677 63
0 B5 49.3750 49.3958 0.0208 42
0 A#4 49.3750 49.4375 0.0625 50
0 D#5 49.3854 49.4271 0.0417 36
0 A#3 49.3958 49.4271 0.0312 48
0 C6 49.3958 49.4375 0.0417 49
0 A5 49.3958 49.4479 0.0521 25
0 A3 49.4271 49.4479 0.0208 41
0 C#6 49.4271 49.4479 0.0208 67
0 E5 49.4271 49.4635 0.0365 67
0 A4 49.4375 49.4635 0.0260 43
0 C6 49.4479 49.5156 0.0677 68
0 G#3 49.4479 49.5417 0.0938 39
0 G#4 49.4635 49.5417 0.0781 51
0 D#5 49.4635 49.5417 0.0781 57
0 G#5 49.4740 49.5417 0.0677 53
0 A5 49.5417 49.5625 0.0208 34
0 E5 49.5417 49.5729 0.0312 31
0 A#4 49.5521 49.5729 0.0208 63
0 B5 49.5625 49.6042 0.0417 11
0 G#4 49.5938 49.6250 0.0312 20
0 C4 49.5938 49.6354 0.0417 41
0 C5 49.5938 49.6354 0.0417 61
0 B3 49.6354 49.6667 0.0312 44
0 G#6 49.6510 49.7031 0.0521 28
0 A#3 49.6667 49.7188 0.0521 50
0 F7 49.6771 49.7188 0.0417 20
0 F#7 49.6771 49.7500 0.0729 20
0 G7 49.6875 49.7604 0.0729 31
0 C4 49.7500 49.7865 0.0365 43
0 C5 49.7500 49.8021 0.0521 43
0 G5 49.7500 49.8125 0.0625 54
0 E6 49.7604 49.7760 0.0156 33
0 C6 49.7604 49.8021 0.0417 55
0 E5 49.7708 49.8021 0.0312 15
0 C#6 49.7708 49.8385 0.0677 48
0 D#6 49.7760 49.8385 0.0625 31
0 E7 49.7760 49.8385 0.0625 15
0 F6 49.7760 49.8698 0.0938 38
0 B3 49.7865 49.8385 0.0521 52
0 F4 49.7865 49.8906 0.1042 21
0 B5 49.8021 49.8385 0.0365 52
0 D5 49.8021 49.8698 0.0677 23
0 F#5 49.8125 49.8385 0.0260 47
0 G#5 49.8125 49.8698 0.0573 18
0 E6 49.8125 49.8906 0.0781 32
0 D6 49.8281 49.8802 0.0521 38
0 A#3 49.8385 49.8698 0.0312 54
0 F5 49.8385 49.8698 0.0312 38
0 A3 49.8698 49.9115 0.0417 53
0 E5 49.8698 49.9115 0.0417 38
0 C6 49.8906 49.9323 0.0417 16
0 G#5 49.8906 49.9427 0.0521 29
0 E4 49.8906 49.9583 0.0677 14
0 G#3 49.9115 49.9427 0.0312 53
0 D#5 49.9115 49.9427 0.0312 44
0 G3 49.9427 49.9792 0.0365 49
0 D5 49.9427 49.9792 0.0365 32
0 G#4 49.9792 50.0156 0.0365 49
0 D#5 49.9792 50.0156 0.0365 14
0 G#3 49.9792 50.0260 0.0469 48
0 E5 50.0156 50.1146 0.0990 62
0 A4 50.0156 50.1250 0.1094 45
0 A5 50.0156 50.1250 0.1094 63
0 D#6 50.0260 50.0990 0.0729 22
0 A3 50.0260 50.1146 0.0885 44
0 C#6 50.0260 50.1250 0.0990 51
0 A#5 50.0365 50.0781 0.0417 34
0 G#5 50.0365 50.0885 0.0521 26
0 D6 50.0469 50.0990 0.0521 12
0 F#5 50.0990 50.1354 0.0365 10
0 F#6 50.0990 50.1615 0.0625 12
0 D#5 50.1146 50.1823 0.0677 54
0 G#3 50.1146 50.1927 0.0781 42
0 C6 50.1250 50.1615 0.0365 60
0 G#5 50.1250 50.1823 0.0573 62
0 B5 50.1615 50.2448 0.0833 59
0 G5 50.1823 50.2552 0.0729 61
0 D5 50.1823 50.2812 0.0990 64
0 G3 50.1927 50.2552 0.0625 40
0 A#5 50.2448 50.2812 0.0365 28
0 F#3 50.2552 50.2917 0.0365 40
0 F#5 50.2552 50.2917 0.0365 48
0 C#5 50.2552 50.2917 0.0365 54
0 A5 50.2656 50.3594 0.0938 45
0 F3 50.2917 50.4062 0.1146 57
0 C5 50.2917 50.4062 0.1146 56
0 C#6 50.3958 50.4219 0.0260 30
0 D5 50.3958 50.4688 0.0729 63
0 F#3 50.4062 50.4323 0.0260 46
0 G5 50.4062 50.4479 0.0417 42
0 F#7 50.4062 50.4583 0.0521 19
0 G#5 50.4062 50.4948 0.0885 62
0 B5 50.4062 50.5365 0.1302 55
0 G4 50.4219 50.4479 0.0260 44
0 F6 50.4219 50.5573 0.1354 34
0 G3 50.4323 50.4583 0.0260 31
0 D#6 50.4323 50.5104 0.0781 55
0 E7 50.4479 50.4792 0.0312 15
0 G#4 50.4479 50.5104 0.0625 34
0 D#5 50.4583 50.4948 0.0365 48
0 G#3 50.4583 50.5104 0.0521 26
0 D5 50.4948 50.5365 0.0417 49
0 G5 50.4948 50.5365 0.0417 55
0 F5 50.4948 50.6094 0.1146 42
0 G3 50.5104 50.5365 0.0260 34
0 F#5 50.5365 50.5677 0.0312 54
0 C#5 50.5365 50.5677 0.0312 54
0 F#3 50.5365 50.5833 0.0469 42
0 A#5 50.5365 50.5833 0.0469 56
0 G#6 50.5365 50.5990 0.0625 36
0 C5 50.5677 50.6302 0.0625 56
0 F3 50.5833 50.6302 0.0469 42
0 E4 50.6094 50.6615 0.0521 40
0 G#4 50.7292 50.7708 0.0417 64
0 B6 50.7448 50.8021 0.0573 19
0 G6 50.7448 50.8021 0.0573 26
0 G3 50.7448 50.8125 0.0677 20
0 D6 50.7448 50.8281 0.0833 28
0 D#5 50.7604 50.7812 0.0208 53
0 F7 50.7604 50.8021 0.0417 26
0 G5 50.7604 50.8125 0.0521 63
0 G4 50.7708 50.8021 0.0312 53
0 D5 50.7812 50.8125 0.0312 52
0 B5 50.7812 50.8125 0.0312 41
0 E7 50.7917 50.8490 0.0573 19
0 D#7 50.7917 50.8802 0.0885 29
0 F#4 50.8021 50.8385 0.0365 30
0 G#6 50.8021 50.8385 0.0365 22
0 A#6 50.8021 50.8385 0.0365 11
0 F#6 50.8021 50.8490 0.0469 35
0 E6 50.8021 50.8646 0.0625 48
0 C#5 50.8125 50.8490 0.0365 39
0 F#5 50.8125 50.8490 0.0365 59
0 A#5 50.8125 50.8490 0.0365 51
0 C#7 50.8125 50.8490 0.0365 18
0 C#6 50.8281 50.8490 0.0208 46
0 A6 50.8385 50.8802 0.0417 14
0 G4 50.8385 50.9271 0.0885 43
0 G3 50.8490 50.8906 0.0417 17
0 B5 50.8490 50.9062 0.0573 39
0 G5 50.8490 50.9062 0.0573 58
0 D5 50.8490 50.9271 0.0781 48
0 F6 50.8646 50.9062 0.0417 47
0 G5 50.9479 51.0260 0.0781 12
0 F4 50.9844 51.0573 0.0729 50
0 C6 51.0000 51.0469 0.0469 27
0 F6 51.0000 51.0885 0.0885 29
0 F3 51.0260 51.0573 0.0312 26
0 E5 51.0469 51.0885 0.0417 38
0 A#4 51.0469 51.0885 0.0417 31
0 C#6 51.0469 51.0885 0.0417 32
0 G5 51.0469 51.0990 0.0521 58
0 A#5 51.0469 51.0990 0.0521 59
0 D6 51.0469 51.1719 0.1250 58
0 D#6 51.0573 51.0885 0.0312 40
0 C6 51.0573 51.1562 0.0990 53
0 D#3 51.0677 51.1094 0.0417 20
0 D4 51.0885 51.1562 0.0677 22
0 D5 51.0885 51.1562 0.0677 28
0 F#5 51.0885 51.1562 0.0677 55
0 E6 51.0885 51.1562 0.0677 27
0 A4 51.0990 51.1562 0.0573 16
0 A5 51.0990 51.1562 0.0573 67
0 D3 51.1094 51.1719 0.0625 23
0 G#5 51.1562 51.1875 0.0312 54
0 C#4 51.1562 51.1979 0.0417 16
0 A#5 51.1562 51.2083 0.0521 36
0 C#6 51.1719 51.2188 0.0469 55
0 D6 51.2083 51.2292 0.0208 43
0 A#4 51.2083 51.2604 0.0521 14
0 F5 51.2083 51.2708 0.0625 34
0 A#5 51.2188 51.2500 0.0312 32
0 A#2 51.2188 51.2604 0.0417 12
0 C6 51.2188 51.2708 0.0521 33
0 G5 51.2188 51.2708 0.0521 50
0 A#3 51.2188 51.2969 0.0781 22
0 C#5 51.2292 51.2812 0.0521 21
0 C#6 51.2292 51.3281 0.0990 44
0 A5 51.2500 51.2969 0.0469 25
0 D6 51.2604 51.3125 0.0521 33
0 E5 51.2604 51.3281 0.0677 41
0 F#5 51.2708 51.2969 0.0260 52
0 C5 51.2812 51.3125 0.0312 30
0 G5 51.2969 51.3281 0.0312 44
0 C#5 51.3125 51.3438 0.0312 46
0 C#3 51.3125 51.3542 0.0417 16
0 C#4 51.3125 51.3542 0.0417 33
0 D6 51.3281 51.4323 0.1042 28
0 F#5 51.3438 51.4062 0.0625 27
0 D5 51.3438 51.5208 0.1771 43
0 D4 51.3542 51.5677 0.2135 60
0 F#7 51.4323 51.4792 0.0469 19
0 A5 51.4427 51.4896 0.0469 16
0 F#3 51.6146 51.6406 0.0260 57
0 G3 51.6406 51.6927 0.0521 59
0 G#3 51.6927 51.7396 0.0469 51
0 G3 51.7396 51.8125 0.0729 41
0 G4 51.9323 51.9688 0.0365 61
0 G3 51.9479 51.9688 0.0208 46
0 G#3 51.9688 51.9948 0.0260 45
0 G#4 51.9688 52.0208 0.0521 59
0 D5 51.9792 52.0104 0.0312 38
0 A3 51.9948 52.0208 0.0260 38
0 D#5 52.0104 52.0469 0.0365 44
0 F5 52.0208 52.0469 0.0260 40
0 A4 52.0208 52.1458 0.1250 47
0 C6 52.0312 52.1146 0.0833 33
0 A5 52.0312 52.1302 0.0990 59
0 A3 52.0312 52.1458 0.1146 45
0 F#5 52.0469 52.0781 0.0312 37
0 D5 52.0469 52.1094 0.0625 31
0 F6 52.0469 52.1094 0.0625 29
0 C#6 52.0469 52.1198 0.0729 48
0 E5 52.0469 52.1302 0.0833 56
0 D#6 52.0573 52.1823 0.1250 41
0 G5 52.0990 52.1198 0.0208 37
0 F#6 52.1094 52.1823 0.0729 37
0 C#4 52.1146 52.1458 0.0312 15
0 F#5 52.1146 52.1719 0.0573 28
0 C6 52.1198 52.1979 0.0781 54
0 D#5 52.1302 52.1823 0.0521 45
0 G#5 52.1302 52.1823 0.0521 55
0 G#3 52.1458 52.1823 0.0365 42
0 C#6 52.1458 52.1823 0.0365 21
0 G6 52.1615 52.2188 0.0573 22
0 A5 52.1719 52.2083 0.0365 21
0 B5 52.1719 52.2292 0.0573 53
0 F6 52.1719 52.2292 0.0573 35
0 C4 52.1719 52.2500 0.0781 20
0 D5 52.1823 52.2292 0.0469 51
0 G5 52.1823 52.2292 0.0469 61
0 G3 52.1823 52.2500 0.0677 45
0 E5 52.2083 52.2917 0.0833 36
0 A5 52.2188 52.3333 0.1146 21
0 F#4 52.2292 52.2604 0.0312 46
0 C#5 52.2292 52.2708 0.0417 55
0 A#5 52.2292 52.2708 0.0417 20
0 F3 52.2604 52.3073 0.0469 46
0 C5 52.2604 52.3073 0.0469 39
0 A4 52.2708 52.3073 0.0365 24
0 B5 52.2708 52.3490 0.0781 16
0 C#4 52.2917 52.3333 0.0417 14
0 D5 52.3073 52.3490 0.0417 39
0 G#4 52.3177 52.3490 0.0312 53
0 G#3 52.3177 52.3646 0.0469 45
0 E5 52.3177 52.4844 0.1667 32
0 D4 52.3333 52.4583 0.1250 36
0 A4 52.3490 52.4844 0.1354 70
0 G6 52.3646 52.4583 0.0938 23
0 A3 52.3646 52.4844 0.1198 54
0 F#7 52.3906 52.4583 0.0677 17
0 G#5 52.4479 52.4948 0.0469 11
0 C#4 52.4583 52.5469 0.0885 43
0 A#4 52.4844 52.5104 0.0260 67
0 A#3 52.4844 52.5260 0.0417 43
0 F5 52.4948 52.5260 0.0312 53
0 A5 52.4948 52.5729 0.0781 66
0 G6 52.4948 52.6979 0.2031 43
0 D5 52.5104 52.5469 0.0365 38
0 C#6 52.5104 52.5573 0.0469 29
0 E6 52.5104 52.5729 0.0625 53
0 A4 52.5104 52.5885 0.0781 45
0 A3 52.5260 52.5885 0.0625 36
0 E5 52.5260 52.5885 0.0625 57
0 G#5 52.5260 52.5990 0.0729 59
0 D6 52.5469 52.5885 0.0417 17
0 B5 52.5469 52.6250 0.0781 55
0 D#6 52.5729 52.6719 0.0990 57
0 G#3 52.5885 52.6094 0.0208 34
0 G5 52.5990 52.6250 0.0260 52
0 E6 52.5990 52.6458 0.0469 32
0 D5 52.5990 52.6458 0.0469 37
0 A#4 52.6250 52.6562 0.0312 9
0 F3 52.6354 52.6719 0.0365 31
0 F5 52.6354 52.6719 0.0365 37
0 C6 52.6354 52.6719 0.0365 18
0 A5 52.6354 52.7448 0.1094 52
0 E6 52.6719 52.7083 0.0365 14
0 D5 52.6719 52.7344 0.0625 45
0 G5 52.6875 52.7083 0.0208 34
0 G4 52.6875 52.7083 0.0208 33
0 C#4 52.6875 52.7083 0.0208 30
0 G#3 52.6979 52.7448 0.0469 55
0 A4 52.6979 52.8073 0.1094 46
0 D4 52.7083 52.8073 0.0990 43
0 E5 52.7344 52.8073 0.0729 35
0 A3 52.7448 52.8177 0.0729 60
0 F7 52.7604 52.8177 0.0573 18
0 G#4 52.8073 52.8490 0.0417 41
0 G#3 52.8177 52.8490 0.0312 57
0 E5 52.8177 52.8490 0.0312 31
0 C#4 52.8177 52.8698 0.0521 30
0 G6 52.8177 52.9010 0.0833 38
0 A4 52.8281 52.8594 0.0312 37
0 D#5 52.8490 52.8698 0.0208 42
0 G4 52.8490 52.8802 0.0312 45
0 A6 52.8594 52.9115 0.0521 31
0 A4 52.8698 52.8906 0.0208 59
0 E5 52.8698 52.8906 0.0208 48
0 F5 52.8906 52.9115 0.0208 33
0 G#4 52.8906 52.9271 0.0365 32
0 G7 52.9531 52.9844 0.0312 18
0 G#3 52.9740 53.0156 0.0417 44
0 D7 53.0052 53.1302 0.1250 37
0 A4 53.0156 53.1667 0.1510 60
0 A3 53.0156 53.1771 0.1615 52
0 F#7 53.0260 53.0938 0.0677 16
0 C7 53.0260 53.1198 0.0938 46
0 B6 53.0260 53.2240 0.1979 52
0 A6 53.0365 53.1562 0.1198 16
0 E7 53.0365 53.2344 0.1979 23
0 D5 53.0521 53.1302 0.0781 53
0 E5 53.0521 53.1302 0.0781 28
0 D4 53.0521 53.1562 0.1042 34
0 G7 53.0625 53.1094 0.0469 12
0 C#7 53.0625 53.1562 0.0938 32
0 D#7 53.0938 53.1198 0.0260 30
0 D#4 53.1562 53.1875 0.0312 17
0 C7 53.1562 53.1979 0.0417 24
0 G4 53.1771 53.2135 0.0365 32
0 D7 53.1771 53.2240 0.0469 17
0 G3 53.1875 53.2135 0.0260 44
0 C4 53.1979 53.2240 0.0260 29
0 A4 53.1979 53.2344 0.0365 16
0 A#6 53.2135 53.2500 0.0365 16
0 C7 53.2240 53.2656 0.0417 15
0 C4 53.2344 53.2812 0.0469 44
0 D7 53.2500 53.3438 0.0938 24
0 F#5 53.2760 53.2917 0.0156 51
0 D#7 53.2760 53.3333 0.0573 20
0 B4 53.2812 53.3073 0.0260 59
0 B3 53.2812 53.3333 0.0521 50
0 G#6 53.2812 53.3333 0.0521 28
0 G6 53.2812 53.3333 0.0521 23
0 D6 53.2917 53.3333 0.0417 34
0 A#5 53.2917 53.3333 0.0417 27
0 F5 53.2917 53.3438 0.0521 67
0 D5 53.3073 53.3438 0.0365 25
0 A#4 53.3073 53.3438 0.0365 52
0 G#5 53.3073 53.3542 0.0469 19
0 C6 53.3177 53.3542 0.0365 19
0 A5 53.3177 53.4010 0.0833 51
0 C#6 53.3333 53.3698 0.0365 49
0 E6 53.3333 53.3802 0.0469 30
0 E5 53.3438 53.3802 0.0365 58
0 A3 53.3438 53.3906 0.0469 43
0 D6 53.3542 53.4479 0.0938 35
0 C6 53.3698 53.4479 0.0781 59
0 D#6 53.3698 53.5208 0.1510 50
0 G#4 53.3802 53.4479 0.0677 36
0 D#5 53.3802 53.4583 0.0781 55
0 G#5 53.3802 53.4583 0.0781 59
0 G#3 53.3906 53.4583 0.0677 39
0 F#6 53.3906 53.5104 0.1198 38
0 A5 53.4219 53.4740 0.0521 46
0 C#4 53.4375 53.4740 0.0365 13
0 C#6 53.4375 53.4844 0.0469 27
0 B5 53.4479 53.5000 0.0521 43
0 G4 53.4479 53.5104 0.0625 39
0 G3 53.4583 53.5000 0.0417 38
0 G5 53.4583 53.5000 0.0417 55
0 D5 53.4583 53.5208 0.0625 56
0 A#5 53.5000 53.5208 0.0208 35
0 F#5 53.5000 53.5469 0.0469 46
0 C#5 53.5104 53.5469 0.0365 36
0 F#4 53.5104 53.5573 0.0469 40
0 F3 53.5208 53.5573 0.0365 34
0 C#3 53.6562 53.6927 0.0365 16
0 C#4 53.6562 53.7031 0.0469 19
0 C4 53.8021 53.8438 0.0417 16
0 D#5 53.9375 53.9635 0.0260 51
0 G#4 53.9375 53.9740 0.0365 44
0 C6 53.9375 53.9844 0.0469 37
0 G3 53.9375 54.0156 0.0781 50
0 D5 53.9635 54.0052 0.0417 51
0 G5 53.9635 54.0052 0.0417 53
0 E6 53.9844 54.0365 0.0521 27
0 A#5 54.0052 54.0469 0.0417 29
0 C#5 54.0052 54.0625 0.0573 43
0 F#5 54.0052 54.0625 0.0573 40
0 F#3 54.0156 54.0625 0.0469 45
0 D#6 54.0365 54.0781 0.0417 16
0 F6 54.0469 54.0990 0.0521 20
0 G6 54.0469 54.1250 0.0781 24
0 A5 54.0469 54.1354 0.0885 44
0 F3 54.0625 54.1354 0.0729 48
0 C5 54.0625 54.1458 0.0833 57
0 F5 54.0625 54.1667 0.1042 48
0 E7 54.0781 54.1458 0.0677 20
0 B6 54.0990 54.1354 0.0365 12
0 D#7 54.0990 54.1458 0.0469 16
0 F#3 54.1354 54.1771 0.0417 49
0 F#4 54.1354 54.1979 0.0625 63
0 C#5 54.1458 54.1771 0.0312 51
0 D7 54.1458 54.4375 0.2917 42
0 D5 54.1771 54.1979 0.0208 31
0 C5 54.1771 54.2240 0.0469 15
0 G3 54.1771 54.3750 0.1979 59
0 G4 54.1979 54.3854 0.1875 65
0 C#7 54.2240 54.3594 0.1354 47
0 F#7 54.2344 54.2969 0.0625 21
0 D#7 54.2500 54.2865 0.0365 19
0 F7 54.2500 54.3073 0.0573 27
0 D5 54.2865 54.3385 0.0521 11
0 E7 54.2865 54.3490 0.0625 32
0 B6 54.3073 54.4427 0.1354 27
0 D#7 54.3490 54.4427 0.0938 32
0 C7 54.3594 54.4375 0.0781 27
0 F#3 54.3750 54.3958 0.0208 56
0 F3 54.3958 54.4219 0.0260 47
0 E4 54.4062 54.4375 0.0312 61
0 D3 54.4375 54.4583 0.0208 39
0 D#4 54.4375 54.5052 0.0677 61
0 G4 54.4583 54.6094 0.1510 29
0 E3 54.4688 54.5156 0.0469 44
0 G3 54.5208 54.5677 0.0469 45
0 G3 54.5833 54.6094 0.0260 52
0 F7 54.6458 54.7188 0.0729 22
0 F#7 54.6562 54.7292 0.0729 30
0 A3 54.7292 54.7552 0.0260 48
0 D#5 54.7448 54.7865 0.0417 67
0 G#3 54.7552 54.7760 0.0208 51
0 A#6 54.7552 54.7760 0.0208 41
0 G#4 54.7552 54.7760 0.0208 52
0 A6 54.7552 54.8021 0.0469 35
0 G6 54.7656 54.8021 0.0365 23
0 F#6 54.7656 54.8021 0.0365 11
0 C#7 54.7656 54.8125 0.0469 11
0 D#7 54.7656 54.8385 0.0729 17
0 G4 54.7760 54.8021 0.0260 35
0 G5 54.7760 54.8021 0.0260 49
0 D7 54.7760 54.8281 0.0521 25
0 E7 54.7760 54.8646 0.0885 16
0 C#6 54.7865 54.8125 0.0260 36
0 E6 54.7865 54.8125 0.0260 46
0 F#3 54.7865 54.8281 0.0417 38
0 C#5 54.8021 54.8281 0.0260 49
0 A5 54.8021 54.8385 0.0365 31
0 D6 54.8021 54.8646 0.0625 33
0 B5 54.8281 54.9271 0.0990 49
0 G#5 54.8281 54.9375 0.1094 36
0 E5 54.8281 54.9479 0.1198 61
0 B4 54.8385 54.9375 0.0990 56
0 E3 54.8385 54.9375 0.0990 42
0 D6 54.8750 54.9375 0.0625 34
0 F#4 54.9896 55.0417 0.0521 21
0 D3 55.0052 55.3542 0.3490 35
0 F#5 55.0052 55.4271 0.4219 63
0 D5 55.0052 55.5260 0.5208 54
0 D4 55.0052 55.5365 0.5312 46
0 C6 55.0208 55.0677 0.0469 36
0 F7 55.0208 55.2448 0.2240 17
0 E6 55.0208 55.4427 0.4219 43
0 D6 55.0208 55.6042 0.5833 55
0 E5 55.0312 55.1042 0.0729 37
0 A5 55.0312 55.4635 0.4323 56
0 A4 55.0312 55.5104 0.4792 34
0 B5 55.0521 55.0938 0.0417 46
0 F#7 55.0677 55.3906 0.3229 26
0 F4 55.0833 55.2448 0.1615 21
0 C6 55.0938 55.4427 0.3490 49
0 G7 55.1510 55.3281 0.1771 13
0 D3 55.3646 55.5260 0.1615 17
0 F#7 55.4271 55.4740 0.0469 16
0 F7 55.4271 55.4896 0.0625 28
0 F#5 55.4427 55.5521 0.1094 20
0 G5 55.4531 55.4896 0.0365 14
0 A5 55.5104 55.6875 0.1771 16
0 D5 55.5885 55.6458 0.0573 11
0 F#7 55.8750 56.1458 0.2708 40
0 F7 55.9635 56.0156 0.0521 18
0 G7 55.9792 56.0625 0.0833 31
0 G#3 56.0052 56.0260 0.0208 43
0 C7 56.0156 56.0521 0.0365 31
0 G3 56.0260 56.0625 0.0365 63
0 C#4 56.0260 56.0729 0.0469 27
0 F4 56.0260 56.0938 0.0677 57
0 G#4 56.0260 56.1042 0.0781 35
0 C#7 56.0260 56.1823 0.1562 32
0 D#5 56.0417 56.0938 0.0521 19
0 A3 56.0625 56.1042 0.0417 32
0 C7 56.0625 56.1146 0.0521 27
0 E3 56.0938 56.1146 0.0208 35
0 E4 56.0938 56.1250 0.0312 60
0 G#3 56.1042 56.1250 0.0208 47
0 G4 56.1042 56.1250 0.0208 30
0 G3 56.1250 56.1458 0.0208 44
0 D7 56.1250 56.2083 0.0833 35
0 B6 56.1458 56.1979 0.0521 21
0 A3 56.1562 56.2083 0.0521 53
0 E7 56.1562 56.2292 0.0729 22
0 D#7 56.1719 56.2708 0.0990 35
0 A3 56.2188 56.2812 0.0625 45
0 E4 56.2448 56.2812 0.0365 56
0 E3 56.2448 56.2812 0.0365 41
0 F#4 56.2969 56.3125 0.0156 48
0 G3 56.3073 56.3229 0.0156 63
0 D#7 56.3125 56.3542 0.0417 18
0 G#3 56.3229 56.3542 0.0312 61
0 G3 56.3542 56.3750 0.0208 41
0 C#7 56.3750 56.4167 0.0417 16
0 F#7 56.3750 56.4531 0.0781 22
0 A#6 56.3854 56.5052 0.1198 37
0 D7 56.3854 56.5417 0.1562 25
0 D#7 56.4010 56.4375 0.0365 29
0 F7 56.4010 56.4844 0.0833 15
0 C7 56.4271 56.4635 0.0365 21
0 C#7 56.4375 56.4844 0.0469 24
0 B6 56.4375 56.5052 0.0677 22
0 G3 56.4844 56.5208 0.0365 33
0 G4 56.4844 56.6198 0.1354 59
0 G6 56.5208 56.5938 0.0729 13
0 D#7 56.5208 56.5938 0.0729 23
0 G3 56.5312 56.5677 0.0365 50
0 D6 56.5417 56.5938 0.0521 13
0 A4 56.5417 56.6771 0.1354 42
0 E6 56.5417 56.6771 0.1354 20
0 D5 56.5521 56.5938 0.0417 38
0 A6 56.5521 56.6042 0.0521 21
0 E7 56.5521 56.6771 0.1250 44
0 F#3 56.5677 56.5938 0.0260 43
0 C#5 56.5938 56.6979 0.1042 55
0 F#3 56.6042 56.6406 0.0365 42
0 G#6 56.6042 56.6979 0.0938 39
0 F#4 56.6198 56.6979 0.0781 57
0 G6 56.6302 56.6875 0.0573 20
0 E5 56.6302 56.6979 0.0677 41
0 F#6 56.6406 56.6979 0.0573 27
0 F7 56.6406 56.7708 0.1302 37
0 F#3 56.6510 56.6875 0.0365 39
0 D#7 56.6771 56.7344 0.0573 30
0 G#5 56.6875 56.7188 0.0312 24
0 F3 56.6875 56.7448 0.0573 37
0 E7 56.6875 56.7448 0.0573 37
0 F5 56.6875 56.7708 0.0833 48
0 F4 56.6979 56.7604 0.0625 43
0 C5 56.6979 56.7708 0.0729 68
0 G6 56.6979 56.7917 0.0938 42
0 A6 56.7188 56.7448 0.0260 29
0 D#5 56.7344 56.7604 0.0260 35
0 F#7 56.7344 56.7917 0.0573 12
0 D6 56.7344 56.7917 0.0573 10
0 A#6 56.7448 56.7917 0.0469 13
0 C#7 56.7448 56.7917 0.0469 16
0 B5 56.7448 56.8021 0.0573 23
0 G#6 56.7448 56.8021 0.0573 34
0 D#7 56.7448 56.8021 0.0573 34
0 D5 56.7604 56.7917 0.0312 33
0 E5 56.7708 56.7917 0.0208 47
0 E3 56.7708 56.8021 0.0312 37
0 B4 56.7708 56.8021 0.0312 53
0 E7 56.7708 56.8542 0.0833 32
0 F#4 56.7865 56.8125 0.0260 32
0 A6 56.7917 56.8281 0.0365 11
0 A#4 56.7917 56.8438 0.0521 44
0 C5 56.8021 56.8438 0.0417 31
0 E4 56.8281 56.8646 0.0365 52
0 F7 56.8281 56.8646 0.0365 28
0 B6 56.8281 56.8802 0.0521 41
0 E3 56.8438 56.8646 0.0208 39
0 A6 56.8438 56.8646 0.0208 36
0 B4 56.8438 56.8802 0.0365 49
0 F3 56.8646 56.9010 0.0365 35
0 C5 56.8802 56.9115 0.0312 17
0 A#4 56.8802 56.9115 0.0312 29
0 E4 56.8802 56.9271 0.0469 23
0 C5 57.0104 57.0417 0.0312 34
0 F#7 57.0104 57.0521 0.0417 22
0 A#4 57.0104 57.0625 0.0521 49
0 C7 57.0104 57.0729 0.0625 36
0 E5 57.0260 57.0521 0.0260 48
0 G#5 57.0260 57.0625 0.0365 26
0 D7 57.0260 57.0729 0.0469 22
0 A#6 57.0417 57.0729 0.0312 27
0 A6 57.0417 57.0729 0.0312 16
0 F#5 57.0417 57.0885 0.0469 61
0 D#7 57.0417 57.0990 0.0573 28
0 G6 57.0417 57.1094 0.0677 26
0 D3 57.0417 57.1823 0.1406 35
0 D4 57.0417 57.2083 0.1667 37
0 D5 57.0417 57.2396 0.1979 63
0 F5 57.0521 57.0729 0.0208 46
0 B5 57.0521 57.1094 0.0573 28
0 E7 57.0521 57.1198 0.0677 29
0 A4 57.0521 57.2083 0.1562 34
0 D#6 57.0625 57.0990 0.0365 36
0 A5 57.0625 57.2188 0.1562 47
0 C#6 57.0729 57.0990 0.0260 38
0 C5 57.0990 57.2083 0.1094 37
0 C6 57.0990 57.2188 0.1198 49
0 F5 57.1094 57.1719 0.0625 51
0 F#5 57.1198 57.2188 0.0990 49
0 D3 57.1979 57.2396 0.0417 27
0 G6 57.2917 57.4844 0.1927 32
0 F#5 57.3073 57.3438 0.0365 13
0 D4 57.3073 57.4115 0.1042 47
0 A#4 57.3177 57.3594 0.0417 56
0 G4 57.3177 57.3594 0.0417 29
0 D#7 57.3177 57.3698 0.0521 17
0 E6 57.3177 57.4583 0.1406 33
0 E7 57.3177 57.5260 0.2083 35
0 D3 57.3333 57.3594 0.0260 40
0 A4 57.3438 57.4271 0.0833 55
0 F#4 57.3594 57.3958 0.0365 32
0 C#5 57.3594 57.4375 0.0781 45
0 D3 57.3698 57.4115 0.0417 39
0 F6 57.3958 57.4844 0.0885 36
0 C#3 57.4115 57.4375 0.0260 37
0 C#4 57.4115 57.4375 0.0260 40
0 D5 57.4271 57.4583 0.0312 58
0 D3 57.4375 57.4583 0.0208 42
0 A4 57.4375 57.4583 0.0208 47
0 C5 57.4375 57.4583 0.0208 32
0 F#4 57.4375 57.4740 0.0365 22
0 F#6 57.4740 57.5104 0.0365 30
0 C5 57.4844 57.5104 0.0260 50
0 F3 57.4844 57.5260 0.0417 31
0 F5 57.4844 57.5417 0.0573 45
0 C#5 57.5104 57.5521 0.0417 41
0 D5 57.5260 57.5729 0.0469 34
0 B4 57.5417 57.5729 0.0312 25
0 G4 57.5417 57.5990 0.0573 17
0 F5 57.5521 57.5885 0.0365 40
0 C#5 57.5625 57.5990 0.0365 15
0 F#3 57.5625 57.6094 0.0469 21
0 E5 57.5729 57.6875 0.1146 45
0 D5 57.5885 57.6354 0.0469 17
0 A4 57.5885 57.6354 0.0469 27
0 E4 57.6198 57.6562 0.0365 14
0 C#6 57.6354 57.6719 0.0365 14
0 F6 57.6719 57.7344 0.0625 16
0 A#4 57.6719 57.7656 0.0938 29
0 C#5 57.6979 57.7552 0.0573 21
0 E5 57.7344 57.7656 0.0312 30
0 G#3 57.7396 57.7656 0.0260 32
0 D5 57.7552 57.7917 0.0365 60
0 G3 57.7656 57.7917 0.0260 51
0 G5 57.7656 57.7917 0.0260 50
0 G#6 57.7760 57.8125 0.0365 33
0 F#3 57.7917 57.8125 0.0208 49
0 C#5 57.7917 57.8125 0.0208 56
0 F#5 57.7917 57.8125 0.0208 58
0 A5 57.7917 57.8438 0.0521 35
0 E7 57.7917 57.8646 0.0729 26
0 B6 57.8021 57.8229 0.0208 32
0 A6 57.8021 57.8438 0.0417 41
0 D#7 57.8021 57.8646 0.0625 21
0 C#7 57.8021 57.8750 0.0729 26
0 F3 57.8125 57.8438 0.0312 54
0 C5 57.8125 57.8438 0.0312 46
0 D7 57.8125 57.8542 0.0417 19
0 A#6 57.8125 57.8646 0.0521 40
0 F7 57.8125 57.8646 0.0521 16
0 E5 57.8229 57.8646 0.0417 60
0 G#5 57.8229 57.8750 0.0521 25
0 E3 57.8438 57.8646 0.0208 51
0 B4 57.8438 57.8646 0.0208 46
0 B6 57.8438 57.8750 0.0312 35
0 A6 57.8542 57.8750 0.0208 30
0 D#5 57.8646 57.8854 0.0208 38
0 D#3 57.8646 57.8958 0.0312 40
0 A#4 57.8646 57.8958 0.0312 48
0 F7 57.9479 57.9792 0.0312 13
0 A#6 58.0104 58.0625 0.0521 9
0 A3 58.0312 58.2396 0.2083 46
0 A5 58.0521 58.0885 0.0365 42
0 F6 58.0521 58.1042 0.0521 36
0 G6 58.0521 58.1927 0.1406 38
0 E6 58.0521 58.2031 0.1510 63
0 E5 58.0521 58.2292 0.1771 55
0 C#6 58.0625 58.2031 0.1406 53
0 D#7 58.0885 58.1823 0.0938 16
0 A5 58.1042 58.2031 0.0990 67
0 F#6 58.1927 58.2292 0.0365 39
0 B6 58.1927 58.2292 0.0365 13
0 G#5 58.2031 58.2292 0.0260 44
0 C6 58.2031 58.2396 0.0365 41
0 D#5 58.2292 58.2500 0.0208 34
0 A#3 58.2396 58.2812 0.0417 48
0 C#4 58.2708 58.3125 0.0417 65
0 A5 58.2812 58.3281 0.0469 17
0 F7 58.3490 58.3958 0.0469 16
0 A#6 58.3750 58.4271 0.0521 16
0 F6 58.4740 58.4948 0.0208 36
0 D5 58.4740 58.4948 0.0208 31
0 G#5 58.4740 58.5521 0.0781 61
0 C6 58.4844 58.5417 0.0573 53
0 D#6 58.4844 58.5521 0.0677 50
0 G#3 58.4844 58.5521 0.0677 35
0 F#6 58.4948 58.5417 0.0469 48
0 D#5 58.4948 58.5521 0.0573 35
0 F6 58.5417 58.5990 0.0573 46
0 A5 58.5417 58.5990 0.0573 24
0 B5 58.5417 58.5990 0.0573 52
0 G5 58.5521 58.5885 0.0365 53
0 D5 58.5521 58.5990 0.0469 40
0 G3 58.5521 58.6094 0.0573 36
0 D6 58.5521 58.6094 0.0573 45
0 E6 58.5677 58.6354 0.0677 23
0 F#5 58.5885 58.6198 0.0312 49
0 F#4 58.5990 58.6198 0.0208 39
0 C#5 58.5990 58.6354 0.0365 48
0 A#5 58.5990 58.6354 0.0365 21
0 G3 58.6198 58.7396 0.1198 46
0 G4 58.6198 58.7396 0.1198 63
0 E4 58.6354 58.6719 0.0365 9
0 D5 58.6354 58.6927 0.0573 38
0 B6 58.6562 58.6927 0.0365 15
0 F7 58.6562 58.7396 0.0833 24
0 A6 58.6719 58.7240 0.0521 13
0 C#7 58.7031 58.8021 0.0990 38
0 D7 58.7135 58.7656 0.0521 13
0 G#5 58.7240 58.7656 0.0417 11
0 G#4 58.7396 58.7656 0.0260 60
0 A3 58.7552 58.8594 0.1042 53
0 E6 58.7656 58.8125 0.0469 21
0 A4 58.7656 58.8594 0.0938 62
0 E5 58.7760 58.8438 0.0677 24
0 C#6 58.7917 58.8229 0.0312 25
0 A#4 58.8594 58.8802 0.0208 43
0 C5 58.8698 58.9062 0.0365 55
0 E6 58.8802 58.9219 0.0417 33
0 A4 58.9219 58.9583 0.0365 23
0 A3 58.9583 58.9792 0.0208 38
0 G#3 58.9792 59.0312 0.0521 54
0 A4 58.9896 59.5104 0.5208 57
0 F7 59.0104 59.0990 0.0885 25
0 A5 59.0104 59.5208 0.5104 64
0 D#6 59.0208 59.0417 0.0208 40
0 C6 59.0208 59.0417 0.0208 30
0 E5 59.0208 59.4844 0.4635 59
0 G6 59.0312 59.4271 0.3958 21
0 E6 59.0312 59.4583 0.4271 60
0 C#6 59.0312 59.4688 0.4375 57
0 A3 59.0312 59.5208 0.4896 48
0 F#7 59.0990 59.1354 0.0365 20
0 F7 59.1354 59.1875 0.0521 27
0 F#7 59.1875 59.2448 0.0573 29
0 F7 59.2448 59.3646 0.1198 20
0 F7 59.4427 59.5000 0.0573 36
0 E5 59.5365 59.5833 0.0469 13
0 A5 59.5365 59.6823 0.1458 23
0 F#3 59.5469 59.5729 0.0260 43
0 A5 59.7083 59.8281 0.1198 18
0 A3 59.8802 59.9010 0.0208 30
0 A5 59.8906 59.9271 0.0365 9
0 A#3 59.9010 59.9271 0.0260 33
0 E4 59.9479 59.9740 0.0260 49
0 F#6 59.9479 60.0365 0.0885 18
0 D5 59.9479 60.2083 0.2604 67
0 A#5 59.9583 59.9844 0.0260 37
0 D#4 59.9740 59.9948 0.0208 52
0 C#6 59.9740 60.0365 0.0625 27
0 A5 59.9844 60.1875 0.2031 47
0 F4 59.9948 60.0260 0.0312 33
0 C6 59.9948 60.0573 0.0625 33
0 E7 59.9948 60.1562 0.1615 19
0 F5 60.0260 60.1250 0.0990 36
0 F#7 60.0365 60.1667 0.1302 41
0 D4 60.0365 60.1667 0.1302 51
0 F4 60.0573 60.1042 0.0469 33
0 F4 60.1146 60.2083 0.0938 35
0 F7 60.1667 60.1979 0.0312 31
0 C#4 60.1667 60.1979 0.0312 58
0 C6 60.1667 60.2344 0.0677 42
0 C4 60.1979 60.2188 0.0208 51
0 C#6 60.2083 60.2448 0.0365 34
0 C5 60.2083 60.2552 0.0469 70
0 F#5 60.2188 60.2552 0.0365 34
0 F4 60.2188 60.2656 0.0469 20
0 C#4 60.2188 60.3073 0.0885 47
0 D#7 60.2188 60.3958 0.1771 41
0 B5 60.2344 60.2552 0.0208 36
0 E6 60.2344 60.2552 0.0208 38
0 F6 60.2344 60.2812 0.0469 27
0 D7 60.2448 60.2969 0.0521 13
0 G6 60.2448 60.3281 0.0833 20
0 G#6 60.2448 60.3281 0.0833 41
0 A#4 60.2552 60.2812 0.0260 65
0 A#6 60.2552 60.2812 0.0260 44
0 F5 60.2552 60.2969 0.0417 38
0 C#5 60.2552 60.3177 0.0625 52
0 C#7 60.2656 60.5573 0.2917 43
0 B6 60.2656 60.5938 0.3281 53
0 E7 60.2656 60.6250 0.3594 37
0 E6 60.2812 60.3698 0.0885 12
0 A3 60.2812 60.4792 0.1979 53
0 A4 60.2812 60.5938 0.3125 73
0 A6 60.2812 60.6146 0.3333 59
0 A#6 60.2969 60.3490 0.0521 11
0 E5 60.2969 60.4583 0.1615 38
0 D5 60.3073 60.3281 0.0208 45
0 F7 60.3073 60.3802 0.0729 24
0 C#4 60.3281 60.3698 0.0417 31
0 C#5 60.3281 60.3698 0.0417 33
0 C7 60.3281 60.3802 0.0521 21
0 F4 60.3281 60.4167 0.0885 15
0 D7 60.3594 60.4688 0.1094 41
0 D4 60.3698 60.3958 0.0260 35
0 D5 60.3698 60.4167 0.0469 35
0 C#4 60.4167 60.4688 0.0521 39
0 F7 60.4323 60.4896 0.0573 26
0 D4 60.4688 60.4896 0.0208 37
0 D#7 60.4688 60.5417 0.0729 28
0 C#6 60.4688 60.5938 0.1250 20
0 D#5 60.4896 60.5312 0.0417 43
0 F#7 60.4896 60.5312 0.0417 25
0 G6 60.4896 60.5781 0.0885 25
0 A#6 60.5104 60.5781 0.0677 38
0 E5 60.5104 60.6146 0.1042 50
0 C5 60.5104 60.6146 0.1042 32
0 F#5 60.5208 60.5573 0.0365 17
0 A#3 60.5208 60.5938 0.0729 53
0 F7 60.5312 60.6562 0.1250 22
0 D#7 60.5573 60.6250 0.0677 17
0 G#6 60.5677 60.6146 0.0469 14
0 A#4 60.5938 60.6250 0.0312 47
0 B3 60.5938 60.6250 0.0312 55
0 D#5 60.6146 60.6458 0.0312 14
0 D4 60.6250 60.6458 0.0208 58
0 C5 60.6250 60.6562 0.0312 29
0 C#4 60.6458 60.6562 0.0104 66
0 F4 60.6562 60.6875 0.0312 29
0 F#7 60.6562 60.6927 0.0365 12
0 D4 60.6562 60.7500 0.0938 69
0 E7 60.6719 60.7188 0.0469 22
0 A4 60.6719 60.7188 0.0469 13
0 A#3 60.6875 60.7188 0.0312 51
0 A6 60.6927 60.7292 0.0365 12
0 A4 60.7396 60.7812 0.0417 11
0 C#4 60.7500 60.7812 0.0312 42
0 E5 60.7917 60.8906 0.0990 25
0 E4 60.8125 60.8802 0.0677 31
0 F4 60.8802 60.9427 0.0625 30
0 G#5 60.9323 60.9583 0.0260 18
0 D5 60.9323 60.9948 0.0625 41
0 F6 60.9323 61.1146 0.1823 68
0 A#5 60.9427 60.9583 0.0156 36
0 C#6 60.9427 60.9688 0.0260 32
0 F#6 60.9479 60.9844 0.0365 44
0 D6 60.9479 61.0156 0.0677 56
0 D4 60.9583 60.9948 0.0365 44
0 F5 60.9583 61.0156 0.0573 21
0 A5 60.9583 61.0156 0.0573 57
0 G6 60.9688 61.0469 0.0781 41
0 C#5 60.9844 61.0938 0.1094 68
0 G#6 60.9948 61.0938 0.0990 60
0 C#4 60.9948 61.1042 0.1094 45
0 F#5 61.0156 61.0677 0.0521 29
0 F#6 61.0156 61.0677 0.0521 38
0 G#5 61.0156 61.0938 0.0781 61
0 D#7 61.0260 61.0833 0.0573 28
0 B6 61.0365 61.1146 0.0781 43
0 A5 61.0469 61.0677 0.0208 30
0 A#6 61.0469 61.1458 0.0990 32
0 F5 61.0677 61.0938 0.0260 33
0 A6 61.0677 61.1042 0.0365 27
0 C7 61.0677 61.1823 0.1146 55
0 C6 61.0833 61.1146 0.0312 24
0 E7 61.0833 61.1562 0.0729 23
0 D7 61.0833 61.1719 0.0885 40
0 E5 61.0938 61.1146 0.0208 44
0 C5 61.0938 61.2083 0.1146 69
0 C4 61.1042 61.1458 0.0417 54
0 C#7 61.1042 61.1562 0.0521 16
0 D#5 61.1146 61.1458 0.0312 38
0 D#7 61.1354 61.1719 0.0365 12
0 A#4 61.1354 61.1979 0.0625 26
0 B3 61.1458 61.1719 0.0260 53
0 A#3 61.1719 61.1979 0.0260 42
0 C#6 61.1979 61.2292 0.0312 10
0 C#5 61.2448 61.2812 0.0365 10
0 C7 61.2604 61.2969 0.0365 13
0 A6 61.2969 61.3281 0.0312 19
0 G7 61.2969 61.3281 0.0312 21
0 C4 61.3073 61.3698 0.0625 40
0 F#7 61.3073 61.3698 0.0625 20
0 B6 61.3073 61.3906 0.0833 19
0 F7 61.3177 61.4062 0.0885 27
0 F4 61.3438 61.3698 0.0260 35
0 D#7 61.3438 61.3802 0.0365 23
0 G#6 61.3438 61.3802 0.0365 18
0 A6 61.3594 61.3906 0.0312 36
0 D#5 61.3594 61.4062 0.0469 18
0 C7 61.3594 61.4167 0.0573 31
0 F5 61.3698 61.4062 0.0365 12
0 A#6 61.3802 61.4062 0.0260 57
0 F#6 61.3802 61.4583 0.0781 22
0 D4 61.3802 61.6250 0.2448 59
0 D#7 61.3906 61.4635 0.0729 19
0 E7 61.3906 61.5156 0.1250 22
0 A5 61.3906 61.6250 0.2344 29
0 D7 61.4062 61.4635 0.0573 21
0 F4 61.4062 61.5260 0.1198 39
0 D5 61.4062 61.6146 0.2083 61
0 A6 61.4062 61.9062 0.5000 70
0 F7 61.4167 61.4740 0.0573 28
0 B6 61.4167 61.4948 0.0781 42
0 C7 61.4323 61.4635 0.0312 28
0 F#7 61.4635 61.5990 0.1354 25
0 F#6 61.4635 61.6146 0.1510 23
0 C7 61.4948 61.6927 0.1979 34
0 B6 61.5469 61.6146 0.0677 34
0 F4 61.5729 61.5990 0.0260 32
0 D7 61.5729 61.6406 0.0677 20
0 E7 61.5990 61.6406 0.0417 12
0 A#6 61.6146 61.6667 0.0521 19
0 C#5 61.6146 61.7135 0.0990 58
0 G#5 61.6250 61.6667 0.0417 10
0 F7 61.6250 61.7135 0.0885 21
0 D5 61.6406 61.6823 0.0417 24
0 C#4 61.6406 61.7917 0.1510 68
0 G#5 61.6927 61.7812 0.0885 50
0 A#6 61.6927 61.7917 0.0990 17
0 D5 61.7135 61.7552 0.0417 66
0 B6 61.7344 61.7656 0.0312 10
0 C#6 61.7344 61.7812 0.0469 38
0 F6 61.7344 61.8021 0.0677 58
0 D#7 61.7448 61.7812 0.0365 15
0 C5 61.7812 61.8021 0.0208 50
0 G5 61.7812 61.8021 0.0208 54
0 C4 61.7917 61.8125 0.0208 44
0 D5 61.7917 61.8229 0.0312 11
0 B4 61.8021 61.8385 0.0365 50
0 F#5 61.8021 61.8385 0.0365 57
0 D#6 61.8021 61.8490 0.0469 41
0 B3 61.8125 61.8385 0.0260 52
0 F4 61.8125 61.8594 0.0469 15
0 A#3 61.8385 61.8594 0.0208 49
0 F5 61.8385 61.8594 0.0208 46
0 F4 61.8698 61.9375 0.0677 11
0 C#4 61.8958 61.9583 0.0625 18
0 A4 62.0104 62.1302 0.1198 44
0 A5 62.0104 62.2240 0.2135 50
0 C#6 62.0208 62.1510 0.1302 49
0 E5 62.0208 62.1771 0.1562 69
0 A3 62.0312 62.2344 0.2031 61
0 G6 62.0677 62.1510 0.0833 42
0 F7 62.1198 62.2344 0.1146 27
0 G#4 62.1302 62.1615 0.0312 36
0 E5 62.2031 62.2396 0.0365 17
0 E5 62.2812 62.3177 0.0365 15
0 A3 62.3698 62.3906 0.0208 43
0 A#5 62.3802 62.4219 0.0417 54
0 F5 62.3802 62.4323 0.0521 43
0 D6 62.3906 62.4323 0.0417 36
0 B3 62.4010 62.4323 0.0312 46
0 F#6 62.4010 62.4844 0.0833 48
0 E7 62.4010 62.4948 0.0938 22
0 G#6 62.4010 62.5260 0.1250 51
0 B5 62.4219 62.4740 0.0521 64
0 C#7 62.4219 62.4844 0.0625 25
0 B4 62.4323 62.4740 0.0417 30
0 F#5 62.4323 62.4740 0.0417 51
0 B3 62.4479 62.4740 0.0260 44
0 D6 62.4583 62.5104 0.0521 19
0 A#3 62.4740 62.5260 0.0521 42
0 F5 62.4740 62.5260 0.0521 53
0 A#5 62.4740 62.5365 0.0625 51
0 A3 62.5260 62.5521 0.0260 41
0 A4 62.5260 62.5521 0.0260 43
0 E5 62.5260 62.5521 0.0260 54
0 B6 62.5260 62.5625 0.0365 32
0 C7 62.5469 62.5781 0.0312 20
0 C#7 62.5469 62.5781 0.0312 14
0 G#3 62.5521 62.5781 0.0260 42
0 D#5 62.5521 62.5781 0.0260 33
0 G#4 62.5521 62.5938 0.0417 48
0 F#7 62.5990 62.7135 0.1146 30
0 G7 62.6094 62.7135 0.1042 20
0 G3 62.7292 62.7656 0.0365 10
0 F4 62.7552 62.7760 0.0208 49
0 E3 62.7552 62.8125 0.0573 36
0 F#4 62.7760 62.8125 0.0365 66
0 B6 62.7760 62.8542 0.0781 26
0 A6 62.7917 62.8646 0.0729 35
0 A#4 62.7917 62.8646 0.0729 63
0 D#5 62.8021 62.8229 0.0208 29
0 E4 62.8021 62.8229 0.0208 36
0 C#7 62.8021 62.8438 0.0417 15
0 F#5 62.8125 62.8542 0.0417 14
0 G#6 62.8125 62.8750 0.0625 20
0 D#7 62.8125 62.9010 0.0885 15
0 D7 62.8125 62.9844 0.1719 31
0 D#4 62.8229 62.8646 0.0417 24
0 A#6 62.8438 62.8906 0.0469 37
0 F#4 62.8542 62.8750 0.0208 39
0 C#7 62.8542 62.9844 0.1302 31
0 C5 62.8646 62.8906 0.0260 38
0 F3 62.8646 62.9010 0.0365 47
0 E7 62.9375 62.9844 0.0469 26
0 G#6 62.9375 62.9844 0.0469 12
0 F7 62.9531 62.9844 0.0312 17
0 D#7 62.9531 62.9844 0.0312 21
0 A6 62.9531 63.0260 0.0729 24
0 A#4 62.9635 63.0052 0.0417 11
0 B6 62.9635 63.0052 0.0417 20
0 A#6 63.0208 63.1354 0.1146 18
0 F#5 63.0260 63.1458 0.1198 51
0 F3 63.0365 63.0625 0.0260 44
0 E6 63.0365 63.1250 0.0885 63
0 C#6 63.0365 63.1458 0.1094 45
0 G#6 63.0365 63.1667 0.1302 31
0 F#4 63.0521 63.0885 0.0365 26
0 A#5 63.0521 63.1354 0.0833 60
0 D5 63.0625 63.0885 0.0260 39
0 F#3 63.0625 63.1458 0.0833 44
0 C7 63.0625 63.1875 0.1250 26
0 C#5 63.0885 63.1458 0.0573 41
0 B6 63.1250 63.1667 0.0417 17
0 D#6 63.1250 63.1875 0.0625 58
0 A5 63.1354 63.1875 0.0521 55
0 F6 63.1354 63.1979 0.0625 54
0 F3 63.1458 63.1979 0.0521 34
0 C5 63.1458 63.1979 0.0521 31
0 F5 63.1458 63.1979 0.0521 52
0 C6 63.1458 63.1979 0.0521 45
0 G6 63.1458 63.1979 0.0521 18
0 A#6 63.1667 63.2240 0.0573 16
0 G#5 63.1875 63.2240 0.0365 50
0 D6 63.1875 63.2240 0.0365 53
0 B6 63.1875 63.2344 0.0469 22
0 B5 63.1979 63.2240 0.0260 48
0 E3 63.1979 63.2344 0.0365 33
0 B4 63.1979 63.2344 0.0365 28
0 E5 63.1979 63.2344 0.0365 50
0 E6 63.1979 63.2344 0.0365 54
0 F#6 63.1979 63.2344 0.0365 32
0 A6 63.2083 63.2448 0.0365 14
0 C7 63.2083 63.2760 0.0677 26
0 G5 63.2240 63.2552 0.0312 50
0 C#6 63.2240 63.2552 0.0312 47
0 A#5 63.2240 63.2760 0.0521 49
0 D#3 63.2344 63.2760 0.0417 28
0 A#4 63.2344 63.2969 0.0625 21
0 D#5 63.2344 63.2969 0.0625 44
0 D#4 63.2344 63.3073 0.0729 32
0 F6 63.2344 63.3073 0.0729 49
0 G#6 63.2448 63.2969 0.0521 19
0 B6 63.2448 63.3438 0.0990 17
0 C6 63.2552 63.2865 0.0312 30
0 F#5 63.2552 63.2969 0.0417 43
0 A5 63.2760 63.2969 0.0208 40
0 G6 63.2760 63.3177 0.0417 20
0 A#6 63.2760 63.3646 0.0885 22
0 A#5 63.2865 63.3073 0.0208 31
0 E6 63.2865 63.3958 0.1094 61
0 F3 63.3073 63.3333 0.0260 30
0 A5 63.3073 63.3333 0.0260 35
0 F4 63.3073 63.3333 0.0260 34
0 F5 63.3073 63.3333 0.0260 49
0 D#6 63.3073 63.3333 0.0260 32
0 C#6 63.3073 63.3594 0.0521 47
0 C#5 63.3177 63.3594 0.0417 50
0 G#6 63.3177 63.3594 0.0417 33
0 F#3 63.3333 63.3594 0.0260 36
0 F#4 63.3333 63.3594 0.0260 38
0 F#5 63.3333 63.3594 0.0260 49
0 A#5 63.3333 63.3646 0.0312 42
0 G3 63.3594 63.5104 0.1510 42
0 G5 63.3594 63.5104 0.1510 49
0 A6 63.3594 63.5104 0.1510 35
0 D5 63.3594 63.5208 0.1615 57
0 G4 63.3594 63.5365 0.1771 43
0 B5 63.3646 63.5208 0.1562 37
0 F6 63.3906 63.4062 0.0156 60
0 E6 63.4062 63.4583 0.0521 58
0 F6 63.4583 63.5365 0.0781 56
0 G3 63.5208 63.5469 0.0260 42
0 C#5 63.5208 63.5573 0.0365 46
0 F#3 63.5469 63.5677 0.0208 33
0 D5 63.6198 63.6562 0.0365 10
0 F5 63.8594 63.9219 0.0625 21
0 G3 63.8958 63.9375 0.0417 28
0 C#4 63.8958 63.9375 0.0417 39
0 F3 63.9375 63.9740 0.0365 35
0 C4 63.9375 63.9740 0.0365 67
0 F5 63.9635 64.0052 0.0417 16
0 C#4 63.9740 64.0052 0.0312 67
0 C7 63.9740 64.0729 0.0990 51
0 B6 63.9844 64.0729 0.0885 27
0 G5 63.9948 64.0260 0.0312 34
0 C5 63.9948 64.0365 0.0417 64
0 A6 63.9948 64.0469 0.0521 37
0 D7 63.9948 64.0833 0.0885 17
0 C4 64.0052 64.0365 0.0312 43
0 D#7 64.0052 64.0573 0.0521 23
0 G#5 64.0052 64.0833 0.0781 43
0 F#5 64.0260 64.0469 0.0208 50
0 C#7 64.0260 64.0573 0.0312 25
0 D#6 64.0260 64.0573 0.0312 17
0 F6 64.0260 64.1250 0.0990 64
0 B3 64.0365 64.0573 0.0208 34
0 B4 64.0365 64.0573 0.0208 55
0 E7 64.0365 64.0833 0.0469 22
0 D6 64.0365 64.1615 0.1250 50
0 C5 64.0469 64.0729 0.0260 38
0 E5 64.0469 64.0729 0.0260 46
0 F#7 64.0469 64.0990 0.0521 13
0 A#3 64.0573 64.0833 0.0260 29
0 A#4 64.0573 64.0833 0.0260 39
0 A#5 64.0573 64.1094 0.0521 57
0 B5 64.0729 64.0990 0.0260 37
0 F#6 64.0729 64.1562 0.0833 44
0 B4 64.0833 64.1094 0.0260 36
0 F#5 64.0833 64.1458 0.0625 48
0 E6 64.0833 64.2031 0.1198 44
0 C6 64.0990 64.1562 0.0573 40
0 D5 64.1094 64.1354 0.0260 39
0 C5 64.1094 64.1458 0.0365 23
0 A5 64.1094 64.1615 0.0521 63
0 B5 64.1094 64.2292 0.1198 19
0 D4 64.1250 64.1562 0.0312 33
0 G5 64.1354 64.1615 0.0260 20
0 F6 64.1458 64.1771 0.0312 37
0 C#5 64.1562 64.1771 0.0208 58
0 F#5 64.1615 64.2135 0.0521 27
0 G#5 64.1615 64.2135 0.0521 40
0 C5 64.1771 64.2031 0.0260 52
0 A#4 64.1875 64.2135 0.0260 51
0 E4 64.1875 64.2396 0.0521 21
0 C#5 64.1875 64.2396 0.0521 41
0 F6 64.1875 64.2656 0.0781 34
0 A4 64.2135 64.2500 0.0365 53
0 A#3 64.2135 64.2656 0.0521 40
0 E6 64.2135 64.2656 0.0521 21
0 G#5 64.2917 64.3125 0.0208 29
0 C#4 64.2917 64.3281 0.0365 60
0 A5 64.3125 64.3438 0.0312 31
0 D5 64.3125 64.3542 0.0417 47
0 D4 64.3281 64.3542 0.0260 62
0 F7 64.3281 64.4010 0.0729 35
0 G#5 64.3438 64.3750 0.0312 29
0 D#7 64.3438 64.3750 0.0312 20
0 C#4 64.3542 64.3750 0.0208 65
0 D#5 64.3542 64.3906 0.0365 22
0 E7 64.3646 64.4115 0.0469 23
0 F#7 64.3750 64.4115 0.0365 11
0 B3 64.3906 64.4115 0.0208 58
0 A#3 64.4115 64.5260 0.1146 58
0 E7 64.4896 64.7396 0.2500 18
0 G#6 64.5000 64.5260 0.0260 40
0 A#6 64.5000 64.7188 0.2188 44
0 C5 64.5000 64.7396 0.2396 62
0 D7 64.5000 64.7500 0.2500 55
0 C7 64.5156 64.7500 0.2344 52
0 E4 64.5260 64.5729 0.0469 21
0 F#7 64.5260 64.6146 0.0885 17
0 E6 64.5260 64.6615 0.1354 43
0 G6 64.5260 64.7500 0.2240 57
0 F5 64.5521 64.5729 0.0208 34
0 C4 64.5521 64.7500 0.1979 45
0 G5 64.5625 64.7500 0.1875 62
0 E5 64.5729 64.6354 0.0625 39
0 F7 64.6146 64.6615 0.0469 9
0 D#5 64.6250 64.6979 0.0729 51
0 E6 64.6771 64.7396 0.0625 37
0 D5 64.6979 64.7396 0.0417 28
0 A5 64.6979 64.7396 0.0417 25
0 A6 64.7188 64.7812 0.0625 47
0 F6 64.7292 64.7708 0.0417 10
0 G#5 64.7396 64.7812 0.0417 22
0 D#6 64.7396 64.7917 0.0521 33
0 B4 64.7396 64.8021 0.0625 53
0 C#7 64.7500 64.8177 0.0677 49
0 F#5 64.7500 64.8177 0.0677 63
0 B6 64.7500 64.8177 0.0677 45
0 B3 64.7500 64.8385 0.0885 43
0 F6 64.7812 64.8021 0.0208 35
0 G6 64.7812 64.8177 0.0365 21
0 G#6 64.7812 64.9010 0.1198 64
0 D6 64.7917 64.9010 0.1094 36
0 A#4 64.8021 64.9010 0.0990 60
0 F5 64.8177 64.9010 0.0833 64
0 C7 64.8177 64.9010 0.0833 48
0 E7 64.8177 64.9010 0.0833 26
0 A#6 64.8177 64.9115 0.0938 49
0 G7 64.8281 64.8906 0.0625 36
0 A#3 64.8385 64.9427 0.1042 61
0 G6 64.8542 64.9115 0.0573 27
0 A4 64.9010 64.9531 0.0521 33
0 G5 64.9010 64.9635 0.0625 17
0 E7 64.9115 64.9531 0.0417 25
0 A3 64.9427 64.9635 0.0208 67
0 A#4 64.9531 65.0000 0.0469 47
0 D7 64.9531 65.0312 0.0781 21
0 A#3 64.9635 64.9792 0.0156 65
0 G7 64.9635 65.0208 0.0573 34
0 F5 64.9635 65.0312 0.0677 24
0 B3 64.9792 65.0000 0.0208 62
0 F7 64.9792 65.0312 0.0521 23
0 E7 64.9792 65.0938 0.1146 22
0 C7 64.9896 65.0312 0.0417 18
0 F#6 64.9896 65.0312 0.0417 18
0 B4 65.0000 65.0312 0.0312 51
0 A#3 65.0000 65.0417 0.0417 51
0 D#7 65.0000 65.0417 0.0417 11
0 G#6 65.0000 65.0521 0.0521 17
0 C#6 65.0208 65.0521 0.0312 28
0 G6 65.0208 65.0521 0.0312 22
0 A4 65.0208 65.0781 0.0573 66
0 A3 65.0417 65.0625 0.0208 43
0 D5 65.0417 65.0625 0.0208 41
0 C6 65.0417 65.0781 0.0365 33
0 C5 65.0417 65.0781 0.0365 25
0 A#3 65.0625 65.0938 0.0312 45
0 D#5 65.0625 65.1042 0.0417 33
0 F7 65.0625 65.1146 0.0521 12
0 C#4 65.1042 65.1406 0.0365 61
0 D6 65.1042 65.1406 0.0365 30
0 B5 65.1042 65.1406 0.0365 22
0 A4 65.1146 65.1823 0.0677 19
0 B3 65.1510 65.2031 0.0521 43
0 G7 65.1927 65.2708 0.0781 27
0 F7 65.1927 65.2969 0.1042 17
0 F#7 65.2031 65.2812 0.0781 35
0 E7 65.2135 65.2552 0.0417 19
0 C#7 65.2292 65.4167 0.1875 54
0 A#3 65.2448 65.2812 0.0365 46
0 G#4 65.2708 65.3073 0.0365 29
0 D7 65.2812 65.3698 0.0885 44
0 A3 65.2812 65.5573 0.2760 61
0 G7 65.2969 65.4167 0.1198 24
0 A4 65.2969 65.4167 0.1198 67
0 C7 65.2969 65.4688 0.1719 34
0 D#7 65.3177 65.4062 0.0885 36
0 F7 65.3177 65.4583 0.1406 38
0 E7 65.3333 65.3802 0.0469 26
0 B6 65.3594 65.4323 0.0729 40
0 A6 65.3698 65.5677 0.1979 17
0 F5 65.4062 65.4688 0.0625 28
0 G6 65.4062 65.4896 0.0833 50
0 E5 65.4323 65.5781 0.1458 63
0 A4 65.4323 65.6198 0.1875 69
0 C#6 65.4427 65.6302 0.1875 35
0 F7 65.4792 65.5417 0.0625 21
0 F#6 65.4792 65.6823 0.2031 49
0 F5 65.4896 65.5312 0.0417 43
0 B6 65.4896 65.5417 0.0521 18
0 D7 65.4896 65.5573 0.0677 14
0 D5 65.5052 65.5781 0.0729 22
0 G6 65.5208 65.7188 0.1979 40
0 A#3 65.5573 65.5885 0.0312 9
0 D#7 65.5573 65.7656 0.2083 31
0 F5 65.5781 65.6042 0.0260 37
0 G5 65.5781 65.6042 0.0260 36
0 C#4 65.5885 65.6667 0.0781 42
0 G#5 65.5885 65.6667 0.0781 59
0 F6 65.5885 65.6823 0.0938 39
0 C#5 65.6042 65.6667 0.0625 60
0 C#7 65.6042 65.8073 0.2031 60
0 D6 65.6198 65.6406 0.0208 33
0 B6 65.6198 65.6667 0.0469 42
0 E7 65.6198 65.7031 0.0833 34
0 E6 65.6302 65.6510 0.0208 32
0 A#4 65.6302 65.6667 0.0365 19
0 F5 65.6302 65.6667 0.0365 32
0 F7 65.6302 65.6927 0.0625 39
0 G5 65.6406 65.6823 0.0417 34
0 A5 65.6406 65.6927 0.0521 30
0 C7 65.6406 65.7031 0.0625 45
0 D7 65.6406 65.7552 0.1146 36
0 B4 65.6667 65.7292 0.0625 65
0 F#5 65.6667 65.7292 0.0625 32
0 B3 65.6823 65.7292 0.0469 60
0 E6 65.6823 65.7760 0.0938 19
0 B6 65.6823 65.8073 0.1250 41
0 G#6 65.6927 65.7760 0.0833 35
0 F7 65.7031 65.7656 0.0625 24
0 G#5 65.7031 65.7760 0.0729 21
0 E5 65.7031 65.7969 0.0938 43
0 C5 65.7292 65.7552 0.0260 55
0 E7 65.7292 65.9948 0.2656 29
0 A6 65.7448 65.7760 0.0312 17
0 D5 65.7656 65.7865 0.0208 34
0 C#5 65.7865 65.8229 0.0365 24
0 D#5 65.7969 65.8229 0.0260 36
0 C7 65.8073 65.8490 0.0417 21
0 C4 65.8229 65.8490 0.0260 31
0 E5 65.8229 65.9688 0.1458 35
0 B4 65.8333 65.8854 0.0521 24
0 C#4 65.8490 65.9062 0.0573 30
0 A5 65.8750 65.9688 0.0938 20
0 F4 65.9062 65.9479 0.0417 26
0 A6 65.9375 65.9688 0.0312 39
0 A#6 65.9375 66.0104 0.0729 59
0 C#7 65.9375 66.0208 0.0833 30
0 B6 65.9375 66.0208 0.0833 47
0 C7 65.9479 65.9948 0.0469 22
0 C#5 65.9479 66.0365 0.0885 72
0 D7 65.9583 65.9948 0.0365 13
0 D#7 65.9583 66.2656 0.3073 48
0 G#5 65.9688 66.0208 0.0521 26
0 G#6 65.9688 66.0208 0.0521 50
0 C#4 65.9688 66.0365 0.0677 43
0 F#7 65.9844 66.0521 0.0677 20
0 D7 66.0104 66.0625 0.0521 16
0 G6 66.0208 66.0625 0.0417 44
0 F#6 66.0365 66.0729 0.0365 25
0 B3 66.0521 66.1146 0.0625 64
0 C#5 66.0625 66.1042 0.0417 20
0 E6 66.1042 66.1302 0.0260 18
0 C4 66.1146 66.1302 0.0156 61
0 C#4 66.1302 66.1823 0.0521 67
0 E7 66.1562 66.3333 0.1771 37
0 C4 66.1823 66.2083 0.0260 70
0 B4 66.1979 66.2188 0.0208 38
0 B6 66.1979 66.2500 0.0521 21
0 F#6 66.1979 66.2656 0.0677 46
0 D#6 66.1979 66.2656 0.0677 29
0 C5 66.2083 66.2292 0.0208 42
0 F5 66.2083 66.2500 0.0417 37
0 B3 66.2083 66.2656 0.0573 59
0 G#6 66.2083 66.2656 0.0573 34
0 A6 66.2188 66.2760 0.0573 55
0 C#7 66.2188 66.2760 0.0573 14
0 G6 66.2188 66.3229 0.1042 35
0 B4 66.2292 66.2656 0.0365 66
0 G5 66.2292 66.3490 0.1198 35
0 C7 66.2500 66.3646 0.1146 32
0 C4 66.2656 66.3490 0.0833 62
0 C5 66.2656 66.3490 0.0833 72
0 D7 66.2656 66.3490 0.0833 32
0 A#6 66.2760 66.3490 0.0729 48
0 F#7 66.2760 66.5052 0.2292 33
0 E6 66.2865 66.3229 0.0365 12
0 C5 66.3646 66.5260 0.1615 23
0 G3 66.3750 66.3958 0.0208 36
0 F7 66.4635 66.4948 0.0312 9
0 G7 66.4740 66.5365 0.0625 29
0 G#3 66.4948 66.5365 0.0417 48
0 A4 66.4948 66.7240 0.2292 60
0 C#7 66.4948 66.7240 0.2292 54
0 B6 66.5260 66.5677 0.0417 9
0 D7 66.5260 66.5990 0.0729 30
0 F#7 66.5365 66.5729 0.0365 33
0 A3 66.5365 66.7240 0.1875 62
0 F7 66.5417 66.6146 0.0729 12
0 G7 66.5729 66.6979 0.1250 46
0 D#7 66.5990 66.8177 0.2188 43
0 E7 66.6354 66.8073 0.1719 36
0 D7 66.6458 66.6771 0.0312 37
0 B6 66.6458 66.7448 0.0990 52
0 F5 66.6771 66.7344 0.0573 67
0 A6 66.6771 66.7344 0.0573 50
0 C#6 66.6875 66.7344 0.0469 40
0 G6 66.6875 66.7344 0.0469 44
0 A#5 66.6979 66.7344 0.0365 47
0 D7 66.7083 66.7969 0.0885 30
0 D6 66.7240 66.8281 0.1042 32
0 E6 66.7448 66.7865 0.0417 42
0 G5 66.7448 66.7969 0.0521 37
0 C6 66.7448 66.8073 0.0625 34
0 A#5 66.7656 66.8073 0.0417 29
0 F5 66.7656 66.8177 0.0521 44
0 G6 66.7969 66.8438 0.0469 36
0 G4 66.7969 66.8438 0.0469 53
0 F#4 66.8438 66.8698 0.0260 60
0 D7 66.8698 66.9479 0.0781 26
0 E4 66.8802 66.9115 0.0312 61
0 D#7 66.9062 66.9792 0.0729 35
0 D4 66.9271 66.9583 0.0312 61
0 C#7 66.9271 66.9948 0.0677 45
0 C#5 66.9479 66.9688 0.0208 54
0 G7 66.9479 66.9948 0.0469 28
0 F7 66.9479 66.9948 0.0469 25
0 D5 66.9479 67.0677 0.1198 72
0 C#4 66.9583 66.9792 0.0208 49
0 G#6 66.9583 66.9792 0.0208 34
0 B6 66.9583 66.9948 0.0365 35
0 G#5 66.9583 66.9948 0.0365 22
0 F#6 66.9688 67.0677 0.0990 49
0 A5 66.9792 67.0677 0.0885 69
0 E7 66.9792 67.0677 0.0885 40
0 D4 66.9792 67.0781 0.0990 30
0 C7 66.9948 67.0677 0.0729 23
0 C#5 67.0677 67.1094 0.0417 44
0 G#5 67.0677 67.1094 0.0417 62
0 D#7 67.0677 67.1094 0.0417 34
0 C#6 67.0677 67.1094 0.0417 55
0 F6 67.0677 67.1094 0.0417 55
0 E7 67.0885 67.1771 0.0885 26
0 C5 67.1094 67.1302 0.0208 44
0 G5 67.1094 67.1302 0.0208 61
0 C6 67.1094 67.1302 0.0208 53
0 E6 67.1094 67.1406 0.0312 53
0 D6 67.1198 67.1771 0.0573 66
0 C#5 67.1302 67.1562 0.0260 48
0 G#5 67.1302 67.1667 0.0365 65
0 F#6 67.1406 67.1771 0.0365 13
0 D5 67.1562 67.1771 0.0208 51
0 A5 67.1562 67.1771 0.0208 63
0 D#4 67.1771 67.2708 0.0938 30
0 D#5 67.1771 67.2708 0.0938 55
0 A#5 67.1771 67.2708 0.0938 66
0 D#6 67.1771 67.2708 0.0938 66
0 F7 67.1771 67.2708 0.0938 35
0 F#6 67.2500 67.2969 0.0469 21
0 D6 67.2708 67.3073 0.0365 66
0 C#5 67.2865 67.3073 0.0208 47
0 G#5 67.2865 67.3333 0.0469 61
0 F7 67.2865 67.3646 0.0781 21
0 C6 67.2969 67.3854 0.0885 50
0 C5 67.3073 67.3802 0.0729 52
0 G5 67.3073 67.3802 0.0729 69
0 E6 67.3073 67.3854 0.0781 46
0 D#5 67.3229 67.3542 0.0312 12
0 C4 67.3229 67.3802 0.0573 24
0 F#7 67.3542 67.4375 0.0833 12
0 D#6 67.3646 67.4062 0.0417 16
0 C#5 67.3802 67.3958 0.0156 53
0 C#6 67.3802 67.3958 0.0156 62
0 G#5 67.3802 67.4062 0.0260 67
0 F7 67.3802 67.5885 0.2083 32
0 A#5 67.3854 67.5417 0.1562 71
0 D5 67.3958 67.4375 0.0417 56
0 D6 67.3958 67.4375 0.0417 67
0 G5 67.4062 67.4583 0.0521 9
0 D#4 67.4062 67.5312 0.1250 30
0 D#5 67.4375 67.5312 0.0938 56
0 D#6 67.4375 67.5312 0.0938 62
0 C#7 67.4479 67.5000 0.0521 12
0 D5 67.5312 67.5521 0.0208 45
0 A5 67.5312 67.5521 0.0208 59
0 D6 67.5312 67.5729 0.0417 60
0 C#6 67.5312 67.5885 0.0573 53
0 C#4 67.5521 67.5885 0.0365 30
0 G#5 67.5521 67.5885 0.0365 67
0 C#5 67.5521 67.5885 0.0365 44
0 E6 67.5521 67.6406 0.0885 34
0 C5 67.5885 67.6250 0.0365 44
0 G5 67.5885 67.6250 0.0365 67
0 C6 67.5885 67.6250 0.0365 48
0 C4 67.5885 67.6406 0.0521 31
0 D6 67.5885 67.6406 0.0521 24
0 C#6 67.6250 67.6510 0.0260 49
0 C#5 67.6250 67.6615 0.0365 47
0 G#5 67.6250 67.6615 0.0365 65
0 C#4 67.6406 67.6719 0.0312 29
0 F7 67.6406 67.7812 0.1406 34
0 D6 67.6510 67.7708 0.1198 63
0 A#5 67.6510 67.7812 0.1302 66
0 D5 67.6615 67.6927 0.0312 49
0 A5 67.6615 67.6927 0.0312 61
0 D#4 67.6927 67.7292 0.0365 30
0 D#5 67.6927 67.7812 0.0885 57
0 D#6 67.6927 67.7812 0.0885 62
0 C#7 67.6979 67.7812 0.0833 17
0 D#4 67.7448 67.7812 0.0365 26
0 D5 67.7812 67.8125 0.0312 52
0 A5 67.7812 67.8125 0.0312 60
0 D6 67.7812 67.8229 0.0417 64
0 E7 67.7812 67.8229 0.0417 17
0 G#5 67.8125 67.8333 0.0208 63
0 C#5 67.8125 67.8542 0.0417 51
0 F7 67.8125 67.9740 0.1615 34
0 F#7 67.8229 67.8646 0.0417 20
0 C4 67.8333 67.8958 0.0625 23
0 G5 67.8333 67.8958 0.0625 67
0 A#6 67.8333 67.8958 0.0625 11
0 D6 67.8333 67.8958 0.0625 22
0 E6 67.8333 67.9115 0.0781 39
0 C5 67.8542 67.8958 0.0417 49
0 C#5 67.8958 67.9219 0.0260 52
0 C#6 67.8958 67.9219 0.0260 53
0 G#5 67.8958 67.9375 0.0417 66
0 G7 67.9115 67.9740 0.0625 9
0 D5 67.9219 67.9479 0.0260 54
0 A5 67.9219 67.9479 0.0260 63
0 D6 67.9219 67.9844 0.0625 60
0 D#7 67.9375 67.9844 0.0469 24
0 D#4 67.9375 67.9948 0.0573 30
0 F#7 67.9375 68.0260 0.0885 39
0 D#5 67.9479 67.9844 0.0365 59
0 A#5 67.9479 67.9844 0.0365 68
0 E5 67.9844 68.0260 0.0417 59
0 B5 67.9844 68.0260 0.0417 67
0 E6 67.9844 68.0260 0.0417 60
0 D#4 68.0104 68.0469 0.0365 27
0 D#5 68.0260 68.0729 0.0469 56
0 A#5 68.0260 68.1198 0.0938 64
0 F7 68.0260 68.2292 0.2031 35
0 D6 68.0469 68.0729 0.0260 56
0 C#5 68.0729 68.0938 0.0208 39
0 C6 68.0833 68.1198 0.0365 37
0 G5 68.0833 68.1510 0.0677 61
0 E6 68.0833 68.1771 0.0938 41
0 C5 68.0938 68.1198 0.0260 29
0 D#6 68.1094 68.1302 0.0208 47
0 C4 68.1302 68.1510 0.0208 31
0 C5 68.1302 68.1510 0.0208 40
0 C#6 68.1406 68.1771 0.0365 58
0 C#4 68.1510 68.1771 0.0260 35
0 G#5 68.1510 68.1875 0.0365 56
0 D5 68.1667 68.1875 0.0208 48
0 A5 68.1667 68.1875 0.0208 65
0 D6 68.1667 68.1875 0.0208 58
0 D#7 68.1771 68.2396 0.0625 15
0 D#4 68.1875 68.2396 0.0521 32
0 D#5 68.1875 68.2396 0.0521 56
0 A#5 68.1875 68.2396 0.0521 67
0 D#6 68.1875 68.3333 0.1458 62
0 F#7 68.2292 68.2500 0.0208 39
0 B5 68.2396 68.2500 0.0104 67
0 D#4 68.2500 68.3073 0.0573 33
0 A#5 68.2500 68.3073 0.0573 66
0 D#5 68.2500 68.3073 0.0573 55
0 F7 68.2500 68.3594 0.1094 37
0 D6 68.2917 68.3438 0.0521 62
0 A5 68.3073 68.3438 0.0365 59
0 C4 68.3073 68.4062 0.0990 29
0 G#5 68.3177 68.3438 0.0260 65
0 C#5 68.3177 68.3438 0.0260 47
0 F6 68.3177 68.3594 0.0417 22
0 G6 68.3333 68.4062 0.0729 21
0 F#7 68.3438 68.3854 0.0417 24
0 G5 68.3438 68.4062 0.0625 67
0 C5 68.3438 68.4167 0.0729 50
0 E6 68.3438 68.4271 0.0833 42
0 F#7 68.3958 68.4583 0.0625 18
0 C#4 68.4062 68.4479 0.0417 30
0 G#5 68.4062 68.4479 0.0417 67
0 C#6 68.4062 68.4479 0.0417 59
0 F7 68.4062 68.9583 0.5521 46
0 D5 68.4271 68.4688 0.0417 53
0 A5 68.4479 68.4688 0.0208 64
0 G5 68.4479 68.4740 0.0260 17
0 D#6 68.4583 68.5729 0.1146 56
0 A#5 68.4688 68.5729 0.1042 66
0 D#4 68.4688 68.5729 0.1042 25
0 D#5 68.4688 68.5729 0.1042 54
0 D6 68.5000 68.5521 0.0521 22
0 G#5 68.5000 68.5521 0.0521 18
0 A5 68.5729 68.6146 0.0417 62
0 C#5 68.5885 68.6146 0.0260 42
0 C#6 68.5885 68.6250 0.0365 46
0 C6 68.6042 68.6615 0.0573 41
0 G5 68.6042 68.6719 0.0677 63
0 A#5 68.6042 68.6875 0.0833 31
0 E6 68.6042 68.7135 0.1094 35
0 F#7 68.6042 68.7240 0.1198 24
0 C4 68.6146 68.6719 0.0573 20
0 C5 68.6146 68.6719 0.0573 45
0 D6 68.6510 68.6875 0.0365 14
0 G7 68.6615 68.7031 0.0417 15
0 C#6 68.6615 68.7031 0.0417 48
0 G#5 68.6719 68.7135 0.0417 61
0 A5 68.6875 68.7240 0.0365 65
0 D5 68.6875 68.7240 0.0365 54
0 D6 68.7031 68.7240 0.0208 57
0 D#4 68.7240 68.7969 0.0729 28
0 D#5 68.7240 68.7969 0.0729 51
0 A#5 68.7240 68.7969 0.0729 69
0 D#6 68.7240 68.7969 0.0729 57
0 G7 68.7760 68.8854 0.1094 20
0 F#7 68.7865 68.9479 0.1615 21
0 D5 68.7969 68.8281 0.0312 40
0 D6 68.7969 68.8385 0.0417 55
0 G#5 68.8177 68.8385 0.0208 64
0 F6 68.8177 68.8490 0.0312 25
0 A#5 68.8177 68.8958 0.0781 20
0 E6 68.8281 68.8646 0.0365 43
0 C6 68.8281 68.9062 0.0781 58
0 G5 68.8385 68.8750 0.0365 63
0 C4 68.8385 68.8958 0.0573 28
0 C5 68.8385 68.8958 0.0573 41
0 D#6 68.8490 68.8750 0.0260 52
0 F6 68.8646 68.9062 0.0417 34
0 E6 68.8750 68.9062 0.0312 42
0 C#6 68.8958 68.9167 0.0208 53
0 D5 68.9062 68.9375 0.0312 49
0 A5 68.9062 68.9375 0.0312 63
0 G7 68.9167 68.9740 0.0573 19
0 D#5 68.9375 68.9583 0.0208 46
0 A#5 68.9375 68.9583 0.0208 65
0 D#6 68.9375 68.9583 0.0208 51
0 D#4 68.9375 68.9740 0.0365 24
0 C#7 68.9479 68.9844 0.0365 13
0 F#7 68.9583 68.9896 0.0312 41
0 E5 68.9583 69.0000 0.0417 52
0 B5 68.9583 69.0000 0.0417 68
0 E6 68.9583 69.0208 0.0625 56
0 E4 68.9740 69.0000 0.0260 22
0 D5 68.9844 69.0417 0.0573 50
0 F7 68.9896 69.1302 0.1406 31
0 A#5 69.0000 69.0312 0.0312 65
0 D6 69.0208 69.0677 0.0469 50
0 C#5 69.0417 69.0677 0.0260 39
0 C6 69.0521 69.0781 0.0260 41
0 E6 69.0521 69.0781 0.0260 36
0 G5 69.0521 69.0885 0.0365 61
0 C4 69.0521 69.1302 0.0781 32
0 C5 69.0677 69.0885 0.0208 41
0 B5 69.0781 69.1042 0.0260 46
0 D#6 69.0781 69.1198 0.0417 47
0 E5 69.0885 69.1302 0.0417 19
0 C5 69.1042 69.1302 0.0260 41
0 G5 69.1042 69.1302 0.0260 63
0 E6 69.1198 69.2135 0.0938 51
0 F#7 69.1302 69.2031 0.0729 29
0 D6 69.1406 69.1615 0.0208 55
0 A5 69.1406 69.1615 0.0208 51
0 D5 69.1406 69.1615 0.0208 33
0 F7 69.1406 69.1823 0.0417 22
0 B5 69.1406 69.2135 0.0729 68
0 F#5 69.1510 69.1927 0.0417 9
0 E5 69.1510 69.2135 0.0625 48
0 E4 69.1615 69.2292 0.0677 31
0 G#6 69.1823 69.2135 0.0312 12
0 F7 69.2031 69.2396 0.0365 21
0 D#5 69.2135 69.2448 0.0312 48
0 D#6 69.2135 69.2448 0.0312 56
0 A#5 69.2135 69.2865 0.0729 65
0 D#4 69.2292 69.2448 0.0156 32
0 C#5 69.2604 69.2865 0.0260 43
0 E6 69.2604 69.3646 0.1042 57
0 C4 69.2760 69.3542 0.0781 39
0 G5 69.2760 69.3542 0.0781 56
0 C6 69.2760 69.3750 0.0990 44
0 B5 69.2865 69.3177 0.0312 14
0 C5 69.2865 69.3542 0.0677 46
0 D6 69.3385 69.3750 0.0365 49
0 A#5 69.3385 69.3906 0.0521 54
0 D#6 69.3385 69.4010 0.0625 47
0 D5 69.3542 69.3750 0.0208 51
0 D#4 69.3646 69.4010 0.0365 40
0 E5 69.3906 69.4115 0.0208 55
0 B5 69.3906 69.4531 0.0625 59
0 D#5 69.4115 69.4427 0.0312 52
0 D#4 69.4115 69.4531 0.0417 36
0 A#5 69.4219 69.4531 0.0312 39
0 D5 69.4427 69.4635 0.0208 57
0 C#4 69.4635 69.5000 0.0365 26
0 C#5 69.4635 69.5000 0.0365 57
0 D#6 69.4844 69.5260 0.0417 15
0 C#5 69.5260 69.5833 0.0573 24
0 C5 69.6250 69.6979 0.0729 38
0 A#3 69.8073 69.8594 0.0521 31
0 G#3 69.8750 69.9479 0.0729 33
0 C#5 69.9740 70.0052 0.0312 19
0 F#6 69.9844 70.0417 0.0573 39
0 D#6 69.9844 70.1927 0.2083 61
0 G5 69.9948 70.0208 0.0260 36
0 E5 69.9948 70.0208 0.0260 64
0 A#5 69.9948 70.1927 0.1979 67
0 G6 69.9948 70.2240 0.2292 51
0 F#5 70.0208 70.0521 0.0312 49
0 D#4 70.0208 70.0938 0.0729 31
0 F7 70.0208 70.1927 0.1719 24
0 D#5 70.0208 70.1927 0.1719 53
0 D6 70.0312 70.0781 0.0469 24
0 F6 70.0312 70.2031 0.1719 52
0 G5 70.0417 70.0781 0.0365 26
0 C#6 70.0417 70.1406 0.0990 25
0 F5 70.1042 70.1510 0.0469 21
0 G5 70.1042 70.1510 0.0469 28
0 D#4 70.1042 70.1927 0.0885 39
0 C6 70.1146 70.2656 0.1510 32
0 E6 70.1406 70.1823 0.0417 21
0 C#6 70.1615 70.2396 0.0781 30
0 F#6 70.1615 70.2760 0.1146 56
0 D6 70.1615 70.2760 0.1146 67
0 A5 70.1823 70.2240 0.0417 61
0 D5 70.1823 70.2656 0.0833 56
0 E7 70.1823 70.2917 0.1094 23
0 D4 70.1927 70.2396 0.0469 27
0 B5 70.1927 70.2917 0.0990 31
0 E6 70.2031 70.2500 0.0469 37
0 B4 70.2031 70.2656 0.0625 14
0 F6 70.2135 70.3229 0.1094 59
0 E5 70.2240 70.2760 0.0521 37
0 G7 70.2240 70.3229 0.0990 24
0 A5 70.2396 70.2760 0.0365 46
0 E6 70.2656 70.3125 0.0469 43
0 C#5 70.2656 70.3490 0.0833 53
0 C#4 70.2760 70.3125 0.0365 31
0 G#5 70.2760 70.3490 0.0729 51
0 C#6 70.2760 70.3594 0.0833 67
0 E5 70.2917 70.3490 0.0573 32
0 D#7 70.2917 70.3490 0.0573 16
0 A#5 70.2917 70.3594 0.0677 31
0 D6 70.3021 70.3594 0.0573 14
0 F#7 70.3125 70.4115 0.0990 21
0 D#6 70.3125 70.4219 0.1094 38
0 C#4 70.3229 70.3594 0.0365 36
0 D#5 70.3229 70.3594 0.0365 30
0 E6 70.3229 70.4219 0.0990 63
0 G5 70.3490 70.3958 0.0469 56
0 C5 70.3490 70.4115 0.0625 40
0 C6 70.3490 70.4115 0.0625 63
0 D5 70.3594 70.3854 0.0260 36
0 A5 70.3594 70.3854 0.0260 34
0 C4 70.3594 70.4115 0.0521 35
0 F7 70.3594 70.4115 0.0521 13
0 C#6 70.3698 70.4115 0.0417 26
0 F6 70.3698 70.4740 0.1042 23
0 F#5 70.3958 70.4219 0.0260 43
0 G3 70.4115 70.4323 0.0208 34
0 D#4 70.4115 70.4479 0.0365 18
0 G5 70.4219 70.4635 0.0417 10
0 C6 70.4323 70.4896 0.0573 12
0 C5 70.4740 70.4896 0.0156 46
0 E6 70.4740 70.5312 0.0573 31
0 C#4 70.4792 70.5052 0.0260 51
0 F4 70.4792 70.5312 0.0521 30
0 C6 70.5052 70.5417 0.0365 21
0 D4 70.5052 70.7552 0.2500 45
0 F#5 70.5208 70.5677 0.0469 24
0 D5 70.5208 70.9531 0.4323 69
0 A5 70.5208 70.9635 0.4427 56
0 F#4 70.5312 70.5990 0.0677 45
0 F#7 70.5312 70.6250 0.0938 33
0 F4 70.5990 70.6354 0.0365 36
0 F4 70.6719 70.6979 0.0260 33
0 F#4 70.6979 70.7969 0.0990 40
0 F3 70.7865 70.8229 0.0365 16
0 F5 70.7969 70.8802 0.0833 17
0 D4 70.7969 70.8906 0.0938 57
0 F#7 70.7969 70.9115 0.1146 40
0 D7 70.8229 70.8906 0.0677 14
0 E7 70.8229 70.9115 0.0885 17
0 C#4 70.8906 70.9219 0.0312 51
0 B3 70.9219 70.9531 0.0312 38
0 D#5 70.9740 71.0000 0.0260 36
0 A#4 70.9740 71.0000 0.0260 56
0 G#3 70.9740 71.0000 0.0260 40
0 F6 70.9740 71.0104 0.0365 38
0 G#6 70.9896 71.0521 0.0625 39
0 F#6 70.9896 71.0833 0.0938 32
0 A4 71.0000 71.0521 0.0521 55
0 C#5 71.0000 71.0521 0.0521 44
0 E7 71.0000 71.2552 0.2552 48
0 A6 71.0000 71.2760 0.2760 59
0 E5 71.0000 71.3438 0.3438 73
0 G6 71.0104 71.0729 0.0625 47
0 D7 71.0104 71.1198 0.1094 31
0 B6 71.0104 71.2969 0.2865 62
0 C7 71.0260 71.0625 0.0365 25
0 F7 71.0260 71.1667 0.1406 35
0 C6 71.0417 71.0625 0.0208 34
0 D5 71.0521 71.1406 0.0885 45
0 D4 71.0521 71.1562 0.1042 23
0 C#6 71.0625 71.2396 0.1771 20
0 A4 71.0625 71.2969 0.2344 62
0 C#7 71.0625 71.4844 0.4219 59
0 A3 71.0729 71.2604 0.1875 45
0 G6 71.0833 71.1771 0.0938 21
0 G7 71.0833 71.3958 0.3125 33
0 F#6 71.1094 71.1406 0.0312 13
0 D#7 71.1198 71.2083 0.0885 42
0 F#7 71.1667 71.1927 0.0260 29
0 D5 71.1667 71.2760 0.1094 46
0 F7 71.1927 71.4740 0.2812 40
0 D7 71.2083 71.2292 0.0208 45
0 C#4 71.2083 71.2552 0.0469 27
0 C7 71.2083 71.3125 0.1042 36
0 D#7 71.2292 71.4115 0.1823 50
0 F#7 71.2396 71.5052 0.2656 31
0 D7 71.2760 71.5260 0.2500 56
0 F#4 71.2865 71.3125 0.0260 41
0 C#5 71.2865 71.3229 0.0365 17
0 D4 71.2969 71.3229 0.0260 47
0 G#4 71.3125 71.3333 0.0208 43
0 D#4 71.3229 71.3646 0.0417 52
0 C7 71.3229 71.4115 0.0885 14
0 A#3 71.3333 71.3646 0.0312 34
0 G4 71.3333 71.3802 0.0469 34
0 E7 71.3333 71.3958 0.0625 29
0 A#4 71.3438 71.3906 0.0469 45
0 C5 71.3438 71.3958 0.0521 26
0 C4 71.3646 71.4115 0.0469 44
0 B6 71.3802 71.4219 0.0417 10
0 A4 71.3906 71.4115 0.0208 53
0 A3 71.3958 71.4219 0.0260 44
0 E4 71.3958 71.4375 0.0417 34
0 A#3 71.4219 71.4479 0.0260 48
0 F4 71.4219 71.4479 0.0260 32
0 E7 71.4219 71.5052 0.0833 20
0 D#7 71.4375 71.4844 0.0469 25
0 B3 71.4479 71.4740 0.0260 52
0 E5 71.4583 71.4948 0.0365 13
0 D4 71.4740 71.5365 0.0625 52
0 G3 71.5260 71.5729 0.0469 25
0 E5 71.5469 71.5885 0.0417 20
0 C#4 71.6510 71.6927 0.0417 19
0 E7 71.6927 71.8125 0.1198 16
0 G7 71.7031 71.7396 0.0365 15
0 F#7 71.7031 71.7812 0.0781 25
0 D#7 71.7031 71.7812 0.0781 21
0 B6 71.7396 71.7917 0.0521 17
0 D7 71.7396 71.7917 0.0521 15
0 C7 71.7396 71.8125 0.0729 22
0 A6 71.7500 71.8698 0.1198 39
0 A#6 71.7500 71.8802 0.1302 40
0 F7 71.7656 71.8438 0.0781 20
0 G4 71.7656 71.8594 0.0938 39
0 D#4 71.7812 71.8021 0.0208 56
0 C#7 71.7917 71.8802 0.0885 33
0 C#5 71.8021 71.8281 0.0260 33
0 G3 71.8021 71.8438 0.0417 30
0 F6 71.8021 71.8594 0.0573 18
0 B6 71.8021 71.8698 0.0677 31
0 G#6 71.8021 71.8802 0.0781 25
0 C5 71.8281 71.8594 0.0312 33
0 B3 71.8438 71.8802 0.0365 56
0 D7 71.8438 71.8802 0.0365 19
0 B4 71.8438 71.8802 0.0365 60
0 D#6 71.8438 71.9010 0.0573 38
0 A#5 71.8698 71.9115 0.0417 45
0 G6 71.8698 71.9115 0.0417 17
0 E4 71.8698 71.9115 0.0417 43
0 A#3 71.8802 71.9115 0.0312 51
0 A#4 71.8802 71.9115 0.0312 63
0 D4 71.9115 71.9740 0.0625 33
0 A4 71.9115 72.3438 0.4323 64
0 G#3 71.9219 71.9531 0.0312 52
0 A3 71.9531 72.3229 0.3698 52
0 E5 71.9635 72.3333 0.3698 74
0 D5 71.9948 72.0469 0.0521 22
0 D4 72.0260 72.1302 0.1042 23
0 G7 72.0469 72.3229 0.2760 21
0 D5 72.0573 72.1302 0.0729 36
0 F7 72.1198 72.3229 0.2031 47
0 B5 72.1302 72.1979 0.0677 16
0 D5 72.1406 72.2604 0.1198 51
0 C#6 72.1406 72.3229 0.1823 66
0 F#7 72.2240 72.3229 0.0990 20
0 G6 72.2448 72.3333 0.0885 49
0 D4 72.2865 72.3333 0.0469 21
0 F#6 72.2969 72.3438 0.0469 38
0 C4 72.3594 72.3906 0.0312 39
0 C#5 72.3698 72.4583 0.0885 78
0 G4 72.3802 72.4062 0.0260 38
0 A#6 72.3802 72.4219 0.0417 30
0 G#5 72.3802 72.4375 0.0573 33
0 F#5 72.3802 72.4740 0.0938 50
0 F7 72.3802 72.5052 0.1250 29
0 G#6 72.3802 72.5885 0.2083 41
0 C#4 72.3906 72.4219 0.0312 46
0 A6 72.3906 72.4219 0.0312 32
0 F6 72.3906 72.4740 0.0833 32
0 A5 72.4375 72.4583 0.0208 32
0 C4 72.4375 72.4740 0.0365 14
0 F5 72.4375 72.4740 0.0365 45
0 A6 72.4375 72.6250 0.1875 46
0 A#4 72.4583 72.4844 0.0260 37
0 E5 72.4740 72.5365 0.0625 52
0 E7 72.4740 72.5990 0.1250 18
0 A4 72.4844 72.5052 0.0208 37
0 F#5 72.4948 72.5365 0.0417 36
0 F4 72.5052 72.5521 0.0469 28
0 A#5 72.5052 72.5625 0.0573 15
0 G6 72.5208 72.5521 0.0312 41
0 D#7 72.5208 72.5625 0.0417 13
0 A#6 72.5208 72.5625 0.0417 16
0 G5 72.5208 72.5625 0.0417 32
0 C#5 72.5365 72.5625 0.0260 68
0 C6 72.5365 72.5729 0.0365 19
0 A5 72.5521 72.5990 0.0469 30
0 F#5 72.5521 72.6146 0.0625 34
0 F#7 72.5521 72.6250 0.0729 20
0 D5 72.5625 72.5990 0.0365 74
0 B6 72.5625 72.6146 0.0521 30
0 A#4 72.5990 72.6406 0.0417 25
0 C#5 72.5990 72.6719 0.0729 35
0 D5 72.7135 72.7760 0.0625 26
0 G4 72.7240 72.7760 0.0521 60
0 F7 72.7240 72.8021 0.0781 16
0 G7 72.7344 72.7760 0.0417 15
0 C#7 72.7500 72.7865 0.0365 35
0 C6 72.7500 72.8125 0.0625 22
0 A6 72.7500 72.8333 0.0833 40
0 F#7 72.7500 72.8594 0.1094 15
0 C#6 72.7604 72.8021 0.0417 17
0 A#6 72.7604 72.8125 0.0521 31
0 A#4 72.7604 72.8229 0.0625 42
0 D#7 72.7604 72.8229 0.0625 29
0 F#6 72.7604 72.8698 0.1094 38
0 F#4 72.7760 72.8021 0.0260 49
0 F#5 72.7760 72.8021 0.0260 50
0 F6 72.7760 72.8125 0.0365 28
0 C7 72.7760 72.8125 0.0365 38
0 B6 72.7760 72.8333 0.0573 44
0 F5 72.7865 72.8229 0.0365 73
0 D7 72.7865 72.8698 0.0833 34
0 B5 72.8021 72.8333 0.0312 56
0 G#6 72.8021 72.8438 0.0417 49
0 E6 72.8021 72.9323 0.1302 61
0 C#6 72.8125 72.8438 0.0312 37
0 E5 72.8229 72.8438 0.0208 61
0 A5 72.8229 72.8594 0.0365 44
0 G6 72.8229 72.8594 0.0365 16
0 F4 72.8333 72.8906 0.0573 38
0 C6 72.8333 72.8906 0.0573 58
0 F5 72.8438 72.9062 0.0625 57
0 D#7 72.8438 72.9219 0.0781 34
0 A6 72.8438 72.9323 0.0885 48
0 F6 72.8438 72.9844 0.1406 67
0 G#6 72.8594 72.9323 0.0729 26
0 A5 72.8698 72.9219 0.0521 27
0 G6 72.8802 72.9219 0.0417 18
0 G#5 72.8802 72.9479 0.0677 31
0 F#4 72.8906 72.9219 0.0312 40
0 C#5 72.8906 72.9219 0.0312 39
0 B6 72.8906 72.9323 0.0417 18
0 E5 72.9062 72.9479 0.0417 57
0 B4 72.9219 72.9479 0.0260 31
0 E4 72.9219 72.9635 0.0417 49
0 D5 72.9219 72.9635 0.0417 40
0 C4 72.9323 72.9635 0.0312 33
0 C#4 73.0417 73.0677 0.0260 51
0 C7 73.0521 73.4688 0.4167 65
0 F#7 73.0521 73.6094 0.5573 31
0 D7 73.0677 73.5781 0.5104 44
0 D#4 73.0781 73.1042 0.0260 67
0 E7 73.0781 73.5885 0.5104 53
0 D5 73.0781 73.7135 0.6354 74
0 D4 73.1042 73.5781 0.4740 66
0 F#4 73.1458 73.1875 0.0417 33
0 C6 73.1458 73.4583 0.3125 36
0 A6 73.1458 73.5573 0.4115 56
0 A5 73.1719 73.2083 0.0365 10
0 F5 73.1719 73.2240 0.0521 28
0 F#6 73.1719 73.6510 0.4792 74
0 F4 73.1875 73.2083 0.0208 32
0 A#5 73.1979 73.2240 0.0260 39
0 E5 73.2240 73.2448 0.0208 30
0 G7 73.2240 73.3021 0.0781 13
0 A5 73.2240 73.5052 0.2812 66
0 F5 73.2448 73.5156 0.2708 38
0 G5 73.2552 73.5156 0.2604 41
0 F6 73.3385 73.4010 0.0625 42
0 F4 73.4010 73.4479 0.0469 15
0 F4 73.5052 73.5573 0.0521 20
0 C#4 73.5781 73.6094 0.0312 37
0 A5 73.5885 73.7865 0.1979 32
0 D4 73.6094 73.6250 0.0156 47
0 D4 73.6354 73.6719 0.0365 45
0 B5 73.9427 73.9792 0.0365 32
0 E5 73.9427 73.9792 0.0365 54
0 F#7 73.9531 74.0938 0.1406 26
0 E4 73.9792 74.0052 0.0260 46
0 D#5 73.9792 74.0052 0.0260 58
0 A5 73.9948 74.4062 0.4115 68
0 D5 74.0052 74.3958 0.3906 72
0 D4 74.0260 74.4896 0.4635 60
0 F#6 74.1667 74.4115 0.2448 67
0 E7 74.3177 74.4062 0.0885 27
0 C7 74.3438 74.3958 0.0521 12
0 C#5 74.3958 74.4219 0.0260 48
0 A5 74.4115 74.4583 0.0469 22
0 F#6 74.4583 74.5417 0.0833 72
0 D#7 74.4688 74.4896 0.0208 33
0 F4 74.4688 74.4896 0.0208 34
0 F5 74.4688 74.5052 0.0365 49
0 C#7 74.4688 74.5573 0.0885 30
0 C#6 74.4792 74.5677 0.0885 69
0 F#4 74.4896 74.5312 0.0417 29
0 E7 74.4896 74.5417 0.0521 34
0 G6 74.4896 74.5417 0.0521 42
0 F#5 74.4896 74.5573 0.0677 54
0 F6 74.5417 74.5781 0.0365 51
0 B5 74.5417 74.6146 0.0729 60
0 E7 74.5573 74.6042 0.0469 26
0 E5 74.5677 74.6042 0.0365 56
0 E4 74.5677 74.6042 0.0365 13
0 G#6 74.5677 74.6042 0.0365 15
0 E6 74.5677 74.6979 0.1302 59
0 C6 74.5885 74.6250 0.0365 59
0 F#5 74.6146 74.6458 0.0312 53
0 F#7 74.6146 74.6458 0.0312 25
0 C#7 74.6146 74.6458 0.0312 29
0 F6 74.6146 74.6458 0.0312 53
0 C#6 74.6250 74.6458 0.0208 63
0 A#5 74.6250 74.6979 0.0729 34
0 D5 74.6354 74.6719 0.0365 10
0 G5 74.6458 74.6719 0.0260 54
0 D6 74.6458 74.6719 0.0260 71
0 C#7 74.6615 74.6979 0.0365 19
0 D#7 74.6719 74.7188 0.0469 22
0 F7 74.6719 74.7188 0.0469 17
0 C#6 74.6719 74.7500 0.0781 62
0 F5 74.6875 74.7188 0.0312 51
0 F4 74.6875 74.7292 0.0417 26
0 F6 74.6875 74.7292 0.0417 60
0 C6 74.6979 74.7292 0.0312 61
0 D7 74.6979 74.7812 0.0833 32
0 B6 74.7188 74.7656 0.0469 22
0 E5 74.7188 74.7812 0.0625 52
0 G#6 74.7188 74.7812 0.0625 25
0 B5 74.7292 74.7656 0.0365 60
0 E4 74.7292 74.7812 0.0521 25
0 E6 74.7292 74.7812 0.0521 64
0 A5 74.7656 74.8021 0.0365 18
0 C6 74.7656 74.8385 0.0729 59
0 F4 74.7812 74.8125 0.0312 24
0 F5 74.7812 74.8125 0.0312 55
0 A6 74.7812 74.8281 0.0469 29
0 D#7 74.7812 74.8385 0.0573 48
0 F6 74.7812 74.8490 0.0677 75
0 G#6 74.8125 74.8490 0.0365 23
0 D6 74.8125 74.8646 0.0521 13
0 E5 74.8125 74.8802 0.0677 66
0 F#6 74.8490 74.8906 0.0417 12
0 F6 74.8802 75.0052 0.1250 24
0 A6 74.9115 75.0052 0.0938 24
0 D7 74.9271 74.9948 0.0677 22
0 C6 74.9271 74.9948 0.0677 19
0 G#6 74.9427 75.0052 0.0625 26
0 F#6 74.9427 75.0052 0.0625 27
0 E7 74.9531 74.9948 0.0417 20
0 D#7 74.9531 74.9948 0.0417 22
0 C#7 74.9531 75.0052 0.0521 18
0 C7 74.9531 75.0052 0.0521 25
0 B6 74.9531 75.0052 0.0521 17
0 A#6 74.9531 75.0052 0.0521 12
0 G6 74.9531 75.0156 0.0625 27
0 G4 74.9844 75.0052 0.0208 29
0 E6 74.9948 75.0156 0.0208 35
0 E4 74.9948 75.0156 0.0208 57
0 F4 75.0156 75.0573 0.0417 66
0 D#6 75.0156 75.0573 0.0417 24
0 C#6 75.0312 75.0677 0.0365 45
0 F#6 75.0469 75.0781 0.0312 54
0 D#7 75.0573 75.0938 0.0365 10
0 F4 75.0677 75.1042 0.0365 54
0 C6 75.0677 75.1042 0.0365 40
0 F7 75.0677 75.1042 0.0365 46
0 A6 75.0677 75.1198 0.0521 44
0 D7 75.0938 75.1667 0.0729 47
0 G#6 75.1042 75.1302 0.0260 30
0 E4 75.1042 75.1458 0.0417 55
0 B5 75.1042 75.1458 0.0417 28
0 B6 75.1042 75.1458 0.0417 56
0 F#7 75.1042 75.1875 0.0833 28
0 E7 75.1042 75.2031 0.0990 59
0 C7 75.1302 75.1562 0.0260 46
0 G7 75.1302 75.1667 0.0365 19
0 F4 75.1458 75.1667 0.0208 57
0 C#7 75.1458 75.2031 0.0573 62
0 F7 75.1458 75.2604 0.1146 57
0 D#7 75.1562 75.2031 0.0469 39
0 C7 75.1771 75.2135 0.0365 21
0 G4 75.1771 75.2344 0.0573 66
0 D7 75.1771 75.2760 0.0990 59
0 B6 75.1771 75.3021 0.1250 54
0 G6 75.2031 75.2344 0.0312 16
0 A#6 75.2240 75.2604 0.0365 16
0 D#7 75.2240 75.2760 0.0521 27
0 C7 75.2240 75.2760 0.0521 27
0 C#7 75.2240 75.2865 0.0625 15
0 F#4 75.2344 75.2604 0.0260 53
0 A6 75.2344 75.2760 0.0417 18
0 E7 75.2344 75.2865 0.0521 12
0 F#7 75.2865 75.3646 0.0781 27
0 E7 75.3125 75.3646 0.0521 18
0 C7 75.3229 75.3646 0.0417 13
0 F7 75.3229 75.3750 0.0521 21
0 D#7 75.3229 75.3750 0.0521 15
0 C#7 75.3229 75.3750 0.0521 23
0 B6 75.3229 75.3750 0.0521 25
0 G6 75.3229 75.3750 0.0521 20
0 G#6 75.3229 75.3854 0.0625 17
0 A6 75.3229 75.3854 0.0625 23
0 F#6 75.3333 75.3854 0.0521 20
0 A#6 75.3438 75.3854 0.0417 19
0 D7 75.3438 75.3958 0.0521 13
0 F6 75.3646 75.3958 0.0312 12
0 F5 75.3854 75.6719 0.2865 58
0 F#4 75.3958 75.4167 0.0208 57
0 C6 75.3958 75.6979 0.3021 68
0 F4 75.4167 75.6562 0.2396 59
0 F7 75.4479 75.5365 0.0885 15
0 F7 75.5729 75.6562 0.0833 12
0 G7 75.6250 75.6562 0.0312 15
0 E4 75.6562 75.7188 0.0625 63
0 B5 75.6823 75.7188 0.0365 39
0 G6 75.7083 75.7448 0.0365 24
0 D#4 75.7188 75.7552 0.0365 63
0 A#5 75.7188 75.7552 0.0365 22
0 C6 75.7188 75.7552 0.0365 12
0 G7 75.7188 75.7656 0.0469 35
0 D6 75.7448 75.9062 0.1615 37
0 F#6 75.7448 75.9271 0.1823 62
0 D4 75.7552 75.8958 0.1406 56
0 A5 75.7552 75.9583 0.2031 52
0 D5 75.7552 76.0312 0.2760 72
0 E5 75.7969 75.8438 0.0469 20
0 E7 75.7969 75.9792 0.1823 33
0 C7 75.8333 75.8802 0.0469 20
0 F5 75.8698 75.9062 0.0365 18
0 C#4 75.8958 75.9167 0.0208 55
0 D4 75.9167 76.0573 0.1406 69
0 F#7 75.9479 76.2135 0.2656 34
0 A5 75.9792 76.0156 0.0365 30
0 F#6 75.9792 76.0312 0.0521 38
0 F7 75.9792 76.1198 0.1406 38
0 A6 75.9948 76.0312 0.0365 34
0 C#7 76.0052 76.0469 0.0417 16
0 B6 76.0052 76.0469 0.0417 46
0 G#6 76.0156 76.0469 0.0312 40
0 F5 76.0156 76.0573 0.0417 11
0 G#5 76.0156 76.0677 0.0521 39
0 G7 76.0156 76.0677 0.0521 16
0 C7 76.0312 76.0781 0.0469 45
0 E7 76.0312 76.1615 0.1302 34
0 C4 76.0469 76.0677 0.0208 32
0 A#6 76.0469 76.0677 0.0208 43
0 F#5 76.0469 76.0885 0.0417 31
0 D#7 76.0469 76.1042 0.0573 38
0 B4 76.0573 76.1042 0.0469 62
0 B6 76.0573 76.1042 0.0469 24
0 C#7 76.0573 76.1302 0.0729 54
0 B3 76.0677 76.1042 0.0365 49
0 D7 76.0781 76.1719 0.0938 44
0 C5 76.1042 76.1406 0.0365 55
0 D5 76.1302 76.1927 0.0625 46
0 D#4 76.1406 76.1823 0.0417 63
0 C7 76.1406 76.1927 0.0521 23
0 D#7 76.1615 76.1823 0.0208 48
0 F7 76.1615 76.1823 0.0208 30
0 E7 76.1719 76.2396 0.0677 36
0 D7 76.1823 76.2135 0.0312 42
0 B6 76.1823 76.2188 0.0365 24
0 C#5 76.1927 76.2188 0.0260 36
0 C4 76.2135 76.2292 0.0156 60
0 A#3 76.2292 76.2760 0.0469 68
0 D#7 76.2292 76.2969 0.0677 24
0 B4 76.2396 76.2760 0.0365 60
0 F7 76.2500 76.2969 0.0469 22
0 G#6 76.2500 76.2969 0.0469 11
0 A6 76.2500 76.3229 0.0729 36
0 E7 76.2500 76.3750 0.1250 23
0 D7 76.2500 76.3854 0.1354 36
0 B6 76.2500 76.3958 0.1458 42
0 C7 76.2656 76.2969 0.0312 22
0 C#7 76.2656 76.2969 0.0312 25
0 B3 76.2760 76.2969 0.0208 52
0 C#5 76.2865 76.3125 0.0260 68
0 C4 76.2969 76.3438 0.0469 53
0 F#7 76.2969 76.3438 0.0469 18
0 D5 76.3125 76.3333 0.0208 71
0 C7 76.3125 76.3750 0.0625 45
0 D#7 76.3229 76.3958 0.0729 31
0 F7 76.3229 76.4583 0.1354 42
0 C#7 76.3229 76.4583 0.1354 55
0 C#5 76.3333 76.3646 0.0312 62
0 B3 76.3438 76.3854 0.0417 44
0 B4 76.3438 76.4062 0.0625 62
0 C4 76.3854 76.4062 0.0208 53
0 F#7 76.3958 76.4479 0.0521 29
0 C#4 76.4062 76.4583 0.0521 62
0 D#7 76.4062 76.4583 0.0521 41
0 B6 76.4219 76.4583 0.0365 20
0 B4 76.4219 76.4583 0.0365 16
0 A3 76.4479 76.4844 0.0365 42
0 G#3 76.4948 76.5417 0.0469 67
0 C#5 76.5104 76.5625 0.0521 57
0 A#6 76.5104 76.5885 0.0781 16
0 F#4 76.5312 76.5521 0.0208 39
0 E7 76.5312 76.5990 0.0677 33
0 G#6 76.5417 76.5781 0.0365 17
0 F#3 76.5521 76.5781 0.0260 58
0 D5 76.5625 76.6510 0.0885 64
0 D#7 76.5781 76.6146 0.0365 14
0 E6 76.5781 76.6406 0.0625 48
0 G3 76.5781 76.8021 0.2240 64
0 F7 76.5990 76.7760 0.1771 19
0 B5 76.6146 76.6667 0.0521 25
0 G#5 76.6250 76.6562 0.0312 25
0 D#5 76.6510 76.6823 0.0312 40
0 F#7 76.6667 76.7760 0.1094 27
0 D5 76.6823 76.8385 0.1562 54
0 G#4 76.7344 76.7656 0.0312 60
0 G#3 76.8021 76.8229 0.0208 39
0 G#4 76.8021 76.8542 0.0521 64
0 A#3 76.8385 76.8698 0.0312 44
0 A#4 76.8542 76.8802 0.0260 44
0 B5 76.8542 76.8802 0.0260 48
0 F#5 76.8542 76.8802 0.0260 39
0 E6 76.8542 76.9271 0.0729 49
0 C5 76.8698 76.9896 0.1198 70
0 C#4 76.8802 76.9062 0.0260 36
0 G#4 76.8802 76.9271 0.0469 18
0 A#6 76.8802 76.9427 0.0625 37
0 G5 76.8802 76.9896 0.1094 35
0 D#7 76.8958 76.9167 0.0208 34
0 F#7 76.8958 76.9688 0.0729 21
0 C7 76.8958 76.9792 0.0833 46
0 C4 76.9062 76.9896 0.0833 58
0 D7 76.9167 77.0417 0.1250 47
0 G#4 76.9427 76.9896 0.0469 17
0 G7 76.9688 77.0312 0.0625 18
0 B3 76.9896 77.0208 0.0312 46
0 C7 77.0052 77.0417 0.0365 41
0 A#4 77.0052 77.0521 0.0469 64
0 F7 77.0208 77.0417 0.0208 30
0 A#3 77.0208 77.0521 0.0312 50
0 D#7 77.0208 77.0625 0.0417 35
0 F#7 77.0208 77.0625 0.0417 27
0 G7 77.0417 77.0833 0.0417 21
0 C#7 77.0417 77.1719 0.1302 40
0 B6 77.0417 77.2448 0.2031 52
0 A6 77.0417 77.3073 0.2656 46
0 E7 77.0417 77.4583 0.4167 35
0 E5 77.0417 77.5677 0.5260 65
0 A5 77.0521 77.5260 0.4740 69
0 A3 77.0521 77.5677 0.5156 50
0 A4 77.0521 77.5677 0.5156 54
0 D7 77.0625 77.1615 0.0990 27
0 F7 77.0625 77.4375 0.3750 44
0 C#6 77.0625 77.5052 0.4427 58
0 F#6 77.0729 77.1250 0.0521 49
0 G7 77.1042 77.4948 0.3906 27
0 G6 77.1250 77.5260 0.4010 41
0 D#7 77.1615 77.2865 0.1250 21
0 D7 77.3229 77.3750 0.0521 13
0 D#7 77.3750 77.4688 0.0938 10
0 F#7 77.4375 77.4948 0.0573 29
0 F7 77.5052 77.5677 0.0625 19
0 C#6 77.5990 77.7031 0.1042 14
0 B3 77.8646 77.8854 0.0208 41
0 F6 77.9635 77.9948 0.0312 15
0 D#4 77.9635 77.9948 0.0312 71
0 E7 77.9740 78.4010 0.4271 49
0 F#4 77.9948 78.0521 0.0573 50
0 F#6 77.9948 78.3906 0.3958 52
0 D4 77.9948 78.3906 0.3958 74
0 F#7 78.0104 78.3906 0.3802 54
0 D5 78.0104 78.4219 0.4115 74
0 A6 78.0260 78.1406 0.1146 21
0 F5 78.0417 78.0885 0.0469 30
0 C6 78.0521 78.1771 0.1250 18
0 F4 78.0677 78.0990 0.0312 53
0 F#4 78.0990 78.1510 0.0521 24
0 D7 78.1302 78.2292 0.0990 11
0 F6 78.1406 78.1667 0.0260 29
0 F#5 78.1406 78.2292 0.0885 28
0 E6 78.1667 78.2135 0.0469 32
0 E5 78.1771 78.2031 0.0260 38
0 B5 78.1771 78.2135 0.0365 16
0 A5 78.1771 78.4115 0.2344 47
0 F#4 78.1927 78.2292 0.0365 35
0 E6 78.2292 78.2604 0.0312 20
0 F5 78.2396 78.2604 0.0208 31
0 F6 78.2604 78.3177 0.0573 28
0 F#5 78.2604 78.3438 0.0833 38
0 F5 78.2812 78.3177 0.0365 24
0 F5 78.3333 78.3646 0.0312 31
0 B4 78.3438 78.3750 0.0312 17
0 F#5 78.3646 78.3906 0.0260 29
0 C6 78.3750 78.4219 0.0469 17
0 F6 78.3750 78.4531 0.0781 46
0 F5 78.3906 78.4427 0.0521 33
0 C#4 78.4115 78.4896 0.0781 72
0 G#5 78.4115 78.4896 0.0781 20
0 F#3 78.4219 78.4635 0.0417 14
0 D#6 78.4740 78.5104 0.0365 53
0 F5 78.4740 78.5260 0.0521 28
0 F#6 78.4740 78.6823 0.2083 59
0 D#5 78.4896 78.5260 0.0365 55
0 A5 78.4896 78.7031 0.2135 53
0 D7 78.4896 78.7344 0.2448 50
0 F4 78.5000 78.5677 0.0677 26
0 E7 78.5000 78.6510 0.1510 22
0 D6 78.5000 78.7031 0.2031 46
0 C6 78.5104 78.5677 0.0573 12
0 D4 78.5104 78.6042 0.0938 27
0 C7 78.5104 78.6615 0.1510 48
0 A6 78.5104 78.7135 0.2031 59
0 D5 78.5260 78.7031 0.1771 71
0 F5 78.5365 78.6510 0.1146 35
0 F6 78.5365 78.6510 0.1146 44
0 C5 78.5885 78.6719 0.0833 36
0 C#4 78.6510 78.6719 0.0208 40
0 E5 78.6510 78.7240 0.0729 36
0 B6 78.6615 78.7760 0.1146 65
0 D4 78.6719 78.7240 0.0521 38
0 F6 78.6823 78.7344 0.0521 28
0 G#6 78.6823 78.7969 0.1146 58
0 B4 78.7031 78.7448 0.0417 42
0 C#5 78.7031 78.7865 0.0833 74
0 C#7 78.7135 78.8125 0.0990 55
0 F#6 78.7240 78.7604 0.0365 19
0 C#4 78.7240 78.7760 0.0521 45
0 D#5 78.7240 78.7865 0.0625 31
0 G6 78.7240 78.7865 0.0625 24
0 A#4 78.7448 78.7760 0.0312 46
0 F6 78.7448 78.7865 0.0417 24
0 A#6 78.7448 78.8750 0.1302 70
0 C4 78.7760 78.8125 0.0365 51
0 F#6 78.7760 78.8125 0.0365 14
0 D5 78.7865 78.8229 0.0365 26
0 A6 78.7865 78.8438 0.0573 27
0 G6 78.7969 78.8333 0.0365 19
0 C7 78.7969 78.8750 0.0781 52
0 B6 78.8125 78.8438 0.0312 36
0 B4 78.8125 78.8646 0.0521 56
0 D7 78.8125 78.8646 0.0521 36
0 A#4 78.8438 78.8750 0.0312 30
0 C4 78.8750 78.8958 0.0208 32
0 C#5 78.8854 78.9479 0.0625 29
0 F#7 78.9219 79.0052 0.0833 17
0 D5 78.9323 78.9844 0.0521 20
0 D4 78.9844 79.0052 0.0208 58
0 C#5 78.9844 79.0052 0.0208 47
0 F5 78.9948 79.0521 0.0573 52
0 B6 78.9948 79.0938 0.0990 56
0 A6 78.9948 79.1302 0.1354 50
0 E7 78.9948 79.1719 0.1771 42
0 F4 79.0052 79.0521 0.0469 31
0 F7 79.0052 79.0781 0.0729 36
0 D5 79.0052 79.1042 0.0990 70
0 D7 79.0052 79.1198 0.1146 45
0 F#6 79.0052 79.1302 0.1250 60
0 A5 79.0052 79.1719 0.1667 51
0 C6 79.0260 79.0521 0.0260 32
0 D4 79.0260 79.1198 0.0938 51
0 F#5 79.0521 79.1042 0.0521 45
0 C#6 79.0521 79.1042 0.0521 32
0 C7 79.0938 79.1302 0.0365 25
0 C#5 79.1042 79.1406 0.0365 54
0 F4 79.1042 79.1510 0.0469 36
0 D4 79.1302 79.1719 0.0417 56
0 F#4 79.1510 79.1875 0.0365 41
0 A#3 79.2031 79.2240 0.0208 51
0 F4 79.2240 79.3021 0.0781 63
0 F7 79.2396 79.3021 0.0625 26
0 F#7 79.2396 79.3333 0.0938 27
0 B6 79.2604 79.3646 0.1042 37
0 C7 79.2604 79.3802 0.1198 22
0 E7 79.2604 79.3958 0.1354 50
0 B5 79.2708 79.3333 0.0625 23
0 D7 79.2865 79.3229 0.0365 40
0 G#6 79.2865 79.3333 0.0469 17
0 E5 79.2865 79.3490 0.0625 21
0 G3 79.3021 79.3333 0.0312 26
0 E4 79.3021 79.3646 0.0625 72
0 A6 79.3125 79.3750 0.0625 25
0 D#7 79.3125 79.4167 0.1042 42
0 C#7 79.3229 79.4062 0.0833 42
0 F#3 79.3333 79.4062 0.0729 22
0 A#5 79.3333 79.4219 0.0885 18
0 F7 79.3333 79.4219 0.0885 39
0 D#5 79.3490 79.4167 0.0677 27
0 A#6 79.3490 79.4219 0.0729 37
0 D#4 79.3646 79.4167 0.0521 71
0 G7 79.3750 79.4062 0.0312 15
0 B6 79.4062 79.4375 0.0312 19
0 C7 79.4062 79.4635 0.0573 55
0 F#7 79.4062 79.4844 0.0781 21
0 D4 79.4167 79.4740 0.0573 72
0 D7 79.4167 79.4740 0.0573 42
0 A6 79.4219 79.4635 0.0417 18
0 E7 79.4219 79.4740 0.0521 45
0 C#7 79.4219 79.5104 0.0885 45
0 B6 79.4635 79.4844 0.0208 46
0 C#4 79.4740 79.5104 0.0365 62
0 D#7 79.4740 79.5104 0.0365 47
0 E7 79.4844 79.5521 0.0677 25
0 A#6 79.4844 79.5625 0.0781 26
0 C4 79.5104 79.5625 0.0521 60
0 C7 79.5104 79.5625 0.0521 62
0 D7 79.5104 79.5625 0.0521 35
0 F7 79.5260 79.6198 0.0938 19
0 D#7 79.5521 79.5990 0.0469 35
0 B3 79.5625 79.5885 0.0260 57
0 F#4 79.5625 79.5885 0.0260 38
0 A4 79.5625 79.5885 0.0260 33
0 C#7 79.5625 79.6198 0.0573 36
0 B6 79.5625 79.6302 0.0677 55
0 G4 79.5885 79.6198 0.0312 45
0 C7 79.5885 79.6198 0.0312 40
0 D4 79.6510 79.6875 0.0365 24
0 B6 79.9635 80.0000 0.0365 19
0 C#7 79.9635 80.0938 0.1302 46
0 C#4 79.9896 80.0104 0.0208 63
0 C7 79.9896 80.0521 0.0625 34
0 G7 79.9896 80.1562 0.1667 26
0 C5 80.0000 80.0625 0.0625 31
0 F#7 80.0000 80.3385 0.3385 37
0 C4 80.0104 80.0625 0.0521 68
0 D7 80.0104 80.1302 0.1198 30
0 B3 80.0625 80.1042 0.0417 65
0 F7 80.0729 80.2969 0.2240 27
0 A#4 80.0938 80.1302 0.0365 30
0 C7 80.0938 80.1406 0.0469 25
0 A#3 80.1042 80.1302 0.0260 68
0 C#7 80.1198 80.1615 0.0417 35
0 A3 80.1302 80.1562 0.0260 65
0 D#7 80.2135 80.2448 0.0312 16
0 G7 80.2292 80.3906 0.1615 20
0 B3 80.2552 80.2812 0.0260 63
0 D7 80.2552 80.3073 0.0521 43
0 A3 80.2812 80.4062 0.1250 68
0 B6 80.2812 80.4271 0.1458 52
0 C#7 80.2969 80.4271 0.1302 33
0 D#7 80.3073 80.4167 0.1094 42
0 A#6 80.3073 80.4271 0.1198 31
0 A6 80.3073 80.4271 0.1198 24
0 D7 80.3385 80.4271 0.0885 24
0 F#7 80.3698 80.4167 0.0469 14
0 B3 80.4688 80.5052 0.0365 20
0 G6 80.4844 80.5573 0.0729 45
0 G#4 80.4948 80.5469 0.0521 42
0 F6 80.4948 80.5573 0.0625 31
0 E6 80.5052 80.5469 0.0417 26
0 D5 80.5052 80.5573 0.0521 56
0 B5 80.5208 80.5833 0.0625 20
0 F4 80.5208 80.5938 0.0729 53
0 D7 80.5208 80.6094 0.0885 25
0 A#5 80.5365 80.5729 0.0365 18
0 F#6 80.5365 80.5833 0.0469 27
0 D#6 80.5469 80.5833 0.0365 10
0 F3 80.5469 80.5833 0.0365 40
0 B4 80.5469 80.5833 0.0365 42
0 E5 80.5469 80.5938 0.0469 58
0 G#6 80.5469 80.6094 0.0625 25
0 D#7 80.5469 80.6302 0.0833 18
0 E7 80.5573 80.6094 0.0521 26
0 F#3 80.5833 80.6302 0.0469 42
0 F#4 80.5938 80.6302 0.0365 58
0 D5 80.6094 80.6510 0.0417 28
0 G5 80.6094 80.6615 0.0521 21
0 G4 80.6302 80.6615 0.0312 57
0 A3 80.6302 80.6615 0.0312 37
0 B3 80.6615 80.6875 0.0260 34
0 A3 80.6875 80.7083 0.0208 45
0 G4 80.6875 80.7188 0.0312 12
0 D#5 80.7031 80.7344 0.0312 25
0 G#3 80.7083 80.7448 0.0365 30
0 F6 80.7188 80.9427 0.2240 57
0 D#7 80.7344 80.7656 0.0312 20
0 F#5 80.7344 80.7865 0.0521 38
0 E6 80.7344 80.7865 0.0521 48
0 D6 80.7344 80.8073 0.0729 50
0 C7 80.7344 80.8802 0.1458 20
0 G6 80.7344 80.9531 0.2188 34
0 C6 80.7448 80.7969 0.0521 65
0 G#6 80.7448 80.8073 0.0625 39
0 C#5 80.7448 80.8177 0.0729 44
0 C#4 80.7552 80.7865 0.0312 41
0 B5 80.7552 80.7969 0.0417 47
0 G4 80.7552 80.7969 0.0417 24
0 C#7 80.7552 80.8073 0.0521 17
0 F5 80.7656 80.8073 0.0417 38
0 G#5 80.7656 80.8073 0.0417 46
0 F#6 80.7656 80.8177 0.0521 41
0 A6 80.7656 80.8542 0.0885 32
0 C4 80.7865 80.8177 0.0312 49
0 D#6 80.7865 80.8438 0.0573 38
0 C#6 80.7969 80.8177 0.0208 67
0 A#5 80.7969 80.8333 0.0365 40
0 G5 80.7969 80.8438 0.0469 44
0 E5 80.8073 80.8438 0.0365 39
0 C5 80.8177 80.8438 0.0260 42
0 A5 80.8177 80.8542 0.0365 43
0 B5 80.8177 80.8542 0.0365 49
0 G4 80.8177 80.8958 0.0781 30
0 D6 80.8177 80.8958 0.0781 24
0 G#6 80.8177 80.9062 0.0885 35
0 F#6 80.8333 80.8958 0.0625 52
0 C#7 80.8333 80.9062 0.0729 9
0 F#5 80.8438 80.8698 0.0260 53
0 D#6 80.8542 80.8958 0.0417 20
0 C#6 80.8542 80.9062 0.0521 21
0 A#3 80.8542 80.9271 0.0729 59
0 F5 80.8698 80.9271 0.0573 54
0 E6 80.8802 80.9531 0.0729 36
0 D5 80.8958 80.9167 0.0208 30
0 A5 80.8958 80.9271 0.0312 17
0 A6 80.8958 80.9740 0.0781 21
0 B6 80.8958 81.2500 0.3542 65
0 G4 80.9062 80.9427 0.0365 36
0 C6 80.9062 80.9427 0.0365 12
0 D#5 80.9167 80.9427 0.0260 31
0 A4 80.9167 80.9531 0.0365 56
0 A#6 80.9167 80.9531 0.0365 16
0 A3 80.9271 80.9531 0.0260 51
0 E5 80.9271 80.9896 0.0625 51
0 G#3 80.9531 81.0000 0.0469 55
0 G#4 80.9531 81.0260 0.0729 58
0 A#6 80.9740 81.0312 0.0573 27
0 D5 81.0000 81.0260 0.0260 33
0 G6 81.0000 81.0677 0.0677 19
0 A6 81.0000 81.3021 0.3021 49
0 G3 81.0000 81.4010 0.4010 58
0 D#7 81.0104 81.0677 0.0573 22
0 C7 81.0104 81.1823 0.1719 40
0 D7 81.0104 81.2396 0.2292 34
0 F7 81.0104 81.2656 0.2552 32
0 D6 81.0260 81.0781 0.0521 12
0 F#7 81.0260 81.1354 0.1094 30
0 A#4 81.0260 81.2396 0.2135 37
0 G4 81.0260 81.4792 0.4531 62
0 G5 81.0260 81.4896 0.4635 71
0 D5 81.0312 81.5833 0.5521 66
0 C#7 81.0469 81.1510 0.1042 35
0 E7 81.0677 81.1354 0.0677 27
0 F6 81.0781 81.4792 0.4010 70
0 B5 81.1250 81.4948 0.3698 54
0 D#7 81.1354 81.2656 0.1302 43
0 D6 81.1354 81.4792 0.3438 69
0 A#6 81.1510 81.1979 0.0469 25
0 C#7 81.1823 81.2292 0.0469 19
0 F5 81.1823 81.4635 0.2812 43
0 F#7 81.2188 81.3802 0.1615 25
0 A#5 81.2760 81.3021 0.0260 31
0 A#4 81.3385 81.4115 0.0729 14
0 A5 81.3490 81.4635 0.1146 17
0 A6 81.3802 81.4271 0.0469 20
0 G3 81.4115 81.4896 0.0781 50
0 F#4 81.4792 81.5052 0.0260 40
0 G4 81.5365 81.5573 0.0208 35
0 G3 81.5365 81.5573 0.0208 33
0 G4 81.5677 81.6198 0.0521 24
0 G4 81.6510 81.7135 0.0625 26
0 G6 81.7031 81.7292 0.0260 12
0 D#4 81.9375 81.9688 0.0312 52
0 E4 81.9688 81.9896 0.0208 53
0 F#7 81.9896 82.1198 0.1302 45
0 D5 81.9896 82.1458 0.1562 56
0 A5 82.0052 82.1198 0.1146 24
0 D4 82.0052 82.1302 0.1250 61
0 F#6 82.0156 82.0677 0.0521 29
0 E7 82.0156 82.1198 0.1042 58
0 A6 82.0312 82.0781 0.0469 33
0 C7 82.0312 82.1198 0.0885 47
0 D7 82.0417 82.1302 0.0885 65
0 G7 82.0990 82.1458 0.0469 43
0 F7 82.1198 82.1719 0.0521 36
0 D#7 82.1198 82.1823 0.0625 53
0 C#4 82.1302 82.1823 0.0521 59
0 C#7 82.1302 82.1823 0.0521 58
0 F#7 82.1458 82.2083 0.0625 48
0 E7 82.1719 82.2344 0.0625 43
0 C4 82.1823 82.2344 0.0521 59
0 C7 82.1823 82.2344 0.0521 36
0 D7 82.1823 82.2448 0.0625 68
0 G7 82.1927 82.2344 0.0417 28
0 F7 82.2083 82.4115 0.2031 50
0 D#7 82.2344 82.2552 0.0208 36
0 B6 82.2344 82.2812 0.0469 43
0 F#7 82.2344 82.2812 0.0469 26
0 B3 82.2344 82.2917 0.0573 51
0 F#5 82.2344 82.3021 0.0677 24
0 B4 82.2344 82.3125 0.0781 65
0 C#7 82.2448 82.2656 0.0208 40
0 C7 82.2552 82.2917 0.0365 15
0 G#6 82.2552 82.3385 0.0833 46
0 E7 82.2812 82.3281 0.0469 17
0 A#3 82.2917 82.3646 0.0729 52
0 D6 82.2917 82.3646 0.0729 24
0 F6 82.2917 82.3646 0.0729 21
0 A#6 82.2917 82.4010 0.1094 62
0 F5 82.3021 82.3802 0.0781 51
0 A#5 82.3021 82.4010 0.0990 26
0 C7 82.3021 82.4375 0.1354 56
0 A#4 82.3125 82.3646 0.0521 66
0 F#7 82.3125 82.4010 0.0885 25
0 D#7 82.3281 82.3906 0.0625 42
0 D7 82.3385 82.3646 0.0260 38
0 G6 82.3385 82.3802 0.0417 23
0 C#7 82.3646 82.3906 0.0260 38
0 A4 82.3646 82.4010 0.0365 64
0 A#3 82.3802 82.4531 0.0729 52
0 D7 82.3802 82.5417 0.1615 26
0 F7 82.4375 82.4896 0.0521 26
0 E7 82.4531 82.5729 0.1198 41
0 D4 82.4896 82.5208 0.0312 60
0 F#7 82.4896 82.5625 0.0729 17
0 C7 82.4948 82.5521 0.0573 46
0 C#5 82.5104 82.6510 0.1406 71
0 D4 82.5417 82.5625 0.0208 55
0 B6 82.5521 82.5885 0.0365 47
0 F7 82.5625 82.6146 0.0521 41
0 C#4 82.5625 82.6250 0.0625 55
0 G#5 82.5625 82.6250 0.0625 22
0 C#7 82.5625 82.6354 0.0729 28
0 D#7 82.5729 82.6354 0.0625 37
0 A#6 82.5885 82.6875 0.0990 62
0 F#7 82.5990 82.6510 0.0521 24
0 E7 82.6146 82.6771 0.0625 42
0 G5 82.6250 82.6771 0.0521 63
0 C4 82.6250 82.6875 0.0625 39
0 C7 82.6354 82.6771 0.0417 32
0 D7 82.6354 82.6771 0.0417 22
0 C5 82.6354 82.6875 0.0521 51
0 F7 82.6510 82.7760 0.1250 44
0 B6 82.6667 82.7188 0.0521 37
0 A6 82.6771 82.7188 0.0417 62
0 C#7 82.6771 82.7188 0.0417 28
0 D#7 82.6771 82.7188 0.0417 19
0 F#5 82.6771 82.7292 0.0521 60
0 B3 82.6875 82.7188 0.0312 40
0 E7 82.6875 82.7292 0.0417 25
0 G#6 82.7083 82.7552 0.0469 46
0 D7 82.7083 82.7760 0.0677 17
0 C7 82.7083 82.7760 0.0677 32
0 A#4 82.7083 82.7917 0.0833 64
0 A#6 82.7083 82.7917 0.0833 65
0 F6 82.7188 82.7760 0.0573 23
0 A#3 82.7188 82.7917 0.0729 46
0 F5 82.7292 82.7760 0.0469 40
0 D#7 82.7292 82.8177 0.0885 38
0 G6 82.7552 82.8177 0.0625 51
0 F#7 82.7656 82.8021 0.0365 14
0 A6 82.7760 82.8385 0.0625 67
0 B6 82.7760 82.8490 0.0729 33
0 E5 82.7760 82.9167 0.1406 62
0 C#6 82.7760 82.9167 0.1406 40
0 A5 82.7760 83.0833 0.3073 53
0 A3 82.7917 83.0833 0.2917 69
0 D7 82.8021 82.8490 0.0469 37
0 F#6 82.8177 82.8490 0.0312 48
0 F7 82.8281 82.8698 0.0417 12
0 G6 82.8490 82.9010 0.0521 21
0 F#7 82.8698 82.9375 0.0677 36
0 C#7 82.9167 82.9688 0.0521 9
0 F7 82.9375 83.0417 0.1042 37
0 C#6 82.9688 83.0000 0.0312 10
0 E5 82.9792 83.0833 0.1042 61
0 C6 83.0000 83.0260 0.0260 39
0 C#6 83.0260 83.0833 0.0573 67
0 F7 83.0521 83.1250 0.0729 18
0 F#5 83.0729 83.0938 0.0208 33
0 D6 83.0729 83.0938 0.0208 48
0 F5 83.0833 83.1042 0.0208 38
0 C6 83.0833 83.1250 0.0417 42
0 F#6 83.0833 83.2500 0.1667 56
0 D#6 83.0938 83.1250 0.0312 43
0 A4 83.0938 83.1458 0.0521 11
0 A6 83.0938 83.1562 0.0625 17
0 G#5 83.1042 83.1354 0.0312 60
0 A3 83.1042 83.1562 0.0521 13
0 G6 83.1042 83.1562 0.0521 42
0 E7 83.1042 83.1562 0.0521 30
0 D4 83.1042 83.1719 0.0677 38
0 C#6 83.1250 83.1458 0.0208 31
0 D5 83.1250 83.1719 0.0469 67
0 A5 83.1354 83.1719 0.0365 41
0 F6 83.1562 83.1979 0.0417 46
0 C#5 83.1719 83.1875 0.0156 66
0 G5 83.1719 83.2135 0.0417 20
0 C4 83.1875 83.2135 0.0260 45
0 D#6 83.1979 83.2500 0.0521 32
0 B4 83.1979 83.2604 0.0625 65
0 B3 83.2135 83.2500 0.0365 52
0 G#5 83.2500 83.2865 0.0365 29
0 F6 83.2500 83.2865 0.0365 43
0 C#4 83.2604 83.2969 0.0365 55
0 E7 83.2604 83.3177 0.0573 15
0 D5 83.2708 83.3177 0.0469 73
0 A5 83.2865 83.3073 0.0208 33
0 F#6 83.2865 83.3177 0.0312 62
0 D4 83.2969 83.3177 0.0208 36
0 G#5 83.3073 83.3281 0.0208 48
0 F6 83.3073 83.3281 0.0208 42
0 C#6 83.3073 83.3438 0.0365 31
0 C#4 83.3177 83.3438 0.0260 35
0 C#5 83.3177 83.3438 0.0260 59
0 E6 83.3281 83.4219 0.0938 59
0 G5 83.3281 83.4479 0.1198 56
0 C6 83.3281 83.4583 0.1302 59
0 C5 83.3438 83.4479 0.1042 69
0 C4 83.3438 83.4583 0.1146 33
0 F7 83.3542 83.4010 0.0469 50
0 D5 83.3854 83.4688 0.0833 12
0 F#7 83.4010 83.4323 0.0312 34
0 F#5 83.4479 83.4688 0.0208 44
0 B4 83.4479 83.4792 0.0312 60
0 B3 83.4583 83.4792 0.0208 39
0 F5 83.4688 83.4948 0.0260 45
0 A#3 83.4792 83.5052 0.0260 42
0 E5 83.4948 83.5156 0.0208 35
0 A4 83.4948 83.6406 0.1458 63
0 A3 83.5052 83.5260 0.0208 53
0 G#5 83.5052 83.5260 0.0208 30
0 D#5 83.5156 83.5573 0.0417 43
0 C5 83.5417 83.6198 0.0781 29
0 C#6 83.5417 83.6302 0.0885 52
0 A3 83.5417 83.6406 0.0990 51
0 E7 83.5573 83.6042 0.0469 11
0 E5 83.5573 83.6302 0.0729 65
0 G6 83.5781 83.6302 0.0521 37
0 D#7 83.5885 83.6302 0.0417 32
0 G#3 83.6406 83.6667 0.0260 33
0 E4 83.7552 83.7812 0.0260 40
0 F7 83.7552 83.8802 0.1250 13
0 C7 83.7708 83.8229 0.0521 28
0 A6 83.7708 83.8229 0.0521 19
0 D#7 83.7708 83.8333 0.0625 19
0 D7 83.7812 83.8073 0.0260 31
0 F4 83.7969 83.8229 0.0260 66
0 G7 83.7969 83.8333 0.0365 25
0 F4 83.8333 83.9010 0.0677 60
0 D4 83.8906 83.9115 0.0208 46
0 A3 83.9115 83.9531 0.0417 29
0 G7 83.9115 83.9896 0.0781 14
0 D7 83.9271 84.0417 0.1146 21
0 E7 83.9531 83.9896 0.0365 23
0 F#7 83.9531 84.0000 0.0469 11
0 D#7 83.9531 84.0000 0.0469 36
0 B6 83.9531 84.0573 0.1042 24
0 A#6 83.9635 83.9896 0.0260 33
0 A6 83.9635 84.0417 0.0781 29
0 C#7 83.9792 84.0573 0.0781 17
0 G#5 83.9896 84.0260 0.0365 62
0 G6 83.9896 84.0417 0.0521 22
0 C#6 84.0000 84.0260 0.0260 36
0 A#5 84.0000 84.0521 0.0521 19
0 F6 84.0000 84.0573 0.0573 53
0 C#4 84.0000 84.0573 0.0573 34
0 C#5 84.0260 84.0573 0.0312 34
0 D#7 84.0260 84.0573 0.0312 18
0 D6 84.0260 84.2292 0.2031 73
0 G#5 84.0417 84.0573 0.0156 58
0 C#6 84.0417 84.0573 0.0156 66
0 E7 84.0521 84.1719 0.1198 34
0 A6 84.0521 84.1719 0.1198 30
0 C7 84.0573 84.0990 0.0417 20
0 D4 84.0573 84.1875 0.1302 34
0 D5 84.0573 84.1875 0.1302 49
0 A5 84.0573 84.1875 0.1302 70
0 F#6 84.0573 84.2188 0.1615 51
0 B6 84.0990 84.1406 0.0417 17
0 B5 84.1094 84.1510 0.0417 12
0 F7 84.1719 84.2865 0.1146 31
0 A#5 84.1875 84.2083 0.0208 71
0 D#5 84.1875 84.2188 0.0312 46
0 D#6 84.1875 84.2188 0.0312 62
0 D4 84.2083 84.2292 0.0208 33
0 A5 84.2083 84.2292 0.0208 66
0 E7 84.2083 84.4323 0.2240 29
0 F6 84.2188 84.2500 0.0312 34
0 C#5 84.2292 84.2500 0.0208 38
0 G#5 84.2292 84.2500 0.0208 63
0 C#6 84.2292 84.2500 0.0208 59
0 C#4 84.2292 84.2604 0.0312 28
0 E6 84.2292 84.3021 0.0729 45
0 G5 84.2500 84.3021 0.0521 57
0 C5 84.2500 84.3021 0.0521 39
0 C6 84.2500 84.3125 0.0625 56
0 D#6 84.2708 84.3125 0.0417 21
0 F#7 84.2865 84.4115 0.1250 16
0 C#6 84.2865 84.4219 0.1354 43
0 A5 84.3021 84.3333 0.0312 60
0 D6 84.3021 84.3490 0.0469 55
0 G7 84.3021 84.3490 0.0469 9
0 D5 84.3125 84.3333 0.0208 50
0 D#6 84.3229 84.3490 0.0260 52
0 A#6 84.3229 84.3594 0.0365 9
0 D#4 84.3229 84.3594 0.0365 28
0 F7 84.3333 84.3854 0.0521 17
0 G5 84.3333 84.3958 0.0625 22
0 A5 84.3490 84.3958 0.0469 20
0 G#6 84.3490 84.3958 0.0469 12
0 E6 84.3490 84.4115 0.0625 64
0 E5 84.3490 84.4115 0.0625 53
0 B5 84.3490 84.4115 0.0625 69
0 D#6 84.3594 84.3854 0.0260 43
0 E4 84.3594 84.4115 0.0521 33
0 D6 84.3854 84.4688 0.0833 58
0 D#6 84.3958 84.4323 0.0365 57
0 D#4 84.4115 84.4323 0.0208 39
0 D#5 84.4115 84.4323 0.0208 50
0 A#5 84.4115 84.4427 0.0312 63
0 F7 84.4115 84.4583 0.0469 31
0 F6 84.4323 84.4583 0.0260 30
0 C#5 84.4427 84.4688 0.0260 42
0 C6 84.4583 84.5052 0.0469 54
0 C4 84.4583 84.5156 0.0573 28
0 E6 84.4583 84.5312 0.0729 42
0 G5 84.4583 84.5677 0.1094 67
0 C5 84.4688 84.5156 0.0469 40
0 C#6 84.5052 84.5312 0.0260 53
0 D6 84.5052 84.6458 0.1406 57
0 C#4 84.5156 84.5417 0.0260 29
0 A5 84.5312 84.5573 0.0260 63
0 D5 84.5312 84.5573 0.0260 42
0 F5 84.5312 84.5677 0.0365 13
0 A#5 84.5573 84.5781 0.0208 60
0 G#5 84.5677 84.6198 0.0521 26
0 E5 84.5677 84.6406 0.0729 55
0 F#7 84.5677 84.6406 0.0729 18
0 B5 84.5677 84.6406 0.0729 67
0 E4 84.5781 84.6406 0.0625 27
0 F7 84.6302 84.6615 0.0312 20
0 G6 84.6302 84.6615 0.0312 14
0 D#5 84.6406 84.6615 0.0208 53
0 D#4 84.6406 84.6719 0.0312 23
0 A#5 84.6406 84.6719 0.0312 64
0 D5 84.6615 84.6823 0.0208 48
0 A5 84.6615 84.6823 0.0208 62
0 D6 84.6615 84.7812 0.1198 63
0 F6 84.6719 84.7188 0.0469 30
0 C#5 84.6823 84.7188 0.0365 44
0 C#6 84.7031 84.7396 0.0365 48
0 G5 84.7031 84.7917 0.0885 70
0 C4 84.7188 84.7604 0.0417 32
0 C5 84.7188 84.7812 0.0625 47
0 E6 84.7188 84.7917 0.0729 33
0 G7 84.7292 84.8385 0.1094 28
0 C#4 84.7604 84.7917 0.0312 32
0 B5 84.7604 84.8021 0.0417 9
0 C#6 84.7604 84.8333 0.0729 60
0 G#5 84.7812 84.8177 0.0365 56
0 F#7 84.7812 84.8177 0.0365 25
0 D5 84.7917 84.8177 0.0260 46
0 D#6 84.8021 84.8333 0.0312 56
0 A#5 84.8021 84.8333 0.0312 59
0 F7 84.8021 84.8385 0.0365 18
0 G5 84.8021 84.8802 0.0781 20
0 E5 84.8177 84.8906 0.0729 65
0 E4 84.8333 84.8906 0.0573 32
0 B5 84.8333 84.8906 0.0573 70
0 F#7 84.8385 84.8906 0.0521 19
0 D#5 84.8906 84.9115 0.0208 58
0 D#4 84.8906 84.9219 0.0312 35
0 A#5 84.8906 84.9219 0.0312 58
0 F7 84.8906 84.9219 0.0312 26
0 F#6 84.9010 84.9375 0.0365 16
0 F#7 84.9010 84.9531 0.0521 28
0 D6 84.9010 84.9896 0.0885 73
0 A5 84.9115 84.9531 0.0417 54
0 D5 84.9115 84.9531 0.0417 53
0 G5 84.9375 84.9740 0.0365 60
0 D#6 84.9375 85.0000 0.0625 37
0 C5 84.9531 84.9740 0.0208 46
0 F7 84.9531 85.0104 0.0573 23
0 C4 84.9531 85.0208 0.0677 34
0 F#7 84.9635 85.0573 0.0938 35
0 B4 84.9740 85.0000 0.0260 47
0 F#5 84.9740 85.0000 0.0260 62
0 C5 85.0000 85.0208 0.0208 53
0 G5 85.0000 85.0208 0.0208 58
0 C6 85.0000 85.0417 0.0417 55
0 E6 85.0000 85.0417 0.0417 25
0 G#5 85.0208 85.0469 0.0260 51
0 F7 85.0208 85.0833 0.0625 22
0 D5 85.0417 85.0573 0.0156 59
0 D6 85.0417 85.0677 0.0260 71
0 A5 85.0417 85.0677 0.0260 48
0 G7 85.0417 85.0833 0.0417 31
0 D#4 85.0573 85.0833 0.0260 32
0 D#5 85.0573 85.0833 0.0260 61
0 G#5 85.0573 85.0938 0.0365 14
0 B5 85.0573 85.1302 0.0729 62
0 E7 85.0677 85.1302 0.0625 14
0 F#7 85.0677 85.1302 0.0625 22
0 E4 85.0833 85.1302 0.0469 34
0 E5 85.0833 85.1302 0.0469 65
0 D6 85.0938 85.1458 0.0521 37
0 D#4 85.1302 85.1562 0.0260 33
0 D#5 85.1302 85.1562 0.0260 59
0 D#6 85.1302 85.1562 0.0260 64
0 A#5 85.1302 85.1771 0.0469 59
0 G7 85.1302 85.1979 0.0677 16
0 F7 85.1302 85.1979 0.0677 19
0 F#7 85.1458 85.2969 0.1510 38
0 G#5 85.1562 85.1979 0.0417 40
0 D6 85.1562 85.2604 0.1042 63
0 F6 85.1667 85.1979 0.0312 31
0 C#5 85.1667 85.1979 0.0312 49
0 C4 85.1667 85.2604 0.0938 31
0 G5 85.1771 85.2500 0.0729 53
0 C5 85.1979 85.2500 0.0521 51
0 C6 85.1979 85.2604 0.0625 52
0 E6 85.1979 85.2604 0.0625 35
0 G7 85.2240 85.3125 0.0885 23
0 C#5 85.2500 85.2708 0.0208 48
0 C#6 85.2500 85.2708 0.0208 54
0 G#5 85.2500 85.2865 0.0365 44
0 F7 85.2500 85.3125 0.0625 22
0 D#6 85.2708 85.3125 0.0417 51
0 D#5 85.2865 85.3125 0.0260 61
0 A#5 85.2865 85.3125 0.0260 40
0 D#4 85.2865 85.3229 0.0365 23
0 E5 85.3125 85.3333 0.0208 62
0 B5 85.3125 85.3333 0.0208 48
0 D6 85.3125 85.3438 0.0312 23
0 F#7 85.3125 85.3438 0.0312 14
0 C#7 85.3125 85.3594 0.0469 12
0 D#5 85.3333 85.3594 0.0260 54
0 A#5 85.3333 85.3750 0.0417 40
0 C#6 85.3333 85.3750 0.0417 25
0 D#7 85.3333 85.3750 0.0417 14
0 G7 85.3438 85.4219 0.0781 14
0 D5 85.3594 85.3854 0.0260 50
0 A5 85.3594 85.3854 0.0260 31
0 D6 85.3594 85.3958 0.0365 52
0 C4 85.3854 85.4115 0.0260 37
0 E6 85.3854 85.4115 0.0260 37
0 C6 85.3958 85.4219 0.0260 31
0 D#6 85.3958 85.4531 0.0573 63
0 F#5 85.3958 85.4688 0.0729 51
0 B4 85.4115 85.4375 0.0260 47
0 B3 85.4115 85.4531 0.0417 35
0 G7 85.4271 85.4688 0.0417 24
0 F7 85.4271 85.4792 0.0521 14
0 C5 85.4375 85.4688 0.0312 56
0 E7 85.4375 85.4896 0.0521 18
0 G#5 85.4531 85.4792 0.0260 29
0 D6 85.4531 85.4896 0.0365 39
0 C#7 85.4531 85.5573 0.1042 34
0 D5 85.4792 85.5000 0.0208 50
0 D#4 85.4792 85.5573 0.0781 44
0 D#6 85.4792 85.5573 0.0781 59
0 A#5 85.4896 85.5365 0.0469 19
0 D#5 85.4896 85.5573 0.0677 58
0 G6 85.5000 85.5469 0.0469 13
0 D6 85.5365 85.5833 0.0469 34
0 E5 85.5573 85.5938 0.0365 10
0 D6 85.5938 85.7344 0.1406 20
0 D6 85.8281 85.9635 0.1354 19
0 G3 85.8750 85.9635 0.0885 34
0 G6 85.9219 85.9740 0.0521 17
0 F5 85.9375 85.9635 0.0260 53
0 B5 85.9531 86.0000 0.0469 32
0 C#5 85.9635 85.9844 0.0208 42
0 E5 85.9635 85.9844 0.0208 47
0 D#6 85.9635 86.0521 0.0885 32
0 F#6 85.9740 86.1979 0.2240 56
0 D5 85.9844 86.1979 0.2135 62
0 D6 85.9844 86.2135 0.2292 74
0 E7 85.9844 86.2135 0.2292 23
0 A5 85.9844 86.2292 0.2448 68
0 E5 86.0000 86.0365 0.0365 47
0 D4 86.0000 86.1146 0.1146 25
0 C6 86.0365 86.1354 0.0990 29
0 F6 86.0365 86.3177 0.2812 62
0 F5 86.0521 86.1510 0.0990 21
0 F4 86.1510 86.1823 0.0312 10
0 B5 86.1823 86.3021 0.1198 36
0 D#7 86.1823 86.3281 0.1458 23
0 E6 86.1979 86.2656 0.0677 38
0 E5 86.1979 86.2917 0.0938 25
0 G7 86.2135 86.2917 0.0781 14
0 C#4 86.2135 86.3281 0.1146 30
0 C#6 86.2135 86.3281 0.1146 71
0 G#6 86.2135 86.3281 0.1146 24
0 G#5 86.2292 86.3281 0.0990 57
0 C#5 86.2292 86.3385 0.1094 42
0 F#7 86.2917 86.3490 0.0573 22
0 D#5 86.3021 86.3281 0.0260 29
0 A#5 86.3021 86.3385 0.0365 16
0 C6 86.3177 86.3802 0.0625 64
0 G7 86.3177 86.3802 0.0625 10
0 E6 86.3177 86.3802 0.0625 67
0 D6 86.3177 86.3906 0.0729 34
0 G5 86.3281 86.3594 0.0312 58
0 C4 86.3281 86.3802 0.0521 42
0 D#5 86.3385 86.3802 0.0417 26
0 F#6 86.3490 86.3906 0.0417 15
0 F7 86.3490 86.4010 0.0521 15
0 F#5 86.3594 86.4010 0.0417 62
0 F6 86.3594 86.4271 0.0677 29
0 A5 86.3594 86.4271 0.0677 10
0 B3 86.3802 86.4010 0.0208 45
0 B5 86.3802 86.4115 0.0312 38
0 D#6 86.3802 86.4271 0.0469 62
0 C#6 86.3802 86.4792 0.0990 24
0 F5 86.4010 86.4375 0.0365 39
0 D6 86.4010 86.4531 0.0521 18
0 G3 86.4115 86.4375 0.0260 30
0 C6 86.4271 86.5104 0.0833 41
0 F6 86.4531 86.5208 0.0677 24
0 F4 86.4792 86.5000 0.0208 29
0 D5 86.4896 86.5104 0.0208 38
0 F#5 86.4896 86.5417 0.0521 41
0 C#5 86.5000 86.5208 0.0208 54
0 D#4 86.5000 86.5208 0.0208 46
0 G4 86.5104 86.5417 0.0312 32
0 F#7 86.5104 86.6250 0.1146 45
0 A5 86.5104 86.8854 0.3750 64
0 D4 86.5208 86.6094 0.0885 52
0 D5 86.5208 86.9219 0.4010 67
0 F5 86.5417 86.5729 0.0312 39
0 E5 86.5625 86.6406 0.0781 34
0 D#4 86.6094 86.6406 0.0312 38
0 D4 86.6406 86.7604 0.1198 50
0 F#4 86.6562 86.7292 0.0729 41
0 E7 86.7292 86.8958 0.1667 31
0 D#4 86.7604 86.7812 0.0208 40
0 F#7 86.7604 86.9115 0.1510 45
0 D4 86.7812 86.8854 0.1042 51
0 D7 86.8125 86.8490 0.0365 9
0 F4 86.8229 86.8490 0.0260 38
0 F4 86.8750 86.9115 0.0365 35
0 A#3 86.9115 86.9427 0.0312 46
0 A5 86.9219 86.9896 0.0677 14
0 D5 86.9740 87.0312 0.0573 54
0 F#6 86.9740 87.0729 0.0990 46
0 G#5 86.9896 87.0104 0.0208 32
0 A#4 86.9896 87.0104 0.0208 50
0 F6 86.9896 87.0312 0.0417 41
0 A3 86.9896 87.2292 0.2396 43
0 C#4 87.0000 87.0312 0.0312 19
0 E7 87.0000 87.3646 0.3646 52
0 C#6 87.0104 87.1875 0.1771 38
0 E5 87.0104 87.2188 0.2083 71
0 A4 87.0104 87.2292 0.2188 70
0 A6 87.0104 87.2292 0.2188 59
0 G#5 87.0208 87.0573 0.0365 39
0 B6 87.0208 87.2812 0.2604 58
0 C7 87.0312 87.0833 0.0521 14
0 G6 87.0312 87.2031 0.1719 34
0 C#7 87.0469 87.3542 0.3073 58
0 A#6 87.0573 87.1354 0.0781 24
0 D4 87.0729 87.1250 0.0521 24
0 G#6 87.0729 87.1354 0.0625 25
0 D#7 87.0938 87.1719 0.0781 38
0 D5 87.1458 87.1875 0.0417 51
0 D7 87.1719 87.1875 0.0156 47
0 C#4 87.1771 87.2031 0.0260 31
0 C#5 87.1875 87.2188 0.0312 35
0 D#7 87.1875 87.4427 0.2552 59
0 F#7 87.1875 87.4740 0.2865 41
0 C7 87.2031 87.3854 0.1823 39
0 C#4 87.2188 87.2396 0.0208 34
0 D7 87.2292 87.2500 0.0208 41
0 A#4 87.2292 87.2812 0.0521 66
0 G7 87.2396 87.2812 0.0417 23
0 C#4 87.2500 87.2812 0.0312 42
0 D#5 87.2500 87.3177 0.0677 36
0 D7 87.2604 87.2969 0.0365 47
0 F7 87.2604 87.4896 0.2292 40
0 D#4 87.2969 87.3177 0.0208 42
0 F#4 87.2969 87.3177 0.0208 36
0 C#5 87.3073 87.3438 0.0365 25
0 B6 87.3073 87.3958 0.0885 10
0 G4 87.3177 87.3542 0.0365 47
0 E5 87.3177 87.3646 0.0469 11
0 G7 87.3177 87.4271 0.1094 27
0 D7 87.3177 87.4896 0.1719 55
0 A#4 87.3333 87.3854 0.0521 26
0 B3 87.3542 87.3854 0.0312 55
0 A3 87.3646 87.3958 0.0312 54
0 C#7 87.3646 87.5000 0.1354 44
0 E4 87.3854 87.4062 0.0208 37
0 A#3 87.3958 87.4167 0.0208 51
0 F4 87.4062 87.4427 0.0365 33
0 E7 87.4062 87.4896 0.0833 35
0 B3 87.4271 87.4583 0.0312 32
0 D#4 87.4271 87.4583 0.0312 56
0 D5 87.4271 87.4896 0.0625 42
0 C7 87.4271 87.5000 0.0729 28
0 F#4 87.4427 87.4635 0.0208 29
0 C4 87.4740 87.5000 0.0260 30
0 F#4 87.4740 87.5104 0.0365 23
0 G3 87.5208 87.5521 0.0312 31
0 F7 87.6250 87.6719 0.0469 21
0 B6 87.6354 87.6719 0.0365 10
0 F#7 87.6354 87.6823 0.0469 18
0 C#7 87.6719 87.7292 0.0573 11
0 D7 87.6719 87.7292 0.0573 11
0 E7 87.6719 87.7656 0.0938 17
0 D#7 87.6823 87.7292 0.0469 13
0 G7 87.6823 87.7396 0.0573 12
0 B6 87.7083 87.8385 0.1302 43
0 C#4 87.7292 87.8021 0.0729 61
0 F7 87.7292 87.8177 0.0885 18
0 F#7 87.7292 87.8177 0.0885 24
0 A6 87.7292 87.8906 0.1615 47
0 C7 87.7396 87.7760 0.0365 39
0 D#7 87.7396 87.7760 0.0365 13
0 C#7 87.7396 87.8177 0.0781 16
0 G#6 87.7656 87.8490 0.0833 39
0 F#3 87.7760 87.8177 0.0417 14
0 G4 87.7760 87.8177 0.0417 36
0 A#6 87.7760 87.8646 0.0885 41
0 E6 87.7969 87.8177 0.0208 33
0 C5 87.7969 87.8281 0.0312 67
0 C4 87.8021 87.8385 0.0365 54
0 D#6 87.8177 87.8802 0.0625 35
0 B4 87.8281 87.8490 0.0208 67
0 B3 87.8385 87.8646 0.0260 50
0 E4 87.8385 87.8646 0.0260 36
0 A#5 87.8385 87.8802 0.0417 34
0 A#4 87.8490 87.8906 0.0417 61
0 D#4 87.8802 87.9167 0.0365 33
0 A5 87.8802 87.9479 0.0677 28
0 A3 87.8802 88.0052 0.1250 47
0 E5 87.8802 88.2969 0.4167 60
0 A4 87.8906 88.2969 0.4062 70
0 D4 87.9167 87.9948 0.0781 29
0 C#4 87.9948 88.0365 0.0417 23
0 D5 88.0208 88.2604 0.2396 47
0 D4 88.0365 88.0938 0.0573 31
0 G7 88.0469 88.2552 0.2083 33
0 A3 88.0573 88.2552 0.1979 34
0 C#6 88.0729 88.3177 0.2448 63
0 E4 88.0938 88.1458 0.0521 14
0 D4 88.1458 88.2969 0.1510 16
0 D#7 88.1562 88.2083 0.0521 9
0 G6 88.1562 88.3073 0.1510 56
0 F#7 88.1667 88.2344 0.0677 33
0 D6 88.1823 88.2448 0.0625 48
0 F7 88.2344 88.2969 0.0625 46
0 D#6 88.2448 88.2969 0.0521 40
0 G#3 88.2552 88.3177 0.0625 22
0 D5 88.2812 88.4844 0.2031 77
0 F#6 88.2969 88.4635 0.1667 43
0 D4 88.3281 88.4062 0.0781 44
0 B6 88.3438 88.3802 0.0365 25
0 G6 88.3438 88.3802 0.0365 26
0 A6 88.3438 88.4219 0.0781 37
0 A5 88.3438 88.4740 0.1302 25
0 E7 88.3438 88.5312 0.1875 34
0 D7 88.3542 88.4323 0.0781 18
0 C5 88.3802 88.4219 0.0417 40
0 C7 88.3802 88.4740 0.0938 18
0 F7 88.3958 88.4479 0.0521 23
0 G#6 88.3958 88.4948 0.0990 40
0 C#4 88.4062 88.4323 0.0260 29
0 F#5 88.4062 88.4635 0.0573 50
0 B6 88.4062 88.4635 0.0573 21
0 D#7 88.4062 88.4740 0.0677 16
0 G6 88.4219 88.4635 0.0417 31
0 A#3 88.4323 88.4844 0.0521 35
0 A#4 88.4323 88.4844 0.0521 48
0 F5 88.4323 88.4948 0.0625 57
0 A6 88.4479 88.4740 0.0260 34
0 G#5 88.4479 88.5208 0.0729 20
0 C5 88.4844 88.5104 0.0260 49
0 F#5 88.4844 88.5104 0.0260 31
0 A6 88.4844 88.5469 0.0625 62
0 G6 88.4948 88.5469 0.0521 13
0 D#5 88.5104 88.5469 0.0365 65
0 C7 88.5104 88.5625 0.0521 18
0 D7 88.5104 88.5781 0.0677 21
0 A#5 88.5312 88.5729 0.0417 22
0 F7 88.5312 88.5885 0.0573 37
0 D5 88.5469 88.5781 0.0312 66
0 F5 88.5469 88.5781 0.0312 35
0 A#6 88.5469 88.6146 0.0677 58
0 E7 88.5625 88.6042 0.0417 32
0 F#7 88.5625 88.6042 0.0417 25
0 F#5 88.5781 88.6146 0.0365 11
0 D5 88.6875 88.7708 0.0833 23
0 G4 88.7188 88.7708 0.0521 73
0 C#7 88.7292 88.7708 0.0417 46
0 A#6 88.7292 88.8281 0.0990 42
0 E7 88.7344 88.7708 0.0365 42
0 D7 88.7344 88.7708 0.0365 13
0 A#4 88.7344 88.7865 0.0521 39
0 F7 88.7344 88.9010 0.1667 27
0 F#5 88.7448 88.7708 0.0260 64
0 C7 88.7448 88.8802 0.1354 47
0 D#7 88.7448 88.8906 0.1458 49
0 A6 88.7448 88.9635 0.2188 66
0 F6 88.7604 88.9010 0.1406 67
0 G5 88.7708 88.7969 0.0260 61
0 F5 88.7708 88.8802 0.1094 57
0 F4 88.7708 88.8906 0.1198 49
0 C6 88.7708 88.8906 0.1198 61
0 D7 88.7865 88.8177 0.0312 44
0 G#5 88.7865 88.8177 0.0312 36
0 A5 88.8177 88.8906 0.0729 50
0 E6 88.8385 88.8802 0.0417 24
0 C#7 88.8594 88.9010 0.0417 13
0 E7 88.8594 88.9010 0.0417 24
0 G5 88.8594 88.9271 0.0677 14
0 E5 88.8802 88.9010 0.0208 54
0 F#7 88.8802 88.9635 0.0833 20
0 D#5 88.8906 88.9115 0.0208 49
0 G#6 88.8906 88.9271 0.0365 31
0 B6 88.8906 88.9271 0.0365 19
0 D#4 88.9010 88.9375 0.0365 43
0 G4 88.9115 88.9479 0.0365 17
0 F#7 89.0208 89.4323 0.4115 35
0 E4 89.0417 89.0625 0.0208 57
0 C7 89.0417 89.2708 0.2292 63
0 D7 89.0521 89.4427 0.3906 47
0 E7 89.0521 89.5677 0.5156 53
0 D#4 89.0625 89.0677 0.0052 68
0 D4 89.0677 89.1198 0.0521 65
0 D5 89.0677 89.6771 0.6094 70
0 C6 89.0833 89.1406 0.0573 20
0 F5 89.0833 89.2604 0.1771 44
0 F#4 89.0938 89.1615 0.0677 49
0 A6 89.1042 89.4427 0.3385 53
0 D#4 89.1406 89.1615 0.0208 34
0 A5 89.1615 89.4948 0.3333 67
0 D4 89.1615 89.5260 0.3646 45
0 F#6 89.1823 89.4844 0.3021 78
0 F4 89.2240 89.2812 0.0573 20
0 F6 89.2344 89.3854 0.1510 59
0 F#5 89.2604 89.3021 0.0417 28
0 G5 89.2708 89.5104 0.2396 43
0 F5 89.3021 89.3854 0.0833 43
0 C6 89.3021 89.4323 0.1302 48
0 F4 89.3646 89.4635 0.0990 28
0 F5 89.3958 89.4323 0.0365 30
0 F4 89.4740 89.5156 0.0417 25
0 A6 89.4948 89.5417 0.0469 14
0 A5 89.5156 89.8021 0.2865 41
0 D4 89.5417 89.6302 0.0885 48
0 A#3 89.6667 89.6875 0.0208 43
0 D4 89.6771 89.7292 0.0521 23
0 D5 89.8125 89.8698 0.0573 47
0 F#4 89.8333 89.8542 0.0208 57
0 D#4 89.8542 89.8854 0.0312 59
0 D4 89.8854 90.1719 0.2865 62
0 D5 89.8854 90.1719 0.2865 71
0 A5 89.9167 90.2240 0.3073 52
0 F#6 90.0469 90.1719 0.1250 56
0 E7 90.0885 90.1719 0.0833 33
0 C7 90.1042 90.1615 0.0573 24
0 B3 90.1510 90.1719 0.0208 33
0 F7 90.1510 90.1823 0.0312 17
0 C#5 90.1615 90.1823 0.0208 41
0 D5 90.1823 90.3646 0.1823 23
0 F#7 90.2604 90.2865 0.0260 29
0 G7 90.2708 90.3125 0.0417 56
0 B6 90.2708 90.3125 0.0417 40
0 F7 90.2708 90.3229 0.0521 31
0 D7 90.2865 90.3125 0.0260 33
0 F#4 90.2969 90.3229 0.0260 60
0 A#6 90.3125 90.3490 0.0365 43
0 F#7 90.3125 90.3490 0.0365 48
0 C#7 90.3125 90.3646 0.0521 52
0 E7 90.3125 90.3906 0.0781 28
0 G4 90.3229 90.3333 0.0104 68
0 C7 90.3229 90.3646 0.0417 33
0 G#6 90.3333 90.3906 0.0573 46
0 D7 90.3333 90.4167 0.0833 47
0 F4 90.3490 90.3802 0.0312 54
0 B5 90.3490 90.3906 0.0417 35
0 E5 90.3490 90.3906 0.0417 53
0 E6 90.3490 90.4167 0.0677 60
0 F4 90.3906 90.4167 0.0260 54
0 C6 90.3906 90.4271 0.0365 31
0 F#5 90.4010 90.4271 0.0260 47
0 C#6 90.4010 90.4479 0.0469 69
0 F#4 90.4167 90.4375 0.0208 57
0 G5 90.4271 90.4896 0.0625 52
0 G4 90.4375 90.4896 0.0521 60
0 D6 90.4375 90.5000 0.0625 60
0 F#4 90.4896 90.5104 0.0208 55
0 C6 90.5000 90.5365 0.0365 46
0 F5 90.5000 90.5365 0.0365 51
0 F4 90.5104 90.5365 0.0260 53
0 C#6 90.5104 90.5521 0.0417 19
0 E4 90.5365 90.5781 0.0417 49
0 B5 90.5365 90.5781 0.0417 59
0 E5 90.5365 90.5781 0.0417 57
0 F4 90.5781 90.6250 0.0469 58
0 C6 90.5781 90.6562 0.0781 67
0 F4 90.6458 90.6667 0.0208 36
0 C4 90.6562 90.6771 0.0208 37
0 B3 90.6771 90.7240 0.0469 28
0 F7 90.7135 90.7604 0.0469 31
0 F#6 90.7135 90.8333 0.1198 40
0 D4 90.7135 90.8490 0.1354 47
0 A6 90.7135 90.9167 0.2031 66
0 A5 90.7240 90.8333 0.1094 52
0 D5 90.7240 90.8490 0.1250 77
0 E7 90.7240 90.8490 0.1250 43
0 D7 90.7240 90.8490 0.1250 49
0 B6 90.7396 90.8021 0.0625 46
0 C7 90.8021 90.8646 0.0625 64
0 C4 90.8490 90.8750 0.0260 34
0 C6 90.9375 90.9740 0.0365 11
0 D5 90.9479 90.9948 0.0469 20
0 C7 90.9740 90.9948 0.0208 37
0 A6 90.9740 91.0208 0.0469 17
0 G5 90.9740 91.0625 0.0885 53
0 B6 90.9740 91.0625 0.0885 78
0 F7 90.9844 91.0469 0.0625 54
0 D7 90.9844 91.0625 0.0781 62
0 G4 90.9948 91.0625 0.0677 53
0 D6 90.9948 91.0625 0.0677 28
0 G7 91.0104 91.0625 0.0521 46
0 E7 91.0469 91.1146 0.0677 48
0 F#4 91.0625 91.1302 0.0677 59
0 A#6 91.0625 91.1302 0.0677 43
0 F#7 91.0625 91.1302 0.0677 52
0 C#6 91.0625 91.1406 0.0781 30
0 C#7 91.0625 91.1406 0.0781 77
0 D7 91.0781 91.1146 0.0365 11
0 D#7 91.1146 91.2292 0.1146 54
0 F4 91.1302 91.1771 0.0469 64
0 A6 91.1302 91.1771 0.0469 14
0 F7 91.1302 91.2188 0.0885 43
0 C7 91.1406 91.1979 0.0573 39
0 G7 91.1510 91.1979 0.0469 38
0 D7 91.1510 91.2292 0.0781 63
0 F#7 91.1667 91.1979 0.0312 14
0 C#7 91.1667 91.2188 0.0521 37
0 E7 91.1667 91.2188 0.0521 43
0 E4 91.1771 91.1979 0.0208 64
0 D#4 91.1979 91.2396 0.0417 40
0 B6 91.1979 91.2656 0.0677 14
0 C#7 91.2760 91.3333 0.0573 18
0 D#4 91.2917 91.3177 0.0260 34
0 D#5 91.2917 91.3333 0.0417 71
0 D7 91.2917 91.5156 0.2240 32
0 A6 91.2917 91.6042 0.3125 39
0 F#6 91.2917 91.6042 0.3125 67
0 E7 91.2917 91.6146 0.3229 48
0 C7 91.3073 91.5938 0.2865 26
0 A5 91.3073 91.6042 0.2969 66
0 D6 91.3073 91.7292 0.4219 69
0 D4 91.3177 91.6042 0.2865 32
0 D5 91.3333 91.5938 0.2604 56
0 C#5 91.5938 91.6302 0.0365 40
0 F7 91.5938 91.6302 0.0365 30
0 G#5 91.5938 91.6302 0.0365 31
0 G6 91.6771 91.7031 0.0260 40
0 C5 91.6771 91.7031 0.0260 71
0 A6 91.6771 91.7292 0.0521 31
0 F7 91.6771 91.8542 0.1771 53
0 G#5 91.6875 91.7292 0.0417 32
0 F#7 91.6875 91.8125 0.1250 28
0 E7 91.6875 91.8542 0.1667 43
0 C#5 91.7031 91.7188 0.0156 70
0 C#4 91.7031 91.7344 0.0312 30
0 G#6 91.7031 91.7812 0.0781 44
0 D5 91.7188 91.7344 0.0156 71
0 A5 91.7188 91.7344 0.0156 40
0 C7 91.7188 91.7708 0.0521 26
0 A#6 91.7292 91.7708 0.0417 37
0 G6 91.7292 91.8021 0.0729 49
0 D#6 91.7292 91.8229 0.0938 39
0 D#5 91.7344 91.7500 0.0156 71
0 A#5 91.7344 91.7604 0.0260 37
0 D5 91.7500 91.8021 0.0521 64
0 G5 91.7604 91.7812 0.0208 58
0 C#7 91.7604 91.8125 0.0521 17
0 A6 91.7708 91.8229 0.0521 39
0 B6 91.7708 91.8229 0.0521 21
0 B3 91.7812 91.8229 0.0417 40
0 B4 91.7812 91.8229 0.0417 52
0 F#5 91.7812 91.8229 0.0417 62
0 G#6 91.8021 91.8229 0.0208 40
0 G6 91.8125 91.8438 0.0312 48
0 C4 91.8229 91.8542 0.0312 41
0 E6 91.8229 91.8542 0.0312 15
0 F#7 91.8229 91.8542 0.0312 31
0 G5 91.8229 91.8698 0.0469 42
0 C5 91.8229 91.8698 0.0469 61
0 A5 91.8333 91.8854 0.0521 14
0 D5 91.8698 91.9115 0.0417 18
0 F#5 91.9323 91.9740 0.0417 9
0 G3 91.9844 92.0208 0.0365 15
0 G4 91.9948 92.0990 0.1042 63
0 D5 92.0104 92.0990 0.0885 21
0 F#3 92.0208 92.0625 0.0417 28
0 G3 92.0625 92.1510 0.0885 45
0 G#4 92.0990 92.1302 0.0312 66
0 C6 92.0990 92.1406 0.0417 22
0 G4 92.1302 92.1771 0.0469 53
0 D7 92.1510 92.1979 0.0469 13
0 C#7 92.1875 92.3490 0.1615 25
0 D#7 92.2083 92.2656 0.0573 24
0 F7 92.2083 92.2917 0.0833 23
0 E7 92.2240 92.4062 0.1823 35
0 F#7 92.2396 92.2760 0.0365 14
0 G7 92.2396 92.3281 0.0885 14
0 A3 92.2396 92.3958 0.1562 59
0 B6 92.2448 92.3281 0.0833 31
0 E5 92.2448 92.4062 0.1615 53
0 D7 92.2552 92.2760 0.0208 44
0 C#6 92.2552 92.3281 0.0729 17
0 G6 92.2552 92.3490 0.0938 54
0 A6 92.2656 92.3385 0.0729 26
0 D#7 92.2760 92.3385 0.0625 43
0 A#3 92.3958 92.4167 0.0208 42
0 C4 92.4792 92.7083 0.2292 62
0 C#5 92.4948 92.5417 0.0469 28
0 G5 92.5052 92.6927 0.1875 45
0 F7 92.6250 92.6667 0.0417 13
0 E5 92.7188 92.7812 0.0625 56
0 F4 92.7292 92.7604 0.0312 53
0 B5 92.7448 92.7812 0.0365 13
0 E4 92.7604 92.7812 0.0208 62
0 D4 92.7969 92.8229 0.0260 59
0 F7 92.7969 92.8333 0.0365 9
0 G5 92.8125 92.8333 0.0208 36
0 B4 92.8229 92.8594 0.0365 53
0 C4 92.8229 92.8750 0.0521 55
0 F#5 92.8333 92.8594 0.0260 29
0 C#6 92.8438 92.8958 0.0521 39
0 C#4 92.8750 92.8958 0.0208 58
0 D5 92.8854 92.9115 0.0260 31
0 A#3 92.8958 92.9271 0.0312 55
0 E7 92.9479 93.0260 0.0781 31
0 F7 92.9635 93.0365 0.0729 41
0 F#7 92.9635 93.0625 0.0990 30
0 D#7 92.9635 93.0781 0.1146 44
0 A#6 92.9792 93.0521 0.0729 59
0 D7 92.9896 93.0521 0.0625 39
0 G#6 92.9896 93.0521 0.0625 52
0 C7 93.0000 93.0365 0.0365 36
0 A#3 93.0000 93.0365 0.0365 40
0 A#4 93.0000 93.0521 0.0521 52
0 F5 93.0104 93.0521 0.0417 62
0 G7 93.0104 93.4688 0.4583 25
0 C5 93.0260 93.0521 0.0260 33
0 G6 93.0260 93.4531 0.4271 52
0 E6 93.0260 93.5260 0.5000 57
0 B6 93.0365 93.1354 0.0990 29
0 A5 93.0365 93.4896 0.4531 71
0 C#6 93.0365 93.5052 0.4688 52
0 A3 93.0365 93.5677 0.5312 51
0 A4 93.0521 93.5677 0.5156 53
0 E5 93.0521 93.5781 0.5260 62
0 F7 93.0625 93.1562 0.0938 33
0 D7 93.0781 93.1354 0.0573 29
0 D#7 93.1458 93.2344 0.0885 12
0 F#7 93.1562 93.1927 0.0365 37
0 F7 93.1927 93.4219 0.2292 39
0 F#7 93.4219 93.4531 0.0312 33
0 F7 93.4531 93.5260 0.0729 19
0 F7 93.5417 93.5781 0.0365 18
0 G#3 93.5677 93.5885 0.0208 39
0 G4 93.5677 93.6042 0.0365 41
0 A#3 93.6302 93.6875 0.0573 38
0 B3 93.7396 93.7656 0.0260 41
0 C4 93.7656 93.8021 0.0365 38
0 C#4 93.8021 93.8490 0.0469 28
0 F3 93.8490 93.8854 0.0365 32
0 F#3 93.8854 93.9219 0.0365 22
0 E5 93.9479 93.9740 0.0260 37
0 F4 93.9479 93.9896 0.0417 51
0 D#6 93.9635 93.9896 0.0260 39
0 E6 93.9740 94.0000 0.0260 29
0 A#5 93.9740 94.0104 0.0365 27
0 D4 93.9740 94.1667 0.1927 61
0 F#5 93.9896 94.0521 0.0625 34
0 D5 93.9896 94.1667 0.1771 72
0 C6 94.0000 94.0365 0.0365 33
0 E7 94.0000 94.0365 0.0365 19
0 F#4 94.0000 94.0521 0.0521 26
0 A5 94.0104 94.1562 0.1458 46
0 F#7 94.0104 94.1667 0.1562 37
0 F5 94.0365 94.0729 0.0365 21
0 E5 94.0625 94.1042 0.0417 22
0 F#4 94.0833 94.1146 0.0312 20
0 F5 94.0833 94.2344 0.1510 22
0 E7 94.0938 94.1771 0.0833 18
0 F3 94.1042 94.1458 0.0417 11
0 C6 94.1354 94.2604 0.1250 48
0 F4 94.1458 94.1771 0.0312 45
0 C#5 94.1667 94.2135 0.0469 33
0 C4 94.1771 94.2240 0.0469 57
0 D#6 94.2135 94.2344 0.0208 38
0 C5 94.2135 94.2500 0.0365 73
0 D#7 94.2135 94.5365 0.3229 49
0 F#5 94.2240 94.2708 0.0469 41
0 C4 94.2344 94.2604 0.0260 55
0 A#4 94.2344 94.2708 0.0365 54
0 G6 94.2344 94.2708 0.0365 32
0 G#6 94.2344 94.3125 0.0781 47
0 C#6 94.2344 94.3698 0.1354 27
0 E5 94.2344 94.3698 0.1354 49
0 A#6 94.2500 94.2708 0.0208 42
0 D5 94.2500 94.2812 0.0312 53
0 D7 94.2500 94.3021 0.0521 21
0 A6 94.2500 94.3854 0.1354 48
0 C#7 94.2500 94.5260 0.2760 48
0 B6 94.2604 94.5260 0.2656 63
0 A4 94.2708 94.4792 0.2083 69
0 E7 94.2708 94.5521 0.2812 39
0 C#5 94.2812 94.3229 0.0417 52
0 A3 94.2812 94.4688 0.1875 54
0 D5 94.3229 94.3854 0.0625 43
0 D7 94.3333 94.3854 0.0521 10
0 C7 94.3594 94.3958 0.0365 34
0 G7 94.3594 94.4115 0.0521 24
0 D4 94.3594 94.4115 0.0521 20
0 F#7 94.3958 94.4219 0.0260 40
0 D7 94.3958 94.4323 0.0365 31
0 A6 94.4219 94.4896 0.0677 19
0 F7 94.4219 94.5521 0.1302 50
0 A#6 94.4323 94.5104 0.0781 56
0 G7 94.4479 94.5000 0.0521 24
0 F#7 94.4479 94.5104 0.0625 37
0 C7 94.4688 94.4896 0.0208 30
0 G#6 94.4688 94.5000 0.0312 18
0 A#3 94.4688 94.5104 0.0417 54
0 D7 94.4688 94.5365 0.0677 37
0 A#4 94.4792 94.4896 0.0104 66
0 E5 94.4792 94.5365 0.0573 27
0 C5 94.5000 94.5260 0.0260 58
0 G5 94.5000 94.5365 0.0365 26
0 A6 94.5000 94.5521 0.0521 22
0 C7 94.5104 94.5625 0.0521 43
0 B4 94.5260 94.5625 0.0365 55
0 B3 94.5365 94.5625 0.0260 51
0 B6 94.5365 94.6406 0.1042 15
0 A4 94.5521 94.6094 0.0573 25
0 C4 94.5625 94.5885 0.0260 53
0 F7 94.5781 94.6615 0.0833 18
0 C#4 94.5885 94.6094 0.0208 48
0 D#4 94.6250 94.6771 0.0521 69
0 A#3 94.6406 94.6771 0.0365 39
0 B4 94.6510 94.7031 0.0521 17
0 D#5 94.6615 94.7344 0.0729 79
0 D4 94.6771 94.6927 0.0156 54
0 F4 94.6771 94.6927 0.0156 38
0 A#3 94.6875 94.7031 0.0156 36
0 A4 94.6875 94.7188 0.0312 9
0 F7 94.6927 94.7344 0.0417 13
0 D#4 94.6927 94.7448 0.0521 55
0 A6 94.6927 94.7812 0.0885 60
0 C7 94.7031 94.7448 0.0417 26
0 F#6 94.7031 94.7656 0.0625 33
0 D6 94.7031 94.7812 0.0781 30
0 E7 94.7031 94.7969 0.0938 39
0 A#6 94.7188 94.7448 0.0260 33
0 G#6 94.7188 94.7552 0.0365 17
0 D#7 94.7188 94.7552 0.0365 14
0 D5 94.7344 94.8177 0.0833 74
0 B6 94.7448 94.7656 0.0208 37
0 D4 94.7448 94.7812 0.0365 43
0 F5 94.7448 94.8177 0.0729 32
0 F7 94.7552 94.8073 0.0521 23
0 E6 94.7656 94.8073 0.0417 23
0 A#6 94.7656 94.8073 0.0417 38
0 G#6 94.7812 94.8177 0.0365 41
0 C4 94.7812 94.8333 0.0521 42
0 C5 94.7812 94.8438 0.0625 56
0 A6 94.7969 94.8542 0.0573 19
0 F3 94.8073 94.8438 0.0365 21
0 D#5 94.8177 94.8646 0.0469 21
0 E4 94.8333 94.8646 0.0312 16
0 F#7 94.8438 95.2656 0.4219 36
0 D#4 94.8646 94.9010 0.0365 14
0 D5 94.8646 94.9167 0.0521 30
0 F7 94.8906 94.9271 0.0365 12
0 E7 94.8906 94.9531 0.0625 12
0 G7 94.9010 94.9948 0.0938 38
0 D5 94.9427 94.9948 0.0521 16
0 F7 94.9427 94.9948 0.0521 19
0 E7 94.9792 95.0156 0.0365 16
0 D7 94.9792 95.0365 0.0573 28
0 C7 94.9948 95.0365 0.0417 31
0 D4 95.0052 95.0573 0.0521 75
0 D#7 95.0156 95.2396 0.2240 52
0 C#7 95.0260 95.1771 0.1510 62
0 C#5 95.0365 95.0781 0.0417 20
0 G7 95.0365 95.1146 0.0781 34
0 C#4 95.0573 95.0885 0.0312 76
0 D7 95.0781 95.1042 0.0260 47
0 C4 95.0885 95.1146 0.0260 58
0 C7 95.0885 95.1146 0.0260 30
0 B4 95.1042 95.1771 0.0729 47
0 B6 95.1146 95.1667 0.0521 17
0 D7 95.1146 95.1667 0.0521 24
0 B3 95.1146 95.1771 0.0625 55
0 E7 95.1146 95.4844 0.3698 51
0 D4 95.1302 95.1667 0.0365 53
0 F#5 95.1302 95.1771 0.0469 11
0 C7 95.1667 95.2031 0.0365 43
0 C4 95.1771 95.2031 0.0260 58
0 D7 95.1771 95.2031 0.0260 42
0 C#4 95.2031 95.2292 0.0260 65
0 G#5 95.2031 95.2396 0.0365 21
0 F7 95.2031 95.2396 0.0365 14
0 B6 95.2031 95.2760 0.0729 39
0 C#7 95.2031 95.3385 0.1354 35
0 D4 95.2292 95.2500 0.0208 60
0 A5 95.2396 95.4635 0.2240 20
0 D7 95.2396 95.4635 0.2240 30
0 D4 95.2656 95.2865 0.0208 44
0 D4 95.3021 95.5000 0.1979 64
0 F#4 95.3177 95.3646 0.0469 23
0 D#7 95.3281 95.3802 0.0521 25
0 F3 95.3385 95.3802 0.0417 18
0 F#7 95.3490 95.4375 0.0885 15
0 C7 95.3802 95.4479 0.0677 17
0 D4 95.5104 95.6198 0.1094 45
0 D4 95.6458 95.6979 0.0521 22
0 C4 95.9375 95.9688 0.0312 50
0 C#5 95.9531 95.9844 0.0312 34
0 A4 95.9531 95.9948 0.0417 47
0 F#5 95.9688 95.9948 0.0260 35
0 F6 95.9688 96.0104 0.0417 32
0 D#6 95.9688 96.0104 0.0417 33
0 B4 95.9844 96.0104 0.0260 65
0 C4 95.9844 96.0208 0.0365 59
0 D5 95.9844 96.0208 0.0365 18
0 F5 95.9948 96.0312 0.0365 44
0 A#4 96.0104 96.0312 0.0208 69
0 F#5 96.0104 96.0417 0.0312 24
0 A#3 96.0208 96.0417 0.0208 38
0 C#5 96.0208 96.0625 0.0417 28
0 A5 96.0208 96.1719 0.1510 46
0 A4 96.0312 96.0729 0.0417 57
0 E5 96.0312 96.1719 0.1406 50
0 A3 96.0417 96.1719 0.1302 64
0 F7 96.0625 96.1927 0.1302 30
0 C#5 96.0833 96.1458 0.0625 13
0 E7 96.0938 96.1927 0.0990 19
0 G#3 96.1719 96.1927 0.0208 61
0 D#5 96.1719 96.2240 0.0521 20
0 A#4 96.1823 96.2344 0.0521 29
0 C#5 96.2240 96.2448 0.0208 48
0 D6 96.2240 96.2552 0.0312 21
0 G#4 96.2240 96.2917 0.0677 63
0 F6 96.2240 96.2917 0.0677 40
0 C#7 96.2240 96.4167 0.1927 39
0 B4 96.2344 96.2552 0.0208 46
0 D#7 96.2344 96.2812 0.0469 42
0 A#6 96.2344 96.2917 0.0573 46
0 G#6 96.2344 96.3021 0.0677 36
0 B6 96.2344 96.3281 0.0938 48
0 C4 96.2448 96.2708 0.0260 33
0 F#3 96.2448 96.2917 0.0469 43
0 C7 96.2448 96.4896 0.2448 47
0 A#4 96.2552 96.2812 0.0260 53
0 D#5 96.2552 96.2917 0.0365 50
0 F7 96.2552 96.4740 0.2188 47
0 E7 96.2708 96.3646 0.0938 26
0 D7 96.2708 96.5521 0.2812 33
0 D5 96.2917 96.3125 0.0208 45
0 A6 96.2917 96.3125 0.0208 31
0 G4 96.2917 96.3281 0.0365 61
0 G6 96.2917 96.3281 0.0365 16
0 F#5 96.2917 96.3646 0.0729 24
0 F#7 96.2917 96.3646 0.0729 19
0 D#7 96.2917 96.4740 0.1823 41
0 F#3 96.3021 96.3490 0.0469 36
0 A#4 96.3021 96.3490 0.0469 38
0 A#6 96.3125 96.3490 0.0365 37
0 C#5 96.3125 96.3646 0.0521 42
0 F#4 96.3281 96.3854 0.0573 67
0 B3 96.3385 96.3646 0.0260 30
0 B6 96.3385 96.4323 0.0938 44
0 G3 96.3490 96.3958 0.0469 42
0 B4 96.3490 96.3958 0.0469 31
0 A#6 96.3646 96.5625 0.1979 49
0 G4 96.3854 96.4062 0.0208 70
0 A#4 96.3958 96.4167 0.0208 37
0 E7 96.3958 96.4323 0.0365 42
0 G#3 96.3958 96.4896 0.0938 53
0 F#7 96.3958 96.4896 0.0938 32
0 G#4 96.4062 96.4635 0.0573 61
0 G#6 96.4427 96.4740 0.0312 18
0 E7 96.4479 96.5729 0.1250 36
0 A4 96.4635 96.4896 0.0260 69
0 G7 96.4635 96.5156 0.0521 11
0 A6 96.4635 96.5260 0.0625 22
0 B6 96.4740 96.5052 0.0312 36
0 F5 96.4740 96.5521 0.0781 32
0 A#3 96.4740 96.5625 0.0885 40
0 A#4 96.4896 96.6510 0.1615 62
0 G#6 96.5156 96.5521 0.0365 28
0 G4 96.5156 96.5885 0.0729 50
0 F7 96.5260 96.5729 0.0469 27
0 F#7 96.5365 96.5729 0.0365 13
0 D#7 96.5365 96.6094 0.0729 19
0 G3 96.5625 96.6354 0.0729 58
0 F#4 96.5885 96.6094 0.0208 41
0 E7 96.6198 96.6615 0.0417 20
0 G#3 96.6354 96.6615 0.0260 64
0 F3 96.6823 96.7135 0.0312 55
0 C5 96.6823 96.8021 0.1198 58
0 F#4 96.6979 96.7240 0.0260 47
0 A6 96.7135 96.7500 0.0365 27
0 G#6 96.7135 96.7604 0.0469 49
0 G6 96.7135 96.7812 0.0677 52
0 F5 96.7135 96.8125 0.0990 68
0 E7 96.7135 96.8333 0.1198 36
0 F3 96.7240 96.7500 0.0260 53
0 A#6 96.7240 96.7604 0.0365 16
0 A5 96.7240 96.7812 0.0573 40
0 F7 96.7240 96.8333 0.1094 36
0 D7 96.7344 96.7708 0.0365 9
0 D#7 96.7344 96.8125 0.0781 14
0 B6 96.7344 96.8125 0.0781 22
0 F#6 96.7344 96.8698 0.1354 47
0 C#7 96.7500 96.8229 0.0729 19
0 D#5 96.7604 96.7812 0.0208 37
0 A6 96.7604 96.8125 0.0521 45
0 F3 96.7604 96.8229 0.0625 43
0 E6 96.7604 96.9323 0.1719 31
0 G#6 96.7708 96.8333 0.0625 56
0 E5 96.7812 96.8438 0.0625 51
0 A#5 96.7812 96.8438 0.0625 31
0 G#5 96.7812 96.8594 0.0781 44
0 F#4 96.8021 96.8333 0.0312 37
0 A4 96.8021 96.8333 0.0312 14
0 C#5 96.8021 96.8333 0.0312 42
0 F#5 96.8021 96.8333 0.0312 63
0 G6 96.8229 96.8698 0.0469 18
0 A#4 96.8333 96.8698 0.0365 15
0 C5 96.8333 96.9115 0.0781 15
0 F5 96.8438 96.8854 0.0417 31
0 G#4 96.9219 96.9740 0.0521 11
0 C4 96.9323 96.9740 0.0417 36
0 D#6 96.9323 96.9740 0.0417 45
0 F#5 96.9323 96.9948 0.0625 35
0 B4 96.9323 96.9948 0.0625 20
0 F6 96.9323 97.0104 0.0781 59
0 B5 96.9323 97.0625 0.1302 52
0 G#6 96.9323 97.0833 0.1510 33
0 F#6 96.9323 97.1510 0.2188 57
0 C#6 96.9323 97.2240 0.2917 55
0 E5 96.9427 96.9948 0.0521 25
0 G#5 96.9427 97.0260 0.0833 33
0 A#5 96.9427 97.0260 0.0833 45
0 D6 96.9427 97.0938 0.1510 52
0 G6 96.9635 97.0521 0.0885 27
0 E6 96.9740 96.9948 0.0208 39
0 D#6 96.9844 97.0521 0.0677 41
0 F#5 97.0104 97.0625 0.0521 36
0 E5 97.0104 97.1719 0.1615 59
0 A3 97.0260 97.1719 0.1458 47
0 A5 97.0260 97.2240 0.1979 57
0 A#5 97.0521 97.0938 0.0417 30
0 G5 97.0625 97.1042 0.0417 29
0 F6 97.0625 97.1094 0.0469 23
0 B5 97.0833 97.1042 0.0208 32
0 G6 97.0833 97.4010 0.3177 36
0 D#6 97.0938 97.1250 0.0312 40
0 C6 97.1042 97.2083 0.1042 47
0 G5 97.1094 97.1615 0.0521 44
0 G#6 97.1094 97.1719 0.0625 12
0 A#6 97.1615 97.1979 0.0365 17
0 F6 97.1615 97.2083 0.0469 23
0 G#3 97.1719 97.1979 0.0260 49
0 G#5 97.1719 97.2656 0.0938 48
0 E5 97.1875 97.2344 0.0469 35
0 D5 97.1875 97.3021 0.1146 67
0 B6 97.1875 97.5260 0.3385 36
0 B5 97.1979 97.2448 0.0469 28
0 G3 97.1979 97.4115 0.2135 63
0 G4 97.1979 97.5365 0.3385 69
0 D7 97.1979 97.5781 0.3802 38
0 F#6 97.2083 97.2448 0.0365 22
0 F6 97.2240 97.2656 0.0417 15
0 D#7 97.2240 97.3021 0.0781 31
0 F7 97.2344 97.5573 0.3229 36
0 C#7 97.2448 97.3281 0.0833 51
0 F#7 97.2448 97.4740 0.2292 28
0 E5 97.2552 97.3490 0.0938 38
0 A5 97.2656 97.3125 0.0469 11
0 A4 97.2969 97.3281 0.0312 20
0 B5 97.2969 97.3385 0.0417 19
0 E7 97.3021 97.3490 0.0469 12
0 C7 97.3021 97.3750 0.0729 57
0 D#7 97.3125 97.4740 0.1615 34
0 A#6 97.3281 97.4479 0.1198 34
0 A#4 97.3281 97.4896 0.1615 26
0 D5 97.3385 97.4479 0.1094 52
0 F5 97.3490 97.4010 0.0521 32
0 C#7 97.3750 97.4010 0.0260 53
0 C7 97.4010 97.5104 0.1094 50
0 G3 97.4479 97.5365 0.0885 52
0 D5 97.4635 97.5260 0.0625 26
0 E7 97.4740 97.5260 0.0521 31
0 C#7 97.4740 97.6146 0.1406 44
0 A#4 97.5104 97.5573 0.0469 11
0 C7 97.5260 97.5677 0.0417 43
0 A#3 97.5365 97.5885 0.0521 26
0 F4 97.5573 97.5781 0.0208 31
0 E7 97.5677 97.6146 0.0469 15
0 D#7 97.5677 97.6250 0.0573 13
0 F#3 97.5781 97.6042 0.0260 32
0 G4 97.5781 97.6771 0.0990 49
0 G3 97.6042 97.6250 0.0208 37
0 D5 97.6146 97.6562 0.0417 10
0 G#3 97.6250 97.6562 0.0312 38
0 D7 97.6250 97.6979 0.0729 23
0 B3 97.6406 97.6667 0.0260 42
0 G#4 97.6667 97.6979 0.0312 16
0 D5 97.6875 97.7292 0.0417 14
0 G4 97.6979 97.7396 0.0417 18
0 B4 97.9375 97.9583 0.0208 50
0 C4 97.9375 97.9583 0.0208 38
0 A6 97.9479 98.0104 0.0625 40
0 F7 97.9479 98.0365 0.0885 31
0 F#7 97.9479 98.1510 0.2031 38
0 B3 97.9583 98.0000 0.0417 44
0 D#6 97.9583 98.0000 0.0417 21
0 C5 97.9583 98.0208 0.0625 71
0 C7 97.9583 98.0521 0.0938 36
0 B6 97.9792 98.0208 0.0417 38
0 A3 98.0104 98.0625 0.0521 27
0 G#4 98.0104 98.0729 0.0625 63
0 D7 98.0104 98.1406 0.1302 61
0 C#7 98.0365 98.0990 0.0625 32
0 C#4 98.0365 98.1094 0.0729 47
0 A#4 98.0625 98.0885 0.0260 34
0 D5 98.0990 98.1406 0.0417 45
0 E7 98.0990 98.1406 0.0417 33
0 B6 98.0990 98.1615 0.0625 25
0 D4 98.1094 98.1406 0.0312 50
0 F7 98.1094 98.1875 0.0781 33
0 G7 98.1198 98.1875 0.0677 29
0 C#7 98.1198 98.2083 0.0885 55
0 C#4 98.1406 98.1719 0.0312 51
0 C7 98.1406 98.1719 0.0312 52
0 D#7 98.1406 98.1979 0.0573 30
0 D7 98.1510 98.1719 0.0208 30
0 C5 98.1510 98.1979 0.0469 72
0 F#7 98.1615 98.1979 0.0365 28
0 A6 98.1615 98.1979 0.0365 26
0 B6 98.1719 98.2240 0.0521 50
0 B4 98.1875 98.2344 0.0469 56
0 B3 98.1875 98.2344 0.0469 44
0 F#6 98.1875 98.2604 0.0729 29
0 F7 98.2083 98.3333 0.1250 38
0 C4 98.2344 98.2604 0.0260 39
0 B6 98.2500 98.2812 0.0312 21
0 F6 98.2500 98.3021 0.0521 38
0 G#5 98.2500 98.3021 0.0521 59
0 C#5 98.2500 98.3125 0.0625 67
0 C#4 98.2604 98.3021 0.0417 37
0 C7 98.2604 98.3125 0.0521 13
0 E6 98.2604 98.3229 0.0625 50
0 D#6 98.2812 98.4115 0.1302 65
0 C4 98.3021 98.3229 0.0208 29
0 G5 98.3021 98.3229 0.0208 67
0 A6 98.3125 98.3490 0.0365 17
0 B5 98.3125 98.4010 0.0885 61
0 F#5 98.3125 98.4323 0.1198 61
0 G#4 98.3229 98.3594 0.0365 11
0 B3 98.3229 98.3854 0.0625 33
0 B4 98.3229 98.4010 0.0781 49
0 C#7 98.3333 98.3854 0.0521 10
0 F7 98.3698 98.4115 0.0417 10
0 C4 98.3854 98.4115 0.0260 29
0 G#5 98.4010 98.4323 0.0312 15
0 C#6 98.4010 98.4427 0.0417 43
0 C#5 98.4115 98.4323 0.0208 68
0 C#4 98.4115 98.4844 0.0729 30
0 F6 98.4115 98.4844 0.0729 64
0 A5 98.4219 98.4740 0.0521 59
0 D5 98.4323 98.4583 0.0260 66
0 F#6 98.4323 98.4583 0.0260 51
0 C#5 98.4583 98.4844 0.0260 51
0 C6 98.4740 98.4948 0.0208 30
0 D#6 98.4740 98.5521 0.0781 62
0 B4 98.4844 98.5521 0.0677 44
0 B5 98.4844 98.5521 0.0677 59
0 F#5 98.4948 98.5521 0.0573 48
0 F7 98.4948 98.5729 0.0781 21
0 A6 98.5260 98.5729 0.0469 12
0 C4 98.5365 98.5938 0.0573 16
0 C6 98.5521 98.5833 0.0312 58
0 C5 98.5521 98.5938 0.0417 31
0 G5 98.5521 98.5938 0.0417 45
0 E6 98.5521 98.5938 0.0417 67
0 A#6 98.5729 98.6042 0.0312 13
0 C#6 98.5729 98.6458 0.0729 64
0 G#6 98.5833 98.6302 0.0469 17
0 F6 98.5938 98.6302 0.0365 72
0 C#4 98.5938 98.6458 0.0521 17
0 C#5 98.5938 98.6458 0.0521 36
0 G#5 98.5938 98.6458 0.0521 50
0 E6 98.6146 98.8542 0.2396 71
0 G6 98.6302 98.7031 0.0729 30
0 G5 98.6458 98.6823 0.0365 53
0 C4 98.6458 98.7031 0.0573 23
0 C5 98.6458 98.7135 0.0677 45
0 C6 98.6458 98.7135 0.0677 56
0 D7 98.6562 98.6927 0.0365 17
0 A6 98.6562 98.7031 0.0469 22
0 F#5 98.6823 98.7135 0.0312 53
0 D#6 98.6927 98.7292 0.0365 17
0 B3 98.7031 98.7292 0.0260 37
0 F6 98.7031 98.7396 0.0365 33
0 G#6 98.7292 98.7500 0.0208 37
0 C#4 98.7292 98.7604 0.0312 41
0 C#5 98.7292 98.7604 0.0312 71
0 F#7 98.7292 98.7865 0.0573 33
0 G5 98.7292 98.8177 0.0885 68
0 C6 98.7396 98.8177 0.0781 33
0 C4 98.7604 98.8125 0.0521 35
0 C5 98.7604 98.8125 0.0521 56
0 F7 98.7865 98.8333 0.0469 28
0 B4 98.8125 98.8333 0.0208 34
0 F#6 98.8125 98.8438 0.0312 37
0 D6 98.8177 98.8542 0.0365 17
0 C5 98.8177 98.8542 0.0365 14
0 F#5 98.8177 98.8542 0.0365 56
0 G#5 98.8177 98.8646 0.0469 41
0 A#5 98.8333 98.8646 0.0312 16
0 E6 98.9010 98.9740 0.0729 21
0 A#5 98.9271 98.9635 0.0365 30
0 F5 98.9271 98.9635 0.0365 21
0 F6 98.9271 98.9896 0.0625 63
0 C#4 98.9375 99.0000 0.0625 30
0 C#6 98.9375 99.0000 0.0625 68
0 G#5 98.9479 98.9896 0.0417 46
0 C5 98.9479 99.1771 0.2292 58
0 E6 98.9896 99.1667 0.1771 62
0 G5 98.9896 99.1771 0.1875 54
0 F#7 99.0000 99.0781 0.0781 23
0 A#6 99.0000 99.1667 0.1667 58
0 G6 99.0000 99.1667 0.1667 55
0 C4 99.0000 99.1771 0.1771 48
0 C6 99.0000 99.2188 0.2188 73
0 D7 99.0521 99.1875 0.1354 49
0 F7 99.0781 99.2031 0.1250 44
0 A6 99.1667 99.2031 0.0365 13
0 B4 99.1771 99.2031 0.0260 64
0 F#5 99.1771 99.2188 0.0417 32
0 D#7 99.1771 99.2188 0.0417 48
0 F#7 99.1771 99.2188 0.0417 32
0 B3 99.1771 99.2292 0.0521 52
0 C#7 99.1875 99.2292 0.0417 37
0 E7 99.2031 99.2448 0.0417 24
0 A#4 99.2031 99.2708 0.0677 67
0 D7 99.2188 99.2708 0.0521 41
0 F7 99.2188 99.2917 0.0729 26
0 A#3 99.2292 99.2708 0.0417 52
0 F#7 99.2292 99.3073 0.0781 30
0 D#7 99.2448 99.2812 0.0365 27
0 E7 99.2708 99.5938 0.3229 38
0 A4 99.2708 99.6823 0.4115 53
0 C6 99.2917 99.3698 0.0781 22
0 A3 99.2917 99.6667 0.3750 62
0 F7 99.3073 99.3438 0.0365 27
0 D#7 99.3333 99.4323 0.0990 26
0 G7 99.3333 99.6458 0.3125 30
0 F7 99.3542 99.5260 0.1719 23
0 D7 99.4323 99.4688 0.0365 32
0 D#7 99.4688 99.6458 0.1771 55
0 C#7 99.5625 99.6667 0.1042 23
0 F7 99.6250 99.6667 0.0417 14
0 E7 99.6458 99.6823 0.0365 18
0 F#7 99.6458 99.7188 0.0729 14
0 D7 99.6458 99.8073 0.1615 50
0 G#3 99.6667 99.7188 0.0521 58
0 D#7 99.6823 99.7188 0.0365 9
0 C#4 99.7188 99.7552 0.0365 52
0 C#7 99.7188 99.7656 0.0469 49
0 C7 99.7188 99.7812 0.0625 25
0 B6 99.7344 99.7917 0.0573 33
0 D5 99.7448 99.8177 0.0729 67
0 E7 99.7448 99.8177 0.0729 37
0 D4 99.7552 99.8073 0.0521 29
0 F#6 99.7552 99.8177 0.0625 62
0 A5 99.7552 99.8177 0.0625 61
0 C#6 99.8073 99.8281 0.0208 48
0 F#5 99.8177 99.8542 0.0365 53
0 B3 99.8281 99.8542 0.0260 36
0 D#6 99.8281 99.8542 0.0260 35
0 B4 99.8438 99.8646 0.0208 41
0 B5 99.8438 99.8646 0.0208 52
0 D6 99.8438 99.8958 0.0521 39
0 A#3 99.8542 99.8750 0.0208 33
0 F5 99.8542 99.8750 0.0208 62
0 A#4 99.8646 99.8958 0.0312 48
0 A#5 99.8646 99.8958 0.0312 50
0 A3 99.8750 99.9062 0.0312 43
0 E5 99.8750 99.9167 0.0417 61
0 A4 99.8958 99.9167 0.0208 49
0 G#3 99.9062 99.9271 0.0208 43
0 G#4 99.9062 99.9271 0.0208 55
0 D#5 99.9062 99.9271 0.0208 47
0 G3 99.9271 99.9740 0.0469 49
0 G4 99.9271 99.9740 0.0469 53
0 D5 99.9271 99.9740 0.0469 34
0 G#4 99.9740 100.0104 0.0365 57
0 D#5 99.9740 100.0104 0.0365 23
0 G#3 99.9740 100.0208 0.0469 49
0 E5 100.0104 100.3177 0.3073 69
0 A4 100.0104 100.3385 0.3281 67
0 A3 100.0208 100.3177 0.2969 42
0 G7 100.0833 100.2812 0.1979 31
0 A#5 100.0938 100.1198 0.0260 60
0 C#6 100.1198 100.3177 0.1979 67
0 F7 100.2240 100.3281 0.1042 46
0 G6 100.2448 100.3281 0.0833 50
0 E5 100.3281 100.4062 0.0781 24
0 C#5 100.3490 100.3750 0.0260 55
0 G#6 100.3594 100.3854 0.0260 46
0 F7 100.3594 100.4062 0.0469 23
0 A5 100.3750 100.4167 0.0417 23
0 D5 100.3750 100.4479 0.0729 75
0 F#6 100.3750 100.4479 0.0729 29
0 D4 100.3854 100.4271 0.0417 28
0 A6 100.3854 100.4479 0.0625 48
0 C7 100.3958 100.4271 0.0312 10
0 E7 100.4062 100.5260 0.1198 38
0 F7 100.4167 100.4896 0.0729 32
0 C5 100.4271 100.4479 0.0208 48
0 F#5 100.4271 100.4479 0.0208 45
0 G#6 100.4271 100.5417 0.1146 45
0 A#6 100.4375 100.5260 0.0885 38
0 A#3 100.4479 100.4896 0.0417 29
0 A#4 100.4479 100.4896 0.0417 50
0 F5 100.4479 100.4896 0.0417 51
0 C7 100.4479 100.4896 0.0417 24
0 B6 100.4792 100.5156 0.0365 23
0 B4 100.4896 100.5156 0.0260 50
0 A6 100.4896 100.5260 0.0365 39
0 D#7 100.4896 100.5417 0.0521 22
0 G5 100.5000 100.5260 0.0260 43
0 F7 100.5000 100.5781 0.0781 29
0 C5 100.5156 100.5521 0.0365 52
0 G#5 100.5260 100.5521 0.0260 36
0 B6 100.5260 100.5885 0.0625 38
0 A6 100.5417 100.5625 0.0208 48
0 E7 100.5417 100.5625 0.0208 33
0 D4 100.5417 100.5625 0.0208 30
0 C#5 100.5417 100.6042 0.0625 67
0 G7 100.6667 100.7240 0.0573 21
0 F#4 100.6979 100.7604 0.0625 63
0 C#7 100.7083 100.7500 0.0417 59
0 D#7 100.7083 100.7708 0.0625 44
0 F5 100.7083 100.8698 0.1615 71
0 A6 100.7240 100.7812 0.0573 38
0 F7 100.7344 100.7812 0.0469 39
0 C7 100.7344 100.8854 0.1510 61
0 D#5 100.7500 100.7812 0.0312 25
0 B5 100.7604 100.8021 0.0417 50
0 G#6 100.7604 100.8125 0.0521 64
0 D7 100.7604 100.8125 0.0521 51
0 G7 100.7604 100.8229 0.0625 21
0 F4 100.7604 100.8698 0.1094 44
0 E6 100.7708 100.8021 0.0312 59
0 D#7 100.7812 100.9219 0.1406 53
0 G6 100.8021 100.8333 0.0312 26
0 C6 100.8021 100.8698 0.0677 53
0 A6 100.8125 100.8958 0.0833 64
0 G#6 100.8229 100.8594 0.0365 25
0 C#5 100.8490 100.8854 0.0365 32
0 A#4 100.8594 100.8854 0.0260 32
0 E7 100.8594 100.8958 0.0365 17
0 E5 100.8698 100.8958 0.0260 41
0 G#6 100.8698 100.8958 0.0260 37
0 D#4 100.8854 100.9115 0.0260 44
0 F5 100.8958 101.0625 0.1667 19
0 C#7 101.0208 101.0625 0.0417 45
0 E4 101.0208 101.0625 0.0417 61
0 G7 101.0208 101.0729 0.0521 33
0 F7 101.0312 101.0833 0.0521 29
0 D#4 101.0625 101.0833 0.0208 59
0 C7 101.0625 101.1094 0.0469 55
0 F#7 101.0729 101.1094 0.0365 23
0 D7 101.0729 101.1198 0.0469 40
0 D4 101.0833 101.1198 0.0365 50
0 E7 101.0833 101.1198 0.0365 40
0 D5 101.0833 101.3229 0.2396 70
0 G#6 101.1094 101.1562 0.0469 29
0 F7 101.1094 101.1771 0.0677 30
0 B6 101.1094 101.1875 0.0781 58
0 C#4 101.1198 101.1562 0.0365 37
0 G#5 101.1198 101.1562 0.0365 22
0 C#7 101.1198 101.1562 0.0365 38
0 D#7 101.1198 101.1562 0.0365 44
0 C7 101.1458 101.2448 0.0990 41
0 E7 101.1458 101.3333 0.1875 45
0 F#6 101.1562 101.3073 0.1510 62
0 A5 101.1562 101.3229 0.1667 74
0 D4 101.1562 101.3333 0.1771 40
0 F7 101.1979 101.2448 0.0469 13
0 B6 101.2135 101.2448 0.0312 10
0 D#7 101.3073 101.3854 0.0781 25
0 F6 101.3073 101.4115 0.1042 52
0 C#5 101.3229 101.3854 0.0625 46
0 C#6 101.3229 101.4010 0.0781 62
0 G#5 101.3229 101.4115 0.0885 69
0 C#4 101.3333 101.4010 0.0677 36
0 E7 101.3698 101.4219 0.0521 38
0 D5 101.3854 101.4375 0.0521 50
0 F#6 101.3854 101.4375 0.0521 30
0 D4 101.4010 101.4375 0.0365 23
0 D6 101.4010 101.4375 0.0365 64
0 A5 101.4010 101.4375 0.0365 69
0 C#7 101.4115 101.5365 0.1250 17
0 C#6 101.4375 101.4740 0.0365 11
0 G6 101.4375 101.5365 0.0990 26
0 D#4 101.4375 101.5521 0.1146 24
0 D#5 101.4375 101.5521 0.1146 50
0 A#5 101.4375 101.5521 0.1146 69
0 D#6 101.4375 101.5521 0.1146 63
0 E7 101.5104 101.5729 0.0625 27
0 F#6 101.5208 101.5729 0.0521 25
0 A5 101.5521 101.5729 0.0208 60
0 D6 101.5521 101.5729 0.0208 58
0 F6 101.5625 101.5990 0.0365 42
0 C#5 101.5625 101.6094 0.0469 47
0 C#7 101.5625 101.6094 0.0469 12
0 C#4 101.5729 101.6094 0.0365 27
0 G#5 101.5729 101.6094 0.0365 64
0 C#6 101.5729 101.6094 0.0365 56
0 F#7 101.5885 101.6667 0.0781 28
0 D6 101.5885 101.6771 0.0885 39
0 A#5 101.5990 101.6562 0.0573 16
0 E6 101.5990 101.6667 0.0677 40
0 C7 101.5990 101.6667 0.0677 17
0 F#6 101.5990 101.6771 0.0781 14
0 C4 101.6094 101.6562 0.0469 21
0 C5 101.6094 101.6562 0.0469 48
0 G5 101.6094 101.6562 0.0469 65
0 C6 101.6094 101.6562 0.0469 55
0 C#5 101.6562 101.6875 0.0312 47
0 G#5 101.6562 101.7031 0.0469 67
0 C#6 101.6562 101.7031 0.0469 59
0 F6 101.6667 101.7031 0.0365 33
0 B6 101.6667 101.7292 0.0625 14
0 D6 101.6875 101.7135 0.0260 58
0 D5 101.6875 101.7292 0.0417 55
0 F#7 101.6875 101.7292 0.0417 12
0 A#5 101.6875 101.8177 0.1302 71
0 C6 101.7031 101.7865 0.0833 18
0 G7 101.7135 101.7969 0.0833 27
0 D#4 101.7135 101.8177 0.1042 26
0 F7 101.7135 101.8177 0.1042 46
0 D#6 101.7135 101.8177 0.1042 67
0 D6 101.7292 101.7865 0.0573 30
0 D#5 101.7292 101.8177 0.0885 55
0 C#7 101.7292 101.9427 0.2135 19
0 G6 101.7396 101.7969 0.0573 19
0 E7 101.7760 101.9740 0.1979 31
0 B6 101.7865 101.9010 0.1146 17
0 F#6 101.7969 101.8490 0.0521 27
0 D4 101.8177 101.8490 0.0312 27
0 D5 101.8177 101.8490 0.0312 51
0 A5 101.8177 101.8490 0.0312 67
0 D6 101.8177 101.9323 0.1146 68
0 G6 101.8281 101.8646 0.0365 9
0 A#6 101.8281 102.1146 0.2865 27
0 F6 101.8385 101.8750 0.0365 22
0 F7 101.8385 101.9010 0.0625 29
0 C#4 101.8490 101.8906 0.0417 23
0 C#5 101.8490 101.8906 0.0417 47
0 G#5 101.8490 101.8906 0.0417 65
0 C#6 101.8490 101.8906 0.0417 58
0 A#5 101.8490 101.9531 0.1042 28
0 C7 101.8646 101.9219 0.0573 14
0 E6 101.8646 101.9323 0.0677 44
0 F#7 101.8646 101.9427 0.0781 19
0 C4 101.8906 101.9219 0.0312 25
0 C5 101.8906 101.9219 0.0312 48
0 G5 101.8906 101.9219 0.0312 69
0 C6 101.8906 101.9219 0.0312 52
0 D#6 101.9167 101.9531 0.0365 23
0 C#4 101.9219 101.9531 0.0312 26
0 C#6 101.9219 101.9531 0.0312 59
0 C#5 101.9219 101.9531 0.0312 47
0 G#5 101.9219 101.9531 0.0312 69
0 F7 101.9219 102.1615 0.2396 40
0 D5 101.9531 101.9740 0.0208 50
0 A5 101.9531 101.9740 0.0208 63
0 D6 101.9531 102.0000 0.0469 64
0 C#7 101.9740 102.0521 0.0781 20
0 D#4 101.9740 102.0677 0.0938 22
0 D#5 101.9740 102.0781 0.1042 49
0 A#5 101.9740 102.0781 0.1042 68
0 D#6 101.9740 102.0781 0.1042 60
0 C#6 102.0156 102.0677 0.0521 9
0 G6 102.0156 102.1146 0.0990 15
0 C7 102.0156 102.1406 0.1250 24
0 C#7 102.0677 102.0990 0.0312 12
0 D7 102.0677 102.0990 0.0312 22
0 E7 102.0677 102.1146 0.0469 21
0 F#7 102.0677 102.2396 0.1719 21
0 D5 102.0781 102.0990 0.0208 46
0 A5 102.0781 102.0990 0.0208 58
0 B6 102.0781 102.1406 0.0625 18
0 F6 102.0885 102.1406 0.0521 26
0 C#4 102.0885 102.1510 0.0625 21
0 D#6 102.0885 102.2083 0.1198 23
0 C#5 102.0990 102.1510 0.0521 47
0 G#5 102.0990 102.1510 0.0521 67
0 C#6 102.0990 102.1510 0.0521 50
0 E6 102.1146 102.1875 0.0729 39
0 G5 102.1510 102.1615 0.0104 68
0 C#4 102.1615 102.1979 0.0365 19
0 C#5 102.1615 102.1979 0.0365 47
0 C#6 102.1615 102.2083 0.0469 56
0 G#5 102.1615 102.2083 0.0469 69
0 F7 102.1719 102.2083 0.0365 33
0 F6 102.1719 102.2240 0.0521 33
0 A#6 102.1875 102.3125 0.1250 16
0 D4 102.1979 102.2396 0.0417 17
0 D5 102.1979 102.2396 0.0417 46
0 E7 102.1979 102.2396 0.0417 29
0 A5 102.2083 102.2396 0.0312 67
0 D6 102.2083 102.3125 0.1042 58
0 C7 102.2240 102.2604 0.0365 14
0 G6 102.2396 102.2708 0.0312 13
0 D#4 102.2396 102.3490 0.1094 30
0 D#5 102.2396 102.3490 0.1094 52
0 A#5 102.2396 102.3490 0.1094 67
0 F7 102.2396 102.4740 0.2344 48
0 D#6 102.2500 102.3490 0.0990 67
0 G6 102.2969 102.3490 0.0521 21
0 G7 102.2969 102.4010 0.1042 25
0 C7 102.2969 102.4948 0.1979 36
0 A6 102.3333 102.4010 0.0677 17
0 F6 102.3333 102.4115 0.0781 43
0 D4 102.3490 102.3698 0.0208 29
0 D5 102.3490 102.3698 0.0208 46
0 A5 102.3490 102.3698 0.0208 59
0 D6 102.3490 102.4479 0.0990 62
0 E6 102.3490 102.4479 0.0990 46
0 F#7 102.3490 102.5208 0.1719 24
0 C#7 102.3594 102.4740 0.1146 29
0 G#5 102.3698 102.4010 0.0312 67
0 C#5 102.3698 102.4115 0.0417 42
0 C#6 102.3698 102.4115 0.0417 46
0 D#7 102.3698 102.4323 0.0625 21
0 B6 102.3802 102.4844 0.1042 17
0 G5 102.4010 102.4219 0.0208 68
0 C4 102.4010 102.4323 0.0312 29
0 G#6 102.4010 102.4479 0.0469 18
0 A#5 102.4010 102.4583 0.0573 19
0 C5 102.4115 102.4323 0.0208 46
0 C6 102.4115 102.4323 0.0208 46
0 D#6 102.4219 102.4583 0.0365 20
0 G#5 102.4219 102.4740 0.0521 68
0 C#5 102.4323 102.4740 0.0417 52
0 C#6 102.4323 102.4740 0.0417 62
0 F6 102.4479 102.4740 0.0260 34
0 A6 102.4479 102.5104 0.0625 32
0 D4 102.4583 102.4948 0.0365 19
0 F#6 102.4583 102.5312 0.0729 20
0 D6 102.4583 102.5625 0.1042 58
0 D5 102.4740 102.5104 0.0365 53
0 A5 102.4740 102.5104 0.0365 61
0 G#5 102.4948 102.5312 0.0365 15
0 C#7 102.4948 102.5833 0.0885 19
0 D#4 102.4948 102.5938 0.0990 16
0 F7 102.4948 102.5938 0.0990 47
0 D#5 102.5104 102.5938 0.0833 48
0 A#5 102.5104 102.5938 0.0833 66
0 D#6 102.5104 102.5938 0.0833 55
0 E6 102.5208 102.5625 0.0417 14
0 B6 102.5417 102.5833 0.0417 17
0 C#6 102.5625 102.5938 0.0312 15
0 G7 102.5625 102.5938 0.0312 22
0 F6 102.5729 102.6094 0.0365 13
0 D7 102.5833 102.6198 0.0365 13
0 D5 102.5938 102.6302 0.0365 44
0 A5 102.5938 102.6302 0.0365 63
0 E7 102.5938 102.6667 0.0729 18
0 D6 102.5938 102.6771 0.0833 52
0 C#7 102.6198 102.6667 0.0469 12
0 C#4 102.6198 102.7083 0.0885 31
0 F6 102.6198 102.7292 0.1094 33
0 F7 102.6198 102.7344 0.1146 36
0 C#5 102.6302 102.7083 0.0781 47
0 G#5 102.6302 102.7083 0.0781 69
0 C#6 102.6302 102.7083 0.0781 59
0 D#6 102.6510 102.6875 0.0365 21
0 F#7 102.6667 102.7083 0.0417 18
0 G7 102.6875 102.7292 0.0417 15
0 D6 102.6875 102.7448 0.0573 62
0 D4 102.7083 102.7448 0.0365 29
0 D5 102.7083 102.7448 0.0365 46
0 A5 102.7083 102.7448 0.0365 63
0 E7 102.7083 102.7448 0.0365 30
0 F#7 102.7344 102.7708 0.0365 10
0 D#5 102.7448 102.8333 0.0885 51
0 D#6 102.7448 102.8333 0.0885 55
0 D#4 102.7448 102.8490 0.1042 34
0 A#5 102.7448 102.8490 0.1042 69
0 F7 102.7448 102.8490 0.1042 38
0 E7 102.7604 102.7969 0.0365 12
0 D6 102.7604 102.7969 0.0365 32
0 C#7 102.7604 102.8125 0.0521 20
0 G6 102.7604 102.8594 0.0990 29
0 C7 102.7604 102.9271 0.1667 19
0 G#5 102.7708 102.8229 0.0521 15
0 F#7 102.7969 103.2760 0.4792 31
0 D5 102.8333 102.8750 0.0417 50
0 D6 102.8333 102.8750 0.0417 56
0 A5 102.8490 102.8750 0.0260 66
0 D4 102.8490 102.8906 0.0417 21
0 F6 102.8594 102.9115 0.0521 47
0 C#5 102.8750 102.9115 0.0365 43
0 C#6 102.8750 102.9115 0.0365 52
0 G#5 102.8750 102.9271 0.0521 62
0 A#5 102.8750 102.9479 0.0729 23
0 D6 102.8906 103.0000 0.1094 62
0 D#7 102.9010 102.9583 0.0573 17
0 C5 102.9115 102.9375 0.0260 46
0 C6 102.9115 102.9375 0.0260 53
0 E6 102.9115 102.9479 0.0365 55
0 C#4 102.9115 102.9583 0.0469 20
0 C#5 102.9375 102.9583 0.0208 44
0 G#5 102.9375 102.9583 0.0208 63
0 F6 102.9479 102.9896 0.0417 37
0 F7 102.9479 103.4375 0.4896 48
0 A5 102.9583 102.9896 0.0312 66
0 D5 102.9583 103.0000 0.0417 48
0 G6 102.9583 103.0000 0.0417 12
0 F#6 102.9583 103.0104 0.0521 21
0 D#4 102.9896 103.0990 0.1094 30
0 A#5 102.9896 103.1094 0.1198 73
0 D#6 102.9896 103.1198 0.1302 63
0 D#5 103.0000 103.0990 0.0990 48
0 D6 103.0104 103.0885 0.0781 43
0 A5 103.0208 103.0885 0.0677 22
0 G6 103.0208 103.0990 0.0781 24
0 C#7 103.0208 103.0990 0.0781 16
0 B6 103.0365 103.0885 0.0521 12
0 C7 103.0469 103.1198 0.0729 27
0 F#6 103.0885 103.1198 0.0312 31
0 D5 103.0990 103.1198 0.0208 42
0 A5 103.0990 103.1406 0.0417 64
0 F6 103.0990 103.1667 0.0677 32
0 C#6 103.0990 103.1667 0.0677 50
0 E6 103.0990 103.1927 0.0938 54
0 C#5 103.1198 103.1667 0.0469 41
0 G#5 103.1406 103.1667 0.0260 61
0 A#5 103.1510 103.1927 0.0417 12
0 C#5 103.1771 103.2031 0.0260 43
0 G#5 103.1771 103.2135 0.0365 62
0 C7 103.1771 103.2292 0.0521 9
0 C#6 103.1771 103.2396 0.0625 50
0 F6 103.1927 103.2135 0.0208 31
0 A6 103.1927 103.2292 0.0365 14
0 F#6 103.1927 103.2396 0.0469 19
0 D5 103.2031 103.2292 0.0260 46
0 A5 103.2031 103.2292 0.0260 59
0 D4 103.2031 103.2396 0.0365 21
0 A#5 103.2031 103.3385 0.1354 60
0 D#5 103.2292 103.3385 0.1094 47
0 D#6 103.2292 103.4010 0.1719 63
0 C#7 103.2396 103.2760 0.0365 12
0 D6 103.2396 103.3021 0.0625 27
0 D#4 103.2396 103.3542 0.1146 30
0 G#5 103.2552 103.3281 0.0729 19
0 C7 103.2656 103.3021 0.0365 23
0 D5 103.3385 103.3646 0.0260 35
0 A5 103.3385 103.3646 0.0260 43
0 C#4 103.3646 103.4375 0.0729 29
0 C#5 103.3646 103.4375 0.0729 38
0 F6 103.3646 103.4375 0.0729 22
0 C#6 103.3646 103.4375 0.0729 46
0 G#5 103.3646 103.4375 0.0729 55
0 E7 103.4271 103.4792 0.0521 25
0 D4 103.4375 103.4792 0.0417 24
0 D5 103.4375 103.4792 0.0417 47
0 A5 103.4375 103.4792 0.0417 55
0 D6 103.4375 103.4792 0.0417 58
0 D#4 103.4792 103.5365 0.0573 13
0 D#5 103.4792 103.5469 0.0677 47
0 F7 103.4792 103.5469 0.0677 39
0 D#6 103.4792 103.5469 0.0677 59
0 G6 103.4792 103.5469 0.0677 26
0 A#5 103.4792 103.5677 0.0885 57
0 D4 103.5365 103.5885 0.0521 11
0 D7 103.5365 103.5885 0.0521 10
0 F#6 103.5469 103.5990 0.0521 27
0 D5 103.5469 103.6146 0.0677 44
0 D6 103.5469 103.6146 0.0677 55
0 E7 103.5469 103.6823 0.1354 26
0 E6 103.5677 103.5990 0.0312 11
0 A5 103.5677 103.6823 0.1146 46
0 D#6 103.5990 103.6406 0.0417 19
0 F6 103.5990 103.6406 0.0417 23
0 D4 103.6146 103.6927 0.0781 34
0 D6 103.6250 103.6927 0.0677 61
0 D5 103.6250 103.7552 0.1302 61
0 A#5 103.6823 103.7031 0.0208 29
0 D#7 103.6823 103.7240 0.0417 16
0 F7 103.6823 103.7240 0.0417 16
0 D#6 103.6927 103.7240 0.0312 56
0 A5 103.7031 103.7552 0.0521 23
0 D4 103.7031 103.7552 0.0521 38
0 E7 103.7240 103.7656 0.0417 18
0 D#7 103.7552 103.7917 0.0365 19
0 G#5 103.7552 103.7917 0.0365 14
0 C#4 103.7552 103.8073 0.0521 44
0 G5 103.7917 103.8542 0.0625 9
0 C5 103.7917 103.8646 0.0729 32
0 E7 103.7917 103.8646 0.0729 27
0 C4 103.8073 103.8802 0.0729 44
0 F7 103.8177 103.8958 0.0781 30
0 B4 103.8646 103.9062 0.0417 32
0 B3 103.8802 103.9271 0.0469 40
1 D6 2.0000 2.3750 0.3750 96
1 D5 2.0000 2.3750 0.3750 96
1 D5 2.5000 2.8750 0.3750 96
1 D6 2.5000 2.8750 0.3750 96
1 C5 2.8750 3.0000 0.1250 96
1 C6 2.8750 3.0000 0.1250 96
1 D6 3.0000 3.1250 0.1250 96
1 D5 3.0000 3.1250 0.1250 96
1 A4 3.2500 3.3125 0.0625 96
1 A5 3.2500 3.3125 0.0625 96
1 C5 3.5000 3.8750 0.3750 96
1 C6 3.5000 3.8750 0.3750 96
1 A4 4.0000 4.3750 0.3750 96
1 A5 4.0000 4.3750 0.3750 96
1 C5 4.3750 4.4375 0.0625 96
1 C6 4.3750 4.4375 0.0625 96
1 A5 4.5000 4.6250 0.1250 96
1 A4 4.5000 4.6250 0.1250 96
1 E6 4.7500 5.0000 0.2500 96
1 E5 4.7500 5.0000 0.2500 96
1 D5 5.0000 5.7500 0.7500 96
1 D6 5.0000 5.7500 0.7500 96
1 D5 6.0000 6.3750 0.3750 96
1 D6 6.0000 6.3750 0.3750 96
1 F5 6.5000 6.8750 0.3750 96
1 F6 6.5000 6.8750 0.3750 96
1 D5 6.8750 7.0000 0.1250 96
1 D6 6.8750 7.0000 0.1250 96
1 G6 7.0000 7.1250 0.1250 96
1 G5 7.0000 7.1250 0.1250 96
1 F5 7.2500 7.3125 0.0625 96
1 F6 7.2500 7.3125 0.0625 96
1 F6 7.5000 7.6250 0.1250 96
1 F5 7.5000 7.6250 0.1250 96
1 D5 7.7500 7.8750 0.1250 96
1 D6 7.7500 7.8750 0.1250 96
1 D5 8.0000 8.3750 0.3750 96
1 D6 8.0000 8.3750 0.3750 96
1 C5 8.3750 8.4375 0.0625 96
1 C6 8.3750 8.4375 0.0625 96
1 G5 8.5000 8.6250 0.1250 96
1 G4 8.5000 8.6250 0.1250 96
1 C5 8.7500 9.0000 0.2500 96
1 C6 8.7500 9.0000 0.2500 96
1 A4 9.0000 9.7500 0.7500 96
1 A5 9.0000 9.7500 0.7500 96
1 C5 14.0000 14.2500 0.2500 96
1 C6 14.0000 14.2500 0.2500 96
1 A5 14.3750 14.5000 0.1250 96
1 A4 14.3750 14.5000 0.1250 96
1 C6 14.5000 14.5625 0.0625 96
1 C5 14.5000 14.5625 0.0625 96
1 A4 14.7500 14.8125 0.0625 96
1 A5 14.7500 14.8125 0.0625 96
1 C6 15.0000 15.1250 0.1250 96
1 C5 15.0000 15.1250 0.1250 96
1 C5 15.2500 15.3750 0.1250 96
1 C6 15.2500 15.3750 0.1250 96
1 A5 15.5000 15.6250 0.1250 96
1 A4 15.5000 15.6250 0.1250 96
1 F5 15.7500 16.0000 0.2500 96
1 F6 15.7500 16.0000 0.2500 96
1 D6 16.0000 17.2500 1.2500 96
1 D5 16.0000 17.2500 1.2500 96
1 D5 18.0000 18.3750 0.3750 96
1 D6 18.0000 18.3750 0.3750 96
1 D6 18.5000 18.8750 0.3750 96
1 D5 18.5000 18.8750 0.3750 96
1 C5 18.8750 19.0000 0.1250 96
1 C6 18.8750 19.0000 0.1250 96
1 D6 19.0000 19.1250 0.1250 96
1 D5 19.0000 19.1250 0.1250 96
1 A4 19.2500 19.3125 0.0625 96
1 A5 19.2500 19.3125 0.0625 96
1 C6 19.5000 19.8750 0.3750 96
1 C5 19.5000 19.8750 0.3750 96
1 A5 20.0000 20.3750 0.3750 96
1 A4 20.0000 20.3750 0.3750 96
1 C5 20.3750 20.4375 0.0625 96
1 C6 20.3750 20.4375 0.0625 96
1 A5 20.5000 20.6250 0.1250 96
1 A4 20.5000 20.6250 0.1250 96
1 E5 20.7500 21.0000 0.2500 96
1 E6 20.7500 21.0000 0.2500 96
1 D6 21.0000 21.7500 0.7500 96
1 D5 21.0000 21.7500 0.7500 96
1 D6 22.0000 22.3750 0.3750 96
1 D5 22.0000 22.3750 0.3750 96
1 F6 22.5000 22.8750 0.3750 96
1 F5 22.5000 22.8750 0.3750 96
1 D5 22.8750 23.0000 0.1250 96
1 D6 22.8750 23.0000 0.1250 96
1 G6 23.0000 23.1250 0.1250 96
1 G5 23.0000 23.1250 0.1250 96
1 F5 23.2500 23.3125 0.0625 96
1 F6 23.2500 23.3125 0.0625 96
1 F6 23.5000 23.6250 0.1250 96
1 F5 23.5000 23.6250 0.1250 96
1 D5 23.7500 23.8750 0.1250 96
1 D6 23.7500 23.8750 0.1250 96
1 D6 24.0000 24.3750 0.3750 96
1 D5 24.0000 24.3750 0.3750 96
1 C5 24.3750 24.4375 0.0625 96
1 C6 24.3750 24.4375 0.0625 96
1 G5 24.5000 24.6250 0.1250 96
1 G4 24.5000 24.6250 0.1250 96
1 C5 24.7500 25.0000 0.2500 96
1 C6 24.7500 25.0000 0.2500 96
1 A5 25.0000 25.7500 0.7500 96
1 A4 25.0000 25.7500 0.7500 96
1 C6 30.0000 30.2500 0.2500 96
1 C5 30.0000 30.2500 0.2500 96
1 A5 30.3750 30.4375 0.0625 96
1 A4 30.3750 30.4375 0.0625 96
1 C5 30.5000 30.6250 0.1250 96
1 C6 30.5000 30.6250 0.1250 96
1 A5 30.7500 30.8125 0.0625 96
1 A4 30.7500 30.8125 0.0625 96
1 C6 31.0000 31.0625 0.0625 96
1 C5 31.0000 31.0625 0.0625 96
1 A4 31.2500 31.3125 0.0625 96
1 A5 31.2500 31.3125 0.0625 96
1 C6 31.5000 31.7500 0.2500 96
1 C5 31.5000 31.7500 0.2500 96
1 C5 32.0000 32.1250 0.1250 96
1 C6 32.0000 32.1250 0.1250 96
1 C6 32.2500 32.3750 0.1250 96
1 C5 32.2500 32.3750 0.1250 96
1 A5 32.5000 32.6250 0.1250 96
1 A4 32.5000 32.6250 0.1250 96
1 F5 32.7500 33.0000 0.2500 96
1 F6 32.7500 33.0000 0.2500 96
1 D6 33.0000 34.2500 1.2500 96
1 D5 33.0000 34.2500 1.2500 96
1 D5 104.0000 104.3750 0.3750 96
1 D6 104.0000 104.3750 0.3750 96
1 D6 104.5000 104.8750 0.3750 96
1 D5 104.5000 104.8750 0.3750 96
1 C5 104.8750 105.0000 0.1250 96
1 C6 104.8750 105.0000 0.1250 96
1 D6 105.0000 105.1250 0.1250 96
1 D5 105.0000 105.1250 0.1250 96
1 A5 105.2500 105.3125 0.0625 96
1 A4 105.2500 105.3125 0.0625 96
1 C6 105.5000 105.8750 0.3750 96
1 C5 105.5000 105.8750 0.3750 96
1 A4 106.0000 106.3750 0.3750 96
1 A5 106.0000 106.3750 0.3750 96
1 C5 106.3750 106.4375 0.0625 96
1 C6 106.3750 106.4375 0.0625 96
1 A5 106.5000 106.6250 0.1250 96
1 A4 106.5000 106.6250 0.1250 96
1 E6 106.7500 107.0000 0.2500 96
1 E5 106.7500 107.0000 0.2500 96
1 D6 107.0000 107.7500 0.7500 96
1 D5 107.0000 107.7500 0.7500 96
1 D5 108.0000 108.3750 0.3750 96
1 D6 108.0000 108.3750 0.3750 96
1 F6 108.5000 108.8750 0.3750 96
1 F5 108.5000 108.8750 0.3750 96
1 D5 108.8750 109.0000 0.1250 96
1 D6 108.8750 109.0000 0.1250 96
1 G6 109.0000 109.1250 0.1250 96
1 G5 109.0000 109.1250 0.1250 96
1 F6 109.2500 109.3125 0.0625 96
1 F5 109.2500 109.3125 0.0625 96
1 F6 109.5000 109.6250 0.1250 96
1 F5 109.5000 109.6250 0.1250 96
1 D6 109.7500 109.8750 0.1250 96
1 D5 109.7500 109.8750 0.1250 96
1 D5 110.0000 110.3750 0.3750 96
1 D6 110.0000 110.3750 0.3750 96
1 C5 110.3750 110.4375 0.0625 96
1 C6 110.3750 110.4375 0.0625 96
1 G5 110.5000 110.6250 0.1250 96
1 G4 110.5000 110.6250 0.1250 96
1 C5 110.7500 111.0000 0.2500 96
1 C6 110.7500 111.0000 0.2500 96
1 A5 111.0000 111.7500 0.7500 96
1 A4 111.0000 111.7500 0.7500 96
1 D6 112.0000 112.3125 0.3125 96
1 D5 112.0000 112.3125 0.3125 96
1 D6 112.3750 112.4375 0.0625 96
1 D5 112.3750 112.4375 0.0625 96
1 D5 112.5000 112.5625 0.0625 96
1 D6 112.5000 112.5625 0.0625 96
1 C6 112.7500 112.8750 0.1250 96
1 C5 112.7500 112.8750 0.1250 96
1 D5 113.0000 113.1250 0.1250 96
1 D6 113.0000 113.1250 0.1250 96
1 D6 113.2500 113.3750 0.1250 96
1 D5 113.2500 113.3750 0.1250 96
1 F5 113.3750 113.4375 0.0625 96
1 F6 113.3750 113.4375 0.0625 96
1 D6 113.5000 113.6250 0.1250 96
1 D5 113.5000 113.6250 0.1250 96
1 C5 113.7500 113.8750 0.1250 96
1 C6 113.7500 113.8750 0.1250 96
1 A5 114.0000 114.1875 0.1875 96
1 A4 114.0000 114.1875 0.1875 96
1 A5 114.2500 114.3125 0.0625 96
1 A4 114.2500 114.3125 0.0625 96
1 G5 114.3750 114.4375 0.0625 96
1 G4 114.3750 114.4375 0.0625 96
1 F5 114.5000 114.6875 0.1875 96
1 F4 114.5000 114.6875 0.1875 96
1 C6 114.7500 114.8125 0.0625 96
1 C5 114.7500 114.8125 0.0625 96
1 A5 114.8750 114.9375 0.0625 96
1 A4 114.8750 114.9375 0.0625 96
1 G4 115.0000 115.5000 0.5000 96
1 G5 115.0000 115.5000 0.5000 96
1 C5 116.0000 116.2500 0.2500 96
1 C6 116.0000 116.2500 0.2500 96
1 A5 116.3750 116.4375 0.0625 96
1 A4 116.3750 116.4375 0.0625 96
1 C6 116.5000 116.6250 0.1250 96
1 C5 116.5000 116.6250 0.1250 96
1 A5 116.7500 116.8125 0.0625 96
1 A4 116.7500 116.8125 0.0625 96
1 C6 117.0000 117.0625 0.0625 96
1 C5 117.0000 117.0625 0.0625 96
1 A5 117.2500 117.3125 0.0625 96
1 A4 117.2500 117.3125 0.0625 96
1 C6 117.5000 117.7500 0.2500 96
1 C5 117.5000 117.7500 0.2500 96
1 C5 118.0000 118.1250 0.1250 96
1 C6 118.0000 118.1250 0.1250 96
1 C6 118.2500 118.3750 0.1250 96
1 C5 118.2500 118.3750 0.1250 96
1 A5 118.5000 118.6250 0.1250 96
1 A4 118.5000 118.6250 0.1250 96
1 F6 118.7500 119.0000 0.2500 96
1 F5 118.7500 119.0000 0.2500 96
1 D6 119.0000 120.2500 1.2500 96
1 D5 119.0000 120.2500 1.2500 96
2 D5 2.0000 2.3750 0.3750 96
2 D5 2.5000 2.8750 0.3750 96
2 C5 2.8750 3.0000 0.1250 96
2 D5 3.0000 3.1250 0.1250 96
2 A4 3.2500 3.3125 0.0625 96
2 C5 3.5000 3.8750 0.3750 96
2 A4 4.0000 4.3750 0.3750 96
2 C5 4.3750 4.4375 0.0625 96
2 A4 4.5000 4.6250 0.1250 96
2 E5 4.7500 5.0000 0.2500 96
2 D5 5.0000 5.7500 0.7500 96
2 D5 6.0000 6.3750 0.3750 96
2 F5 6.5000 6.8750 0.3750 96
2 D5 6.8750 7.0000 0.1250 96
2 G5 7.0000 7.1250 0.1250 96
2 F5 7.2500 7.3125 0.0625 96
2 F5 7.5000 7.6250 0.1250 96
2 D5 7.7500 7.8750 0.1250 96
2 D5 8.0000 8.3750 0.3750 96
2 C5 8.3750 8.4375 0.0625 96
2 G4 8.5000 8.6250 0.1250 96
2 C5 8.7500 9.0000 0.2500 96
2 A4 9.0000 9.7500 0.7500 96
2 C5 14.0000 14.2500 0.2500 96
2 A4 14.3750 14.5000 0.1250 96
2 C5 14.5000 14.5625 0.0625 96
2 A4 14.7500 14.8125 0.0625 96
2 C5 15.0000 15.1250 0.1250 96
2 C5 15.2500 15.3750 0.1250 96
2 A4 15.5000 15.6250 0.1250 96
2 F5 15.7500 16.0000 0.2500 96
2 D5 16.0000 17.2500 1.2500 96
2 D5 18.0000 18.3750 0.3750 96
2 D5 18.5000 18.8750 0.3750 96
2 C5 18.8750 19.0000 0.1250 96
2 D5 19.0000 19.1250 0.1250 96
2 A4 19.2500 19.3125 0.0625 96
2 C5 19.5000 19.8750 0.3750 96
2 A4 20.0000 20.3750 0.3750 96
2 C5 20.3750 20.4375 0.0625 96
2 A4 20.5000 20.6250 0.1250 96
2 E5 20.7500 21.0000 0.2500 96
2 D5 21.0000 21.7500 0.7500 96
2 D5 22.0000 22.3750 0.3750 96
2 F5 22.5000 22.8750 0.3750 96
2 D5 22.8750 23.0000 0.1250 96
2 G5 23.0000 23.1250 0.1250 96
2 F5 23.2500 23.3125 0.0625 96
2 F5 23.5000 23.6250 0.1250 96
2 D5 23.7500 23.8750 0.1250 96
2 D5 24.0000 24.3750 0.3750 96
2 C5 24.3750 24.4375 0.0625 96
2 G4 24.5000 24.6250 0.1250 96
2 C5 24.7500 25.0000 0.2500 96
2 A4 25.0000 25.7500 0.7500 96
2 C5 30.0000 30.2500 0.2500 96
2 A4 30.3750 30.4375 0.0625 96
2 C5 30.5000 30.6250 0.1250 96
2 A4 30.7500 30.8125 0.0625 96
2 C5 31.0000 31.0625 0.0625 96
2 A4 31.2500 31.3125 0.0625 96
2 C5 31.5000 31.7500 0.2500 96
2 C5 32.0000 32.1250 0.1250 96
2 C5 32.2500 32.3750 0.1250 96
2 A4 32.5000 32.6250 0.1250 96
2 F5 32.7500 33.0000 0.2500 96
2 D5 33.0000 34.2500 1.2500 96
2 D5 104.0000 104.3750 0.3750 96
2 D5 104.5000 104.8750 0.3750 96
2 C5 104.8750 105.0000 0.1250 96
2 D5 105.0000 105.1250 0.1250 96
2 A4 105.2500 105.3125 0.0625 96
2 C5 105.5000 105.8750 0.3750 96
2 A4 106.0000 106.3750 0.3750 96
2 C5 106.3750 106.4375 0.0625 96
2 A4 106.5000 106.6250 0.1250 96
2 E5 106.7500 107.0000 0.2500 96
2 D5 107.0000 107.7500 0.7500 96
2 D5 108.0000 108.3750 0.3750 96
2 F5 108.5000 108.8750 0.3750 96
2 D5 108.8750 109.0000 0.1250 96
2 G5 109.0000 109.1250 0.1250 96
2 F5 109.2500 109.3125 0.0625 96
2 F5 109.5000 109.6250 0.1250 96
2 D5 109.7500 109.8750 0.1250 96
2 D5 110.0000 110.3750 0.3750 96
2 C5 110.3750 110.4375 0.0625 96
2 G4 110.5000 110.6250 0.1250 96
2 C5 110.7500 111.0000 0.2500 96
2 A4 111.0000 111.7500 0.7500 96
2 D5 112.0000 112.3125 0.3125 96
2 D5 112.3750 112.4375 0.0625 96
2 D5 112.5000 112.5625 0.0625 96
2 C5 112.7500 112.8750 0.1250 96
2 D5 113.0000 113.1250 0.1250 96
2 D5 113.2500 113.3750 0.1250 96
2 F5 113.3750 113.4375 0.0625 96
2 D5 113.5000 113.6250 0.1250 96
2 C5 113.7500 113.8750 0.1250 96
2 A4 114.0000 114.1875 0.1875 96
2 A4 114.2500 114.3125 0.0625 96
2 G4 114.3750 114.4375 0.0625 96
2 F4 114.5000 114.6875 0.1875 96
2 C5 114.7500 114.8125 0.0625 96
2 A4 114.8750 114.9375 0.0625 96
2 G4 115.0000 115.5000 0.5000 96
2 C5 116.0000 116.2500 0.2500 96
2 A4 116.3750 116.4375 0.0625 96
2 C5 116.5000 116.6250 0.1250 96
2 A4 116.7500 116.8125 0.0625 96
2 C5 117.0000 117.0625 0.0625 96
2 A4 117.2500 117.3125 0.0625 96
2 C5 117.5000 117.7500 0.2500 96
2 C5 118.0000 118.1250 0.1250 96
2 C5 118.2500 118.3750 0.1250 96
2 A4 118.5000 118.6250 0.1250 96
2 F5 118.7500 119.0000 0.2500 96
2 D5 119.0000 120.2500 1.2500 96
3 D2 2.0000 2.5000 0.5000 80
3 D3 2.2500 2.5000 0.2500 96
3 D2 2.5000 3.0000 0.5000 80
3 D3 2.7500 3.0000 0.2500 96
3 D2 3.0000 3.5000 0.5000 80
3 D3 3.2500 3.5000 0.2500 96
3 D2 3.5000 4.0000 0.5000 80
3 D3 3.7500 4.0000 0.2500 96
3 A1 4.0000 4.5000 0.5000 80
3 A2 4.2500 4.5000 0.2500 96
3 A1 4.5000 5.0000 0.5000 80
3 A2 4.7500 5.0000 0.2500 96
3 D2 5.0000 5.5000 0.5000 80
3 D3 5.2500 5.5000 0.2500 96
3 D2 5.5000 6.0000 0.5000 80
3 D3 5.7500 6.0000 0.2500 96
3 A#1 6.0000 6.5000 0.5000 80
3 A#2 6.2500 6.5000 0.2500 96
3 A#1 6.5000 7.0000 0.5000 80
3 A#2 6.7500 7.0000 0.2500 96
3 A#1 7.0000 7.5000 0.5000 80
3 A#2 7.2500 7.5000 0.2500 96
3 A#1 7.5000 8.0000 0.5000 80
3 A#2 7.7500 8.0000 0.2500 96
3 C2 8.0000 8.5000 0.5000 80
3 C3 8.2500 8.5000 0.2500 96
3 C2 8.5000 9.0000 0.5000 80
3 C3 8.7500 9.0000 0.2500 96
3 F1 9.0000 9.5000 0.5000 80
3 F2 9.2500 9.5000 0.2500 96
3 F1 9.5000 10.0000 0.5000 80
3 F2 9.7500 10.0000 0.2500 96
3 D2 10.0000 10.5000 0.5000 80
3 D3 10.2500 10.5000 0.2500 96
3 D2 10.5000 11.0000 0.5000 80
3 D3 10.7500 11.0000 0.2500 96
3 D2 11.0000 11.5000 0.5000 80
3 D3 11.2500 11.5000 0.2500 96
3 D2 11.5000 12.0000 0.5000 80
3 D3 11.7500 12.0000 0.2500 96
3 G1 12.0000 12.5000 0.5000 80
3 G2 12.2500 12.5000 0.2500 96
3 G1 12.5000 13.0000 0.5000 80
3 G2 12.7500 13.0000 0.2500 96
3 G1 13.0000 13.5000 0.5000 80
3 G2 13.2500 13.5000 0.2500 96
3 G1 13.5000 14.0000 0.5000 80
3 G2 13.7500 14.0000 0.2500 96
3 A1 14.0000 14.5000 0.5000 80
3 A2 14.2500 14.5000 0.2500 96
3 A1 14.5000 15.0000 0.5000 80
3 A2 14.7500 15.0000 0.2500 96
3 C2 15.0000 15.5000 0.5000 80
3 C3 15.2500 15.5000 0.2500 96
3 C2 15.5000 16.0000 0.5000 80
3 C3 15.7500 16.0000 0.2500 96
3 D2 16.0000 16.5000 0.5000 80
3 D3 16.2500 16.5000 0.2500 96
3 D2 16.5000 17.0000 0.5000 80
3 D3 16.7500 17.0000 0.2500 96
3 D2 17.0000 17.5000 0.5000 80
3 D3 17.2500 17.5000 0.2500 96
3 D2 18.0000 18.5000 0.5000 80
3 D3 18.2500 18.5000 0.2500 96
3 D2 18.5000 19.0000 0.5000 80
3 D3 18.7500 19.0000 0.2500 96
3 D2 19.0000 19.5000 0.5000 80
3 D3 19.2500 19.5000 0.2500 96
3 D2 19.5000 20.0000 0.5000 80
3 D3 19.7500 20.0000 0.2500 96
3 A1 20.0000 20.5000 0.5000 80
3 A2 20.2500 20.5000 0.2500 96
3 A1 20.5000 21.0000 0.5000 80
3 A2 20.7500 21.0000 0.2500 96
3 D2 21.0000 21.5000 0.5000 80
3 D3 21.2500 21.5000 0.2500 96
3 D2 21.5000 22.0000 0.5000 80
3 D3 21.7500 22.0000 0.2500 96
3 A#1 22.0000 22.5000 0.5000 80
3 A#2 22.2500 22.5000 0.2500 96
3 A#1 22.5000 23.0000 0.5000 80
3 A#2 22.7500 23.0000 0.2500 96
3 A#1 23.0000 23.5000 0.5000 80
3 A#2 23.2500 23.5000 0.2500 96
3 A#1 23.5000 24.0000 0.5000 80
3 A#2 23.7500 24.0000 0.2500 96
3 C2 24.0000 24.5000 0.5000 80
3 C3 24.2500 24.5000 0.2500 96
3 C2 24.5000 25.0000 0.5000 80
3 C3 24.7500 25.0000 0.2500 96
3 F1 25.0000 25.5000 0.5000 80
3 F2 25.2500 25.5000 0.2500 96
3 F1 25.5000 26.0000 0.5000 80
3 F2 25.7500 26.0000 0.2500 96
3 D2 26.0000 26.5000 0.5000 80
3 D3 26.2500 26.5000 0.2500 96
3 D2 26.5000 27.0000 0.5000 80
3 D3 26.7500 27.0000 0.2500 96
3 D2 27.0000 27.5000 0.5000 80
3 D3 27.2500 27.5000 0.2500 96
3 D2 27.5000 28.0000 0.5000 80
3 D3 27.7500 28.0000 0.2500 96
3 G1 28.0000 28.5000 0.5000 80
3 G2 28.2500 28.5000 0.2500 96
3 G1 28.5000 29.0000 0.5000 80
3 G2 28.7500 29.0000 0.2500 96
3 G1 29.0000 29.5000 0.5000 80
3 G2 29.2500 29.5000 0.2500 96
3 G1 29.5000 30.0000 0.5000 80
3 G2 29.7500 30.0000 0.2500 96
3 A1 30.0000 30.5000 0.5000 80
3 A2 30.2500 30.5000 0.2500 96
3 A1 30.5000 31.0000 0.5000 80
3 A2 30.7500 31.0000 0.2500 96
3 A1 31.0000 31.5000 0.5000 80
3 A2 31.2500 31.5000 0.2500 96
3 A1 31.5000 32.0000 0.5000 80
3 A2 31.7500 32.0000 0.2500 96
3 C2 32.0000 32.5000 0.5000 80
3 C3 32.2500 32.5000 0.2500 96
3 C2 32.5000 33.0000 0.5000 80
3 C3 32.7500 33.0000 0.2500 96
3 D2 33.0000 33.5000 0.5000 80
3 D3 33.2500 33.5000 0.2500 96
3 D2 33.5000 34.0000 0.5000 80
3 D3 33.7500 34.0000 0.2500 96
3 D2 34.0000 34.5000 0.5000 80
3 D3 34.2500 34.5000 0.2500 96
3 D2 34.5000 35.0000 0.5000 80
3 D3 34.7500 35.0000 0.2500 96
3 D2 35.0000 35.5000 0.5000 80
3 D3 35.2500 35.5000 0.2500 96
3 D2 36.0000 36.5000 0.5000 80
3 D3 36.2500 36.5000 0.2500 96
3 D2 36.5000 37.0000 0.5000 80
3 D3 36.7500 37.0000 0.2500 96
3 D2 37.0000 37.5000 0.5000 80
3 D3 37.2500 37.5000 0.2500 96
3 D2 37.5000 38.0000 0.5000 80
3 D3 37.7500 38.0000 0.2500 96
3 C2 38.0000 38.5000 0.5000 80
3 C3 38.2500 38.5000 0.2500 96
3 C2 38.5000 39.0000 0.5000 80
3 C3 38.7500 39.0000 0.2500 96
3 D2 39.0000 39.5000 0.5000 80
3 D3 39.2500 39.5000 0.2500 96
3 A#1 40.0000 40.5000 0.5000 80
3 A#2 40.2500 40.5000 0.2500 96
3 A#1 40.5000 41.0000 0.5000 80
3 A#2 40.7500 41.0000 0.2500 96
3 A#1 41.0000 41.5000 0.5000 80
3 A#2 41.2500 41.5000 0.2500 96
3 A#1 41.5000 42.0000 0.5000 80
3 A#2 41.7500 42.0000 0.2500 96
3 C2 42.0000 42.5000 0.5000 80
3 C3 42.2500 42.5000 0.2500 96
3 C2 42.5000 43.0000 0.5000 80
3 C3 42.7500 43.0000 0.2500 96
3 F1 43.0000 43.5000 0.5000 80
3 F2 43.2500 43.5000 0.2500 96
3 D2 44.0000 44.5000 0.5000 80
3 D3 44.2500 44.5000 0.2500 96
3 D2 44.5000 45.0000 0.5000 80
3 D3 44.7500 45.0000 0.2500 96
3 D2 45.0000 45.5000 0.5000 80
3 D3 45.2500 45.5000 0.2500 96
3 D2 45.5000 46.0000 0.5000 80
3 D3 45.7500 46.0000 0.2500 96
3 G1 46.0000 46.5000 0.5000 80
3 G2 46.2500 46.5000 0.2500 96
3 G1 46.5000 47.0000 0.5000 80
3 G2 46.7500 47.0000 0.2500 96
3 G1 47.0000 47.5000 0.5000 80
3 G2 47.2500 47.5000 0.2500 96
3 C2 48.0000 48.5000 0.5000 80
3 C3 48.2500 48.5000 0.2500 96
3 C2 48.5000 49.0000 0.5000 80
3 C3 48.7500 49.0000 0.2500 96
3 C2 49.0000 49.5000 0.5000 80
3 C3 49.2500 49.5000 0.2500 96
3 C2 49.5000 50.0000 0.5000 80
3 C3 49.7500 50.0000 0.2500 96
3 A1 50.0000 50.5000 0.5000 80
3 A2 50.2500 50.5000 0.2500 96
3 A1 50.5000 51.0000 0.5000 80
3 A2 50.7500 51.0000 0.2500 96
3 D1 51.0000 51.5000 0.5000 80
3 D2 51.2500 51.5000 0.2500 96
3 D2 52.0000 52.5000 0.5000 80
3 D3 52.2500 52.5000 0.2500 96
3 D2 52.5000 53.0000 0.5000 80
3 D3 52.7500 53.0000 0.2500 96
3 D2 53.0000 53.5000 0.5000 80
3 D3 53.2500 53.5000 0.2500 96
3 D2 53.5000 54.0000 0.5000 80
3 D3 53.7500 54.0000 0.2500 96
3 C2 54.0000 54.5000 0.5000 80
3 C3 54.2500 54.5000 0.2500 96
3 C2 54.5000 55.0000 0.5000 80
3 C3 54.7500 55.0000 0.2500 96
3 D2 55.0000 55.5000 0.5000 80
3 D3 55.2500 55.5000 0.2500 96
3 D2 55.5000 56.0000 0.5000 80
3 D3 55.7500 56.0000 0.2500 96
3 A#1 56.0000 56.5000 0.5000 80
3 A#2 56.2500 56.5000 0.2500 96
3 A#1 56.5000 57.0000 0.5000 80
3 A#2 56.7500 57.0000 0.2500 96
3 A#1 57.0000 57.5000 0.5000 80
3 A#2 57.2500 57.5000 0.2500 96
3 A#1 57.5000 58.0000 0.5000 80
3 A#2 57.7500 58.0000 0.2500 96
3 C2 58.0000 58.5000 0.5000 80
3 C3 58.2500 58.5000 0.2500 96
3 C2 58.5000 59.0000 0.5000 80
3 C3 58.7500 59.0000 0.2500 96
3 F1 59.0000 59.5000 0.5000 80
3 F2 59.2500 59.5000 0.2500 96
3 F1 59.5000 60.0000 0.5000 80
3 F2 59.7500 60.0000 0.2500 96
3 D2 60.0000 60.5000 0.5000 80
3 D3 60.2500 60.5000 0.2500 96
3 D2 60.5000 61.0000 0.5000 80
3 D3 60.7500 61.0000 0.2500 96
3 D2 61.0000 61.5000 0.5000 80
3 D3 61.2500 61.5000 0.2500 96
3 D2 61.5000 62.0000 0.5000 80
3 D3 61.7500 62.0000 0.2500 96
3 G1 62.0000 62.5000 0.5000 80
3 G2 62.2500 62.5000 0.2500 96
3 G1 62.5000 63.0000 0.5000 80
3 G2 62.7500 63.0000 0.2500 96
3 G1 63.0000 63.5000 0.5000 80
3 G2 63.2500 63.5000 0.2500 96
3 G1 63.5000 64.0000 0.5000 80
3 G2 63.7500 64.0000 0.2500 96
3 C2 64.0000 64.5000 0.5000 80
3 C3 64.2500 64.5000 0.2500 96
3 C2 64.5000 65.0000 0.5000 80
3 C3 64.7500 65.0000 0.2500 96
3 C2 65.0000 65.5000 0.5000 80
3 C3 65.2500 65.5000 0.2500 96
3 C2 65.5000 66.0000 0.5000 80
3 C3 65.7500 66.0000 0.2500 96
3 A1 66.0000 66.5000 0.5000 80
3 A2 66.2500 66.5000 0.2500 96
3 A1 66.5000 67.0000 0.5000 80
3 A2 66.7500 67.0000 0.2500 96
3 D2 67.0000 67.5000 0.5000 80
3 D3 67.2500 67.5000 0.2500 96
3 D2 67.5000 68.0000 0.5000 80
3 D3 67.7500 68.0000 0.2500 96
3 D2 70.0000 70.5000 0.5000 80
3 D3 70.2500 70.5000 0.2500 96
3 D2 70.5000 71.0000 0.5000 80
3 D3 70.7500 71.0000 0.2500 96
3 D2 71.0000 71.5000 0.5000 80
3 D3 71.2500 71.5000 0.2500 96
3 D2 71.5000 72.0000 0.5000 80
3 D3 71.7500 72.0000 0.2500 96
3 A1 72.0000 72.5000 0.5000 80
3 A2 72.2500 72.5000 0.2500 96
3 A1 72.5000 73.0000 0.5000 80
3 A2 72.7500 73.0000 0.2500 96
3 D2 73.0000 73.5000 0.5000 80
3 D3 73.2500 73.5000 0.2500 96
3 D2 73.5000 74.0000 0.5000 80
3 D3 73.7500 74.0000 0.2500 96
3 A#1 74.0000 74.5000 0.5000 80
3 A#2 74.2500 74.5000 0.2500 96
3 A#1 74.5000 75.0000 0.5000 80
3 A#2 74.7500 75.0000 0.2500 96
3 A#1 75.0000 75.5000 0.5000 80
3 A#2 75.2500 75.5000 0.2500 96
3 A#1 75.5000 76.0000 0.5000 80
3 A#2 75.7500 76.0000 0.2500 96
3 C2 76.0000 76.5000 0.5000 80
3 C3 76.2500 76.5000 0.2500 96
3 C2 76.5000 77.0000 0.5000 80
3 C3 76.7500 77.0000 0.2500 96
3 F1 77.0000 77.5000 0.5000 80
3 F2 77.2500 77.5000 0.2500 96
3 F1 77.5000 78.0000 0.5000 80
3 F2 77.7500 78.0000 0.2500 96
3 D2 78.0000 78.5000 0.5000 80
3 D3 78.2500 78.5000 0.2500 96
3 D2 78.5000 79.0000 0.5000 80
3 D3 78.7500 79.0000 0.2500 96
3 D2 79.0000 79.5000 0.5000 80
3 D3 79.2500 79.5000 0.2500 96
3 D2 79.5000 80.0000 0.5000 80
3 D3 79.7500 80.0000 0.2500 96
3 G1 80.0000 80.5000 0.5000 80
3 G2 80.2500 80.5000 0.2500 96
3 G1 80.5000 81.0000 0.5000 80
3 G2 80.7500 81.0000 0.2500 96
3 G1 81.0000 81.5000 0.5000 80
3 G2 81.2500 81.5000 0.2500 96
3 G1 81.5000 82.0000 0.5000 80
3 G2 81.7500 82.0000 0.2500 96
3 A1 82.0000 82.5000 0.5000 80
3 A2 82.2500 82.5000 0.2500 96
3 A1 82.5000 83.0000 0.5000 80
3 A2 82.7500 83.0000 0.2500 96
3 C2 83.0000 83.5000 0.5000 80
3 C3 83.2500 83.5000 0.2500 96
3 C2 83.5000 84.0000 0.5000 80
3 C3 83.7500 84.0000 0.2500 96
3 D2 84.0000 84.5000 0.5000 80
3 D3 84.2500 84.5000 0.2500 96
3 D2 84.5000 85.0000 0.5000 80
3 D3 84.7500 85.0000 0.2500 96
3 D2 85.0000 85.5000 0.5000 80
3 D3 85.2500 85.5000 0.2500 96
3 D2 85.5000 86.0000 0.5000 80
3 D3 85.7500 86.0000 0.2500 96
3 D2 86.0000 86.5000 0.5000 80
3 D3 86.2500 86.5000 0.2500 96
3 D2 86.5000 87.0000 0.5000 80
3 D3 86.7500 87.0000 0.2500 96
3 D2 87.0000 87.5000 0.5000 80
3 D3 87.2500 87.5000 0.2500 96
3 D2 87.5000 88.0000 0.5000 80
3 D3 87.7500 88.0000 0.2500 96
3 A1 88.0000 88.5000 0.5000 80
3 A2 88.2500 88.5000 0.2500 96
3 A1 88.5000 89.0000 0.5000 80
3 A2 88.7500 89.0000 0.2500 96
3 D2 89.0000 89.5000 0.5000 80
3 D3 89.2500 89.5000 0.2500 96
3 D2 89.5000 90.0000 0.5000 80
3 D3 89.7500 90.0000 0.2500 96
3 A#1 90.0000 90.5000 0.5000 80
3 A#2 90.2500 90.5000 0.2500 96
3 A#1 90.5000 91.0000 0.5000 80
3 A#2 90.7500 91.0000 0.2500 96
3 A#1 91.0000 91.5000 0.5000 80
3 A#2 91.2500 91.5000 0.2500 96
3 A#1 91.5000 92.0000 0.5000 80
3 A#2 91.7500 92.0000 0.2500 96
3 C2 92.0000 92.5000 0.5000 80
3 C3 92.2500 92.5000 0.2500 96
3 C2 92.5000 93.0000 0.5000 80
3 C3 92.7500 93.0000 0.2500 96
3 F1 93.0000 93.5000 0.5000 80
3 F2 93.2500 93.5000 0.2500 96
3 F1 93.5000 94.0000 0.5000 80
3 F2 93.7500 94.0000 0.2500 96
3 D2 94.0000 94.5000 0.5000 80
3 D3 94.2500 94.5000 0.2500 96
3 D2 94.5000 95.0000 0.5000 80
3 D3 94.7500 95.0000 0.2500 96
3 D2 95.0000 95.5000 0.5000 80
3 D3 95.2500 95.5000 0.2500 96
3 D2 95.5000 96.0000 0.5000 80
3 D3 95.7500 96.0000 0.2500 96
3 G1 96.0000 96.5000 0.5000 80
3 G2 96.2500 96.5000 0.2500 96
3 G1 96.5000 97.0000 0.5000 80
3 G2 96.7500 97.0000 0.2500 96
3 G1 97.0000 97.5000 0.5000 80
3 G2 97.2500 97.5000 0.2500 96
3 G1 97.5000 98.0000 0.5000 80
3 G2 97.7500 98.0000 0.2500 96
3 A1 98.0000 98.5000 0.5000 80
3 A2 98.2500 98.5000 0.2500 96
3 A1 98.5000 99.0000 0.5000 80
3 A2 98.7500 99.0000 0.2500 96
3 A1 99.0000 99.5000 0.5000 80
3 A2 99.2500 99.5000 0.2500 96
3 A1 99.5000 100.0000 0.5000 80
3 A2 99.7500 100.0000 0.2500 96
3 C2 100.0000 100.5000 0.5000 80
3 C3 100.2500 100.5000 0.2500 96
3 C2 100.5000 101.0000 0.5000 80
3 C3 100.7500 101.0000 0.2500 96
3 D2 101.0000 101.5000 0.5000 80
3 D3 101.2500 101.5000 0.2500 96
3 D2 101.5000 102.0000 0.5000 80
3 D3 101.7500 102.0000 0.2500 96
3 D2 102.0000 102.5000 0.5000 76
3 D3 102.2500 102.5000 0.2500 92
3 C2 102.5000 103.0000 0.5000 80
3 C3 102.7500 103.0000 0.2500 96
3 C2 103.0000 103.5000 0.5000 80
3 C3 103.2500 103.5000 0.2500 96
3 D2 104.0000 104.5000 0.5000 80
3 D3 104.2500 104.5000 0.2500 96
3 D2 104.5000 105.0000 0.5000 80
3 D3 104.7500 105.0000 0.2500 96
3 D2 105.0000 105.5000 0.5000 80
3 D3 105.2500 105.5000 0.2500 96
3 D2 105.5000 106.0000 0.5000 80
3 D3 105.7500 106.0000 0.2500 96
3 A1 106.0000 106.5000 0.5000 80
3 A2 106.2500 106.5000 0.2500 96
3 A1 106.5000 107.0000 0.5000 80
3 A2 106.7500 107.0000 0.2500 96
3 D2 107.0000 107.5000 0.5000 80
3 D3 107.2500 107.5000 0.2500 96
3 D2 107.5000 108.0000 0.5000 80
3 D3 107.7500 108.0000 0.2500 96
3 A#1 108.0000 108.5000 0.5000 80
3 A#2 108.2500 108.5000 0.2500 96
3 A#1 108.5000 109.0000 0.5000 80
3 A#2 108.7500 109.0000 0.2500 96
3 A#1 109.0000 109.5000 0.5000 80
3 A#2 109.2500 109.5000 0.2500 96
3 A#1 109.5000 110.0000 0.5000 80
3 A#2 109.7500 110.0000 0.2500 96
3 C2 110.0000 110.5000 0.5000 80
3 C3 110.2500 110.5000 0.2500 96
3 C2 110.5000 111.0000 0.5000 80
3 C3 110.7500 111.0000 0.2500 96
3 F1 111.0000 111.5000 0.5000 80
3 F2 111.2500 111.5000 0.2500 96
3 F1 111.5000 112.0000 0.5000 80
3 F2 111.7500 112.0000 0.2500 96
3 D2 112.0000 112.5000 0.5000 80
3 D3 112.2500 112.5000 0.2500 96
3 D2 112.5000 113.0000 0.5000 80
3 D3 112.7500 113.0000 0.2500 96
3 D2 113.0000 113.5000 0.5000 80
3 D3 113.2500 113.5000 0.2500 96
3 D2 113.5000 114.0000 0.5000 80
3 D3 113.7500 114.0000 0.2500 96
3 G1 114.0000 114.5000 0.5000 80
3 G2 114.2500 114.5000 0.2500 96
3 G1 114.5000 115.0000 0.5000 80
3 G2 114.7500 115.0000 0.2500 96
3 G1 115.0000 115.5000 0.5000 80
3 G2 115.2500 115.5000 0.2500 96
3 G1 115.5000 116.0000 0.5000 80
3 G2 115.7500 116.0000 0.2500 96
3 A1 116.0000 116.5000 0.5000 80
3 A2 116.2500 116.5000 0.2500 96
3 A1 116.5000 117.0000 0.5000 80
3 A2 116.7500 117.0000 0.2500 96
3 A1 117.0000 117.5000 0.5000 80
3 A2 117.2500 117.5000 0.2500 96
3 A1 117.5000 118.0000 0.5000 80
3 A2 117.7500 118.0000 0.2500 96
3 C2 118.0000 118.5000 0.5000 80
3 C3 118.2500 118.5000 0.2500 96
3 C2 118.5000 119.0000 0.5000 80
3 C3 118.7500 119.0000 0.2500 96
3 D2 119.0000 119.5000 0.5000 80
3 D3 119.2500 119.5000 0.2500 96
3 D2 119.5000 120.0000 0.5000 80
3 D3 119.7500 120.0000 0.2500 96
3 D2 120.0000 120.5000 0.5000 80
3 D3 120.2500 120.5000 0.2500 96
3 D2 120.5000 121.0000 0.5000 80
3 D3 120.7500 121.0000 0.2500 96
3 D2 121.0000 121.5000 0.5000 80
3 D3 121.2500 121.5000 0.2500 96
4 D2 2.0000 4.0000 2.0000 96
4 A1 4.0000 5.0000 1.0000 96
4 D2 5.0000 6.0000 1.0000 96
4 A#1 6.0000 8.0000 2.0000 96
4 C2 8.0000 9.0000 1.0000 96
4 F1 9.0000 10.0000 1.0000 96
4 D2 10.0000 12.0000 2.0000 96
4 G1 12.0000 14.0000 2.0000 96
4 A1 14.0000 15.0000 1.0000 96
4 C2 15.0000 16.0000 1.0000 96
4 D2 16.0000 17.5000 1.5000 96
4 D2 18.0000 20.0000 2.0000 96
4 A1 20.0000 21.0000 1.0000 96
4 D2 21.0000 22.0000 1.0000 96
4 A#1 22.0000 24.0000 2.0000 96
4 C2 24.0000 25.0000 1.0000 96
4 F1 25.0000 26.0000 1.0000 96
4 D2 26.0000 28.0000 2.0000 96
4 G1 28.0000 30.0000 2.0000 96
4 A1 30.0000 32.0000 2.0000 96
4 C2 32.0000 33.0000 1.0000 96
4 D2 33.0000 35.5000 2.5000 96
4 D2 36.0000 38.0000 2.0000 96
4 C2 38.0000 39.0000 1.0000 96
4 D2 39.0000 39.5000 0.5000 96
4 A#1 40.0000 42.0000 2.0000 96
4 C2 42.0000 43.0000 1.0000 96
4 F1 43.0000 43.5000 0.5000 96
4 D2 44.0000 46.0000 2.0000 96
4 G1 46.0000 47.5000 1.5000 96
4 C2 48.0000 50.0000 2.0000 96
4 A1 50.0000 51.0000 1.0000 96
4 D1 51.0000 51.5000 0.5000 96
4 D2 52.0000 54.0000 2.0000 96
4 C2 54.0000 55.0000 1.0000 96
4 D2 55.0000 56.0000 1.0000 96
4 A#1 56.0000 58.0000 2.0000 96
4 C2 58.0000 59.0000 1.0000 96
4 F1 59.0000 60.0000 1.0000 96
4 D2 60.0000 62.0000 2.0000 96
4 G1 62.0000 64.0000 2.0000 96
4 C2 64.0000 66.0000 2.0000 96
4 A1 66.0000 67.0000 1.0000 96
4 D2 67.0000 68.0000 1.0000 96
4 D2 70.0000 72.0000 2.0000 96
4 A1 72.0000 73.0000 1.0000 96
4 D2 73.0000 74.0000 1.0000 96
4 A#1 74.0000 76.0000 2.0000 96
4 C2 76.0000 77.0000 1.0000 96
4 F1 77.0000 78.0000 1.0000 96
4 D2 78.0000 80.0000 2.0000 96
4 G1 80.0000 82.0000 2.0000 96
4 A1 82.0000 83.0000 1.0000 96
4 C2 83.0000 84.0000 1.0000 96
4 D2 84.0000 88.0000 4.0000 96
4 A1 88.0000 89.0000 1.0000 96
4 D2 89.0000 90.0000 1.0000 96
4 A#1 90.0000 92.0000 2.0000 96
4 C2 92.0000 93.0000 1.0000 96
4 F1 93.0000 94.0000 1.0000 96
4 D2 94.0000 96.0000 2.0000 96
4 G1 96.0000 98.0000 2.0000 96
4 A1 98.0000 100.0000 2.0000 96
4 C2 100.0000 101.0000 1.0000 96
4 D2 101.0000 102.5000 1.5000 96
4 C2 102.5000 103.5000 1.0000 96
4 D2 104.0000 106.0000 2.0000 96
4 A1 106.0000 107.0000 1.0000 96
4 D2 107.0000 108.0000 1.0000 96
4 A#1 108.0000 110.0000 2.0000 96
4 C2 110.0000 111.0000 1.0000 96
4 F1 111.0000 112.0000 1.0000 96
4 D2 112.0000 114.0000 2.0000 96
4 G1 114.0000 116.0000 2.0000 96
4 A1 116.0000 118.0000 2.0000 96
4 C2 118.0000 119.0000 1.0000 96
4 D2 119.0000 121.5000 2.5000 96
5 D5 10.0000 10.1250 0.1250 96
5 D5 10.3750 10.5000 0.1250 96
5 D5 10.5000 10.6250 0.1250 96
5 C5 10.7500 10.8750 0.1250 96
5 D5 11.0000 11.1250 0.1250 96
5 D5 11.2500 11.3750 0.1250 96
5 F5 11.3750 11.5000 0.1250 96
5 D5 11.5000 11.6250 0.1250 96
5 C5 11.7500 11.8750 0.1250 96
5 A4 12.0000 12.1250 0.1250 96
5 A4 12.2500 12.3750 0.1250 96
5 G4 12.3750 12.5000 0.1250 96
5 F4 12.5000 12.6250 0.1250 96
5 C5 12.7500 12.8750 0.1250 96
5 A4 12.8750 13.0000 0.1250 96
5 G4 13.0000 13.1250 0.1250 96
5 D5 26.0000 26.1250 0.1250 96
5 D5 26.3750 26.5000 0.1250 96
5 D5 26.5000 26.6250 0.1250 96
5 C5 26.7500 26.8750 0.1250 96
5 D5 27.0000 27.1250 0.1250 96
5 D5 27.2500 27.3750 0.1250 96
5 F5 27.3750 27.5000 0.1250 96
5 D5 27.5000 27.6250 0.1250 96
5 C5 27.7500 27.8750 0.1250 96
5 A4 28.0000 28.1250 0.1250 96
5 A4 28.2500 28.3750 0.1250 96
5 G4 28.3750 28.5000 0.1250 96
5 F4 28.5000 28.6250 0.1250 96
5 C5 28.7500 28.8750 0.1250 96
5 A4 28.8750 29.0000 0.1250 96
5 G4 29.0000 29.1250 0.1250 96
6 D3 16.0000 16.1250 0.1250 96
6 F3 16.2500 16.3750 0.1250 96
6 G3 16.5000 16.6250 0.1250 96
6 A3 16.7500 16.8750 0.1250 96
6 F3 17.0000 17.1250 0.1250 96
6 G3 17.2500 17.3750 0.1250 96
6 A3 17.5000 17.6250 0.1250 96
6 C4 17.7500 17.8750 0.1250 96
6 D5 34.0000 34.1250 0.1250 96
6 F5 34.1250 34.2500 0.1250 96
6 G5 34.2500 34.3750 0.1250 96
6 F5 34.3750 34.5000 0.1250 96
6 D5 34.5000 34.6250 0.1250 96
6 C5 34.6250 34.7500 0.1250 96
6 A4 34.7500 34.8750 0.1250 96
6 F4 34.8750 35.0000 0.1250 96
6 D4 35.0000 35.1250 0.1250 96
6 D3 50.0000 50.1250 0.1250 96
6 F3 50.2500 50.3750 0.1250 96
6 G3 50.5000 50.6250 0.1250 96
6 A3 50.7500 50.8750 0.1250 96
6 F3 51.0000 51.1250 0.1250 96
6 G3 51.2500 51.3750 0.1250 96
6 A3 51.5000 51.6250 0.1250 96
6 C4 51.7500 51.8750 0.1250 96
6 D3 80.2500 80.3750 0.1250 96
6 F3 80.3750 80.5000 0.1250 96
6 G3 80.5000 80.6250 0.1250 96
6 A3 80.7500 80.8750 0.1250 96
6 F3 81.2500 81.3750 0.1250 96
6 G3 81.3750 81.5000 0.1250 96
6 A3 81.5000 81.6250 0.1250 96
6 C4 81.7500 81.8750 0.1250 96
6 D3 84.0000 84.1250 0.1250 96
6 F3 84.2500 84.3750 0.1250 96
6 G3 84.5000 84.6250 0.1250 96
6 A3 84.7500 84.8750 0.1250 96
6 F3 85.0000 85.1250 0.1250 96
6 G3 85.2500 85.3750 0.1250 96
6 A3 85.5000 85.6250 0.1250 96
6 C4 85.7500 85.8750 0.1250 96
6 D3 96.2500 96.3750 0.1250 96
6 F3 96.3750 96.5000 0.1250 96
6 G3 96.5000 96.6250 0.1250 96
6 A3 96.7500 96.8750 0.1250 96
6 G3 97.0000 97.1250 0.1250 100
6 G5 102.0000 102.1250 0.1250 96
6 F5 102.1250 102.2500 0.1250 96
6 D5 102.2500 102.3750 0.1250 96
6 C5 102.3750 102.5000 0.1250 96
6 A4 102.5000 102.6250 0.1250 96
6 F4 102.6250 102.7500 0.1250 96
6 D4 102.7500 102.8750 0.1250 96
6 D5 120.0000 120.1250 0.1250 96
6 F5 120.1250 120.2500 0.1250 96
6 G5 120.2500 120.3750 0.1250 96
6 F5 120.3750 120.5000 0.1250 96
6 D5 120.5000 120.6250 0.1250 96
6 C5 120.6250 120.7500 0.1250 96
6 A4 120.7500 120.8750 0.1250 96
6 F4 120.8750 121.0000 0.1250 96
6 D4 121.0000 121.1250 0.1250 96
7 G4 55.2500 55.5000 0.2500 96
7 F4 55.5000 55.7500 0.2500 96
7 C4 55.7500 56.0000 0.2500 96
7 D4 56.0000 57.2500 1.2500 96
7 C4 57.2500 57.5000 0.2500 96
7 D4 57.5000 57.7500 0.2500 96
7 F4 57.7500 58.0000 0.2500 96
7 G4 58.0000 58.5000 0.5000 96
7 F4 58.5000 58.7500 0.2500 96
7 G4 58.7500 59.0000 0.2500 96
7 A4 59.0000 60.0000 1.0000 96
7 A4 63.2500 63.5000 0.2500 96
7 G4 63.5000 63.7500 0.2500 96
7 F4 63.7500 64.0000 0.2500 96
7 G4 64.0000 65.2500 1.2500 96
7 F4 65.2500 65.5000 0.2500 96
7 G4 65.5000 65.7500 0.2500 96
7 A4 65.7500 66.0000 0.2500 96
7 C5 66.0000 66.5000 0.5000 96
7 A4 66.5000 66.7500 0.2500 96
7 C5 66.7500 67.0000 0.2500 96
7 D5 67.0000 69.0000 2.0000 96
7 G4 73.2500 73.5000 0.2500 100
7 A4 73.5000 73.7500 0.2500 100
7 C5 73.7500 74.0000 0.2500 100
7 D5 74.0000 75.2500 1.2500 100
7 F5 75.2500 75.5000 0.2500 100
7 D5 75.5000 75.7500 0.2500 100
7 C5 75.7500 76.0000 0.2500 100
7 D5 76.0000 76.5000 0.5000 100
7 C5 76.5000 76.7500 0.2500 100
7 G4 76.7500 77.0000 0.2500 100
7 A4 77.0000 78.0000 1.0000 100
7 A4 81.2500 81.5000 0.2500 100
7 G4 81.5000 81.7500 0.2500 100
7 F4 81.7500 82.0000 0.2500 100
7 G4 82.0000 83.2500 1.2500 100
7 C5 83.2500 83.5000 0.2500 100
7 A4 83.5000 83.7500 0.2500 100
7 E5 83.7500 84.0000 0.2500 100
7 D5 84.0000 85.5000 1.5000 100
7 G4 89.2500 89.5000 0.2500 100
7 A4 89.5000 89.7500 0.2500 100
7 C5 89.7500 90.0000 0.2500 100
7 D5 90.0000 91.2500 1.2500 100
7 F5 91.2500 91.5000 0.2500 100
7 D5 91.5000 91.7500 0.2500 100
7 C5 91.7500 92.0000 0.2500 100
7 D5 92.0000 92.5000 0.5000 100
7 C5 92.5000 92.7500 0.2500 100
7 G4 92.7500 93.0000 0.2500 100
7 A4 93.0000 94.0000 1.0000 100
7 A4 97.2500 97.5000 0.2500 96
7 G4 97.5000 97.7500 0.2500 96
7 F4 97.7500 98.0000 0.2500 96
7 G4 98.0000 99.2500 1.2500 96
7 A4 99.2500 99.5000 0.2500 96
7 G4 99.5000 99.7500 0.2500 96
7 A4 99.7500 100.0000 0.2500 96
7 C5 100.0000 100.5000 0.5000 96
7 A4 100.5000 100.7500 0.2500 96
7 E5 100.7500 101.0000 0.2500 96
7 D5 101.0000 103.0000 2.0000 96
8 D4 34.7500 35.0000 0.2500 112
8 C4 35.2500 35.5000 0.2500 112
8 D4 35.5000 35.7500 0.2500 112
8 D4 68.0000 68.2500 0.2500 112
8 C4 68.7500 69.0000 0.2500 112
8 C4 69.2500 69.5000 0.2500 112
8 D4 69.5000 69.7500 0.2500 112
8 D4 102.0000 102.2500 0.2500 112
8 C4 102.7500 103.0000 0.2500 112
8 C4 103.2500 103.5000 0.2500 112
8 D4 103.5000 103.7500 0.2500 112
8 D4 120.7500 121.0000 0.2500 96
8 C4 121.2500 121.5000 0.2500 96
8 D4 121.5000 121.7500 0.2500 96
9 C2 2.0000 2.0625 0.0625 96
9 C2 2.0000 2.0625 0.0625 96
9 C#3 2.0000 2.1250 0.1250 96
9 A3 2.0000 2.1250 0.1250 96
9 F#2 2.2500 2.3125 0.0625 96
9 C2 2.5000 2.5625 0.0625 96
9 D2 2.5000 2.5625 0.0625 112
9 F#2 2.7500 2.8125 0.0625 96
9 C2 3.0000 3.0625 0.0625 96
9 F#2 3.2500 3.3125 0.0625 96
9 C2 3.5000 3.5625 0.0625 96
9 D2 3.5000 3.5625 0.0625 112
9 F#2 3.7500 3.8125 0.0625 96
9 C2 4.0000 4.0625 0.0625 96
9 F#2 4.2500 4.3125 0.0625 96
9 C2 4.5000 4.5625 0.0625 96
9 D2 4.5000 4.5625 0.0625 112
9 F#2 4.7500 4.8125 0.0625 96
9 C2 5.0000 5.0625 0.0625 96
9 F#2 5.2500 5.3125 0.0625 96
9 C2 5.5000 5.5625 0.0625 96
9 D2 5.5000 5.5625 0.0625 112
9 F#2 5.7500 5.8125 0.0625 96
9 C2 6.0000 6.0625 0.0625 96
9 F#2 6.2500 6.3125 0.0625 96
9 C2 6.5000 6.5625 0.0625 96
9 D2 6.5000 6.5625 0.0625 112
9 F#2 6.7500 6.8125 0.0625 96
9 C2 7.0000 7.0625 0.0625 96
9 F#2 7.2500 7.3125 0.0625 96
9 C2 7.5000 7.5625 0.0625 96
9 D2 7.5000 7.5625 0.0625 112
9 F#2 7.7500 7.8125 0.0625 96
9 C2 8.0000 8.0625 0.0625 96
9 F#2 8.2500 8.3125 0.0625 96
9 C2 8.5000 8.5625 0.0625 96
9 D2 8.5000 8.5625 0.0625 112
9 F#2 8.7500 8.8125 0.0625 96
9 C2 9.0000 9.0625 0.0625 96
9 F#2 9.2500 9.3125 0.0625 96
9 C2 9.5000 9.5625 0.0625 96
9 D2 9.5000 9.5625 0.0625 112
9 F#2 9.7500 9.8125 0.0625 96
9 C2 10.0000 10.0625 0.0625 96
9 F#2 10.2500 10.3125 0.0625 96
9 C2 10.5000 10.5625 0.0625 96
9 D2 10.5000 10.5625 0.0625 112
9 F#2 10.7500 10.8125 0.0625 96
9 C2 11.0000 11.0625 0.0625 96
9 F#2 11.2500 11.3125 0.0625 96
9 C2 11.5000 11.5625 0.0625 96
9 D2 11.5000 11.5625 0.0625 112
9 F#2 11.7500 11.8125 0.0625 96
9 C2 12.0000 12.0625 0.0625 96
9 F#2 12.2500 12.3125 0.0625 96
9 C2 12.5000 12.5625 0.0625 96
9 D2 12.5000 12.5625 0.0625 112
9 F#2 12.7500 12.8125 0.0625 96
9 C2 13.0000 13.0625 0.0625 96
9 F#2 13.2500 13.3125 0.0625 96
9 C2 13.5000 13.5625 0.0625 96
9 D2 13.5000 13.5625 0.0625 112
9 F#2 13.7500 13.8125 0.0625 96
9 C2 14.0000 14.0625 0.0625 96
9 F#2 14.2500 14.3125 0.0625 96
9 C2 14.5000 14.5625 0.0625 96
9 D2 14.5000 14.5625 0.0625 112
9 F#2 14.7500 14.8125 0.0625 96
9 C2 15.0000 15.0625 0.0625 96
9 F#2 15.2500 15.3125 0.0625 96
9 C2 15.5000 15.5625 0.0625 96
9 D2 15.5000 15.5625 0.0625 112
9 F#2 15.7500 15.8125 0.0625 96
9 D#2 16.0000 16.0625 0.0625 96
9 C2 16.0000 16.0625 0.0625 96
9 C3 16.2500 16.3125 0.0625 96
9 C3 16.3750 16.4375 0.0625 96
9 D#2 16.5000 16.5625 0.0625 96
9 C2 16.5000 16.5625 0.0625 96
9 C3 16.7500 16.8125 0.0625 96
9 C3 16.8750 16.9375 0.0625 96
9 D#2 17.0000 17.0625 0.0625 96
9 C2 17.0000 17.0625 0.0625 96
9 C3 17.2500 17.3125 0.0625 96
9 C3 17.3750 17.4375 0.0625 96
9 C2 17.5000 17.5625 0.0625 96
9 D2 17.5000 17.5625 0.0625 112
9 D2 17.5000 17.5625 0.0625 96
9 E2 17.5000 17.6250 0.1250 96
9 C2 18.0000 18.0625 0.0625 96
9 C2 18.0000 18.0625 0.0625 96
9 C#3 18.0000 18.1250 0.1250 96
9 A3 18.0000 18.1250 0.1250 96
9 F#2 18.2500 18.3125 0.0625 96
9 C2 18.5000 18.5625 0.0625 96
9 D2 18.5000 18.5625 0.0625 112
9 F#2 18.7500 18.8125 0.0625 96
9 C2 19.0000 19.0625 0.0625 96
9 F#2 19.2500 19.3125 0.0625 96
9 C2 19.5000 19.5625 0.0625 96
9 D2 19.5000 19.5625 0.0625 112
9 F#2 19.7500 19.8125 0.0625 96
9 C2 20.0000 20.0625 0.0625 96
9 F#2 20.2500 20.3125 0.0625 96
9 C2 20.5000 20.5625 0.0625 96
9 D2 20.5000 20.5625 0.0625 112
9 F#2 20.7500 20.8125 0.0625 96
9 C2 21.0000 21.0625 0.0625 96
9 F#2 21.2500 21.3125 0.0625 96
9 C2 21.5000 21.5625 0.0625 96
9 D2 21.5000 21.5625 0.0625 112
9 F#2 21.7500 21.8125 0.0625 96
9 C2 22.0000 22.0625 0.0625 96
9 F#2 22.2500 22.3125 0.0625 96
9 C2 22.5000 22.5625 0.0625 96
9 D2 22.5000 22.5625 0.0625 112
9 F#2 22.7500 22.8125 0.0625 96
9 C2 23.0000 23.0625 0.0625 96
9 F#2 23.2500 23.3125 0.0625 96
9 C2 23.5000 23.5625 0.0625 96
9 D2 23.5000 23.5625 0.0625 112
9 F#2 23.7500 23.8125 0.0625 96
9 C2 24.0000 24.0625 0.0625 96
9 F#2 24.2500 24.3125 0.0625 96
9 C2 24.5000 24.5625 0.0625 96
9 D2 24.5000 24.5625 0.0625 112
9 F#2 24.7500 24.8125 0.0625 96
9 C2 25.0000 25.0625 0.0625 96
9 F#2 25.2500 25.3125 0.0625 96
9 C2 25.5000 25.5625 0.0625 96
9 D2 25.5000 25.5625 0.0625 112
9 F#2 25.7500 25.8125 0.0625 96
9 C2 26.0000 26.0625 0.0625 96
9 F#2 26.2500 26.3125 0.0625 96
9 C2 26.5000 26.5625 0.0625 96
9 D2 26.5000 26.5625 0.0625 112
9 F#2 26.7500 26.8125 0.0625 96
9 C2 27.0000 27.0625 0.0625 96
9 F#2 27.2500 27.3125 0.0625 96
9 C2 27.5000 27.5625 0.0625 96
9 D2 27.5000 27.5625 0.0625 112
9 F#2 27.7500 27.8125 0.0625 96
9 C2 28.0000 28.0625 0.0625 96
9 F#2 28.2500 28.3125 0.0625 96
9 C2 28.5000 28.5625 0.0625 96
9 D2 28.5000 28.5625 0.0625 112
9 F#2 28.7500 28.8125 0.0625 96
9 C2 29.0000 29.0625 0.0625 96
9 F#2 29.2500 29.3125 0.0625 96
9 C2 29.5000 29.5625 0.0625 96
9 D2 29.5000 29.5625 0.0625 112
9 F#2 29.7500 29.8125 0.0625 96
9 C2 30.0000 30.0625 0.0625 96
9 F#2 30.2500 30.3125 0.0625 96
9 C2 30.5000 30.5625 0.0625 96
9 D2 30.5000 30.5625 0.0625 112
9 F#2 30.7500 30.8125 0.0625 96
9 C2 31.0000 31.0625 0.0625 96
9 F#2 31.2500 31.3125 0.0625 96
9 C2 31.5000 31.5625 0.0625 96
9 D2 31.5000 31.5625 0.0625 112
9 F#2 31.7500 31.8125 0.0625 96
9 C2 32.0000 32.0625 0.0625 96
9 F#2 32.2500 32.3125 0.0625 96
9 C2 32.5000 32.5625 0.0625 96
9 D2 32.5000 32.5625 0.0625 112
9 F#2 32.7500 32.8125 0.0625 96
9 C2 33.0000 33.0625 0.0625 96
9 F#2 33.2500 33.3125 0.0625 96
9 C2 33.5000 33.5625 0.0625 96
9 D2 33.5000 33.5625 0.0625 112
9 F#2 33.7500 33.8125 0.0625 96
9 E2 34.0000 34.0625 0.0625 69
9 C2 34.0000 34.0625 0.0625 96
9 E2 34.1250 34.1875 0.0625 71
9 F#2 34.2500 34.3125 0.0625 96
9 E2 34.2500 34.3125 0.0625 73
9 E2 34.3750 34.4375 0.0625 75
9 C2 34.5000 34.5625 0.0625 96
9 E2 34.5000 34.5625 0.0625 77
9 D2 34.5000 34.5625 0.0625 112
9 E2 34.6250 34.6875 0.0625 79
9 F#2 34.7500 34.8125 0.0625 96
9 E2 34.7500 34.8125 0.0625 81
9 E2 34.8750 34.9375 0.0625 83
9 E2 35.0000 35.0625 0.0625 85
9 C2 35.0000 35.0625 0.0625 96
9 E2 35.1250 35.1875 0.0625 87
9 C2 35.2500 35.3125 0.0625 96
9 E2 35.2500 35.3125 0.0625 89
9 F#2 35.2500 35.3125 0.0625 96
9 E2 35.3750 35.4375 0.0625 91
9 D2 35.5000 35.5625 0.0625 112
9 C2 35.5000 35.5625 0.0625 96
9 E2 35.5000 35.5625 0.0625 93
9 C2 36.0000 36.0625 0.0625 96
9 C2 36.0000 36.0625 0.0625 96
9 C#3 36.0000 36.1250 0.1250 96
9 A3 36.0000 36.1250 0.1250 96
9 F#2 36.2500 36.3125 0.0625 96
9 C2 36.5000 36.5625 0.0625 96
9 D2 36.5000 36.5625 0.0625 112
9 F#2 36.7500 36.8125 0.0625 96
9 C2 37.0000 37.0625 0.0625 96
9 F#2 37.2500 37.3125 0.0625 96
9 C2 37.5000 37.5625 0.0625 96
9 D2 37.5000 37.5625 0.0625 112
9 F#2 37.7500 37.8125 0.0625 96
9 C2 38.0000 38.0625 0.0625 96
9 F#2 38.2500 38.3125 0.0625 96
9 C2 38.5000 38.5625 0.0625 96
9 D2 38.5000 38.5625 0.0625 112
9 F#2 38.7500 38.8125 0.0625 96
9 C2 39.0000 39.0625 0.0625 96
9 F#2 39.2500 39.3125 0.0625 96
9 C2 39.5000 39.5625 0.0625 96
9 D2 39.5000 39.5625 0.0625 112
9 C2 40.0000 40.0625 0.0625 96
9 F#2 40.2500 40.3125 0.0625 96
9 C2 40.5000 40.5625 0.0625 96
9 D2 40.5000 40.5625 0.0625 112
9 F#2 40.7500 40.8125 0.0625 96
9 C2 41.0000 41.0625 0.0625 96
9 F#2 41.2500 41.3125 0.0625 96
9 C2 41.5000 41.5625 0.0625 96
9 D2 41.5000 41.5625 0.0625 112
9 F#2 41.7500 41.8125 0.0625 96
9 C2 42.0000 42.0625 0.0625 96
9 F#2 42.2500 42.3125 0.0625 96
9 C2 42.5000 42.5625 0.0625 96
9 D2 42.5000 42.5625 0.0625 112
9 F#2 42.7500 42.8125 0.0625 96
9 C2 43.0000 43.0625 0.0625 96
9 F#2 43.2500 43.3125 0.0625 96
9 C2 43.5000 43.5625 0.0625 96
9 D2 43.5000 43.5625 0.0625 112
9 C2 44.0000 44.0625 0.0625 96
9 F#2 44.2500 44.3125 0.0625 96
9 C2 44.5000 44.5625 0.0625 96
9 D2 44.5000 44.5625 0.0625 112
9 F#2 44.7500 44.8125 0.0625 96
9 C2 45.0000 45.0625 0.0625 96
9 F#2 45.2500 45.3125 0.0625 96
9 C2 45.5000 45.5625 0.0625 96
9 D2 45.5000 45.5625 0.0625 112
9 F#2 45.7500 45.8125 0.0625 96
9 C2 46.0000 46.0625 0.0625 96
9 F#2 46.2500 46.3125 0.0625 96
9 C2 46.5000 46.5625 0.0625 96
9 D2 46.5000 46.5625 0.0625 112
9 F#2 46.7500 46.8125 0.0625 96
9 C2 47.0000 47.0625 0.0625 96
9 F#2 47.2500 47.3125 0.0625 96
9 C2 47.5000 47.5625 0.0625 96
9 D2 47.5000 47.5625 0.0625 112
9 C2 48.0000 48.0625 0.0625 96
9 F#2 48.2500 48.3125 0.0625 96
9 C2 48.5000 48.5625 0.0625 96
9 D2 48.5000 48.5625 0.0625 112
9 F#2 48.7500 48.8125 0.0625 96
9 C2 49.0000 49.0625 0.0625 96
9 F#2 49.2500 49.3125 0.0625 96
9 C2 49.5000 49.5625 0.0625 96
9 D2 49.5000 49.5625 0.0625 112
9 F#2 49.7500 49.8125 0.0625 96
9 D#2 50.0000 50.0625 0.0625 96
9 C2 50.0000 50.0625 0.0625 96
9 C3 50.2500 50.3125 0.0625 96
9 C3 50.3750 50.4375 0.0625 96
9 D#2 50.5000 50.5625 0.0625 96
9 C2 50.5000 50.5625 0.0625 96
9 C3 50.7500 50.8125 0.0625 96
9 C3 50.8750 50.9375 0.0625 96
9 D#2 51.0000 51.0625 0.0625 96
9 C2 51.0000 51.0625 0.0625 96
9 C3 51.2500 51.3125 0.0625 96
9 C3 51.3750 51.4375 0.0625 96
9 C2 51.5000 51.5625 0.0625 96
9 D2 51.5000 51.5625 0.0625 112
9 D2 51.5000 51.5625 0.0625 96
9 E2 51.5000 51.6250 0.1250 96
9 C2 52.0000 52.0625 0.0625 96
9 C2 52.0000 52.0625 0.0625 96
9 C#3 52.0000 52.1250 0.1250 96
9 A3 52.0000 52.1250 0.1250 96
9 F#2 52.2500 52.3125 0.0625 96
9 C2 52.5000 52.5625 0.0625 96
9 D2 52.5000 52.5625 0.0625 112
9 F#2 52.7500 52.8125 0.0625 96
9 C2 53.0000 53.0625 0.0625 96
9 F#2 53.2500 53.3125 0.0625 96
9 C2 53.5000 53.5625 0.0625 96
9 D2 53.5000 53.5625 0.0625 112
9 F#2 53.7500 53.8125 0.0625 96
9 C2 54.0000 54.0625 0.0625 96
9 F#2 54.2500 54.3125 0.0625 96
9 C2 54.5000 54.5625 0.0625 96
9 D2 54.5000 54.5625 0.0625 112
9 F#2 54.7500 54.8125 0.0625 96
9 C2 55.0000 55.0625 0.0625 96
9 F#2 55.2500 55.3125 0.0625 96
9 D2 55.5000 55.5625 0.0625 112
9 C2 55.5000 55.5625 0.0625 96
9 F#2 55.7500 55.8125 0.0625 96
9 C2 56.0000 56.0625 0.0625 96
9 F#2 56.2500 56.3125 0.0625 96
9 C2 56.5000 56.5625 0.0625 96
9 D2 56.5000 56.5625 0.0625 112
9 F#2 56.7500 56.8125 0.0625 96
9 C2 57.0000 57.0625 0.0625 96
9 F#2 57.2500 57.3125 0.0625 96
9 C2 57.5000 57.5625 0.0625 96
9 D2 57.5000 57.5625 0.0625 112
9 F#2 57.7500 57.8125 0.0625 96
9 C2 58.0000 58.0625 0.0625 96
9 F#2 58.2500 58.3125 0.0625 96
9 C2 58.5000 58.5625 0.0625 96
9 D2 58.5000 58.5625 0.0625 112
9 F#2 58.7500 58.8125 0.0625 96
9 C2 59.0000 59.0625 0.0625 96
9 F#2 59.2500 59.3125 0.0625 96
9 C2 59.5000 59.5625 0.0625 96
9 D2 59.5000 59.5625 0.0625 112
9 F#2 59.7500 59.8125 0.0625 96
9 C2 60.0000 60.0625 0.0625 96
9 F#2 60.2500 60.3125 0.0625 96
9 C2 60.5000 60.5625 0.0625 96
9 D2 60.5000 60.5625 0.0625 112
9 F#2 60.7500 60.8125 0.0625 96
9 C2 61.0000 61.0625 0.0625 96
9 F#2 61.2500 61.3125 0.0625 96
9 C2 61.5000 61.5625 0.0625 96
9 D2 61.5000 61.5625 0.0625 112
9 F#2 61.7500 61.8125 0.0625 96
9 C2 62.0000 62.0625 0.0625 96
9 F#2 62.2500 62.3125 0.0625 96
9 C2 62.5000 62.5625 0.0625 96
9 D2 62.5000 62.5625 0.0625 112
9 F#2 62.7500 62.8125 0.0625 96
9 C2 63.0000 63.0625 0.0625 96
9 F#2 63.2500 63.3125 0.0625 96
9 C2 63.5000 63.5625 0.0625 96
9 D2 63.5000 63.5625 0.0625 112
9 F#2 63.7500 63.8125 0.0625 96
9 C2 64.0000 64.0625 0.0625 96
9 F#2 64.2500 64.3125 0.0625 96
9 C2 64.5000 64.5625 0.0625 96
9 D2 64.5000 64.5625 0.0625 112
9 F#2 64.7500 64.8125 0.0625 96
9 C2 65.0000 65.0625 0.0625 96
9 F#2 65.2500 65.3125 0.0625 96
9 C2 65.5000 65.5625 0.0625 96
9 D2 65.5000 65.5625 0.0625 112
9 F#2 65.7500 65.8125 0.0625 96
9 C2 66.0000 66.0625 0.0625 96
9 F#2 66.2500 66.3125 0.0625 96
9 C2 66.5000 66.5625 0.0625 96
9 D2 66.5000 66.5625 0.0625 112
9 F#2 66.7500 66.8125 0.0625 96
9 C2 67.0000 67.0625 0.0625 96
9 F#2 67.2500 67.3125 0.0625 96
9 C2 67.5000 67.5625 0.0625 96
9 D2 67.5000 67.5625 0.0625 112
9 F#2 67.7500 67.8125 0.0625 96
9 E2 68.0000 68.0625 0.0625 69
9 C2 68.0000 68.0625 0.0625 96
9 E2 68.1250 68.1875 0.0625 71
9 F#2 68.2500 68.3125 0.0625 96
9 E2 68.2500 68.3125 0.0625 73
9 E2 68.3750 68.4375 0.0625 75
9 C2 68.5000 68.5625 0.0625 96
9 E2 68.5000 68.5625 0.0625 77
9 D2 68.5000 68.5625 0.0625 112
9 E2 68.6250 68.6875 0.0625 79
9 E2 68.7500 68.8125 0.0625 81
9 F#2 68.7500 68.8125 0.0625 96
9 E2 68.8750 68.9375 0.0625 83
9 E2 69.0000 69.0625 0.0625 85
9 C2 69.0000 69.0625 0.0625 96
9 E2 69.1250 69.1875 0.0625 87
9 C2 69.2500 69.3125 0.0625 96
9 E2 69.2500 69.3125 0.0625 89
9 F#2 69.2500 69.3125 0.0625 96
9 E2 69.3750 69.4375 0.0625 91
9 D2 69.5000 69.5625 0.0625 112
9 C2 69.5000 69.5625 0.0625 96
9 E2 69.5000 69.5625 0.0625 93
9 C2 70.0000 70.0625 0.0625 96
9 C2 70.0000 70.0625 0.0625 96
9 C#3 70.0000 70.1250 0.1250 96
9 A3 70.0000 70.1250 0.1250 96
9 F#2 70.2500 70.3125 0.0625 96
9 C2 70.5000 70.5625 0.0625 96
9 D2 70.5000 70.5625 0.0625 112
9 F#2 70.7500 70.8125 0.0625 96
9 C2 71.0000 71.0625 0.0625 96
9 F#2 71.2500 71.3125 0.0625 96
9 D2 71.5000 71.5625 0.0625 112
9 C2 71.5000 71.5625 0.0625 96
9 F#2 71.7500 71.8125 0.0625 96
9 C2 72.0000 72.0625 0.0625 96
9 F#2 72.2500 72.3125 0.0625 96
9 C2 72.5000 72.5625 0.0625 96
9 D2 72.5000 72.5625 0.0625 112
9 F#2 72.7500 72.8125 0.0625 96
9 C2 73.0000 73.0625 0.0625 96
9 F#2 73.2500 73.3125 0.0625 96
9 C2 73.5000 73.5625 0.0625 96
9 D2 73.5000 73.5625 0.0625 112
9 F#2 73.7500 73.8125 0.0625 96
9 C2 74.0000 74.0625 0.0625 96
9 F#2 74.2500 74.3125 0.0625 96
9 C2 74.5000 74.5625 0.0625 96
9 D2 74.5000 74.5625 0.0625 112
9 F#2 74.7500 74.8125 0.0625 96
9 C2 75.0000 75.0625 0.0625 96
9 F#2 75.2500 75.3125 0.0625 96
9 C2 75.5000 75.5625 0.0625 96
9 D2 75.5000 75.5625 0.0625 112
9 F#2 75.7500 75.8125 0.0625 96
9 C2 76.0000 76.0625 0.0625 96
9 F#2 76.2500 76.3125 0.0625 96
9 C2 76.5000 76.5625 0.0625 96
9 D2 76.5000 76.5625 0.0625 112
9 F#2 76.7500 76.8125 0.0625 96
9 C2 77.0000 77.0625 0.0625 96
9 F#2 77.2500 77.3125 0.0625 96
9 C2 77.5000 77.5625 0.0625 96
9 D2 77.5000 77.5625 0.0625 112
9 F#2 77.7500 77.8125 0.0625 96
9 C2 78.0000 78.0625 0.0625 96
9 F#2 78.2500 78.3125 0.0625 96
9 C2 78.5000 78.5625 0.0625 96
9 D2 78.5000 78.5625 0.0625 112
9 F#2 78.7500 78.8125 0.0625 96
9 C2 79.0000 79.0625 0.0625 96
9 F#2 79.2500 79.3125 0.0625 96
9 C2 79.5000 79.5625 0.0625 96
9 D2 79.5000 79.5625 0.0625 112
9 F#2 79.7500 79.8125 0.0625 96
9 C2 80.0000 80.0625 0.0625 96
9 F#2 80.2500 80.3125 0.0625 96
9 C2 80.5000 80.5625 0.0625 96
9 D2 80.5000 80.5625 0.0625 112
9 F#2 80.7500 80.8125 0.0625 96
9 C2 81.0000 81.0625 0.0625 96
9 F#2 81.2500 81.3125 0.0625 96
9 C2 81.5000 81.5625 0.0625 96
9 D2 81.5000 81.5625 0.0625 112
9 F#2 81.7500 81.8125 0.0625 96
9 C2 82.0000 82.0625 0.0625 96
9 F#2 82.2500 82.3125 0.0625 96
9 C2 82.5000 82.5625 0.0625 96
9 D2 82.5000 82.5625 0.0625 112
9 F#2 82.7500 82.8125 0.0625 96
9 C2 83.0000 83.0625 0.0625 96
9 F#2 83.2500 83.3125 0.0625 96
9 C2 83.5000 83.5625 0.0625 96
9 D2 83.5000 83.5625 0.0625 112
9 F#2 83.7500 83.8125 0.0625 96
9 C2 84.0000 84.0625 0.0625 96
9 F#2 84.2500 84.3125 0.0625 96
9 C2 84.5000 84.5625 0.0625 96
9 D2 84.5000 84.5625 0.0625 112
9 F#2 84.7500 84.8125 0.0625 96
9 C2 85.0000 85.0625 0.0625 96
9 F#2 85.2500 85.3125 0.0625 96
9 C2 85.5000 85.5625 0.0625 96
9 D2 85.5000 85.5625 0.0625 112
9 F#2 85.7500 85.8125 0.0625 96
9 C2 86.0000 86.0625 0.0625 96
9 C2 86.0000 86.0625 0.0625 96
9 A3 86.0000 86.1250 0.1250 96
9 C#3 86.0000 86.1250 0.1250 96
9 F#2 86.2500 86.3125 0.0625 96
9 C2 86.5000 86.5625 0.0625 96
9 D2 86.5000 86.5625 0.0625 112
9 F#2 86.7500 86.8125 0.0625 96
9 C2 87.0000 87.0625 0.0625 96
9 F#2 87.2500 87.3125 0.0625 96
9 C2 87.5000 87.5625 0.0625 96
9 D2 87.5000 87.5625 0.0625 112
9 F#2 87.7500 87.8125 0.0625 96
9 C2 88.0000 88.0625 0.0625 96
9 F#2 88.2500 88.3125 0.0625 96
9 C2 88.5000 88.5625 0.0625 96
9 D2 88.5000 88.5625 0.0625 112
9 F#2 88.7500 88.8125 0.0625 96
9 C2 89.0000 89.0625 0.0625 96
9 F#2 89.2500 89.3125 0.0625 96
9 C2 89.5000 89.5625 0.0625 96
9 D2 89.5000 89.5625 0.0625 112
9 F#2 89.7500 89.8125 0.0625 96
9 C2 90.0000 90.0625 0.0625 96
9 F#2 90.2500 90.3125 0.0625 96
9 C2 90.5000 90.5625 0.0625 96
9 D2 90.5000 90.5625 0.0625 112
9 F#2 90.7500 90.8125 0.0625 96
9 C2 91.0000 91.0625 0.0625 96
9 F#2 91.2500 91.3125 0.0625 96
9 C2 91.5000 91.5625 0.0625 96
9 D2 91.5000 91.5625 0.0625 112
9 F#2 91.7500 91.8125 0.0625 96
9 C2 92.0000 92.0625 0.0625 96
9 F#2 92.2500 92.3125 0.0625 96
9 C2 92.5000 92.5625 0.0625 96
9 D2 92.5000 92.5625 0.0625 112
9 F#2 92.7500 92.8125 0.0625 96
9 C2 93.0000 93.0625 0.0625 96
9 F#2 93.2500 93.3125 0.0625 96
9 D2 93.5000 93.5625 0.0625 112
9 C2 93.5000 93.5625 0.0625 96
9 F#2 93.7500 93.8125 0.0625 96
9 C2 94.0000 94.0625 0.0625 96
9 F#2 94.2500 94.3125 0.0625 96
9 C2 94.5000 94.5625 0.0625 96
9 D2 94.5000 94.5625 0.0625 112
9 F#2 94.7500 94.8125 0.0625 96
9 C2 95.0000 95.0625 0.0625 96
9 F#2 95.2500 95.3125 0.0625 96
9 C2 95.5000 95.5625 0.0625 96
9 D2 95.5000 95.5625 0.0625 112
9 F#2 95.7500 95.8125 0.0625 96
9 C2 96.0000 96.0625 0.0625 96
9 F#2 96.2500 96.3125 0.0625 96
9 C2 96.5000 96.5625 0.0625 96
9 D2 96.5000 96.5625 0.0625 112
9 F#2 96.7500 96.8125 0.0625 96
9 C2 97.0000 97.0625 0.0625 96
9 F#2 97.2500 97.3125 0.0625 96
9 C2 97.5000 97.5625 0.0625 96
9 D2 97.5000 97.5625 0.0625 112
9 F#2 97.7500 97.8125 0.0625 96
9 C2 98.0000 98.0625 0.0625 96
9 F#2 98.2500 98.3125 0.0625 96
9 C2 98.5000 98.5625 0.0625 96
9 D2 98.5000 98.5625 0.0625 112
9 F#2 98.7500 98.8125 0.0625 96
9 C2 99.0000 99.0625 0.0625 96
9 F#2 99.2500 99.3125 0.0625 96
9 C2 99.5000 99.5625 0.0625 96
9 D2 99.5000 99.5625 0.0625 112
9 F#2 99.7500 99.8125 0.0625 96
9 C2 100.0000 100.0625 0.0625 96
9 F#2 100.2500 100.3125 0.0625 96
9 C2 100.5000 100.5625 0.0625 96
9 D2 100.5000 100.5625 0.0625 112
9 F#2 100.7500 100.8125 0.0625 96
9 C2 101.0000 101.0625 0.0625 96
9 F#2 101.2500 101.3125 0.0625 96
9 C2 101.5000 101.5625 0.0625 96
9 D2 101.5000 101.5625 0.0625 112
9 F#2 101.7500 101.8125 0.0625 96
9 E2 102.0000 102.0625 0.0625 69
9 C2 102.0000 102.0625 0.0625 96
9 E2 102.1250 102.1875 0.0625 71
9 F#2 102.2500 102.3125 0.0625 96
9 E2 102.2500 102.3125 0.0625 73
9 E2 102.3750 102.4375 0.0625 75
9 C2 102.5000 102.5625 0.0625 96
9 E2 102.5000 102.5625 0.0625 77
9 D2 102.5000 102.5625 0.0625 112
9 E2 102.6250 102.6875 0.0625 79
9 F#2 102.7500 102.8125 0.0625 96
9 E2 102.7500 102.8125 0.0625 81
9 E2 102.8750 102.9375 0.0625 83
9 E2 103.0000 103.0625 0.0625 85
9 C2 103.0000 103.0625 0.0625 96
9 E2 103.1250 103.1875 0.0625 87
9 F#2 103.2500 103.3125 0.0625 96
9 E2 103.2500 103.3125 0.0625 89
9 C2 103.2500 103.3125 0.0625 96
9 E2 103.3750 103.4375 0.0625 91
9 D2 103.5000 103.5625 0.0625 112
9 C2 103.5000 103.5625 0.0625 96
9 E2 103.5000 103.5625 0.0625 93
9 C2 104.0000 104.0625 0.0625 96
9 C2 104.0000 104.0625 0.0625 96
9 C#3 104.0000 104.1250 0.1250 96
9 A3 104.0000 104.1250 0.1250 96
9 F#2 104.2500 104.3125 0.0625 96
9 D2 104.5000 104.5625 0.0625 112
9 C2 104.5000 104.5625 0.0625 96
9 F#2 104.7500 104.8125 0.0625 96
9 C2 105.0000 105.0625 0.0625 96
9 F#2 105.2500 105.3125 0.0625 96
9 D2 105.5000 105.5625 0.0625 112
9 C2 105.5000 105.5625 0.0625 96
9 F#2 105.7500 105.8125 0.0625 96
9 C2 106.0000 106.0625 0.0625 96
9 F#2 106.2500 106.3125 0.0625 96
9 C2 106.5000 106.5625 0.0625 96
9 D2 106.5000 106.5625 0.0625 112
9 F#2 106.7500 106.8125 0.0625 96
9 C2 107.0000 107.0625 0.0625 96
9 F#2 107.2500 107.3125 0.0625 96
9 C2 107.5000 107.5625 0.0625 96
9 D2 107.5000 107.5625 0.0625 112
9 F#2 107.7500 107.8125 0.0625 96
9 C2 108.0000 108.0625 0.0625 96
9 F#2 108.2500 108.3125 0.0625 96
9 C2 108.5000 108.5625 0.0625 96
9 D2 108.5000 108.5625 0.0625 112
9 F#2 108.7500 108.8125 0.0625 96
9 C2 109.0000 109.0625 0.0625 96
9 F#2 109.2500 109.3125 0.0625 96
9 C2 109.5000 109.5625 0.0625 96
9 D2 109.5000 109.5625 0.0625 112
9 F#2 109.7500 109.8125 0.0625 96
9 C2 110.0000 110.0625 0.0625 96
9 F#2 110.2500 110.3125 0.0625 96
9 C2 110.5000 110.5625 0.0625 96
9 D2 110.5000 110.5625 0.0625 112
9 F#2 110.7500 110.8125 0.0625 96
9 C2 111.0000 111.0625 0.0625 96
9 F#2 111.2500 111.3125 0.0625 96
9 C2 111.5000 111.5625 0.0625 96
9 D2 111.5000 111.5625 0.0625 112
9 F#2 111.7500 111.8125 0.0625 96
9 C2 112.0000 112.0625 0.0625 96
9 F#2 112.2500 112.3125 0.0625 96
9 C2 112.5000 112.5625 0.0625 96
9 D2 112.5000 112.5625 0.0625 112
9 F#2 112.7500 112.8125 0.0625 96
9 C2 113.0000 113.0625 0.0625 96
9 F#2 113.2500 113.3125 0.0625 96
9 C2 113.5000 113.5625 0.0625 96
9 D2 113.5000 113.5625 0.0625 112
9 F#2 113.7500 113.8125 0.0625 96
9 C2 114.0000 114.0625 0.0625 96
9 F#2 114.2500 114.3125 0.0625 96
9 C2 114.5000 114.5625 0.0625 96
9 D2 114.5000 114.5625 0.0625 112
9 F#2 114.7500 114.8125 0.0625 96
9 C2 115.0000 115.0625 0.0625 96
9 F#2 115.2500 115.3125 0.0625 96
9 C2 115.5000 115.5625 0.0625 96
9 D2 115.5000 115.5625 0.0625 112
9 F#2 115.7500 115.8125 0.0625 96
9 C2 116.0000 116.0625 0.0625 96
9 F#2 116.2500 116.3125 0.0625 96
9 C2 116.5000 116.5625 0.0625 96
9 D2 116.5000 116.5625 0.0625 112
9 F#2 116.7500 116.8125 0.0625 96
9 C2 117.0000 117.0625 0.0625 96
9 F#2 117.2500 117.3125 0.0625 96
9 C2 117.5000 117.5625 0.0625 96
9 D2 117.5000 117.5625 0.0625 112
9 F#2 117.7500 117.8125 0.0625 96
9 C2 118.0000 118.0625 0.0625 96
9 F#2 118.2500 118.3125 0.0625 96
9 C2 118.5000 118.5625 0.0625 96
9 D2 118.5000 118.5625 0.0625 112
9 F#2 118.7500 118.8125 0.0625 96
9 C2 119.0000 119.0625 0.0625 96
9 F#2 119.2500 119.3125 0.0625 96
9 C2 119.5000 119.5625 0.0625 96
9 D2 119.5000 119.5625 0.0625 112
9 F#2 119.7500 119.8125 0.0625 96
9 E2 120.0000 120.0625 0.0625 69
9 C2 120.0000 120.0625 0.0625 96
9 E2 120.1250 120.1875 0.0625 71
9 F#2 120.2500 120.3125 0.0625 96
9 E2 120.2500 120.3125 0.0625 73
9 E2 120.3750 120.4375 0.0625 75
9 C2 120.5000 120.5625 0.0625 96
9 E2 120.5000 120.5625 0.0625 77
9 D2 120.5000 120.5625 0.0625 112
9 E2 120.6250 120.6875 0.0625 79
9 F#2 120.7500 120.8125 0.0625 96
9 E2 120.7500 120.8125 0.0625 81
9 E2 120.8750 120.9375 0.0625 83
9 E2 121.0000 121.0625 0.0625 85
9 C2 121.0000 121.0625 0.0625 96
9 E2 121.1250 121.1875 0.0625 87
9 C2 121.2500 121.3125 0.0625 96
9 E2 121.2500 121.3125 0.0625 89
9 F#2 121.2500 121.3125 0.0625 96
9 E2 121.3750 121.4375 0.0625 91
9 D2 121.5000 121.5625 0.0625 112
9 C2 121.5000 121.5625 0.0625 96
9 E2 121.5000 121.5625 0.0625 93
9 C#3 122.0000 122.1250 0.1250 96
9 A3 122.0000 122.1250 0.1250 96
9 C2 122.0000 122.1250 0.1250 96
10 F4 0.0000 1.5000 1.5000 96
10 F4 16.0000 17.5000 1.5000 96
10 F4 34.0000 35.5000 1.5000 96
10 F4 68.0000 69.5000 1.5000 96
10 F4 84.0000 85.5000 1.5000 96
10 F4 102.0000 103.5000 1.5000 96
10 F4 120.0000 121.5000 1.5000 96
