track pitch start end duration velocity
0 E4 17.2800 17.5190 0.2390 80
0 G4 17.5200 17.7590 0.2390 80
0 G4 17.7600 18.2390 0.4790 80
0 G4 18.2400 18.7190 0.4790 80
0 G4 18.7200 18.9590 0.2390 80
0 E4 18.9600 19.1990 0.2390 80
0 G4 19.2000 19.4390 0.2390 80
0 A4 19.4400 19.6790 0.2390 80
0 A4 19.6800 19.9190 0.2390 80
0 G4 19.9200 20.3990 0.4790 80
0 A4 20.6400 20.8790 0.2390 80
0 B4 20.8800 21.1190 0.2390 80
0 B4 21.1200 21.3590 0.2390 80
0 A4 21.3600 21.5990 0.2390 80
0 A4 21.6000 21.8390 0.2390 80
0 G4 21.8400 22.0790 0.2390 80
0 A4 22.0800 22.3190 0.2390 80
0 B4 22.3200 22.5590 0.2390 80
0 G4 22.5600 22.7990 0.2390 80
0 E4 22.8000 24.9590 2.1590 80
0 G4 24.9600 25.4390 0.4790 80
0 G4 25.4400 25.9190 0.4790 80
0 G4 25.9200 26.3990 0.4790 80
0 G4 26.4000 26.6390 0.2390 80
0 E4 26.6400 26.8790 0.2390 80
0 G4 26.8800 27.1190 0.2390 80
0 A4 27.1200 27.3590 0.2390 80
0 A4 27.3600 27.5990 0.2390 80
0 G4 27.6000 28.0790 0.4790 80
0 A4 28.3200 28.5590 0.2390 80
0 G4 28.5600 28.7990 0.2390 80
0 A4 28.8000 29.2790 0.4790 80
0 A4 29.2800 29.5190 0.2390 80
0 G4 29.5200 29.7590 0.2390 80
0 A4 29.7600 29.9990 0.2390 80
0 B4 30.0000 30.2390 0.2390 80
0 G4 30.2400 30.4790 0.2390 80
0 E4 30.4800 32.6390 2.1590 80
0 G4 32.6400 33.1190 0.4790 80
0 G4 33.1200 33.5990 0.4790 80
0 E4 33.6000 34.0790 0.4790 80
0 E4 34.0800 34.3190 0.2390 80
0 B4 34.3200 34.5590 0.2390 80
0 A4 34.5600 35.0390 0.4790 80
0 A4 35.0400 35.2790 0.2390 80
0 G4 35.2800 35.9990 0.7190 80
0 A4 36.4800 36.9590 0.4790 90
0 A4 36.9600 37.1990 0.2390 90
0 G4 37.2000 37.4390 0.2390 90
0 A4 37.4400 37.6790 0.2390 90
0 A4 37.6800 37.9190 0.2390 90
0 G4 37.9200 38.1590 0.2390 90
0 A4 38.1600 38.2790 0.1190 90
0 B4 38.2800 39.3590 1.0790 80
0 G4 40.3200 40.7990 0.4790 80
0 G4 40.8000 41.2790 0.4790 80
0 E4 41.2800 41.7590 0.4790 80
0 E4 41.7600 41.9990 0.2390 80
0 B4 42.0000 42.2390 0.2390 80
0 A4 42.2400 42.7190 0.4790 80
0 A4 42.7200 42.9590 0.2390 80
0 G4 42.9600 43.6790 0.7190 80
0 A4 44.1600 44.6390 0.4790 80
0 A4 44.6400 44.8790 0.2390 80
0 G4 44.8800 45.1190 0.2390 80
0 A4 45.1200 45.3590 0.2390 80
0 B4 45.3600 45.5990 0.2390 80
0 A4 45.6000 45.8390 0.2390 80
0 G4 45.8400 46.0790 0.2390 80
0 E4 46.0800 46.4000 0.3200 96
0 E4 46.5600 46.8800 0.3200 96
0 E4 47.0400 47.3600 0.3200 96
0 B4 48.0000 48.4790 0.4790 80
0 E4 48.4800 48.9590 0.4790 80
0 E4 48.9600 49.4390 0.4790 80
0 G4 49.4400 49.6790 0.2390 80
0 B4 49.6800 49.9190 0.2390 80
0 B4 49.9200 50.3990 0.4790 80
0 E4 50.4000 50.8790 0.4790 80
0 E4 50.8800 51.3590 0.4790 80
0 B4 51.8400 52.0790 0.2390 80
0 D5 52.0800 52.3190 0.2390 80
0 E5 52.3200 52.5590 0.2390 80
0 G5 52.5600 52.7990 0.2390 80
0 E5 52.8000 53.0390 0.2390 80
0 D5 53.0400 53.2790 0.2390 80
0 A4 53.2800 53.5190 0.2390 80
0 G4 53.5200 53.7590 0.2390 80
0 B4 53.7600 55.6790 1.9190 80
0 A4 55.6800 56.1590 0.4790 80
0 G4 56.1600 56.3990 0.2390 80
0 E4 56.4000 56.6390 0.2390 80
0 A4 56.6400 57.3590 0.7190 80
0 B4 57.3600 57.5990 0.2390 80
0 D5 57.6000 57.8390 0.2390 80
0 E5 57.8400 58.0790 0.2390 80
0 D5 58.0800 58.3190 0.2390 80
0 B4 58.3200 58.5590 0.2390 80
0 D5 58.5600 59.0390 0.4790 80
0 E4 59.5200 59.7590 0.2390 80
0 G4 59.7600 59.9990 0.2390 80
0 A4 60.0000 60.2390 0.2390 80
0 B4 60.2400 60.4790 0.2390 80
0 A4 60.4800 60.7190 0.2390 80
0 G4 60.7200 60.9590 0.2390 80
0 D4 60.9600 61.4390 0.4790 80
0 E4 61.4400 62.3990 0.9590 80
0 B4 63.3600 63.8390 0.4790 80
0 E4 63.8400 64.3190 0.4790 80
0 E4 64.3200 64.7990 0.4790 80
0 G4 64.8000 65.0390 0.2390 80
0 B4 65.0400 65.2790 0.2390 80
0 B4 65.2800 65.7590 0.4790 80
0 E4 65.7600 66.2390 0.4790 80
0 E4 66.2400 66.7190 0.4790 80
0 B4 67.2000 67.4390 0.2390 80
0 D5 67.4400 67.6790 0.2390 80
0 E5 67.6800 67.9190 0.2390 80
0 G5 67.9200 68.1590 0.2390 80
0 E5 68.1600 68.3990 0.2390 80
0 D5 68.4000 68.6390 0.2390 80
0 A4 68.6400 68.8790 0.2390 80
0 G4 68.8800 69.1190 0.2390 80
0 B4 69.1200 71.0390 1.9190 80
0 A4 71.0400 71.5190 0.4790 80
0 G4 71.5200 71.7590 0.2390 80
0 E4 71.7600 71.9990 0.2390 80
0 A4 72.0000 72.7190 0.7190 80
0 B4 72.7200 72.9590 0.2390 80
0 D5 72.9600 73.1990 0.2390 80
0 E5 73.2000 73.4390 0.2390 80
0 D5 73.4400 73.6790 0.2390 80
0 B4 73.6800 73.9190 0.2390 80
0 D5 73.9200 74.3990 0.4790 80
0 E4 74.8800 75.1190 0.2390 80
0 G4 75.1200 75.3590 0.2390 80
0 A4 75.3600 75.5990 0.2390 80
0 B4 75.6000 75.8390 0.2390 80
0 A4 75.8400 76.0790 0.2390 80
0 G4 76.0800 76.3190 0.2390 80
0 D4 76.3200 76.7990 0.4790 80
0 E4 76.8000 77.7590 0.9590 80
0 E4 78.7200 78.9590 0.2390 80
0 G4 78.9600 79.1990 0.2390 80
0 G4 79.2000 79.6790 0.4790 80
0 G4 79.6800 80.1590 0.4790 80
0 G4 80.1600 80.3990 0.2390 80
0 E4 80.4000 80.6390 0.2390 80
0 G4 80.6400 80.8790 0.2390 80
0 A4 80.8800 81.1190 0.2390 80
0 A4 81.1200 81.3590 0.2390 80
0 G4 81.3600 81.8390 0.4790 80
0 A4 82.0800 82.3190 0.2390 80
0 B4 82.3200 82.5590 0.2390 80
0 B4 82.5600 82.7990 0.2390 80
0 A4 82.8000 83.0390 0.2390 80
0 A4 83.0400 83.2790 0.2390 80
0 G4 83.2800 83.5190 0.2390 80
0 A4 83.5200 83.7590 0.2390 80
0 B4 83.7600 83.9990 0.2390 80
0 G4 84.0000 84.2390 0.2390 80
0 E4 84.2400 86.3990 2.1590 80
0 G4 86.4000 86.8790 0.4790 80
0 G4 86.8800 87.3590 0.4790 80
0 G4 87.3600 87.8390 0.4790 80
0 G4 87.8400 88.0790 0.2390 80
0 E4 88.0800 88.3190 0.2390 80
0 G4 88.3200 88.5590 0.2390 80
0 A4 88.5600 88.7990 0.2390 80
0 A4 88.8000 89.0390 0.2390 80
0 G4 89.0400 89.5190 0.4790 80
0 A4 89.7600 89.9990 0.2390 80
0 G4 90.0000 90.2390 0.2390 80
0 A4 90.2400 90.7190 0.4790 80
0 A4 90.7200 90.9590 0.2390 80
0 G4 90.9600 91.1990 0.2390 80
0 A4 91.2000 91.4390 0.2390 80
0 B4 91.4400 91.6790 0.2390 80
0 G4 91.6800 91.9190 0.2390 80
0 E4 91.9200 94.0790 2.1590 80
0 G4 94.0800 94.5590 0.4790 80
0 G4 94.5600 95.0390 0.4790 80
0 E4 95.0400 95.5190 0.4790 80
0 E4 95.5200 95.7590 0.2390 80
0 B4 95.7600 95.9990 0.2390 80
0 A4 96.0000 96.4790 0.4790 80
0 A4 96.4800 96.7190 0.2390 80
0 G4 96.7200 97.4390 0.7190 80
0 A4 97.9200 98.3990 0.4790 90
0 A4 98.4000 98.6390 0.2390 90
0 G4 98.6400 98.8790 0.2390 90
0 A4 98.8800 99.1190 0.2390 90
0 A4 99.1200 99.3590 0.2390 90
0 G4 99.3600 99.5990 0.2390 90
0 A4 99.6000 99.7190 0.1190 90
0 B4 99.7200 100.7990 1.0790 80
0 G4 101.7600 102.2390 0.4790 80
0 G4 102.2400 102.7190 0.4790 80
0 E4 102.7200 103.1990 0.4790 80
0 E4 103.2000 103.4390 0.2390 80
0 B4 103.4400 103.6790 0.2390 80
0 A4 103.6800 104.1590 0.4790 80
0 A4 104.1600 104.3990 0.2390 80
0 G4 104.4000 105.1190 0.7190 80
0 A4 105.6000 106.0790 0.4790 80
0 A4 106.0800 106.3190 0.2390 80
0 G4 106.3200 106.5590 0.2390 80
0 A4 106.5600 106.7990 0.2390 80
0 B4 106.8000 107.0390 0.2390 80
0 A4 107.0400 107.2790 0.2390 80
0 G4 107.2800 107.5190 0.2390 80
0 E4 107.5200 107.8400 0.3200 96
0 E4 108.0000 108.3200 0.3200 96
0 E4 108.4800 108.8000 0.3200 96
0 B4 109.4400 109.9190 0.4790 80
0 E4 109.9200 110.3990 0.4790 80
0 E4 110.4000 110.8790 0.4790 80
0 G4 110.8800 111.1190 0.2390 80
0 B4 111.1200 111.3590 0.2390 80
0 B4 111.3600 111.8390 0.4790 80
0 E4 111.8400 112.3190 0.4790 80
0 E4 112.3200 112.7990 0.4790 80
0 B4 113.2800 113.5190 0.2390 80
0 D5 113.5200 113.7590 0.2390 80
0 E5 113.7600 113.9990 0.2390 80
0 G5 114.0000 114.2390 0.2390 80
0 E5 114.2400 114.4790 0.2390 80
0 D5 114.4800 114.7190 0.2390 80
0 A4 114.7200 114.9590 0.2390 80
0 G4 114.9600 115.1990 0.2390 80
0 B4 115.2000 117.1190 1.9190 80
0 A4 117.1200 117.5990 0.4790 80
0 G4 117.6000 117.8390 0.2390 80
0 E4 117.8400 118.0790 0.2390 80
0 A4 118.0800 118.7990 0.7190 80
0 B4 118.8000 119.0390 0.2390 80
0 D5 119.0400 119.2790 0.2390 80
0 E5 119.2800 119.5190 0.2390 80
0 D5 119.5200 119.7590 0.2390 80
0 B4 119.7600 119.9990 0.2390 80
0 D5 120.0000 120.4790 0.4790 80
0 E4 120.9600 121.1990 0.2390 80
0 G4 121.2000 121.4390 0.2390 80
0 A4 121.4400 121.6790 0.2390 80
0 B4 121.6800 121.9190 0.2390 80
0 A4 121.9200 122.1590 0.2390 80
0 G4 122.1600 122.3990 0.2390 80
0 D4 122.4000 122.8790 0.4790 80
0 E4 122.8800 123.8390 0.9590 80
0 B4 124.8000 125.2790 0.4790 80
0 E4 125.2800 125.7590 0.4790 80
0 E4 125.7600 126.2390 0.4790 80
0 G4 126.2400 126.4790 0.2390 80
0 B4 126.4800 126.7190 0.2390 80
0 B4 126.7200 127.1990 0.4790 80
0 E4 127.2000 127.6790 0.4790 80
0 E4 127.6800 128.1590 0.4790 80
0 B4 128.6400 128.8790 0.2390 80
0 D5 128.8800 129.1190 0.2390 80
0 E5 129.1200 129.3590 0.2390 80
0 G5 129.3600 129.5990 0.2390 80
0 E5 129.6000 129.8390 0.2390 80
0 D5 129.8400 130.0790 0.2390 80
0 A4 130.0800 130.3190 0.2390 80
0 G4 130.3200 130.5590 0.2390 80
0 B4 130.5600 132.4790 1.9190 80
0 A4 132.4800 132.9590 0.4790 80
0 G4 132.9600 133.1990 0.2390 80
0 E4 133.2000 133.4390 0.2390 80
0 A4 133.4400 134.1590 0.7190 80
0 B4 134.1600 134.3990 0.2390 80
0 D5 134.4000 134.6390 0.2390 80
0 E5 134.6400 134.8790 0.2390 80
0 D5 134.8800 135.1190 0.2390 80
0 B4 135.1200 135.3590 0.2390 80
0 D5 135.3600 135.8390 0.4790 80
0 E4 136.3200 136.5590 0.2390 80
0 G4 136.5600 136.7990 0.2390 80
0 A4 136.8000 137.0390 0.2390 80
0 B4 137.0400 137.2790 0.2390 80
0 A4 137.2800 137.5190 0.2390 80
0 G4 137.5200 137.7590 0.2390 80
0 D4 137.7600 138.2390 0.4790 80
0 E4 138.2400 139.1990 0.9590 80
0 B4 155.5200 155.9990 0.4790 80
0 E4 156.0000 156.4790 0.4790 80
0 E4 156.4800 156.9590 0.4790 80
0 G4 156.9600 157.1990 0.2390 80
0 B4 157.2000 157.4390 0.2390 80
0 B4 157.4400 157.9190 0.4790 80
0 E4 157.9200 158.3990 0.4790 80
0 E4 158.4000 158.8790 0.4790 80
0 B4 159.3600 159.5990 0.2390 80
0 D5 159.6000 159.8390 0.2390 80
0 E5 159.8400 160.0790 0.2390 80
0 G5 160.0800 160.3190 0.2390 80
0 E5 160.3200 160.5590 0.2390 80
0 D5 160.5600 160.7990 0.2390 80
0 A4 160.8000 161.0390 0.2390 80
0 G4 161.0400 161.2790 0.2390 80
0 B4 161.2800 163.1990 1.9190 80
0 A4 163.2000 163.6790 0.4790 80
0 G4 163.6800 163.9190 0.2390 80
0 E4 163.9200 164.1590 0.2390 80
0 A4 164.1600 164.8790 0.7190 80
0 B4 164.8800 165.1190 0.2390 80
0 D5 165.1200 165.3590 0.2390 80
0 E5 165.3600 165.5990 0.2390 80
0 D5 165.6000 165.8390 0.2390 80
0 B4 165.8400 166.0790 0.2390 80
0 D5 166.0800 166.5590 0.4790 80
0 E4 167.0400 167.2790 0.2390 80
0 G4 167.2800 167.5190 0.2390 80
0 A4 167.5200 167.7590 0.2390 80
0 B4 167.7600 167.9990 0.2390 80
0 A4 168.0000 168.2390 0.2390 80
0 G4 168.2400 168.4790 0.2390 80
0 D4 168.4800 168.9590 0.4790 80
0 E4 168.9600 169.9190 0.9590 80
0 B4 170.8800 171.3590 0.4790 80
0 E4 171.3600 171.8390 0.4790 80
0 E4 171.8400 172.3190 0.4790 80
0 G4 172.3200 172.5590 0.2390 80
0 B4 172.5600 172.7990 0.2390 80
0 B4 172.8000 173.2790 0.4790 80
0 E4 173.2800 173.7590 0.4790 80
0 E4 173.7600 174.2390 0.4790 80
0 B4 174.7200 174.9590 0.2390 80
0 D5 174.9600 175.1990 0.2390 80
0 E5 175.2000 175.4390 0.2390 80
0 G5 175.4400 175.6790 0.2390 80
0 E5 175.6800 175.9190 0.2390 80
0 D5 175.9200 176.1590 0.2390 80
0 A4 176.1600 176.3990 0.2390 80
0 G4 176.4000 176.6390 0.2390 80
0 B4 176.6400 178.5590 1.9190 80
0 A4 178.5600 179.0390 0.4790 80
0 G4 179.0400 179.2790 0.2390 80
0 E4 179.2800 179.5190 0.2390 80
0 A4 179.5200 180.2390 0.7190 80
0 B4 180.2400 180.4790 0.2390 80
0 D5 180.4800 180.7190 0.2390 80
0 E5 180.7200 180.9590 0.2390 80
0 D5 180.9600 181.1990 0.2390 80
0 B4 181.2000 181.4390 0.2390 80
0 D5 181.4400 181.9190 0.4790 80
0 E4 182.4000 182.6390 0.2390 80
0 G4 182.6400 182.8790 0.2390 80
0 A4 182.8800 183.1190 0.2390 80
0 B4 183.1200 183.3590 0.2390 80
0 A4 183.3600 183.5990 0.2390 80
0 G4 183.6000 183.8390 0.2390 80
0 D4 183.8400 184.3190 0.4790 80
0 E4 184.3200 185.2790 0.9590 80
0 B4 186.2400 186.7190 0.4790 80
0 E4 186.7200 187.1990 0.4790 80
0 E4 187.2000 187.6790 0.4790 80
0 G4 187.6800 187.9190 0.2390 80
0 B4 187.9200 188.1590 0.2390 80
0 B4 188.1600 188.6390 0.4790 80
0 E4 188.6400 189.1190 0.4790 80
0 E4 189.1200 189.5990 0.4790 80
0 B4 190.0800 190.3190 0.2390 80
0 D5 190.3200 190.5590 0.2390 80
0 E5 190.5600 190.7990 0.2390 80
0 G5 190.8000 191.0390 0.2390 80
0 E5 191.0400 191.2790 0.2390 80
0 D5 191.2800 191.5190 0.2390 80
0 A4 191.5200 191.7590 0.2390 80
0 G4 191.7600 191.9990 0.2390 80
0 B4 192.0000 193.9190 1.9190 80
0 A4 193.9200 194.3990 0.4790 80
0 G4 194.4000 194.6390 0.2390 80
0 E4 194.6400 194.8790 0.2390 80
0 A4 194.8800 195.5990 0.7190 80
0 B4 195.6000 195.8390 0.2390 80
0 D5 195.8400 196.0790 0.2390 80
0 E5 196.0800 196.3190 0.2390 80
0 D5 196.3200 196.5590 0.2390 80
0 B4 196.5600 196.7990 0.2390 80
0 D5 196.8000 197.2790 0.4790 80
0 E4 197.7600 197.9990 0.2390 80
0 G4 198.0000 198.2390 0.2390 80
0 A4 198.2400 198.4790 0.2390 80
0 B4 198.4800 198.7190 0.2390 80
0 A4 198.7200 198.9590 0.2390 80
0 G4 198.9600 199.1990 0.2390 80
0 D4 199.2000 199.6790 0.4790 80
0 E4 199.6800 200.6390 0.9590 80
0 B4 201.6000 202.0790 0.4790 80
0 E4 202.0800 202.5590 0.4790 80
0 E4 202.5600 203.0390 0.4790 80
0 G4 203.0400 203.2790 0.2390 80
0 B4 203.2800 203.5190 0.2390 80
0 B4 203.5200 203.9990 0.4790 80
0 E4 204.0000 204.4790 0.4790 80
0 E4 204.4800 204.9590 0.4790 80
0 B4 205.4400 205.6790 0.2390 80
0 D5 205.6800 205.9190 0.2390 80
0 E5 205.9200 206.1590 0.2390 80
0 G5 206.1600 206.3990 0.2390 80
0 E5 206.4000 206.6390 0.2390 80
0 D5 206.6400 206.8790 0.2390 80
0 A4 206.8800 207.1190 0.2390 80
0 G4 207.1200 207.3590 0.2390 80
0 B4 207.3600 209.2790 1.9190 80
0 A4 209.2800 209.7590 0.4790 80
0 G4 209.7600 209.9990 0.2390 80
0 E4 210.0000 210.2390 0.2390 80
0 A4 210.2400 210.9590 0.7190 80
0 B4 210.9600 211.1990 0.2390 80
0 D5 211.2000 211.4390 0.2390 80
0 E5 211.4400 211.6790 0.2390 80
0 D5 211.6800 211.9190 0.2390 80
0 B4 211.9200 212.1590 0.2390 80
0 D5 212.1600 212.6390 0.4790 80
0 E4 213.1200 213.3590 0.2390 80
0 G4 213.3600 213.5990 0.2390 80
0 A4 213.6000 213.8390 0.2390 80
0 B4 213.8400 214.0790 0.2390 80
0 A4 214.0800 214.3190 0.2390 80
0 G4 214.3200 214.5590 0.2390 80
0 D4 214.5600 215.0390 0.4790 80
0 E4 215.0400 215.9990 0.9590 80
1 G4 78.7200 78.9590 0.2390 80
1 B4 78.9600 79.1990 0.2390 80
1 B4 79.2000 79.4390 0.2390 80
1 B4 79.6800 79.9190 0.2390 80
1 B4 80.1600 80.3990 0.2390 80
1 G4 80.4000 80.6390 0.2390 80
1 C5 80.6400 80.8790 0.2390 80
1 D5 80.8800 81.1190 0.2390 80
1 D5 81.1200 81.3590 0.2390 80
1 C5 81.3600 81.5990 0.2390 80
1 D5 82.0800 82.3190 0.2390 80
1 E5 82.3200 82.5590 0.2390 80
1 E5 82.5600 82.7990 0.2390 80
1 D5 82.8000 83.0390 0.2390 80
1 D5 83.0400 83.2790 0.2390 80
1 C5 83.2800 83.5190 0.2390 80
1 D5 83.5200 83.7590 0.2390 80
1 E5 83.7600 83.9990 0.2390 80
1 C5 84.0000 84.2390 0.2390 80
1 B4 84.2400 84.7190 0.4790 80
1 B4 86.4000 86.6390 0.2390 80
1 B4 86.8800 87.1190 0.2390 80
1 B4 87.3600 87.5990 0.2390 80
1 B4 87.8400 88.0790 0.2390 80
1 G4 88.0800 88.3190 0.2390 80
1 C5 88.3200 88.5590 0.2390 80
1 D5 88.5600 88.7990 0.2390 80
1 D5 88.8000 89.0390 0.2390 80
1 C5 89.0400 89.2790 0.2390 80
1 D5 89.7600 89.9990 0.2390 80
1 C5 90.0000 90.2390 0.2390 80
1 D5 90.2400 90.7190 0.4790 80
1 D5 90.7200 90.9590 0.2390 80
1 C5 90.9600 91.1990 0.2390 80
1 D5 91.2000 91.4390 0.2390 80
1 E5 91.4400 91.6790 0.2390 80
1 C5 91.6800 91.9190 0.2390 80
1 B4 91.9200 92.3990 0.4790 80
1 G4 94.0800 94.5590 0.4790 80
1 G4 94.5600 95.0390 0.4790 80
1 E4 95.0400 95.5190 0.4790 80
1 E4 95.5200 95.7590 0.2390 80
1 B4 95.7600 95.9990 0.2390 80
1 A4 96.0000 96.4790 0.4790 80
1 A4 96.4800 96.7190 0.2390 80
1 G4 96.7200 97.4390 0.7190 80
1 A4 97.9200 98.3990 0.4790 90
1 A4 98.4000 98.6390 0.2390 90
1 G4 98.6400 98.8790 0.2390 90
1 A4 98.8800 99.1190 0.2390 90
1 A4 99.1200 99.3590 0.2390 90
1 G4 99.3600 99.5990 0.2390 90
1 A4 99.6000 99.7190 0.1190 90
1 B4 99.7200 100.7990 1.0790 80
1 B4 101.7600 102.2390 0.4790 80
1 B4 102.2400 102.7190 0.4790 80
1 G4 102.7200 103.1990 0.4790 80
1 G4 103.2000 103.4390 0.2390 80
1 D5 103.4400 103.6790 0.2390 80
1 D5 103.6800 104.1590 0.4790 80
1 D5 104.1600 104.3990 0.2390 80
1 C5 104.4000 105.1190 0.7190 80
1 D5 105.6000 106.0790 0.4790 80
1 D5 106.0800 106.3190 0.2390 80
1 C5 106.3200 106.5590 0.2390 80
1 D5 106.5600 106.7990 0.2390 80
1 E5 106.8000 107.0390 0.2390 80
1 D5 107.0400 107.2790 0.2390 80
1 C5 107.2800 107.5190 0.2390 80
1 B4 107.5200 107.8400 0.3200 96
1 B4 108.0000 108.3200 0.3200 96
1 B4 108.4800 108.8000 0.3200 96
1 G5 112.8000 113.2790 0.4790 80
1 B4 115.6800 115.9190 0.2390 80
1 B4 115.9200 116.1590 0.2390 80
1 A4 116.1600 118.0790 1.9190 80
1 G5 128.1600 128.6390 0.4790 80
1 B4 131.0400 131.2790 0.2390 80
1 D5 131.2800 131.5190 0.2390 80
1 D5 131.5200 131.9990 0.4790 80
1 B4 132.0000 132.9590 0.9590 80
1 G5 139.9200 140.0390 0.1190 80
1 E5 140.0400 140.5190 0.4790 80
1 G5 158.8800 159.3590 0.4790 80
1 B4 161.7600 161.9990 0.2390 80
1 B4 162.0000 162.2390 0.2390 80
1 A4 162.2400 164.1590 1.9190 80
1 G5 174.2400 174.7190 0.4790 80
1 B4 177.1200 177.3590 0.2390 80
1 D5 177.3600 177.5990 0.2390 80
1 D5 177.6000 178.0790 0.4790 80
1 B4 178.0800 179.0390 0.9590 80
1 B4 186.2400 186.7190 0.4790 80
1 E4 186.7200 187.1990 0.4790 80
1 E4 187.2000 187.6790 0.4790 80
1 G4 187.6800 187.9190 0.2390 80
1 B4 187.9200 188.1590 0.2390 80
1 B4 188.1600 188.6390 0.4790 80
1 E4 188.6400 189.1190 0.4790 80
1 E4 189.1200 189.5990 0.4790 80
1 B4 190.0800 190.3190 0.2390 80
1 D5 190.3200 190.5590 0.2390 80
1 E5 190.5600 190.7990 0.2390 80
1 G5 190.8000 191.0390 0.2390 80
1 E5 191.0400 191.2790 0.2390 80
1 D5 191.2800 191.5190 0.2390 80
1 A4 191.5200 191.7590 0.2390 80
1 G4 191.7600 191.9990 0.2390 80
1 B4 192.0000 193.9190 1.9190 80
1 A4 193.9200 194.3990 0.4790 80
1 G4 194.4000 194.6390 0.2390 80
1 E4 194.6400 194.8790 0.2390 80
1 A4 194.8800 195.5990 0.7190 80
1 B4 195.6000 195.8390 0.2390 80
1 D5 195.8400 196.0790 0.2390 80
1 E5 196.0800 196.3190 0.2390 80
1 D5 196.3200 196.5590 0.2390 80
1 B4 196.5600 196.7990 0.2390 80
1 D5 196.8000 197.2790 0.4790 80
1 E4 197.7600 197.9990 0.2390 80
1 G4 198.0000 198.2390 0.2390 80
1 A4 198.2400 198.4790 0.2390 80
1 B4 198.4800 198.7190 0.2390 80
1 A4 198.7200 198.9590 0.2390 80
1 G4 198.9600 199.1990 0.2390 80
1 D4 199.2000 199.6790 0.4790 80
1 E4 199.6800 200.6390 0.9590 80
1 B4 201.6000 202.0790 0.4790 80
1 E4 202.0800 202.5590 0.4790 80
1 E4 202.5600 203.0390 0.4790 80
1 G4 203.0400 203.2790 0.2390 80
1 B4 203.2800 203.5190 0.2390 80
1 B4 203.5200 203.9990 0.4790 80
1 E4 204.0000 204.4790 0.4790 80
1 E4 204.4800 204.9590 0.4790 80
1 B4 205.4400 205.6790 0.2390 80
1 D5 205.6800 205.9190 0.2390 80
1 E5 205.9200 206.1590 0.2390 80
1 G5 206.1600 206.3990 0.2390 80
1 E5 206.4000 206.6390 0.2390 80
1 D5 206.6400 206.8790 0.2390 80
1 A4 206.8800 207.1190 0.2390 80
1 G4 207.1200 207.3590 0.2390 80
1 B4 207.3600 209.2790 1.9190 80
1 A4 209.2800 209.7590 0.4790 80
1 G4 209.7600 209.9990 0.2390 80
1 E4 210.0000 210.2390 0.2390 80
1 A4 210.2400 210.9590 0.7190 80
1 B4 210.9600 211.1990 0.2390 80
1 D5 211.2000 211.4390 0.2390 80
1 E5 211.4400 211.6790 0.2390 80
1 D5 211.6800 211.9190 0.2390 80
1 B4 211.9200 212.1590 0.2390 80
1 D5 212.1600 212.6390 0.4790 80
1 E4 213.1200 213.3590 0.2390 80
1 G4 213.3600 213.5990 0.2390 80
1 A4 213.6000 213.8390 0.2390 80
1 B4 213.8400 214.0790 0.2390 80
1 A4 214.0800 214.3190 0.2390 80
1 G4 214.3200 214.5590 0.2390 80
1 D4 214.5600 215.0390 0.4790 80
1 E4 215.0400 215.9990 0.9590 80
2 E4 48.0000 51.8390 3.8390 81
2 G4 48.0000 51.8390 3.8390 51
2 B4 48.0000 51.8390 3.8390 51
2 C4 51.8400 52.7990 0.9590 81
2 E4 51.8400 52.7990 0.9590 51
2 G4 51.8400 52.7990 0.9590 51
2 D4 52.8000 53.7590 0.9590 81
2 F#4 52.8000 53.7590 0.9590 51
2 A4 52.8000 53.7590 0.9590 51
2 E4 53.7600 55.6790 1.9190 51
2 G4 53.7600 55.6790 1.9190 81
2 B4 53.7600 55.6790 1.9190 51
2 E4 55.6800 57.5990 1.9190 51
2 A4 55.6800 57.5990 1.9190 81
2 C5 55.6800 57.5990 1.9190 51
2 F#4 57.6000 59.5190 1.9190 51
2 B4 57.6000 59.5190 1.9190 81
2 D5 57.6000 59.5190 1.9190 51
2 G4 59.5200 60.4790 0.9590 51
2 B4 59.5200 60.4790 0.9590 81
2 E5 59.5200 60.4790 0.9590 51
2 A4 60.4800 61.4390 0.9590 51
2 D5 60.4800 61.4390 0.9590 81
2 F#5 60.4800 61.4390 0.9590 51
2 E4 61.4400 63.3590 1.9190 81
2 G4 61.4400 63.3590 1.9190 51
2 B4 61.4400 63.3590 1.9190 51
2 E4 63.3600 67.1990 3.8390 81
2 G4 63.3600 67.1990 3.8390 51
2 B4 63.3600 67.1990 3.8390 51
2 C4 67.2000 68.1590 0.9590 81
2 E4 67.2000 68.1590 0.9590 51
2 G4 67.2000 68.1590 0.9590 51
2 D4 68.1600 69.1190 0.9590 81
2 F#4 68.1600 69.1190 0.9590 51
2 A4 68.1600 69.1190 0.9590 51
2 E4 69.1200 71.0390 1.9190 51
2 G4 69.1200 71.0390 1.9190 81
2 B4 69.1200 71.0390 1.9190 51
2 E4 71.0400 72.9590 1.9190 51
2 A4 71.0400 72.9590 1.9190 81
2 C5 71.0400 72.9590 1.9190 51
2 F#4 72.9600 74.8790 1.9190 51
2 B4 72.9600 74.8790 1.9190 81
2 D5 72.9600 74.8790 1.9190 51
2 G4 74.8800 75.8390 0.9590 51
2 B4 74.8800 75.8390 0.9590 81
2 E5 74.8800 75.8390 0.9590 51
2 A4 75.8400 76.7990 0.9590 51
2 D5 75.8400 76.7990 0.9590 81
2 F#5 75.8400 76.7990 0.9590 51
2 E4 76.8000 78.7190 1.9190 81
2 G4 76.8000 78.7190 1.9190 51
2 B4 76.8000 78.7190 1.9190 51
2 E4 109.4400 113.2790 3.8390 81
2 G4 109.4400 113.2790 3.8390 51
2 B4 109.4400 113.2790 3.8390 51
2 C4 113.2800 114.2390 0.9590 81
2 E4 113.2800 114.2390 0.9590 51
2 G4 113.2800 114.2390 0.9590 51
2 D4 114.2400 115.1990 0.9590 81
2 F#4 114.2400 115.1990 0.9590 51
2 A4 114.2400 115.1990 0.9590 51
2 E4 115.2000 117.1190 1.9190 51
2 G4 115.2000 117.1190 1.9190 81
2 B4 115.2000 117.1190 1.9190 51
2 E4 117.1200 119.0390 1.9190 51
2 A4 117.1200 119.0390 1.9190 81
2 C5 117.1200 119.0390 1.9190 51
2 F#4 119.0400 120.9590 1.9190 51
2 B4 119.0400 120.9590 1.9190 81
2 D5 119.0400 120.9590 1.9190 51
2 G4 120.9600 121.9190 0.9590 51
2 B4 120.9600 121.9190 0.9590 81
2 E5 120.9600 121.9190 0.9590 51
2 A4 121.9200 122.8790 0.9590 51
2 D5 121.9200 122.8790 0.9590 81
2 F#5 121.9200 122.8790 0.9590 51
2 E4 122.8800 124.7990 1.9190 81
2 G4 122.8800 124.7990 1.9190 51
2 B4 122.8800 124.7990 1.9190 51
2 E4 124.8000 128.6390 3.8390 81
2 G4 124.8000 128.6390 3.8390 51
2 B4 124.8000 128.6390 3.8390 51
2 C4 128.6400 129.5990 0.9590 81
2 E4 128.6400 129.5990 0.9590 51
2 G4 128.6400 129.5990 0.9590 51
2 D4 129.6000 130.5590 0.9590 81
2 F#4 129.6000 130.5590 0.9590 51
2 A4 129.6000 130.5590 0.9590 51
2 E4 130.5600 132.4790 1.9190 51
2 G4 130.5600 132.4790 1.9190 81
2 B4 130.5600 132.4790 1.9190 51
2 E4 132.4800 134.3990 1.9190 51
2 A4 132.4800 134.3990 1.9190 81
2 C5 132.4800 134.3990 1.9190 51
2 F#4 134.4000 136.3190 1.9190 51
2 B4 134.4000 136.3190 1.9190 81
2 D5 134.4000 136.3190 1.9190 51
2 G4 136.3200 137.2790 0.9590 51
2 B4 136.3200 137.2790 0.9590 81
2 E5 136.3200 137.2790 0.9590 51
2 A4 137.2800 138.2390 0.9590 51
2 D5 137.2800 138.2390 0.9590 81
2 F#5 137.2800 138.2390 0.9590 51
2 E4 138.2400 140.1590 1.9190 81
2 G4 138.2400 140.1590 1.9190 51
2 B4 138.2400 140.1590 1.9190 51
2 E4 155.5200 159.3590 3.8390 81
2 G4 155.5200 159.3590 3.8390 51
2 B4 155.5200 159.3590 3.8390 51
2 C4 159.3600 160.3190 0.9590 81
2 E4 159.3600 160.3190 0.9590 51
2 G4 159.3600 160.3190 0.9590 51
2 D4 160.3200 161.2790 0.9590 81
2 F#4 160.3200 161.2790 0.9590 51
2 A4 160.3200 161.2790 0.9590 51
2 E4 161.2800 163.1990 1.9190 51
2 G4 161.2800 163.1990 1.9190 81
2 B4 161.2800 163.1990 1.9190 51
2 E4 163.2000 165.1190 1.9190 51
2 A4 163.2000 165.1190 1.9190 81
2 C5 163.2000 165.1190 1.9190 51
2 F#4 165.1200 167.0390 1.9190 51
2 B4 165.1200 167.0390 1.9190 81
2 D5 165.1200 167.0390 1.9190 51
2 G4 167.0400 167.9990 0.9590 51
2 B4 167.0400 167.9990 0.9590 81
2 E5 167.0400 167.9990 0.9590 51
2 A4 168.0000 168.9590 0.9590 51
2 D5 168.0000 168.9590 0.9590 81
2 F#5 168.0000 168.9590 0.9590 51
2 E4 168.9600 170.8790 1.9190 81
2 G4 168.9600 170.8790 1.9190 51
2 B4 168.9600 170.8790 1.9190 51
2 E4 170.8800 174.7190 3.8390 81
2 G4 170.8800 174.7190 3.8390 51
2 B4 170.8800 174.7190 3.8390 51
2 C4 174.7200 175.6790 0.9590 81
2 E4 174.7200 175.6790 0.9590 51
2 G4 174.7200 175.6790 0.9590 51
2 D4 175.6800 176.6390 0.9590 81
2 F#4 175.6800 176.6390 0.9590 51
2 A4 175.6800 176.6390 0.9590 51
2 E4 176.6400 178.5590 1.9190 51
2 G4 176.6400 178.5590 1.9190 81
2 B4 176.6400 178.5590 1.9190 51
2 E4 178.5600 180.4790 1.9190 51
2 A4 178.5600 180.4790 1.9190 81
2 C5 178.5600 180.4790 1.9190 51
2 F#4 180.4800 182.3990 1.9190 51
2 B4 180.4800 182.3990 1.9190 81
2 D5 180.4800 182.3990 1.9190 51
2 G4 182.4000 183.3590 0.9590 51
2 B4 182.4000 183.3590 0.9590 81
2 E5 182.4000 183.3590 0.9590 51
2 A4 183.3600 184.3190 0.9590 51
2 D5 183.3600 184.3190 0.9590 81
2 F#5 183.3600 184.3190 0.9590 51
2 E4 184.3200 186.2390 1.9190 81
2 G4 184.3200 186.2390 1.9190 51
2 B4 184.3200 186.2390 1.9190 51
2 E4 186.2400 190.0790 3.8390 81
2 G4 186.2400 190.0790 3.8390 51
2 B4 186.2400 190.0790 3.8390 51
2 C4 190.0800 191.0390 0.9590 81
2 E4 190.0800 191.0390 0.9590 51
2 G4 190.0800 191.0390 0.9590 51
2 D4 191.0400 191.9990 0.9590 81
2 F#4 191.0400 191.9990 0.9590 51
2 A4 191.0400 191.9990 0.9590 51
2 E4 192.0000 193.9190 1.9190 51
2 G4 192.0000 193.9190 1.9190 81
2 B4 192.0000 193.9190 1.9190 51
2 E4 193.9200 195.8390 1.9190 51
2 A4 193.9200 195.8390 1.9190 81
2 C5 193.9200 195.8390 1.9190 51
2 F#4 195.8400 197.7590 1.9190 51
2 B4 195.8400 197.7590 1.9190 81
2 D5 195.8400 197.7590 1.9190 51
2 G4 197.7600 198.7190 0.9590 51
2 B4 197.7600 198.7190 0.9590 81
2 E5 197.7600 198.7190 0.9590 51
2 A4 198.7200 199.6790 0.9590 51
2 D5 198.7200 199.6790 0.9590 81
2 F#5 198.7200 199.6790 0.9590 51
2 E4 199.6800 201.5990 1.9190 81
2 G4 199.6800 201.5990 1.9190 51
2 B4 199.6800 201.5990 1.9190 51
2 E4 201.6000 205.4390 3.8390 81
2 G4 201.6000 205.4390 3.8390 51
2 B4 201.6000 205.4390 3.8390 51
2 C4 205.4400 206.3990 0.9590 81
2 E4 205.4400 206.3990 0.9590 51
2 G4 205.4400 206.3990 0.9590 51
2 D4 206.4000 207.3590 0.9590 81
2 F#4 206.4000 207.3590 0.9590 51
2 A4 206.4000 207.3590 0.9590 51
2 E4 207.3600 209.2790 1.9190 51
2 G4 207.3600 209.2790 1.9190 81
2 B4 207.3600 209.2790 1.9190 51
2 E4 209.2800 211.1990 1.9190 51
2 A4 209.2800 211.1990 1.9190 81
2 C5 209.2800 211.1990 1.9190 51
2 F#4 211.2000 213.1190 1.9190 51
2 B4 211.2000 213.1190 1.9190 81
2 D5 211.2000 213.1190 1.9190 51
2 G4 213.1200 214.0790 0.9590 51
2 B4 213.1200 214.0790 0.9590 81
2 E5 213.1200 214.0790 0.9590 51
2 A4 214.0800 215.0390 0.9590 51
2 D5 214.0800 215.0390 0.9590 81
2 F#5 214.0800 215.0390 0.9590 51
2 E4 215.0400 216.9590 1.9190 81
2 G4 215.0400 216.9590 1.9190 51
2 B4 215.0400 216.9590 1.9190 51
3 E4 10.3200 10.5590 0.2390 96
3 B4 10.5600 10.7990 0.2390 96
3 A4 10.8000 11.0390 0.2390 96
3 G4 11.0400 11.2790 0.2390 96
3 D4 11.2800 11.5190 0.2390 96
3 E4 12.2400 12.4790 0.2390 96
3 B4 12.4800 12.7190 0.2390 96
3 A4 12.7200 12.9590 0.2390 96
3 G4 12.9600 13.1990 0.2390 96
3 D4 13.2000 13.4390 0.2390 96
3 E4 14.1600 14.3990 0.2390 96
3 B4 14.4000 14.6390 0.2390 96
3 A4 14.6400 14.8790 0.2390 96
3 G4 14.8800 15.1190 0.2390 96
3 D4 15.1200 15.3590 0.2390 96
3 E4 16.0800 16.3190 0.2390 96
3 B4 16.3200 16.5590 0.2390 96
3 A4 16.5600 16.7990 0.2390 96
3 G4 16.8000 17.0390 0.2390 96
3 D4 17.0400 17.2790 0.2390 96
3 E3 17.2800 17.3990 0.1190 97
3 B3 17.5200 17.6390 0.1190 97
3 B3 17.7600 17.8790 0.1190 97
3 B3 18.0000 18.1190 0.1190 97
3 B3 18.2400 18.3590 0.1190 97
3 A3 18.4800 18.5990 0.1190 97
3 G3 18.7200 18.8390 0.1190 97
3 D3 18.9600 19.0790 0.1190 97
3 E3 19.2000 19.3190 0.1190 97
3 B3 19.4400 19.5590 0.1190 97
3 B3 19.6800 19.7990 0.1190 97
3 B3 19.9200 20.0390 0.1190 97
3 B3 20.1600 20.2790 0.1190 97
3 A3 20.4000 20.5190 0.1190 97
3 G3 20.6400 20.7590 0.1190 97
3 D3 20.8800 20.9990 0.1190 97
3 E3 21.1200 21.2390 0.1190 97
3 B3 21.3600 21.4790 0.1190 97
3 B3 21.6000 21.7190 0.1190 97
3 B3 21.8400 21.9590 0.1190 97
3 B3 22.0800 22.1990 0.1190 97
3 A3 22.3200 22.4390 0.1190 97
3 G3 22.5600 22.6790 0.1190 97
3 D3 22.8000 22.9190 0.1190 97
3 E3 23.0400 23.1590 0.1190 97
3 B3 23.2800 23.3990 0.1190 97
3 B3 23.5200 23.6390 0.1190 97
3 B3 23.7600 23.8790 0.1190 97
3 B3 24.0000 24.1190 0.1190 97
3 A3 24.2400 24.3590 0.1190 97
3 G3 24.4800 24.5990 0.1190 97
3 D3 24.7200 24.8390 0.1190 97
3 E3 24.9600 25.0790 0.1190 97
3 B3 25.2000 25.3190 0.1190 97
3 B3 25.4400 25.5590 0.1190 97
3 B3 25.6800 25.7990 0.1190 97
3 B3 25.9200 26.0390 0.1190 97
3 A3 26.1600 26.2790 0.1190 97
3 G3 26.4000 26.5190 0.1190 97
3 D3 26.6400 26.7590 0.1190 97
3 E3 26.8800 26.9990 0.1190 97
3 B3 27.1200 27.2390 0.1190 97
3 B3 27.3600 27.4790 0.1190 97
3 B3 27.6000 27.7190 0.1190 97
3 B3 27.8400 27.9590 0.1190 97
3 A3 28.0800 28.1990 0.1190 97
3 G3 28.3200 28.4390 0.1190 97
3 D3 28.5600 28.6790 0.1190 97
3 E3 28.8000 28.9190 0.1190 97
3 B3 29.0400 29.1590 0.1190 97
3 B3 29.2800 29.3990 0.1190 97
3 B3 29.5200 29.6390 0.1190 97
3 B3 29.7600 29.8790 0.1190 97
3 A3 30.0000 30.1190 0.1190 97
3 G3 30.2400 30.3590 0.1190 97
3 D3 30.4800 30.5990 0.1190 97
3 E3 30.7200 30.8390 0.1190 97
3 B3 30.9600 31.0790 0.1190 97
3 B3 31.2000 31.3190 0.1190 97
3 B3 31.4400 31.5590 0.1190 97
3 B3 31.6800 31.7990 0.1190 97
3 A3 31.9200 32.0390 0.1190 97
3 E3 32.1600 32.2790 0.1190 97
3 D3 32.4000 32.5190 0.1190 97
3 E3 32.6400 32.7590 0.1190 97
3 B3 32.8800 32.9990 0.1190 97
3 B3 33.1200 33.2390 0.1190 97
3 B3 33.3600 33.4790 0.1190 97
3 B3 33.6000 33.7190 0.1190 97
3 A3 33.8400 33.9590 0.1190 97
3 G3 34.0800 34.1990 0.1190 97
3 D3 34.3200 34.4390 0.1190 97
3 E3 34.5600 34.6790 0.1190 97
3 B3 34.8000 34.9190 0.1190 97
3 B3 35.0400 35.1590 0.1190 97
3 B3 35.2800 35.3990 0.1190 97
3 B3 35.5200 35.6390 0.1190 97
3 A3 35.7600 35.8790 0.1190 97
3 G3 36.0000 36.1190 0.1190 97
3 D3 36.2400 36.3590 0.1190 97
3 E3 36.4800 36.5990 0.1190 97
3 B3 36.7200 36.8390 0.1190 97
3 B3 36.9600 37.0790 0.1190 97
3 B3 37.2000 37.3190 0.1190 97
3 B3 37.4400 37.5590 0.1190 97
3 A3 37.6800 37.7990 0.1190 97
3 G3 37.9200 38.0390 0.1190 97
3 D3 38.1600 38.2790 0.1190 97
3 E3 38.4000 38.5190 0.1190 97
3 B3 38.6400 38.7590 0.1190 97
3 B3 38.8800 38.9990 0.1190 97
3 B3 39.1200 39.2390 0.1190 97
3 B3 39.3600 39.4790 0.1190 97
3 A3 39.6000 39.7190 0.1190 97
3 G3 39.8400 39.9590 0.1190 97
3 D3 40.0800 40.1990 0.1190 97
3 E3 40.3200 40.4390 0.1190 97
3 B3 40.5600 40.6790 0.1190 97
3 B3 40.8000 40.9190 0.1190 97
3 B3 41.0400 41.1590 0.1190 97
3 B3 41.2800 41.3990 0.1190 97
3 A3 41.5200 41.6390 0.1190 97
3 G3 41.7600 41.8790 0.1190 97
3 D3 42.0000 42.1190 0.1190 97
3 E3 42.2400 42.3590 0.1190 97
3 B3 42.4800 42.5990 0.1190 97
3 B3 42.7200 42.8390 0.1190 97
3 B3 42.9600 43.0790 0.1190 97
3 B3 43.2000 43.3190 0.1190 97
3 A3 43.4400 43.5590 0.1190 97
3 G3 43.6800 43.7990 0.1190 97
3 D3 43.9200 44.0390 0.1190 97
3 E3 44.1600 44.2790 0.1190 97
3 B3 44.4000 44.5190 0.1190 97
3 B3 44.6400 44.7590 0.1190 97
3 B3 44.8800 44.9990 0.1190 97
3 B3 45.1200 45.2390 0.1190 97
3 A3 45.3600 45.4790 0.1190 97
3 G3 45.6000 45.7190 0.1190 97
3 D3 45.8400 45.9590 0.1190 97
3 E3 46.0800 46.1990 0.1190 97
3 B3 46.3200 46.4390 0.1190 97
3 B3 46.5600 46.6790 0.1190 97
3 B3 46.8000 46.9190 0.1190 97
3 B3 47.0400 47.1590 0.1190 97
3 A3 47.2800 47.3990 0.1190 97
3 G3 47.5200 47.6390 0.1190 97
3 D3 47.7600 47.8790 0.1190 97
3 E3 48.0000 48.1190 0.1190 97
3 B3 48.2400 48.3590 0.1190 97
3 B3 48.4800 48.5990 0.1190 97
3 B3 48.7200 48.8390 0.1190 97
3 B3 48.9600 49.0790 0.1190 97
3 A3 49.2000 49.3190 0.1190 97
3 G3 49.4400 49.5590 0.1190 97
3 D3 49.6800 49.7990 0.1190 97
3 E3 49.9200 50.0390 0.1190 97
3 B3 50.1600 50.2790 0.1190 97
3 B3 50.4000 50.5190 0.1190 97
3 B3 50.6400 50.7590 0.1190 97
3 B3 50.8800 50.9990 0.1190 97
3 A3 51.1200 51.2390 0.1190 97
3 G3 51.3600 51.4790 0.1190 97
3 D3 51.6000 51.7190 0.1190 97
3 E3 51.8400 51.9590 0.1190 97
3 B3 52.0800 52.1990 0.1190 97
3 B3 52.3200 52.4390 0.1190 97
3 B3 52.5600 52.6790 0.1190 97
3 B3 52.8000 52.9190 0.1190 97
3 A3 53.0400 53.1590 0.1190 97
3 G3 53.2800 53.3990 0.1190 97
3 D3 53.5200 53.6390 0.1190 97
3 E3 53.7600 53.8790 0.1190 97
3 B3 54.0000 54.1190 0.1190 97
3 B3 54.2400 54.3590 0.1190 97
3 B3 54.4800 54.5990 0.1190 97
3 B3 54.7200 54.8390 0.1190 97
3 A3 54.9600 55.0790 0.1190 97
3 G3 55.2000 55.3190 0.1190 97
3 D3 55.4400 55.5590 0.1190 97
3 E3 55.6800 55.7990 0.1190 97
3 B3 55.9200 56.0390 0.1190 97
3 B3 56.1600 56.2790 0.1190 97
3 B3 56.4000 56.5190 0.1190 97
3 B3 56.6400 56.7590 0.1190 97
3 A3 56.8800 56.9990 0.1190 97
3 G3 57.1200 57.2390 0.1190 97
3 D3 57.3600 57.4790 0.1190 97
3 E3 57.6000 57.7190 0.1190 97
3 B3 57.8400 57.9590 0.1190 97
3 B3 58.0800 58.1990 0.1190 97
3 B3 58.3200 58.4390 0.1190 97
3 B3 58.5600 58.6790 0.1190 97
3 A3 58.8000 58.9190 0.1190 97
3 G3 59.0400 59.1590 0.1190 97
3 D3 59.2800 59.3990 0.1190 97
3 E3 59.5200 59.6390 0.1190 97
3 B3 59.7600 59.8790 0.1190 97
3 B3 60.0000 60.1190 0.1190 97
3 B3 60.2400 60.3590 0.1190 97
3 B3 60.4800 60.5990 0.1190 97
3 A3 60.7200 60.8390 0.1190 97
3 G3 60.9600 61.0790 0.1190 97
3 D3 61.2000 61.3190 0.1190 97
3 E3 61.4400 61.5590 0.1190 97
3 B3 61.6800 61.7990 0.1190 97
3 B3 61.9200 62.0390 0.1190 97
3 B3 62.1600 62.2790 0.1190 97
3 B3 62.4000 62.5190 0.1190 97
3 A3 62.6400 62.7590 0.1190 97
3 G3 62.8800 62.9990 0.1190 97
3 D3 63.1200 63.2390 0.1190 97
3 E3 63.3600 63.4790 0.1190 97
3 B3 63.6000 63.7190 0.1190 97
3 B3 63.8400 63.9590 0.1190 97
3 B3 64.0800 64.1990 0.1190 97
3 B3 64.3200 64.4390 0.1190 97
3 A3 64.5600 64.6790 0.1190 97
3 G3 64.8000 64.9190 0.1190 97
3 D3 65.0400 65.1590 0.1190 97
3 E3 65.2800 65.3990 0.1190 97
3 B3 65.5200 65.6390 0.1190 97
3 B3 65.7600 65.8790 0.1190 97
3 B3 66.0000 66.1190 0.1190 97
3 B3 66.2400 66.3590 0.1190 97
3 A3 66.4800 66.5990 0.1190 97
3 G3 66.7200 66.8390 0.1190 97
3 D3 66.9600 67.0790 0.1190 97
3 E3 67.2000 67.3190 0.1190 97
3 B3 67.4400 67.5590 0.1190 97
3 B3 67.6800 67.7990 0.1190 97
3 B3 67.9200 68.0390 0.1190 97
3 B3 68.1600 68.2790 0.1190 97
3 A3 68.4000 68.5190 0.1190 97
3 G3 68.6400 68.7590 0.1190 97
3 D3 68.8800 68.9990 0.1190 97
3 E3 69.1200 69.2390 0.1190 97
3 B3 69.3600 69.4790 0.1190 97
3 B3 69.6000 69.7190 0.1190 97
3 B3 69.8400 69.9590 0.1190 97
3 B3 70.0800 70.1990 0.1190 97
3 A3 70.3200 70.4390 0.1190 97
3 G3 70.5600 70.6790 0.1190 97
3 D3 70.8000 70.9190 0.1190 97
3 E3 71.0400 71.1590 0.1190 97
3 B3 71.2800 71.3990 0.1190 97
3 B3 71.5200 71.6390 0.1190 97
3 B3 71.7600 71.8790 0.1190 97
3 B3 72.0000 72.1190 0.1190 97
3 A3 72.2400 72.3590 0.1190 97
3 G3 72.4800 72.5990 0.1190 97
3 D3 72.7200 72.8390 0.1190 97
3 E3 72.9600 73.0790 0.1190 97
3 B3 73.2000 73.3190 0.1190 97
3 B3 73.4400 73.5590 0.1190 97
3 B3 73.6800 73.7990 0.1190 97
3 B3 73.9200 74.0390 0.1190 97
3 A3 74.1600 74.2790 0.1190 97
3 G3 74.4000 74.5190 0.1190 97
3 D3 74.6400 74.7590 0.1190 97
3 E3 74.8800 74.9990 0.1190 97
3 B3 75.1200 75.2390 0.1190 97
3 B3 75.3600 75.4790 0.1190 97
3 B3 75.6000 75.7190 0.1190 97
3 B3 75.8400 75.9590 0.1190 97
3 A3 76.0800 76.1990 0.1190 97
3 G3 76.3200 76.4390 0.1190 97
3 D3 76.5600 76.6790 0.1190 97
3 E3 76.8000 76.9190 0.1190 97
3 B3 77.0400 77.1590 0.1190 97
3 B3 77.2800 77.3990 0.1190 97
3 B3 77.5200 77.6390 0.1190 97
3 B3 77.7600 77.8790 0.1190 97
3 A3 78.0000 78.1190 0.1190 97
3 G3 78.2400 78.3590 0.1190 97
3 D3 78.4800 78.5990 0.1190 97
3 E3 78.7200 78.8390 0.1190 97
3 B3 78.9600 79.0790 0.1190 97
3 B3 79.2000 79.3190 0.1190 97
3 B3 79.4400 79.5590 0.1190 97
3 B3 79.6800 79.7990 0.1190 97
3 A3 79.9200 80.0390 0.1190 97
3 G3 80.1600 80.2790 0.1190 97
3 D3 80.4000 80.5190 0.1190 97
3 E3 80.6400 80.7590 0.1190 97
3 B3 80.8800 80.9990 0.1190 97
3 B3 81.1200 81.2390 0.1190 97
3 B3 81.3600 81.4790 0.1190 97
3 B3 81.6000 81.7190 0.1190 97
3 A3 81.8400 81.9590 0.1190 97
3 G3 82.0800 82.1990 0.1190 97
3 D3 82.3200 82.4390 0.1190 97
3 E3 82.5600 82.6790 0.1190 97
3 B3 82.8000 82.9190 0.1190 97
3 B3 83.0400 83.1590 0.1190 97
3 B3 83.2800 83.3990 0.1190 97
3 B3 83.5200 83.6390 0.1190 97
3 A3 83.7600 83.8790 0.1190 97
3 G3 84.0000 84.1190 0.1190 97
3 D3 84.2400 84.3590 0.1190 97
3 E3 84.4800 84.5990 0.1190 97
3 B3 84.7200 84.8390 0.1190 97
3 B3 84.9600 85.0790 0.1190 97
3 B3 85.2000 85.3190 0.1190 97
3 B3 85.4400 85.5590 0.1190 97
3 A3 85.6800 85.7990 0.1190 97
3 G3 85.9200 86.0390 0.1190 97
3 D3 86.1600 86.2790 0.1190 97
3 E3 86.4000 86.5190 0.1190 97
3 B3 86.6400 86.7590 0.1190 97
3 B3 86.8800 86.9990 0.1190 97
3 B3 87.1200 87.2390 0.1190 97
3 B3 87.3600 87.4790 0.1190 97
3 A3 87.6000 87.7190 0.1190 97
3 G3 87.8400 87.9590 0.1190 97
3 D3 88.0800 88.1990 0.1190 97
3 E3 88.3200 88.4390 0.1190 97
3 B3 88.5600 88.6790 0.1190 97
3 B3 88.8000 88.9190 0.1190 97
3 B3 89.0400 89.1590 0.1190 97
3 B3 89.2800 89.3990 0.1190 97
3 A3 89.5200 89.6390 0.1190 97
3 G3 89.7600 89.8790 0.1190 97
3 D3 90.0000 90.1190 0.1190 97
3 E3 90.2400 90.3590 0.1190 97
3 B3 90.4800 90.5990 0.1190 97
3 B3 90.7200 90.8390 0.1190 97
3 B3 90.9600 91.0790 0.1190 97
3 B3 91.2000 91.3190 0.1190 97
3 A3 91.4400 91.5590 0.1190 97
3 G3 91.6800 91.7990 0.1190 97
3 D3 91.9200 92.0390 0.1190 97
3 E3 92.1600 92.2790 0.1190 97
3 B3 92.4000 92.5190 0.1190 97
3 B3 92.6400 92.7590 0.1190 97
3 B3 92.8800 92.9990 0.1190 97
3 B3 93.1200 93.2390 0.1190 97
3 A3 93.3600 93.4790 0.1190 97
3 E3 93.6000 93.7190 0.1190 97
3 D3 93.8400 93.9590 0.1190 97
3 E3 94.0800 94.1990 0.1190 97
3 B3 94.3200 94.4390 0.1190 97
3 B3 94.5600 94.6790 0.1190 97
3 B3 94.8000 94.9190 0.1190 97
3 B3 95.0400 95.1590 0.1190 97
3 A3 95.2800 95.3990 0.1190 97
3 G3 95.5200 95.6390 0.1190 97
3 D3 95.7600 95.8790 0.1190 97
3 E3 96.0000 96.1190 0.1190 97
3 B3 96.2400 96.3590 0.1190 97
3 B3 96.4800 96.5990 0.1190 97
3 B3 96.7200 96.8390 0.1190 97
3 B3 96.9600 97.0790 0.1190 97
3 A3 97.2000 97.3190 0.1190 97
3 G3 97.4400 97.5590 0.1190 97
3 D3 97.6800 97.7990 0.1190 97
3 E3 97.9200 98.0390 0.1190 97
3 B3 98.1600 98.2790 0.1190 97
3 B3 98.4000 98.5190 0.1190 97
3 B3 98.6400 98.7590 0.1190 97
3 B3 98.8800 98.9990 0.1190 97
3 A3 99.1200 99.2390 0.1190 97
3 G3 99.3600 99.4790 0.1190 97
3 D3 99.6000 99.7190 0.1190 97
3 E3 99.8400 99.9590 0.1190 97
3 B3 100.0800 100.1990 0.1190 97
3 B3 100.3200 100.4390 0.1190 97
3 B3 100.5600 100.6790 0.1190 97
3 B3 100.8000 100.9190 0.1190 97
3 A3 101.0400 101.1590 0.1190 97
3 G3 101.2800 101.3990 0.1190 97
3 D3 101.5200 101.6390 0.1190 97
3 E3 101.7600 101.8790 0.1190 97
3 B3 102.0000 102.1190 0.1190 97
3 B3 102.2400 102.3590 0.1190 97
3 B3 102.4800 102.5990 0.1190 97
3 B3 102.7200 102.8390 0.1190 97
3 A3 102.9600 103.0790 0.1190 97
3 G3 103.2000 103.3190 0.1190 97
3 D3 103.4400 103.5590 0.1190 97
3 E3 103.6800 103.7990 0.1190 97
3 B3 103.9200 104.0390 0.1190 97
3 B3 104.1600 104.2790 0.1190 97
3 B3 104.4000 104.5190 0.1190 97
3 B3 104.6400 104.7590 0.1190 97
3 A3 104.8800 104.9990 0.1190 97
3 G3 105.1200 105.2390 0.1190 97
3 D3 105.3600 105.4790 0.1190 97
3 E3 105.6000 105.7190 0.1190 97
3 B3 105.8400 105.9590 0.1190 97
3 B3 106.0800 106.1990 0.1190 97
3 B3 106.3200 106.4390 0.1190 97
3 B3 106.5600 106.6790 0.1190 97
3 A3 106.8000 106.9190 0.1190 97
3 G3 107.0400 107.1590 0.1190 97
3 D3 107.2800 107.3990 0.1190 97
3 E3 107.5200 107.6390 0.1190 97
3 B3 107.7600 107.8790 0.1190 97
3 B3 108.0000 108.1190 0.1190 97
3 B3 108.2400 108.3590 0.1190 97
3 B3 108.4800 108.5990 0.1190 97
3 A3 108.7200 108.8390 0.1190 97
3 G3 108.9600 109.0790 0.1190 97
3 D3 109.2000 109.3190 0.1190 97
3 E3 109.4400 109.5590 0.1190 97
3 B3 109.6800 109.7990 0.1190 97
3 B3 109.9200 110.0390 0.1190 97
3 B3 110.1600 110.2790 0.1190 97
3 B3 110.4000 110.5190 0.1190 97
3 A3 110.6400 110.7590 0.1190 97
3 G3 110.8800 110.9990 0.1190 97
3 D3 111.1200 111.2390 0.1190 97
3 E3 111.3600 111.4790 0.1190 97
3 B3 111.6000 111.7190 0.1190 97
3 B3 111.8400 111.9590 0.1190 97
3 B3 112.0800 112.1990 0.1190 97
3 B3 112.3200 112.4390 0.1190 97
3 A3 112.5600 112.6790 0.1190 97
3 G3 112.8000 112.9190 0.1190 97
3 D3 113.0400 113.1590 0.1190 97
3 E3 113.2800 113.3990 0.1190 97
3 B3 113.5200 113.6390 0.1190 97
3 B3 113.7600 113.8790 0.1190 97
3 B3 114.0000 114.1190 0.1190 97
3 B3 114.2400 114.3590 0.1190 97
3 A3 114.4800 114.5990 0.1190 97
3 G3 114.7200 114.8390 0.1190 97
3 D3 114.9600 115.0790 0.1190 97
3 E3 115.2000 115.3190 0.1190 97
3 B3 115.4400 115.5590 0.1190 97
3 B3 115.6800 115.7990 0.1190 97
3 B3 115.9200 116.0390 0.1190 97
3 B3 116.1600 116.2790 0.1190 97
3 A3 116.4000 116.5190 0.1190 97
3 G3 116.6400 116.7590 0.1190 97
3 D3 116.8800 116.9990 0.1190 97
3 E3 117.1200 117.2390 0.1190 97
3 B3 117.3600 117.4790 0.1190 97
3 B3 117.6000 117.7190 0.1190 97
3 B3 117.8400 117.9590 0.1190 97
3 B3 118.0800 118.1990 0.1190 97
3 A3 118.3200 118.4390 0.1190 97
3 G3 118.5600 118.6790 0.1190 97
3 D3 118.8000 118.9190 0.1190 97
3 E3 119.0400 119.1590 0.1190 97
3 B3 119.2800 119.3990 0.1190 97
3 B3 119.5200 119.6390 0.1190 97
3 B3 119.7600 119.8790 0.1190 97
3 B3 120.0000 120.1190 0.1190 97
3 A3 120.2400 120.3590 0.1190 97
3 G3 120.4800 120.5990 0.1190 97
3 D3 120.7200 120.8390 0.1190 97
3 E3 120.9600 121.0790 0.1190 97
3 B3 121.2000 121.3190 0.1190 97
3 B3 121.4400 121.5590 0.1190 97
3 B3 121.6800 121.7990 0.1190 97
3 B3 121.9200 122.0390 0.1190 97
3 A3 122.1600 122.2790 0.1190 97
3 G3 122.4000 122.5190 0.1190 97
3 D3 122.6400 122.7590 0.1190 97
3 E3 122.8800 122.9990 0.1190 97
3 B3 123.1200 123.2390 0.1190 97
3 B3 123.3600 123.4790 0.1190 97
3 B3 123.6000 123.7190 0.1190 97
3 B3 123.8400 123.9590 0.1190 97
3 A3 124.0800 124.1990 0.1190 97
3 G3 124.3200 124.4390 0.1190 97
3 D3 124.5600 124.6790 0.1190 97
3 E3 124.8000 124.9190 0.1190 97
3 B3 125.0400 125.1590 0.1190 97
3 B3 125.2800 125.3990 0.1190 97
3 B3 125.5200 125.6390 0.1190 97
3 B3 125.7600 125.8790 0.1190 97
3 A3 126.0000 126.1190 0.1190 97
3 G3 126.2400 126.3590 0.1190 97
3 D3 126.4800 126.5990 0.1190 97
3 E3 126.7200 126.8390 0.1190 97
3 B3 126.9600 127.0790 0.1190 97
3 B3 127.2000 127.3190 0.1190 97
3 B3 127.4400 127.5590 0.1190 97
3 B3 127.6800 127.7990 0.1190 97
3 A3 127.9200 128.0390 0.1190 97
3 G3 128.1600 128.2790 0.1190 97
3 D3 128.4000 128.5190 0.1190 97
3 E3 128.6400 128.7590 0.1190 97
3 B3 128.8800 128.9990 0.1190 97
3 B3 129.1200 129.2390 0.1190 97
3 B3 129.3600 129.4790 0.1190 97
3 B3 129.6000 129.7190 0.1190 97
3 A3 129.8400 129.9590 0.1190 97
3 G3 130.0800 130.1990 0.1190 97
3 D3 130.3200 130.4390 0.1190 97
3 E3 130.5600 130.6790 0.1190 97
3 B3 130.8000 130.9190 0.1190 97
3 B3 131.0400 131.1590 0.1190 97
3 B3 131.2800 131.3990 0.1190 97
3 B3 131.5200 131.6390 0.1190 97
3 A3 131.7600 131.8790 0.1190 97
3 G3 132.0000 132.1190 0.1190 97
3 D3 132.2400 132.3590 0.1190 97
3 E3 132.4800 132.5990 0.1190 97
3 B3 132.7200 132.8390 0.1190 97
3 B3 132.9600 133.0790 0.1190 97
3 B3 133.2000 133.3190 0.1190 97
3 B3 133.4400 133.5590 0.1190 97
3 A3 133.6800 133.7990 0.1190 97
3 G3 133.9200 134.0390 0.1190 97
3 D3 134.1600 134.2790 0.1190 97
3 E3 134.4000 134.5190 0.1190 97
3 B3 134.6400 134.7590 0.1190 97
3 B3 134.8800 134.9990 0.1190 97
3 B3 135.1200 135.2390 0.1190 97
3 B3 135.3600 135.4790 0.1190 97
3 A3 135.6000 135.7190 0.1190 97
3 G3 135.8400 135.9590 0.1190 97
3 D3 136.0800 136.1990 0.1190 97
3 E3 136.3200 136.4390 0.1190 97
3 B3 136.5600 136.6790 0.1190 97
3 B3 136.8000 136.9190 0.1190 97
3 B3 137.0400 137.1590 0.1190 97
3 B3 137.2800 137.3990 0.1190 97
3 A3 137.5200 137.6390 0.1190 97
3 G3 137.7600 137.8790 0.1190 97
3 D3 138.0000 138.1190 0.1190 97
3 E3 138.2400 138.3590 0.1190 97
3 B3 138.4800 138.5990 0.1190 97
3 B3 138.7200 138.8390 0.1190 97
3 B3 138.9600 139.0790 0.1190 97
3 B3 139.2000 139.3190 0.1190 97
3 A3 139.4400 139.5590 0.1190 97
3 G3 139.6800 139.7990 0.1190 97
3 D3 139.9200 140.0390 0.1190 97
3 B5 140.1600 140.3990 0.2390 65
3 B5 140.4000 140.6390 0.2390 65
3 B5 140.8800 141.1190 0.2390 65
3 B5 141.1200 141.3590 0.2390 65
3 E5 141.6000 141.8390 0.2390 65
3 B5 142.0800 142.3190 0.2390 65
3 B5 142.5600 142.7990 0.2390 65
3 G5 142.8000 143.0390 0.2390 65
3 E5 143.0400 143.2790 0.2390 65
3 E6 144.0000 144.2390 0.2390 65
3 E6 144.2400 144.4790 0.2390 65
3 E6 144.7200 144.9590 0.2390 65
3 E6 144.9600 145.1990 0.2390 65
3 B5 145.2000 145.4390 0.2390 65
3 A5 145.4400 145.6790 0.2390 65
3 B5 145.9200 146.1590 0.2390 65
3 B5 146.1600 146.3990 0.2390 65
3 B5 146.4000 146.6390 0.2390 65
3 B5 146.6400 146.8790 0.2390 65
3 B5 147.1200 147.3590 0.2390 65
3 B5 147.6000 147.8390 0.2390 65
3 A5 147.8400 148.0790 0.2390 65
3 A5 148.5600 148.7990 0.2390 65
3 G5 148.8000 149.0390 0.2390 65
3 A5 149.2800 149.5190 0.2390 65
3 D6 149.7600 149.9990 0.2390 65
3 E6 150.0000 150.2390 0.2390 65
3 B5 150.4800 150.7190 0.2390 65
3 D6 150.7200 150.9590 0.2390 65
3 D6 150.9600 151.1990 0.2390 65
3 E6 151.6800 151.9190 0.2390 65
3 B5 152.1600 152.3990 0.2390 65
3 G5 152.4000 152.6390 0.2390 65
3 F#5 152.6400 152.8790 0.2390 65
3 G5 153.1200 153.3590 0.2390 65
3 F#5 153.3600 153.5990 0.2390 65
3 E5 153.6000 155.0390 1.4390 65
3 E3 155.5200 155.6390 0.1190 97
3 B3 155.7600 155.8790 0.1190 97
3 B3 156.0000 156.1190 0.1190 97
3 B3 156.2400 156.3590 0.1190 97
3 B3 156.4800 156.5990 0.1190 97
3 A3 156.7200 156.8390 0.1190 97
3 G3 156.9600 157.0790 0.1190 97
3 D3 157.2000 157.3190 0.1190 97
3 E3 157.4400 157.5590 0.1190 97
3 B3 157.6800 157.7990 0.1190 97
3 B3 157.9200 158.0390 0.1190 97
3 B3 158.1600 158.2790 0.1190 97
3 B3 158.4000 158.5190 0.1190 97
3 A3 158.6400 158.7590 0.1190 97
3 G3 158.8800 158.9990 0.1190 97
3 D3 159.1200 159.2390 0.1190 97
3 E3 159.3600 159.4790 0.1190 97
3 B3 159.6000 159.7190 0.1190 97
3 B3 159.8400 159.9590 0.1190 97
3 B3 160.0800 160.1990 0.1190 97
3 B3 160.3200 160.4390 0.1190 97
3 A3 160.5600 160.6790 0.1190 97
3 G3 160.8000 160.9190 0.1190 97
3 D3 161.0400 161.1590 0.1190 97
3 E3 161.2800 161.3990 0.1190 97
3 B3 161.5200 161.6390 0.1190 97
3 B3 161.7600 161.8790 0.1190 97
3 B3 162.0000 162.1190 0.1190 97
3 B3 162.2400 162.3590 0.1190 97
3 A3 162.4800 162.5990 0.1190 97
3 G3 162.7200 162.8390 0.1190 97
3 D3 162.9600 163.0790 0.1190 97
3 E3 163.2000 163.3190 0.1190 97
3 B3 163.4400 163.5590 0.1190 97
3 B3 163.6800 163.7990 0.1190 97
3 B3 163.9200 164.0390 0.1190 97
3 B3 164.1600 164.2790 0.1190 97
3 A3 164.4000 164.5190 0.1190 97
3 G3 164.6400 164.7590 0.1190 97
3 D3 164.8800 164.9990 0.1190 97
3 E3 165.1200 165.2390 0.1190 97
3 B3 165.3600 165.4790 0.1190 97
3 B3 165.6000 165.7190 0.1190 97
3 B3 165.8400 165.9590 0.1190 97
3 B3 166.0800 166.1990 0.1190 97
3 A3 166.3200 166.4390 0.1190 97
3 G3 166.5600 166.6790 0.1190 97
3 D3 166.8000 166.9190 0.1190 97
3 E3 167.0400 167.1590 0.1190 97
3 B3 167.2800 167.3990 0.1190 97
3 B3 167.5200 167.6390 0.1190 97
3 B3 167.7600 167.8790 0.1190 97
3 B3 168.0000 168.1190 0.1190 97
3 A3 168.2400 168.3590 0.1190 97
3 G3 168.4800 168.5990 0.1190 97
3 D3 168.7200 168.8390 0.1190 97
3 E3 168.9600 169.0790 0.1190 97
3 B3 169.2000 169.3190 0.1190 97
3 B3 169.4400 169.5590 0.1190 97
3 B3 169.6800 169.7990 0.1190 97
3 B3 169.9200 170.0390 0.1190 97
3 A3 170.1600 170.2790 0.1190 97
3 G3 170.4000 170.5190 0.1190 97
3 D3 170.6400 170.7590 0.1190 97
3 E3 170.8800 170.9990 0.1190 97
3 B3 171.1200 171.2390 0.1190 97
3 B3 171.3600 171.4790 0.1190 97
3 B3 171.6000 171.7190 0.1190 97
3 B3 171.8400 171.9590 0.1190 97
3 A3 172.0800 172.1990 0.1190 97
3 G3 172.3200 172.4390 0.1190 97
3 D3 172.5600 172.6790 0.1190 97
3 E3 172.8000 172.9190 0.1190 97
3 B3 173.0400 173.1590 0.1190 97
3 B3 173.2800 173.3990 0.1190 97
3 B3 173.5200 173.6390 0.1190 97
3 B3 173.7600 173.8790 0.1190 97
3 A3 174.0000 174.1190 0.1190 97
3 G3 174.2400 174.3590 0.1190 97
3 D3 174.4800 174.5990 0.1190 97
3 E3 174.7200 174.8390 0.1190 97
3 B3 174.9600 175.0790 0.1190 97
3 B3 175.2000 175.3190 0.1190 97
3 B3 175.4400 175.5590 0.1190 97
3 B3 175.6800 175.7990 0.1190 97
3 A3 175.9200 176.0390 0.1190 97
3 G3 176.1600 176.2790 0.1190 97
3 D3 176.4000 176.5190 0.1190 97
3 E3 176.6400 176.7590 0.1190 97
3 B3 176.8800 176.9990 0.1190 97
3 B3 177.1200 177.2390 0.1190 97
3 B3 177.3600 177.4790 0.1190 97
3 B3 177.6000 177.7190 0.1190 97
3 A3 177.8400 177.9590 0.1190 97
3 G3 178.0800 178.1990 0.1190 97
3 D3 178.3200 178.4390 0.1190 97
3 E3 178.5600 178.6790 0.1190 97
3 B3 178.8000 178.9190 0.1190 97
3 B3 179.0400 179.1590 0.1190 97
3 B3 179.2800 179.3990 0.1190 97
3 B3 179.5200 179.6390 0.1190 97
3 A3 179.7600 179.8790 0.1190 97
3 G3 180.0000 180.1190 0.1190 97
3 D3 180.2400 180.3590 0.1190 97
3 E3 180.4800 180.5990 0.1190 97
3 B3 180.7200 180.8390 0.1190 97
3 B3 180.9600 181.0790 0.1190 97
3 B3 181.2000 181.3190 0.1190 97
3 B3 181.4400 181.5590 0.1190 97
3 A3 181.6800 181.7990 0.1190 97
3 G3 181.9200 182.0390 0.1190 97
3 D3 182.1600 182.2790 0.1190 97
3 E3 182.4000 182.5190 0.1190 97
3 B3 182.6400 182.7590 0.1190 97
3 B3 182.8800 182.9990 0.1190 97
3 B3 183.1200 183.2390 0.1190 97
3 B3 183.3600 183.4790 0.1190 97
3 A3 183.6000 183.7190 0.1190 97
3 G3 183.8400 183.9590 0.1190 97
3 D3 184.0800 184.1990 0.1190 97
3 E3 184.3200 184.4390 0.1190 97
3 B3 184.5600 184.6790 0.1190 97
3 B3 184.8000 184.9190 0.1190 97
3 B3 185.0400 185.1590 0.1190 97
3 B3 185.2800 185.3990 0.1190 97
3 A3 185.5200 185.6390 0.1190 97
3 G3 185.7600 185.8790 0.1190 97
3 D3 186.0000 186.1190 0.1190 97
3 E3 186.2400 186.3590 0.1190 97
3 B3 186.4800 186.5990 0.1190 97
3 B3 186.7200 186.8390 0.1190 97
3 B3 186.9600 187.0790 0.1190 97
3 B3 187.2000 187.3190 0.1190 97
3 A3 187.4400 187.5590 0.1190 97
3 G3 187.6800 187.7990 0.1190 97
3 D3 187.9200 188.0390 0.1190 97
3 E3 188.1600 188.2790 0.1190 97
3 B3 188.4000 188.5190 0.1190 97
3 B3 188.6400 188.7590 0.1190 97
3 B3 188.8800 188.9990 0.1190 97
3 B3 189.1200 189.2390 0.1190 97
3 A3 189.3600 189.4790 0.1190 97
3 G3 189.6000 189.7190 0.1190 97
3 D3 189.8400 189.9590 0.1190 97
3 E3 190.0800 190.1990 0.1190 97
3 B3 190.3200 190.4390 0.1190 97
3 B3 190.5600 190.6790 0.1190 97
3 B3 190.8000 190.9190 0.1190 97
3 B3 191.0400 191.1590 0.1190 97
3 A3 191.2800 191.3990 0.1190 97
3 G3 191.5200 191.6390 0.1190 97
3 D3 191.7600 191.8790 0.1190 97
3 E3 192.0000 192.1190 0.1190 97
3 B3 192.2400 192.3590 0.1190 97
3 B3 192.4800 192.5990 0.1190 97
3 B3 192.7200 192.8390 0.1190 97
3 B3 192.9600 193.0790 0.1190 97
3 A3 193.2000 193.3190 0.1190 97
3 G3 193.4400 193.5590 0.1190 97
3 D3 193.6800 193.7990 0.1190 97
3 E3 193.9200 194.0390 0.1190 97
3 B3 194.1600 194.2790 0.1190 97
3 B3 194.4000 194.5190 0.1190 97
3 B3 194.6400 194.7590 0.1190 97
3 B3 194.8800 194.9990 0.1190 97
3 A3 195.1200 195.2390 0.1190 97
3 G3 195.3600 195.4790 0.1190 97
3 D3 195.6000 195.7190 0.1190 97
3 E3 195.8400 195.9590 0.1190 97
3 B3 196.0800 196.1990 0.1190 97
3 B3 196.3200 196.4390 0.1190 97
3 B3 196.5600 196.6790 0.1190 97
3 B3 196.8000 196.9190 0.1190 97
3 A3 197.0400 197.1590 0.1190 97
3 G3 197.2800 197.3990 0.1190 97
3 D3 197.5200 197.6390 0.1190 97
3 E3 197.7600 197.8790 0.1190 97
3 B3 198.0000 198.1190 0.1190 97
3 B3 198.2400 198.3590 0.1190 97
3 B3 198.4800 198.5990 0.1190 97
3 B3 198.7200 198.8390 0.1190 97
3 A3 198.9600 199.0790 0.1190 97
3 G3 199.2000 199.3190 0.1190 97
3 D3 199.4400 199.5590 0.1190 97
3 E3 199.6800 199.7990 0.1190 97
3 B3 199.9200 200.0390 0.1190 97
3 B3 200.1600 200.2790 0.1190 97
3 B3 200.4000 200.5190 0.1190 97
3 B3 200.6400 200.7590 0.1190 97
3 A3 200.8800 200.9990 0.1190 97
3 G3 201.1200 201.2390 0.1190 97
3 D3 201.3600 201.4790 0.1190 97
3 E3 201.6000 201.7190 0.1190 97
3 B3 201.8400 201.9590 0.1190 97
3 B3 202.0800 202.1990 0.1190 97
3 B3 202.3200 202.4390 0.1190 97
3 B3 202.5600 202.6790 0.1190 97
3 A3 202.8000 202.9190 0.1190 97
3 G3 203.0400 203.1590 0.1190 97
3 D3 203.2800 203.3990 0.1190 97
3 E3 203.5200 203.6390 0.1190 97
3 B3 203.7600 203.8790 0.1190 97
3 B3 204.0000 204.1190 0.1190 97
3 B3 204.2400 204.3590 0.1190 97
3 B3 204.4800 204.5990 0.1190 97
3 A3 204.7200 204.8390 0.1190 97
3 G3 204.9600 205.0790 0.1190 97
3 D3 205.2000 205.3190 0.1190 97
3 E3 205.4400 205.5590 0.1190 97
3 B3 205.6800 205.7990 0.1190 97
3 B3 205.9200 206.0390 0.1190 97
3 B3 206.1600 206.2790 0.1190 97
3 B3 206.4000 206.5190 0.1190 97
3 A3 206.6400 206.7590 0.1190 97
3 G3 206.8800 206.9990 0.1190 97
3 D3 207.1200 207.2390 0.1190 97
3 E3 207.3600 207.4790 0.1190 97
3 B3 207.6000 207.7190 0.1190 97
3 B3 207.8400 207.9590 0.1190 97
3 B3 208.0800 208.1990 0.1190 97
3 B3 208.3200 208.4390 0.1190 97
3 A3 208.5600 208.6790 0.1190 97
3 G3 208.8000 208.9190 0.1190 97
3 D3 209.0400 209.1590 0.1190 97
3 E3 209.2800 209.3990 0.1190 97
3 B3 209.5200 209.6390 0.1190 97
3 B3 209.7600 209.8790 0.1190 97
3 B3 210.0000 210.1190 0.1190 97
3 B3 210.2400 210.3590 0.1190 97
3 A3 210.4800 210.5990 0.1190 97
3 G3 210.7200 210.8390 0.1190 97
3 D3 210.9600 211.0790 0.1190 97
3 E3 211.2000 211.3190 0.1190 97
3 B3 211.4400 211.5590 0.1190 97
3 B3 211.6800 211.7990 0.1190 97
3 B3 211.9200 212.0390 0.1190 97
3 B3 212.1600 212.2790 0.1190 97
3 A3 212.4000 212.5190 0.1190 97
3 G3 212.6400 212.7590 0.1190 97
3 D3 212.8800 212.9990 0.1190 97
3 E3 213.1200 213.2390 0.1190 97
3 B3 213.3600 213.4790 0.1190 97
3 B3 213.6000 213.7190 0.1190 97
3 B3 213.8400 213.9590 0.1190 97
3 B3 214.0800 214.1990 0.1190 97
3 A3 214.3200 214.4390 0.1190 97
3 G3 214.5600 214.6790 0.1190 97
3 D3 214.8000 214.9190 0.1190 97
3 E3 215.0400 215.1590 0.1190 97
3 B3 215.2800 215.3990 0.1190 97
3 B3 215.5200 215.6390 0.1190 97
3 B3 215.7600 215.8790 0.1190 97
3 B3 216.0000 216.1190 0.1190 97
3 A3 216.2400 216.3590 0.1190 97
3 G3 216.4800 216.5990 0.1190 97
3 D3 216.7200 216.8390 0.1190 97
4 E4 1.9200 2.0390 0.1190 97
4 B4 2.1600 2.2790 0.1190 97
4 B4 2.4000 2.5190 0.1190 97
4 B4 2.6400 2.7590 0.1190 97
4 B4 2.8800 2.9990 0.1190 97
4 A4 3.1200 3.2390 0.1190 97
4 G4 3.3600 3.4790 0.1190 97
4 D4 3.6000 3.7190 0.1190 97
4 E4 3.8400 3.9590 0.1190 97
4 B4 4.0800 4.1990 0.1190 97
4 B4 4.3200 4.4390 0.1190 97
4 B4 4.5600 4.6790 0.1190 97
4 B4 4.8000 4.9190 0.1190 97
4 A4 5.0400 5.1590 0.1190 97
4 G4 5.2800 5.3990 0.1190 97
4 D4 5.5200 5.6390 0.1190 97
4 E4 5.7600 5.8790 0.1190 97
4 B4 6.0000 6.1190 0.1190 97
4 B4 6.2400 6.3590 0.1190 97
4 B4 6.4800 6.5990 0.1190 97
4 B4 6.7200 6.8390 0.1190 97
4 A4 6.9600 7.0790 0.1190 97
4 G4 7.2000 7.3190 0.1190 97
4 D4 7.4400 7.5590 0.1190 97
4 E4 7.6800 7.7990 0.1190 97
4 B4 7.9200 8.0390 0.1190 97
4 B4 8.1600 8.2790 0.1190 97
4 B4 8.4000 8.5190 0.1190 97
4 B4 8.6400 8.7590 0.1190 97
4 A4 8.8800 8.9990 0.1190 97
4 G4 9.1200 9.2390 0.1190 97
4 D4 9.3600 9.4790 0.1190 97
4 E4 9.6000 9.7190 0.1190 97
4 B4 9.8400 9.9590 0.1190 97
4 B4 10.0800 10.1990 0.1190 97
4 B4 10.3200 10.4390 0.1190 97
4 B4 10.5600 10.6790 0.1190 97
4 A4 10.8000 10.9190 0.1190 97
4 G4 11.0400 11.1590 0.1190 97
4 D4 11.2800 11.3990 0.1190 97
4 E4 11.5200 11.6390 0.1190 97
4 B4 11.7600 11.8790 0.1190 97
4 B4 12.0000 12.1190 0.1190 97
4 B4 12.2400 12.3590 0.1190 97
4 B4 12.4800 12.5990 0.1190 97
4 A4 12.7200 12.8390 0.1190 97
4 G4 12.9600 13.0790 0.1190 97
4 D4 13.2000 13.3190 0.1190 97
4 E4 13.4400 13.5590 0.1190 97
4 B4 13.6800 13.7990 0.1190 97
4 B4 13.9200 14.0390 0.1190 97
4 B4 14.1600 14.2790 0.1190 97
4 B4 14.4000 14.5190 0.1190 97
4 A4 14.6400 14.7590 0.1190 97
4 G4 14.8800 14.9990 0.1190 97
4 D4 15.1200 15.2390 0.1190 97
4 E4 15.3600 15.4790 0.1190 97
4 B4 15.6000 15.7190 0.1190 97
4 B4 15.8400 15.9590 0.1190 97
4 B4 16.0800 16.1990 0.1190 97
4 B4 16.3200 16.4390 0.1190 97
4 A4 16.5600 16.6790 0.1190 97
4 G4 16.8000 16.9190 0.1190 97
4 D4 17.0400 17.1590 0.1190 97
4 E3 32.6400 32.7590 0.1190 97
4 B3 32.8800 32.9990 0.1190 97
4 B3 33.1200 33.2390 0.1190 97
4 B3 33.3600 33.4790 0.1190 97
4 B3 33.6000 33.7190 0.1190 97
4 A3 33.8400 33.9590 0.1190 97
4 G3 34.0800 34.1990 0.1190 97
4 D3 34.3200 34.4390 0.1190 97
4 E3 34.5600 34.6790 0.1190 97
4 B3 34.8000 34.9190 0.1190 97
4 B3 35.0400 35.1590 0.1190 97
4 B3 35.2800 35.3990 0.1190 97
4 B3 35.5200 35.6390 0.1190 97
4 A3 35.7600 35.8790 0.1190 97
4 G3 36.0000 36.1190 0.1190 97
4 D3 36.2400 36.3590 0.1190 97
4 E3 36.4800 36.5990 0.1190 97
4 B3 36.7200 36.8390 0.1190 97
4 B3 36.9600 37.0790 0.1190 97
4 B3 37.2000 37.3190 0.1190 97
4 B3 37.4400 37.5590 0.1190 97
4 A3 37.6800 37.7990 0.1190 97
4 G3 37.9200 38.0390 0.1190 97
4 D3 38.1600 38.2790 0.1190 97
4 E3 38.4000 38.5190 0.1190 97
4 B3 38.6400 38.7590 0.1190 97
4 B3 38.8800 38.9990 0.1190 97
4 B3 39.1200 39.2390 0.1190 97
4 B3 39.3600 39.4790 0.1190 97
4 A3 39.6000 39.7190 0.1190 97
4 G3 39.8400 39.9590 0.1190 97
4 D3 40.0800 40.1990 0.1190 97
4 E3 40.3200 40.4390 0.1190 97
4 B3 40.5600 40.6790 0.1190 97
4 B3 40.8000 40.9190 0.1190 97
4 B3 41.0400 41.1590 0.1190 97
4 B3 41.2800 41.3990 0.1190 97
4 A3 41.5200 41.6390 0.1190 97
4 G3 41.7600 41.8790 0.1190 97
4 D3 42.0000 42.1190 0.1190 97
4 E3 42.2400 42.3590 0.1190 97
4 B3 42.4800 42.5990 0.1190 97
4 B3 42.7200 42.8390 0.1190 97
4 B3 42.9600 43.0790 0.1190 97
4 B3 43.2000 43.3190 0.1190 97
4 A3 43.4400 43.5590 0.1190 97
4 G3 43.6800 43.7990 0.1190 97
4 D3 43.9200 44.0390 0.1190 97
4 E3 44.1600 44.2790 0.1190 97
4 B3 44.4000 44.5190 0.1190 97
4 B3 44.6400 44.7590 0.1190 97
4 B3 44.8800 44.9990 0.1190 97
4 B3 45.1200 45.2390 0.1190 97
4 A3 45.3600 45.4790 0.1190 97
4 G3 45.6000 45.7190 0.1190 97
4 D3 45.8400 45.9590 0.1190 97
4 E3 48.0000 48.1190 0.1190 97
4 B3 48.2400 48.3590 0.1190 97
4 B3 48.4800 48.5990 0.1190 97
4 B3 48.7200 48.8390 0.1190 97
4 B3 48.9600 49.0790 0.1190 97
4 A3 49.2000 49.3190 0.1190 97
4 G3 49.4400 49.5590 0.1190 97
4 D3 49.6800 49.7990 0.1190 97
4 E3 49.9200 50.0390 0.1190 97
4 B3 50.1600 50.2790 0.1190 97
4 B3 50.4000 50.5190 0.1190 97
4 B3 50.6400 50.7590 0.1190 97
4 B3 50.8800 50.9990 0.1190 97
4 A3 51.1200 51.2390 0.1190 97
4 G3 51.3600 51.4790 0.1190 97
4 D3 51.6000 51.7190 0.1190 97
4 E3 51.8400 51.9590 0.1190 97
4 B3 52.0800 52.1990 0.1190 97
4 B3 52.3200 52.4390 0.1190 97
4 B3 52.5600 52.6790 0.1190 97
4 B3 52.8000 52.9190 0.1190 97
4 A3 53.0400 53.1590 0.1190 97
4 G3 53.2800 53.3990 0.1190 97
4 D3 53.5200 53.6390 0.1190 97
4 E3 53.7600 53.8790 0.1190 97
4 B3 54.0000 54.1190 0.1190 97
4 B3 54.2400 54.3590 0.1190 97
4 B3 54.4800 54.5990 0.1190 97
4 B3 54.7200 54.8390 0.1190 97
4 A3 54.9600 55.0790 0.1190 97
4 G3 55.2000 55.3190 0.1190 97
4 D3 55.4400 55.5590 0.1190 97
4 E3 55.6800 55.7990 0.1190 97
4 B3 55.9200 56.0390 0.1190 97
4 B3 56.1600 56.2790 0.1190 97
4 B3 56.4000 56.5190 0.1190 97
4 B3 56.6400 56.7590 0.1190 97
4 A3 56.8800 56.9990 0.1190 97
4 G3 57.1200 57.2390 0.1190 97
4 D3 57.3600 57.4790 0.1190 97
4 E3 57.6000 57.7190 0.1190 97
4 B3 57.8400 57.9590 0.1190 97
4 B3 58.0800 58.1990 0.1190 97
4 B3 58.3200 58.4390 0.1190 97
4 B3 58.5600 58.6790 0.1190 97
4 A3 58.8000 58.9190 0.1190 97
4 G3 59.0400 59.1590 0.1190 97
4 D3 59.2800 59.3990 0.1190 97
4 E3 59.5200 59.6390 0.1190 97
4 B3 59.7600 59.8790 0.1190 97
4 B3 60.0000 60.1190 0.1190 97
4 B3 60.2400 60.3590 0.1190 97
4 B3 60.4800 60.5990 0.1190 97
4 A3 60.7200 60.8390 0.1190 97
4 G3 60.9600 61.0790 0.1190 97
4 D3 61.2000 61.3190 0.1190 97
4 E3 61.4400 61.5590 0.1190 97
4 B3 61.6800 61.7990 0.1190 97
4 B3 61.9200 62.0390 0.1190 97
4 B3 62.1600 62.2790 0.1190 97
4 B3 62.4000 62.5190 0.1190 97
4 A3 62.6400 62.7590 0.1190 97
4 G3 62.8800 62.9990 0.1190 97
4 D3 63.1200 63.2390 0.1190 97
4 E3 63.3600 63.4790 0.1190 97
4 B3 63.6000 63.7190 0.1190 97
4 B3 63.8400 63.9590 0.1190 97
4 B3 64.0800 64.1990 0.1190 97
4 B3 64.3200 64.4390 0.1190 97
4 A3 64.5600 64.6790 0.1190 97
4 G3 64.8000 64.9190 0.1190 97
4 D3 65.0400 65.1590 0.1190 97
4 E3 65.2800 65.3990 0.1190 97
4 B3 65.5200 65.6390 0.1190 97
4 B3 65.7600 65.8790 0.1190 97
4 B3 66.0000 66.1190 0.1190 97
4 B3 66.2400 66.3590 0.1190 97
4 A3 66.4800 66.5990 0.1190 97
4 G3 66.7200 66.8390 0.1190 97
4 D3 66.9600 67.0790 0.1190 97
4 E3 67.2000 67.3190 0.1190 97
4 B3 67.4400 67.5590 0.1190 97
4 B3 67.6800 67.7990 0.1190 97
4 B3 67.9200 68.0390 0.1190 97
4 B3 68.1600 68.2790 0.1190 97
4 A3 68.4000 68.5190 0.1190 97
4 G3 68.6400 68.7590 0.1190 97
4 D3 68.8800 68.9990 0.1190 97
4 E3 69.1200 69.2390 0.1190 97
4 B3 69.3600 69.4790 0.1190 97
4 B3 69.6000 69.7190 0.1190 97
4 B3 69.8400 69.9590 0.1190 97
4 B3 70.0800 70.1990 0.1190 97
4 A3 70.3200 70.4390 0.1190 97
4 G3 70.5600 70.6790 0.1190 97
4 D3 70.8000 70.9190 0.1190 97
4 E3 71.0400 71.1590 0.1190 97
4 B3 71.2800 71.3990 0.1190 97
4 B3 71.5200 71.6390 0.1190 97
4 B3 71.7600 71.8790 0.1190 97
4 B3 72.0000 72.1190 0.1190 97
4 A3 72.2400 72.3590 0.1190 97
4 G3 72.4800 72.5990 0.1190 97
4 D3 72.7200 72.8390 0.1190 97
4 E3 72.9600 73.0790 0.1190 97
4 B3 73.2000 73.3190 0.1190 97
4 B3 73.4400 73.5590 0.1190 97
4 B3 73.6800 73.7990 0.1190 97
4 B3 73.9200 74.0390 0.1190 97
4 A3 74.1600 74.2790 0.1190 97
4 G3 74.4000 74.5190 0.1190 97
4 D3 74.6400 74.7590 0.1190 97
4 E3 74.8800 74.9990 0.1190 97
4 B3 75.1200 75.2390 0.1190 97
4 B3 75.3600 75.4790 0.1190 97
4 B3 75.6000 75.7190 0.1190 97
4 B3 75.8400 75.9590 0.1190 97
4 A3 76.0800 76.1990 0.1190 97
4 G3 76.3200 76.4390 0.1190 97
4 D3 76.5600 76.6790 0.1190 97
4 E3 76.8000 76.9190 0.1190 97
4 B3 77.0400 77.1590 0.1190 97
4 B3 77.2800 77.3990 0.1190 97
4 B3 77.5200 77.6390 0.1190 97
4 B3 77.7600 77.8790 0.1190 97
4 A3 78.0000 78.1190 0.1190 97
4 G3 78.2400 78.3590 0.1190 97
4 D3 78.4800 78.5990 0.1190 97
4 E3 94.0800 94.1990 0.1190 97
4 B3 94.3200 94.4390 0.1190 97
4 B3 94.5600 94.6790 0.1190 97
4 B3 94.8000 94.9190 0.1190 97
4 B3 95.0400 95.1590 0.1190 97
4 A3 95.2800 95.3990 0.1190 97
4 G3 95.5200 95.6390 0.1190 97
4 D3 95.7600 95.8790 0.1190 97
4 E3 96.0000 96.1190 0.1190 97
4 B3 96.2400 96.3590 0.1190 97
4 B3 96.4800 96.5990 0.1190 97
4 B3 96.7200 96.8390 0.1190 97
4 B3 96.9600 97.0790 0.1190 97
4 A3 97.2000 97.3190 0.1190 97
4 G3 97.4400 97.5590 0.1190 97
4 D3 97.6800 97.7990 0.1190 97
4 E3 97.9200 98.0390 0.1190 97
4 B3 98.1600 98.2790 0.1190 97
4 B3 98.4000 98.5190 0.1190 97
4 B3 98.6400 98.7590 0.1190 97
4 B3 98.8800 98.9990 0.1190 97
4 A3 99.1200 99.2390 0.1190 97
4 G3 99.3600 99.4790 0.1190 97
4 D3 99.6000 99.7190 0.1190 97
4 E3 99.8400 99.9590 0.1190 97
4 B3 100.0800 100.1990 0.1190 97
4 B3 100.3200 100.4390 0.1190 97
4 B3 100.5600 100.6790 0.1190 97
4 B3 100.8000 100.9190 0.1190 97
4 A3 101.0400 101.1590 0.1190 97
4 G3 101.2800 101.3990 0.1190 97
4 D3 101.5200 101.6390 0.1190 97
4 E3 101.7600 101.8790 0.1190 97
4 B3 102.0000 102.1190 0.1190 97
4 B3 102.2400 102.3590 0.1190 97
4 B3 102.4800 102.5990 0.1190 97
4 B3 102.7200 102.8390 0.1190 97
4 A3 102.9600 103.0790 0.1190 97
4 G3 103.2000 103.3190 0.1190 97
4 D3 103.4400 103.5590 0.1190 97
4 E3 103.6800 103.7990 0.1190 97
4 B3 103.9200 104.0390 0.1190 97
4 B3 104.1600 104.2790 0.1190 97
4 B3 104.4000 104.5190 0.1190 97
4 B3 104.6400 104.7590 0.1190 97
4 A3 104.8800 104.9990 0.1190 97
4 G3 105.1200 105.2390 0.1190 97
4 D3 105.3600 105.4790 0.1190 97
4 E3 105.6000 105.7190 0.1190 97
4 B3 105.8400 105.9590 0.1190 97
4 B3 106.0800 106.1990 0.1190 97
4 B3 106.3200 106.4390 0.1190 97
4 B3 106.5600 106.6790 0.1190 97
4 A3 106.8000 106.9190 0.1190 97
4 G3 107.0400 107.1590 0.1190 97
4 D3 107.2800 107.3990 0.1190 97
4 E3 109.4400 109.5590 0.1190 97
4 B3 109.6800 109.7990 0.1190 97
4 B3 109.9200 110.0390 0.1190 97
4 B3 110.1600 110.2790 0.1190 97
4 B3 110.4000 110.5190 0.1190 97
4 A3 110.6400 110.7590 0.1190 97
4 G3 110.8800 110.9990 0.1190 97
4 D3 111.1200 111.2390 0.1190 97
4 E3 111.3600 111.4790 0.1190 97
4 B3 111.6000 111.7190 0.1190 97
4 B3 111.8400 111.9590 0.1190 97
4 B3 112.0800 112.1990 0.1190 97
4 B3 112.3200 112.4390 0.1190 97
4 A3 112.5600 112.6790 0.1190 97
4 G3 112.8000 112.9190 0.1190 97
4 D3 113.0400 113.1590 0.1190 97
4 E3 113.2800 113.3990 0.1190 97
4 B3 113.5200 113.6390 0.1190 97
4 B3 113.7600 113.8790 0.1190 97
4 B3 114.0000 114.1190 0.1190 97
4 B3 114.2400 114.3590 0.1190 97
4 A3 114.4800 114.5990 0.1190 97
4 G3 114.7200 114.8390 0.1190 97
4 D3 114.9600 115.0790 0.1190 97
4 E3 115.2000 115.3190 0.1190 97
4 B3 115.4400 115.5590 0.1190 97
4 B3 115.6800 115.7990 0.1190 97
4 B3 115.9200 116.0390 0.1190 97
4 B3 116.1600 116.2790 0.1190 97
4 A3 116.4000 116.5190 0.1190 97
4 G3 116.6400 116.7590 0.1190 97
4 D3 116.8800 116.9990 0.1190 97
4 E3 117.1200 117.2390 0.1190 97
4 B3 117.3600 117.4790 0.1190 97
4 B3 117.6000 117.7190 0.1190 97
4 B3 117.8400 117.9590 0.1190 97
4 B3 118.0800 118.1990 0.1190 97
4 A3 118.3200 118.4390 0.1190 97
4 G3 118.5600 118.6790 0.1190 97
4 D3 118.8000 118.9190 0.1190 97
4 E3 119.0400 119.1590 0.1190 97
4 B3 119.2800 119.3990 0.1190 97
4 B3 119.5200 119.6390 0.1190 97
4 B3 119.7600 119.8790 0.1190 97
4 B3 120.0000 120.1190 0.1190 97
4 A3 120.2400 120.3590 0.1190 97
4 G3 120.4800 120.5990 0.1190 97
4 D3 120.7200 120.8390 0.1190 97
4 E3 120.9600 121.0790 0.1190 97
4 B3 121.2000 121.3190 0.1190 97
4 B3 121.4400 121.5590 0.1190 97
4 B3 121.6800 121.7990 0.1190 97
4 B3 121.9200 122.0390 0.1190 97
4 A3 122.1600 122.2790 0.1190 97
4 G3 122.4000 122.5190 0.1190 97
4 D3 122.6400 122.7590 0.1190 97
4 E3 122.8800 122.9990 0.1190 97
4 B3 123.1200 123.2390 0.1190 97
4 B3 123.3600 123.4790 0.1190 97
4 B3 123.6000 123.7190 0.1190 97
4 B3 123.8400 123.9590 0.1190 97
4 A3 124.0800 124.1990 0.1190 97
4 G3 124.3200 124.4390 0.1190 97
4 D3 124.5600 124.6790 0.1190 97
4 E3 124.8000 124.9190 0.1190 97
4 B3 125.0400 125.1590 0.1190 97
4 B3 125.2800 125.3990 0.1190 97
4 B3 125.5200 125.6390 0.1190 97
4 B3 125.7600 125.8790 0.1190 97
4 A3 126.0000 126.1190 0.1190 97
4 G3 126.2400 126.3590 0.1190 97
4 D3 126.4800 126.5990 0.1190 97
4 E3 126.7200 126.8390 0.1190 97
4 B3 126.9600 127.0790 0.1190 97
4 B3 127.2000 127.3190 0.1190 97
4 B3 127.4400 127.5590 0.1190 97
4 B3 127.6800 127.7990 0.1190 97
4 A3 127.9200 128.0390 0.1190 97
4 G3 128.1600 128.2790 0.1190 97
4 D3 128.4000 128.5190 0.1190 97
4 E3 128.6400 128.7590 0.1190 97
4 B3 128.8800 128.9990 0.1190 97
4 B3 129.1200 129.2390 0.1190 97
4 B3 129.3600 129.4790 0.1190 97
4 B3 129.6000 129.7190 0.1190 97
4 A3 129.8400 129.9590 0.1190 97
4 G3 130.0800 130.1990 0.1190 97
4 D3 130.3200 130.4390 0.1190 97
4 E3 130.5600 130.6790 0.1190 97
4 B3 130.8000 130.9190 0.1190 97
4 B3 131.0400 131.1590 0.1190 97
4 B3 131.2800 131.3990 0.1190 97
4 B3 131.5200 131.6390 0.1190 97
4 A3 131.7600 131.8790 0.1190 97
4 G3 132.0000 132.1190 0.1190 97
4 D3 132.2400 132.3590 0.1190 97
4 E3 132.4800 132.5990 0.1190 97
4 B3 132.7200 132.8390 0.1190 97
4 B3 132.9600 133.0790 0.1190 97
4 B3 133.2000 133.3190 0.1190 97
4 B3 133.4400 133.5590 0.1190 97
4 A3 133.6800 133.7990 0.1190 97
4 G3 133.9200 134.0390 0.1190 97
4 D3 134.1600 134.2790 0.1190 97
4 E3 134.4000 134.5190 0.1190 97
4 B3 134.6400 134.7590 0.1190 97
4 B3 134.8800 134.9990 0.1190 97
4 B3 135.1200 135.2390 0.1190 97
4 B3 135.3600 135.4790 0.1190 97
4 A3 135.6000 135.7190 0.1190 97
4 G3 135.8400 135.9590 0.1190 97
4 D3 136.0800 136.1990 0.1190 97
4 E3 136.3200 136.4390 0.1190 97
4 B3 136.5600 136.6790 0.1190 97
4 B3 136.8000 136.9190 0.1190 97
4 B3 137.0400 137.1590 0.1190 97
4 B3 137.2800 137.3990 0.1190 97
4 A3 137.5200 137.6390 0.1190 97
4 G3 137.7600 137.8790 0.1190 97
4 D3 138.0000 138.1190 0.1190 97
4 E3 138.2400 138.3590 0.1190 97
4 B3 138.4800 138.5990 0.1190 97
4 B3 138.7200 138.8390 0.1190 97
4 B3 138.9600 139.0790 0.1190 97
4 B3 139.2000 139.3190 0.1190 97
4 A3 139.4400 139.5590 0.1190 97
4 G3 139.6800 139.7990 0.1190 97
4 D3 139.9200 140.0390 0.1190 97
4 E3 140.1600 140.2790 0.1190 97
4 B3 140.4000 140.5190 0.1190 97
4 B3 140.6400 140.7590 0.1190 97
4 B3 140.8800 140.9990 0.1190 97
4 B3 141.1200 141.2390 0.1190 97
4 A3 141.3600 141.4790 0.1190 97
4 G3 141.6000 141.7190 0.1190 97
4 D3 141.8400 141.9590 0.1190 97
4 E3 142.0800 142.1990 0.1190 97
4 B3 142.3200 142.4390 0.1190 97
4 B3 142.5600 142.6790 0.1190 97
4 B3 142.8000 142.9190 0.1190 97
4 B3 143.0400 143.1590 0.1190 97
4 A3 143.2800 143.3990 0.1190 97
4 G3 143.5200 143.6390 0.1190 97
4 D3 143.7600 143.8790 0.1190 97
4 E3 144.0000 144.1190 0.1190 97
4 B3 144.2400 144.3590 0.1190 97
4 B3 144.4800 144.5990 0.1190 97
4 B3 144.7200 144.8390 0.1190 97
4 B3 144.9600 145.0790 0.1190 97
4 A3 145.2000 145.3190 0.1190 97
4 G3 145.4400 145.5590 0.1190 97
4 D3 145.6800 145.7990 0.1190 97
4 E3 145.9200 146.0390 0.1190 97
4 B3 146.1600 146.2790 0.1190 97
4 B3 146.4000 146.5190 0.1190 97
4 B3 146.6400 146.7590 0.1190 97
4 B3 146.8800 146.9990 0.1190 97
4 A3 147.1200 147.2390 0.1190 97
4 G3 147.3600 147.4790 0.1190 97
4 D3 147.6000 147.7190 0.1190 97
4 E3 147.8400 147.9590 0.1190 97
4 B3 148.0800 148.1990 0.1190 97
4 B3 148.3200 148.4390 0.1190 97
4 B3 148.5600 148.6790 0.1190 97
4 B3 148.8000 148.9190 0.1190 97
4 A3 149.0400 149.1590 0.1190 97
4 G3 149.2800 149.3990 0.1190 97
4 D3 149.5200 149.6390 0.1190 97
4 E3 149.7600 149.8790 0.1190 97
4 B3 150.0000 150.1190 0.1190 97
4 B3 150.2400 150.3590 0.1190 97
4 B3 150.4800 150.5990 0.1190 97
4 B3 150.7200 150.8390 0.1190 97
4 A3 150.9600 151.0790 0.1190 97
4 G3 151.2000 151.3190 0.1190 97
4 E3 155.5200 155.6390 0.1190 97
4 B3 155.7600 155.8790 0.1190 97
4 B3 156.0000 156.1190 0.1190 97
4 B3 156.2400 156.3590 0.1190 97
4 B3 156.4800 156.5990 0.1190 97
4 A3 156.7200 156.8390 0.1190 97
4 G3 156.9600 157.0790 0.1190 97
4 D3 157.2000 157.3190 0.1190 97
4 E3 157.4400 157.5590 0.1190 97
4 B3 157.6800 157.7990 0.1190 97
4 B3 157.9200 158.0390 0.1190 97
4 B3 158.1600 158.2790 0.1190 97
4 B3 158.4000 158.5190 0.1190 97
4 A3 158.6400 158.7590 0.1190 97
4 G3 158.8800 158.9990 0.1190 97
4 D3 159.1200 159.2390 0.1190 97
4 E3 159.3600 159.4790 0.1190 97
4 B3 159.6000 159.7190 0.1190 97
4 B3 159.8400 159.9590 0.1190 97
4 B3 160.0800 160.1990 0.1190 97
4 B3 160.3200 160.4390 0.1190 97
4 A3 160.5600 160.6790 0.1190 97
4 G3 160.8000 160.9190 0.1190 97
4 D3 161.0400 161.1590 0.1190 97
4 E3 161.2800 161.3990 0.1190 97
4 B3 161.5200 161.6390 0.1190 97
4 B3 161.7600 161.8790 0.1190 97
4 B3 162.0000 162.1190 0.1190 97
4 B3 162.2400 162.3590 0.1190 97
4 A3 162.4800 162.5990 0.1190 97
4 G3 162.7200 162.8390 0.1190 97
4 D3 162.9600 163.0790 0.1190 97
4 E3 163.2000 163.3190 0.1190 97
4 B3 163.4400 163.5590 0.1190 97
4 B3 163.6800 163.7990 0.1190 97
4 B3 163.9200 164.0390 0.1190 97
4 B3 164.1600 164.2790 0.1190 97
4 A3 164.4000 164.5190 0.1190 97
4 G3 164.6400 164.7590 0.1190 97
4 D3 164.8800 164.9990 0.1190 97
4 E3 165.1200 165.2390 0.1190 97
4 B3 165.3600 165.4790 0.1190 97
4 B3 165.6000 165.7190 0.1190 97
4 B3 165.8400 165.9590 0.1190 97
4 B3 166.0800 166.1990 0.1190 97
4 A3 166.3200 166.4390 0.1190 97
4 G3 166.5600 166.6790 0.1190 97
4 D3 166.8000 166.9190 0.1190 97
4 E3 167.0400 167.1590 0.1190 97
4 B3 167.2800 167.3990 0.1190 97
4 B3 167.5200 167.6390 0.1190 97
4 B3 167.7600 167.8790 0.1190 97
4 B3 168.0000 168.1190 0.1190 97
4 A3 168.2400 168.3590 0.1190 97
4 G3 168.4800 168.5990 0.1190 97
4 D3 168.7200 168.8390 0.1190 97
4 E3 168.9600 169.0790 0.1190 97
4 B3 169.2000 169.3190 0.1190 97
4 B3 169.4400 169.5590 0.1190 97
4 B3 169.6800 169.7990 0.1190 97
4 B3 169.9200 170.0390 0.1190 97
4 A3 170.1600 170.2790 0.1190 97
4 G3 170.4000 170.5190 0.1190 97
4 D3 170.6400 170.7590 0.1190 97
4 E3 170.8800 170.9990 0.1190 97
4 B3 171.1200 171.2390 0.1190 97
4 B3 171.3600 171.4790 0.1190 97
4 B3 171.6000 171.7190 0.1190 97
4 B3 171.8400 171.9590 0.1190 97
4 A3 172.0800 172.1990 0.1190 97
4 G3 172.3200 172.4390 0.1190 97
4 D3 172.5600 172.6790 0.1190 97
4 E3 172.8000 172.9190 0.1190 97
4 B3 173.0400 173.1590 0.1190 97
4 B3 173.2800 173.3990 0.1190 97
4 B3 173.5200 173.6390 0.1190 97
4 B3 173.7600 173.8790 0.1190 97
4 A3 174.0000 174.1190 0.1190 97
4 G3 174.2400 174.3590 0.1190 97
4 D3 174.4800 174.5990 0.1190 97
4 E3 174.7200 174.8390 0.1190 97
4 B3 174.9600 175.0790 0.1190 97
4 B3 175.2000 175.3190 0.1190 97
4 B3 175.4400 175.5590 0.1190 97
4 B3 175.6800 175.7990 0.1190 97
4 A3 175.9200 176.0390 0.1190 97
4 G3 176.1600 176.2790 0.1190 97
4 D3 176.4000 176.5190 0.1190 97
4 E3 176.6400 176.7590 0.1190 97
4 B3 176.8800 176.9990 0.1190 97
4 B3 177.1200 177.2390 0.1190 97
4 B3 177.3600 177.4790 0.1190 97
4 B3 177.6000 177.7190 0.1190 97
4 A3 177.8400 177.9590 0.1190 97
4 G3 178.0800 178.1990 0.1190 97
4 D3 178.3200 178.4390 0.1190 97
4 E3 178.5600 178.6790 0.1190 97
4 B3 178.8000 178.9190 0.1190 97
4 B3 179.0400 179.1590 0.1190 97
4 B3 179.2800 179.3990 0.1190 97
4 B3 179.5200 179.6390 0.1190 97
4 A3 179.7600 179.8790 0.1190 97
4 G3 180.0000 180.1190 0.1190 97
4 D3 180.2400 180.3590 0.1190 97
4 E3 180.4800 180.5990 0.1190 97
4 B3 180.7200 180.8390 0.1190 97
4 B3 180.9600 181.0790 0.1190 97
4 B3 181.2000 181.3190 0.1190 97
4 B3 181.4400 181.5590 0.1190 97
4 A3 181.6800 181.7990 0.1190 97
4 G3 181.9200 182.0390 0.1190 97
4 D3 182.1600 182.2790 0.1190 97
4 E3 182.4000 182.5190 0.1190 97
4 B3 182.6400 182.7590 0.1190 97
4 B3 182.8800 182.9990 0.1190 97
4 B3 183.1200 183.2390 0.1190 97
4 B3 183.3600 183.4790 0.1190 97
4 A3 183.6000 183.7190 0.1190 97
4 G3 183.8400 183.9590 0.1190 97
4 D3 184.0800 184.1990 0.1190 97
4 E3 184.3200 184.4390 0.1190 97
4 B3 184.5600 184.6790 0.1190 97
4 B3 184.8000 184.9190 0.1190 97
4 B3 185.0400 185.1590 0.1190 97
4 B3 185.2800 185.3990 0.1190 97
4 A3 185.5200 185.6390 0.1190 97
4 G3 185.7600 185.8790 0.1190 97
4 D3 186.0000 186.1190 0.1190 97
4 E3 186.2400 186.3590 0.1190 97
4 B3 186.4800 186.5990 0.1190 97
4 B3 186.7200 186.8390 0.1190 97
4 B3 186.9600 187.0790 0.1190 97
4 B3 187.2000 187.3190 0.1190 97
4 A3 187.4400 187.5590 0.1190 97
4 G3 187.6800 187.7990 0.1190 97
4 D3 187.9200 188.0390 0.1190 97
4 E3 188.1600 188.2790 0.1190 97
4 B3 188.4000 188.5190 0.1190 97
4 B3 188.6400 188.7590 0.1190 97
4 B3 188.8800 188.9990 0.1190 97
4 B3 189.1200 189.2390 0.1190 97
4 A3 189.3600 189.4790 0.1190 97
4 G3 189.6000 189.7190 0.1190 97
4 D3 189.8400 189.9590 0.1190 97
4 E3 190.0800 190.1990 0.1190 97
4 B3 190.3200 190.4390 0.1190 97
4 B3 190.5600 190.6790 0.1190 97
4 B3 190.8000 190.9190 0.1190 97
4 B3 191.0400 191.1590 0.1190 97
4 A3 191.2800 191.3990 0.1190 97
4 G3 191.5200 191.6390 0.1190 97
4 D3 191.7600 191.8790 0.1190 97
4 E3 192.0000 192.1190 0.1190 97
4 B3 192.2400 192.3590 0.1190 97
4 B3 192.4800 192.5990 0.1190 97
4 B3 192.7200 192.8390 0.1190 97
4 B3 192.9600 193.0790 0.1190 97
4 A3 193.2000 193.3190 0.1190 97
4 G3 193.4400 193.5590 0.1190 97
4 D3 193.6800 193.7990 0.1190 97
4 E3 193.9200 194.0390 0.1190 97
4 B3 194.1600 194.2790 0.1190 97
4 B3 194.4000 194.5190 0.1190 97
4 B3 194.6400 194.7590 0.1190 97
4 B3 194.8800 194.9990 0.1190 97
4 A3 195.1200 195.2390 0.1190 97
4 G3 195.3600 195.4790 0.1190 97
4 D3 195.6000 195.7190 0.1190 97
4 E3 195.8400 195.9590 0.1190 97
4 B3 196.0800 196.1990 0.1190 97
4 B3 196.3200 196.4390 0.1190 97
4 B3 196.5600 196.6790 0.1190 97
4 B3 196.8000 196.9190 0.1190 97
4 A3 197.0400 197.1590 0.1190 97
4 G3 197.2800 197.3990 0.1190 97
4 D3 197.5200 197.6390 0.1190 97
4 E3 197.7600 197.8790 0.1190 97
4 B3 198.0000 198.1190 0.1190 97
4 B3 198.2400 198.3590 0.1190 97
4 B3 198.4800 198.5990 0.1190 97
4 B3 198.7200 198.8390 0.1190 97
4 A3 198.9600 199.0790 0.1190 97
4 G3 199.2000 199.3190 0.1190 97
4 D3 199.4400 199.5590 0.1190 97
4 E3 199.6800 199.7990 0.1190 97
4 B3 199.9200 200.0390 0.1190 97
4 B3 200.1600 200.2790 0.1190 97
4 B3 200.4000 200.5190 0.1190 97
4 B3 200.6400 200.7590 0.1190 97
4 A3 200.8800 200.9990 0.1190 97
4 G3 201.1200 201.2390 0.1190 97
4 D3 201.3600 201.4790 0.1190 97
4 E3 201.6000 201.7190 0.1190 97
4 B3 201.8400 201.9590 0.1190 97
4 B3 202.0800 202.1990 0.1190 97
4 B3 202.3200 202.4390 0.1190 97
4 B3 202.5600 202.6790 0.1190 97
4 A3 202.8000 202.9190 0.1190 97
4 G3 203.0400 203.1590 0.1190 97
4 D3 203.2800 203.3990 0.1190 97
4 E3 203.5200 203.6390 0.1190 97
4 B3 203.7600 203.8790 0.1190 97
4 B3 204.0000 204.1190 0.1190 97
4 B3 204.2400 204.3590 0.1190 97
4 B3 204.4800 204.5990 0.1190 97
4 A3 204.7200 204.8390 0.1190 97
4 G3 204.9600 205.0790 0.1190 97
4 D3 205.2000 205.3190 0.1190 97
4 E3 205.4400 205.5590 0.1190 97
4 B3 205.6800 205.7990 0.1190 97
4 B3 205.9200 206.0390 0.1190 97
4 B3 206.1600 206.2790 0.1190 97
4 B3 206.4000 206.5190 0.1190 97
4 A3 206.6400 206.7590 0.1190 97
4 G3 206.8800 206.9990 0.1190 97
4 D3 207.1200 207.2390 0.1190 97
4 E3 207.3600 207.4790 0.1190 97
4 B3 207.6000 207.7190 0.1190 97
4 B3 207.8400 207.9590 0.1190 97
4 B3 208.0800 208.1990 0.1190 97
4 B3 208.3200 208.4390 0.1190 97
4 A3 208.5600 208.6790 0.1190 97
4 G3 208.8000 208.9190 0.1190 97
4 D3 209.0400 209.1590 0.1190 97
4 E3 209.2800 209.3990 0.1190 97
4 B3 209.5200 209.6390 0.1190 97
4 B3 209.7600 209.8790 0.1190 97
4 B3 210.0000 210.1190 0.1190 97
4 B3 210.2400 210.3590 0.1190 97
4 A3 210.4800 210.5990 0.1190 97
4 G3 210.7200 210.8390 0.1190 97
4 D3 210.9600 211.0790 0.1190 97
4 E3 211.2000 211.3190 0.1190 97
4 B3 211.4400 211.5590 0.1190 97
4 B3 211.6800 211.7990 0.1190 97
4 B3 211.9200 212.0390 0.1190 97
4 B3 212.1600 212.2790 0.1190 97
4 A3 212.4000 212.5190 0.1190 97
4 G3 212.6400 212.7590 0.1190 97
4 D3 212.8800 212.9990 0.1190 97
4 E3 213.1200 213.2390 0.1190 97
4 B3 213.3600 213.4790 0.1190 97
4 B3 213.6000 213.7190 0.1190 97
4 B3 213.8400 213.9590 0.1190 97
4 B3 214.0800 214.1990 0.1190 97
4 A3 214.3200 214.4390 0.1190 97
4 G3 214.5600 214.6790 0.1190 97
4 D3 214.8000 214.9190 0.1190 97
4 E3 215.0400 215.1590 0.1190 97
4 B3 215.2800 215.3990 0.1190 97
4 B3 215.5200 215.6390 0.1190 97
4 B3 215.7600 215.8790 0.1190 97
4 B3 216.0000 216.1190 0.1190 97
4 A3 216.2400 216.3590 0.1190 97
4 G3 216.4800 216.5990 0.1190 97
4 D3 216.7200 216.8390 0.1190 97
5 E4 1.9200 2.0390 0.1190 97
5 B4 2.1600 2.2790 0.1190 97
5 B4 2.4000 2.5190 0.1190 97
5 B4 2.6400 2.7590 0.1190 97
5 B4 2.8800 2.9990 0.1190 97
5 A4 3.1200 3.2390 0.1190 97
5 G4 3.3600 3.4790 0.1190 97
5 D4 3.6000 3.7190 0.1190 97
5 E4 3.8400 3.9590 0.1190 97
5 B4 4.0800 4.1990 0.1190 97
5 B4 4.3200 4.4390 0.1190 97
5 B4 4.5600 4.6790 0.1190 97
5 B4 4.8000 4.9190 0.1190 97
5 A4 5.0400 5.1590 0.1190 97
5 G4 5.2800 5.3990 0.1190 97
5 D4 5.5200 5.6390 0.1190 97
5 E4 5.7600 5.8790 0.1190 97
5 B4 6.0000 6.1190 0.1190 97
5 B4 6.2400 6.3590 0.1190 97
5 B4 6.4800 6.5990 0.1190 97
5 B4 6.7200 6.8390 0.1190 97
5 A4 6.9600 7.0790 0.1190 97
5 G4 7.2000 7.3190 0.1190 97
5 D4 7.4400 7.5590 0.1190 97
5 E4 7.6800 7.7990 0.1190 97
5 B4 7.9200 8.0390 0.1190 97
5 B4 8.1600 8.2790 0.1190 97
5 B4 8.4000 8.5190 0.1190 97
5 B4 8.6400 8.7590 0.1190 97
5 A4 8.8800 8.9990 0.1190 97
5 G4 9.1200 9.2390 0.1190 97
5 D4 9.3600 9.4790 0.1190 97
5 E4 9.6000 9.7190 0.1190 97
5 B4 9.8400 9.9590 0.1190 97
5 B4 10.0800 10.1990 0.1190 97
5 B4 10.3200 10.4390 0.1190 97
5 B4 10.5600 10.6790 0.1190 97
5 A4 10.8000 10.9190 0.1190 97
5 G4 11.0400 11.1590 0.1190 97
5 D4 11.2800 11.3990 0.1190 97
5 E4 11.5200 11.6390 0.1190 97
5 B4 11.7600 11.8790 0.1190 97
5 B4 12.0000 12.1190 0.1190 97
5 B4 12.2400 12.3590 0.1190 97
5 B4 12.4800 12.5990 0.1190 97
5 A4 12.7200 12.8390 0.1190 97
5 G4 12.9600 13.0790 0.1190 97
5 D4 13.2000 13.3190 0.1190 97
5 E4 13.4400 13.5590 0.1190 97
5 B4 13.6800 13.7990 0.1190 97
5 B4 13.9200 14.0390 0.1190 97
5 B4 14.1600 14.2790 0.1190 97
5 B4 14.4000 14.5190 0.1190 97
5 A4 14.6400 14.7590 0.1190 97
5 G4 14.8800 14.9990 0.1190 97
5 D4 15.1200 15.2390 0.1190 97
5 E4 15.3600 15.4790 0.1190 97
5 B4 15.6000 15.7190 0.1190 97
5 B4 15.8400 15.9590 0.1190 97
5 B4 16.0800 16.1990 0.1190 97
5 B4 16.3200 16.4390 0.1190 97
5 A4 16.5600 16.6790 0.1190 97
5 G4 16.8000 16.9190 0.1190 97
5 D4 17.0400 17.1590 0.1190 97
5 E4 32.6400 32.7590 0.1190 97
5 B4 32.8800 32.9990 0.1190 97
5 B4 33.1200 33.2390 0.1190 97
5 B4 33.3600 33.4790 0.1190 97
5 B4 33.6000 33.7190 0.1190 97
5 A4 33.8400 33.9590 0.1190 97
5 G4 34.0800 34.1990 0.1190 97
5 D4 34.3200 34.4390 0.1190 97
5 E4 34.5600 34.6790 0.1190 97
5 B4 34.8000 34.9190 0.1190 97
5 B4 35.0400 35.1590 0.1190 97
5 B4 35.2800 35.3990 0.1190 97
5 B4 35.5200 35.6390 0.1190 97
5 A4 35.7600 35.8790 0.1190 97
5 G4 36.0000 36.1190 0.1190 97
5 D4 36.2400 36.3590 0.1190 97
5 E4 36.4800 36.5990 0.1190 97
5 B4 36.7200 36.8390 0.1190 97
5 B4 36.9600 37.0790 0.1190 97
5 B4 37.2000 37.3190 0.1190 97
5 B4 37.4400 37.5590 0.1190 97
5 A4 37.6800 37.7990 0.1190 97
5 G4 37.9200 38.0390 0.1190 97
5 D4 38.1600 38.2790 0.1190 97
5 E4 38.4000 38.5190 0.1190 97
5 B4 38.6400 38.7590 0.1190 97
5 B4 38.8800 38.9990 0.1190 97
5 B4 39.1200 39.2390 0.1190 97
5 B4 39.3600 39.4790 0.1190 97
5 A4 39.6000 39.7190 0.1190 97
5 G4 39.8400 39.9590 0.1190 97
5 D4 40.0800 40.1990 0.1190 97
5 E4 40.3200 40.4390 0.1190 97
5 B4 40.5600 40.6790 0.1190 97
5 B4 40.8000 40.9190 0.1190 97
5 B4 41.0400 41.1590 0.1190 97
5 B4 41.2800 41.3990 0.1190 97
5 A4 41.5200 41.6390 0.1190 97
5 G4 41.7600 41.8790 0.1190 97
5 D4 42.0000 42.1190 0.1190 97
5 E4 42.2400 42.3590 0.1190 97
5 B4 42.4800 42.5990 0.1190 97
5 B4 42.7200 42.8390 0.1190 97
5 B4 42.9600 43.0790 0.1190 97
5 B4 43.2000 43.3190 0.1190 97
5 A4 43.4400 43.5590 0.1190 97
5 G4 43.6800 43.7990 0.1190 97
5 D4 43.9200 44.0390 0.1190 97
5 E4 44.1600 44.2790 0.1190 97
5 B4 44.4000 44.5190 0.1190 97
5 B4 44.6400 44.7590 0.1190 97
5 B4 44.8800 44.9990 0.1190 97
5 B4 45.1200 45.2390 0.1190 97
5 A4 45.3600 45.4790 0.1190 97
5 G4 45.6000 45.7190 0.1190 97
5 D4 45.8400 45.9590 0.1190 97
5 E4 48.0000 48.1190 0.1190 97
5 B4 48.2400 48.3590 0.1190 97
5 B4 48.4800 48.5990 0.1190 97
5 B4 48.7200 48.8390 0.1190 97
5 B4 48.9600 49.0790 0.1190 97
5 A4 49.2000 49.3190 0.1190 97
5 G4 49.4400 49.5590 0.1190 97
5 D4 49.6800 49.7990 0.1190 97
5 E4 49.9200 50.0390 0.1190 97
5 B4 50.1600 50.2790 0.1190 97
5 B4 50.4000 50.5190 0.1190 97
5 B4 50.6400 50.7590 0.1190 97
5 B4 50.8800 50.9990 0.1190 97
5 A4 51.1200 51.2390 0.1190 97
5 G4 51.3600 51.4790 0.1190 97
5 D4 51.6000 51.7190 0.1190 97
5 E4 51.8400 51.9590 0.1190 97
5 B4 52.0800 52.1990 0.1190 97
5 B4 52.3200 52.4390 0.1190 97
5 B4 52.5600 52.6790 0.1190 97
5 B4 52.8000 52.9190 0.1190 97
5 A4 53.0400 53.1590 0.1190 97
5 G4 53.2800 53.3990 0.1190 97
5 D4 53.5200 53.6390 0.1190 97
5 E4 53.7600 53.8790 0.1190 97
5 B4 54.0000 54.1190 0.1190 97
5 B4 54.2400 54.3590 0.1190 97
5 B4 54.4800 54.5990 0.1190 97
5 B4 54.7200 54.8390 0.1190 97
5 A4 54.9600 55.0790 0.1190 97
5 G4 55.2000 55.3190 0.1190 97
5 D4 55.4400 55.5590 0.1190 97
5 E4 55.6800 55.7990 0.1190 97
5 B4 55.9200 56.0390 0.1190 97
5 B4 56.1600 56.2790 0.1190 97
5 B4 56.4000 56.5190 0.1190 97
5 B4 56.6400 56.7590 0.1190 97
5 A4 56.8800 56.9990 0.1190 97
5 G4 57.1200 57.2390 0.1190 97
5 D4 57.3600 57.4790 0.1190 97
5 E4 57.6000 57.7190 0.1190 97
5 B4 57.8400 57.9590 0.1190 97
5 B4 58.0800 58.1990 0.1190 97
5 B4 58.3200 58.4390 0.1190 97
5 B4 58.5600 58.6790 0.1190 97
5 A4 58.8000 58.9190 0.1190 97
5 G4 59.0400 59.1590 0.1190 97
5 D4 59.2800 59.3990 0.1190 97
5 E4 59.5200 59.6390 0.1190 97
5 B4 59.7600 59.8790 0.1190 97
5 B4 60.0000 60.1190 0.1190 97
5 B4 60.2400 60.3590 0.1190 97
5 B4 60.4800 60.5990 0.1190 97
5 A4 60.7200 60.8390 0.1190 97
5 G4 60.9600 61.0790 0.1190 97
5 D4 61.2000 61.3190 0.1190 97
5 E4 61.4400 61.5590 0.1190 97
5 B4 61.6800 61.7990 0.1190 97
5 B4 61.9200 62.0390 0.1190 97
5 B4 62.1600 62.2790 0.1190 97
5 B4 62.4000 62.5190 0.1190 97
5 A4 62.6400 62.7590 0.1190 97
5 G4 62.8800 62.9990 0.1190 97
5 D4 63.1200 63.2390 0.1190 97
5 E4 63.3600 63.4790 0.1190 97
5 B4 63.6000 63.7190 0.1190 97
5 B4 63.8400 63.9590 0.1190 97
5 B4 64.0800 64.1990 0.1190 97
5 B4 64.3200 64.4390 0.1190 97
5 A4 64.5600 64.6790 0.1190 97
5 G4 64.8000 64.9190 0.1190 97
5 D4 65.0400 65.1590 0.1190 97
5 E4 65.2800 65.3990 0.1190 97
5 B4 65.5200 65.6390 0.1190 97
5 B4 65.7600 65.8790 0.1190 97
5 B4 66.0000 66.1190 0.1190 97
5 B4 66.2400 66.3590 0.1190 97
5 A4 66.4800 66.5990 0.1190 97
5 G4 66.7200 66.8390 0.1190 97
5 D4 66.9600 67.0790 0.1190 97
5 E4 67.2000 67.3190 0.1190 97
5 B4 67.4400 67.5590 0.1190 97
5 B4 67.6800 67.7990 0.1190 97
5 B4 67.9200 68.0390 0.1190 97
5 B4 68.1600 68.2790 0.1190 97
5 A4 68.4000 68.5190 0.1190 97
5 G4 68.6400 68.7590 0.1190 97
5 D4 68.8800 68.9990 0.1190 97
5 E4 69.1200 69.2390 0.1190 97
5 B4 69.3600 69.4790 0.1190 97
5 B4 69.6000 69.7190 0.1190 97
5 B4 69.8400 69.9590 0.1190 97
5 B4 70.0800 70.1990 0.1190 97
5 A4 70.3200 70.4390 0.1190 97
5 G4 70.5600 70.6790 0.1190 97
5 D4 70.8000 70.9190 0.1190 97
5 E4 71.0400 71.1590 0.1190 97
5 B4 71.2800 71.3990 0.1190 97
5 B4 71.5200 71.6390 0.1190 97
5 B4 71.7600 71.8790 0.1190 97
5 B4 72.0000 72.1190 0.1190 97
5 A4 72.2400 72.3590 0.1190 97
5 G4 72.4800 72.5990 0.1190 97
5 D4 72.7200 72.8390 0.1190 97
5 E4 72.9600 73.0790 0.1190 97
5 B4 73.2000 73.3190 0.1190 97
5 B4 73.4400 73.5590 0.1190 97
5 B4 73.6800 73.7990 0.1190 97
5 B4 73.9200 74.0390 0.1190 97
5 A4 74.1600 74.2790 0.1190 97
5 G4 74.4000 74.5190 0.1190 97
5 D4 74.6400 74.7590 0.1190 97
5 E4 74.8800 74.9990 0.1190 97
5 B4 75.1200 75.2390 0.1190 97
5 B4 75.3600 75.4790 0.1190 97
5 B4 75.6000 75.7190 0.1190 97
5 B4 75.8400 75.9590 0.1190 97
5 A4 76.0800 76.1990 0.1190 97
5 G4 76.3200 76.4390 0.1190 97
5 D4 76.5600 76.6790 0.1190 97
5 E4 76.8000 76.9190 0.1190 97
5 B4 77.0400 77.1590 0.1190 97
5 B4 77.2800 77.3990 0.1190 97
5 B4 77.5200 77.6390 0.1190 97
5 B4 77.7600 77.8790 0.1190 97
5 A4 78.0000 78.1190 0.1190 97
5 G4 78.2400 78.3590 0.1190 97
5 D4 78.4800 78.5990 0.1190 97
5 E4 94.0800 94.1990 0.1190 97
5 B4 94.3200 94.4390 0.1190 97
5 B4 94.5600 94.6790 0.1190 97
5 B4 94.8000 94.9190 0.1190 97
5 B4 95.0400 95.1590 0.1190 97
5 A4 95.2800 95.3990 0.1190 97
5 G4 95.5200 95.6390 0.1190 97
5 D4 95.7600 95.8790 0.1190 97
5 E4 96.0000 96.1190 0.1190 97
5 B4 96.2400 96.3590 0.1190 97
5 B4 96.4800 96.5990 0.1190 97
5 B4 96.7200 96.8390 0.1190 97
5 B4 96.9600 97.0790 0.1190 97
5 A4 97.2000 97.3190 0.1190 97
5 G4 97.4400 97.5590 0.1190 97
5 D4 97.6800 97.7990 0.1190 97
5 E4 97.9200 98.0390 0.1190 97
5 B4 98.1600 98.2790 0.1190 97
5 B4 98.4000 98.5190 0.1190 97
5 B4 98.6400 98.7590 0.1190 97
5 B4 98.8800 98.9990 0.1190 97
5 A4 99.1200 99.2390 0.1190 97
5 G4 99.3600 99.4790 0.1190 97
5 D4 99.6000 99.7190 0.1190 97
5 E4 99.8400 99.9590 0.1190 97
5 B4 100.0800 100.1990 0.1190 97
5 B4 100.3200 100.4390 0.1190 97
5 B4 100.5600 100.6790 0.1190 97
5 B4 100.8000 100.9190 0.1190 97
5 A4 101.0400 101.1590 0.1190 97
5 G4 101.2800 101.3990 0.1190 97
5 D4 101.5200 101.6390 0.1190 97
5 E4 101.7600 101.8790 0.1190 97
5 B4 102.0000 102.1190 0.1190 97
5 B4 102.2400 102.3590 0.1190 97
5 B4 102.4800 102.5990 0.1190 97
5 B4 102.7200 102.8390 0.1190 97
5 A4 102.9600 103.0790 0.1190 97
5 G4 103.2000 103.3190 0.1190 97
5 D4 103.4400 103.5590 0.1190 97
5 E4 103.6800 103.7990 0.1190 97
5 B4 103.9200 104.0390 0.1190 97
5 B4 104.1600 104.2790 0.1190 97
5 B4 104.4000 104.5190 0.1190 97
5 B4 104.6400 104.7590 0.1190 97
5 A4 104.8800 104.9990 0.1190 97
5 G4 105.1200 105.2390 0.1190 97
5 D4 105.3600 105.4790 0.1190 97
5 E4 105.6000 105.7190 0.1190 97
5 B4 105.8400 105.9590 0.1190 97
5 B4 106.0800 106.1990 0.1190 97
5 B4 106.3200 106.4390 0.1190 97
5 B4 106.5600 106.6790 0.1190 97
5 A4 106.8000 106.9190 0.1190 97
5 G4 107.0400 107.1590 0.1190 97
5 D4 107.2800 107.3990 0.1190 97
5 E4 109.4400 109.5590 0.1190 97
5 B4 109.6800 109.7990 0.1190 97
5 B4 109.9200 110.0390 0.1190 97
5 B4 110.1600 110.2790 0.1190 97
5 B4 110.4000 110.5190 0.1190 97
5 A4 110.6400 110.7590 0.1190 97
5 G4 110.8800 110.9990 0.1190 97
5 D4 111.1200 111.2390 0.1190 97
5 E4 111.3600 111.4790 0.1190 97
5 B4 111.6000 111.7190 0.1190 97
5 B4 111.8400 111.9590 0.1190 97
5 B4 112.0800 112.1990 0.1190 97
5 B4 112.3200 112.4390 0.1190 97
5 A4 112.5600 112.6790 0.1190 97
5 G4 112.8000 112.9190 0.1190 97
5 D4 113.0400 113.1590 0.1190 97
5 E4 113.2800 113.3990 0.1190 97
5 B4 113.5200 113.6390 0.1190 97
5 B4 113.7600 113.8790 0.1190 97
5 B4 114.0000 114.1190 0.1190 97
5 B4 114.2400 114.3590 0.1190 97
5 A4 114.4800 114.5990 0.1190 97
5 G4 114.7200 114.8390 0.1190 97
5 D4 114.9600 115.0790 0.1190 97
5 E4 115.2000 115.3190 0.1190 97
5 B4 115.4400 115.5590 0.1190 97
5 B4 115.6800 115.7990 0.1190 97
5 B4 115.9200 116.0390 0.1190 97
5 B4 116.1600 116.2790 0.1190 97
5 A4 116.4000 116.5190 0.1190 97
5 G4 116.6400 116.7590 0.1190 97
5 D4 116.8800 116.9990 0.1190 97
5 E4 117.1200 117.2390 0.1190 97
5 B4 117.3600 117.4790 0.1190 97
5 B4 117.6000 117.7190 0.1190 97
5 B4 117.8400 117.9590 0.1190 97
5 B4 118.0800 118.1990 0.1190 97
5 A4 118.3200 118.4390 0.1190 97
5 G4 118.5600 118.6790 0.1190 97
5 D4 118.8000 118.9190 0.1190 97
5 E4 119.0400 119.1590 0.1190 97
5 B4 119.2800 119.3990 0.1190 97
5 B4 119.5200 119.6390 0.1190 97
5 B4 119.7600 119.8790 0.1190 97
5 B4 120.0000 120.1190 0.1190 97
5 A4 120.2400 120.3590 0.1190 97
5 G4 120.4800 120.5990 0.1190 97
5 D4 120.7200 120.8390 0.1190 97
5 E4 120.9600 121.0790 0.1190 97
5 B4 121.2000 121.3190 0.1190 97
5 B4 121.4400 121.5590 0.1190 97
5 B4 121.6800 121.7990 0.1190 97
5 B4 121.9200 122.0390 0.1190 97
5 A4 122.1600 122.2790 0.1190 97
5 G4 122.4000 122.5190 0.1190 97
5 D4 122.6400 122.7590 0.1190 97
5 E4 122.8800 122.9990 0.1190 97
5 B4 123.1200 123.2390 0.1190 97
5 B4 123.3600 123.4790 0.1190 97
5 B4 123.6000 123.7190 0.1190 97
5 B4 123.8400 123.9590 0.1190 97
5 A4 124.0800 124.1990 0.1190 97
5 G4 124.3200 124.4390 0.1190 97
5 D4 124.5600 124.6790 0.1190 97
5 E4 124.8000 124.9190 0.1190 97
5 B4 125.0400 125.1590 0.1190 97
5 B4 125.2800 125.3990 0.1190 97
5 B4 125.5200 125.6390 0.1190 97
5 B4 125.7600 125.8790 0.1190 97
5 A4 126.0000 126.1190 0.1190 97
5 G4 126.2400 126.3590 0.1190 97
5 D4 126.4800 126.5990 0.1190 97
5 E4 126.7200 126.8390 0.1190 97
5 B4 126.9600 127.0790 0.1190 97
5 B4 127.2000 127.3190 0.1190 97
5 B4 127.4400 127.5590 0.1190 97
5 B4 127.6800 127.7990 0.1190 97
5 A4 127.9200 128.0390 0.1190 97
5 G4 128.1600 128.2790 0.1190 97
5 D4 128.4000 128.5190 0.1190 97
5 E4 128.6400 128.7590 0.1190 97
5 B4 128.8800 128.9990 0.1190 97
5 B4 129.1200 129.2390 0.1190 97
5 B4 129.3600 129.4790 0.1190 97
5 B4 129.6000 129.7190 0.1190 97
5 A4 129.8400 129.9590 0.1190 97
5 G4 130.0800 130.1990 0.1190 97
5 D4 130.3200 130.4390 0.1190 97
5 E4 130.5600 130.6790 0.1190 97
5 B4 130.8000 130.9190 0.1190 97
5 B4 131.0400 131.1590 0.1190 97
5 B4 131.2800 131.3990 0.1190 97
5 B4 131.5200 131.6390 0.1190 97
5 A4 131.7600 131.8790 0.1190 97
5 G4 132.0000 132.1190 0.1190 97
5 D4 132.2400 132.3590 0.1190 97
5 E4 132.4800 132.5990 0.1190 97
5 B4 132.7200 132.8390 0.1190 97
5 B4 132.9600 133.0790 0.1190 97
5 B4 133.2000 133.3190 0.1190 97
5 B4 133.4400 133.5590 0.1190 97
5 A4 133.6800 133.7990 0.1190 97
5 G4 133.9200 134.0390 0.1190 97
5 D4 134.1600 134.2790 0.1190 97
5 E4 134.4000 134.5190 0.1190 97
5 B4 134.6400 134.7590 0.1190 97
5 B4 134.8800 134.9990 0.1190 97
5 B4 135.1200 135.2390 0.1190 97
5 B4 135.3600 135.4790 0.1190 97
5 A4 135.6000 135.7190 0.1190 97
5 G4 135.8400 135.9590 0.1190 97
5 D4 136.0800 136.1990 0.1190 97
5 E4 136.3200 136.4390 0.1190 97
5 B4 136.5600 136.6790 0.1190 97
5 B4 136.8000 136.9190 0.1190 97
5 B4 137.0400 137.1590 0.1190 97
5 B4 137.2800 137.3990 0.1190 97
5 A4 137.5200 137.6390 0.1190 97
5 G4 137.7600 137.8790 0.1190 97
5 D4 138.0000 138.1190 0.1190 97
5 E4 138.2400 138.3590 0.1190 97
5 B4 138.4800 138.5990 0.1190 97
5 B4 138.7200 138.8390 0.1190 97
5 B4 138.9600 139.0790 0.1190 97
5 B4 139.2000 139.3190 0.1190 97
5 A4 139.4400 139.5590 0.1190 97
5 G4 139.6800 139.7990 0.1190 97
5 D4 139.9200 140.0390 0.1190 97
5 B4 140.1600 140.3990 0.2390 50
5 B5 140.1600 140.3990 0.2390 90
5 B4 140.4000 140.6390 0.2390 50
5 B5 140.4000 140.6390 0.2390 90
5 B4 140.8800 141.1190 0.2390 50
5 B5 140.8800 141.1190 0.2390 90
5 B4 141.1200 141.3590 0.2390 50
5 B5 141.1200 141.3590 0.2390 90
5 E4 141.6000 141.8390 0.2390 50
5 E5 141.6000 141.8390 0.2390 90
5 B4 142.0800 142.3190 0.2390 50
5 B5 142.0800 142.3190 0.2390 90
5 B4 142.5600 142.7990 0.2390 50
5 B5 142.5600 142.7990 0.2390 90
5 G4 142.8000 143.0390 0.2390 50
5 G5 142.8000 143.0390 0.2390 90
5 E4 143.0400 143.2790 0.2390 50
5 E5 143.0400 143.2790 0.2390 90
5 E5 144.0000 144.2390 0.2390 50
5 E6 144.0000 144.2390 0.2390 90
5 E5 144.2400 144.4790 0.2390 50
5 E6 144.2400 144.4790 0.2390 90
5 E5 144.7200 144.9590 0.2390 50
5 E6 144.7200 144.9590 0.2390 90
5 E5 144.9600 145.1990 0.2390 50
5 E6 144.9600 145.1990 0.2390 90
5 B4 145.2000 145.4390 0.2390 50
5 B5 145.2000 145.4390 0.2390 90
5 A4 145.4400 145.6790 0.2390 50
5 A5 145.4400 145.6790 0.2390 90
5 B4 145.9200 146.1590 0.2390 50
5 B5 145.9200 146.1590 0.2390 90
5 B4 146.1600 146.3990 0.2390 50
5 B5 146.1600 146.3990 0.2390 90
5 B4 146.4000 146.6390 0.2390 50
5 B5 146.4000 146.6390 0.2390 90
5 B4 146.6400 146.8790 0.2390 50
5 B5 146.6400 146.8790 0.2390 90
5 B4 147.1200 147.3590 0.2390 50
5 B5 147.1200 147.3590 0.2390 90
5 B4 147.6000 147.8390 0.2390 50
5 B5 147.6000 147.8390 0.2390 90
5 A4 147.8400 148.0790 0.2390 50
5 A5 147.8400 148.0790 0.2390 90
5 A4 148.5600 148.7990 0.2390 50
5 A5 148.5600 148.7990 0.2390 90
5 G4 148.8000 149.0390 0.2390 50
5 G5 148.8000 149.0390 0.2390 90
5 A4 149.2800 149.5190 0.2390 50
5 A5 149.2800 149.5190 0.2390 90
5 D5 149.7600 149.9990 0.2390 50
5 D6 149.7600 149.9990 0.2390 90
5 E5 150.0000 150.2390 0.2390 50
5 E6 150.0000 150.2390 0.2390 90
5 B4 150.4800 150.7190 0.2390 50
5 B5 150.4800 150.7190 0.2390 90
5 D5 150.7200 150.9590 0.2390 50
5 D6 150.7200 150.9590 0.2390 90
5 D5 150.9600 151.1990 0.2390 50
5 D6 150.9600 151.1990 0.2390 90
5 E5 151.6800 151.9190 0.2390 50
5 E6 151.6800 151.9190 0.2390 90
5 B4 152.1600 152.3990 0.2390 50
5 B5 152.1600 152.3990 0.2390 90
5 G4 152.4000 152.6390 0.2390 50
5 G5 152.4000 152.6390 0.2390 90
5 F#4 152.6400 152.8790 0.2390 50
5 F#5 152.6400 152.8790 0.2390 90
5 G4 153.1200 153.3590 0.2390 50
5 G5 153.1200 153.3590 0.2390 90
5 F#4 153.3600 153.5990 0.2390 50
5 F#5 153.3600 153.5990 0.2390 90
5 E4 153.6000 155.0390 1.4390 50
5 E5 153.6000 155.0390 1.4390 90
5 E4 155.5200 155.6390 0.1190 97
5 B4 155.7600 155.8790 0.1190 97
5 B4 156.0000 156.1190 0.1190 97
5 B4 156.2400 156.3590 0.1190 97
5 B4 156.4800 156.5990 0.1190 97
5 A4 156.7200 156.8390 0.1190 97
5 G4 156.9600 157.0790 0.1190 97
5 D4 157.2000 157.3190 0.1190 97
5 E4 157.4400 157.5590 0.1190 97
5 B4 157.6800 157.7990 0.1190 97
5 B4 157.9200 158.0390 0.1190 97
5 B4 158.1600 158.2790 0.1190 97
5 B4 158.4000 158.5190 0.1190 97
5 A4 158.6400 158.7590 0.1190 97
5 G4 158.8800 158.9990 0.1190 97
5 D4 159.1200 159.2390 0.1190 97
5 E4 159.3600 159.4790 0.1190 97
5 B4 159.6000 159.7190 0.1190 97
5 B4 159.8400 159.9590 0.1190 97
5 B4 160.0800 160.1990 0.1190 97
5 B4 160.3200 160.4390 0.1190 97
5 A4 160.5600 160.6790 0.1190 97
5 G4 160.8000 160.9190 0.1190 97
5 D4 161.0400 161.1590 0.1190 97
5 E4 161.2800 161.3990 0.1190 97
5 B4 161.5200 161.6390 0.1190 97
5 B4 161.7600 161.8790 0.1190 97
5 B4 162.0000 162.1190 0.1190 97
5 B4 162.2400 162.3590 0.1190 97
5 A4 162.4800 162.5990 0.1190 97
5 G4 162.7200 162.8390 0.1190 97
5 D4 162.9600 163.0790 0.1190 97
5 E4 163.2000 163.3190 0.1190 97
5 B4 163.4400 163.5590 0.1190 97
5 B4 163.6800 163.7990 0.1190 97
5 B4 163.9200 164.0390 0.1190 97
5 B4 164.1600 164.2790 0.1190 97
5 A4 164.4000 164.5190 0.1190 97
5 G4 164.6400 164.7590 0.1190 97
5 D4 164.8800 164.9990 0.1190 97
5 E4 165.1200 165.2390 0.1190 97
5 B4 165.3600 165.4790 0.1190 97
5 B4 165.6000 165.7190 0.1190 97
5 B4 165.8400 165.9590 0.1190 97
5 B4 166.0800 166.1990 0.1190 97
5 A4 166.3200 166.4390 0.1190 97
5 G4 166.5600 166.6790 0.1190 97
5 D4 166.8000 166.9190 0.1190 97
5 E4 167.0400 167.1590 0.1190 97
5 B4 167.2800 167.3990 0.1190 97
5 B4 167.5200 167.6390 0.1190 97
5 B4 167.7600 167.8790 0.1190 97
5 B4 168.0000 168.1190 0.1190 97
5 A4 168.2400 168.3590 0.1190 97
5 G4 168.4800 168.5990 0.1190 97
5 D4 168.7200 168.8390 0.1190 97
5 E4 168.9600 169.0790 0.1190 97
5 B4 169.2000 169.3190 0.1190 97
5 B4 169.4400 169.5590 0.1190 97
5 B4 169.6800 169.7990 0.1190 97
5 B4 169.9200 170.0390 0.1190 97
5 A4 170.1600 170.2790 0.1190 97
5 G4 170.4000 170.5190 0.1190 97
5 D4 170.6400 170.7590 0.1190 97
5 E4 170.8800 170.9990 0.1190 97
5 B4 171.1200 171.2390 0.1190 97
5 B4 171.3600 171.4790 0.1190 97
5 B4 171.6000 171.7190 0.1190 97
5 B4 171.8400 171.9590 0.1190 97
5 A4 172.0800 172.1990 0.1190 97
5 G4 172.3200 172.4390 0.1190 97
5 D4 172.5600 172.6790 0.1190 97
5 E4 172.8000 172.9190 0.1190 97
5 B4 173.0400 173.1590 0.1190 97
5 B4 173.2800 173.3990 0.1190 97
5 B4 173.5200 173.6390 0.1190 97
5 B4 173.7600 173.8790 0.1190 97
5 A4 174.0000 174.1190 0.1190 97
5 G4 174.2400 174.3590 0.1190 97
5 D4 174.4800 174.5990 0.1190 97
5 E4 174.7200 174.8390 0.1190 97
5 B4 174.9600 175.0790 0.1190 97
5 B4 175.2000 175.3190 0.1190 97
5 B4 175.4400 175.5590 0.1190 97
5 B4 175.6800 175.7990 0.1190 97
5 A4 175.9200 176.0390 0.1190 97
5 G4 176.1600 176.2790 0.1190 97
5 D4 176.4000 176.5190 0.1190 97
5 E4 176.6400 176.7590 0.1190 97
5 B4 176.8800 176.9990 0.1190 97
5 B4 177.1200 177.2390 0.1190 97
5 B4 177.3600 177.4790 0.1190 97
5 B4 177.6000 177.7190 0.1190 97
5 A4 177.8400 177.9590 0.1190 97
5 G4 178.0800 178.1990 0.1190 97
5 D4 178.3200 178.4390 0.1190 97
5 E4 178.5600 178.6790 0.1190 97
5 B4 178.8000 178.9190 0.1190 97
5 B4 179.0400 179.1590 0.1190 97
5 B4 179.2800 179.3990 0.1190 97
5 B4 179.5200 179.6390 0.1190 97
5 A4 179.7600 179.8790 0.1190 97
5 G4 180.0000 180.1190 0.1190 97
5 D4 180.2400 180.3590 0.1190 97
5 E4 180.4800 180.5990 0.1190 97
5 B4 180.7200 180.8390 0.1190 97
5 B4 180.9600 181.0790 0.1190 97
5 B4 181.2000 181.3190 0.1190 97
5 B4 181.4400 181.5590 0.1190 97
5 A4 181.6800 181.7990 0.1190 97
5 G4 181.9200 182.0390 0.1190 97
5 D4 182.1600 182.2790 0.1190 97
5 E4 182.4000 182.5190 0.1190 97
5 B4 182.6400 182.7590 0.1190 97
5 B4 182.8800 182.9990 0.1190 97
5 B4 183.1200 183.2390 0.1190 97
5 B4 183.3600 183.4790 0.1190 97
5 A4 183.6000 183.7190 0.1190 97
5 G4 183.8400 183.9590 0.1190 97
5 D4 184.0800 184.1990 0.1190 97
5 E4 184.3200 184.4390 0.1190 97
5 B4 184.5600 184.6790 0.1190 97
5 B4 184.8000 184.9190 0.1190 97
5 B4 185.0400 185.1590 0.1190 97
5 B4 185.2800 185.3990 0.1190 97
5 A4 185.5200 185.6390 0.1190 97
5 G4 185.7600 185.8790 0.1190 97
5 D4 186.0000 186.1190 0.1190 97
5 E4 186.2400 186.3590 0.1190 97
5 B4 186.4800 186.5990 0.1190 97
5 B4 186.7200 186.8390 0.1190 97
5 B4 186.9600 187.0790 0.1190 97
5 B4 187.2000 187.3190 0.1190 97
5 A4 187.4400 187.5590 0.1190 97
5 G4 187.6800 187.7990 0.1190 97
5 D4 187.9200 188.0390 0.1190 97
5 E4 188.1600 188.2790 0.1190 97
5 B4 188.4000 188.5190 0.1190 97
5 B4 188.6400 188.7590 0.1190 97
5 B4 188.8800 188.9990 0.1190 97
5 B4 189.1200 189.2390 0.1190 97
5 A4 189.3600 189.4790 0.1190 97
5 G4 189.6000 189.7190 0.1190 97
5 D4 189.8400 189.9590 0.1190 97
5 E4 190.0800 190.1990 0.1190 97
5 B4 190.3200 190.4390 0.1190 97
5 B4 190.5600 190.6790 0.1190 97
5 B4 190.8000 190.9190 0.1190 97
5 B4 191.0400 191.1590 0.1190 97
5 A4 191.2800 191.3990 0.1190 97
5 G4 191.5200 191.6390 0.1190 97
5 D4 191.7600 191.8790 0.1190 97
5 E4 192.0000 192.1190 0.1190 97
5 B4 192.2400 192.3590 0.1190 97
5 B4 192.4800 192.5990 0.1190 97
5 B4 192.7200 192.8390 0.1190 97
5 B4 192.9600 193.0790 0.1190 97
5 A4 193.2000 193.3190 0.1190 97
5 G4 193.4400 193.5590 0.1190 97
5 D4 193.6800 193.7990 0.1190 97
5 E4 193.9200 194.0390 0.1190 97
5 B4 194.1600 194.2790 0.1190 97
5 B4 194.4000 194.5190 0.1190 97
5 B4 194.6400 194.7590 0.1190 97
5 B4 194.8800 194.9990 0.1190 97
5 A4 195.1200 195.2390 0.1190 97
5 G4 195.3600 195.4790 0.1190 97
5 D4 195.6000 195.7190 0.1190 97
5 E4 195.8400 195.9590 0.1190 97
5 B4 196.0800 196.1990 0.1190 97
5 B4 196.3200 196.4390 0.1190 97
5 B4 196.5600 196.6790 0.1190 97
5 B4 196.8000 196.9190 0.1190 97
5 A4 197.0400 197.1590 0.1190 97
5 G4 197.2800 197.3990 0.1190 97
5 D4 197.5200 197.6390 0.1190 97
5 E4 197.7600 197.8790 0.1190 97
5 B4 198.0000 198.1190 0.1190 97
5 B4 198.2400 198.3590 0.1190 97
5 B4 198.4800 198.5990 0.1190 97
5 B4 198.7200 198.8390 0.1190 97
5 A4 198.9600 199.0790 0.1190 97
5 G4 199.2000 199.3190 0.1190 97
5 D4 199.4400 199.5590 0.1190 97
5 E4 199.6800 199.7990 0.1190 97
5 B4 199.9200 200.0390 0.1190 97
5 B4 200.1600 200.2790 0.1190 97
5 B4 200.4000 200.5190 0.1190 97
5 B4 200.6400 200.7590 0.1190 97
5 A4 200.8800 200.9990 0.1190 97
5 G4 201.1200 201.2390 0.1190 97
5 D4 201.3600 201.4790 0.1190 97
5 E4 201.6000 201.7190 0.1190 97
5 B4 201.8400 201.9590 0.1190 97
5 B4 202.0800 202.1990 0.1190 97
5 B4 202.3200 202.4390 0.1190 97
5 B4 202.5600 202.6790 0.1190 97
5 A4 202.8000 202.9190 0.1190 97
5 G4 203.0400 203.1590 0.1190 97
5 D4 203.2800 203.3990 0.1190 97
5 E4 203.5200 203.6390 0.1190 97
5 B4 203.7600 203.8790 0.1190 97
5 B4 204.0000 204.1190 0.1190 97
5 B4 204.2400 204.3590 0.1190 97
5 B4 204.4800 204.5990 0.1190 97
5 A4 204.7200 204.8390 0.1190 97
5 G4 204.9600 205.0790 0.1190 97
5 D4 205.2000 205.3190 0.1190 97
5 E4 205.4400 205.5590 0.1190 97
5 B4 205.6800 205.7990 0.1190 97
5 B4 205.9200 206.0390 0.1190 97
5 B4 206.1600 206.2790 0.1190 97
5 B4 206.4000 206.5190 0.1190 97
5 A4 206.6400 206.7590 0.1190 97
5 G4 206.8800 206.9990 0.1190 97
5 D4 207.1200 207.2390 0.1190 97
5 E4 207.3600 207.4790 0.1190 97
5 B4 207.6000 207.7190 0.1190 97
5 B4 207.8400 207.9590 0.1190 97
5 B4 208.0800 208.1990 0.1190 97
5 B4 208.3200 208.4390 0.1190 97
5 A4 208.5600 208.6790 0.1190 97
5 G4 208.8000 208.9190 0.1190 97
5 D4 209.0400 209.1590 0.1190 97
5 E4 209.2800 209.3990 0.1190 97
5 B4 209.5200 209.6390 0.1190 97
5 B4 209.7600 209.8790 0.1190 97
5 B4 210.0000 210.1190 0.1190 97
5 B4 210.2400 210.3590 0.1190 97
5 A4 210.4800 210.5990 0.1190 97
5 G4 210.7200 210.8390 0.1190 97
5 D4 210.9600 211.0790 0.1190 97
5 E4 211.2000 211.3190 0.1190 97
5 B4 211.4400 211.5590 0.1190 97
5 B4 211.6800 211.7990 0.1190 97
5 B4 211.9200 212.0390 0.1190 97
5 B4 212.1600 212.2790 0.1190 97
5 A4 212.4000 212.5190 0.1190 97
5 G4 212.6400 212.7590 0.1190 97
5 D4 212.8800 212.9990 0.1190 97
5 E4 213.1200 213.2390 0.1190 97
5 B4 213.3600 213.4790 0.1190 97
5 B4 213.6000 213.7190 0.1190 97
5 B4 213.8400 213.9590 0.1190 97
5 B4 214.0800 214.1990 0.1190 97
5 A4 214.3200 214.4390 0.1190 97
5 G4 214.5600 214.6790 0.1190 97
5 D4 214.8000 214.9190 0.1190 97
5 E4 215.0400 215.1590 0.1190 97
5 B4 215.2800 215.3990 0.1190 97
5 B4 215.5200 215.6390 0.1190 97
5 B4 215.7600 215.8790 0.1190 97
5 B4 216.0000 216.1190 0.1190 97
5 A4 216.2400 216.3590 0.1190 97
5 G4 216.4800 216.5990 0.1190 97
5 D4 216.7200 216.8390 0.1190 97
6 E4 48.0000 51.8390 3.8390 80
6 G4 48.0000 51.8390 3.8390 80
6 B4 48.0000 51.8390 3.8390 80
6 C4 51.8400 53.7590 1.9190 80
6 E4 51.8400 53.7590 1.9190 80
6 G4 51.8400 53.7590 1.9190 80
6 D4 53.7600 55.6790 1.9190 80
6 G4 53.7600 55.6790 1.9190 80
6 C4 55.6800 57.5990 1.9190 80
6 E4 55.6800 57.5990 1.9190 80
6 A4 55.6800 57.5990 1.9190 80
6 F#4 57.6000 59.5190 1.9190 51
6 B4 57.6000 59.5190 1.9190 81
6 D5 57.6000 59.5190 1.9190 51
6 G4 59.5200 60.4790 0.9590 51
6 B4 59.5200 60.4790 0.9590 81
6 E5 59.5200 60.4790 0.9590 51
6 A4 60.4800 61.4390 0.9590 51
6 D5 60.4800 61.4390 0.9590 81
6 F#5 60.4800 61.4390 0.9590 51
6 E4 61.4400 63.3590 1.9190 81
6 G4 61.4400 63.3590 1.9190 51
6 B4 61.4400 63.3590 1.9190 51
6 E4 63.3600 67.1990 3.8390 80
6 G4 63.3600 67.1990 3.8390 80
6 B4 63.3600 67.1990 3.8390 80
6 C4 67.2000 69.1190 1.9190 80
6 E4 67.2000 69.1190 1.9190 80
6 G4 67.2000 69.1190 1.9190 80
6 D4 69.1200 71.0390 1.9190 80
6 G4 69.1200 71.0390 1.9190 80
6 C4 71.0400 72.9590 1.9190 80
6 E4 71.0400 72.9590 1.9190 80
6 A4 71.0400 72.9590 1.9190 80
6 F#4 72.9600 74.8790 1.9190 51
6 B4 72.9600 74.8790 1.9190 81
6 D5 72.9600 74.8790 1.9190 51
6 G4 74.8800 75.8390 0.9590 51
6 B4 74.8800 75.8390 0.9590 81
6 E5 74.8800 75.8390 0.9590 51
6 A4 75.8400 76.7990 0.9590 51
6 D5 75.8400 76.7990 0.9590 81
6 F#5 75.8400 76.7990 0.9590 51
6 E4 76.8000 78.7190 1.9190 81
6 G4 76.8000 78.7190 1.9190 51
6 B4 76.8000 78.7190 1.9190 51
6 E4 109.4400 113.2790 3.8390 80
6 G4 109.4400 113.2790 3.8390 80
6 B4 109.4400 113.2790 3.8390 80
6 C4 113.2800 115.1990 1.9190 80
6 E4 113.2800 115.1990 1.9190 80
6 G4 113.2800 115.1990 1.9190 80
6 B3 115.2000 117.1190 1.9190 80
6 D4 115.2000 117.1190 1.9190 80
6 G4 115.2000 117.1190 1.9190 80
6 E4 117.1200 119.0390 1.9190 80
6 A4 117.1200 119.0390 1.9190 80
6 F#4 119.0400 120.9590 1.9190 51
6 B4 119.0400 120.9590 1.9190 81
6 D5 119.0400 120.9590 1.9190 51
6 G4 120.9600 121.9190 0.9590 51
6 B4 120.9600 121.9190 0.9590 81
6 E5 120.9600 121.9190 0.9590 51
6 A4 121.9200 122.8790 0.9590 51
6 D5 121.9200 122.8790 0.9590 81
6 F#5 121.9200 122.8790 0.9590 51
6 E4 122.8800 124.7990 1.9190 81
6 G4 122.8800 124.7990 1.9190 51
6 B4 122.8800 124.7990 1.9190 51
6 E4 124.8000 128.6390 3.8390 80
6 G4 124.8000 128.6390 3.8390 80
6 B4 124.8000 128.6390 3.8390 80
6 C4 128.6400 130.5590 1.9190 80
6 E4 128.6400 130.5590 1.9190 80
6 G4 128.6400 130.5590 1.9190 80
6 D4 130.5600 132.4790 1.9190 80
6 G4 130.5600 132.4790 1.9190 80
6 C4 132.4800 134.3990 1.9190 80
6 E4 132.4800 134.3990 1.9190 80
6 A4 132.4800 134.3990 1.9190 80
6 F#4 134.4000 136.3190 1.9190 51
6 B4 134.4000 136.3190 1.9190 81
6 D5 134.4000 136.3190 1.9190 51
6 G4 136.3200 137.2790 0.9590 51
6 B4 136.3200 137.2790 0.9590 81
6 E5 136.3200 137.2790 0.9590 51
6 A4 137.2800 138.2390 0.9590 51
6 D5 137.2800 138.2390 0.9590 81
6 F#5 137.2800 138.2390 0.9590 51
6 E4 138.2400 140.1590 1.9190 81
6 G4 138.2400 140.1590 1.9190 51
6 B4 138.2400 140.1590 1.9190 51
6 E4 155.5200 159.3590 3.8390 80
6 G4 155.5200 159.3590 3.8390 80
6 B4 155.5200 159.3590 3.8390 80
6 C4 159.3600 161.2790 1.9190 80
6 E4 159.3600 161.2790 1.9190 80
6 G4 159.3600 161.2790 1.9190 80
6 B3 161.2800 163.1990 1.9190 80
6 D4 161.2800 163.1990 1.9190 80
6 G4 161.2800 163.1990 1.9190 80
6 E4 163.2000 165.1190 1.9190 80
6 A4 163.2000 165.1190 1.9190 80
6 F#4 165.1200 167.0390 1.9190 51
6 B4 165.1200 167.0390 1.9190 81
6 D5 165.1200 167.0390 1.9190 51
6 G4 167.0400 167.9990 0.9590 51
6 B4 167.0400 167.9990 0.9590 81
6 E5 167.0400 167.9990 0.9590 51
6 A4 168.0000 168.9590 0.9590 51
6 D5 168.0000 168.9590 0.9590 81
6 F#5 168.0000 168.9590 0.9590 51
6 E4 168.9600 170.8790 1.9190 81
6 G4 168.9600 170.8790 1.9190 51
6 B4 168.9600 170.8790 1.9190 51
6 E4 170.8800 174.7190 3.8390 80
6 G4 170.8800 174.7190 3.8390 80
6 B4 170.8800 174.7190 3.8390 80
6 C4 174.7200 176.6390 1.9190 80
6 E4 174.7200 176.6390 1.9190 80
6 G4 174.7200 176.6390 1.9190 80
6 D4 176.6400 178.5590 1.9190 80
6 G4 176.6400 178.5590 1.9190 80
6 C4 178.5600 180.4790 1.9190 80
6 E4 178.5600 180.4790 1.9190 80
6 A4 178.5600 180.4790 1.9190 80
6 F#4 180.4800 182.3990 1.9190 51
6 B4 180.4800 182.3990 1.9190 81
6 D5 180.4800 182.3990 1.9190 51
6 G4 182.4000 183.3590 0.9590 51
6 B4 182.4000 183.3590 0.9590 81
6 E5 182.4000 183.3590 0.9590 51
6 A4 183.3600 184.3190 0.9590 51
6 D5 183.3600 184.3190 0.9590 81
6 F#5 183.3600 184.3190 0.9590 51
6 E4 184.3200 186.2390 1.9190 81
6 G4 184.3200 186.2390 1.9190 51
6 B4 184.3200 186.2390 1.9190 51
6 E4 186.2400 190.0790 3.8390 80
6 G4 186.2400 190.0790 3.8390 80
6 B4 186.2400 190.0790 3.8390 80
6 C4 190.0800 191.9990 1.9190 80
6 E4 190.0800 191.9990 1.9190 80
6 G4 190.0800 191.9990 1.9190 80
6 B3 192.0000 193.9190 1.9190 80
6 D4 192.0000 193.9190 1.9190 80
6 G4 192.0000 193.9190 1.9190 80
6 E4 193.9200 195.8390 1.9190 80
6 A4 193.9200 195.8390 1.9190 80
6 F#4 195.8400 197.7590 1.9190 51
6 B4 195.8400 197.7590 1.9190 81
6 D5 195.8400 197.7590 1.9190 51
6 G4 197.7600 198.7190 0.9590 51
6 B4 197.7600 198.7190 0.9590 81
6 E5 197.7600 198.7190 0.9590 51
6 A4 198.7200 199.6790 0.9590 51
6 D5 198.7200 199.6790 0.9590 81
6 F#5 198.7200 199.6790 0.9590 51
6 E4 199.6800 201.5990 1.9190 81
6 G4 199.6800 201.5990 1.9190 51
6 B4 199.6800 201.5990 1.9190 51
6 E4 201.6000 205.4390 3.8390 80
6 G4 201.6000 205.4390 3.8390 80
6 B4 201.6000 205.4390 3.8390 80
6 C4 205.4400 207.3590 1.9190 80
6 E4 205.4400 207.3590 1.9190 80
6 G4 205.4400 207.3590 1.9190 80
6 D4 207.3600 209.2790 1.9190 80
6 G4 207.3600 209.2790 1.9190 80
6 C4 209.2800 211.1990 1.9190 80
6 E4 209.2800 211.1990 1.9190 80
6 A4 209.2800 211.1990 1.9190 80
6 F#4 211.2000 213.1190 1.9190 51
6 B4 211.2000 213.1190 1.9190 81
6 D5 211.2000 213.1190 1.9190 51
6 G4 213.1200 214.0790 0.9590 51
6 B4 213.1200 214.0790 0.9590 81
6 E5 213.1200 214.0790 0.9590 51
6 A4 214.0800 215.0390 0.9590 51
6 D5 214.0800 215.0390 0.9590 81
6 F#5 214.0800 215.0390 0.9590 51
6 E4 215.0400 216.9590 1.9190 81
6 G4 215.0400 216.9590 1.9190 51
6 B4 215.0400 216.9590 1.9190 51
7 E3 48.0000 51.8390 3.8390 80
7 C3 51.8400 53.7590 1.9190 80
7 E3 53.7600 55.6790 1.9190 80
7 A3 55.6800 57.5990 1.9190 80
7 B3 57.6000 59.5190 1.9190 80
7 C3 59.5200 61.4390 1.9190 80
7 E3 61.4400 63.3590 1.9190 80
7 E3 63.3600 67.1990 3.8390 80
7 C3 67.2000 69.1190 1.9190 80
7 E3 69.1200 71.0390 1.9190 80
7 A3 71.0400 72.9590 1.9190 80
7 B3 72.9600 74.8790 1.9190 80
7 C3 74.8800 76.7990 1.9190 80
7 E3 76.8000 78.7190 1.9190 80
7 E3 109.4400 113.2790 3.8390 80
7 C3 113.2800 115.1990 1.9190 80
7 E3 115.2000 117.1190 1.9190 80
7 A3 117.1200 119.0390 1.9190 80
7 B3 119.0400 120.9590 1.9190 80
7 C3 120.9600 122.8790 1.9190 80
7 E3 122.8800 124.7990 1.9190 80
7 E3 124.8000 128.6390 3.8390 80
7 C3 128.6400 130.5590 1.9190 80
7 E3 130.5600 132.4790 1.9190 80
7 A3 132.4800 134.3990 1.9190 80
7 B3 134.4000 136.3190 1.9190 80
7 C3 136.3200 138.2390 1.9190 80
7 E3 138.2400 140.1590 1.9190 80
7 E3 155.5200 159.3590 3.8390 80
7 C3 159.3600 161.2790 1.9190 80
7 E3 161.2800 163.1990 1.9190 80
7 A3 163.2000 165.1190 1.9190 80
7 B3 165.1200 167.0390 1.9190 80
7 C3 167.0400 168.9590 1.9190 80
7 E3 168.9600 170.8790 1.9190 80
7 E3 170.8800 174.7190 3.8390 80
7 C3 174.7200 176.6390 1.9190 80
7 E3 176.6400 178.5590 1.9190 80
7 A3 178.5600 180.4790 1.9190 80
7 B3 180.4800 182.3990 1.9190 80
7 C3 182.4000 184.3190 1.9190 80
7 E3 184.3200 186.2390 1.9190 80
7 E3 186.2400 190.0790 3.8390 80
7 C3 190.0800 191.9990 1.9190 80
7 E3 192.0000 193.9190 1.9190 80
7 A3 193.9200 195.8390 1.9190 80
7 B3 195.8400 197.7590 1.9190 80
7 C3 197.7600 199.6790 1.9190 80
7 E3 199.6800 201.5990 1.9190 80
7 E3 201.6000 205.4390 3.8390 80
7 C3 205.4400 207.3590 1.9190 80
7 E3 207.3600 209.2790 1.9190 80
7 A3 209.2800 211.1990 1.9190 80
7 B3 211.2000 213.1190 1.9190 80
7 C3 213.1200 215.0390 1.9190 80
7 E3 215.0400 216.9590 1.9190 80
8 E4 10.3200 10.5590 0.2390 96
8 B4 10.5600 10.7990 0.2390 96
8 A4 10.8000 11.0390 0.2390 96
8 G4 11.0400 11.2790 0.2390 96
8 D4 11.2800 11.5190 0.2390 96
8 E4 12.2400 12.4790 0.2390 96
8 B4 12.4800 12.7190 0.2390 96
8 A4 12.7200 12.9590 0.2390 96
8 G4 12.9600 13.1990 0.2390 96
8 D4 13.2000 13.4390 0.2390 96
8 E4 14.1600 14.3990 0.2390 96
8 B4 14.4000 14.6390 0.2390 96
8 A4 14.6400 14.8790 0.2390 96
8 G4 14.8800 15.1190 0.2390 96
8 D4 15.1200 15.3590 0.2390 96
8 E4 16.0800 16.3190 0.2390 96
8 B4 16.3200 16.5590 0.2390 96
8 A4 16.5600 16.7990 0.2390 96
8 G4 16.8000 17.0390 0.2390 96
8 D4 17.0400 17.2790 0.2390 96
8 E4 41.0400 41.2790 0.2390 96
8 B4 41.2800 41.5190 0.2390 96
8 A4 41.5200 41.7590 0.2390 96
8 G4 41.7600 41.9990 0.2390 96
8 D4 42.0000 42.2390 0.2390 96
8 E4 42.9600 43.1990 0.2390 96
8 B4 43.2000 43.4390 0.2390 96
8 A4 43.4400 43.6790 0.2390 96
8 G4 43.6800 43.9190 0.2390 96
8 D4 43.9200 44.1590 0.2390 96
8 E4 44.8800 45.1190 0.2390 96
8 B4 45.1200 45.3590 0.2390 96
8 A4 45.3600 45.5990 0.2390 96
8 G4 45.6000 45.8390 0.2390 96
8 D4 45.8400 46.0790 0.2390 96
8 E4 46.8000 46.9190 0.1190 96
8 E4 46.9200 47.0390 0.1190 80
8 B4 47.0400 47.2790 0.2390 96
8 A4 47.2800 47.5190 0.2390 96
8 G4 47.5200 47.7590 0.2390 96
8 D4 47.7600 47.9990 0.2390 96
8 E4 48.7200 48.9590 0.2390 96
8 B4 48.9600 49.1990 0.2390 96
8 A4 49.2000 49.4390 0.2390 96
8 G4 49.4400 49.6790 0.2390 96
8 D4 49.6800 49.9190 0.2390 96
8 E4 50.6400 50.8790 0.2390 96
8 B4 50.8800 51.1190 0.2390 96
8 A4 51.1200 51.3590 0.2390 96
8 G4 51.3600 51.5990 0.2390 96
8 D4 51.6000 51.8390 0.2390 96
8 E4 52.5600 52.7990 0.2390 96
8 B4 52.8000 53.0390 0.2390 96
8 A4 53.0400 53.2790 0.2390 96
8 G4 53.2800 53.5190 0.2390 96
8 D4 53.5200 53.7590 0.2390 96
8 E4 54.4800 54.7190 0.2390 96
8 B4 54.7200 54.9590 0.2390 96
8 A4 54.9600 55.1990 0.2390 96
8 G4 55.2000 55.4390 0.2390 96
8 D4 55.4400 55.6790 0.2390 96
8 E4 56.4000 56.6390 0.2390 96
8 B4 56.6400 56.8790 0.2390 96
8 A4 56.8800 57.1190 0.2390 96
8 G4 57.1200 57.3590 0.2390 96
8 D4 57.3600 57.5990 0.2390 96
8 E4 58.3200 58.5590 0.2390 96
8 B4 58.5600 58.7990 0.2390 96
8 A4 58.8000 59.0390 0.2390 96
8 G4 59.0400 59.2790 0.2390 96
8 D4 59.2800 59.5190 0.2390 96
8 E4 60.2400 60.4790 0.2390 96
8 B4 60.4800 60.7190 0.2390 96
8 A4 60.7200 60.9590 0.2390 96
8 G4 60.9600 61.1990 0.2390 96
8 D4 61.2000 61.4390 0.2390 96
8 E4 62.1600 62.3990 0.2390 96
8 B4 62.4000 62.6390 0.2390 96
8 A4 62.6400 62.8790 0.2390 96
8 G4 62.8800 63.1190 0.2390 96
8 D4 63.1200 63.3590 0.2390 96
8 E4 64.0800 64.3190 0.2390 96
8 B4 64.3200 64.5590 0.2390 96
8 A4 64.5600 64.7990 0.2390 96
8 G4 64.8000 65.0390 0.2390 96
8 D4 65.0400 65.2790 0.2390 96
8 E4 66.0000 66.2390 0.2390 96
8 B4 66.2400 66.4790 0.2390 96
8 A4 66.4800 66.7190 0.2390 96
8 G4 66.7200 66.9590 0.2390 96
8 D4 66.9600 67.1990 0.2390 96
8 E4 67.9200 68.1590 0.2390 96
8 B4 68.1600 68.3990 0.2390 96
8 A4 68.4000 68.6390 0.2390 96
8 G4 68.6400 68.8790 0.2390 96
8 D4 68.8800 69.1190 0.2390 96
8 E4 69.8400 70.0790 0.2390 96
8 B4 70.0800 70.3190 0.2390 96
8 A4 70.3200 70.5590 0.2390 96
8 G4 70.5600 70.7990 0.2390 96
8 D4 70.8000 71.0390 0.2390 96
8 E4 71.7600 71.9990 0.2390 96
8 B4 72.0000 72.2390 0.2390 96
8 A4 72.2400 72.4790 0.2390 96
8 G4 72.4800 72.7190 0.2390 96
8 D4 72.7200 72.9590 0.2390 96
8 E4 73.6800 73.9190 0.2390 96
8 B4 73.9200 74.1590 0.2390 96
8 A4 74.1600 74.3990 0.2390 96
8 G4 74.4000 74.6390 0.2390 96
8 D4 74.6400 74.8790 0.2390 96
8 E4 75.6000 75.8390 0.2390 96
8 B4 75.8400 76.0790 0.2390 96
8 A4 76.0800 76.3190 0.2390 96
8 G4 76.3200 76.5590 0.2390 96
8 D4 76.5600 76.7990 0.2390 96
8 E4 76.8000 77.0390 0.2390 80
8 B4 77.0400 77.2790 0.2390 80
8 E4 77.2800 77.5190 0.2390 80
8 B4 77.5200 77.7590 0.2390 96
8 B4 77.7600 77.9990 0.2390 96
8 A4 78.0000 78.2390 0.2390 96
8 G4 78.2400 78.4790 0.2390 96
8 D4 78.4800 78.7190 0.2390 96
8 E4 102.4800 102.7190 0.2390 96
8 B4 102.7200 102.9590 0.2390 96
8 A4 102.9600 103.1990 0.2390 96
8 G4 103.2000 103.4390 0.2390 96
8 D4 103.4400 103.6790 0.2390 96
8 E4 104.4000 104.6390 0.2390 96
8 B4 104.6400 104.8790 0.2390 96
8 A4 104.8800 105.1190 0.2390 96
8 G4 105.1200 105.3590 0.2390 96
8 D4 105.3600 105.5990 0.2390 96
8 E4 106.3200 106.5590 0.2390 96
8 B4 106.5600 106.7990 0.2390 96
8 A4 106.8000 107.0390 0.2390 96
8 G4 107.0400 107.2790 0.2390 96
8 D4 107.2800 107.5190 0.2390 96
8 E4 108.2400 108.3590 0.1190 96
8 E4 108.3600 108.4790 0.1190 80
8 B4 108.4800 108.7190 0.2390 96
8 A4 108.7200 108.9590 0.2390 96
8 G4 108.9600 109.1990 0.2390 96
8 D4 109.2000 109.4390 0.2390 96
8 E4 110.1600 110.3990 0.2390 96
8 B4 110.4000 110.6390 0.2390 96
8 A4 110.6400 110.8790 0.2390 96
8 G4 110.8800 111.1190 0.2390 96
8 D4 111.1200 111.3590 0.2390 96
8 E4 112.0800 112.3190 0.2390 96
8 B4 112.3200 112.5590 0.2390 96
8 A4 112.5600 112.7990 0.2390 96
8 G4 112.8000 113.0390 0.2390 96
8 D4 113.0400 113.2790 0.2390 96
8 E4 114.0000 114.2390 0.2390 96
8 B4 114.2400 114.4790 0.2390 96
8 A4 114.4800 114.7190 0.2390 96
8 G4 114.7200 114.9590 0.2390 96
8 D4 114.9600 115.1990 0.2390 96
8 E4 115.9200 116.1590 0.2390 96
8 B4 116.1600 116.3990 0.2390 96
8 A4 116.4000 116.6390 0.2390 96
8 G4 116.6400 116.8790 0.2390 96
8 D4 116.8800 117.1190 0.2390 96
8 E4 117.8400 118.0790 0.2390 96
8 B4 118.0800 118.3190 0.2390 96
8 A4 118.3200 118.5590 0.2390 96
8 G4 118.5600 118.7990 0.2390 96
8 D4 118.8000 119.0390 0.2390 96
8 E4 119.7600 119.9990 0.2390 96
8 B4 120.0000 120.2390 0.2390 96
8 A4 120.2400 120.4790 0.2390 96
8 G4 120.4800 120.7190 0.2390 96
8 D4 120.7200 120.9590 0.2390 96
8 E4 121.6800 121.9190 0.2390 96
8 B4 121.9200 122.1590 0.2390 96
8 A4 122.1600 122.3990 0.2390 96
8 G4 122.4000 122.6390 0.2390 96
8 D4 122.6400 122.8790 0.2390 96
8 E4 123.6000 123.8390 0.2390 96
8 B4 123.8400 124.0790 0.2390 96
8 A4 124.0800 124.3190 0.2390 96
8 G4 124.3200 124.5590 0.2390 96
8 D4 124.5600 124.7990 0.2390 96
8 E4 125.5200 125.7590 0.2390 96
8 B4 125.7600 125.9990 0.2390 96
8 A4 126.0000 126.2390 0.2390 96
8 G4 126.2400 126.4790 0.2390 96
8 D4 126.4800 126.7190 0.2390 96
8 E4 127.4400 127.6790 0.2390 96
8 B4 127.6800 127.9190 0.2390 96
8 A4 127.9200 128.1590 0.2390 96
8 G4 128.1600 128.3990 0.2390 96
8 D4 128.4000 128.6390 0.2390 96
8 E4 129.3600 129.5990 0.2390 96
8 B4 129.6000 129.8390 0.2390 96
8 A4 129.8400 130.0790 0.2390 96
8 G4 130.0800 130.3190 0.2390 96
8 D4 130.3200 130.5590 0.2390 96
8 E4 131.2800 131.5190 0.2390 96
8 B4 131.5200 131.7590 0.2390 96
8 A4 131.7600 131.9990 0.2390 96
8 G4 132.0000 132.2390 0.2390 96
8 D4 132.2400 132.4790 0.2390 96
8 E4 133.2000 133.4390 0.2390 96
8 B4 133.4400 133.6790 0.2390 96
8 A4 133.6800 133.9190 0.2390 96
8 G4 133.9200 134.1590 0.2390 96
8 D4 134.1600 134.3990 0.2390 96
8 E4 135.1200 135.3590 0.2390 96
8 B4 135.3600 135.5990 0.2390 96
8 A4 135.6000 135.8390 0.2390 96
8 G4 135.8400 136.0790 0.2390 96
8 D4 136.0800 136.3190 0.2390 96
8 E4 137.0400 137.2790 0.2390 96
8 B4 137.2800 137.5190 0.2390 96
8 A4 137.5200 137.7590 0.2390 96
8 G4 137.7600 137.9990 0.2390 96
8 D4 138.0000 138.2390 0.2390 96
8 E4 138.2400 138.4790 0.2390 80
8 B4 138.4800 138.7190 0.2390 80
8 E4 138.7200 138.9590 0.2390 80
8 B4 138.9600 139.1990 0.2390 96
8 B4 139.2000 139.4390 0.2390 96
8 A4 139.4400 139.6790 0.2390 96
8 G4 139.6800 139.9190 0.2390 96
8 D4 139.9200 140.1590 0.2390 96
8 E4 144.7200 144.9590 0.2390 96
8 B4 144.9600 145.1990 0.2390 96
8 A4 145.2000 145.4390 0.2390 96
8 G4 145.4400 145.6790 0.2390 96
8 D4 145.6800 145.9190 0.2390 96
8 E4 146.6400 146.8790 0.2390 96
8 B4 146.8800 147.1190 0.2390 96
8 A4 147.1200 147.3590 0.2390 96
8 G4 147.3600 147.5990 0.2390 96
8 D4 147.6000 147.8390 0.2390 96
8 E4 148.5600 148.7990 0.2390 96
8 B4 148.8000 149.0390 0.2390 96
8 A4 149.0400 149.2790 0.2390 96
8 G4 149.2800 149.5190 0.2390 96
8 D4 149.5200 149.7590 0.2390 96
8 E4 150.4800 150.7190 0.2390 96
8 B4 150.7200 150.9590 0.2390 96
8 A4 150.9600 151.1990 0.2390 96
8 G4 151.2000 151.4390 0.2390 96
8 D4 151.4400 151.6790 0.2390 96
8 E4 152.4000 152.6390 0.2390 96
8 B4 152.6400 152.8790 0.2390 96
8 A4 152.8800 153.1190 0.2390 96
8 G4 153.1200 153.3590 0.2390 96
8 D4 153.3600 153.5990 0.2390 96
8 E4 153.6000 153.8390 0.2390 80
8 B4 153.8400 154.0790 0.2390 80
8 E4 154.0800 154.3190 0.2390 80
8 B4 154.3200 154.5590 0.2390 96
8 B4 154.5600 154.7990 0.2390 96
8 A4 154.8000 155.0390 0.2390 96
8 G4 155.0400 155.2790 0.2390 96
8 D4 155.2800 155.5190 0.2390 96
8 E4 156.2400 156.4790 0.2390 96
8 B4 156.4800 156.7190 0.2390 96
8 A4 156.7200 156.9590 0.2390 96
8 G4 156.9600 157.1990 0.2390 96
8 D4 157.2000 157.4390 0.2390 96
8 E4 158.1600 158.3990 0.2390 96
8 B4 158.4000 158.6390 0.2390 96
8 A4 158.6400 158.8790 0.2390 96
8 G4 158.8800 159.1190 0.2390 96
8 D4 159.1200 159.3590 0.2390 96
8 E4 160.0800 160.3190 0.2390 96
8 B4 160.3200 160.5590 0.2390 96
8 A4 160.5600 160.7990 0.2390 96
8 G4 160.8000 161.0390 0.2390 96
8 D4 161.0400 161.2790 0.2390 96
8 E4 162.0000 162.2390 0.2390 96
8 B4 162.2400 162.4790 0.2390 96
8 A4 162.4800 162.7190 0.2390 96
8 G4 162.7200 162.9590 0.2390 96
8 D4 162.9600 163.1990 0.2390 96
8 E4 163.9200 164.1590 0.2390 96
8 B4 164.1600 164.3990 0.2390 96
8 A4 164.4000 164.6390 0.2390 96
8 G4 164.6400 164.8790 0.2390 96
8 D4 164.8800 165.1190 0.2390 96
8 E4 165.8400 166.0790 0.2390 96
8 B4 166.0800 166.3190 0.2390 96
8 A4 166.3200 166.5590 0.2390 96
8 G4 166.5600 166.7990 0.2390 96
8 D4 166.8000 167.0390 0.2390 96
8 E4 167.7600 167.9990 0.2390 96
8 B4 168.0000 168.2390 0.2390 96
8 A4 168.2400 168.4790 0.2390 96
8 G4 168.4800 168.7190 0.2390 96
8 D4 168.7200 168.9590 0.2390 96
8 E4 169.6800 169.9190 0.2390 96
8 B4 169.9200 170.1590 0.2390 96
8 A4 170.1600 170.3990 0.2390 96
8 G4 170.4000 170.6390 0.2390 96
8 D4 170.6400 170.8790 0.2390 96
8 E4 171.6000 171.8390 0.2390 96
8 B4 171.8400 172.0790 0.2390 96
8 A4 172.0800 172.3190 0.2390 96
8 G4 172.3200 172.5590 0.2390 96
8 D4 172.5600 172.7990 0.2390 96
8 E4 173.5200 173.7590 0.2390 96
8 B4 173.7600 173.9990 0.2390 96
8 A4 174.0000 174.2390 0.2390 96
8 G4 174.2400 174.4790 0.2390 96
8 D4 174.4800 174.7190 0.2390 96
8 E4 175.4400 175.6790 0.2390 96
8 B4 175.6800 175.9190 0.2390 96
8 A4 175.9200 176.1590 0.2390 96
8 G4 176.1600 176.3990 0.2390 96
8 D4 176.4000 176.6390 0.2390 96
8 E4 177.3600 177.5990 0.2390 96
8 B4 177.6000 177.8390 0.2390 96
8 A4 177.8400 178.0790 0.2390 96
8 G4 178.0800 178.3190 0.2390 96
8 D4 178.3200 178.5590 0.2390 96
8 E4 179.2800 179.5190 0.2390 96
8 B4 179.5200 179.7590 0.2390 96
8 A4 179.7600 179.9990 0.2390 96
8 G4 180.0000 180.2390 0.2390 96
8 D4 180.2400 180.4790 0.2390 96
8 E4 181.2000 181.4390 0.2390 96
8 B4 181.4400 181.6790 0.2390 96
8 A4 181.6800 181.9190 0.2390 96
8 G4 181.9200 182.1590 0.2390 96
8 D4 182.1600 182.3990 0.2390 96
8 E4 183.1200 183.3590 0.2390 96
8 B4 183.3600 183.5990 0.2390 96
8 A4 183.6000 183.8390 0.2390 96
8 G4 183.8400 184.0790 0.2390 96
8 D4 184.0800 184.3190 0.2390 96
8 E4 184.3200 184.5590 0.2390 80
8 B4 184.5600 184.7990 0.2390 80
8 E4 184.8000 185.0390 0.2390 80
8 B4 185.0400 185.2790 0.2390 96
8 B4 185.2800 185.5190 0.2390 96
8 A4 185.5200 185.7590 0.2390 96
8 G4 185.7600 185.9990 0.2390 96
8 D4 186.0000 186.2390 0.2390 96
8 E4 186.9600 187.1990 0.2390 96
8 B4 187.2000 187.4390 0.2390 96
8 A4 187.4400 187.6790 0.2390 96
8 G4 187.6800 187.9190 0.2390 96
8 D4 187.9200 188.1590 0.2390 96
8 E4 188.8800 189.1190 0.2390 96
8 B4 189.1200 189.3590 0.2390 96
8 A4 189.3600 189.5990 0.2390 96
8 G4 189.6000 189.8390 0.2390 96
8 D4 189.8400 190.0790 0.2390 96
8 E4 190.8000 191.0390 0.2390 96
8 B4 191.0400 191.2790 0.2390 96
8 A4 191.2800 191.5190 0.2390 96
8 G4 191.5200 191.7590 0.2390 96
8 D4 191.7600 191.9990 0.2390 96
8 E4 192.7200 192.9590 0.2390 96
8 B4 192.9600 193.1990 0.2390 96
8 A4 193.2000 193.4390 0.2390 96
8 G4 193.4400 193.6790 0.2390 96
8 D4 193.6800 193.9190 0.2390 96
8 E4 194.6400 194.8790 0.2390 96
8 B4 194.8800 195.1190 0.2390 96
8 A4 195.1200 195.3590 0.2390 96
8 G4 195.3600 195.5990 0.2390 96
8 D4 195.6000 195.8390 0.2390 96
8 E4 196.5600 196.7990 0.2390 96
8 B4 196.8000 197.0390 0.2390 96
8 A4 197.0400 197.2790 0.2390 96
8 G4 197.2800 197.5190 0.2390 96
8 D4 197.5200 197.7590 0.2390 96
8 E4 198.4800 198.7190 0.2390 96
8 B4 198.7200 198.9590 0.2390 96
8 A4 198.9600 199.1990 0.2390 96
8 G4 199.2000 199.4390 0.2390 96
8 D4 199.4400 199.6790 0.2390 96
8 E4 200.4000 200.6390 0.2390 96
8 B4 200.6400 200.8790 0.2390 96
8 A4 200.8800 201.1190 0.2390 96
8 G4 201.1200 201.3590 0.2390 96
8 D4 201.3600 201.5990 0.2390 96
8 E4 202.3200 202.5590 0.2390 96
8 B4 202.5600 202.7990 0.2390 96
8 A4 202.8000 203.0390 0.2390 96
8 G4 203.0400 203.2790 0.2390 96
8 D4 203.2800 203.5190 0.2390 96
8 E4 204.2400 204.4790 0.2390 96
8 B4 204.4800 204.7190 0.2390 96
8 A4 204.7200 204.9590 0.2390 96
8 G4 204.9600 205.1990 0.2390 96
8 D4 205.2000 205.4390 0.2390 96
8 E4 206.1600 206.3990 0.2390 96
8 B4 206.4000 206.6390 0.2390 96
8 A4 206.6400 206.8790 0.2390 96
8 G4 206.8800 207.1190 0.2390 96
8 D4 207.1200 207.3590 0.2390 96
8 E4 208.0800 208.3190 0.2390 96
8 B4 208.3200 208.5590 0.2390 96
8 A4 208.5600 208.7990 0.2390 96
8 G4 208.8000 209.0390 0.2390 96
8 D4 209.0400 209.2790 0.2390 96
8 E4 210.0000 210.2390 0.2390 96
8 B4 210.2400 210.4790 0.2390 96
8 A4 210.4800 210.7190 0.2390 96
8 G4 210.7200 210.9590 0.2390 96
8 D4 210.9600 211.1990 0.2390 96
8 E4 211.9200 212.1590 0.2390 96
8 B4 212.1600 212.3990 0.2390 96
8 A4 212.4000 212.6390 0.2390 96
8 G4 212.6400 212.8790 0.2390 96
8 D4 212.8800 213.1190 0.2390 96
8 E4 213.8400 214.0790 0.2390 96
8 B4 214.0800 214.3190 0.2390 96
8 A4 214.3200 214.5590 0.2390 96
8 G4 214.5600 214.7990 0.2390 96
8 D4 214.8000 215.0390 0.2390 96
8 E4 215.0400 215.2790 0.2390 80
8 B4 215.2800 215.5190 0.2390 80
8 E4 215.5200 215.7590 0.2390 80
8 B4 215.7600 215.9990 0.2390 96
8 B4 216.0000 216.2390 0.2390 96
8 A4 216.2400 216.4790 0.2390 96
8 G4 216.4800 216.7190 0.2390 96
8 D4 216.7200 216.9590 0.2390 96
9 C2 1.9200 2.1590 0.2390 120
9 C#3 1.9200 2.3990 0.4790 80
9 G#2 2.1600 2.3990 0.2390 80
9 C2 2.4000 2.6390 0.2390 120
9 D2 2.4000 2.7200 0.3200 96
9 G#2 2.6400 2.8790 0.2390 80
9 C2 2.8800 3.1190 0.2390 120
9 G#2 3.1200 3.3590 0.2390 80
9 C2 3.3600 3.5990 0.2390 120
9 D2 3.3600 3.6800 0.3200 96
9 G#2 3.6000 3.7190 0.1190 80
9 G#2 3.7200 3.8390 0.1190 80
9 C2 3.8400 4.0790 0.2390 120
9 G#2 4.0800 4.3190 0.2390 80
9 C2 4.3200 4.5590 0.2390 120
9 D2 4.3200 4.6400 0.3200 96
9 G#2 4.5600 4.7990 0.2390 80
9 C2 4.8000 5.0390 0.2390 120
9 G#2 5.0400 5.2790 0.2390 80
9 C2 5.2800 5.5190 0.2390 120
9 D2 5.2800 5.6000 0.3200 96
9 G#2 5.5200 5.6390 0.1190 80
9 G#2 5.6400 5.7590 0.1190 80
9 C2 5.7600 5.9990 0.2390 120
9 G#2 6.0000 6.2390 0.2390 80
9 C2 6.2400 6.4790 0.2390 120
9 D2 6.2400 6.5600 0.3200 96
9 G#2 6.4800 6.7190 0.2390 80
9 C2 6.7200 6.9590 0.2390 120
9 G#2 6.9600 7.1990 0.2390 80
9 C2 7.2000 7.4390 0.2390 120
9 D2 7.2000 7.5200 0.3200 96
9 G#2 7.4400 7.5590 0.1190 80
9 G#2 7.5600 7.6790 0.1190 80
9 C2 7.6800 7.9190 0.2390 120
9 G#2 7.9200 8.1590 0.2390 80
9 C2 8.1600 8.3990 0.2390 120
9 D2 8.1600 8.4800 0.3200 96
9 G#2 8.4000 8.6390 0.2390 80
9 C2 8.6400 8.8790 0.2390 120
9 G#2 8.8800 9.1190 0.2390 80
9 C2 9.1200 9.3590 0.2390 120
9 D2 9.1200 9.4400 0.3200 96
9 G#2 9.3600 9.4790 0.1190 80
9 G#2 9.4800 9.5990 0.1190 80
9 C2 9.6000 9.8390 0.2390 120
9 G#2 9.8400 10.0790 0.2390 80
9 C2 10.0800 10.3190 0.2390 120
9 D2 10.0800 10.4000 0.3200 96
9 G#2 10.3200 10.5590 0.2390 80
9 C2 10.5600 10.7990 0.2390 120
9 G#2 10.8000 11.0390 0.2390 80
9 C2 11.0400 11.2790 0.2390 120
9 D2 11.0400 11.3600 0.3200 96
9 G#2 11.2800 11.3990 0.1190 80
9 G#2 11.4000 11.5190 0.1190 80
9 C2 11.5200 11.7590 0.2390 120
9 G#2 11.7600 11.9990 0.2390 80
9 C2 12.0000 12.2390 0.2390 120
9 D2 12.0000 12.3200 0.3200 96
9 G#2 12.2400 12.4790 0.2390 80
9 C2 12.4800 12.7190 0.2390 120
9 G#2 12.7200 12.9590 0.2390 80
9 C2 12.9600 13.1990 0.2390 120
9 D2 12.9600 13.2800 0.3200 96
9 G#2 13.2000 13.3190 0.1190 80
9 G#2 13.3200 13.4390 0.1190 80
9 C2 13.4400 13.6790 0.2390 120
9 G#2 13.6800 13.9190 0.2390 80
9 C2 13.9200 14.1590 0.2390 120
9 D2 13.9200 14.2400 0.3200 96
9 G#2 14.1600 14.3990 0.2390 80
9 C2 14.4000 14.6390 0.2390 120
9 G#2 14.6400 14.8790 0.2390 80
9 C2 14.8800 15.1190 0.2390 120
9 D2 14.8800 15.2000 0.3200 96
9 G#2 15.1200 15.2390 0.1190 80
9 G#2 15.2400 15.3590 0.1190 80
9 C2 15.3600 15.5990 0.2390 120
9 G#2 15.6000 15.8390 0.2390 80
9 C2 15.8400 16.0790 0.2390 120
9 D2 15.8400 16.1600 0.3200 96
9 G#2 16.0800 16.3190 0.2390 80
9 C2 16.3200 16.5590 0.2390 120
9 G#2 16.5600 16.7990 0.2390 80
9 C2 16.8000 17.0390 0.2390 120
9 D2 16.8000 17.1200 0.3200 96
9 G#2 17.0400 17.1590 0.1190 80
9 G#2 17.1600 17.2790 0.1190 80
9 C2 17.2800 17.5190 0.2390 120
9 G#2 17.5200 17.7590 0.2390 80
9 C2 17.7600 17.9990 0.2390 120
9 D2 17.7600 18.0800 0.3200 96
9 G#2 18.0000 18.2390 0.2390 80
9 C2 18.2400 18.4790 0.2390 120
9 G#2 18.4800 18.7190 0.2390 80
9 C2 18.7200 18.9590 0.2390 120
9 D2 18.7200 19.0400 0.3200 96
9 G#2 18.9600 19.0790 0.1190 80
9 G#2 19.0800 19.1990 0.1190 80
9 C2 19.2000 19.4390 0.2390 120
9 G#2 19.4400 19.6790 0.2390 80
9 C2 19.6800 19.9190 0.2390 120
9 D2 19.6800 20.0000 0.3200 96
9 G#2 19.9200 20.1590 0.2390 80
9 C2 20.1600 20.3990 0.2390 120
9 G#2 20.4000 20.6390 0.2390 80
9 C2 20.6400 20.8790 0.2390 120
9 D2 20.6400 20.9600 0.3200 96
9 G#2 20.8800 20.9990 0.1190 80
9 G#2 21.0000 21.1190 0.1190 80
9 C2 21.1200 21.3590 0.2390 120
9 G#2 21.3600 21.5990 0.2390 80
9 C2 21.6000 21.8390 0.2390 120
9 D2 21.6000 21.9200 0.3200 96
9 G#2 21.8400 22.0790 0.2390 80
9 C2 22.0800 22.3190 0.2390 120
9 G#2 22.3200 22.5590 0.2390 80
9 C2 22.5600 22.7990 0.2390 120
9 D2 22.5600 22.8800 0.3200 96
9 G#2 22.8000 22.9190 0.1190 80
9 G#2 22.9200 23.0390 0.1190 80
9 C2 23.0400 23.2790 0.2390 120
9 G#2 23.2800 23.5190 0.2390 80
9 C2 23.5200 23.7590 0.2390 120
9 D2 23.5200 23.8400 0.3200 96
9 G#2 23.7600 23.9990 0.2390 80
9 C2 24.0000 24.2390 0.2390 120
9 G#2 24.2400 24.4790 0.2390 80
9 C2 24.4800 24.7190 0.2390 120
9 D2 24.4800 24.8000 0.3200 96
9 G#2 24.7200 24.8390 0.1190 80
9 G#2 24.8400 24.9590 0.1190 80
9 C2 24.9600 25.1990 0.2390 120
9 G#2 25.2000 25.4390 0.2390 80
9 C2 25.4400 25.6790 0.2390 120
9 D2 25.4400 25.7600 0.3200 96
9 G#2 25.6800 25.9190 0.2390 80
9 C2 25.9200 26.1590 0.2390 120
9 G#2 26.1600 26.3990 0.2390 80
9 C2 26.4000 26.6390 0.2390 120
9 D2 26.4000 26.7200 0.3200 96
9 G#2 26.6400 26.7590 0.1190 80
9 G#2 26.7600 26.8790 0.1190 80
9 C2 26.8800 27.1190 0.2390 120
9 G#2 27.1200 27.3590 0.2390 80
9 C2 27.3600 27.5990 0.2390 120
9 D2 27.3600 27.6800 0.3200 96
9 G#2 27.6000 27.8390 0.2390 80
9 C2 27.8400 28.0790 0.2390 120
9 G#2 28.0800 28.3190 0.2390 80
9 C2 28.3200 28.5590 0.2390 120
9 D2 28.3200 28.6400 0.3200 96
9 G#2 28.5600 28.6790 0.1190 80
9 G#2 28.6800 28.7990 0.1190 80
9 C2 28.8000 29.0390 0.2390 120
9 G#2 29.0400 29.2790 0.2390 80
9 C2 29.2800 29.5190 0.2390 120
9 D2 29.2800 29.6000 0.3200 96
9 G#2 29.5200 29.7590 0.2390 80
9 C2 29.7600 29.9990 0.2390 120
9 G#2 30.0000 30.2390 0.2390 80
9 C2 30.2400 30.4790 0.2390 120
9 D2 30.2400 30.5600 0.3200 96
9 G#2 30.4800 30.5990 0.1190 80
9 G#2 30.6000 30.7190 0.1190 80
9 C2 30.7200 30.9590 0.2390 120
9 G#2 30.9600 31.1990 0.2390 80
9 C2 31.2000 31.4390 0.2390 120
9 D2 31.2000 31.5200 0.3200 96
9 G#2 31.4400 31.6790 0.2390 80
9 C2 31.6800 31.9190 0.2390 120
9 G#2 31.9200 32.1590 0.2390 80
9 C2 32.1600 32.3990 0.2390 120
9 D2 32.1600 32.4800 0.3200 96
9 G#2 32.4000 32.5190 0.1190 80
9 G#2 32.5200 32.6390 0.1190 80
9 C2 32.6400 32.8790 0.2390 120
9 G#2 32.8800 33.1190 0.2390 80
9 C2 33.1200 33.3590 0.2390 120
9 D2 33.1200 33.4400 0.3200 96
9 G#2 33.3600 33.5990 0.2390 80
9 C2 33.6000 33.8390 0.2390 120
9 G#2 33.8400 34.0790 0.2390 80
9 C2 34.0800 34.3190 0.2390 120
9 D2 34.0800 34.4000 0.3200 96
9 G#2 34.3200 34.4390 0.1190 80
9 G#2 34.4400 34.5590 0.1190 80
9 C2 34.5600 34.7990 0.2390 120
9 G#2 34.8000 35.0390 0.2390 80
9 C2 35.0400 35.2790 0.2390 120
9 D2 35.0400 35.3600 0.3200 96
9 G#2 35.2800 35.5190 0.2390 80
9 C2 35.5200 35.7590 0.2390 120
9 G#2 35.7600 35.9990 0.2390 80
9 C2 36.0000 36.2390 0.2390 120
9 D2 36.0000 36.3200 0.3200 96
9 G#2 36.2400 36.3590 0.1190 80
9 G#2 36.3600 36.4790 0.1190 80
9 C2 36.4800 36.7190 0.2390 120
9 G#2 36.7200 36.9590 0.2390 80
9 C2 36.9600 37.1990 0.2390 120
9 D2 36.9600 37.2800 0.3200 96
9 G#2 37.2000 37.4390 0.2390 80
9 C2 37.4400 37.6790 0.2390 120
9 G#2 37.6800 37.9190 0.2390 80
9 C2 37.9200 38.1590 0.2390 120
9 D2 37.9200 38.2400 0.3200 96
9 G#2 38.1600 38.2790 0.1190 80
9 G#2 38.2800 38.3990 0.1190 80
9 C2 38.4000 38.6390 0.2390 120
9 G#2 38.6400 38.8790 0.2390 80
9 C2 38.8800 39.1190 0.2390 120
9 D2 38.8800 39.2000 0.3200 96
9 G#2 39.1200 39.3590 0.2390 80
9 C2 39.3600 39.5990 0.2390 120
9 G#2 39.6000 39.8390 0.2390 80
9 C2 39.8400 40.0790 0.2390 120
9 D2 39.8400 40.1600 0.3200 96
9 G#2 40.0800 40.1990 0.1190 80
9 G#2 40.2000 40.3190 0.1190 80
9 C2 40.3200 40.5590 0.2390 120
9 G#2 40.5600 40.7990 0.2390 80
9 C2 40.8000 41.0390 0.2390 120
9 D2 40.8000 41.1200 0.3200 96
9 G#2 41.0400 41.2790 0.2390 80
9 C2 41.2800 41.5190 0.2390 120
9 G#2 41.5200 41.7590 0.2390 80
9 C2 41.7600 41.9990 0.2390 120
9 D2 41.7600 42.0800 0.3200 96
9 G#2 42.0000 42.1190 0.1190 80
9 G#2 42.1200 42.2390 0.1190 80
9 C2 42.2400 42.4790 0.2390 120
9 G#2 42.4800 42.7190 0.2390 80
9 C2 42.7200 42.9590 0.2390 120
9 D2 42.7200 43.0400 0.3200 96
9 G#2 42.9600 43.1990 0.2390 80
9 C2 43.2000 43.4390 0.2390 120
9 G#2 43.4400 43.6790 0.2390 80
9 C2 43.6800 43.9190 0.2390 120
9 D2 43.6800 44.0000 0.3200 96
9 G#2 43.9200 44.0390 0.1190 80
9 G#2 44.0400 44.1590 0.1190 80
9 C2 44.1600 44.3990 0.2390 120
9 G#2 44.4000 44.6390 0.2390 80
9 C2 44.6400 44.8790 0.2390 120
9 D2 44.6400 44.9600 0.3200 96
9 G#2 44.8800 45.1190 0.2390 80
9 C2 45.1200 45.3590 0.2390 120
9 G#2 45.3600 45.5990 0.2390 80
9 C2 45.6000 45.8390 0.2390 120
9 D2 45.6000 45.9200 0.3200 96
9 G#2 45.8400 45.9590 0.1190 80
9 G#2 45.9600 46.0790 0.1190 80
9 C2 46.0800 46.3190 0.2390 120
9 G#2 46.3200 46.5590 0.2390 80
9 C2 46.5600 46.7990 0.2390 120
9 E2 46.5600 46.8800 0.3200 96
9 G#2 46.8000 47.0390 0.2390 80
9 C2 47.0400 47.2790 0.2390 120
9 E2 47.0400 47.3990 0.3590 80
9 G#2 47.2800 47.5190 0.2390 80
9 A2 47.4000 47.5190 0.1190 80
9 D#2 47.5200 47.6790 0.1590 80
9 C2 47.5200 47.7590 0.2390 120
9 G#2 47.7600 47.8790 0.1190 80
9 D2 47.7600 47.9990 0.2390 80
9 D#2 47.7600 47.9990 0.2390 80
9 G#2 47.8800 47.9990 0.1190 80
9 C2 48.0000 48.2390 0.2390 120
9 G#2 48.2400 48.4790 0.2390 80
9 C2 48.4800 48.7190 0.2390 120
9 D2 48.4800 48.8000 0.3200 96
9 D#2 48.4800 48.8000 0.3200 96
9 G#2 48.7200 48.9590 0.2390 80
9 C2 48.9600 49.1990 0.2390 120
9 G#2 49.2000 49.4390 0.2390 80
9 C2 49.4400 49.6790 0.2390 120
9 D2 49.4400 49.7600 0.3200 96
9 D#2 49.4400 49.7600 0.3200 96
9 G#2 49.6800 49.7990 0.1190 80
9 G#2 49.8000 49.9190 0.1190 80
9 C2 49.9200 50.1590 0.2390 120
9 G#2 50.1600 50.3990 0.2390 80
9 C2 50.4000 50.6390 0.2390 120
9 D2 50.4000 50.7200 0.3200 96
9 D#2 50.4000 50.7200 0.3200 96
9 G#2 50.6400 50.8790 0.2390 80
9 C2 50.8800 51.1190 0.2390 120
9 G#2 51.1200 51.3590 0.2390 80
9 D2 51.3600 51.5190 0.1590 96
9 D#2 51.3600 51.5190 0.1590 96
9 C2 51.3600 51.5990 0.2390 120
9 G#2 51.6000 51.7190 0.1190 80
9 D2 51.6000 51.7590 0.1590 96
9 D#2 51.6000 51.7590 0.1590 96
9 G#2 51.7200 51.8390 0.1190 80
9 C2 51.8400 52.0790 0.2390 120
9 G#2 52.0800 52.3190 0.2390 80
9 C2 52.3200 52.5590 0.2390 120
9 D2 52.3200 52.6400 0.3200 96
9 D#2 52.3200 52.6400 0.3200 96
9 G#2 52.5600 52.7990 0.2390 80
9 C2 52.8000 53.0390 0.2390 120
9 G#2 53.0400 53.2790 0.2390 80
9 C2 53.2800 53.5190 0.2390 120
9 D2 53.2800 53.6000 0.3200 96
9 D#2 53.2800 53.6000 0.3200 96
9 G#2 53.5200 53.6390 0.1190 80
9 G#2 53.6400 53.7590 0.1190 80
9 C2 53.7600 53.9990 0.2390 120
9 G#2 54.0000 54.2390 0.2390 80
9 C2 54.2400 54.4790 0.2390 120
9 D2 54.2400 54.5600 0.3200 96
9 D#2 54.2400 54.5600 0.3200 96
9 G#2 54.4800 54.7190 0.2390 80
9 C2 54.7200 54.9590 0.2390 120
9 G#2 54.9600 55.1990 0.2390 80
9 D2 55.2000 55.3590 0.1590 96
9 D#2 55.2000 55.3590 0.1590 96
9 C2 55.2000 55.4390 0.2390 120
9 G#2 55.4400 55.5590 0.1190 80
9 D2 55.4400 55.5990 0.1590 96
9 D#2 55.4400 55.5990 0.1590 96
9 G#2 55.5600 55.6790 0.1190 80
9 C2 55.6800 55.9190 0.2390 120
9 G#2 55.9200 56.1590 0.2390 80
9 C2 56.1600 56.3990 0.2390 120
9 D2 56.1600 56.4800 0.3200 96
9 D#2 56.1600 56.4800 0.3200 96
9 G#2 56.4000 56.6390 0.2390 80
9 C2 56.6400 56.8790 0.2390 120
9 G#2 56.8800 57.1190 0.2390 80
9 C2 57.1200 57.3590 0.2390 120
9 D2 57.1200 57.4400 0.3200 96
9 D#2 57.1200 57.4400 0.3200 96
9 G#2 57.3600 57.4790 0.1190 80
9 G#2 57.4800 57.5990 0.1190 80
9 C2 57.6000 57.8390 0.2390 120
9 G#2 57.8400 58.0790 0.2390 80
9 C2 58.0800 58.3190 0.2390 120
9 D2 58.0800 58.4000 0.3200 96
9 D#2 58.0800 58.4000 0.3200 96
9 G#2 58.3200 58.5590 0.2390 80
9 C2 58.5600 58.7990 0.2390 120
9 G#2 58.8000 59.0390 0.2390 80
9 D2 59.0400 59.1990 0.1590 96
9 D#2 59.0400 59.1990 0.1590 96
9 C2 59.0400 59.2790 0.2390 120
9 G#2 59.2800 59.3990 0.1190 80
9 D2 59.2800 59.4390 0.1590 96
9 D#2 59.2800 59.4390 0.1590 96
9 G#2 59.4000 59.5190 0.1190 80
9 C2 59.5200 59.7590 0.2390 120
9 G#2 59.7600 59.9990 0.2390 80
9 C2 60.0000 60.2390 0.2390 120
9 D2 60.0000 60.3200 0.3200 96
9 D#2 60.0000 60.3200 0.3200 96
9 G#2 60.2400 60.4790 0.2390 80
9 C2 60.4800 60.7190 0.2390 120
9 G#2 60.7200 60.9590 0.2390 80
9 C2 60.9600 61.1990 0.2390 120
9 D2 60.9600 61.2800 0.3200 96
9 D#2 60.9600 61.2800 0.3200 96
9 G#2 61.2000 61.3190 0.1190 80
9 G#2 61.3200 61.4390 0.1190 80
9 C2 61.4400 61.6790 0.2390 120
9 G#2 61.6800 61.9190 0.2390 80
9 C2 61.9200 62.1590 0.2390 120
9 D2 61.9200 62.2400 0.3200 96
9 D#2 61.9200 62.2400 0.3200 96
9 G#2 62.1600 62.3990 0.2390 80
9 C2 62.4000 62.6390 0.2390 120
9 G#2 62.6400 62.8790 0.2390 80
9 D2 62.8800 63.0390 0.1590 96
9 D#2 62.8800 63.0390 0.1590 96
9 C2 62.8800 63.1190 0.2390 120
9 G#2 63.1200 63.2390 0.1190 80
9 D2 63.1200 63.2790 0.1590 96
9 D#2 63.1200 63.2790 0.1590 96
9 G#2 63.2400 63.3590 0.1190 80
9 C2 63.3600 63.5990 0.2390 120
9 G#2 63.6000 63.8390 0.2390 80
9 C2 63.8400 64.0790 0.2390 120
9 D2 63.8400 64.1600 0.3200 96
9 D#2 63.8400 64.1600 0.3200 96
9 G#2 64.0800 64.3190 0.2390 80
9 C2 64.3200 64.5590 0.2390 120
9 G#2 64.5600 64.7990 0.2390 80
9 C2 64.8000 65.0390 0.2390 120
9 D2 64.8000 65.1200 0.3200 96
9 D#2 64.8000 65.1200 0.3200 96
9 G#2 65.0400 65.1590 0.1190 80
9 G#2 65.1600 65.2790 0.1190 80
9 C2 65.2800 65.5190 0.2390 120
9 G#2 65.5200 65.7590 0.2390 80
9 C2 65.7600 65.9990 0.2390 120
9 D2 65.7600 66.0800 0.3200 96
9 D#2 65.7600 66.0800 0.3200 96
9 G#2 66.0000 66.2390 0.2390 80
9 C2 66.2400 66.4790 0.2390 120
9 G#2 66.4800 66.7190 0.2390 80
9 D2 66.7200 66.8790 0.1590 96
9 D#2 66.7200 66.8790 0.1590 96
9 C2 66.7200 66.9590 0.2390 120
9 G#2 66.9600 67.0790 0.1190 80
9 D2 66.9600 67.1190 0.1590 96
9 D#2 66.9600 67.1190 0.1590 96
9 G#2 67.0800 67.1990 0.1190 80
9 C2 67.2000 67.4390 0.2390 120
9 G#2 67.4400 67.6790 0.2390 80
9 C2 67.6800 67.9190 0.2390 120
9 D2 67.6800 68.0000 0.3200 96
9 D#2 67.6800 68.0000 0.3200 96
9 G#2 67.9200 68.1590 0.2390 80
9 C2 68.1600 68.3990 0.2390 120
9 G#2 68.4000 68.6390 0.2390 80
9 C2 68.6400 68.8790 0.2390 120
9 D2 68.6400 68.9600 0.3200 96
9 D#2 68.6400 68.9600 0.3200 96
9 G#2 68.8800 68.9990 0.1190 80
9 G#2 69.0000 69.1190 0.1190 80
9 C2 69.1200 69.3590 0.2390 120
9 G#2 69.3600 69.5990 0.2390 80
9 C2 69.6000 69.8390 0.2390 120
9 D2 69.6000 69.9200 0.3200 96
9 D#2 69.6000 69.9200 0.3200 96
9 G#2 69.8400 70.0790 0.2390 80
9 C2 70.0800 70.3190 0.2390 120
9 G#2 70.3200 70.5590 0.2390 80
9 D2 70.5600 70.7190 0.1590 96
9 D#2 70.5600 70.7190 0.1590 96
9 C2 70.5600 70.7990 0.2390 120
9 G#2 70.8000 70.9190 0.1190 80
9 D2 70.8000 70.9590 0.1590 96
9 D#2 70.8000 70.9590 0.1590 96
9 G#2 70.9200 71.0390 0.1190 80
9 C2 71.0400 71.2790 0.2390 120
9 G#2 71.2800 71.5190 0.2390 80
9 C2 71.5200 71.7590 0.2390 120
9 D2 71.5200 71.8400 0.3200 96
9 D#2 71.5200 71.8400 0.3200 96
9 G#2 71.7600 71.9990 0.2390 80
9 C2 72.0000 72.2390 0.2390 120
9 G#2 72.2400 72.4790 0.2390 80
9 C2 72.4800 72.7190 0.2390 120
9 D2 72.4800 72.8000 0.3200 96
9 D#2 72.4800 72.8000 0.3200 96
9 G#2 72.7200 72.8390 0.1190 80
9 G#2 72.8400 72.9590 0.1190 80
9 C2 72.9600 73.1990 0.2390 120
9 G#2 73.2000 73.4390 0.2390 80
9 C2 73.4400 73.6790 0.2390 120
9 D2 73.4400 73.7600 0.3200 96
9 D#2 73.4400 73.7600 0.3200 96
9 G#2 73.6800 73.9190 0.2390 80
9 C2 73.9200 74.1590 0.2390 120
9 G#2 74.1600 74.3990 0.2390 80
9 D2 74.4000 74.5590 0.1590 96
9 D#2 74.4000 74.5590 0.1590 96
9 C2 74.4000 74.6390 0.2390 120
9 G#2 74.6400 74.7590 0.1190 80
9 D2 74.6400 74.7990 0.1590 96
9 D#2 74.6400 74.7990 0.1590 96
9 G#2 74.7600 74.8790 0.1190 80
9 C2 74.8800 75.1190 0.2390 120
9 G#2 75.1200 75.3590 0.2390 80
9 C2 75.3600 75.5990 0.2390 120
9 D2 75.3600 75.6800 0.3200 96
9 D#2 75.3600 75.6800 0.3200 96
9 G#2 75.6000 75.8390 0.2390 80
9 C2 75.8400 76.0790 0.2390 120
9 G#2 76.0800 76.3190 0.2390 80
9 C2 76.3200 76.5590 0.2390 120
9 D2 76.3200 76.6400 0.3200 96
9 D#2 76.3200 76.6400 0.3200 96
9 G#2 76.5600 76.6790 0.1190 80
9 G#2 76.6800 76.7990 0.1190 80
9 C2 76.8000 77.0390 0.2390 120
9 G#2 77.0400 77.2790 0.2390 80
9 C2 77.2800 77.5190 0.2390 120
9 D2 77.2800 77.6000 0.3200 96
9 D#2 77.2800 77.6000 0.3200 96
9 G#2 77.5200 77.7590 0.2390 80
9 C2 77.7600 77.9990 0.2390 120
9 G#2 78.0000 78.2390 0.2390 80
9 D2 78.2400 78.3990 0.1590 96
9 D#2 78.2400 78.3990 0.1590 96
9 C2 78.2400 78.4790 0.2390 120
9 G#2 78.4800 78.5990 0.1190 80
9 D2 78.4800 78.6390 0.1590 96
9 D#2 78.4800 78.6390 0.1590 96
9 G#2 78.6000 78.7190 0.1190 80
9 C2 78.7200 78.9590 0.2390 120
9 G#2 78.9600 79.1990 0.2390 80
9 C2 79.2000 79.4390 0.2390 120
9 D2 79.2000 79.5200 0.3200 96
9 G#2 79.4400 79.6790 0.2390 80
9 C2 79.6800 79.9190 0.2390 120
9 G#2 79.9200 80.1590 0.2390 80
9 C2 80.1600 80.3990 0.2390 120
9 D2 80.1600 80.4800 0.3200 96
9 G#2 80.4000 80.5190 0.1190 80
9 G#2 80.5200 80.6390 0.1190 80
9 C2 80.6400 80.8790 0.2390 120
9 G#2 80.8800 81.1190 0.2390 80
9 C2 81.1200 81.3590 0.2390 120
9 D2 81.1200 81.4400 0.3200 96
9 G#2 81.3600 81.5990 0.2390 80
9 C2 81.6000 81.8390 0.2390 120
9 G#2 81.8400 82.0790 0.2390 80
9 C2 82.0800 82.3190 0.2390 120
9 D2 82.0800 82.4000 0.3200 96
9 G#2 82.3200 82.4390 0.1190 80
9 G#2 82.4400 82.5590 0.1190 80
9 C2 82.5600 82.7990 0.2390 120
9 G#2 82.8000 83.0390 0.2390 80
9 C2 83.0400 83.2790 0.2390 120
9 D2 83.0400 83.3600 0.3200 96
9 G#2 83.2800 83.5190 0.2390 80
9 C2 83.5200 83.7590 0.2390 120
9 G#2 83.7600 83.9990 0.2390 80
9 C2 84.0000 84.2390 0.2390 120
9 D2 84.0000 84.3200 0.3200 96
9 G#2 84.2400 84.3590 0.1190 80
9 G#2 84.3600 84.4790 0.1190 80
9 C2 84.4800 84.7190 0.2390 120
9 G#2 84.7200 84.9590 0.2390 80
9 C2 84.9600 85.1990 0.2390 120
9 D2 84.9600 85.2800 0.3200 96
9 G#2 85.2000 85.4390 0.2390 80
9 C2 85.4400 85.6790 0.2390 120
9 G#2 85.6800 85.9190 0.2390 80
9 C2 85.9200 86.1590 0.2390 120
9 D2 85.9200 86.2400 0.3200 96
9 G#2 86.1600 86.2790 0.1190 80
9 G#2 86.2800 86.3990 0.1190 80
9 C2 86.4000 86.6390 0.2390 120
9 G#2 86.6400 86.8790 0.2390 80
9 C2 86.8800 87.1190 0.2390 120
9 D2 86.8800 87.2000 0.3200 96
9 G#2 87.1200 87.3590 0.2390 80
9 C2 87.3600 87.5990 0.2390 120
9 G#2 87.6000 87.8390 0.2390 80
9 C2 87.8400 88.0790 0.2390 120
9 D2 87.8400 88.1600 0.3200 96
9 G#2 88.0800 88.1990 0.1190 80
9 G#2 88.2000 88.3190 0.1190 80
9 C2 88.3200 88.5590 0.2390 120
9 G#2 88.5600 88.7990 0.2390 80
9 C2 88.8000 89.0390 0.2390 120
9 D2 88.8000 89.1200 0.3200 96
9 G#2 89.0400 89.2790 0.2390 80
9 C2 89.2800 89.5190 0.2390 120
9 G#2 89.5200 89.7590 0.2390 80
9 C2 89.7600 89.9990 0.2390 120
9 D2 89.7600 90.0800 0.3200 96
9 G#2 90.0000 90.1190 0.1190 80
9 G#2 90.1200 90.2390 0.1190 80
9 C2 90.2400 90.4790 0.2390 120
9 G#2 90.4800 90.7190 0.2390 80
9 C2 90.7200 90.9590 0.2390 120
9 D2 90.7200 91.0400 0.3200 96
9 G#2 90.9600 91.1990 0.2390 80
9 C2 91.2000 91.4390 0.2390 120
9 G#2 91.4400 91.6790 0.2390 80
9 C2 91.6800 91.9190 0.2390 120
9 D2 91.6800 92.0000 0.3200 96
9 G#2 91.9200 92.0390 0.1190 80
9 G#2 92.0400 92.1590 0.1190 80
9 C2 92.1600 92.3990 0.2390 120
9 G#2 92.4000 92.6390 0.2390 80
9 C2 92.6400 92.8790 0.2390 120
9 D2 92.6400 92.9600 0.3200 96
9 G#2 92.8800 93.1190 0.2390 80
9 C2 93.1200 93.3590 0.2390 120
9 G#2 93.3600 93.5990 0.2390 80
9 C2 93.6000 93.8390 0.2390 120
9 D2 93.6000 93.9200 0.3200 96
9 G#2 93.8400 93.9590 0.1190 80
9 G#2 93.9600 94.0790 0.1190 80
9 C2 94.0800 94.3190 0.2390 120
9 G#2 94.3200 94.5590 0.2390 80
9 C2 94.5600 94.7990 0.2390 120
9 D2 94.5600 94.8800 0.3200 96
9 G#2 94.8000 95.0390 0.2390 80
9 C2 95.0400 95.2790 0.2390 120
9 G#2 95.2800 95.5190 0.2390 80
9 C2 95.5200 95.7590 0.2390 120
9 D2 95.5200 95.8400 0.3200 96
9 G#2 95.7600 95.8790 0.1190 80
9 G#2 95.8800 95.9990 0.1190 80
9 C2 96.0000 96.2390 0.2390 120
9 G#2 96.2400 96.4790 0.2390 80
9 C2 96.4800 96.7190 0.2390 120
9 D2 96.4800 96.8000 0.3200 96
9 G#2 96.7200 96.9590 0.2390 80
9 C2 96.9600 97.1990 0.2390 120
9 G#2 97.2000 97.4390 0.2390 80
9 C2 97.4400 97.6790 0.2390 120
9 D2 97.4400 97.7600 0.3200 96
9 G#2 97.6800 97.7990 0.1190 80
9 G#2 97.8000 97.9190 0.1190 80
9 C2 97.9200 98.1590 0.2390 120
9 G#2 98.1600 98.3990 0.2390 80
9 C2 98.4000 98.6390 0.2390 120
9 D2 98.4000 98.7200 0.3200 96
9 G#2 98.6400 98.8790 0.2390 80
9 C2 98.8800 99.1190 0.2390 120
9 G#2 99.1200 99.3590 0.2390 80
9 C2 99.3600 99.5990 0.2390 120
9 D2 99.3600 99.6800 0.3200 96
9 G#2 99.6000 99.7190 0.1190 80
9 G#2 99.7200 99.8390 0.1190 80
9 C2 99.8400 100.0790 0.2390 120
9 G#2 100.0800 100.3190 0.2390 80
9 C2 100.3200 100.5590 0.2390 120
9 D2 100.3200 100.6400 0.3200 96
9 G#2 100.5600 100.7990 0.2390 80
9 C2 100.8000 101.0390 0.2390 120
9 G#2 101.0400 101.2790 0.2390 80
9 C2 101.2800 101.5190 0.2390 120
9 D2 101.2800 101.6000 0.3200 96
9 G#2 101.5200 101.6390 0.1190 80
9 G#2 101.6400 101.7590 0.1190 80
9 C2 101.7600 101.9990 0.2390 120
9 G#2 102.0000 102.2390 0.2390 80
9 C2 102.2400 102.4790 0.2390 120
9 D2 102.2400 102.5600 0.3200 96
9 G#2 102.4800 102.7190 0.2390 80
9 C2 102.7200 102.9590 0.2390 120
9 G#2 102.9600 103.1990 0.2390 80
9 C2 103.2000 103.4390 0.2390 120
9 D2 103.2000 103.5200 0.3200 96
9 G#2 103.4400 103.5590 0.1190 80
9 G#2 103.5600 103.6790 0.1190 80
9 C2 103.6800 103.9190 0.2390 120
9 G#2 103.9200 104.1590 0.2390 80
9 C2 104.1600 104.3990 0.2390 120
9 D2 104.1600 104.4800 0.3200 96
9 G#2 104.4000 104.6390 0.2390 80
9 C2 104.6400 104.8790 0.2390 120
9 G#2 104.8800 105.1190 0.2390 80
9 C2 105.1200 105.3590 0.2390 120
9 D2 105.1200 105.4400 0.3200 96
9 G#2 105.3600 105.4790 0.1190 80
9 G#2 105.4800 105.5990 0.1190 80
9 C2 105.6000 105.8390 0.2390 120
9 G#2 105.8400 106.0790 0.2390 80
9 C2 106.0800 106.3190 0.2390 120
9 D2 106.0800 106.4000 0.3200 96
9 G#2 106.3200 106.5590 0.2390 80
9 C2 106.5600 106.7990 0.2390 120
9 G#2 106.8000 107.0390 0.2390 80
9 C2 107.0400 107.2790 0.2390 120
9 D2 107.0400 107.3600 0.3200 96
9 G#2 107.2800 107.3990 0.1190 80
9 G#2 107.4000 107.5190 0.1190 80
9 C2 107.5200 107.7590 0.2390 120
9 G#2 107.7600 107.9990 0.2390 80
9 C2 108.0000 108.2390 0.2390 120
9 E2 108.0000 108.3200 0.3200 96
9 G#2 108.2400 108.4790 0.2390 80
9 C2 108.4800 108.7190 0.2390 120
9 E2 108.4800 108.8390 0.3590 80
9 G#2 108.7200 108.9590 0.2390 80
9 A2 108.8400 108.9590 0.1190 80
9 D#2 108.9600 109.1190 0.1590 80
9 C2 108.9600 109.1990 0.2390 120
9 G#2 109.2000 109.3190 0.1190 80
9 D2 109.2000 109.4390 0.2390 80
9 D#2 109.2000 109.4390 0.2390 80
9 G#2 109.3200 109.4390 0.1190 80
9 C2 109.4400 109.6790 0.2390 120
9 G#2 109.6800 109.9190 0.2390 80
9 C2 109.9200 110.1590 0.2390 120
9 D2 109.9200 110.2400 0.3200 96
9 D#2 109.9200 110.2400 0.3200 96
9 G#2 110.1600 110.3990 0.2390 80
9 C2 110.4000 110.6390 0.2390 120
9 G#2 110.6400 110.8790 0.2390 80
9 C2 110.8800 111.1190 0.2390 120
9 D2 110.8800 111.2000 0.3200 96
9 D#2 110.8800 111.2000 0.3200 96
9 G#2 111.1200 111.2390 0.1190 80
9 G#2 111.2400 111.3590 0.1190 80
9 C2 111.3600 111.5990 0.2390 120
9 G#2 111.6000 111.8390 0.2390 80
9 C2 111.8400 112.0790 0.2390 120
9 D2 111.8400 112.1600 0.3200 96
9 D#2 111.8400 112.1600 0.3200 96
9 G#2 112.0800 112.3190 0.2390 80
9 C2 112.3200 112.5590 0.2390 120
9 G#2 112.5600 112.7990 0.2390 80
9 D2 112.8000 112.9590 0.1590 96
9 D#2 112.8000 112.9590 0.1590 96
9 C2 112.8000 113.0390 0.2390 120
9 G#2 113.0400 113.1590 0.1190 80
9 D2 113.0400 113.1990 0.1590 96
9 D#2 113.0400 113.1990 0.1590 96
9 G#2 113.1600 113.2790 0.1190 80
9 C2 113.2800 113.5190 0.2390 120
9 G#2 113.5200 113.7590 0.2390 80
9 C2 113.7600 113.9990 0.2390 120
9 D2 113.7600 114.0800 0.3200 96
9 D#2 113.7600 114.0800 0.3200 96
9 G#2 114.0000 114.2390 0.2390 80
9 C2 114.2400 114.4790 0.2390 120
9 G#2 114.4800 114.7190 0.2390 80
9 C2 114.7200 114.9590 0.2390 120
9 D2 114.7200 115.0400 0.3200 96
9 D#2 114.7200 115.0400 0.3200 96
9 G#2 114.9600 115.0790 0.1190 80
9 G#2 115.0800 115.1990 0.1190 80
9 C2 115.2000 115.4390 0.2390 120
9 G#2 115.4400 115.6790 0.2390 80
9 C2 115.6800 115.9190 0.2390 120
9 D2 115.6800 116.0000 0.3200 96
9 D#2 115.6800 116.0000 0.3200 96
9 G#2 115.9200 116.1590 0.2390 80
9 C2 116.1600 116.3990 0.2390 120
9 G#2 116.4000 116.6390 0.2390 80
9 D2 116.6400 116.7990 0.1590 96
9 D#2 116.6400 116.7990 0.1590 96
9 C2 116.6400 116.8790 0.2390 120
9 G#2 116.8800 116.9990 0.1190 80
9 D2 116.8800 117.0390 0.1590 96
9 D#2 116.8800 117.0390 0.1590 96
9 G#2 117.0000 117.1190 0.1190 80
9 C2 117.1200 117.3590 0.2390 120
9 G#2 117.3600 117.5990 0.2390 80
9 C2 117.6000 117.8390 0.2390 120
9 D2 117.6000 117.9200 0.3200 96
9 D#2 117.6000 117.9200 0.3200 96
9 G#2 117.8400 118.0790 0.2390 80
9 C2 118.0800 118.3190 0.2390 120
9 G#2 118.3200 118.5590 0.2390 80
9 C2 118.5600 118.7990 0.2390 120
9 D2 118.5600 118.8800 0.3200 96
9 D#2 118.5600 118.8800 0.3200 96
9 G#2 118.8000 118.9190 0.1190 80
9 G#2 118.9200 119.0390 0.1190 80
9 C2 119.0400 119.2790 0.2390 120
9 G#2 119.2800 119.5190 0.2390 80
9 C2 119.5200 119.7590 0.2390 120
9 D2 119.5200 119.8400 0.3200 96
9 D#2 119.5200 119.8400 0.3200 96
9 G#2 119.7600 119.9990 0.2390 80
9 C2 120.0000 120.2390 0.2390 120
9 G#2 120.2400 120.4790 0.2390 80
9 D2 120.4800 120.6390 0.1590 96
9 D#2 120.4800 120.6390 0.1590 96
9 C2 120.4800 120.7190 0.2390 120
9 G#2 120.7200 120.8390 0.1190 80
9 D2 120.7200 120.8790 0.1590 96
9 D#2 120.7200 120.8790 0.1590 96
9 G#2 120.8400 120.9590 0.1190 80
9 C2 120.9600 121.1990 0.2390 120
9 G#2 121.2000 121.4390 0.2390 80
9 C2 121.4400 121.6790 0.2390 120
9 D2 121.4400 121.7600 0.3200 96
9 D#2 121.4400 121.7600 0.3200 96
9 G#2 121.6800 121.9190 0.2390 80
9 C2 121.9200 122.1590 0.2390 120
9 G#2 122.1600 122.3990 0.2390 80
9 C2 122.4000 122.6390 0.2390 120
9 D2 122.4000 122.7200 0.3200 96
9 D#2 122.4000 122.7200 0.3200 96
9 G#2 122.6400 122.7590 0.1190 80
9 G#2 122.7600 122.8790 0.1190 80
9 C2 122.8800 123.1190 0.2390 120
9 G#2 123.1200 123.3590 0.2390 80
9 C2 123.3600 123.5990 0.2390 120
9 D2 123.3600 123.6800 0.3200 96
9 D#2 123.3600 123.6800 0.3200 96
9 G#2 123.6000 123.8390 0.2390 80
9 C2 123.8400 124.0790 0.2390 120
9 G#2 124.0800 124.3190 0.2390 80
9 D2 124.3200 124.4790 0.1590 96
9 D#2 124.3200 124.4790 0.1590 96
9 C2 124.3200 124.5590 0.2390 120
9 G#2 124.5600 124.6790 0.1190 80
9 D2 124.5600 124.7190 0.1590 96
9 D#2 124.5600 124.7190 0.1590 96
9 G#2 124.6800 124.7990 0.1190 80
9 C2 124.8000 125.0390 0.2390 120
9 G#2 125.0400 125.2790 0.2390 80
9 C2 125.2800 125.5190 0.2390 120
9 D2 125.2800 125.6000 0.3200 96
9 D#2 125.2800 125.6000 0.3200 96
9 G#2 125.5200 125.7590 0.2390 80
9 C2 125.7600 125.9990 0.2390 120
9 G#2 126.0000 126.2390 0.2390 80
9 C2 126.2400 126.4790 0.2390 120
9 D2 126.2400 126.5600 0.3200 96
9 D#2 126.2400 126.5600 0.3200 96
9 G#2 126.4800 126.5990 0.1190 80
9 G#2 126.6000 126.7190 0.1190 80
9 C2 126.7200 126.9590 0.2390 120
9 G#2 126.9600 127.1990 0.2390 80
9 C2 127.2000 127.4390 0.2390 120
9 D2 127.2000 127.5200 0.3200 96
9 D#2 127.2000 127.5200 0.3200 96
9 G#2 127.4400 127.6790 0.2390 80
9 C2 127.6800 127.9190 0.2390 120
9 G#2 127.9200 128.1590 0.2390 80
9 D2 128.1600 128.3190 0.1590 96
9 D#2 128.1600 128.3190 0.1590 96
9 C2 128.1600 128.3990 0.2390 120
9 G#2 128.4000 128.5190 0.1190 80
9 D2 128.4000 128.5590 0.1590 96
9 D#2 128.4000 128.5590 0.1590 96
9 G#2 128.5200 128.6390 0.1190 80
9 C2 128.6400 128.8790 0.2390 120
9 G#2 128.8800 129.1190 0.2390 80
9 C2 129.1200 129.3590 0.2390 120
9 D2 129.1200 129.4400 0.3200 96
9 D#2 129.1200 129.4400 0.3200 96
9 G#2 129.3600 129.5990 0.2390 80
9 C2 129.6000 129.8390 0.2390 120
9 G#2 129.8400 130.0790 0.2390 80
9 C2 130.0800 130.3190 0.2390 120
9 D2 130.0800 130.4000 0.3200 96
9 D#2 130.0800 130.4000 0.3200 96
9 G#2 130.3200 130.4390 0.1190 80
9 G#2 130.4400 130.5590 0.1190 80
9 C2 130.5600 130.7990 0.2390 120
9 G#2 130.8000 131.0390 0.2390 80
9 C2 131.0400 131.2790 0.2390 120
9 D2 131.0400 131.3600 0.3200 96
9 D#2 131.0400 131.3600 0.3200 96
9 G#2 131.2800 131.5190 0.2390 80
9 C2 131.5200 131.7590 0.2390 120
9 G#2 131.7600 131.9990 0.2390 80
9 D2 132.0000 132.1590 0.1590 96
9 D#2 132.0000 132.1590 0.1590 96
9 C2 132.0000 132.2390 0.2390 120
9 G#2 132.2400 132.3590 0.1190 80
9 D2 132.2400 132.3990 0.1590 96
9 D#2 132.2400 132.3990 0.1590 96
9 G#2 132.3600 132.4790 0.1190 80
9 C2 132.4800 132.7190 0.2390 120
9 G#2 132.7200 132.9590 0.2390 80
9 C2 132.9600 133.1990 0.2390 120
9 D2 132.9600 133.2800 0.3200 96
9 D#2 132.9600 133.2800 0.3200 96
9 G#2 133.2000 133.4390 0.2390 80
9 C2 133.4400 133.6790 0.2390 120
9 G#2 133.6800 133.9190 0.2390 80
9 C2 133.9200 134.1590 0.2390 120
9 D2 133.9200 134.2400 0.3200 96
9 D#2 133.9200 134.2400 0.3200 96
9 G#2 134.1600 134.2790 0.1190 80
9 G#2 134.2800 134.3990 0.1190 80
9 C2 134.4000 134.6390 0.2390 120
9 G#2 134.6400 134.8790 0.2390 80
9 C2 134.8800 135.1190 0.2390 120
9 D2 134.8800 135.2000 0.3200 96
9 D#2 134.8800 135.2000 0.3200 96
9 G#2 135.1200 135.3590 0.2390 80
9 C2 135.3600 135.5990 0.2390 120
9 G#2 135.6000 135.8390 0.2390 80
9 D2 135.8400 135.9990 0.1590 96
9 D#2 135.8400 135.9990 0.1590 96
9 C2 135.8400 136.0790 0.2390 120
9 G#2 136.0800 136.1990 0.1190 80
9 D2 136.0800 136.2390 0.1590 96
9 D#2 136.0800 136.2390 0.1590 96
9 G#2 136.2000 136.3190 0.1190 80
9 C2 136.3200 136.5590 0.2390 120
9 G#2 136.5600 136.7990 0.2390 80
9 C2 136.8000 137.0390 0.2390 120
9 D2 136.8000 137.1200 0.3200 96
9 D#2 136.8000 137.1200 0.3200 96
9 G#2 137.0400 137.2790 0.2390 80
9 C2 137.2800 137.5190 0.2390 120
9 G#2 137.5200 137.7590 0.2390 80
9 C2 137.7600 137.9990 0.2390 120
9 D2 137.7600 138.0800 0.3200 96
9 D#2 137.7600 138.0800 0.3200 96
9 G#2 138.0000 138.1190 0.1190 80
9 G#2 138.1200 138.2390 0.1190 80
9 C2 138.2400 138.4790 0.2390 120
9 G#2 138.4800 138.7190 0.2390 80
9 C2 138.7200 138.9590 0.2390 120
9 D2 138.7200 139.0400 0.3200 96
9 D#2 138.7200 139.0400 0.3200 96
9 G#2 138.9600 139.1990 0.2390 80
9 C2 139.2000 139.4390 0.2390 120
9 G#2 139.4400 139.6790 0.2390 80
9 D2 139.6800 139.8390 0.1590 96
9 D#2 139.6800 139.8390 0.1590 96
9 C2 139.6800 139.9190 0.2390 120
9 G#2 139.9200 140.0390 0.1190 80
9 D2 139.9200 140.0790 0.1590 96
9 D#2 139.9200 140.0790 0.1590 96
9 G#2 140.0400 140.1590 0.1190 80
9 C2 140.1600 140.3990 0.2390 120
9 G#2 140.4000 140.6390 0.2390 80
9 C2 140.6400 140.8790 0.2390 120
9 D2 140.6400 140.9600 0.3200 96
9 D#2 140.6400 140.9600 0.3200 96
9 G#2 140.8800 141.1190 0.2390 80
9 C2 141.1200 141.3590 0.2390 120
9 G#2 141.3600 141.5990 0.2390 80
9 C2 141.6000 141.8390 0.2390 120
9 D2 141.6000 141.9200 0.3200 96
9 D#2 141.6000 141.9200 0.3200 96
9 G#2 141.8400 141.9590 0.1190 80
9 G#2 141.9600 142.0790 0.1190 80
9 C2 142.0800 142.3190 0.2390 120
9 G#2 142.3200 142.5590 0.2390 80
9 C2 142.5600 142.7990 0.2390 120
9 D2 142.5600 142.8800 0.3200 96
9 D#2 142.5600 142.8800 0.3200 96
9 G#2 142.8000 143.0390 0.2390 80
9 C2 143.0400 143.2790 0.2390 120
9 G#2 143.2800 143.5190 0.2390 80
9 D2 143.5200 143.6790 0.1590 96
9 D#2 143.5200 143.6790 0.1590 96
9 C2 143.5200 143.7590 0.2390 120
9 G#2 143.7600 143.8790 0.1190 80
9 D2 143.7600 143.9190 0.1590 96
9 D#2 143.7600 143.9190 0.1590 96
9 G#2 143.8800 143.9990 0.1190 80
9 C2 144.0000 144.2390 0.2390 120
9 G#2 144.2400 144.4790 0.2390 80
9 C2 144.4800 144.7190 0.2390 120
9 D2 144.4800 144.8000 0.3200 96
9 D#2 144.4800 144.8000 0.3200 96
9 G#2 144.7200 144.9590 0.2390 80
9 C2 144.9600 145.1990 0.2390 120
9 G#2 145.2000 145.4390 0.2390 80
9 C2 145.4400 145.6790 0.2390 120
9 D2 145.4400 145.7600 0.3200 96
9 D#2 145.4400 145.7600 0.3200 96
9 G#2 145.6800 145.7990 0.1190 80
9 G#2 145.8000 145.9190 0.1190 80
9 C2 145.9200 146.1590 0.2390 120
9 G#2 146.1600 146.3990 0.2390 80
9 C2 146.4000 146.6390 0.2390 120
9 D2 146.4000 146.7200 0.3200 96
9 D#2 146.4000 146.7200 0.3200 96
9 G#2 146.6400 146.8790 0.2390 80
9 C2 146.8800 147.1190 0.2390 120
9 G#2 147.1200 147.3590 0.2390 80
9 D2 147.3600 147.5190 0.1590 96
9 D#2 147.3600 147.5190 0.1590 96
9 C2 147.3600 147.5990 0.2390 120
9 G#2 147.6000 147.7190 0.1190 80
9 D2 147.6000 147.7590 0.1590 96
9 D#2 147.6000 147.7590 0.1590 96
9 G#2 147.7200 147.8390 0.1190 80
9 C2 147.8400 148.0790 0.2390 120
9 G#2 148.0800 148.3190 0.2390 80
9 C2 148.3200 148.5590 0.2390 120
9 D2 148.3200 148.6400 0.3200 96
9 D#2 148.3200 148.6400 0.3200 96
9 G#2 148.5600 148.7990 0.2390 80
9 C2 148.8000 149.0390 0.2390 120
9 G#2 149.0400 149.2790 0.2390 80
9 C2 149.2800 149.5190 0.2390 120
9 D2 149.2800 149.6000 0.3200 96
9 D#2 149.2800 149.6000 0.3200 96
9 G#2 149.5200 149.6390 0.1190 80
9 G#2 149.6400 149.7590 0.1190 80
9 C2 149.7600 149.9990 0.2390 120
9 G#2 150.0000 150.2390 0.2390 80
9 C2 150.2400 150.4790 0.2390 120
9 D2 150.2400 150.5600 0.3200 96
9 D#2 150.2400 150.5600 0.3200 96
9 G#2 150.4800 150.7190 0.2390 80
9 C2 150.7200 150.9590 0.2390 120
9 G#2 150.9600 151.1990 0.2390 80
9 D2 151.2000 151.3590 0.1590 96
9 D#2 151.2000 151.3590 0.1590 96
9 C2 151.2000 151.4390 0.2390 120
9 G#2 151.4400 151.5590 0.1190 80
9 D2 151.4400 151.5990 0.1590 96
9 D#2 151.4400 151.5990 0.1590 96
9 G#2 151.5600 151.6790 0.1190 80
9 C2 151.6800 151.9190 0.2390 120
9 G#2 151.9200 152.1590 0.2390 80
9 C2 152.1600 152.3990 0.2390 120
9 D2 152.1600 152.4800 0.3200 96
9 D#2 152.1600 152.4800 0.3200 96
9 G#2 152.4000 152.6390 0.2390 80
9 C2 152.6400 152.8790 0.2390 120
9 G#2 152.8800 153.1190 0.2390 80
9 C2 153.1200 153.3590 0.2390 120
9 D2 153.1200 153.4400 0.3200 96
9 D#2 153.1200 153.4400 0.3200 96
9 G#2 153.3600 153.4790 0.1190 80
9 G#2 153.4800 153.5990 0.1190 80
9 C2 153.6000 153.8390 0.2390 120
9 G#2 153.8400 154.0790 0.2390 80
9 C2 154.0800 154.3190 0.2390 120
9 E2 154.0800 154.4000 0.3200 96
9 G#2 154.3200 154.5590 0.2390 80
9 C2 154.5600 154.7990 0.2390 120
9 E2 154.5600 154.9190 0.3590 80
9 G#2 154.8000 155.0390 0.2390 80
9 A2 154.9200 155.0390 0.1190 80
9 D#2 155.0400 155.1990 0.1590 80
9 C2 155.0400 155.2790 0.2390 120
9 G#2 155.2800 155.3990 0.1190 80
9 D2 155.2800 155.5190 0.2390 80
9 D#2 155.2800 155.5190 0.2390 80
9 G#2 155.4000 155.5190 0.1190 80
9 C2 155.5200 155.7590 0.2390 120
9 G#2 155.7600 155.9990 0.2390 80
9 C2 156.0000 156.2390 0.2390 120
9 D2 156.0000 156.3200 0.3200 96
9 D#2 156.0000 156.3200 0.3200 96
9 G#2 156.2400 156.4790 0.2390 80
9 C2 156.4800 156.7190 0.2390 120
9 G#2 156.7200 156.9590 0.2390 80
9 C2 156.9600 157.1990 0.2390 120
9 D2 156.9600 157.2800 0.3200 96
9 D#2 156.9600 157.2800 0.3200 96
9 G#2 157.2000 157.3190 0.1190 80
9 G#2 157.3200 157.4390 0.1190 80
9 C2 157.4400 157.6790 0.2390 120
9 G#2 157.6800 157.9190 0.2390 80
9 C2 157.9200 158.1590 0.2390 120
9 D2 157.9200 158.2400 0.3200 96
9 D#2 157.9200 158.2400 0.3200 96
9 G#2 158.1600 158.3990 0.2390 80
9 C2 158.4000 158.6390 0.2390 120
9 G#2 158.6400 158.8790 0.2390 80
9 D2 158.8800 159.0390 0.1590 96
9 D#2 158.8800 159.0390 0.1590 96
9 C2 158.8800 159.1190 0.2390 120
9 G#2 159.1200 159.2390 0.1190 80
9 D2 159.1200 159.2790 0.1590 96
9 D#2 159.1200 159.2790 0.1590 96
9 G#2 159.2400 159.3590 0.1190 80
9 C2 159.3600 159.5990 0.2390 120
9 G#2 159.6000 159.8390 0.2390 80
9 C2 159.8400 160.0790 0.2390 120
9 D2 159.8400 160.1600 0.3200 96
9 D#2 159.8400 160.1600 0.3200 96
9 G#2 160.0800 160.3190 0.2390 80
9 C2 160.3200 160.5590 0.2390 120
9 G#2 160.5600 160.7990 0.2390 80
9 C2 160.8000 161.0390 0.2390 120
9 D2 160.8000 161.1200 0.3200 96
9 D#2 160.8000 161.1200 0.3200 96
9 G#2 161.0400 161.1590 0.1190 80
9 G#2 161.1600 161.2790 0.1190 80
9 C2 161.2800 161.5190 0.2390 120
9 G#2 161.5200 161.7590 0.2390 80
9 C2 161.7600 161.9990 0.2390 120
9 D2 161.7600 162.0800 0.3200 96
9 D#2 161.7600 162.0800 0.3200 96
9 G#2 162.0000 162.2390 0.2390 80
9 C2 162.2400 162.4790 0.2390 120
9 G#2 162.4800 162.7190 0.2390 80
9 D2 162.7200 162.8790 0.1590 96
9 D#2 162.7200 162.8790 0.1590 96
9 C2 162.7200 162.9590 0.2390 120
9 G#2 162.9600 163.0790 0.1190 80
9 D2 162.9600 163.1190 0.1590 96
9 D#2 162.9600 163.1190 0.1590 96
9 G#2 163.0800 163.1990 0.1190 80
9 C2 163.2000 163.4390 0.2390 120
9 G#2 163.4400 163.6790 0.2390 80
9 C2 163.6800 163.9190 0.2390 120
9 D2 163.6800 164.0000 0.3200 96
9 D#2 163.6800 164.0000 0.3200 96
9 G#2 163.9200 164.1590 0.2390 80
9 C2 164.1600 164.3990 0.2390 120
9 G#2 164.4000 164.6390 0.2390 80
9 C2 164.6400 164.8790 0.2390 120
9 D2 164.6400 164.9600 0.3200 96
9 D#2 164.6400 164.9600 0.3200 96
9 G#2 164.8800 164.9990 0.1190 80
9 G#2 165.0000 165.1190 0.1190 80
9 C2 165.1200 165.3590 0.2390 120
9 G#2 165.3600 165.5990 0.2390 80
9 C2 165.6000 165.8390 0.2390 120
9 D2 165.6000 165.9200 0.3200 96
9 D#2 165.6000 165.9200 0.3200 96
9 G#2 165.8400 166.0790 0.2390 80
9 C2 166.0800 166.3190 0.2390 120
9 G#2 166.3200 166.5590 0.2390 80
9 D2 166.5600 166.7190 0.1590 96
9 D#2 166.5600 166.7190 0.1590 96
9 C2 166.5600 166.7990 0.2390 120
9 G#2 166.8000 166.9190 0.1190 80
9 D2 166.8000 166.9590 0.1590 96
9 D#2 166.8000 166.9590 0.1590 96
9 G#2 166.9200 167.0390 0.1190 80
9 C2 167.0400 167.2790 0.2390 120
9 G#2 167.2800 167.5190 0.2390 80
9 C2 167.5200 167.7590 0.2390 120
9 D2 167.5200 167.8400 0.3200 96
9 D#2 167.5200 167.8400 0.3200 96
9 G#2 167.7600 167.9990 0.2390 80
9 C2 168.0000 168.2390 0.2390 120
9 G#2 168.2400 168.4790 0.2390 80
9 C2 168.4800 168.7190 0.2390 120
9 D2 168.4800 168.8000 0.3200 96
9 D#2 168.4800 168.8000 0.3200 96
9 G#2 168.7200 168.8390 0.1190 80
9 G#2 168.8400 168.9590 0.1190 80
9 C2 168.9600 169.1990 0.2390 120
9 G#2 169.2000 169.4390 0.2390 80
9 C2 169.4400 169.6790 0.2390 120
9 D2 169.4400 169.7600 0.3200 96
9 D#2 169.4400 169.7600 0.3200 96
9 G#2 169.6800 169.9190 0.2390 80
9 C2 169.9200 170.1590 0.2390 120
9 G#2 170.1600 170.3990 0.2390 80
9 D2 170.4000 170.5590 0.1590 96
9 D#2 170.4000 170.5590 0.1590 96
9 C2 170.4000 170.6390 0.2390 120
9 G#2 170.6400 170.7590 0.1190 80
9 D2 170.6400 170.7990 0.1590 96
9 D#2 170.6400 170.7990 0.1590 96
9 G#2 170.7600 170.8790 0.1190 80
9 C2 170.8800 171.1190 0.2390 120
9 G#2 171.1200 171.3590 0.2390 80
9 C2 171.3600 171.5990 0.2390 120
9 D2 171.3600 171.6800 0.3200 96
9 D#2 171.3600 171.6800 0.3200 96
9 G#2 171.6000 171.8390 0.2390 80
9 C2 171.8400 172.0790 0.2390 120
9 G#2 172.0800 172.3190 0.2390 80
9 C2 172.3200 172.5590 0.2390 120
9 D2 172.3200 172.6400 0.3200 96
9 D#2 172.3200 172.6400 0.3200 96
9 G#2 172.5600 172.6790 0.1190 80
9 G#2 172.6800 172.7990 0.1190 80
9 C2 172.8000 173.0390 0.2390 120
9 G#2 173.0400 173.2790 0.2390 80
9 C2 173.2800 173.5190 0.2390 120
9 D2 173.2800 173.6000 0.3200 96
9 D#2 173.2800 173.6000 0.3200 96
9 G#2 173.5200 173.7590 0.2390 80
9 C2 173.7600 173.9990 0.2390 120
9 G#2 174.0000 174.2390 0.2390 80
9 D2 174.2400 174.3990 0.1590 96
9 D#2 174.2400 174.3990 0.1590 96
9 C2 174.2400 174.4790 0.2390 120
9 G#2 174.4800 174.5990 0.1190 80
9 D2 174.4800 174.6390 0.1590 96
9 D#2 174.4800 174.6390 0.1590 96
9 G#2 174.6000 174.7190 0.1190 80
9 C2 174.7200 174.9590 0.2390 120
9 G#2 174.9600 175.1990 0.2390 80
9 C2 175.2000 175.4390 0.2390 120
9 D2 175.2000 175.5200 0.3200 96
9 D#2 175.2000 175.5200 0.3200 96
9 G#2 175.4400 175.6790 0.2390 80
9 C2 175.6800 175.9190 0.2390 120
9 G#2 175.9200 176.1590 0.2390 80
9 C2 176.1600 176.3990 0.2390 120
9 D2 176.1600 176.4800 0.3200 96
9 D#2 176.1600 176.4800 0.3200 96
9 G#2 176.4000 176.5190 0.1190 80
9 G#2 176.5200 176.6390 0.1190 80
9 C2 176.6400 176.8790 0.2390 120
9 G#2 176.8800 177.1190 0.2390 80
9 C2 177.1200 177.3590 0.2390 120
9 D2 177.1200 177.4400 0.3200 96
9 D#2 177.1200 177.4400 0.3200 96
9 G#2 177.3600 177.5990 0.2390 80
9 C2 177.6000 177.8390 0.2390 120
9 G#2 177.8400 178.0790 0.2390 80
9 D2 178.0800 178.2390 0.1590 96
9 D#2 178.0800 178.2390 0.1590 96
9 C2 178.0800 178.3190 0.2390 120
9 G#2 178.3200 178.4390 0.1190 80
9 D2 178.3200 178.4790 0.1590 96
9 D#2 178.3200 178.4790 0.1590 96
9 G#2 178.4400 178.5590 0.1190 80
9 C2 178.5600 178.7990 0.2390 120
9 G#2 178.8000 179.0390 0.2390 80
9 C2 179.0400 179.2790 0.2390 120
9 D2 179.0400 179.3600 0.3200 96
9 D#2 179.0400 179.3600 0.3200 96
9 G#2 179.2800 179.5190 0.2390 80
9 C2 179.5200 179.7590 0.2390 120
9 G#2 179.7600 179.9990 0.2390 80
9 C2 180.0000 180.2390 0.2390 120
9 D2 180.0000 180.3200 0.3200 96
9 D#2 180.0000 180.3200 0.3200 96
9 G#2 180.2400 180.3590 0.1190 80
9 G#2 180.3600 180.4790 0.1190 80
9 C2 180.4800 180.7190 0.2390 120
9 G#2 180.7200 180.9590 0.2390 80
9 C2 180.9600 181.1990 0.2390 120
9 D2 180.9600 181.2800 0.3200 96
9 D#2 180.9600 181.2800 0.3200 96
9 G#2 181.2000 181.4390 0.2390 80
9 C2 181.4400 181.6790 0.2390 120
9 G#2 181.6800 181.9190 0.2390 80
9 D2 181.9200 182.0790 0.1590 96
9 D#2 181.9200 182.0790 0.1590 96
9 C2 181.9200 182.1590 0.2390 120
9 G#2 182.1600 182.2790 0.1190 80
9 D2 182.1600 182.3190 0.1590 96
9 D#2 182.1600 182.3190 0.1590 96
9 G#2 182.2800 182.3990 0.1190 80
9 C2 182.4000 182.6390 0.2390 120
9 G#2 182.6400 182.8790 0.2390 80
9 C2 182.8800 183.1190 0.2390 120
9 D2 182.8800 183.2000 0.3200 96
9 D#2 182.8800 183.2000 0.3200 96
9 G#2 183.1200 183.3590 0.2390 80
9 C2 183.3600 183.5990 0.2390 120
9 G#2 183.6000 183.8390 0.2390 80
9 C2 183.8400 184.0790 0.2390 120
9 D2 183.8400 184.1600 0.3200 96
9 D#2 183.8400 184.1600 0.3200 96
9 G#2 184.0800 184.1990 0.1190 80
9 G#2 184.2000 184.3190 0.1190 80
9 C2 184.3200 184.5590 0.2390 120
9 G#2 184.5600 184.7990 0.2390 80
9 C2 184.8000 185.0390 0.2390 120
9 D2 184.8000 185.1200 0.3200 96
9 D#2 184.8000 185.1200 0.3200 96
9 G#2 185.0400 185.2790 0.2390 80
9 C2 185.2800 185.5190 0.2390 120
9 G#2 185.5200 185.7590 0.2390 80
9 D2 185.7600 185.9190 0.1590 96
9 D#2 185.7600 185.9190 0.1590 96
9 C2 185.7600 185.9990 0.2390 120
9 G#2 186.0000 186.1190 0.1190 80
9 D2 186.0000 186.1590 0.1590 96
9 D#2 186.0000 186.1590 0.1590 96
9 G#2 186.1200 186.2390 0.1190 80
9 C2 186.2400 186.4790 0.2390 120
9 G#2 186.4800 186.7190 0.2390 80
9 C2 186.7200 186.9590 0.2390 120
9 D2 186.7200 187.0400 0.3200 96
9 D#2 186.7200 187.0400 0.3200 96
9 G#2 186.9600 187.1990 0.2390 80
9 C2 187.2000 187.4390 0.2390 120
9 G#2 187.4400 187.6790 0.2390 80
9 C2 187.6800 187.9190 0.2390 120
9 D2 187.6800 188.0000 0.3200 96
9 D#2 187.6800 188.0000 0.3200 96
9 G#2 187.9200 188.0390 0.1190 80
9 G#2 188.0400 188.1590 0.1190 80
9 C2 188.1600 188.3990 0.2390 120
9 G#2 188.4000 188.6390 0.2390 80
9 C2 188.6400 188.8790 0.2390 120
9 D2 188.6400 188.9600 0.3200 96
9 D#2 188.6400 188.9600 0.3200 96
9 G#2 188.8800 189.1190 0.2390 80
9 C2 189.1200 189.3590 0.2390 120
9 G#2 189.3600 189.5990 0.2390 80
9 D2 189.6000 189.7590 0.1590 96
9 D#2 189.6000 189.7590 0.1590 96
9 C2 189.6000 189.8390 0.2390 120
9 G#2 189.8400 189.9590 0.1190 80
9 D2 189.8400 189.9990 0.1590 96
9 D#2 189.8400 189.9990 0.1590 96
9 G#2 189.9600 190.0790 0.1190 80
9 C2 190.0800 190.3190 0.2390 120
9 G#2 190.3200 190.5590 0.2390 80
9 C2 190.5600 190.7990 0.2390 120
9 D2 190.5600 190.8800 0.3200 96
9 D#2 190.5600 190.8800 0.3200 96
9 G#2 190.8000 191.0390 0.2390 80
9 C2 191.0400 191.2790 0.2390 120
9 G#2 191.2800 191.5190 0.2390 80
9 C2 191.5200 191.7590 0.2390 120
9 D2 191.5200 191.8400 0.3200 96
9 D#2 191.5200 191.8400 0.3200 96
9 G#2 191.7600 191.8790 0.1190 80
9 G#2 191.8800 191.9990 0.1190 80
9 C2 192.0000 192.2390 0.2390 120
9 G#2 192.2400 192.4790 0.2390 80
9 C2 192.4800 192.7190 0.2390 120
9 D2 192.4800 192.8000 0.3200 96
9 D#2 192.4800 192.8000 0.3200 96
9 G#2 192.7200 192.9590 0.2390 80
9 C2 192.9600 193.1990 0.2390 120
9 G#2 193.2000 193.4390 0.2390 80
9 D2 193.4400 193.5990 0.1590 96
9 D#2 193.4400 193.5990 0.1590 96
9 C2 193.4400 193.6790 0.2390 120
9 G#2 193.6800 193.7990 0.1190 80
9 D2 193.6800 193.8390 0.1590 96
9 D#2 193.6800 193.8390 0.1590 96
9 G#2 193.8000 193.9190 0.1190 80
9 C2 193.9200 194.1590 0.2390 120
9 G#2 194.1600 194.3990 0.2390 80
9 C2 194.4000 194.6390 0.2390 120
9 D2 194.4000 194.7200 0.3200 96
9 D#2 194.4000 194.7200 0.3200 96
9 G#2 194.6400 194.8790 0.2390 80
9 C2 194.8800 195.1190 0.2390 120
9 G#2 195.1200 195.3590 0.2390 80
9 C2 195.3600 195.5990 0.2390 120
9 D2 195.3600 195.6800 0.3200 96
9 D#2 195.3600 195.6800 0.3200 96
9 G#2 195.6000 195.7190 0.1190 80
9 G#2 195.7200 195.8390 0.1190 80
9 C2 195.8400 196.0790 0.2390 120
9 G#2 196.0800 196.3190 0.2390 80
9 C2 196.3200 196.5590 0.2390 120
9 D2 196.3200 196.6400 0.3200 96
9 D#2 196.3200 196.6400 0.3200 96
9 G#2 196.5600 196.7990 0.2390 80
9 C2 196.8000 197.0390 0.2390 120
9 G#2 197.0400 197.2790 0.2390 80
9 D2 197.2800 197.4390 0.1590 96
9 D#2 197.2800 197.4390 0.1590 96
9 C2 197.2800 197.5190 0.2390 120
9 G#2 197.5200 197.6390 0.1190 80
9 D2 197.5200 197.6790 0.1590 96
9 D#2 197.5200 197.6790 0.1590 96
9 G#2 197.6400 197.7590 0.1190 80
9 C2 197.7600 197.9990 0.2390 120
9 G#2 198.0000 198.2390 0.2390 80
9 C2 198.2400 198.4790 0.2390 120
9 D2 198.2400 198.5600 0.3200 96
9 D#2 198.2400 198.5600 0.3200 96
9 G#2 198.4800 198.7190 0.2390 80
9 C2 198.7200 198.9590 0.2390 120
9 G#2 198.9600 199.1990 0.2390 80
9 C2 199.2000 199.4390 0.2390 120
9 D2 199.2000 199.5200 0.3200 96
9 D#2 199.2000 199.5200 0.3200 96
9 G#2 199.4400 199.5590 0.1190 80
9 G#2 199.5600 199.6790 0.1190 80
9 C2 199.6800 199.9190 0.2390 120
9 G#2 199.9200 200.1590 0.2390 80
9 C2 200.1600 200.3990 0.2390 120
9 D2 200.1600 200.4800 0.3200 96
9 D#2 200.1600 200.4800 0.3200 96
9 G#2 200.4000 200.6390 0.2390 80
9 C2 200.6400 200.8790 0.2390 120
9 G#2 200.8800 201.1190 0.2390 80
9 D2 201.1200 201.2790 0.1590 96
9 D#2 201.1200 201.2790 0.1590 96
9 C2 201.1200 201.3590 0.2390 120
9 G#2 201.3600 201.4790 0.1190 80
9 D2 201.3600 201.5190 0.1590 96
9 D#2 201.3600 201.5190 0.1590 96
9 G#2 201.4800 201.5990 0.1190 80
9 C2 201.6000 201.8390 0.2390 120
9 G#2 201.8400 202.0790 0.2390 80
9 C2 202.0800 202.3190 0.2390 120
9 D2 202.0800 202.4000 0.3200 96
9 D#2 202.0800 202.4000 0.3200 96
9 G#2 202.3200 202.5590 0.2390 80
9 C2 202.5600 202.7990 0.2390 120
9 G#2 202.8000 203.0390 0.2390 80
9 C2 203.0400 203.2790 0.2390 120
9 D2 203.0400 203.3600 0.3200 96
9 D#2 203.0400 203.3600 0.3200 96
9 G#2 203.2800 203.3990 0.1190 80
9 G#2 203.4000 203.5190 0.1190 80
9 C2 203.5200 203.7590 0.2390 120
9 G#2 203.7600 203.9990 0.2390 80
9 C2 204.0000 204.2390 0.2390 120
9 D2 204.0000 204.3200 0.3200 96
9 D#2 204.0000 204.3200 0.3200 96
9 G#2 204.2400 204.4790 0.2390 80
9 C2 204.4800 204.7190 0.2390 120
9 G#2 204.7200 204.9590 0.2390 80
9 D2 204.9600 205.1190 0.1590 96
9 D#2 204.9600 205.1190 0.1590 96
9 C2 204.9600 205.1990 0.2390 120
9 G#2 205.2000 205.3190 0.1190 80
9 D2 205.2000 205.3590 0.1590 96
9 D#2 205.2000 205.3590 0.1590 96
9 G#2 205.3200 205.4390 0.1190 80
9 C2 205.4400 205.6790 0.2390 120
9 G#2 205.6800 205.9190 0.2390 80
9 C2 205.9200 206.1590 0.2390 120
9 D2 205.9200 206.2400 0.3200 96
9 D#2 205.9200 206.2400 0.3200 96
9 G#2 206.1600 206.3990 0.2390 80
9 C2 206.4000 206.6390 0.2390 120
9 G#2 206.6400 206.8790 0.2390 80
9 C2 206.8800 207.1190 0.2390 120
9 D2 206.8800 207.2000 0.3200 96
9 D#2 206.8800 207.2000 0.3200 96
9 G#2 207.1200 207.2390 0.1190 80
9 G#2 207.2400 207.3590 0.1190 80
9 C2 207.3600 207.5990 0.2390 120
9 G#2 207.6000 207.8390 0.2390 80
9 C2 207.8400 208.0790 0.2390 120
9 D2 207.8400 208.1600 0.3200 96
9 D#2 207.8400 208.1600 0.3200 96
9 G#2 208.0800 208.3190 0.2390 80
9 C2 208.3200 208.5590 0.2390 120
9 G#2 208.5600 208.7990 0.2390 80
9 D2 208.8000 208.9590 0.1590 96
9 D#2 208.8000 208.9590 0.1590 96
9 C2 208.8000 209.0390 0.2390 120
9 G#2 209.0400 209.1590 0.1190 80
9 D2 209.0400 209.1990 0.1590 96
9 D#2 209.0400 209.1990 0.1590 96
9 G#2 209.1600 209.2790 0.1190 80
9 C2 209.2800 209.5190 0.2390 120
9 G#2 209.5200 209.7590 0.2390 80
9 C2 209.7600 209.9990 0.2390 120
9 D2 209.7600 210.0800 0.3200 96
9 D#2 209.7600 210.0800 0.3200 96
9 G#2 210.0000 210.2390 0.2390 80
9 C2 210.2400 210.4790 0.2390 120
9 G#2 210.4800 210.7190 0.2390 80
9 C2 210.7200 210.9590 0.2390 120
9 D2 210.7200 211.0400 0.3200 96
9 D#2 210.7200 211.0400 0.3200 96
9 G#2 210.9600 211.0790 0.1190 80
9 G#2 211.0800 211.1990 0.1190 80
9 C2 211.2000 211.4390 0.2390 120
9 G#2 211.4400 211.6790 0.2390 80
9 C2 211.6800 211.9190 0.2390 120
9 D2 211.6800 212.0000 0.3200 96
9 D#2 211.6800 212.0000 0.3200 96
9 G#2 211.9200 212.1590 0.2390 80
9 C2 212.1600 212.3990 0.2390 120
9 G#2 212.4000 212.6390 0.2390 80
9 D2 212.6400 212.7990 0.1590 96
9 D#2 212.6400 212.7990 0.1590 96
9 C2 212.6400 212.8790 0.2390 120
9 G#2 212.8800 212.9990 0.1190 80
9 D2 212.8800 213.0390 0.1590 96
9 D#2 212.8800 213.0390 0.1590 96
9 G#2 213.0000 213.1190 0.1190 80
9 C2 213.1200 213.3590 0.2390 120
9 G#2 213.3600 213.5990 0.2390 80
9 C2 213.6000 213.8390 0.2390 120
9 D2 213.6000 213.9200 0.3200 96
9 D#2 213.6000 213.9200 0.3200 96
9 G#2 213.8400 214.0790 0.2390 80
9 C2 214.0800 214.3190 0.2390 120
9 G#2 214.3200 214.5590 0.2390 80
9 C2 214.5600 214.7990 0.2390 120
9 D2 214.5600 214.8800 0.3200 96
9 D#2 214.5600 214.8800 0.3200 96
9 G#2 214.8000 214.9190 0.1190 80
9 G#2 214.9200 215.0390 0.1190 80
9 C2 215.0400 215.2790 0.2390 120
9 G#2 215.2800 215.5190 0.2390 80
9 C2 215.5200 215.7590 0.2390 120
9 D2 215.5200 215.8400 0.3200 96
9 D#2 215.5200 215.8400 0.3200 96
9 G#2 215.7600 215.9990 0.2390 80
9 C2 216.0000 216.2390 0.2390 120
9 G#2 216.2400 216.4790 0.2390 80
9 D2 216.4800 216.6390 0.1590 96
9 D#2 216.4800 216.6390 0.1590 96
9 C2 216.4800 216.7190 0.2390 120
9 G#2 216.7200 216.8390 0.1190 80
9 D2 216.7200 216.8790 0.1590 96
9 D#2 216.7200 216.8790 0.1590 96
9 G#2 216.8400 216.9590 0.1190 80
10 B4 0.9600 1.9190 0.9590 80
10 D5 0.9600 1.9190 0.9590 80
10 D5 154.5600 155.5190 0.9590 80
11 E3 48.0000 48.1190 0.1190 50
11 E3 48.2400 48.3590 0.1190 81
11 E3 48.4800 48.5990 0.1190 50
11 E3 48.7200 48.8390 0.1190 81
11 E3 48.9600 49.0790 0.1190 50
11 E3 49.2000 49.3190 0.1190 81
11 E3 49.4400 49.5590 0.1190 50
11 E3 49.6800 49.7990 0.1190 81
11 E3 49.9200 50.0390 0.1190 50
11 E3 50.1600 50.2790 0.1190 81
11 E3 50.4000 50.5190 0.1190 50
11 E3 50.6400 50.7590 0.1190 81
11 E3 50.8800 50.9990 0.1190 50
11 E3 51.1200 51.2390 0.1190 81
11 E3 51.3600 51.4790 0.1190 50
11 E3 51.6000 51.7190 0.1190 81
11 E3 51.8400 51.9590 0.1190 50
11 C3 52.0800 52.1990 0.1190 81
11 C3 52.3200 52.4390 0.1190 50
11 C3 52.5600 52.6790 0.1190 81
11 C3 52.8000 52.9190 0.1190 50
11 D3 53.0400 53.1590 0.1190 81
11 D3 53.2800 53.3990 0.1190 50
11 D3 53.5200 53.6390 0.1190 81
11 D3 53.7600 53.8790 0.1190 50
11 G3 54.0000 54.1190 0.1190 81
11 G3 54.2400 54.3590 0.1190 50
11 G3 54.4800 54.5990 0.1190 81
11 G3 54.7200 54.8390 0.1190 50
11 G3 54.9600 55.0790 0.1190 81
11 G3 55.2000 55.3190 0.1190 50
11 G3 55.4400 55.5590 0.1190 81
11 G3 55.6800 55.7990 0.1190 50
11 A3 55.9200 56.0390 0.1190 81
11 A3 56.1600 56.2790 0.1190 50
11 A3 56.4000 56.5190 0.1190 81
11 A3 56.6400 56.7590 0.1190 50
11 A3 56.8800 56.9990 0.1190 81
11 A3 57.1200 57.2390 0.1190 50
11 A3 57.3600 57.4790 0.1190 81
11 A3 57.6000 57.7190 0.1190 50
11 B2 57.8400 57.9590 0.1190 81
11 B2 58.0800 58.1990 0.1190 50
11 B2 58.3200 58.4390 0.1190 81
11 B2 58.5600 58.6790 0.1190 50
11 B2 58.8000 58.9190 0.1190 81
11 B2 59.0400 59.1590 0.1190 50
11 B2 59.2800 59.3990 0.1190 81
11 B2 59.5200 59.6390 0.1190 50
11 C3 59.7600 59.8790 0.1190 81
11 C3 60.0000 60.1190 0.1190 50
11 C3 60.2400 60.3590 0.1190 81
11 C3 60.4800 60.5990 0.1190 50
11 D3 60.7200 60.8390 0.1190 81
11 D3 60.9600 61.0790 0.1190 50
11 D3 61.2000 61.3190 0.1190 81
11 D3 61.4400 61.5590 0.1190 50
11 E3 61.6800 61.7990 0.1190 81
11 E3 61.9200 62.0390 0.1190 50
11 E3 62.1600 62.2790 0.1190 81
11 E3 62.4000 62.5190 0.1190 50
11 E3 62.6400 62.7590 0.1190 81
11 E3 62.8800 62.9990 0.1190 50
11 E3 63.1200 63.2390 0.1190 81
11 E3 63.3600 63.4790 0.1190 50
11 E3 63.6000 63.7190 0.1190 81
11 E3 63.8400 63.9590 0.1190 50
11 E3 64.0800 64.1990 0.1190 81
11 E3 64.3200 64.4390 0.1190 50
11 E3 64.5600 64.6790 0.1190 81
11 E3 64.8000 64.9190 0.1190 50
11 E3 65.0400 65.1590 0.1190 81
11 E3 65.2800 65.3990 0.1190 50
11 E3 65.5200 65.6390 0.1190 81
11 E3 65.7600 65.8790 0.1190 50
11 E3 66.0000 66.1190 0.1190 81
11 E3 66.2400 66.3590 0.1190 50
11 E3 66.4800 66.5990 0.1190 81
11 E3 66.7200 66.8390 0.1190 50
11 E3 66.9600 67.0790 0.1190 81
11 E3 67.2000 67.3190 0.1190 50
11 C3 67.4400 67.5590 0.1190 81
11 C3 67.6800 67.7990 0.1190 50
11 C3 67.9200 68.0390 0.1190 81
11 C3 68.1600 68.2790 0.1190 50
11 D3 68.4000 68.5190 0.1190 81
11 D3 68.6400 68.7590 0.1190 50
11 D3 68.8800 68.9990 0.1190 81
11 D3 69.1200 69.2390 0.1190 50
11 G3 69.3600 69.4790 0.1190 81
11 G3 69.6000 69.7190 0.1190 50
11 G3 69.8400 69.9590 0.1190 81
11 G3 70.0800 70.1990 0.1190 50
11 G3 70.3200 70.4390 0.1190 81
11 G3 70.5600 70.6790 0.1190 50
11 G3 70.8000 70.9190 0.1190 81
11 G3 71.0400 71.1590 0.1190 50
11 A3 71.2800 71.3990 0.1190 81
11 A3 71.5200 71.6390 0.1190 50
11 A3 71.7600 71.8790 0.1190 81
11 A3 72.0000 72.1190 0.1190 50
11 A3 72.2400 72.3590 0.1190 81
11 A3 72.4800 72.5990 0.1190 50
11 A3 72.7200 72.8390 0.1190 81
11 A3 72.9600 73.0790 0.1190 50
11 B2 73.2000 73.3190 0.1190 81
11 B2 73.4400 73.5590 0.1190 50
11 B2 73.6800 73.7990 0.1190 81
11 B2 73.9200 74.0390 0.1190 50
11 B2 74.1600 74.2790 0.1190 81
11 B2 74.4000 74.5190 0.1190 50
11 B2 74.6400 74.7590 0.1190 81
11 B2 74.8800 74.9990 0.1190 50
11 C3 75.1200 75.2390 0.1190 81
11 C3 75.3600 75.4790 0.1190 50
11 C3 75.6000 75.7190 0.1190 81
11 C3 75.8400 75.9590 0.1190 50
11 D3 76.0800 76.1990 0.1190 81
11 D3 76.3200 76.4390 0.1190 50
11 D3 76.5600 76.6790 0.1190 81
11 D3 76.8000 76.9190 0.1190 50
11 E3 77.0400 77.1590 0.1190 81
11 E3 77.2800 77.3990 0.1190 50
11 E3 77.5200 77.6390 0.1190 81
11 E3 77.7600 77.8790 0.1190 50
11 E3 78.0000 78.1190 0.1190 81
11 E3 78.2400 78.3590 0.1190 50
11 E3 78.4800 78.5990 0.1190 81
11 E3 109.4400 109.5590 0.1190 50
11 E3 109.6800 109.7990 0.1190 81
11 E3 109.9200 110.0390 0.1190 50
11 E3 110.1600 110.2790 0.1190 81
11 E3 110.4000 110.5190 0.1190 50
11 E3 110.6400 110.7590 0.1190 81
11 E3 110.8800 110.9990 0.1190 50
11 E3 111.1200 111.2390 0.1190 81
11 E3 111.3600 111.4790 0.1190 50
11 E3 111.6000 111.7190 0.1190 81
11 E3 111.8400 111.9590 0.1190 50
11 E3 112.0800 112.1990 0.1190 81
11 E3 112.3200 112.4390 0.1190 50
11 E3 112.5600 112.6790 0.1190 81
11 E3 112.8000 112.9190 0.1190 50
11 E3 113.0400 113.1590 0.1190 81
11 E3 113.2800 113.3990 0.1190 50
11 C3 113.5200 113.6390 0.1190 81
11 C3 113.7600 113.8790 0.1190 50
11 C3 114.0000 114.1190 0.1190 81
11 C3 114.2400 114.3590 0.1190 50
11 D3 114.4800 114.5990 0.1190 81
11 D3 114.7200 114.8390 0.1190 50
11 D3 114.9600 115.0790 0.1190 81
11 D3 115.2000 115.3190 0.1190 50
11 G3 115.4400 115.5590 0.1190 81
11 G3 115.6800 115.7990 0.1190 50
11 G3 115.9200 116.0390 0.1190 81
11 G3 116.1600 116.2790 0.1190 50
11 G3 116.4000 116.5190 0.1190 81
11 G3 116.6400 116.7590 0.1190 50
11 G3 116.8800 116.9990 0.1190 81
11 G3 117.1200 117.2390 0.1190 50
11 A3 117.3600 117.4790 0.1190 81
11 A3 117.6000 117.7190 0.1190 50
11 A3 117.8400 117.9590 0.1190 81
11 A3 118.0800 118.1990 0.1190 50
11 A3 118.3200 118.4390 0.1190 81
11 A3 118.5600 118.6790 0.1190 50
11 A3 118.8000 118.9190 0.1190 81
11 A3 119.0400 119.1590 0.1190 50
11 B2 119.2800 119.3990 0.1190 81
11 B2 119.5200 119.6390 0.1190 50
11 B2 119.7600 119.8790 0.1190 81
11 B2 120.0000 120.1190 0.1190 50
11 B2 120.2400 120.3590 0.1190 81
11 B2 120.4800 120.5990 0.1190 50
11 B2 120.7200 120.8390 0.1190 81
11 B2 120.9600 121.0790 0.1190 50
11 C3 121.2000 121.3190 0.1190 81
11 C3 121.4400 121.5590 0.1190 50
11 C3 121.6800 121.7990 0.1190 81
11 C3 121.9200 122.0390 0.1190 50
11 D3 122.1600 122.2790 0.1190 81
11 D3 122.4000 122.5190 0.1190 50
11 D3 122.6400 122.7590 0.1190 81
11 D3 122.8800 122.9990 0.1190 50
11 E3 123.1200 123.2390 0.1190 81
11 E3 123.3600 123.4790 0.1190 50
11 E3 123.6000 123.7190 0.1190 81
11 E3 123.8400 123.9590 0.1190 50
11 E3 124.0800 124.1990 0.1190 81
11 E3 124.3200 124.4390 0.1190 50
11 E3 124.5600 124.6790 0.1190 81
11 E3 124.8000 124.9190 0.1190 50
11 E3 125.0400 125.1590 0.1190 81
11 E3 125.2800 125.3990 0.1190 50
11 E3 125.5200 125.6390 0.1190 81
11 E3 125.7600 125.8790 0.1190 50
11 E3 126.0000 126.1190 0.1190 81
11 E3 126.2400 126.3590 0.1190 50
11 E3 126.4800 126.5990 0.1190 81
11 E3 126.7200 126.8390 0.1190 50
11 E3 126.9600 127.0790 0.1190 81
11 E3 127.2000 127.3190 0.1190 50
11 E3 127.4400 127.5590 0.1190 81
11 E3 127.6800 127.7990 0.1190 50
11 E3 127.9200 128.0390 0.1190 81
11 E3 128.1600 128.2790 0.1190 50
11 E3 128.4000 128.5190 0.1190 81
11 E3 128.6400 128.7590 0.1190 50
11 C3 128.8800 128.9990 0.1190 81
11 C3 129.1200 129.2390 0.1190 50
11 C3 129.3600 129.4790 0.1190 81
11 C3 129.6000 129.7190 0.1190 50
11 D3 129.8400 129.9590 0.1190 81
11 D3 130.0800 130.1990 0.1190 50
11 D3 130.3200 130.4390 0.1190 81
11 D3 130.5600 130.6790 0.1190 50
11 G3 130.8000 130.9190 0.1190 81
11 G3 131.0400 131.1590 0.1190 50
11 G3 131.2800 131.3990 0.1190 81
11 G3 131.5200 131.6390 0.1190 50
11 G3 131.7600 131.8790 0.1190 81
11 G3 132.0000 132.1190 0.1190 50
11 G3 132.2400 132.3590 0.1190 81
11 G3 132.4800 132.5990 0.1190 50
11 A3 132.7200 132.8390 0.1190 81
11 A3 132.9600 133.0790 0.1190 50
11 A3 133.2000 133.3190 0.1190 81
11 A3 133.4400 133.5590 0.1190 50
11 A3 133.6800 133.7990 0.1190 81
11 A3 133.9200 134.0390 0.1190 50
11 A3 134.1600 134.2790 0.1190 81
11 A3 134.4000 134.5190 0.1190 50
11 B2 134.6400 134.7590 0.1190 81
11 B2 134.8800 134.9990 0.1190 50
11 B2 135.1200 135.2390 0.1190 81
11 B2 135.3600 135.4790 0.1190 50
11 B2 135.6000 135.7190 0.1190 81
11 B2 135.8400 135.9590 0.1190 50
11 B2 136.0800 136.1990 0.1190 81
11 B2 136.3200 136.4390 0.1190 50
11 C3 136.5600 136.6790 0.1190 81
11 C3 136.8000 136.9190 0.1190 50
11 C3 137.0400 137.1590 0.1190 81
11 C3 137.2800 137.3990 0.1190 50
11 D3 137.5200 137.6390 0.1190 81
11 D3 137.7600 137.8790 0.1190 50
11 D3 138.0000 138.1190 0.1190 81
11 D3 138.2400 138.3590 0.1190 50
11 E3 138.4800 138.5990 0.1190 81
11 E3 138.7200 138.8390 0.1190 50
11 E3 138.9600 139.0790 0.1190 81
11 E3 139.2000 139.3190 0.1190 50
11 E3 139.4400 139.5590 0.1190 81
11 E3 139.6800 139.7990 0.1190 50
11 E3 139.9200 140.0390 0.1190 81
11 E3 140.1600 140.2790 0.1190 50
11 E3 140.4000 140.5190 0.1190 81
11 E3 140.6400 140.7590 0.1190 50
11 E3 140.8800 140.9990 0.1190 81
11 E3 141.1200 141.2390 0.1190 50
11 E3 141.3600 141.4790 0.1190 81
11 E3 141.6000 141.7190 0.1190 50
11 E3 141.8400 141.9590 0.1190 81
11 E3 142.0800 142.1990 0.1190 50
11 E3 142.3200 142.4390 0.1190 81
11 E3 142.5600 142.6790 0.1190 50
11 E3 142.8000 142.9190 0.1190 81
11 E3 143.0400 143.1590 0.1190 50
11 E3 143.2800 143.3990 0.1190 81
11 E3 143.5200 143.6390 0.1190 50
11 E3 143.7600 143.8790 0.1190 81
11 E3 144.0000 144.1190 0.1190 50
11 C3 144.2400 144.3590 0.1190 81
11 C3 144.4800 144.5990 0.1190 50
11 C3 144.7200 144.8390 0.1190 81
11 C3 144.9600 145.0790 0.1190 50
11 D3 145.2000 145.3190 0.1190 81
11 D3 145.4400 145.5590 0.1190 50
11 D3 145.6800 145.7990 0.1190 81
11 D3 145.9200 146.0390 0.1190 50
11 G3 146.1600 146.2790 0.1190 81
11 G3 146.4000 146.5190 0.1190 50
11 G3 146.6400 146.7590 0.1190 81
11 G3 146.8800 146.9990 0.1190 50
11 G3 147.1200 147.2390 0.1190 81
11 G3 147.3600 147.4790 0.1190 50
11 G3 147.6000 147.7190 0.1190 81
11 G3 147.8400 147.9590 0.1190 50
11 A3 148.0800 148.1990 0.1190 81
11 A3 148.3200 148.4390 0.1190 50
11 A3 148.5600 148.6790 0.1190 81
11 A3 148.8000 148.9190 0.1190 50
11 A3 149.0400 149.1590 0.1190 81
11 A3 149.2800 149.3990 0.1190 50
11 A3 149.5200 149.6390 0.1190 81
11 A3 149.7600 149.8790 0.1190 50
11 B2 150.0000 150.1190 0.1190 81
11 B2 150.2400 150.3590 0.1190 50
11 B2 150.4800 150.5990 0.1190 81
11 B2 150.7200 150.8390 0.1190 50
11 B2 150.9600 151.0790 0.1190 81
11 B2 151.2000 151.3190 0.1190 50
11 B2 151.4400 151.5590 0.1190 81
11 B2 151.6800 151.7990 0.1190 50
11 C3 151.9200 152.0390 0.1190 81
11 C3 152.1600 152.2790 0.1190 50
11 C3 152.4000 152.5190 0.1190 81
11 C3 152.6400 152.7590 0.1190 50
11 D3 152.8800 152.9990 0.1190 81
11 D3 153.1200 153.2390 0.1190 50
11 D3 153.3600 153.4790 0.1190 81
11 E3 153.6000 153.7190 0.1190 50
11 E3 153.8400 153.9590 0.1190 81
11 E3 154.0800 154.1990 0.1190 50
11 E3 154.3200 154.4390 0.1190 81
11 E3 154.5600 154.6790 0.1190 50
11 E3 154.8000 154.9190 0.1190 81
11 E3 155.0400 155.1590 0.1190 50
11 E3 155.2800 155.3990 0.1190 81
11 E3 155.5200 155.6390 0.1190 50
11 E3 155.7600 155.8790 0.1190 81
11 E3 156.0000 156.1190 0.1190 50
11 E3 156.2400 156.3590 0.1190 81
11 E3 156.4800 156.5990 0.1190 50
11 E3 156.7200 156.8390 0.1190 81
11 E3 156.9600 157.0790 0.1190 50
11 E3 157.2000 157.3190 0.1190 81
11 E3 157.4400 157.5590 0.1190 50
11 E3 157.6800 157.7990 0.1190 81
11 E3 157.9200 158.0390 0.1190 50
11 E3 158.1600 158.2790 0.1190 81
11 E3 158.4000 158.5190 0.1190 50
11 E3 158.6400 158.7590 0.1190 81
11 E3 158.8800 158.9990 0.1190 50
11 E3 159.1200 159.2390 0.1190 81
11 E3 159.3600 159.4790 0.1190 50
11 C3 159.6000 159.7190 0.1190 81
11 C3 159.8400 159.9590 0.1190 50
11 C3 160.0800 160.1990 0.1190 81
11 C3 160.3200 160.4390 0.1190 50
11 D3 160.5600 160.6790 0.1190 81
11 D3 160.8000 160.9190 0.1190 50
11 D3 161.0400 161.1590 0.1190 81
11 D3 161.2800 161.3990 0.1190 50
11 G3 161.5200 161.6390 0.1190 81
11 G3 161.7600 161.8790 0.1190 50
11 G3 162.0000 162.1190 0.1190 81
11 G3 162.2400 162.3590 0.1190 50
11 G3 162.4800 162.5990 0.1190 81
11 G3 162.7200 162.8390 0.1190 50
11 G3 162.9600 163.0790 0.1190 81
11 G3 163.2000 163.3190 0.1190 50
11 A3 163.4400 163.5590 0.1190 81
11 A3 163.6800 163.7990 0.1190 50
11 A3 163.9200 164.0390 0.1190 81
11 A3 164.1600 164.2790 0.1190 50
11 A3 164.4000 164.5190 0.1190 81
11 A3 164.6400 164.7590 0.1190 50
11 A3 164.8800 164.9990 0.1190 81
11 A3 165.1200 165.2390 0.1190 50
11 B2 165.3600 165.4790 0.1190 81
11 B2 165.6000 165.7190 0.1190 50
11 B2 165.8400 165.9590 0.1190 81
11 B2 166.0800 166.1990 0.1190 50
11 B2 166.3200 166.4390 0.1190 81
11 B2 166.5600 166.6790 0.1190 50
11 B2 166.8000 166.9190 0.1190 81
11 B2 167.0400 167.1590 0.1190 50
11 C3 167.2800 167.3990 0.1190 81
11 C3 167.5200 167.6390 0.1190 50
11 C3 167.7600 167.8790 0.1190 81
11 C3 168.0000 168.1190 0.1190 50
11 D3 168.2400 168.3590 0.1190 81
11 D3 168.4800 168.5990 0.1190 50
11 D3 168.7200 168.8390 0.1190 81
11 D3 168.9600 169.0790 0.1190 50
11 E3 169.2000 169.3190 0.1190 81
11 E3 169.4400 169.5590 0.1190 50
11 E3 169.6800 169.7990 0.1190 81
11 E3 169.9200 170.0390 0.1190 50
11 E3 170.1600 170.2790 0.1190 81
11 E3 170.4000 170.5190 0.1190 50
11 E3 170.6400 170.7590 0.1190 81
11 E3 170.8800 170.9990 0.1190 50
11 E3 171.1200 171.2390 0.1190 81
11 E3 171.3600 171.4790 0.1190 50
11 E3 171.6000 171.7190 0.1190 81
11 E3 171.8400 171.9590 0.1190 50
11 E3 172.0800 172.1990 0.1190 81
11 E3 172.3200 172.4390 0.1190 50
11 E3 172.5600 172.6790 0.1190 81
11 E3 172.8000 172.9190 0.1190 50
11 E3 173.0400 173.1590 0.1190 81
11 E3 173.2800 173.3990 0.1190 50
11 E3 173.5200 173.6390 0.1190 81
11 E3 173.7600 173.8790 0.1190 50
11 E3 174.0000 174.1190 0.1190 81
11 E3 174.2400 174.3590 0.1190 50
11 E3 174.4800 174.5990 0.1190 81
11 E3 174.7200 174.8390 0.1190 50
11 C3 174.9600 175.0790 0.1190 81
11 C3 175.2000 175.3190 0.1190 50
11 C3 175.4400 175.5590 0.1190 81
11 C3 175.6800 175.7990 0.1190 50
11 D3 175.9200 176.0390 0.1190 81
11 D3 176.1600 176.2790 0.1190 50
11 D3 176.4000 176.5190 0.1190 81
11 D3 176.6400 176.7590 0.1190 50
11 G3 176.8800 176.9990 0.1190 81
11 G3 177.1200 177.2390 0.1190 50
11 G3 177.3600 177.4790 0.1190 81
11 G3 177.6000 177.7190 0.1190 50
11 G3 177.8400 177.9590 0.1190 81
11 G3 178.0800 178.1990 0.1190 50
11 G3 178.3200 178.4390 0.1190 81
11 G3 178.5600 178.6790 0.1190 50
11 A3 178.8000 178.9190 0.1190 81
11 A3 179.0400 179.1590 0.1190 50
11 A3 179.2800 179.3990 0.1190 81
11 A3 179.5200 179.6390 0.1190 50
11 A3 179.7600 179.8790 0.1190 81
11 A3 180.0000 180.1190 0.1190 50
11 A3 180.2400 180.3590 0.1190 81
11 A3 180.4800 180.5990 0.1190 50
11 B2 180.7200 180.8390 0.1190 81
11 B2 180.9600 181.0790 0.1190 50
11 B2 181.2000 181.3190 0.1190 81
11 B2 181.4400 181.5590 0.1190 50
11 B2 181.6800 181.7990 0.1190 81
11 B2 181.9200 182.0390 0.1190 50
11 B2 182.1600 182.2790 0.1190 81
11 B2 182.4000 182.5190 0.1190 50
11 C3 182.6400 182.7590 0.1190 81
11 C3 182.8800 182.9990 0.1190 50
11 C3 183.1200 183.2390 0.1190 81
11 C3 183.3600 183.4790 0.1190 50
11 D3 183.6000 183.7190 0.1190 81
11 D3 183.8400 183.9590 0.1190 50
11 D3 184.0800 184.1990 0.1190 81
11 D3 184.3200 184.4390 0.1190 50
11 E3 184.5600 184.6790 0.1190 81
11 E3 184.8000 184.9190 0.1190 50
11 E3 185.0400 185.1590 0.1190 81
11 E3 185.2800 185.3990 0.1190 50
11 E3 185.5200 185.6390 0.1190 81
11 E3 185.7600 185.8790 0.1190 50
11 E3 186.0000 186.1190 0.1190 81
11 E3 186.2400 186.3590 0.1190 50
11 E3 186.4800 186.5990 0.1190 81
11 E3 186.7200 186.8390 0.1190 50
11 E3 186.9600 187.0790 0.1190 81
11 E3 187.2000 187.3190 0.1190 50
11 E3 187.4400 187.5590 0.1190 81
11 E3 187.6800 187.7990 0.1190 50
11 E3 187.9200 188.0390 0.1190 81
11 E3 188.1600 188.2790 0.1190 50
11 E3 188.4000 188.5190 0.1190 81
11 E3 188.6400 188.7590 0.1190 50
11 E3 188.8800 188.9990 0.1190 81
11 E3 189.1200 189.2390 0.1190 50
11 E3 189.3600 189.4790 0.1190 81
11 E3 189.6000 189.7190 0.1190 50
11 E3 189.8400 189.9590 0.1190 81
11 E3 190.0800 190.1990 0.1190 50
11 C3 190.3200 190.4390 0.1190 81
11 C3 190.5600 190.6790 0.1190 50
11 C3 190.8000 190.9190 0.1190 81
11 C3 191.0400 191.1590 0.1190 50
11 D3 191.2800 191.3990 0.1190 81
11 D3 191.5200 191.6390 0.1190 50
11 D3 191.7600 191.8790 0.1190 81
11 D3 192.0000 192.1190 0.1190 50
11 G3 192.2400 192.3590 0.1190 81
11 G3 192.4800 192.5990 0.1190 50
11 G3 192.7200 192.8390 0.1190 81
11 G3 192.9600 193.0790 0.1190 50
11 G3 193.2000 193.3190 0.1190 81
11 G3 193.4400 193.5590 0.1190 50
11 G3 193.6800 193.7990 0.1190 81
11 G3 193.9200 194.0390 0.1190 50
11 A3 194.1600 194.2790 0.1190 81
11 A3 194.4000 194.5190 0.1190 50
11 A3 194.6400 194.7590 0.1190 81
11 A3 194.8800 194.9990 0.1190 50
11 A3 195.1200 195.2390 0.1190 81
11 A3 195.3600 195.4790 0.1190 50
11 A3 195.6000 195.7190 0.1190 81
11 A3 195.8400 195.9590 0.1190 50
11 B2 196.0800 196.1990 0.1190 81
11 B2 196.3200 196.4390 0.1190 50
11 B2 196.5600 196.6790 0.1190 81
11 B2 196.8000 196.9190 0.1190 50
11 B2 197.0400 197.1590 0.1190 81
11 B2 197.2800 197.3990 0.1190 50
11 B2 197.5200 197.6390 0.1190 81
11 B2 197.7600 197.8790 0.1190 50
11 C3 198.0000 198.1190 0.1190 81
11 C3 198.2400 198.3590 0.1190 50
11 C3 198.4800 198.5990 0.1190 81
11 C3 198.7200 198.8390 0.1190 50
11 D3 198.9600 199.0790 0.1190 81
11 D3 199.2000 199.3190 0.1190 50
11 D3 199.4400 199.5590 0.1190 81
11 D3 199.6800 199.7990 0.1190 50
11 E3 199.9200 200.0390 0.1190 81
11 E3 200.1600 200.2790 0.1190 50
11 E3 200.4000 200.5190 0.1190 81
11 E3 200.6400 200.7590 0.1190 50
11 E3 200.8800 200.9990 0.1190 81
11 E3 201.1200 201.2390 0.1190 50
11 E3 201.3600 201.4790 0.1190 81
11 E3 201.6000 201.7190 0.1190 50
11 E3 201.8400 201.9590 0.1190 81
11 E3 202.0800 202.1990 0.1190 50
11 E3 202.3200 202.4390 0.1190 81
11 E3 202.5600 202.6790 0.1190 50
11 E3 202.8000 202.9190 0.1190 81
11 E3 203.0400 203.1590 0.1190 50
11 E3 203.2800 203.3990 0.1190 81
11 E3 203.5200 203.6390 0.1190 50
11 E3 203.7600 203.8790 0.1190 81
11 E3 204.0000 204.1190 0.1190 50
11 E3 204.2400 204.3590 0.1190 81
11 E3 204.4800 204.5990 0.1190 50
11 E3 204.7200 204.8390 0.1190 81
11 E3 204.9600 205.0790 0.1190 50
11 E3 205.2000 205.3190 0.1190 81
11 E3 205.4400 205.5590 0.1190 50
11 C3 205.6800 205.7990 0.1190 81
11 C3 205.9200 206.0390 0.1190 50
11 C3 206.1600 206.2790 0.1190 81
11 C3 206.4000 206.5190 0.1190 50
11 D3 206.6400 206.7590 0.1190 81
11 D3 206.8800 206.9990 0.1190 50
11 D3 207.1200 207.2390 0.1190 81
11 D3 207.3600 207.4790 0.1190 50
11 G3 207.6000 207.7190 0.1190 81
11 G3 207.8400 207.9590 0.1190 50
11 G3 208.0800 208.1990 0.1190 81
11 G3 208.3200 208.4390 0.1190 50
11 G3 208.5600 208.6790 0.1190 81
11 G3 208.8000 208.9190 0.1190 50
11 G3 209.0400 209.1590 0.1190 81
11 G3 209.2800 209.3990 0.1190 50
11 A3 209.5200 209.6390 0.1190 81
11 A3 209.7600 209.8790 0.1190 50
11 A3 210.0000 210.1190 0.1190 81
11 A3 210.2400 210.3590 0.1190 50
11 A3 210.4800 210.5990 0.1190 81
11 A3 210.7200 210.8390 0.1190 50
11 A3 210.9600 211.0790 0.1190 81
11 A3 211.2000 211.3190 0.1190 50
11 B2 211.4400 211.5590 0.1190 81
11 B2 211.6800 211.7990 0.1190 50
11 B2 211.9200 212.0390 0.1190 81
11 B2 212.1600 212.2790 0.1190 50
11 B2 212.4000 212.5190 0.1190 81
11 B2 212.6400 212.7590 0.1190 50
11 B2 212.8800 212.9990 0.1190 81
11 B2 213.1200 213.2390 0.1190 50
11 C3 213.3600 213.4790 0.1190 81
11 C3 213.6000 213.7190 0.1190 50
11 C3 213.8400 213.9590 0.1190 81
11 C3 214.0800 214.1990 0.1190 50
11 D3 214.3200 214.4390 0.1190 81
11 D3 214.5600 214.6790 0.1190 50
11 D3 214.8000 214.9190 0.1190 81
11 D3 215.0400 215.1590 0.1190 50
11 E3 215.2800 215.3990 0.1190 81
11 E3 215.5200 215.6390 0.1190 50
11 E3 215.7600 215.8790 0.1190 81
11 E3 216.0000 216.1190 0.1190 50
11 E3 216.2400 216.3590 0.1190 81
11 E3 216.4800 216.5990 0.1190 50
11 E3 216.7200 216.8390 0.1190 81
11 E3 216.9600 217.0790 0.1190 81
11 E3 217.2000 217.3190 0.1190 50
11 E3 217.4400 217.5590 0.1190 81
11 E3 217.6800 217.7990 0.1190 81
11 E3 217.9200 218.0390 0.1190 50
11 E3 218.1600 218.2790 0.1190 81
11 E3 218.4000 218.5190 0.1190 50
11 E3 218.6400 218.7590 0.1190 81
11 E3 218.8800 218.9990 0.1190 50
11 E3 219.1200 219.2390 0.1190 81
11 E3 219.3600 219.4790 0.1190 50
11 E3 219.6000 219.7190 0.1190 81
11 E3 219.8400 219.9590 0.1190 50
11 E3 220.0800 220.1990 0.1190 81
11 E3 220.3200 220.4390 0.1190 50
11 E3 220.5600 220.6790 0.1190 81
12 E2 1.9200 2.1590 0.2390 64
12 E3 2.1600 2.3990 0.2390 100
12 E2 2.4000 2.6390 0.2390 64
12 E3 2.6400 2.8790 0.2390 100
12 E2 2.8800 3.1190 0.2390 64
12 E3 3.1200 3.3590 0.2390 100
12 E2 3.3600 3.5990 0.2390 64
12 E3 3.6000 3.8390 0.2390 100
12 C2 3.8400 4.0790 0.2390 80
12 C3 4.0800 4.3190 0.2390 80
12 C2 4.3200 4.5590 0.2390 80
12 C3 4.5600 4.7990 0.2390 80
12 C2 4.8000 5.0390 0.2390 80
12 C3 5.0400 5.2790 0.2390 80
12 C2 5.2800 5.5190 0.2390 80
12 C3 5.5200 5.7590 0.2390 80
12 D2 5.7600 5.9990 0.2390 80
12 D3 6.0000 6.2390 0.2390 80
12 D2 6.2400 6.4790 0.2390 80
12 D3 6.4800 6.7190 0.2390 80
12 D2 6.7200 6.9590 0.2390 80
12 D3 6.9600 7.1990 0.2390 80
12 D2 7.2000 7.4390 0.2390 80
12 D3 7.4400 7.6790 0.2390 80
12 E2 7.6800 7.9190 0.2390 64
12 E3 7.9200 8.1590 0.2390 100
12 E2 8.1600 8.3990 0.2390 64
12 E3 8.4000 8.6390 0.2390 100
12 E2 8.6400 8.8790 0.2390 64
12 E3 8.8800 9.1190 0.2390 100
12 E2 9.1200 9.3590 0.2390 64
12 E3 9.3600 9.5990 0.2390 100
12 E2 9.6000 9.8390 0.2390 64
12 E3 9.8400 10.0790 0.2390 100
12 E2 10.0800 10.3190 0.2390 64
12 E3 10.3200 10.5590 0.2390 100
12 E2 10.5600 10.7990 0.2390 64
12 E3 10.8000 11.0390 0.2390 100
12 E2 11.0400 11.2790 0.2390 64
12 E3 11.2800 11.5190 0.2390 100
12 C2 11.5200 11.7590 0.2390 80
12 C3 11.7600 11.9990 0.2390 80
12 C2 12.0000 12.2390 0.2390 80
12 C3 12.2400 12.4790 0.2390 80
12 C2 12.4800 12.7190 0.2390 80
12 C3 12.7200 12.9590 0.2390 80
12 C2 12.9600 13.1990 0.2390 80
12 C3 13.2000 13.4390 0.2390 80
12 D2 13.4400 13.6790 0.2390 80
12 D3 13.6800 13.9190 0.2390 80
12 D2 13.9200 14.1590 0.2390 80
12 D3 14.1600 14.3990 0.2390 80
12 D2 14.4000 14.6390 0.2390 80
12 D3 14.6400 14.8790 0.2390 80
12 D2 14.8800 15.1190 0.2390 80
12 D3 15.1200 15.3590 0.2390 80
12 E2 15.3600 15.5990 0.2390 64
12 E3 15.6000 15.8390 0.2390 100
12 E2 15.8400 16.0790 0.2390 64
12 E3 16.0800 16.3190 0.2390 100
12 E2 16.3200 16.5590 0.2390 64
12 E3 16.5600 16.7990 0.2390 100
12 E2 16.8000 17.0390 0.2390 64
12 E3 17.0400 17.2790 0.2390 100
12 E2 17.2800 17.5190 0.2390 64
12 E3 17.5200 17.7590 0.2390 100
12 E2 17.7600 17.9990 0.2390 64
12 E3 18.0000 18.2390 0.2390 100
12 E2 18.2400 18.4790 0.2390 64
12 E3 18.4800 18.7190 0.2390 100
12 E2 18.7200 18.9590 0.2390 64
12 E3 18.9600 19.1990 0.2390 100
12 C2 19.2000 19.4390 0.2390 80
12 C3 19.4400 19.6790 0.2390 80
12 C2 19.6800 19.9190 0.2390 80
12 C3 19.9200 20.1590 0.2390 80
12 C2 20.1600 20.3990 0.2390 80
12 C3 20.4000 20.6390 0.2390 80
12 C2 20.6400 20.8790 0.2390 80
12 C3 20.8800 21.1190 0.2390 80
12 D2 21.1200 21.3590 0.2390 80
12 D3 21.3600 21.5990 0.2390 80
12 D2 21.6000 21.8390 0.2390 80
12 D3 21.8400 22.0790 0.2390 80
12 D2 22.0800 22.3190 0.2390 80
12 D3 22.3200 22.5590 0.2390 80
12 D2 22.5600 22.7990 0.2390 80
12 D3 22.8000 23.0390 0.2390 80
12 E2 23.0400 23.2790 0.2390 64
12 E3 23.2800 23.5190 0.2390 100
12 E2 23.5200 23.7590 0.2390 64
12 E3 23.7600 23.9990 0.2390 100
12 E2 24.0000 24.2390 0.2390 64
12 E3 24.2400 24.4790 0.2390 100
12 E2 24.4800 24.7190 0.2390 64
12 E3 24.7200 24.9590 0.2390 100
12 E2 24.9600 25.1990 0.2390 64
12 E3 25.2000 25.4390 0.2390 100
12 E2 25.4400 25.6790 0.2390 64
12 E3 25.6800 25.9190 0.2390 100
12 E2 25.9200 26.1590 0.2390 64
12 E3 26.1600 26.3990 0.2390 100
12 E2 26.4000 26.6390 0.2390 64
12 E3 26.6400 26.8790 0.2390 100
12 C2 26.8800 27.1190 0.2390 80
12 C3 27.1200 27.3590 0.2390 80
12 C2 27.3600 27.5990 0.2390 80
12 C3 27.6000 27.8390 0.2390 80
12 C2 27.8400 28.0790 0.2390 80
12 C3 28.0800 28.3190 0.2390 80
12 C2 28.3200 28.5590 0.2390 80
12 C3 28.5600 28.7990 0.2390 80
12 D2 28.8000 29.0390 0.2390 80
12 D3 29.0400 29.2790 0.2390 80
12 D2 29.2800 29.5190 0.2390 80
12 D3 29.5200 29.7590 0.2390 80
12 D2 29.7600 29.9990 0.2390 80
12 D3 30.0000 30.2390 0.2390 80
12 D2 30.2400 30.4790 0.2390 80
12 D3 30.4800 30.7190 0.2390 80
12 E2 30.7200 30.9590 0.2390 64
12 E3 30.9600 31.1990 0.2390 100
12 E2 31.2000 31.4390 0.2390 64
12 E3 31.4400 31.6790 0.2390 100
12 E2 31.6800 31.9190 0.2390 64
12 E3 31.9200 32.1590 0.2390 100
12 E2 32.1600 32.3990 0.2390 64
12 E3 32.4000 32.6390 0.2390 100
12 E2 32.6400 32.8790 0.2390 64
12 E3 32.8800 33.1190 0.2390 100
12 E2 33.1200 33.3590 0.2390 64
12 E3 33.3600 33.5990 0.2390 100
12 E2 33.6000 33.8390 0.2390 64
12 E3 33.8400 34.0790 0.2390 100
12 E2 34.0800 34.3190 0.2390 64
12 E3 34.3200 34.5590 0.2390 100
12 C2 34.5600 34.7990 0.2390 80
12 C3 34.8000 35.0390 0.2390 80
12 C2 35.0400 35.2790 0.2390 80
12 C3 35.2800 35.5190 0.2390 80
12 C2 35.5200 35.7590 0.2390 80
12 C3 35.7600 35.9990 0.2390 80
12 C2 36.0000 36.2390 0.2390 80
12 C3 36.2400 36.4790 0.2390 80
12 D2 36.4800 36.7190 0.2390 80
12 D3 36.7200 36.9590 0.2390 80
12 D2 36.9600 37.1990 0.2390 80
12 D3 37.2000 37.4390 0.2390 80
12 D2 37.4400 37.6790 0.2390 80
12 D3 37.6800 37.9190 0.2390 80
12 D2 37.9200 38.1590 0.2390 80
12 D3 38.1600 38.3990 0.2390 80
12 E2 38.4000 38.6390 0.2390 64
12 E3 38.6400 38.8790 0.2390 100
12 E2 38.8800 39.1190 0.2390 64
12 E3 39.1200 39.3590 0.2390 100
12 E2 39.3600 39.5990 0.2390 64
12 E3 39.6000 39.8390 0.2390 100
12 E2 39.8400 40.0790 0.2390 64
12 E3 40.0800 40.3190 0.2390 100
12 E2 40.3200 40.5590 0.2390 64
12 E3 40.5600 40.7990 0.2390 100
12 E2 40.8000 41.0390 0.2390 64
12 E3 41.0400 41.2790 0.2390 100
12 E2 41.2800 41.5190 0.2390 64
12 E3 41.5200 41.7590 0.2390 100
12 E2 41.7600 41.9990 0.2390 64
12 E3 42.0000 42.2390 0.2390 100
12 C2 42.2400 42.4790 0.2390 80
12 C3 42.4800 42.7190 0.2390 80
12 C2 42.7200 42.9590 0.2390 80
12 C3 42.9600 43.1990 0.2390 80
12 C2 43.2000 43.4390 0.2390 80
12 C3 43.4400 43.6790 0.2390 80
12 C2 43.6800 43.9190 0.2390 80
12 C3 43.9200 44.1590 0.2390 80
12 D2 44.1600 44.3990 0.2390 80
12 D3 44.4000 44.6390 0.2390 80
12 D2 44.6400 44.8790 0.2390 80
12 D3 44.8800 45.1190 0.2390 80
12 D2 45.1200 45.3590 0.2390 80
12 D3 45.3600 45.5990 0.2390 80
12 D2 45.6000 45.8390 0.2390 80
12 D3 45.8400 46.0790 0.2390 80
12 E2 46.0800 46.3190 0.2390 64
12 E3 46.3200 46.5590 0.2390 100
12 E2 46.5600 46.7990 0.2390 64
12 E3 46.8000 47.0390 0.2390 100
12 E2 47.0400 47.2790 0.2390 64
12 E3 47.2800 47.5190 0.2390 100
12 E2 47.5200 47.7590 0.2390 64
12 E3 47.7600 47.9990 0.2390 100
12 E2 48.0000 48.2390 0.2390 64
12 E3 48.2400 48.4790 0.2390 100
12 E2 48.4800 48.7190 0.2390 64
12 E3 48.7200 48.9590 0.2390 100
12 E2 48.9600 49.1990 0.2390 64
12 E3 49.2000 49.4390 0.2390 100
12 E2 49.4400 49.6790 0.2390 64
12 E3 49.6800 49.9190 0.2390 100
12 E2 49.9200 50.1590 0.2390 64
12 E3 50.1600 50.3990 0.2390 100
12 E2 50.4000 50.6390 0.2390 64
12 E3 50.6400 50.8790 0.2390 100
12 E2 50.8800 51.1190 0.2390 64
12 E3 51.1200 51.3590 0.2390 100
12 E2 51.3600 51.5990 0.2390 64
12 E3 51.6000 51.8390 0.2390 100
12 C2 51.8400 52.0790 0.2390 80
12 C3 52.0800 52.3190 0.2390 80
12 C2 52.3200 52.5590 0.2390 80
12 C3 52.5600 52.7990 0.2390 80
12 D2 52.8000 53.0390 0.2390 80
12 D3 53.0400 53.2790 0.2390 80
12 D2 53.2800 53.5190 0.2390 80
12 D3 53.5200 53.7590 0.2390 80
12 G2 53.7600 53.9990 0.2390 80
12 G3 54.0000 54.2390 0.2390 80
12 G2 54.2400 54.4790 0.2390 80
12 G3 54.4800 54.7190 0.2390 80
12 G2 54.7200 54.9590 0.2390 80
12 G3 54.9600 55.1990 0.2390 80
12 G2 55.2000 55.4390 0.2390 80
12 G3 55.4400 55.6790 0.2390 80
12 A2 55.6800 55.9190 0.2390 64
12 A3 55.9200 56.1590 0.2390 100
12 A2 56.1600 56.3990 0.2390 64
12 A3 56.4000 56.6390 0.2390 100
12 A2 56.6400 56.8790 0.2390 64
12 A3 56.8800 57.1190 0.2390 100
12 A2 57.1200 57.3590 0.2390 64
12 A3 57.3600 57.5990 0.2390 100
12 B1 57.6000 57.8390 0.2390 80
12 B2 57.8400 58.0790 0.2390 80
12 B1 58.0800 58.3190 0.2390 80
12 B2 58.3200 58.5590 0.2390 80
12 B1 58.5600 58.7990 0.2390 80
12 B2 58.8000 59.0390 0.2390 80
12 B1 59.0400 59.2790 0.2390 80
12 B2 59.2800 59.5190 0.2390 80
12 C2 59.5200 59.7590 0.2390 80
12 C3 59.7600 59.9990 0.2390 80
12 C2 60.0000 60.2390 0.2390 80
12 C3 60.2400 60.4790 0.2390 80
12 D2 60.4800 60.7190 0.2390 80
12 D3 60.7200 60.9590 0.2390 80
12 D2 60.9600 61.1990 0.2390 80
12 D3 61.2000 61.4390 0.2390 80
12 E2 61.4400 61.6790 0.2390 64
12 E3 61.6800 61.9190 0.2390 100
12 E2 61.9200 62.1590 0.2390 64
12 E3 62.1600 62.3990 0.2390 100
12 E2 62.4000 62.6390 0.2390 64
12 E3 62.6400 62.8790 0.2390 100
12 E2 62.8800 63.1190 0.2390 64
12 E3 63.1200 63.3590 0.2390 100
12 E2 63.3600 63.5990 0.2390 64
12 E3 63.6000 63.8390 0.2390 100
12 E2 63.8400 64.0790 0.2390 64
12 E3 64.0800 64.3190 0.2390 100
12 E2 64.3200 64.5590 0.2390 64
12 E3 64.5600 64.7990 0.2390 100
12 E2 64.8000 65.0390 0.2390 64
12 E3 65.0400 65.2790 0.2390 100
12 E2 65.2800 65.5190 0.2390 64
12 E3 65.5200 65.7590 0.2390 100
12 E2 65.7600 65.9990 0.2390 64
12 E3 66.0000 66.2390 0.2390 100
12 E2 66.2400 66.4790 0.2390 64
12 E3 66.4800 66.7190 0.2390 100
12 E2 66.7200 66.9590 0.2390 64
12 E3 66.9600 67.1990 0.2390 100
12 C2 67.2000 67.4390 0.2390 80
12 C3 67.4400 67.6790 0.2390 80
12 C2 67.6800 67.9190 0.2390 80
12 C3 67.9200 68.1590 0.2390 80
12 D2 68.1600 68.3990 0.2390 80
12 D3 68.4000 68.6390 0.2390 80
12 D2 68.6400 68.8790 0.2390 80
12 D3 68.8800 69.1190 0.2390 80
12 G2 69.1200 69.3590 0.2390 80
12 G3 69.3600 69.5990 0.2390 80
12 G2 69.6000 69.8390 0.2390 80
12 G3 69.8400 70.0790 0.2390 80
12 G2 70.0800 70.3190 0.2390 80
12 G3 70.3200 70.5590 0.2390 80
12 G2 70.5600 70.7990 0.2390 80
12 G3 70.8000 71.0390 0.2390 80
12 A2 71.0400 71.2790 0.2390 64
12 A3 71.2800 71.5190 0.2390 100
12 A2 71.5200 71.7590 0.2390 64
12 A3 71.7600 71.9990 0.2390 100
12 A2 72.0000 72.2390 0.2390 64
12 A3 72.2400 72.4790 0.2390 100
12 A2 72.4800 72.7190 0.2390 64
12 A3 72.7200 72.9590 0.2390 100
12 B1 72.9600 73.1990 0.2390 80
12 B2 73.2000 73.4390 0.2390 80
12 B1 73.4400 73.6790 0.2390 80
12 B2 73.6800 73.9190 0.2390 80
12 B1 73.9200 74.1590 0.2390 80
12 B2 74.1600 74.3990 0.2390 80
12 B1 74.4000 74.6390 0.2390 80
12 B2 74.6400 74.8790 0.2390 80
12 C2 74.8800 75.1190 0.2390 80
12 C3 75.1200 75.3590 0.2390 80
12 C2 75.3600 75.5990 0.2390 80
12 C3 75.6000 75.8390 0.2390 80
12 D2 75.8400 76.0790 0.2390 80
12 D3 76.0800 76.3190 0.2390 80
12 D2 76.3200 76.5590 0.2390 80
12 D3 76.5600 76.7990 0.2390 80
12 E2 76.8000 77.0390 0.2390 64
12 E3 77.0400 77.2790 0.2390 100
12 E2 77.2800 77.5190 0.2390 64
12 E3 77.5200 77.7590 0.2390 100
12 E2 77.7600 77.9990 0.2390 64
12 E3 78.0000 78.2390 0.2390 100
12 E2 78.2400 78.4790 0.2390 64
12 E3 78.4800 78.7190 0.2390 100
12 E2 78.7200 78.9590 0.2390 64
12 E3 78.9600 79.1990 0.2390 100
12 E2 79.2000 79.4390 0.2390 64
12 E3 79.4400 79.6790 0.2390 100
12 E2 79.6800 79.9190 0.2390 64
12 E3 79.9200 80.1590 0.2390 100
12 E2 80.1600 80.3990 0.2390 64
12 E3 80.4000 80.6390 0.2390 100
12 C2 80.6400 80.8790 0.2390 80
12 C3 80.8800 81.1190 0.2390 80
12 C2 81.1200 81.3590 0.2390 80
12 C3 81.3600 81.5990 0.2390 80
12 C2 81.6000 81.8390 0.2390 80
12 C3 81.8400 82.0790 0.2390 80
12 C2 82.0800 82.3190 0.2390 80
12 C3 82.3200 82.5590 0.2390 80
12 D2 82.5600 82.7990 0.2390 80
12 D3 82.8000 83.0390 0.2390 80
12 D2 83.0400 83.2790 0.2390 80
12 D3 83.2800 83.5190 0.2390 80
12 D2 83.5200 83.7590 0.2390 80
12 D3 83.7600 83.9990 0.2390 80
12 D2 84.0000 84.2390 0.2390 80
12 D3 84.2400 84.4790 0.2390 80
12 E2 84.4800 84.7190 0.2390 64
12 E3 84.7200 84.9590 0.2390 100
12 E2 84.9600 85.1990 0.2390 64
12 E3 85.2000 85.4390 0.2390 100
12 E2 85.4400 85.6790 0.2390 64
12 E3 85.6800 85.9190 0.2390 100
12 E2 85.9200 86.1590 0.2390 64
12 E3 86.1600 86.3990 0.2390 100
12 E2 86.4000 86.6390 0.2390 64
12 E3 86.6400 86.8790 0.2390 100
12 E2 86.8800 87.1190 0.2390 64
12 E3 87.1200 87.3590 0.2390 100
12 E2 87.3600 87.5990 0.2390 64
12 E3 87.6000 87.8390 0.2390 100
12 E2 87.8400 88.0790 0.2390 64
12 E3 88.0800 88.3190 0.2390 100
12 C2 88.3200 88.5590 0.2390 80
12 C3 88.5600 88.7990 0.2390 80
12 C2 88.8000 89.0390 0.2390 80
12 C3 89.0400 89.2790 0.2390 80
12 C2 89.2800 89.5190 0.2390 80
12 C3 89.5200 89.7590 0.2390 80
12 C2 89.7600 89.9990 0.2390 80
12 C3 90.0000 90.2390 0.2390 80
12 D2 90.2400 90.4790 0.2390 80
12 D3 90.4800 90.7190 0.2390 80
12 D2 90.7200 90.9590 0.2390 80
12 D3 90.9600 91.1990 0.2390 80
12 D2 91.2000 91.4390 0.2390 80
12 D3 91.4400 91.6790 0.2390 80
12 D2 91.6800 91.9190 0.2390 80
12 D3 91.9200 92.1590 0.2390 80
12 E2 92.1600 92.3990 0.2390 64
12 E3 92.4000 92.6390 0.2390 100
12 E2 92.6400 92.8790 0.2390 64
12 E3 92.8800 93.1190 0.2390 100
12 E2 93.1200 93.3590 0.2390 64
12 E3 93.3600 93.5990 0.2390 100
12 E2 93.6000 93.8390 0.2390 64
12 E3 93.8400 94.0790 0.2390 100
12 E2 94.0800 94.3190 0.2390 64
12 E3 94.3200 94.5590 0.2390 100
12 E2 94.5600 94.7990 0.2390 64
12 E3 94.8000 95.0390 0.2390 100
12 E2 95.0400 95.2790 0.2390 64
12 E3 95.2800 95.5190 0.2390 100
12 E2 95.5200 95.7590 0.2390 64
12 E3 95.7600 95.9990 0.2390 100
12 C2 96.0000 96.2390 0.2390 80
12 C3 96.2400 96.4790 0.2390 80
12 C2 96.4800 96.7190 0.2390 80
12 C3 96.7200 96.9590 0.2390 80
12 C2 96.9600 97.1990 0.2390 80
12 C3 97.2000 97.4390 0.2390 80
12 C2 97.4400 97.6790 0.2390 80
12 C3 97.6800 97.9190 0.2390 80
12 D2 97.9200 98.1590 0.2390 80
12 D3 98.1600 98.3990 0.2390 80
12 D2 98.4000 98.6390 0.2390 80
12 D3 98.6400 98.8790 0.2390 80
12 D2 98.8800 99.1190 0.2390 80
12 D3 99.1200 99.3590 0.2390 80
12 D2 99.3600 99.5990 0.2390 80
12 D3 99.6000 99.8390 0.2390 80
12 E2 99.8400 100.0790 0.2390 64
12 E3 100.0800 100.3190 0.2390 100
12 E2 100.3200 100.5590 0.2390 64
12 E3 100.5600 100.7990 0.2390 100
12 E2 100.8000 101.0390 0.2390 64
12 E3 101.0400 101.2790 0.2390 100
12 E2 101.2800 101.5190 0.2390 64
12 E3 101.5200 101.7590 0.2390 100
12 E2 101.7600 101.9990 0.2390 64
12 E3 102.0000 102.2390 0.2390 100
12 E2 102.2400 102.4790 0.2390 64
12 E3 102.4800 102.7190 0.2390 100
12 E2 102.7200 102.9590 0.2390 64
12 E3 102.9600 103.1990 0.2390 100
12 E2 103.2000 103.4390 0.2390 64
12 E3 103.4400 103.6790 0.2390 100
12 C2 103.6800 103.9190 0.2390 80
12 C3 103.9200 104.1590 0.2390 80
12 C2 104.1600 104.3990 0.2390 80
12 C3 104.4000 104.6390 0.2390 80
12 C2 104.6400 104.8790 0.2390 80
12 C3 104.8800 105.1190 0.2390 80
12 C2 105.1200 105.3590 0.2390 80
12 C3 105.3600 105.5990 0.2390 80
12 D2 105.6000 105.8390 0.2390 80
12 D3 105.8400 106.0790 0.2390 80
12 D2 106.0800 106.3190 0.2390 80
12 D3 106.3200 106.5590 0.2390 80
12 D2 106.5600 106.7990 0.2390 80
12 D3 106.8000 107.0390 0.2390 80
12 D2 107.0400 107.2790 0.2390 80
12 D3 107.2800 107.5190 0.2390 80
12 E2 107.5200 107.7590 0.2390 64
12 E3 107.7600 107.9990 0.2390 100
12 E2 108.0000 108.2390 0.2390 64
12 E3 108.2400 108.4790 0.2390 100
12 E2 108.4800 108.7190 0.2390 64
12 E3 108.7200 108.9590 0.2390 100
12 E2 108.9600 109.1990 0.2390 64
12 E3 109.2000 109.4390 0.2390 100
12 E2 109.4400 109.6790 0.2390 64
12 E3 109.6800 109.9190 0.2390 100
12 E2 109.9200 110.1590 0.2390 64
12 E3 110.1600 110.3990 0.2390 100
12 E2 110.4000 110.6390 0.2390 64
12 E3 110.6400 110.8790 0.2390 100
12 E2 110.8800 111.1190 0.2390 64
12 E3 111.1200 111.3590 0.2390 100
12 E2 111.3600 111.5990 0.2390 64
12 E3 111.6000 111.8390 0.2390 100
12 E2 111.8400 112.0790 0.2390 64
12 E3 112.0800 112.3190 0.2390 100
12 E2 112.3200 112.5590 0.2390 64
12 E3 112.5600 112.7990 0.2390 100
12 E2 112.8000 113.0390 0.2390 64
12 E3 113.0400 113.2790 0.2390 100
12 C2 113.2800 113.5190 0.2390 80
12 C3 113.5200 113.7590 0.2390 80
12 C2 113.7600 113.9990 0.2390 80
12 C3 114.0000 114.2390 0.2390 80
12 D2 114.2400 114.4790 0.2390 80
12 D3 114.4800 114.7190 0.2390 80
12 D2 114.7200 114.9590 0.2390 80
12 D3 114.9600 115.1990 0.2390 80
12 G2 115.2000 115.4390 0.2390 80
12 G3 115.4400 115.6790 0.2390 80
12 G2 115.6800 115.9190 0.2390 80
12 G3 115.9200 116.1590 0.2390 80
12 G2 116.1600 116.3990 0.2390 80
12 G3 116.4000 116.6390 0.2390 80
12 G2 116.6400 116.8790 0.2390 80
12 G3 116.8800 117.1190 0.2390 80
12 A2 117.1200 117.3590 0.2390 64
12 A3 117.3600 117.5990 0.2390 100
12 A2 117.6000 117.8390 0.2390 64
12 A3 117.8400 118.0790 0.2390 100
12 A2 118.0800 118.3190 0.2390 64
12 A3 118.3200 118.5590 0.2390 100
12 A2 118.5600 118.7990 0.2390 64
12 A3 118.8000 119.0390 0.2390 100
12 B1 119.0400 119.2790 0.2390 80
12 B2 119.2800 119.5190 0.2390 80
12 B1 119.5200 119.7590 0.2390 80
12 B2 119.7600 119.9990 0.2390 80
12 B1 120.0000 120.2390 0.2390 80
12 B2 120.2400 120.4790 0.2390 80
12 B1 120.4800 120.7190 0.2390 80
12 B2 120.7200 120.9590 0.2390 80
12 C2 120.9600 121.1990 0.2390 80
12 C3 121.2000 121.4390 0.2390 80
12 C2 121.4400 121.6790 0.2390 80
12 C3 121.6800 121.9190 0.2390 80
12 D2 121.9200 122.1590 0.2390 80
12 D3 122.1600 122.3990 0.2390 80
12 D2 122.4000 122.6390 0.2390 80
12 D3 122.6400 122.8790 0.2390 80
12 E2 122.8800 123.1190 0.2390 64
12 E3 123.1200 123.3590 0.2390 100
12 E2 123.3600 123.5990 0.2390 64
12 E3 123.6000 123.8390 0.2390 100
12 E2 123.8400 124.0790 0.2390 64
12 E3 124.0800 124.3190 0.2390 100
12 E2 124.3200 124.5590 0.2390 64
12 E3 124.5600 124.7990 0.2390 100
12 E2 124.8000 125.0390 0.2390 64
12 E3 125.0400 125.2790 0.2390 100
12 E2 125.2800 125.5190 0.2390 64
12 E3 125.5200 125.7590 0.2390 100
12 E2 125.7600 125.9990 0.2390 64
12 E3 126.0000 126.2390 0.2390 100
12 E2 126.2400 126.4790 0.2390 64
12 E3 126.4800 126.7190 0.2390 100
12 E2 126.7200 126.9590 0.2390 64
12 E3 126.9600 127.1990 0.2390 100
12 E2 127.2000 127.4390 0.2390 64
12 E3 127.4400 127.6790 0.2390 100
12 E2 127.6800 127.9190 0.2390 64
12 E3 127.9200 128.1590 0.2390 100
12 E2 128.1600 128.3990 0.2390 64
12 E3 128.4000 128.6390 0.2390 100
12 C2 128.6400 128.8790 0.2390 80
12 C3 128.8800 129.1190 0.2390 80
12 C2 129.1200 129.3590 0.2390 80
12 C3 129.3600 129.5990 0.2390 80
12 D2 129.6000 129.8390 0.2390 80
12 D3 129.8400 130.0790 0.2390 80
12 D2 130.0800 130.3190 0.2390 80
12 D3 130.3200 130.5590 0.2390 80
12 G2 130.5600 130.7990 0.2390 80
12 G3 130.8000 131.0390 0.2390 80
12 G2 131.0400 131.2790 0.2390 80
12 G3 131.2800 131.5190 0.2390 80
12 G2 131.5200 131.7590 0.2390 80
12 G3 131.7600 131.9990 0.2390 80
12 G2 132.0000 132.2390 0.2390 80
12 G3 132.2400 132.4790 0.2390 80
12 A2 132.4800 132.7190 0.2390 64
12 A3 132.7200 132.9590 0.2390 100
12 A2 132.9600 133.1990 0.2390 64
12 A3 133.2000 133.4390 0.2390 100
12 A2 133.4400 133.6790 0.2390 64
12 A3 133.6800 133.9190 0.2390 100
12 A2 133.9200 134.1590 0.2390 64
12 A3 134.1600 134.3990 0.2390 100
12 B1 134.4000 134.6390 0.2390 80
12 B2 134.6400 134.8790 0.2390 80
12 B1 134.8800 135.1190 0.2390 80
12 B2 135.1200 135.3590 0.2390 80
12 B1 135.3600 135.5990 0.2390 80
12 B2 135.6000 135.8390 0.2390 80
12 B1 135.8400 136.0790 0.2390 80
12 B2 136.0800 136.3190 0.2390 80
12 C2 136.3200 136.5590 0.2390 80
12 C3 136.5600 136.7990 0.2390 80
12 C2 136.8000 137.0390 0.2390 80
12 C3 137.0400 137.2790 0.2390 80
12 D2 137.2800 137.5190 0.2390 80
12 D3 137.5200 137.7590 0.2390 80
12 D2 137.7600 137.9990 0.2390 80
12 D3 138.0000 138.2390 0.2390 80
12 E2 138.2400 138.4790 0.2390 64
12 E3 138.4800 138.7190 0.2390 100
12 E2 138.7200 138.9590 0.2390 64
12 E3 138.9600 139.1990 0.2390 100
12 E2 139.2000 139.4390 0.2390 64
12 E3 139.4400 139.6790 0.2390 100
12 E2 139.6800 139.9190 0.2390 64
12 E3 139.9200 140.1590 0.2390 100
12 E2 140.1600 140.3990 0.2390 64
12 E3 140.4000 140.6390 0.2390 100
12 E2 140.6400 140.8790 0.2390 64
12 E3 140.8800 141.1190 0.2390 100
12 E2 141.1200 141.3590 0.2390 64
12 E3 141.3600 141.5990 0.2390 100
12 E2 141.6000 141.8390 0.2390 64
12 E3 141.8400 142.0790 0.2390 100
12 E2 142.0800 142.3190 0.2390 64
12 E3 142.3200 142.5590 0.2390 100
12 E2 142.5600 142.7990 0.2390 64
12 E3 142.8000 143.0390 0.2390 100
12 E2 143.0400 143.2790 0.2390 64
12 E3 143.2800 143.5190 0.2390 100
12 E2 143.5200 143.7590 0.2390 64
12 E3 143.7600 143.9990 0.2390 100
12 C2 144.0000 144.2390 0.2390 80
12 C3 144.2400 144.4790 0.2390 80
12 C2 144.4800 144.7190 0.2390 80
12 C3 144.7200 144.9590 0.2390 80
12 D2 144.9600 145.1990 0.2390 80
12 D3 145.2000 145.4390 0.2390 80
12 D2 145.4400 145.6790 0.2390 80
12 D3 145.6800 145.9190 0.2390 80
12 G2 145.9200 146.1590 0.2390 80
12 G3 146.1600 146.3990 0.2390 80
12 G2 146.4000 146.6390 0.2390 80
12 G3 146.6400 146.8790 0.2390 80
12 G2 146.8800 147.1190 0.2390 80
12 G3 147.1200 147.3590 0.2390 80
12 G2 147.3600 147.5990 0.2390 80
12 G3 147.6000 147.8390 0.2390 80
12 A2 147.8400 148.0790 0.2390 64
12 A3 148.0800 148.3190 0.2390 100
12 A2 148.3200 148.5590 0.2390 64
12 A3 148.5600 148.7990 0.2390 100
12 A2 148.8000 149.0390 0.2390 64
12 A3 149.0400 149.2790 0.2390 100
12 A2 149.2800 149.5190 0.2390 64
12 A3 149.5200 149.7590 0.2390 100
12 B1 149.7600 149.9990 0.2390 80
12 B2 150.0000 150.2390 0.2390 80
12 B1 150.2400 150.4790 0.2390 80
12 B2 150.4800 150.7190 0.2390 80
12 B1 150.7200 150.9590 0.2390 80
12 B2 150.9600 151.1990 0.2390 80
12 B1 151.2000 151.4390 0.2390 80
12 B2 151.4400 151.6790 0.2390 80
12 C2 151.6800 151.9190 0.2390 80
12 C3 151.9200 152.1590 0.2390 80
12 C2 152.1600 152.3990 0.2390 80
12 C3 152.4000 152.6390 0.2390 80
12 D2 152.6400 152.8790 0.2390 80
12 D3 152.8800 153.1190 0.2390 80
12 D2 153.1200 153.3590 0.2390 80
12 D3 153.3600 153.5990 0.2390 80
12 E2 153.6000 153.8390 0.2390 64
12 E3 153.8400 154.0790 0.2390 100
12 E2 154.0800 154.3190 0.2390 64
12 E3 154.3200 154.5590 0.2390 100
12 E2 154.5600 154.7990 0.2390 64
12 E3 154.8000 155.0390 0.2390 100
12 E2 155.0400 155.2790 0.2390 64
12 E3 155.2800 155.5190 0.2390 100
12 E2 155.5200 155.7590 0.2390 64
12 E3 155.7600 155.9990 0.2390 100
12 E2 156.0000 156.2390 0.2390 64
12 E3 156.2400 156.4790 0.2390 100
12 E2 156.4800 156.7190 0.2390 64
12 E3 156.7200 156.9590 0.2390 100
12 E2 156.9600 157.1990 0.2390 64
12 E3 157.2000 157.4390 0.2390 100
12 E2 157.4400 157.6790 0.2390 64
12 E3 157.6800 157.9190 0.2390 100
12 E2 157.9200 158.1590 0.2390 64
12 E3 158.1600 158.3990 0.2390 100
12 E2 158.4000 158.6390 0.2390 64
12 E3 158.6400 158.8790 0.2390 100
12 E2 158.8800 159.1190 0.2390 64
12 E3 159.1200 159.3590 0.2390 100
12 C2 159.3600 159.5990 0.2390 80
12 C3 159.6000 159.8390 0.2390 80
12 C2 159.8400 160.0790 0.2390 80
12 C3 160.0800 160.3190 0.2390 80
12 D2 160.3200 160.5590 0.2390 80
12 D3 160.5600 160.7990 0.2390 80
12 D2 160.8000 161.0390 0.2390 80
12 D3 161.0400 161.2790 0.2390 80
12 G2 161.2800 161.5190 0.2390 80
12 G3 161.5200 161.7590 0.2390 80
12 G2 161.7600 161.9990 0.2390 80
12 G3 162.0000 162.2390 0.2390 80
12 G2 162.2400 162.4790 0.2390 80
12 G3 162.4800 162.7190 0.2390 80
12 G2 162.7200 162.9590 0.2390 80
12 G3 162.9600 163.1990 0.2390 80
12 A2 163.2000 163.4390 0.2390 64
12 A3 163.4400 163.6790 0.2390 100
12 A2 163.6800 163.9190 0.2390 64
12 A3 163.9200 164.1590 0.2390 100
12 A2 164.1600 164.3990 0.2390 64
12 A3 164.4000 164.6390 0.2390 100
12 A2 164.6400 164.8790 0.2390 64
12 A3 164.8800 165.1190 0.2390 100
12 B1 165.1200 165.3590 0.2390 80
12 B2 165.3600 165.5990 0.2390 80
12 B1 165.6000 165.8390 0.2390 80
12 B2 165.8400 166.0790 0.2390 80
12 B1 166.0800 166.3190 0.2390 80
12 B2 166.3200 166.5590 0.2390 80
12 B1 166.5600 166.7990 0.2390 80
12 B2 166.8000 167.0390 0.2390 80
12 C2 167.0400 167.2790 0.2390 80
12 C3 167.2800 167.5190 0.2390 80
12 C2 167.5200 167.7590 0.2390 80
12 C3 167.7600 167.9990 0.2390 80
12 D2 168.0000 168.2390 0.2390 80
12 D3 168.2400 168.4790 0.2390 80
12 D2 168.4800 168.7190 0.2390 80
12 D3 168.7200 168.9590 0.2390 80
12 E2 168.9600 169.1990 0.2390 64
12 E3 169.2000 169.4390 0.2390 100
12 E2 169.4400 169.6790 0.2390 64
12 E3 169.6800 169.9190 0.2390 100
12 E2 169.9200 170.1590 0.2390 64
12 E3 170.1600 170.3990 0.2390 100
12 E2 170.4000 170.6390 0.2390 64
12 E3 170.6400 170.8790 0.2390 100
12 E2 170.8800 171.1190 0.2390 64
12 E3 171.1200 171.3590 0.2390 100
12 E2 171.3600 171.5990 0.2390 64
12 E3 171.6000 171.8390 0.2390 100
12 E2 171.8400 172.0790 0.2390 64
12 E3 172.0800 172.3190 0.2390 100
12 E2 172.3200 172.5590 0.2390 64
12 E3 172.5600 172.7990 0.2390 100
12 E2 172.8000 173.0390 0.2390 64
12 E3 173.0400 173.2790 0.2390 100
12 E2 173.2800 173.5190 0.2390 64
12 E3 173.5200 173.7590 0.2390 100
12 E2 173.7600 173.9990 0.2390 64
12 E3 174.0000 174.2390 0.2390 100
12 E2 174.2400 174.4790 0.2390 64
12 E3 174.4800 174.7190 0.2390 100
12 C2 174.7200 174.9590 0.2390 80
12 C3 174.9600 175.1990 0.2390 80
12 C2 175.2000 175.4390 0.2390 80
12 C3 175.4400 175.6790 0.2390 80
12 D2 175.6800 175.9190 0.2390 80
12 D3 175.9200 176.1590 0.2390 80
12 D2 176.1600 176.3990 0.2390 80
12 D3 176.4000 176.6390 0.2390 80
12 G2 176.6400 176.8790 0.2390 80
12 G3 176.8800 177.1190 0.2390 80
12 G2 177.1200 177.3590 0.2390 80
12 G3 177.3600 177.5990 0.2390 80
12 G2 177.6000 177.8390 0.2390 80
12 G3 177.8400 178.0790 0.2390 80
12 G2 178.0800 178.3190 0.2390 80
12 G3 178.3200 178.5590 0.2390 80
12 A2 178.5600 178.7990 0.2390 64
12 A3 178.8000 179.0390 0.2390 100
12 A2 179.0400 179.2790 0.2390 64
12 A3 179.2800 179.5190 0.2390 100
12 A2 179.5200 179.7590 0.2390 64
12 A3 179.7600 179.9990 0.2390 100
12 A2 180.0000 180.2390 0.2390 64
12 A3 180.2400 180.4790 0.2390 100
12 B1 180.4800 180.7190 0.2390 80
12 B2 180.7200 180.9590 0.2390 80
12 B1 180.9600 181.1990 0.2390 80
12 B2 181.2000 181.4390 0.2390 80
12 B1 181.4400 181.6790 0.2390 80
12 B2 181.6800 181.9190 0.2390 80
12 B1 181.9200 182.1590 0.2390 80
12 B2 182.1600 182.3990 0.2390 80
12 C2 182.4000 182.6390 0.2390 80
12 C3 182.6400 182.8790 0.2390 80
12 C2 182.8800 183.1190 0.2390 80
12 C3 183.1200 183.3590 0.2390 80
12 D2 183.3600 183.5990 0.2390 80
12 D3 183.6000 183.8390 0.2390 80
12 D2 183.8400 184.0790 0.2390 80
12 D3 184.0800 184.3190 0.2390 80
12 E2 184.3200 184.5590 0.2390 64
12 E3 184.5600 184.7990 0.2390 100
12 E2 184.8000 185.0390 0.2390 64
12 E3 185.0400 185.2790 0.2390 100
12 E2 185.2800 185.5190 0.2390 64
12 E3 185.5200 185.7590 0.2390 100
12 E2 185.7600 185.9990 0.2390 64
12 E3 186.0000 186.2390 0.2390 100
12 E2 186.2400 186.4790 0.2390 64
12 E3 186.4800 186.7190 0.2390 100
12 E2 186.7200 186.9590 0.2390 64
12 E3 186.9600 187.1990 0.2390 100
12 E2 187.2000 187.4390 0.2390 64
12 E3 187.4400 187.6790 0.2390 100
12 E2 187.6800 187.9190 0.2390 64
12 E3 187.9200 188.1590 0.2390 100
12 E2 188.1600 188.3990 0.2390 64
12 E3 188.4000 188.6390 0.2390 100
12 E2 188.6400 188.8790 0.2390 64
12 E3 188.8800 189.1190 0.2390 100
12 E2 189.1200 189.3590 0.2390 64
12 E3 189.3600 189.5990 0.2390 100
12 E2 189.6000 189.8390 0.2390 64
12 E3 189.8400 190.0790 0.2390 100
12 C2 190.0800 190.3190 0.2390 80
12 C3 190.3200 190.5590 0.2390 80
12 C2 190.5600 190.7990 0.2390 80
12 C3 190.8000 191.0390 0.2390 80
12 D2 191.0400 191.2790 0.2390 80
12 D3 191.2800 191.5190 0.2390 80
12 D2 191.5200 191.7590 0.2390 80
12 D3 191.7600 191.9990 0.2390 80
12 G2 192.0000 192.2390 0.2390 80
12 G3 192.2400 192.4790 0.2390 80
12 G2 192.4800 192.7190 0.2390 80
12 G3 192.7200 192.9590 0.2390 80
12 G2 192.9600 193.1990 0.2390 80
12 G3 193.2000 193.4390 0.2390 80
12 G2 193.4400 193.6790 0.2390 80
12 G3 193.6800 193.9190 0.2390 80
12 A2 193.9200 194.1590 0.2390 64
12 A3 194.1600 194.3990 0.2390 100
12 A2 194.4000 194.6390 0.2390 64
12 A3 194.6400 194.8790 0.2390 100
12 A2 194.8800 195.1190 0.2390 64
12 A3 195.1200 195.3590 0.2390 100
12 A2 195.3600 195.5990 0.2390 64
12 A3 195.6000 195.8390 0.2390 100
12 B1 195.8400 196.0790 0.2390 80
12 B2 196.0800 196.3190 0.2390 80
12 B1 196.3200 196.5590 0.2390 80
12 B2 196.5600 196.7990 0.2390 80
12 B1 196.8000 197.0390 0.2390 80
12 B2 197.0400 197.2790 0.2390 80
12 B1 197.2800 197.5190 0.2390 80
12 B2 197.5200 197.7590 0.2390 80
12 C2 197.7600 197.9990 0.2390 80
12 C3 198.0000 198.2390 0.2390 80
12 C2 198.2400 198.4790 0.2390 80
12 C3 198.4800 198.7190 0.2390 80
12 D2 198.7200 198.9590 0.2390 80
12 D3 198.9600 199.1990 0.2390 80
12 D2 199.2000 199.4390 0.2390 80
12 D3 199.4400 199.6790 0.2390 80
12 E2 199.6800 199.9190 0.2390 64
12 E3 199.9200 200.1590 0.2390 100
12 E2 200.1600 200.3990 0.2390 64
12 E3 200.4000 200.6390 0.2390 100
12 E2 200.6400 200.8790 0.2390 64
12 E3 200.8800 201.1190 0.2390 100
12 E2 201.1200 201.3590 0.2390 64
12 E3 201.3600 201.5990 0.2390 100
12 E2 201.6000 201.8390 0.2390 64
12 E3 201.8400 202.0790 0.2390 100
12 E2 202.0800 202.3190 0.2390 64
12 E3 202.3200 202.5590 0.2390 100
12 E2 202.5600 202.7990 0.2390 64
12 E3 202.8000 203.0390 0.2390 100
12 E2 203.0400 203.2790 0.2390 64
12 E3 203.2800 203.5190 0.2390 100
12 E2 203.5200 203.7590 0.2390 64
12 E3 203.7600 203.9990 0.2390 100
12 E2 204.0000 204.2390 0.2390 64
12 E3 204.2400 204.4790 0.2390 100
12 E2 204.4800 204.7190 0.2390 64
12 E3 204.7200 204.9590 0.2390 100
12 E2 204.9600 205.1990 0.2390 64
12 E3 205.2000 205.4390 0.2390 100
12 C2 205.4400 205.6790 0.2390 80
12 C3 205.6800 205.9190 0.2390 80
12 C2 205.9200 206.1590 0.2390 80
12 C3 206.1600 206.3990 0.2390 80
12 D2 206.4000 206.6390 0.2390 80
12 D3 206.6400 206.8790 0.2390 80
12 D2 206.8800 207.1190 0.2390 80
12 D3 207.1200 207.3590 0.2390 80
12 G2 207.3600 207.5990 0.2390 80
12 G3 207.6000 207.8390 0.2390 80
12 G2 207.8400 208.0790 0.2390 80
12 G3 208.0800 208.3190 0.2390 80
12 G2 208.3200 208.5590 0.2390 80
12 G3 208.5600 208.7990 0.2390 80
12 G2 208.8000 209.0390 0.2390 80
12 G3 209.0400 209.2790 0.2390 80
12 A2 209.2800 209.5190 0.2390 64
12 A3 209.5200 209.7590 0.2390 100
12 A2 209.7600 209.9990 0.2390 64
12 A3 210.0000 210.2390 0.2390 100
12 A2 210.2400 210.4790 0.2390 64
12 A3 210.4800 210.7190 0.2390 100
12 A2 210.7200 210.9590 0.2390 64
12 A3 210.9600 211.1990 0.2390 100
12 B1 211.2000 211.4390 0.2390 80
12 B2 211.4400 211.6790 0.2390 80
12 B1 211.6800 211.9190 0.2390 80
12 B2 211.9200 212.1590 0.2390 80
12 B1 212.1600 212.3990 0.2390 80
12 B2 212.4000 212.6390 0.2390 80
12 B1 212.6400 212.8790 0.2390 80
12 B2 212.8800 213.1190 0.2390 80
12 C2 213.1200 213.3590 0.2390 80
12 C3 213.3600 213.5990 0.2390 80
12 C2 213.6000 213.8390 0.2390 80
12 C3 213.8400 214.0790 0.2390 80
12 D2 214.0800 214.3190 0.2390 80
12 D3 214.3200 214.5590 0.2390 80
12 D2 214.5600 214.7990 0.2390 80
12 D3 214.8000 215.0390 0.2390 80
12 E2 215.0400 215.2790 0.2390 64
12 E3 215.2800 215.5190 0.2390 100
12 E2 215.5200 215.7590 0.2390 64
12 E3 215.7600 215.9990 0.2390 100
12 E2 216.0000 216.2390 0.2390 64
12 E3 216.2400 216.4790 0.2390 100
12 E2 216.4800 216.7190 0.2390 64
12 E3 216.7200 216.9590 0.2390 100
12 E3 216.9600 217.1990 0.2390 100
12 E2 217.2000 217.4390 0.2390 64
12 E3 217.4400 217.6790 0.2390 100
12 E3 217.6800 217.9190 0.2390 100
12 E2 217.9200 218.1590 0.2390 64
12 E3 218.1600 218.3990 0.2390 100
12 E2 218.4000 218.6390 0.2390 64
12 E3 218.6400 218.8790 0.2390 100
12 E2 218.8800 219.1190 0.2390 64
12 E3 219.1200 219.3590 0.2390 100
12 E2 219.3600 219.5990 0.2390 64
12 E3 219.6000 219.8390 0.2390 100
12 E2 219.8400 220.0790 0.2390 64
12 E3 220.0800 220.3190 0.2390 100
12 E2 220.3200 220.5590 0.2390 64
12 E3 220.5600 220.7990 0.2390 100
